<svg width="16" height="16" viewBox="0 0 16 16" fill="none" xmlns="http://www.w3.org/2000/svg">
<g clip-path="url(#clip0_438_2638)">
<path fill-rule="evenodd" clip-rule="evenodd" d="M9.45159 12.0769C11.5834 12.3833 13.558 10.9169 13.8619 8.80181C14.1659 6.68666 12.6841 4.72366 10.5523 4.41732C8.42044 4.11098 6.44586 5.57731 6.14191 7.69245C5.83797 9.80759 7.31976 11.7706 9.45159 12.0769ZM9.61388 10.9555C11.1213 11.1721 12.5175 10.1353 12.7324 8.6397C12.9473 7.14411 11.8995 5.75609 10.3922 5.53948C8.88476 5.32287 7.48856 6.35969 7.27364 7.85529C7.05873 9.35088 8.10649 10.7389 9.61388 10.9555Z" fill="white"/>
<path d="M14.515 12.8471C14.0977 12.541 13.6448 12.2088 13.1765 11.3995L12.0639 12.2257C12.7149 12.8993 12.9088 13.4239 13.0874 13.9073C13.2509 14.3498 13.4017 14.7578 13.8787 15.2139C14.8769 16.1685 15.4806 15.6019 15.4806 15.6019C15.4806 15.6019 16.1987 15.187 15.5563 13.9682C15.2493 13.3857 14.8971 13.1273 14.515 12.8471Z" fill="white"/>
<path d="M7.76987 15.262C8.67593 15.3189 9.52957 14.7052 9.55568 13.0092C9.55436 12.97 9.55235 12.9318 9.54969 12.8945C9.47917 12.8875 9.40847 12.8789 9.33764 12.8688C6.94645 12.5252 5.22637 10.4453 5.30462 8.09075C4.95291 8.16145 4.30202 8.44851 3.72538 9.56002C3.3218 10.3379 2.88851 10.8073 2.51884 11.2078C2.01436 11.7543 1.62837 12.1725 1.59806 13.0711C1.62417 14.7671 2.47776 15.3498 3.38387 15.2932C3.85327 15.2639 4.24862 15.1262 4.61015 15.0003C4.94648 14.8831 5.25353 14.7762 5.56367 14.7762L5.59004 14.7606C5.90077 14.7606 6.2084 14.8643 6.54548 14.9779C6.90649 15.0996 7.30129 15.2327 7.76987 15.262Z" fill="white"/>
<path d="M6.10294 8.16916C6.0665 10.0542 7.4215 11.7216 9.32683 12.057C9.16299 11.7401 8.92383 11.4896 8.64873 11.2015C8.27535 10.8104 7.83577 10.35 7.4284 9.56002C6.97469 8.68027 6.46894 8.31734 6.10294 8.16916Z" fill="white"/>
<path d="M9.01993 4.49885C7.80152 4.81128 6.78849 5.70052 6.34383 6.89705C6.50721 7.1415 6.72549 7.31763 6.98746 7.39323C7.11348 7.42961 7.24195 7.4405 7.37007 7.42833C7.61644 6.63992 8.20519 6.02232 8.94429 5.71816C8.94634 5.71041 8.94837 5.70265 8.95037 5.69487C9.05762 5.27828 9.07621 4.86641 9.01993 4.49885Z" fill="white"/>
<path d="M8.75924 3.74027C7.62182 4.04868 6.63658 4.77585 6.01187 5.77038C6.00039 5.485 6.03133 5.18135 6.11016 4.87515C6.4099 3.71081 7.28875 2.95044 8.07305 3.17679C8.35847 3.25917 8.59203 3.46087 8.75924 3.74027Z" fill="white"/>
<path d="M5.24429 5.09842C5.32962 6.28997 4.74815 7.30811 3.94559 7.37254C3.143 7.43697 2.42321 6.52325 2.33788 5.33173C2.25254 4.1402 2.83401 3.12204 3.63657 3.05761C4.43914 2.99318 5.15895 3.9069 5.24429 5.09842Z" fill="white"/>
<path d="M8.91172 7.93991C9.17275 6.92597 9.93809 6.26384 10.6211 6.46098C11.3041 6.6581 11.6461 7.63985 11.3851 8.65373C11.124 9.66768 10.3587 10.3298 9.67571 10.1327C8.99273 9.93558 8.65069 8.95385 8.91172 7.93991Z" fill="white"/>
<path d="M0.851624 6.4609C1.53462 6.26379 2.29991 6.92594 2.56097 7.93983C2.822 8.95377 2.47995 9.93552 1.79698 10.1326C1.11399 10.3297 0.34867 9.66757 0.0876121 8.65368C-0.173446 7.63977 0.168628 6.65801 0.851624 6.4609Z" fill="white"/>
</g>
<defs>
<clipPath id="clip0_438_2638">
<rect width="16" height="16" fill="white"/>
</clipPath>
</defs>
</svg>
