<svg width="16" height="16" viewBox="0 0 16 16" fill="none" xmlns="http://www.w3.org/2000/svg">
<path d="M10.2308 10.5041L9.90598 9.6281H6.00855L5.66667 10.5041L5.15385 12.5702L5.88889 12.6529L5.87179 13H3.01709L3 12.686L3.51282 12.5702L7.37607 3.42975L6.7265 3.31405L6.74359 3H9.54701L9.5641 3.31405L8.91453 3.42975L12.4872 12.5702L13 12.686L12.9829 13H9.94017L9.92308 12.6529L10.6581 12.5702L10.2308 10.5041ZM8.04274 4.61983L6.45299 8.52066H9.49573L8.04274 4.61983Z" fill="white"/>
<path fill-rule="evenodd" clip-rule="evenodd" d="M9.92294 12.6529L10.658 12.5703L10.2306 10.5041L9.90584 9.62811H6.00841L5.66653 10.5041L5.15371 12.5703L5.88875 12.6529L5.87165 13H3.01695L2.99986 12.686L3.51268 12.5703L7.37593 3.42976L6.72635 3.31406L6.74345 3.00001H9.54687L9.56396 3.31406L8.91439 3.42976L12.487 12.5703L12.9999 12.686L12.9828 13H9.94003L9.92294 12.6529ZM12.7085 12.3127L13.3132 12.4491L13.2669 13.3H9.65444L9.60944 12.3863L10.2976 12.3089L9.94145 10.5871L9.69711 9.92811H6.21336L5.95303 10.5952L5.52731 12.3104L6.20224 12.3863L6.15724 13.3H2.73284L2.68652 12.4491L3.29634 12.3115L6.95326 3.6592L6.41237 3.56286L6.45933 2.70001H9.83098L9.87795 3.56286L9.32688 3.66101L12.7085 12.3127ZM6.45285 8.52067H9.49559L8.04259 4.61985L6.45285 8.52067ZM8.03003 5.44558L6.89907 8.22067H9.0637L8.03003 5.44558Z" fill="#212121"/>
</svg>
