<svg width="16" height="16" viewBox="0 0 16 16" fill="none" xmlns="http://www.w3.org/2000/svg">
<path d="M7.48535 3.1991H8.4016V13.6001H7.48535V3.1991Z" fill="white"/>
<path d="M1.98047 6.11453C1.98047 5.80682 2.22992 5.55737 2.53763 5.55737H5.57419C5.8819 5.55737 6.13135 5.80682 6.13135 6.11453C6.13135 6.42224 5.8819 6.67169 5.57419 6.67169H2.53763C2.22992 6.67169 1.98047 6.42224 1.98047 6.11453Z" fill="white"/>
<path d="M1.98047 9.74173C1.98047 9.43402 2.22992 9.18457 2.53763 9.18457H5.57419C5.8819 9.18457 6.13135 9.43402 6.13135 9.74173C6.13135 10.0494 5.8819 10.2989 5.57419 10.2989H2.53763C2.22992 10.2989 1.98047 10.0494 1.98047 9.74173Z" fill="white"/>
<path d="M7.84404 14.0901L7.94723 14.111L8.0501 14.0886C8.77637 13.9299 9.36558 13.7818 9.86568 13.656C9.95288 13.6341 10.0374 13.6129 10.1194 13.5924C10.6764 13.4532 11.1098 13.3512 11.5283 13.2932C12.3391 13.1809 13.1319 13.2286 14.6441 13.5925C15.0049 13.6794 15.3871 13.4149 15.3871 13.0095L15.387 3.15077C15.3869 2.82835 15.1322 2.56386 14.8104 2.55123C14.4845 2.53843 14.1891 2.52629 13.9179 2.51515C12.6115 2.46146 11.8461 2.55614 11.0215 2.71162C10.84 2.74584 10.6577 2.78252 10.4671 2.82086C9.81833 2.95138 9.07411 3.10111 7.94337 3.23817C6.81257 3.1011 6.06839 2.95137 5.41964 2.82084C5.22914 2.78251 5.04686 2.74583 4.86544 2.71162C4.04094 2.55614 3.2756 2.46146 1.96917 2.51515C1.69801 2.52629 1.40261 2.53843 1.07666 2.55123C0.754888 2.56386 0.500153 2.82835 0.500148 3.15077L0.500002 13.0088C0.499996 13.4148 0.883663 13.6803 1.2459 13.5911C2.63072 13.2504 3.34468 13.2 4.14839 13.3062C4.56557 13.3613 5.01435 13.4597 5.60716 13.5962C5.68235 13.6135 5.75965 13.6314 5.83925 13.6498C6.38233 13.7753 7.03204 13.9255 7.84404 14.0901Z" stroke="white"/>
</svg>
