<svg width="17" height="17" viewBox="0 0 17 17" fill="none" xmlns="http://www.w3.org/2000/svg">
<g clip-path="url(#clip0_629_3351)">
<path fill-rule="evenodd" clip-rule="evenodd" d="M13.152 4.39889C14.774 4.37564 16.1015 5.67175 16.117 7.29381C16.1274 8.38091 15.5459 9.33853 14.673 9.85894L14.6814 10.7415L14.1921 10.7485L14.2343 15.1539L13.2647 16.1469L12.2764 15.182L12.2717 14.6925L13.246 14.1889L12.2623 13.7135L12.2576 13.224L12.7424 12.7274L12.2483 12.245L12.2342 10.7766L11.7446 10.7836L11.7361 9.90111C10.8534 9.40588 10.2537 8.46515 10.2433 7.37801C10.2278 5.75594 11.5299 4.42214 13.152 4.39889ZM13.1614 5.3779C12.6205 5.38565 12.1867 5.83023 12.1918 6.37094C12.197 6.91164 12.6393 7.34366 13.1802 7.33591C13.7208 7.32816 14.1549 6.88358 14.1497 6.34287C14.1446 5.80217 13.7021 5.37015 13.1614 5.3779Z" fill="white"/>
<path d="M8.22475 7.82639C8.22475 9.43178 6.92333 10.7332 5.31794 10.7332C3.71256 10.7332 2.41113 9.43178 2.41113 7.82639C2.41113 6.221 3.71256 4.91958 5.31794 4.91958C6.92333 4.91958 8.22475 6.221 8.22475 7.82639Z" fill="white"/>
<path fill-rule="evenodd" clip-rule="evenodd" d="M7.67194 12.2776L5.42511 16.2571L2.93262 12.2744C3.4598 12.0209 4.04847 11.8803 4.66464 11.8803H5.93312C6.55203 11.8803 7.14309 12.0221 7.67194 12.2776Z" fill="#575757"/>
<path d="M2.93928 12.26C1.84466 12.7864 1.01513 13.7996 0.754908 15.0523L0.491699 16.3193H10.113L10.1117 16.3106L9.85982 15.07C9.60446 13.8122 8.77528 12.7932 7.6786 12.2632L5.43177 16.2427L2.93928 12.26Z" fill="white"/>
</g>
<defs>
<clipPath id="clip0_629_3351">
<rect width="16" height="16" fill="white" transform="translate(0.491699 0.398582)"/>
</clipPath>
</defs>
</svg>
