<svg width="16" height="16" viewBox="0 0 16 16" fill="none" xmlns="http://www.w3.org/2000/svg">
<path d="M2.04688 3.36791C2.04688 2.87118 2.44955 2.46851 2.94628 2.46851H13.0536C13.5504 2.46851 13.953 2.87119 13.953 3.36791V14.5099C13.953 15.0067 13.5504 15.4094 13.0536 15.4094H2.94628C2.44955 15.4094 2.04688 15.0067 2.04688 14.5099V3.36791Z" fill="#FFA724"/>
<path d="M3.12988 3.51453H12.8842V14.2956H3.12988V3.51453Z" fill="#EFD8B5"/>
<path d="M6.50382 2.01008H5.51503C5.23854 2.01008 4.991 2.13082 4.81991 2.32158C4.67159 2.48697 4.58057 2.70488 4.58057 2.94454C4.58057 3.05392 4.60032 3.15848 4.63489 3.25604C4.76334 3.61874 5.10837 3.87901 5.51503 3.87901H10.4988C10.9055 3.87901 11.2505 3.61874 11.3789 3.25604C11.4135 3.15848 11.4333 3.05396 11.4333 2.94454C11.4333 2.70488 11.3422 2.48697 11.1939 2.32158C11.0229 2.13082 10.7752 2.01008 10.4988 2.01008H9.51001C9.54458 1.91251 9.56434 1.808 9.56434 1.69858C9.56434 1.58917 9.54458 1.48465 9.51001 1.38708C9.38156 1.02443 9.03654 0.76416 8.62987 0.76416H7.38395C6.97729 0.76416 6.63226 1.02443 6.50382 1.38712C6.46924 1.48469 6.44949 1.58921 6.44949 1.69862C6.44949 1.80804 6.46933 1.91255 6.50382 2.01008Z" fill="#737373"/>
<path d="M14.5942 8.29428C14.5962 8.29611 14.5974 8.29872 14.5974 8.30146V14.7026C14.5974 15.2549 14.1497 15.7026 13.5974 15.7026H7.57861C7.02633 15.7026 6.57861 15.2549 6.57861 14.7026V7.34668C6.57861 6.79439 7.02633 6.34668 7.57861 6.34668H12.0697C12.3189 6.34668 12.5591 6.43971 12.7433 6.60755L14.5942 8.29428V8.29428Z" fill="#FC7B24"/>
<path d="M7.33594 8.05286C7.33594 7.57844 7.72053 7.19385 8.19495 7.19385L12.2238 7.19385C12.4675 7.19385 12.6392 7.43327 12.5609 7.66411V7.66411C12.4727 7.9245 12.7004 8.18238 12.9697 8.12711L13.2298 8.07375C13.545 8.00906 13.8403 8.24989 13.8403 8.5717V13.9965C13.8403 14.4709 13.4557 14.8555 12.9813 14.8555H8.19495C7.72053 14.8555 7.33594 14.4709 7.33594 13.9965V8.05286Z" fill="#F6B78D"/>
<path d="M14.4009 8.12032C14.4684 8.18185 14.4249 8.29423 14.3336 8.29423H12.5546C12.4994 8.29423 12.4546 8.24946 12.4546 8.19423V6.5731C12.4546 6.48623 12.5577 6.44067 12.6219 6.49918L14.4009 8.12032Z" fill="#FC7B24"/>
<path d="M14.4009 8.12032C14.4684 8.18185 14.4249 8.29423 14.3336 8.29423H12.5546C12.4994 8.29423 12.4546 8.24946 12.4546 8.19423V6.5731C12.4546 6.48623 12.5577 6.44067 12.6219 6.49918L14.4009 8.12032Z" fill="#FC7B24"/>
<path d="M14.4009 8.12032C14.4684 8.18185 14.4249 8.29423 14.3336 8.29423H12.5546C12.4994 8.29423 12.4546 8.24946 12.4546 8.19423V6.5731C12.4546 6.48623 12.5577 6.44067 12.6219 6.49918L14.4009 8.12032Z" fill="white" fill-opacity="0.7"/>
</svg>
