<svg width="16" height="16" viewBox="0 0 16 16" fill="none" xmlns="http://www.w3.org/2000/svg">
<path d="M14.0455 11.3389C14.0173 11.2345 13.9759 11.1425 13.9212 11.063C13.8665 10.9818 13.7994 10.913 13.7199 10.8567C13.6403 10.8003 13.5492 10.7581 13.4464 10.7299C13.3437 10.7001 13.231 10.6851 13.1084 10.6851C12.8614 10.6851 12.6477 10.7448 12.467 10.8641C12.288 10.9834 12.1497 11.1574 12.0519 11.3861C11.9541 11.6132 11.9052 11.8891 11.9052 12.2139C11.9052 12.5404 11.9525 12.8188 12.0469 13.0491C12.1414 13.2795 12.2781 13.4551 12.4571 13.5761C12.6361 13.6971 12.8531 13.7576 13.1084 13.7576C13.3337 13.7576 13.5243 13.7211 13.6801 13.6482C13.8375 13.5736 13.9568 13.4684 14.038 13.3325C14.1192 13.1966 14.1598 13.0367 14.1598 12.8527L14.3885 12.8801H13.1506V11.9827H15.3456V12.6564C15.3456 13.1121 15.2486 13.5024 15.0547 13.8272C14.8625 14.152 14.5973 14.4014 14.2593 14.5754C13.9229 14.7494 13.5359 14.8364 13.0984 14.8364C12.6129 14.8364 12.1861 14.7312 11.8182 14.5207C11.4503 14.3103 11.1636 14.0103 10.9581 13.6209C10.7526 13.2298 10.6499 12.7657 10.6499 12.2288C10.6499 11.8112 10.712 11.4408 10.8363 11.1177C10.9606 10.7929 11.1338 10.5178 11.3559 10.2924C11.5796 10.067 11.8381 9.89631 12.1314 9.78031C12.4264 9.6643 12.7438 9.6063 13.0835 9.6063C13.3785 9.6063 13.6527 9.64856 13.9063 9.73308C14.1615 9.81759 14.3869 9.93691 14.5824 10.091C14.7796 10.2451 14.9396 10.4283 15.0622 10.6404C15.1848 10.8525 15.2611 11.0853 15.2909 11.3389H14.0455Z" fill="white"/>
<path d="M10.4061 12.2214C10.4061 12.7815 10.2984 13.2563 10.083 13.6457C9.86753 14.0352 9.57586 14.331 9.20796 14.5331C8.84172 14.7353 8.43074 14.8364 7.97501 14.8364C7.51762 14.8364 7.10581 14.7345 6.73957 14.5307C6.37333 14.3268 6.08249 14.031 5.86705 13.6432C5.65328 13.2538 5.54639 12.7798 5.54639 12.2214C5.54639 11.6612 5.65328 11.1864 5.86705 10.797C6.08249 10.4076 6.37333 10.1117 6.73957 9.90957C7.10581 9.70739 7.51762 9.6063 7.97501 9.6063C8.43074 9.6063 8.84172 9.70739 9.20796 9.90957C9.57586 10.1117 9.86753 10.4076 10.083 10.797C10.2984 11.1864 10.4061 11.6612 10.4061 12.2214ZM9.1483 12.2214C9.1483 11.8899 9.10107 11.6099 9.00661 11.3812C8.91381 11.1525 8.77958 10.9793 8.60392 10.8616C8.42991 10.744 8.22027 10.6851 7.97501 10.6851C7.7314 10.6851 7.52177 10.744 7.3461 10.8616C7.17044 10.9793 7.03538 11.1525 6.94092 11.3812C6.84811 11.6099 6.80171 11.8899 6.80171 12.2214C6.80171 12.5528 6.84811 12.8329 6.94092 13.0616C7.03538 13.2902 7.17044 13.4634 7.3461 13.5811C7.52177 13.6987 7.7314 13.7576 7.97501 13.7576C8.22027 13.7576 8.42991 13.6987 8.60392 13.5811C8.77958 13.4634 8.91381 13.2902 9.00661 13.0616C9.10107 12.8329 9.1483 12.5528 9.1483 12.2214Z" fill="white"/>
<path d="M2.23389 14.7668V9.6759H3.46436V13.7675H5.58225V14.7668H2.23389Z" fill="white"/>
<path fill-rule="evenodd" clip-rule="evenodd" d="M4.54528 1.16331C3.43277 1.16331 2.53091 2.00734 2.53091 3.04851L2.53093 7.58712H3.44653L3.44653 3.04851C3.44653 2.4806 3.93846 2.02022 4.54528 2.02022H8.69204L8.69204 4.77898V4.77901C8.69203 4.96722 8.69202 5.13356 8.70406 5.27137C8.71686 5.41806 8.74557 5.56976 8.82591 5.71732C8.94361 5.93345 9.13135 6.10929 9.36253 6.21951C9.52018 6.29468 9.68223 6.32152 9.83895 6.33351C9.9862 6.34477 10.1639 6.34476 10.3651 6.34475L13.3129 6.34475L13.3129 8.61291C13.6243 8.63095 13.9288 8.68651 14.2225 8.78443C14.2245 8.78508 14.2265 8.78574 14.2285 8.7864L14.2285 5.9163C14.2285 5.80266 14.1803 5.69368 14.0944 5.61333L9.47358 1.2888C9.38772 1.20845 9.27127 1.16331 9.14985 1.16331H4.54528ZM14.2284 11.9828L14.2284 14.4083C14.2283 14.4851 14.2067 14.5572 14.1689 14.6195C13.8541 14.7641 13.4972 14.8365 13.0984 14.8365C12.6129 14.8365 12.1861 14.7312 11.8182 14.5208C11.5727 14.3803 11.3633 14.2 11.1901 13.9798H13.3128L13.3128 13.7466C13.4514 13.7307 13.5739 13.698 13.6801 13.6482C13.8375 13.5737 13.9568 13.4684 14.038 13.3325C14.0782 13.2654 14.1084 13.1924 14.1287 13.1135C14.1395 13.0716 14.1474 13.028 14.1526 12.9828C14.1565 12.9494 14.1588 12.9152 14.1595 12.8801H13.3128L13.3129 11.9828H14.2284ZM14.2284 9.86619L14.2284 11.3389H14.0455C14.0173 11.2345 13.9759 11.1426 13.9212 11.063C13.9022 11.0348 13.8816 11.008 13.8596 10.9828C13.8183 10.9354 13.7717 10.8934 13.7199 10.8567C13.6403 10.8003 13.5492 10.7581 13.4464 10.7299C13.4036 10.7175 13.3591 10.7077 13.3129 10.7004L13.3129 9.61518C13.5219 9.6316 13.7197 9.67091 13.9063 9.73311C14.0196 9.77062 14.1269 9.81498 14.2284 9.86619ZM6.09105 13.9798H9.86155C9.6801 14.209 9.46224 14.3934 9.20796 14.5332C8.84172 14.7354 8.43074 14.8365 7.97501 14.8365C7.51762 14.8365 7.10581 14.7345 6.73957 14.5307C6.68549 14.5006 6.63305 14.4685 6.58225 14.4344C6.39654 14.3097 6.2328 14.1581 6.09105 13.9798ZM3.44652 9.67593L3.44652 13.9798H5.58225V14.7668H2.73803C2.71183 14.7508 2.68727 14.7322 2.66481 14.7112C2.57895 14.6308 2.53073 14.5218 2.53076 14.4081L2.53096 13.7783L2.53094 9.67593H3.44652ZM10.5178 14.8367C10.5179 14.8366 10.5179 14.8365 10.518 14.8365C10.5181 14.8365 10.5182 14.8366 10.5182 14.8367H10.5178ZM12.6654 5.48784L9.60767 2.62614V4.76309C9.60767 4.97199 9.60802 5.10289 9.61664 5.20159C9.6248 5.29511 9.63808 5.32156 9.64171 5.32823C9.67172 5.38332 9.7195 5.428 9.7782 5.45599C9.78527 5.45936 9.8134 5.47179 9.91351 5.47944C10.019 5.48751 10.1588 5.48784 10.3821 5.48784H12.6654Z" fill="white"/>
</svg>
