<svg width="16" height="16" viewBox="0 0 16 16" fill="none" xmlns="http://www.w3.org/2000/svg">
<path d="M12.7008 10.1377C12.5102 11.9589 13.3255 12.2988 13.1237 13.6929C12.9218 15.0869 12.0785 14.9981 12.0785 14.9981C12.0785 14.9981 11.2387 15.1035 10.9874 13.714C10.7361 12.3244 11.5392 11.9685 11.284 10.1517L12.7008 10.1377Z" fill="#CD3D3C"/>
<path d="M12.0727 13.7021C11.8214 12.3126 12.6246 11.9653 12.3694 10.1485L11.283 10.1593C11.5382 11.976 10.735 12.3233 10.9863 13.7129C11.2376 15.1025 12.0774 14.9971 12.0774 14.9971C12.0774 14.9971 12.3466 15.0253 12.6172 14.7986C12.4027 14.6282 12.182 14.3066 12.0727 13.7021Z" fill="#CD3D3C"/>
<path fill-rule="evenodd" clip-rule="evenodd" d="M14.8299 8.40243C13.3065 9.96848 10.792 9.99332 9.2136 8.45791C7.6352 6.9225 7.59061 4.40828 9.114 2.84223C10.6374 1.27618 13.1519 1.25134 14.7303 2.78674C16.3087 4.32215 16.3533 6.83638 14.8299 8.40243ZM13.9935 7.58892C12.9163 8.69626 11.1383 8.71382 10.0222 7.62815C8.90617 6.54248 8.87464 4.7647 9.95181 3.65736C11.029 2.55003 12.807 2.53246 13.923 3.61813C15.0391 4.7038 15.0706 6.48158 13.9935 7.58892Z" fill="#CD3D3C"/>
<path fill-rule="evenodd" clip-rule="evenodd" d="M5.83206 1C6.55568 1 7.14456 1.58888 7.14456 2.3125V13.6875C7.14456 14.4111 6.55568 15 5.83206 15L3.10244 15C2.37881 15 1.78994 14.4111 1.78994 13.6875V2.3125C1.78994 1.58888 2.37881 1 3.10244 1H5.83206ZM2.76956 9.75H6.26956V6.25H2.76956V9.75ZM6.26956 13.6875V10.625H2.76956C2.76956 10.625 2.76956 13.3278 2.76956 13.6875C2.76956 14.0472 3.0287 14.125 3.21915 14.125C3.40961 14.125 5.83206 14.125 5.83206 14.125C6.07268 14.125 6.26956 13.9281 6.26956 13.6875Z" fill="#CD3D3C"/>
</svg>
