<svg width="16" height="16" viewBox="0 0 16 16" fill="none" xmlns="http://www.w3.org/2000/svg">
<path d="M12.8115 13.2374L8.33984 15.6316V9.84682L12.7849 7.51449L12.8115 13.2374Z" fill="white"/>
<path d="M2.93261 13.2374L7.4043 15.6316V9.84682L2.95928 7.51449L2.93261 13.2374Z" fill="white"/>
<path d="M5.07125 11.2561L7.39844 9.83986L2.93448 7.37654L0.525391 8.77945L5.07125 11.2561Z" fill="#DAD6D6"/>
<path d="M3.16243 7.25442L7.66883 4.77165L5.23257 3.38928L0.649902 5.89578L3.16243 7.25442Z" fill="#B3B3B3"/>
<path d="M12.5231 7.23502L15.1845 5.89398L10.6492 3.38928L8.01416 4.75404L12.5231 7.23502Z" fill="#DAD6D6"/>
<path d="M11.0287 11.1644L15.4747 8.80086L12.812 7.37654L8.34766 9.84767L11.0287 11.1644Z" fill="#B3B3B3"/>
</svg>
