<svg width="16" height="16" viewBox="0 0 16 16" fill="none" xmlns="http://www.w3.org/2000/svg">
<path d="M2.45674 7.99966C2.45674 8.46357 2.83282 8.83966 3.29674 8.83966H3.65571C3.77192 9.45224 4.01265 10.0207 4.35089 10.5175L4.09692 10.7715C3.76888 11.0995 3.76888 11.6314 4.09692 11.9594C4.42497 12.2875 4.95683 12.2875 5.28487 11.9594L5.53884 11.7055C6.03571 12.0437 6.60413 12.2844 7.21671 12.4007V12.7597C7.21671 13.2236 7.5928 13.5997 8.05671 13.5997C8.52062 13.5997 8.89674 13.2236 8.89674 12.7597V12.4007C9.50932 12.2845 10.0777 12.0437 10.5746 11.7055L10.8286 11.9595C11.1566 12.2875 11.6885 12.2875 12.0165 11.9595C12.3446 11.6314 12.3446 11.0996 12.0165 10.7715L11.7626 10.5176C12.1008 10.0207 12.3416 9.45221 12.4578 8.83966H12.8167C13.2807 8.83966 13.6567 8.46357 13.6567 7.99966C13.6567 7.53574 13.2807 7.15966 12.8167 7.15966H12.4578C12.3416 6.54708 12.1008 5.97865 11.7626 5.48179L12.0166 5.22782C12.3446 4.89978 12.3446 4.36792 12.0166 4.03987C11.6885 3.71183 11.1566 3.71183 10.8286 4.03987L10.5746 4.29384C10.0777 3.9556 9.50932 3.71484 8.89674 3.59863V3.23966C8.89674 2.77574 8.52065 2.39966 8.05674 2.39966C7.59282 2.39966 7.21674 2.77574 7.21674 3.23966V3.59863C6.60416 3.71484 6.03573 3.95557 5.53887 4.29381L5.2849 4.03985C4.95686 3.7118 4.425 3.7118 4.09695 4.03985C3.76891 4.36789 3.76891 4.89975 4.09695 5.22779L4.35092 5.48176C4.01268 5.97863 3.77195 6.54705 3.65573 7.15963H3.29674C2.83282 7.15966 2.45674 7.53574 2.45674 7.99966Z" fill="#554646"/>
<path d="M14.8074 7.33864C14.7977 7.33989 14.7881 7.3405 14.7786 7.3405C14.6692 7.3405 14.5741 7.25926 14.5597 7.14786C14.1378 3.89505 11.3421 1.44209 8.05665 1.44209C7.93453 1.44209 7.8356 1.34316 7.8356 1.22105C7.8356 1.09893 7.93453 1 8.05665 1C9.7676 1 11.4147 1.6239 12.6945 2.75675C13.9631 3.87976 14.7812 5.41902 14.9981 7.09098C15.0139 7.21206 14.9284 7.32294 14.8074 7.33864ZM8.05665 11.4632C9.96626 11.4632 11.5198 9.90961 11.5198 8C11.5198 6.09039 9.96626 4.53683 8.05665 4.53683C6.14705 4.53683 4.59348 6.09039 4.59348 8C4.59348 9.90961 6.14705 11.4632 8.05665 11.4632ZM8.05665 11.021C6.39082 11.021 5.0356 9.66581 5.0356 8C5.0356 6.33419 6.39082 4.97895 8.05665 4.97895C9.72249 4.97895 11.0777 6.33416 11.0777 8C11.0777 9.66584 9.72249 11.021 8.05665 11.021ZM1.30594 8.66136C1.42675 8.64559 1.5379 8.73103 1.55357 8.85214C1.97556 12.105 4.77124 14.5579 8.05665 14.5579C8.17877 14.5579 8.2777 14.6568 8.2777 14.779C8.2777 14.9011 8.17877 15 8.05665 15C6.3457 15 4.69862 14.3761 3.41885 13.2432C2.15018 12.1202 1.33206 10.581 1.11519 8.90902C1.09944 8.78794 1.18489 8.67706 1.30594 8.66136ZM8.05665 13.821C8.64173 13.821 9.1177 13.3451 9.1177 12.76V12.5805C9.62468 12.4638 10.1034 12.2655 10.5451 11.989L10.6722 12.1161C11.0859 12.5298 11.759 12.5298 12.1728 12.1162C12.5865 11.7025 12.5865 11.0293 12.1728 10.6156L12.0457 10.4885C12.3221 10.0468 12.5205 9.56803 12.6371 9.06107H12.8167C13.4017 9.06107 13.8777 8.5851 13.8777 8.00003C13.8777 7.41495 13.4017 6.93898 12.8167 6.93898H12.6371C12.5205 6.432 12.3221 5.95329 12.0457 5.51158L12.1728 5.38449C12.5865 4.97078 12.5865 4.29763 12.1728 3.88389C11.7591 3.47029 11.086 3.47023 10.6722 3.88389L10.5451 4.01101C10.1034 3.73457 9.62468 3.53621 9.11772 3.41957V3.24C9.11772 2.65493 8.64175 2.17895 8.05668 2.17895C7.4716 2.17895 6.99563 2.65493 6.99563 3.24V3.41951C6.48865 3.53616 6.00992 3.73454 5.56823 4.01096L5.44114 3.88384C5.02737 3.47018 4.35422 3.47023 3.94054 3.88384C3.52686 4.29755 3.52686 4.9707 3.94054 5.38443L4.06766 5.51155C3.79127 5.95321 3.59289 6.43195 3.47624 6.93893H3.29668C2.7116 6.93893 2.23563 7.4149 2.23563 7.99997C2.23563 8.58505 2.7116 9.06102 3.29668 9.06102H3.47624C3.59289 9.568 3.79127 10.0467 4.06766 10.4884L3.94054 10.6155C3.52686 11.0292 3.52686 11.7024 3.94054 12.1161C4.35422 12.5298 5.02737 12.5298 5.44114 12.1161L5.56823 11.989C6.00989 12.2654 6.48868 12.4638 6.99563 12.5804V12.7599C6.9956 13.3451 7.47158 13.821 8.05665 13.821ZM8.05665 13.379C7.71537 13.379 7.4377 13.1013 7.4377 12.76V12.401C7.4377 12.2948 7.36215 12.2036 7.25783 12.1838C6.68372 12.0749 6.14721 11.8526 5.6632 11.5231C5.57542 11.4634 5.45757 11.4744 5.38249 11.5495L5.12852 11.8035C4.88718 12.0449 4.4945 12.0449 4.25322 11.8035C4.01188 11.5622 4.01188 11.1695 4.25322 10.9282L4.50719 10.6742C4.58225 10.5991 4.59335 10.4813 4.5336 10.3935C4.20405 9.90947 3.98178 9.37293 3.87284 8.79885C3.85307 8.69453 3.76185 8.61901 3.65567 8.61901H3.29668C2.9554 8.61901 2.67773 8.34133 2.67773 8.00006C2.67773 7.65878 2.9554 7.3811 3.29668 7.3811H3.65567C3.76188 7.3811 3.85307 7.30555 3.87284 7.20126C3.98178 6.62715 4.20405 6.09061 4.5336 5.6066C4.59332 5.5188 4.58225 5.40098 4.50719 5.32589L4.25322 5.07192C4.01188 4.83059 4.01188 4.4379 4.25322 4.19662C4.49455 3.95523 4.88726 3.95528 5.12852 4.19662L5.38249 4.45059C5.45757 4.52565 5.57548 4.53678 5.6632 4.477C6.14724 4.14748 6.68375 3.92518 7.25783 3.81627C7.36217 3.7965 7.4377 3.70531 7.4377 3.59911V3.24C7.4377 2.89872 7.71537 2.62105 8.05665 2.62105C8.39793 2.62105 8.6756 2.89872 8.6756 3.24V3.599C8.6756 3.70523 8.75116 3.79639 8.85547 3.81616C9.42955 3.92507 9.96609 4.14735 10.4501 4.47692C10.5379 4.53667 10.6558 4.52557 10.7308 4.45048L10.9848 4.19651C11.2261 3.9552 11.6188 3.95518 11.8601 4.19654C12.1014 4.43788 12.1014 4.83056 11.8601 5.07184L11.6061 5.32581C11.5311 5.40089 11.52 5.51877 11.5797 5.60652C11.9092 6.09056 12.1315 6.62707 12.2404 7.20115C12.2602 7.3055 12.3514 7.38102 12.4576 7.38102H12.8167C13.1579 7.38102 13.4356 7.6587 13.4356 7.99997C13.4356 8.34125 13.1579 8.61893 12.8167 8.61893H12.4577C12.3514 8.61893 12.2603 8.69448 12.2405 8.79879C12.1316 9.3729 11.9093 9.90941 11.5798 10.3934C11.52 10.4812 11.5311 10.5991 11.6062 10.6741L11.8601 10.9281C12.1015 11.1694 12.1015 11.5621 11.8601 11.8034C11.6188 12.0448 11.2261 12.0447 10.9848 11.8034L10.7309 11.5495C10.6882 11.5067 10.6315 11.4847 10.5745 11.4847C10.5314 11.4847 10.4879 11.4973 10.4502 11.523C9.96609 11.8526 9.42955 12.0749 8.8555 12.1838C8.75115 12.2036 8.67563 12.2947 8.67563 12.4009V12.7599C8.6756 13.1013 8.39793 13.379 8.05665 13.379Z" fill="#AAAAAA"/>
<path d="M14.6634 7.85002C14.7019 7.91669 14.7981 7.91669 14.8366 7.85002L15.5294 6.65002C15.5679 6.58336 15.5198 6.50002 15.4428 6.50002L14.0572 6.50002C13.9802 6.50002 13.9321 6.58336 13.9706 6.65002L14.6634 7.85002Z" fill="#554646"/>
<path d="M1.4865 8.14998C1.44801 8.08331 1.35179 8.08331 1.3133 8.14998L0.620479 9.34998C0.581988 9.41664 0.630101 9.49998 0.707081 9.49998H2.09272C2.1697 9.49998 2.21781 9.41664 2.17932 9.34998L1.4865 8.14998Z" fill="#554646"/>
<path d="M9.49245 6.93244L9.18583 8.5663C9.16841 8.63542 9.13439 8.69924 9.08671 8.75222C9.03904 8.80521 8.97916 8.84577 8.91226 8.87037C8.84537 8.89497 8.77348 8.90287 8.70283 8.89339C8.63219 8.88392 8.56492 8.85734 8.50688 8.81598L8.15645 8.46555L7.245 9.37262C7.16293 9.45421 7.05191 9.5 6.93619 9.5C6.82047 9.5 6.70945 9.45421 6.62738 9.37262C6.54579 9.29055 6.5 9.17953 6.5 9.06381C6.5 8.94809 6.54579 8.83707 6.62738 8.755L7.53445 7.84355L7.18402 7.49312C7.14266 7.43508 7.11608 7.36781 7.10661 7.29717C7.09713 7.22652 7.10503 7.15463 7.12963 7.08774C7.15423 7.02084 7.19479 6.96096 7.24778 6.91329C7.30076 6.86561 7.36458 6.83159 7.4337 6.81417L9.06756 6.50755C9.12592 6.49539 9.1864 6.49795 9.24353 6.515C9.30065 6.53205 9.35264 6.56305 9.3948 6.6052C9.43695 6.64736 9.46795 6.69935 9.485 6.75647C9.50205 6.8136 9.50461 6.87408 9.49245 6.93244Z" fill="#28EA3C"/>
</svg>
