<svg width="16" height="16" viewBox="0 0 16 16" fill="none" xmlns="http://www.w3.org/2000/svg">
<g clip-path="url(#clip0_491_2867)">
<path fill-rule="evenodd" clip-rule="evenodd" d="M8.00047 11.6741C10.0296 11.6741 11.6746 10.0292 11.6746 8.00001C11.6746 5.97085 10.0296 4.32589 8.00047 4.32589C5.97131 4.32589 4.32635 5.97085 4.32635 8.00001C4.32635 10.0292 5.97131 11.6741 8.00047 11.6741ZM8.00049 9.80373C8.99665 9.80373 9.8042 8.99618 9.8042 8.00002C9.8042 7.00385 8.99665 6.1963 8.00049 6.1963C7.00433 6.1963 6.19678 7.00385 6.19678 8.00002C6.19678 8.99618 7.00433 9.80373 8.00049 9.80373Z" fill="white"/>
<path fill-rule="evenodd" clip-rule="evenodd" d="M12.2098 1.28928L10.0201 0.409882L9.27684 2.26062C8.88689 2.17776 8.48241 2.13417 8.06776 2.13417C7.66764 2.13417 7.27701 2.17476 6.89975 2.25205L6.15994 0.409882L3.97019 1.28928L4.73356 3.1901C4.1697 3.58801 3.68011 4.08412 3.28966 4.65355L1.646 3.99346L0.766602 6.1832L2.38121 6.83163C2.31372 7.18524 2.2784 7.55026 2.2784 7.92353C2.2784 8.42072 2.34107 8.90328 2.45895 9.36372L0.766602 10.0434L1.646 12.2331L3.50451 11.4867C3.86644 11.9496 4.29725 12.356 4.78152 12.6905L3.97019 14.7107L6.15994 15.5901L6.9566 13.6064C7.31621 13.6763 7.68771 13.7129 8.06776 13.7129C8.46235 13.7129 8.84773 13.6734 9.22015 13.5982L10.0201 15.5901L12.2098 14.7107L11.3888 12.6662C11.8445 12.3465 12.2521 11.9628 12.5984 11.5281L14.354 12.2331L15.2334 10.0434L13.6637 9.41299C13.7899 8.93774 13.8571 8.43849 13.8571 7.92353C13.8571 7.53248 13.8183 7.15048 13.7444 6.78117L15.2334 6.1832L14.354 3.99346L12.8164 4.61096C12.439 4.07098 11.9718 3.59835 11.4366 3.21473L12.2098 1.28928ZM12.6801 8.00001C12.6801 10.5845 10.585 12.6797 8.00047 12.6797C5.41596 12.6797 3.3208 10.5845 3.3208 8.00001C3.3208 5.4155 5.41596 3.32034 8.00047 3.32034C10.585 3.32034 12.6801 5.4155 12.6801 8.00001Z" fill="white"/>
</g>
<defs>
<clipPath id="clip0_491_2867">
<rect width="16" height="16" fill="white"/>
</clipPath>
</defs>
</svg>
