<svg width="16" height="16" viewBox="0 0 16 16" fill="none" xmlns="http://www.w3.org/2000/svg">
<g clip-path="url(#clip0_491_2863)">
<path d="M12.8298 3.07306C12.8036 3.03022 12.7527 2.96966 12.6647 2.89263C12.4561 2.71167 12.1227 2.52852 11.687 2.36718C10.7338 2.01506 9.41439 1.80902 7.99991 1.80902C6.58543 1.80902 5.26606 2.01615 4.31285 2.36718C3.87817 2.52852 3.54373 2.71167 3.33509 2.89372C3.1919 3.018 3.1469 3.09867 3.1469 3.13247C3.1469 3.16517 3.1919 3.24693 3.33509 3.3723C3.54373 3.55327 3.87715 3.73641 4.31285 3.89775C4.79504 4.07588 5.37092 4.21662 6.00541 4.31222C5.72844 4.55015 5.46852 4.81319 5.22905 5.10077C4.23759 4.90971 3.40842 4.6195 2.83802 4.26623C2.83665 4.96683 2.83563 5.66744 2.83495 6.36805V6.36914C3.0746 6.63735 3.49595 6.93212 4.04614 7.1948C3.93967 7.5029 3.85673 7.81642 3.79685 8.13294C3.42084 7.96148 3.09598 7.77049 2.83495 7.56831V9.48807C3.02456 9.70107 3.3286 9.93062 3.72062 10.1476C3.76416 10.5437 3.84183 10.9366 3.95269 11.3216C3.51112 11.1334 3.13301 10.9187 2.837 10.6894L2.84093 12.2389C3.06636 12.9194 3.9368 13.5125 5.2831 13.8582C5.61719 14.2675 6.00147 14.6462 6.43406 14.9847C3.96974 14.6726 2.37187 13.67 2.01572 12.4151L2.00038 12.3606V12.3039L1.99424 10.0026C1.9918 7.73873 1.99351 5.47484 1.99936 3.21096C1.99676 3.18488 1.9954 3.15869 1.99527 3.13247C1.99629 1.90713 4.68411 0.914001 7.99991 0.914001C11.3157 0.914001 14.0035 1.90713 14.0035 3.13247C14.0038 3.18033 14.0001 3.22813 13.9923 3.27528C14.0021 3.30953 14.007 3.3452 14.0066 3.38102L14.0052 3.60329C13.624 3.38882 13.2306 3.21235 12.8298 3.07306Z" fill="white"/>
<path fill-rule="evenodd" clip-rule="evenodd" d="M8.52379 10.9177C9.37441 12.1925 11.0883 12.5424 12.3518 11.6993C13.6153 10.8562 13.9501 9.13932 13.0995 7.86453C12.2488 6.58973 10.535 6.23977 9.27143 7.08288C8.0079 7.92599 7.67317 9.64289 8.52379 10.9177ZM9.68803 10.1399C10.1056 10.7657 10.947 10.9375 11.5673 10.5236C12.1876 10.1097 12.3519 9.26685 11.9343 8.64102C11.5167 8.01519 10.6754 7.84339 10.0551 8.25729C9.43477 8.6712 9.27044 9.51406 9.68803 10.1399Z" fill="white"/>
<path fill-rule="evenodd" clip-rule="evenodd" d="M16.1441 9.37314L15.7738 7.63207L14.9204 7.80812C14.8085 7.52871 14.6661 7.25649 14.4923 6.99598C14.3246 6.74462 14.1356 6.51607 13.9293 6.31117L14.7663 5.08098L13.3007 4.07068L12.4371 5.34004C11.953 5.15113 11.4388 5.04968 10.9205 5.04098L10.6426 3.73411L8.91038 4.09147L9.18346 5.37525C8.93498 5.47977 8.69287 5.60924 8.46044 5.76433C8.15084 5.97092 7.87664 6.21079 7.63934 6.47616L6.5067 5.69535L5.51181 7.15765L6.75565 8.01513C6.61916 8.43481 6.54671 8.87432 6.54144 9.31753L4.94333 9.64723L5.31368 11.3883L6.8829 11.0646C6.99012 11.3195 7.12305 11.5681 7.28236 11.8069C7.44778 12.0548 7.63391 12.2805 7.83686 12.4832L6.93186 13.8134L8.39739 14.8237L9.32628 13.4584C9.71641 13.6119 10.1262 13.7085 10.5421 13.7454L10.839 15.1413L12.5712 14.784L12.3057 13.5359C12.6545 13.4177 12.9936 13.2525 13.3142 13.0385C13.5577 12.8761 13.7794 12.693 13.9783 12.4931L14.9749 13.1801L15.9697 11.7178L14.9407 11.0084C15.1187 10.5469 15.2172 10.0571 15.2317 9.56138L16.1441 9.37314ZM12.7733 12.3311C11.164 13.4049 8.98107 12.9592 7.89764 11.3355C6.81422 9.7118 7.24056 7.52501 8.84991 6.45116C10.4593 5.3773 12.6422 5.82303 13.7256 7.44672C14.809 9.07041 14.3827 11.2572 12.7733 12.3311Z" fill="white"/>
</g>
<defs>
<clipPath id="clip0_491_2863">
<rect width="16" height="16" fill="white"/>
</clipPath>
</defs>
</svg>
