<svg width="16" height="16" viewBox="0 0 16 16" fill="none" xmlns="http://www.w3.org/2000/svg">
<path fill-rule="evenodd" clip-rule="evenodd" d="M9.13558 10.6989C11.1038 11.1114 13.0312 9.86281 13.4406 7.90998C13.8499 5.95715 12.5862 4.03961 10.6179 3.62705C8.64969 3.21448 6.72228 4.46311 6.31295 6.41595C5.90361 8.36878 7.16735 10.2863 9.13558 10.6989ZM9.35368 9.66358C10.7454 9.9553 12.1082 9.07241 12.3977 7.69158C12.6871 6.31075 11.7935 4.95488 10.4018 4.66316C9.0101 4.37144 7.64726 5.25434 7.35782 6.63516C7.06838 8.01599 7.96196 9.37186 9.35368 9.66358Z" fill="white"/>
<path d="M13.8079 11.7185C13.4373 11.4083 13.0351 11.0718 12.6469 10.2897L11.5609 10.9933C12.1274 11.6598 12.2768 12.1601 12.4144 12.6212C12.5404 13.0433 12.6566 13.4325 13.0739 13.886C13.9471 14.835 14.5434 14.3431 14.5434 14.3431C14.5434 14.3431 15.2373 13.9992 14.7114 12.8252C14.46 12.2641 14.1472 12.0024 13.8079 11.7185Z" fill="white"/>
<path d="M7.92384 4.10687C7.95436 4.10706 7.98493 4.10716 8.01554 4.10716C9.13522 4.10716 10.1953 3.97737 11.0614 3.74915C11.4812 3.89336 11.861 4.10896 12.1896 4.37887C11.764 4.53085 11.2779 4.65978 10.7459 4.76025C10.635 4.72059 10.5201 4.68802 10.4015 4.66317L10.4005 4.66295C9.72292 4.5212 9.05225 4.65785 8.50903 4.9948C8.34628 4.99969 8.1817 5.00218 8.01554 5.00218C7.66098 5.00218 7.3136 4.9908 6.97591 4.96898C7.23902 4.62601 7.56105 4.33472 7.92384 4.10687Z" fill="white"/>
<path d="M12.6938 3.0107C12.8264 2.89302 12.8685 2.81537 12.8685 2.78371C12.8685 2.75101 12.8235 2.66925 12.6804 2.54388C12.4717 2.36291 12.1383 2.17977 11.7026 2.01842C10.7494 1.6663 9.43002 1.46026 8.01554 1.46026C6.60105 1.46026 5.28169 1.66739 4.32847 2.01842C3.8938 2.17977 3.55935 2.36291 3.35071 2.54497C3.20752 2.66925 3.16252 2.74992 3.16252 2.78371C3.16252 2.81642 3.20752 2.89818 3.35071 3.02355C3.55935 3.20451 3.89278 3.38766 4.32847 3.549C4.80296 3.72427 5.36816 3.86335 5.99066 3.95884C5.77873 4.21296 5.59083 4.48972 5.43127 4.78645C4.35722 4.59676 3.45947 4.29268 2.85365 3.91747C2.85227 4.61808 2.85125 5.31868 2.85058 6.01929V6.02038C3.19284 6.40343 3.90571 6.84066 4.8352 7.16122C4.83544 7.51274 4.87304 7.85862 4.94487 8.19427C4.07411 7.94798 3.34693 7.60401 2.85058 7.21955V9.13931C3.35011 9.70048 4.64399 10.3765 6.24808 10.6351C6.67632 11.0785 7.18862 11.4468 7.76625 11.7125C7.33812 11.7047 6.90555 11.6743 6.47219 11.6205C4.93157 11.4287 3.6178 10.9334 2.85263 10.3407L2.85656 11.8901C3.21439 12.9703 5.19737 13.8302 8.12906 13.8302C9.33636 13.8302 10.3491 13.6851 11.1909 13.3985C11.2734 13.6384 11.3854 13.909 11.5614 14.1978C10.6938 14.5413 9.68572 14.7373 8.12906 14.7373C4.71815 14.7373 2.46295 13.5871 2.03135 12.0664L2.016 12.0119V11.9552L2.00987 9.65386C2.00743 7.38998 2.00913 5.12608 2.01498 2.8622C2.01239 2.83613 2.01102 2.80993 2.01089 2.78371C2.01191 1.55838 4.69974 0.565247 8.01554 0.565247C11.3313 0.565247 14.0192 1.55838 14.0192 2.78371C14.0195 2.83158 14.0157 2.87938 14.0079 2.92652C14.0177 2.96078 14.0226 2.99644 14.0222 3.03227L14.0141 4.30943C13.6608 3.80339 13.2143 3.36122 12.6938 3.0107Z" fill="white"/>
<path d="M13.9662 11.8525C13.9141 11.8075 13.8612 11.7633 13.8077 11.7185C13.701 11.6292 13.5917 11.5378 13.4808 11.4341C13.3868 11.3462 13.2917 11.2495 13.1962 11.138C13.188 11.1285 13.1799 11.1188 13.1717 11.109L13.1753 12.2048C13.1375 12.2421 13.0977 12.2809 13.0557 12.3204C12.9315 12.437 12.8487 12.501 12.7432 12.5823L12.6845 12.6278C12.6123 12.684 12.5396 12.7355 12.4637 12.7851C12.5431 13.0413 12.6343 13.2898 12.8102 13.5534C12.9401 13.4652 13.0615 13.3748 13.1754 13.2863C13.3349 13.162 13.9608 12.6937 13.9608 12.6937L13.9662 11.8525Z" fill="white"/>
<path d="M12.3038 12.2703C12.4549 12.2242 12.5658 12.0784 12.5658 11.9061C12.5658 11.6968 12.4022 11.5268 12.2017 11.5268C12.1248 11.5268 12.0534 11.5518 11.9945 11.5944C12.0139 11.6272 12.0324 11.6597 12.05 11.6917C12.0969 11.777 12.1376 11.8595 12.1737 11.9397C12.217 12.0359 12.2535 12.1287 12.2859 12.2191C12.292 12.2363 12.298 12.2533 12.3038 12.2703Z" fill="white"/>
<path d="M11.6534 11.1055C12.0603 10.9586 12.4469 10.786 12.8078 10.5888C12.7539 10.4968 12.7002 10.3975 12.6467 10.2897L11.5606 10.9933C11.5929 11.0312 11.6238 11.0686 11.6534 11.1055Z" fill="white"/>
<path d="M9.11745 10.6951C9.12339 10.6964 9.12934 10.6976 9.1353 10.6989L9.13633 10.6991C9.26592 10.7262 9.39534 10.7462 9.52415 10.7592C10.1271 10.82 10.7169 10.729 11.2503 10.5143C11.6542 10.3518 12.0258 10.1182 12.3462 9.82594C12.4238 9.7552 12.4983 9.68102 12.5696 9.60357C11.5899 10.1674 10.4056 10.548 9.11745 10.6951Z" fill="white"/>
<path d="M13.176 8.70155C13.2169 8.61442 13.2545 8.52517 13.2886 8.43391C13.3514 8.26588 13.4023 8.09105 13.4402 7.91018C13.6048 7.12533 13.4991 6.34598 13.186 5.66794L13.1846 6.08579C12.9349 6.26694 12.6672 6.43436 12.3838 6.58692C12.4661 6.93449 12.4762 7.30448 12.4005 7.67656C12.6734 7.54763 12.934 7.4057 13.1805 7.25116L13.176 8.70155Z" fill="white"/>
<path d="M11.8448 8.81797C11.9616 8.68125 12.0644 8.53139 12.1508 8.37009C12.1675 8.36765 12.1845 8.36639 12.2017 8.36639C12.4022 8.36639 12.5658 8.53646 12.5658 8.74577C12.5658 8.95508 12.4022 9.12514 12.2017 9.12514H12.2007C12.1054 9.12601 12.0136 9.08657 11.9456 9.01545C11.8939 8.96144 11.8591 8.89251 11.8448 8.81797Z" fill="white"/>
<path d="M7.74783 8.59181C7.55097 8.30316 7.41312 7.97519 7.34721 7.62746C7.08443 7.61381 6.81944 7.59061 6.55298 7.5575C6.45218 7.54502 6.35245 7.53084 6.25388 7.51508C6.28864 7.85762 6.3725 8.18979 6.49965 8.50279C6.91764 8.55394 7.33478 8.5834 7.74783 8.59181Z" fill="white"/>
<path d="M8.79654 7.60607C8.94074 7.94263 9.24357 8.21014 9.6406 8.29337C10.2857 8.42859 10.8985 8.01831 11.0272 7.40437C11.0446 7.3212 11.0524 7.23788 11.0512 7.15565C10.3503 7.38643 9.59111 7.54034 8.79654 7.60607Z" fill="white"/>
<path d="M12.1669 6.00264C12.1781 6.00367 12.1893 6.00413 12.2007 6.00403H12.2017C12.4022 6.00403 12.5658 5.83505 12.5658 5.62465C12.5658 5.41534 12.4022 5.24637 12.2017 5.24637C12.0334 5.24637 11.8911 5.36545 11.8497 5.52751C11.9728 5.67378 12.0792 5.83322 12.1669 6.00264Z" fill="white"/>
</svg>
