<svg width="16" height="16" viewBox="0 0 16 16" fill="none" xmlns="http://www.w3.org/2000/svg">
<rect x="4.25" y="7" width="11" height="8" rx="1" fill="#4B4949"/>
<path fill-rule="evenodd" clip-rule="evenodd" d="M14.25 7.6H5.25C5.02909 7.6 4.85 7.77909 4.85 8V14C4.85 14.2209 5.02909 14.4 5.25 14.4H14.25C14.4709 14.4 14.65 14.2209 14.65 14V8C14.65 7.77909 14.4709 7.6 14.25 7.6ZM5.25 7C4.69772 7 4.25 7.44772 4.25 8V14C4.25 14.5523 4.69771 15 5.25 15H14.25C14.8023 15 15.25 14.5523 15.25 14V8C15.25 7.44772 14.8023 7 14.25 7H5.25Z" fill="white"/>
<path d="M12.75 10.0106C12.75 10.557 12.2648 11 11.6663 11H1.83369C1.23519 11 0.75 10.557 0.75 10.0106V2.98935C0.75 2.44294 1.23519 2 1.83369 2H11.6663C12.2648 2 12.75 2.44294 12.75 2.98935V10.0106Z" fill="white"/>
</svg>
