<svg width="16" height="16" viewBox="0 0 16 16" fill="none" xmlns="http://www.w3.org/2000/svg">
<g clip-path="url(#clip0_438_2663)">
<path d="M14.3585 12.9235C13.9216 12.4578 14.1162 12.1545 14.1162 12.1545C14.011 12.0279 13.8691 12.1694 13.6534 12.3845L13.5915 12.4461L13.5916 12.4725C13.5913 12.5408 13.5911 12.5651 13.6022 12.5817C13.6083 12.5909 13.6178 12.5977 13.6325 12.6083C13.6738 12.6382 13.7566 12.698 13.9216 12.9235C14.1453 12.9246 14.3585 12.9235 14.3585 12.9235Z" fill="white"/>
<path d="M12.6399 6.39164C12.5468 6.3925 12.4572 6.35398 12.3908 6.28454C12.3243 6.2151 12.2864 6.12041 12.2854 6.02122C12.2854 5.81685 12.4451 5.65186 12.6409 5.65186C12.8366 5.65186 12.9964 5.81685 12.9964 6.02122C12.9964 6.22666 12.8356 6.39164 12.6399 6.39164Z" fill="white"/>
<path fill-rule="evenodd" clip-rule="evenodd" d="M12.1535 3.99455C12.578 3.83701 12.9045 3.65819 13.1082 3.48043C13.248 3.35908 13.292 3.27925 13.292 3.24731C13.292 3.21538 13.248 3.13555 13.1082 3.01314C12.9045 2.83644 12.579 2.65762 12.1535 2.50008C11.2228 2.15627 9.93459 1.9551 8.55349 1.9551C7.17238 1.9551 5.88415 2.15734 4.95342 2.50008C4.52901 2.65762 4.20245 2.83645 3.99873 3.0142C3.85893 3.13555 3.81499 3.21432 3.81499 3.24731C3.81499 3.27925 3.85893 3.35908 3.99873 3.48149C4.20245 3.65819 4.52801 3.83701 4.95342 3.99455C5.88415 4.33836 7.17238 4.53953 8.55349 4.53953C9.93459 4.53953 11.2228 4.33729 12.1535 3.99455ZM3.5104 9.45295V7.57848C4.25738 8.15753 5.53962 8.64185 7.04655 8.82813C9.48021 9.13149 11.8869 8.68123 13.5966 7.60935L13.5906 9.52533C11.9858 10.6845 9.62202 11.2657 7.12544 10.9559C5.42278 10.7441 4.02869 10.0352 3.5104 9.45295ZM3.5104 6.40761C4.02969 6.98879 5.42278 7.6977 7.12544 7.90846C9.62701 8.21927 11.9958 7.63596 13.6006 6.47148L13.6076 4.34687C12.586 4.98553 10.7055 5.41343 8.55349 5.41343C6.41043 5.41343 4.536 4.98766 3.5134 4.35432C3.51206 5.0384 3.51106 5.72247 3.5104 6.40655V6.40761ZM3.51624 12.1388L3.5124 10.6259C4.25938 11.205 5.54162 11.6883 7.04655 11.8756C9.47522 12.1768 11.8779 11.7276 13.5856 10.6621L13.5915 12.4461C13.5546 12.4826 13.5157 12.5204 13.4747 12.559C13.3535 12.6729 13.2725 12.7353 13.1695 12.8148L13.1122 12.8591C12.9125 13.0145 12.7088 13.1337 12.4412 13.2753C11.4875 13.7777 10.2472 14.0332 8.66433 14.0332C5.80182 14.0332 3.86563 13.1935 3.51624 12.1388ZM14.3585 12.9235C14.3585 12.9235 14.1453 12.9246 13.9216 12.9235C13.7566 12.698 13.6738 12.6382 13.6325 12.6083C13.6178 12.5977 13.6083 12.5909 13.6022 12.5817C13.5911 12.5651 13.5913 12.5408 13.5916 12.4725L13.5915 12.4461L13.6534 12.3845C13.8691 12.1694 14.011 12.0279 14.1162 12.1545C14.1162 12.1545 13.9216 12.4578 14.3585 12.9235ZM14.3585 12.9235C14.3585 12.9235 13.7474 13.3807 13.5916 13.502C13.3589 13.683 13.0943 13.8714 12.7887 14.0332C11.7361 14.5878 10.6636 14.9188 8.66433 14.9188C5.3339 14.9188 3.13192 13.7958 2.7105 12.3109L2.69552 12.2577V12.2024L2.68953 9.95536C2.68715 7.74489 2.68881 5.53442 2.69452 3.32395C2.69199 3.2985 2.69066 3.27292 2.69053 3.24731C2.69153 2.05089 5.31593 1.0812 8.55349 1.0812C11.791 1.0812 14.4154 2.05089 14.4154 3.24731C14.4158 3.29405 14.4121 3.34073 14.4045 3.38676C14.4141 3.4202 14.4188 3.45503 14.4184 3.49001L14.3585 12.9235Z" fill="white"/>
<path d="M12.6399 9.43911C12.5468 9.43996 12.4572 9.40144 12.3908 9.33201C12.3243 9.26257 12.2864 9.16787 12.2854 9.06869C12.2854 8.86432 12.4451 8.69827 12.6409 8.69827C12.8366 8.69827 12.9964 8.86432 12.9964 9.06869C12.9964 9.27306 12.8356 9.43911 12.6399 9.43911Z" fill="white"/>
<path d="M12.6399 12.526C12.5937 12.5264 12.5479 12.5171 12.5051 12.4987C12.4623 12.4802 12.4234 12.453 12.3904 12.4185C12.3575 12.384 12.3313 12.3429 12.3133 12.2976C12.2952 12.2523 12.2858 12.2037 12.2854 12.1545C12.2854 11.9501 12.4451 11.784 12.6409 11.784C12.8366 11.784 12.9964 11.9501 12.9964 12.1545C12.9964 12.3588 12.8366 12.5249 12.6409 12.5249L12.6399 12.526Z" fill="white"/>
<path d="M8.88525 14.9187C10.7437 14.895 11.7752 14.5683 12.7882 14.0345C13.0938 13.8727 13.3585 13.6843 13.5911 13.5034C13.7469 13.382 14.3581 12.9249 14.3581 12.9249L14.418 3.49135C14.4183 3.45637 14.4136 3.42154 14.404 3.3881C14.4116 3.34207 14.4153 3.2954 14.415 3.24866C14.415 2.09344 11.9682 1.1496 8.88525 1.08596V1.96033C10.1396 1.98982 11.2974 2.18534 12.1531 2.50143C12.5785 2.65896 12.9041 2.83779 13.1078 3.01448C13.2476 3.13689 13.2915 3.21672 13.2915 3.24866C13.2915 3.28059 13.2476 3.36042 13.1078 3.48177C12.9041 3.65953 12.5775 3.83835 12.1531 3.99589C11.2974 4.31099 10.1396 4.50734 8.88525 4.53696V5.41136C10.8976 5.36987 12.6384 4.95378 13.6071 4.34821L13.6001 6.47282C12.3784 7.35932 10.714 7.90899 8.88525 7.98379V8.91691C10.658 8.86384 12.3209 8.41018 13.5961 7.61069L13.5901 9.52667C12.3692 10.4086 10.709 10.9559 8.88525 11.0309V11.9633C10.6533 11.9095 12.3123 11.4577 13.5851 10.6635L13.591 12.4474C13.5542 12.4839 13.5153 12.5218 13.4743 12.5603C13.353 12.6742 13.2721 12.7367 13.1691 12.8161L13.1118 12.8605C12.9121 13.0159 12.7083 13.1351 12.4407 13.2767C11.5319 13.7554 10.3629 14.0099 8.88525 14.0328V14.9187Z" fill="#9F9F9F"/>
<path d="M12.6394 6.39299C12.5464 6.39384 12.4568 6.35532 12.3903 6.28588C12.3239 6.21644 12.286 6.12175 12.2849 6.02256C12.2849 5.81819 12.4447 5.65321 12.6404 5.65321C12.8362 5.65321 12.9959 5.81819 12.9959 6.02256C12.9959 6.228 12.8352 6.39299 12.6394 6.39299Z" fill="#9F9F9F"/>
<path d="M12.6394 9.44045C12.5464 9.4413 12.4568 9.40279 12.3903 9.33335C12.3239 9.26391 12.286 9.16922 12.2849 9.07003C12.2849 8.86566 12.4447 8.69961 12.6404 8.69961C12.8362 8.69961 12.9959 8.86566 12.9959 9.07003C12.9959 9.2744 12.8352 9.44045 12.6394 9.44045Z" fill="#9F9F9F"/>
<path d="M12.5047 12.5C12.5475 12.5184 12.5933 12.5277 12.6394 12.5273L12.6399 12.526C12.8356 12.526 12.9959 12.3602 12.9959 12.1558C12.9959 11.9514 12.8362 11.7854 12.6404 11.7854C12.4447 11.7854 12.2849 11.9514 12.2849 12.1558C12.2853 12.205 12.2948 12.2537 12.3128 12.299C12.3309 12.3443 12.3571 12.3853 12.39 12.4198C12.4229 12.4543 12.4619 12.4816 12.5047 12.5Z" fill="#9F9F9F"/>
<path d="M8.00024 -2.28882e-05H9.1228V16H8.00024V-2.28882e-05Z" fill="white"/>
</g>
<defs>
<clipPath id="clip0_438_2663">
<rect width="16" height="16" fill="white"/>
</clipPath>
</defs>
</svg>
