<svg width="16" height="16" viewBox="0 0 16 16" fill="none" xmlns="http://www.w3.org/2000/svg">
<path d="M13.9258 7.23871C14.5924 7.62361 14.5924 8.58586 13.9258 8.97076L8.55086 12.074C7.8842 12.4589 7.05089 11.9777 7.05089 11.2079L7.05089 5.00157C7.05089 4.23177 7.88419 3.75057 8.55085 4.13547L13.9258 7.23871Z" fill="white"/>
<path d="M8.8749 8.97075C9.54156 8.58585 9.54156 7.6236 8.8749 7.2387L7.05092 6.18561L7.05092 10.0238L8.8749 8.97075Z" fill="white"/>
<path d="M6.35092 10.428L6.35092 5.78146L3.49997 4.13546C2.83331 3.75056 2 4.23176 2 5.00156L2 11.2079C2 11.9777 2.83331 12.4589 3.49997 12.074L6.35092 10.428Z" fill="white"/>
</svg>
