<svg width="16" height="16" viewBox="0 0 16 16" fill="none" xmlns="http://www.w3.org/2000/svg">
<g clip-path="url(#clip0_312_1183)">
<path d="M13.1901 16H3.94745L3.91854 15.5958C3.89257 15.2329 3.28235 6.6988 3.24168 5.81172L3.22119 5.36511H13.9163L13.8958 5.81172C13.8551 6.6988 13.2449 15.2329 13.2189 15.5958L13.1901 16Z" fill="#8B8B8B"/>
<path d="M13.1902 16H8.56885L8.56934 5.36511H13.9164L13.8959 5.81172C13.8553 6.6988 13.245 15.2329 13.2191 15.5958L13.1902 16Z" fill="#6F6F6F"/>
<path d="M9.08019 7.13812H8.05762V14.351H9.08019V7.13812Z" fill="#6F6F6F"/>
<path d="M9.08015 7.13812H8.56885V14.351H9.08015V7.13812Z" fill="#444444"/>
<path d="M5.41515 7.17202L5.86182 14.3727L6.88293 14.3279L6.43626 7.12721L5.41515 7.17202Z" fill="#6F6F6F"/>
<path d="M10.2557 14.3278L11.2769 14.3726L11.7235 7.1719L10.7024 7.12709L10.2557 14.3278Z" fill="#444444"/>
<path d="M5.33475 3.87096L4.40541 4.29764L3.62319 2.59393L6.98075 1.05205L7.76312 2.75572L6.83382 3.18248L6.47819 2.40808L4.97915 3.09648L5.33475 3.87096Z" fill="#8B8B8B"/>
<path d="M5.30269 1.82279L6.9811 1.05202L7.76347 2.7557L6.83417 3.18246L6.47854 2.40806L5.72899 2.75227L5.30269 1.82279Z" fill="#6F6F6F"/>
<path d="M12.4163 3.02118L1.57462 7.99997L0.450195 5.55145L11.2918 0.572676L12.4163 3.02118Z" fill="#6F6F6F"/>
<path d="M12.4164 3.02122L6.99601 5.51041L5.87158 3.06189L11.292 0.5727L12.4164 3.02122Z" fill="#444444"/>
</g>
<defs>
<clipPath id="clip0_312_1183">
<rect width="16" height="16" fill="white"/>
</clipPath>
</defs>
</svg>
