<svg width="16" height="16" viewBox="0 0 16 16" fill="none" xmlns="http://www.w3.org/2000/svg">
<g clip-path="url(#clip0_491_2853)">
<path fill-rule="evenodd" clip-rule="evenodd" d="M0.407227 2.49169C0.407227 1.38712 1.30266 0.491684 2.40723 0.491684H13.5923C14.6969 0.491684 15.5923 1.38711 15.5923 2.49168V13.5083C15.5923 14.6129 14.6969 15.5083 13.5923 15.5083H2.40723C1.30266 15.5083 0.407227 14.6129 0.407227 13.5083V2.49169ZM4.5215 7.66379C4.1782 7.66379 3.8999 7.38549 3.8999 7.04219V5.63257H2.49025C2.14695 5.63257 1.86865 5.35427 1.86865 5.01097C1.86865 4.66768 2.14695 4.38938 2.49025 4.38938H3.8999V2.97975C3.8999 2.63645 4.1782 2.35815 4.5215 2.35815C4.8648 2.35815 5.1431 2.63645 5.1431 2.97975V4.38938H6.5527C6.896 4.38938 7.17429 4.66768 7.17429 5.01097C7.17429 5.35427 6.896 5.63257 6.5527 5.63257H5.1431V7.04219C5.1431 7.38549 4.8648 7.66379 4.5215 7.66379ZM8.89111 5.01097C8.89111 4.66767 9.16941 4.38937 9.51271 4.38937L13.3193 4.38937C13.6626 4.38937 13.9409 4.66767 13.9409 5.01097C13.9409 5.35427 13.6626 5.63257 13.3193 5.63257H9.51271C9.16941 5.63257 8.89111 5.35427 8.89111 5.01097ZM8.89111 10.3128C8.89111 9.96952 9.16941 9.69122 9.51271 9.69122H13.3193C13.6626 9.69122 13.9409 9.96952 13.9409 10.3128C13.9409 10.6561 13.6626 10.9344 13.3193 10.9344H9.51271C9.16941 10.9344 8.89111 10.6561 8.89111 10.3128ZM8.89111 12.21C8.89111 11.8667 9.16941 11.5884 9.51271 11.5884H13.3193C13.6626 11.5884 13.9409 11.8667 13.9409 12.21C13.9409 12.5533 13.6626 12.8316 13.3193 12.8316H9.51271C9.16941 12.8316 8.89111 12.5533 8.89111 12.21ZM3.52403 9.27007C3.28128 9.02732 2.8877 9.02733 2.64495 9.27007C2.4022 9.51283 2.4022 9.9064 2.64495 10.1491L3.64209 11.1463L2.64561 12.1428C2.40286 12.3855 2.40286 12.7791 2.64561 13.0218C2.88836 13.2646 3.28193 13.2646 3.52468 13.0218L4.52117 12.0254L5.51754 13.0217C5.76028 13.2645 6.15386 13.2645 6.39661 13.0217C6.63936 12.779 6.63936 12.3854 6.39661 12.1427L5.40024 11.1463L6.39727 10.1493C6.64001 9.90651 6.64001 9.51294 6.39726 9.27019C6.15452 9.02744 5.76094 9.02744 5.51819 9.27019L4.52117 10.2672L3.52403 9.27007Z" fill="white"/>
</g>
<defs>
<clipPath id="clip0_491_2853">
<rect width="16" height="16" fill="white"/>
</clipPath>
</defs>
</svg>
