<svg width="16" height="16" viewBox="0 0 16 16" fill="none" xmlns="http://www.w3.org/2000/svg">
<path fill-rule="evenodd" clip-rule="evenodd" d="M7.21764 10.1269L7.21674 10.1278C6.67531 10.6707 5.91749 11.0092 5.09011 11.0087C4.2623 11.009 3.50394 10.6706 2.9628 10.1281L2.96181 10.1271C2.41906 9.58592 2.08052 8.82789 2.08106 8.00025C2.08052 7.17262 2.41903 6.41418 2.96181 5.87299L2.96279 5.87201C3.50401 5.32937 4.26182 4.99086 5.08946 4.9914C5.91684 4.99086 6.67535 5.32935 7.21681 5.87206L7.21764 5.87289C7.59828 6.25263 7.87692 6.74288 8.00972 7.29018L8.10243 7.67229H13.9185V9.83902H13.3351V8.32756H11.4712V9.91344H11.3916V8.32756H8.10243L8.00972 8.70967C7.87693 9.25697 7.59828 9.74719 7.21764 10.1269ZM10.8916 10.4134H11.9712V8.82756H12.8351V10.339H14.4185V7.17229H8.49562C8.34127 6.53613 8.01695 5.96404 7.57077 5.51892C6.93903 4.88572 6.0551 4.49077 5.08979 4.49139C4.12425 4.49077 3.24032 4.88572 2.60878 5.51892C1.97538 6.15046 1.58043 7.03439 1.58106 7.99993C1.58043 8.96544 1.97538 9.84962 2.60878 10.4811C3.24032 11.1144 4.12425 11.5091 5.08979 11.5087C6.0551 11.5093 6.93903 11.1144 7.57077 10.4809C8.01695 10.0358 8.34127 9.46372 8.49562 8.82756H10.8916V10.4134ZM6.39608 6.69103C6.05956 6.35675 5.6045 6.15151 5.09065 6.15062L5.08892 6.15061C4.57499 6.15151 4.11971 6.35667 3.78308 6.69101L3.7805 6.69357C3.44661 7.03005 3.24083 7.48503 3.24028 7.99939L3.24028 8.00046C3.24083 8.51498 3.44659 8.96996 3.78051 9.30647L3.78305 9.30903C4.11968 9.6434 4.57501 9.84854 5.08892 9.84944L5.09065 9.84944C5.6045 9.84854 6.05954 9.64325 6.39605 9.30906L6.39848 9.30664C6.73267 8.97017 6.93829 8.51484 6.93887 8.00049L6.93887 7.99939C6.93832 7.48492 6.73258 7.02981 6.39847 6.69342L6.39608 6.69103ZM6.43887 7.99993C6.43847 7.62375 6.28959 7.29332 6.04372 7.04577C5.7962 6.7999 5.46576 6.65127 5.08979 6.65062C4.71362 6.65127 4.38298 6.7999 4.13543 7.04577C3.88956 7.29354 3.74068 7.62395 3.74028 7.99993C3.74068 8.3761 3.88956 8.70651 4.13543 8.95428C4.38295 9.20015 4.71362 9.34878 5.08979 9.34944C5.46573 9.34878 5.79617 9.20013 6.04372 8.95428C6.28959 8.70674 6.43844 8.3761 6.43887 7.99993Z" fill="#6F5B28"/>
</svg>
