<svg width="16" height="16" viewBox="0 0 16 16" fill="none" xmlns="http://www.w3.org/2000/svg">
<path fill-rule="evenodd" clip-rule="evenodd" d="M11.69 6.92878C11.69 7.44362 12.1074 7.86098 12.6222 7.86098C13.1371 7.86098 13.5544 7.44362 13.5544 6.92878V5.39195H15.0676C15.5824 5.39195 15.9998 4.97459 15.9998 4.45976C15.9998 3.94492 15.5824 3.52757 15.0676 3.52757H13.5544V1.99068C13.5544 1.47584 13.1371 1.05849 12.6222 1.05849C12.1074 1.05849 11.69 1.47584 11.69 1.99068V3.52757H10.1295C9.61462 3.52757 9.19727 3.94492 9.19727 4.45976C9.19727 4.97459 9.61462 5.39195 10.1295 5.39195H11.69V6.92878Z" fill="white"/>
<path d="M7.7545 3.93282C6.28777 4.41357 5.15272 5.62645 4.78141 7.1394H1.48413C0.888834 7.1394 0.40625 7.62199 0.40625 8.21728C0.40625 8.81258 0.888834 9.29516 1.48413 9.29516H4.78126C5.2643 11.2646 7.0414 12.7257 9.15976 12.7257H11.8646V10.7858H14.9061C15.2859 10.7858 15.5938 10.4778 15.5938 10.098C15.5938 9.71814 15.2859 9.41022 14.9061 9.41022H11.8646V8.36721C11.4861 8.34018 11.1435 8.28162 10.8646 8.15927V11.7257H9.15976C7.22229 11.7257 5.65166 10.1551 5.65166 8.21759C5.65166 6.77971 6.51672 5.54388 7.75479 5.00215C7.71708 4.82774 7.69727 4.6462 7.69727 4.45976C7.69727 4.27882 7.71702 4.10249 7.7545 3.93282Z" fill="white"/>
<path d="M10.8646 5.39195V4.70949H9.23109C9.20905 4.63001 9.19727 4.54626 9.19727 4.45976C9.19727 4.15211 9.3463 3.87926 9.57612 3.70949H11.8646V5.64966H13.5544V6.92878C13.5544 6.96134 13.5527 6.9935 13.5495 7.0252H11.8646V7.47208C11.7547 7.31911 11.69 7.1315 11.69 6.92878V5.39195H10.8646Z" fill="white"/>
</svg>
