<svg width="16" height="16" viewBox="0 0 16 16" fill="none" xmlns="http://www.w3.org/2000/svg">
<path d="M14.5596 9.02399L12.8702 13.1028C12.6584 13.6156 12.4591 13.9838 12.2722 14.2073C12.0878 14.4308 11.8686 14.5978 11.6144 14.7083C11.3603 14.8161 11.0513 14.87 10.6875 14.87C10.376 14.87 10.0858 14.8306 9.81665 14.7517V13.7024C10.0359 13.7971 10.3088 13.8444 10.6352 13.8444C10.842 13.8444 11.0089 13.7944 11.136 13.6945C11.2631 13.5919 11.369 13.4157 11.4537 13.1659L9.5625 9.02399H10.7884L12.1339 12.2389H12.1713L12.2386 12.0417L13.3673 9.02399H14.5596Z" fill="#CD3D3C"/>
<path d="M14.6157 6.71241H13.2926L12.0219 4.531L10.7511 6.71241H9.51025L11.323 3.73812L9.62612 0.945282H10.9044L12.0817 3.02018L13.2366 0.945282H14.4849L12.7694 3.80518L14.6157 6.71241Z" fill="#CD3D3C"/>
<path fill-rule="evenodd" clip-rule="evenodd" d="M5.83206 0.869995C6.55568 0.869995 7.14456 1.45887 7.14456 2.1825V13.5575C7.14456 14.2811 6.55568 14.87 5.83206 14.87L3.10244 14.87C2.37881 14.87 1.78994 14.2811 1.78994 13.5575V2.1825C1.78994 1.45887 2.37881 0.869995 3.10244 0.869995H5.83206ZM2.76956 9.61999H6.26956V6.12H2.76956V9.61999ZM6.26956 13.5575V10.495H2.76956C2.76956 10.495 2.76956 13.1978 2.76956 13.5575C2.76956 13.9172 3.0287 13.995 3.21915 13.995C3.40961 13.995 5.83206 13.995 5.83206 13.995C6.07268 13.995 6.26956 13.7981 6.26956 13.5575Z" fill="#CD3D3C"/>
</svg>
