<svg width="16" height="16" viewBox="0 0 16 16" fill="none" xmlns="http://www.w3.org/2000/svg">
<path d="M4 12H0V13H4.69815C4.44817 12.6861 4.21487 12.3521 4 12Z" fill="#FFFFFF"/>
<path d="M10.9573 13.6185C11.7681 13.6185 12.4254 12.9613 12.4254 12.1505C12.4254 11.3397 11.7681 10.6824 10.9573 10.6824C10.1465 10.6824 9.48926 11.3397 9.48926 12.1505C9.48926 12.9613 10.1465 13.6185 10.9573 13.6185Z" fill="#FFFFFF"/>
<path fill-rule="evenodd" clip-rule="evenodd" d="M15.4585 12.1415C14.7903 13.8121 12.6804 14.8918 11.0196 14.8918C9.35891 14.8918 7.12477 13.8121 6.45654 12.1415C7.12477 10.471 9.35891 9.40915 11.0196 9.40915C12.6804 9.40915 14.7903 10.471 15.4585 12.1415ZM13.2074 13.4526C13.8054 13.1028 14.2855 12.6481 14.5723 12.1417C14.2862 11.6377 13.8074 11.1871 13.2102 10.8411C12.4992 10.4292 11.6936 10.2091 11.0196 10.2091C10.3426 10.2091 9.50192 10.431 8.75583 10.8474C8.12933 11.1971 7.63362 11.6472 7.3451 12.1417C7.6343 12.6386 8.13136 13.0927 8.75863 13.4462C9.50547 13.867 10.3452 14.0918 11.0196 14.0918C11.6909 14.0918 12.4956 13.8689 13.2074 13.4526Z" fill="#FFFFFF"/>
<path d="M12.95 3C12.9828 2.83844 13 2.67123 13 2.5C13 2.32877 12.9828 2.16156 12.95 2H16V3H12.95Z" fill="#FFFFFF"/>
<path d="M8.05001 3H0V2H8.05001C8.01721 2.16156 8 2.32877 8 2.5C8 2.67123 8.01721 2.83844 8.05001 3Z" fill="#FFFFFF"/>
<path fill-rule="evenodd" clip-rule="evenodd" d="M10.5 4C11.3284 4 12 3.32843 12 2.5C12 1.67157 11.3284 1 10.5 1C9.67157 1 9 1.67157 9 2.5C9 3.32843 9.67157 4 10.5 4ZM10.5 5C11.8807 5 13 3.88071 13 2.5C13 1.11929 11.8807 0 10.5 0C9.11929 0 8 1.11929 8 2.5C8 3.88071 9.11929 5 10.5 5Z" fill="#FFFFFF"/>
<path d="M7.14823 8C7.18103 7.83845 7.19824 7.67123 7.19824 7.5C7.19824 7.32877 7.18103 7.16155 7.14823 7H16V8H7.14823Z" fill="#FFFFFF"/>
<path d="M2.24825 8H0V7H2.24825C2.21546 7.16155 2.19824 7.32877 2.19824 7.5C2.19824 7.67123 2.21546 7.83845 2.24825 8Z" fill="#FFFFFF"/>
<path fill-rule="evenodd" clip-rule="evenodd" d="M4.69824 9C5.52667 9 6.19824 8.32843 6.19824 7.5C6.19824 6.67157 5.52667 6 4.69824 6C3.86982 6 3.19824 6.67157 3.19824 7.5C3.19824 8.32843 3.86982 9 4.69824 9ZM4.69824 10C6.07895 10 7.19824 8.88071 7.19824 7.5C7.19824 6.11929 6.07895 5 4.69824 5C3.31753 5 2.19824 6.11929 2.19824 7.5C2.19824 8.88071 3.31753 10 4.69824 10Z" fill="#FFFFFF"/>
</svg>
