<svg width="16" height="16" viewBox="0 0 16 16" fill="none" xmlns="http://www.w3.org/2000/svg">
<path fill-rule="evenodd" clip-rule="evenodd" d="M1.04799 1.76958C1.04804 1.09457 1.37296 0.566254 2.04797 0.566254L14.5479 0.547394C15.2229 0.547394 15.4586 1.11354 15.4586 1.78862L15.4585 8.33628C15.0653 8.12037 14.9687 7.91748 14.5477 7.76812V3.62778L2.04783 3.64664L2.05538 14.5595L6.54785 14.5474C7.20542 15.0587 7.91443 15.1439 8.67534 15.4438L2.04783 15.4526C1.37279 15.4526 1.04785 14.8865 1.04785 14.2115V1.78862L1.04799 1.76958ZM13.264 1.23472C12.7777 1.23472 12.3834 1.629 12.3834 2.11538C12.3834 2.60176 12.7777 2.99604 13.264 2.99604H13.3129C13.7993 2.99604 14.1936 2.60176 14.1936 2.11538C14.1936 1.629 13.7993 1.23472 13.3129 1.23472H13.264ZM9.77742 2.11538C9.77742 1.629 10.1717 1.23472 10.6581 1.23472H10.707C11.1934 1.23472 11.5876 1.629 11.5876 2.11538C11.5876 2.60176 11.1934 2.99604 10.707 2.99604H10.6581C10.1717 2.99604 9.77742 2.60176 9.77742 2.11538Z" fill="#FFFFFF"/>
<path d="M11.0198 13.6096C11.8306 13.6096 12.4879 12.9523 12.4879 12.1415C12.4879 11.3307 11.8306 10.6735 11.0198 10.6735C10.209 10.6735 9.55176 11.3307 9.55176 12.1415C9.55176 12.9523 10.209 13.6096 11.0198 13.6096Z" fill="#FFFFFF"/>
<path fill-rule="evenodd" clip-rule="evenodd" d="M15.4585 12.1415C14.7903 13.8121 12.6804 14.8918 11.0196 14.8918C9.35891 14.8918 7.12477 13.8121 6.45654 12.1415C7.12477 10.471 9.35891 9.40915 11.0196 9.40915C12.6804 9.40915 14.7903 10.471 15.4585 12.1415ZM13.2074 13.4526C13.8054 13.1028 14.2855 12.6481 14.5723 12.1417C14.2862 11.6377 13.8074 11.1871 13.2102 10.8411C12.4992 10.4292 11.6936 10.2091 11.0196 10.2091C10.3426 10.2091 9.50192 10.431 8.75583 10.8474C8.12933 11.1971 7.63362 11.6472 7.3451 12.1417C7.6343 12.6386 8.13136 13.0927 8.75863 13.4462C9.50547 13.867 10.3452 14.0918 11.0196 14.0918C11.6909 14.0918 12.4956 13.8689 13.2074 13.4526Z" fill="#FFFFFF"/>
</svg>
