<svg width="16" height="16" viewBox="0 0 16 16" fill="none" xmlns="http://www.w3.org/2000/svg">
<path d="M5.00335 2.6902C5.13619 2.52415 5.33731 2.42749 5.54995 2.42749H10.4496C10.6623 2.42749 10.8634 2.52415 10.9962 2.6902L13.4189 5.71859C13.5182 5.84271 13.5723 5.99692 13.5723 6.15587V9.84419C13.5723 10.0031 13.5182 10.1574 13.4189 10.2815L10.9962 13.3099C10.8634 13.4759 10.6623 13.5726 10.4496 13.5726H5.54995C5.3373 13.5726 5.13619 13.4759 5.00335 13.3099L2.58064 10.2815C2.48134 10.1574 2.42725 10.0031 2.42725 9.84419V6.15587C2.42725 5.99692 2.48134 5.84271 2.58064 5.71859L5.00335 2.6902Z" fill="#CD3D3C"/>
</svg>
