<svg width="16" height="16" viewBox="0 0 16 16" fill="none" xmlns="http://www.w3.org/2000/svg">
<path d="M16 0L16 16H2C2 16 7.97097 12.583 10.5 9.5C14 5.23333 16 0 16 0Z" fill="#FFD155"/>
<path d="M7.57077 10.4808C6.93903 11.1143 6.0551 11.5092 5.08979 11.5086C4.12425 11.509 3.24032 11.1143 2.60878 10.4811C1.97538 9.84956 1.58043 8.96538 1.58106 7.99986C1.58043 7.03432 1.97538 6.1504 2.60878 5.51885C3.24032 4.88566 4.12425 4.49071 5.08979 4.49133C6.0551 4.49071 6.93903 4.88566 7.57077 5.51885C8.01695 5.96398 8.34127 6.53607 8.49562 7.17223H14.4185V7.38796V8.8275V10.339H12.8351V8.8275H11.9712V10.4134H10.8916V8.8275H8.49562C8.34127 9.46366 8.01695 10.0357 7.57077 10.4808ZM6.43887 7.99986C6.43847 7.62369 6.28958 7.29325 6.04372 7.04571C5.7962 6.79984 5.46576 6.65121 5.08979 6.65056C4.71361 6.65121 4.38298 6.79984 4.13543 7.04571C3.88956 7.29348 3.74068 7.62389 3.74028 7.99986C3.74068 8.37604 3.88956 8.70645 4.13543 8.95422C4.38295 9.20009 4.71361 9.34872 5.08979 9.34937C5.46573 9.34872 5.79617 9.20006 6.04372 8.95422C6.28958 8.70668 6.43844 8.37604 6.43887 7.99986Z" fill="#FFD155"/>
<path fill-rule="evenodd" clip-rule="evenodd" d="M7.21764 10.1269L7.21674 10.1278C6.67531 10.6707 5.91749 11.0091 5.09011 11.0086C4.2623 11.0089 3.50394 10.6706 2.9628 10.128L2.96181 10.127C2.41906 9.58586 2.08052 8.82783 2.08106 8.00019C2.08052 7.17256 2.41903 6.41412 2.96181 5.87293L2.96279 5.87195C3.50401 5.32931 4.26182 4.9908 5.08946 4.99133C5.91684 4.9908 6.67535 5.32929 7.21681 5.872L7.21764 5.87283C7.59828 6.25257 7.87692 6.74282 8.00972 7.29012L8.10243 7.67223H13.9185V9.83896H13.3351V8.3275H11.4712V9.91338H11.3916V8.3275H8.10243L8.00972 8.70961C7.87693 9.2569 7.59828 9.74713 7.21764 10.1269ZM10.8916 10.4134H11.9712V8.8275H12.8351V10.339H14.4185V7.17223H8.49562C8.34127 6.53607 8.01695 5.96398 7.57077 5.51886C6.93903 4.88566 6.0551 4.49071 5.08979 4.49133C4.12425 4.49071 3.24032 4.88566 2.60878 5.51886C1.97538 6.1504 1.58043 7.03432 1.58106 7.99986C1.58043 8.96538 1.97538 9.84956 2.60878 10.4811C3.24032 11.1143 4.12425 11.509 5.08979 11.5086C6.0551 11.5092 6.93903 11.1143 7.57077 10.4808C8.01695 10.0357 8.34127 9.46366 8.49562 8.8275H10.8916V10.4134ZM6.39608 6.69097C6.05956 6.35669 5.6045 6.15145 5.09065 6.15056L5.08892 6.15055C4.57499 6.15145 4.11971 6.35661 3.78308 6.69095L3.7805 6.69351C3.44661 7.02999 3.24083 7.48497 3.24028 7.99933L3.24028 8.0004C3.24083 8.51492 3.44659 8.9699 3.78051 9.30641L3.78305 9.30897C4.11968 9.64334 4.57501 9.84848 5.08892 9.84937L5.09065 9.84938C5.6045 9.84848 6.05954 9.64319 6.39605 9.309L6.39848 9.30658C6.73267 8.97011 6.93829 8.51478 6.93887 8.00043L6.93887 7.99933C6.93832 7.48486 6.73258 7.02975 6.39847 6.69336L6.39608 6.69097ZM6.43887 7.99986C6.43847 7.62369 6.28959 7.29325 6.04372 7.04571C5.7962 6.79984 5.46576 6.65121 5.08979 6.65056C4.71362 6.65121 4.38298 6.79984 4.13543 7.04571C3.88956 7.29348 3.74068 7.62389 3.74028 7.99986C3.74068 8.37604 3.88956 8.70645 4.13543 8.95422C4.38295 9.20009 4.71362 9.34872 5.08979 9.34938C5.46573 9.34872 5.79617 9.20006 6.04372 8.95422C6.28959 8.70668 6.43844 8.37604 6.43887 7.99986Z" fill="#6F5B28"/>
</svg>
