<svg width="16" height="16" viewBox="0 0 16 16" fill="none" xmlns="http://www.w3.org/2000/svg">
<path d="M7.23874 2.49999C7.62364 1.83333 8.58589 1.83333 8.97079 2.49999L12.074 7.87493C12.4589 8.54159 11.9778 9.3749 11.208 9.3749L5.0016 9.37489C4.2318 9.37489 3.7506 8.54159 4.1355 7.87493L7.23874 2.49999Z" fill="white"/>
<path d="M5.78146 10.0749L4.13546 12.9258C3.75056 13.5925 4.23176 14.4258 5.00156 14.4258H11.2079C11.9777 14.4258 12.4589 13.5925 12.074 12.9258L10.428 10.0749L5.78146 10.0749Z" fill="white"/>
<path d="M6.18561 9.37488L10.0238 9.37488L8.97075 7.5509C8.58585 6.88424 7.6236 6.88424 7.2387 7.5509L6.18561 9.37488Z" fill="white"/>
</svg>
