<svg width="16" height="16" viewBox="0 0 16 16" fill="none" xmlns="http://www.w3.org/2000/svg">
<path d="M10.3123 7.24911L8.9058 6.2643L12.1102 2.98624L5.76111 5.44964L7.1676 6.43448L3.96318 9.71254L10.3123 7.24911Z" fill="#CD3D3C"/>
<path d="M0.0366211 12.287C0.0366211 12.2118 0.0632277 12.1475 0.116441 12.0943C0.171489 12.0393 0.23663 12.0117 0.311862 12.0117H0.314614L2.91042 12.0117H2.91592C2.99116 12.0117 3.05538 12.0393 3.10859 12.0943C3.16364 12.1475 3.19116 12.2118 3.19116 12.287C3.19116 12.3622 3.16364 12.4274 3.10859 12.4824C3.05538 12.5356 2.99116 12.5622 2.91592 12.5622H2.91317L1.81771 12.5677L1.80395 15.7275V15.7302C1.80395 15.8036 1.77643 15.867 1.72138 15.9202C1.66816 15.9734 1.60394 16 1.52871 16C1.45348 16 1.38834 15.9734 1.33329 15.9202C1.28007 15.867 1.25347 15.8036 1.25347 15.7302V15.7247L1.26723 12.5705L0.314614 12.5622H0.311862C0.23663 12.5622 0.171489 12.5356 0.116441 12.4824C0.0632277 12.4274 0.0366211 12.3622 0.0366211 12.287Z" fill="#CD3D3C"/>
<path d="M4.04639 12.0585C4.06657 12.0127 4.10052 11.9741 4.14822 11.9429C4.19777 11.9099 4.24823 11.8934 4.29961 11.8934C4.34915 11.8934 4.39869 11.9099 4.44824 11.9429C4.49962 11.9741 4.53448 12.0127 4.55283 12.0585L6.06665 15.5706C6.08317 15.6073 6.09143 15.6449 6.09143 15.6835C6.09143 15.7587 6.0639 15.8238 6.00885 15.8789C5.95564 15.9321 5.89142 15.9587 5.81618 15.9587C5.76481 15.9587 5.71435 15.9422 5.6648 15.9092C5.61526 15.8761 5.5804 15.8367 5.56021 15.7908L5.08955 14.6981L3.52068 14.6761L3.039 15.7936C3.02065 15.8394 2.98671 15.8789 2.93716 15.9119C2.88762 15.9468 2.83716 15.9642 2.78578 15.9642C2.71055 15.9642 2.64541 15.9376 2.59036 15.8844C2.53715 15.8293 2.51054 15.7642 2.51054 15.689C2.51054 15.6504 2.5188 15.6128 2.53531 15.5761L4.04639 12.0585ZM4.29961 12.865L3.75738 14.1283L4.85009 14.1421L4.29961 12.865Z" fill="#CD3D3C"/>
<path d="M6.44792 13.8614V13.8256L6.44517 12.2374C6.44517 12.1622 6.47177 12.098 6.52498 12.0448C6.5782 11.9916 6.6415 11.964 6.7149 11.9622L7.43879 11.9484C7.47915 11.9466 7.51861 11.9457 7.55714 11.9457C7.59567 11.9457 7.63329 11.9457 7.66999 11.9457C7.87183 11.9457 8.06817 11.9677 8.259 12.0117C8.44984 12.0558 8.62049 12.1237 8.77095 12.2154C8.92325 12.3072 9.04344 12.4264 9.13152 12.5732C9.22143 12.7182 9.26639 12.8925 9.26639 13.0962C9.26639 13.3604 9.17556 13.588 8.9939 13.7788C9.12234 13.8724 9.22693 13.9962 9.30767 14.1504C9.38841 14.3027 9.42878 14.4797 9.42878 14.6816C9.42878 14.9421 9.37281 15.1623 9.26088 15.3422C9.14895 15.5201 8.99481 15.6559 8.79848 15.7495C8.60214 15.8431 8.37644 15.8926 8.12138 15.8981L6.73142 15.9009H6.72591C6.65068 15.9009 6.58554 15.8743 6.53049 15.8211C6.47728 15.766 6.45067 15.7009 6.45067 15.6257L6.44792 13.8614ZM8.7159 13.1127C8.7159 12.9457 8.65902 12.8182 8.54525 12.7301C8.43332 12.6402 8.29203 12.5787 8.12138 12.5457C7.95257 12.5127 7.78192 12.4962 7.60944 12.4962C7.58375 12.4962 7.55714 12.4971 7.52962 12.4989C7.50209 12.4989 7.47549 12.4989 7.4498 12.4989L6.99565 12.5072L6.9984 13.5669L8.05808 13.5503C8.17001 13.5485 8.27552 13.5357 8.3746 13.5118C8.47553 13.4861 8.55718 13.4421 8.61957 13.3797C8.68379 13.3155 8.7159 13.2265 8.7159 13.1127ZM8.11037 15.3477C8.35626 15.344 8.54526 15.2917 8.67737 15.1908C8.81132 15.088 8.8783 14.9137 8.8783 14.6678C8.8783 14.4495 8.80582 14.3008 8.66086 14.2219C8.5159 14.1412 8.33057 14.1008 8.10487 14.1008H8.06909L6.9984 14.1173L7.00115 15.3449L8.11037 15.3477Z" fill="#CD3D3C"/>
<path d="M10.1926 15.9202C10.1174 15.9202 10.0523 15.8936 9.99721 15.8403C9.94399 15.7853 9.91739 15.7211 9.91739 15.6477L9.90913 12.1549V12.1521C9.90913 12.0787 9.93574 12.0163 9.98895 11.965C10.044 11.9117 10.1091 11.8851 10.1844 11.8851C10.2596 11.8851 10.3238 11.9117 10.377 11.965C10.4321 12.0163 10.4596 12.0787 10.4596 12.1521L10.4679 15.3697L12.5514 15.3642H12.5542C12.6294 15.3642 12.6937 15.3917 12.7469 15.4467C12.8019 15.5 12.8294 15.5642 12.8294 15.6394C12.8294 15.7147 12.8019 15.7798 12.7469 15.8348C12.6937 15.8881 12.6294 15.9147 12.5542 15.9147H12.5514L10.1926 15.9202Z" fill="#CD3D3C"/>
<path d="M13.0511 12.2209C13.0511 12.1475 13.0777 12.0851 13.1309 12.0338C13.1859 11.9805 13.2511 11.9539 13.3263 11.9539L15.6851 11.9567H15.6879C15.7631 11.9567 15.8273 11.9842 15.8805 12.0393C15.9356 12.0925 15.9631 12.1567 15.9631 12.2319C15.9631 12.3072 15.9356 12.3723 15.8805 12.4274C15.8273 12.4806 15.7631 12.5072 15.6879 12.5072H15.6851L13.6015 12.5044L13.6043 13.6329L15.4594 13.6467C15.5383 13.6467 15.6035 13.6742 15.6548 13.7292C15.708 13.7843 15.7347 13.8549 15.7347 13.9412C15.7347 14.0146 15.7062 14.077 15.6493 14.1283C15.5924 14.1779 15.5291 14.2027 15.4594 14.2027H15.4567L13.607 14.1889L13.6098 15.3532L15.6851 15.3504H15.6879C15.7631 15.3504 15.8273 15.3779 15.8805 15.433C15.9356 15.4862 15.9631 15.5504 15.9631 15.6257C15.9631 15.7009 15.9356 15.766 15.8805 15.8211C15.8273 15.8743 15.7631 15.9009 15.6879 15.9009H15.6851L13.3346 15.9036C13.2593 15.9036 13.1942 15.877 13.1391 15.8238C13.0859 15.7688 13.0593 15.7046 13.0593 15.6312L13.0511 12.2209Z" fill="#CD3D3C"/>
</svg>
