<svg width="16" height="16" viewBox="0 0 16 16" fill="none" xmlns="http://www.w3.org/2000/svg">
<path d="M12.757 10.1378C12.5664 11.9589 13.3817 12.2988 13.1798 13.6929C12.9779 15.0869 12.1347 14.9982 12.1347 14.9982C12.1347 14.9982 11.2948 15.1036 11.0435 13.714C10.7923 12.3244 11.5953 11.9685 11.3401 10.1518L12.757 10.1378Z" fill="white"/>
<path d="M12.1288 13.7022C11.8776 12.3126 12.6808 11.9653 12.4256 10.1485L11.3392 10.1593C11.5944 11.976 10.7912 12.3233 11.0424 13.7129C11.2937 15.1025 12.1335 14.9971 12.1335 14.9971C12.1335 14.9971 12.4027 15.0254 12.6733 14.7986C12.4588 14.6282 12.2381 14.3067 12.1288 13.7022Z" fill="white"/>
<path fill-rule="evenodd" clip-rule="evenodd" d="M14.886 8.40245C13.3627 9.9685 10.8482 9.99334 9.26976 8.45793C7.69135 6.92253 7.64676 4.4083 9.17015 2.84225C10.6935 1.2762 13.208 1.25136 14.7864 2.78677C16.3648 4.32218 16.4094 6.8364 14.886 8.40245ZM14.0496 7.58895C12.9724 8.69628 11.1945 8.71385 10.0784 7.62818C8.96232 6.54251 8.93079 4.76472 10.008 3.65739C11.0851 2.55005 12.8631 2.53249 13.9792 3.61816C15.0953 4.70383 15.1268 6.48161 14.0496 7.58895Z" fill="white"/>
<path fill-rule="evenodd" clip-rule="evenodd" d="M5.88821 1C6.61184 1 7.20071 1.58888 7.20071 2.3125V13.6875C7.20071 14.4111 6.61184 15 5.88821 15L3.15859 15C2.43496 15 1.84609 14.4111 1.84609 13.6875V2.3125C1.84609 1.58888 2.43496 1 3.15859 1H5.88821ZM2.82571 9.75H6.32571V6.25H2.82571V9.75ZM6.32571 13.6875V10.625H2.82571C2.82571 10.625 2.82571 13.3278 2.82571 13.6875C2.82571 14.0472 3.08485 14.125 3.2753 14.125C3.46576 14.125 5.88821 14.125 5.88821 14.125C6.12884 14.125 6.32571 13.9281 6.32571 13.6875Z" fill="white"/>
</svg>
