<svg width="16" height="16" viewBox="0 0 16 16" fill="none" xmlns="http://www.w3.org/2000/svg">
<path d="M1 9.4C1 9.17909 1.17909 9 1.4 9H14.6C14.8209 9 15 9.17909 15 9.4V9.6C15 9.82091 14.8209 10 14.6 10H1.4C1.17909 10 1 9.82091 1 9.6V9.4Z" fill="#554646"/>
<path d="M1 3.4C1 3.17909 1.17909 3 1.4 3H2.6C2.82091 3 3 3.17909 3 3.4V3.6C3 3.82091 2.82091 4 2.6 4H1.4C1.17909 4 1 3.82091 1 3.6V3.4Z" fill="#554646"/>
<path d="M6 3.4C6 3.17909 6.17909 3 6.4 3H7.6C7.82091 3 8 3.17909 8 3.4V3.6C8 3.82091 7.82091 4 7.6 4H6.4C6.17909 4 6 3.82091 6 3.6V3.4Z" fill="#554646"/>
<path d="M11 3.4C11 3.17909 11.1791 3 11.4 3H12.6C12.8209 3 13 3.17909 13 3.4V3.6C13 3.82091 12.8209 4 12.6 4H11.4C11.1791 4 11 3.82091 11 3.6V3.4Z" fill="#554646"/>
<path d="M4 3.4C4 3.17909 4.17909 3 4.4 3H4.6C4.82091 3 5 3.17909 5 3.4V3.6C5 3.82091 4.82091 4 4.6 4H4.4C4.17909 4 4 3.82091 4 3.6V3.4Z" fill="#554646"/>
<path d="M9 3.4C9 3.17909 9.17909 3 9.4 3H9.6C9.82091 3 10 3.17909 10 3.4V3.6C10 3.82091 9.82091 4 9.6 4H9.4C9.17909 4 9 3.82091 9 3.6V3.4Z" fill="#554646"/>
<path d="M14 3.4C14 3.17909 14.1791 3 14.4 3H14.6C14.8209 3 15 3.17909 15 3.4V3.6C15 3.82091 14.8209 4 14.6 4H14.4C14.1791 4 14 3.82091 14 3.6V3.4Z" fill="#554646"/>
<path d="M6 6.4C6 6.17909 6.17909 6 6.4 6H9.6C9.82091 6 10 6.17909 10 6.4V6.6C10 6.82091 9.82091 7 9.6 7H6.4C6.17909 7 6 6.82091 6 6.6V6.4Z" fill="#554646"/>
<path d="M1 6.4C1 6.17909 1.17909 6 1.4 6H4.6C4.82091 6 5 6.17909 5 6.4V6.6C5 6.82091 4.82091 7 4.6 7H1.4C1.17909 7 1 6.82091 1 6.6V6.4Z" fill="#554646"/>
<path d="M11 6.4C11 6.17909 11.1791 6 11.4 6H14.6C14.8209 6 15 6.17909 15 6.4V6.6C15 6.82091 14.8209 7 14.6 7H11.4C11.1791 7 11 6.82091 11 6.6V6.4Z" fill="#554646"/>
<path d="M1 12.4C1 12.1791 1.17909 12 1.4 12H14.6C14.8209 12 15 12.1791 15 12.4V13.6C15 13.8209 14.8209 14 14.6 14H1.4C1.17909 14 1 13.8209 1 13.6V12.4Z" fill="#554646"/>
</svg>
