<svg width="16" height="16" viewBox="0 0 16 16" fill="none" xmlns="http://www.w3.org/2000/svg">
<path d="M0.734863 2.08629C0.734863 1.75204 1.00583 1.48108 1.34008 1.48108H7.83033C8.16458 1.48108 8.43554 1.75204 8.43554 2.08629V8.00734C8.43554 8.34159 8.16458 8.61255 7.83033 8.61255H1.34008C1.00583 8.61255 0.734863 8.34159 0.734863 8.00734V2.08629Z" fill="#F5F5F5"/>
<path d="M8.08552 1.4682H1.0849C0.891584 1.4682 0.734863 1.69392 0.734863 1.97235V2.05871V4.07528V6.09184V8.10841C0.734863 8.38684 0.891584 8.61256 1.0849 8.61256H3.41845H5.752H8.08555C8.27886 8.61256 8.43558 8.38684 8.43558 8.10841V6.09184V4.07528V2.05871V1.97235C8.43555 1.69392 8.27883 1.4682 8.08552 1.4682ZM3.06841 7.10012C3.06841 7.37855 2.8427 7.60426 2.56427 7.60426H1.93905C1.66063 7.60426 1.43492 7.37855 1.43492 7.10013V7.10013C1.43492 6.8217 1.66063 6.59599 1.93906 6.59599H2.56427C2.84269 6.59599 3.0684 6.8217 3.06841 7.10012V7.10012ZM3.06841 5.08355C3.06841 5.36198 2.8427 5.5877 2.56427 5.5877H1.93905C1.66063 5.5877 1.43492 5.36199 1.43492 5.08356V5.08356C1.43492 4.80513 1.66063 4.57942 1.93905 4.57942H2.56427C2.84269 4.57942 3.0684 4.80513 3.06841 5.08355V5.08355ZM3.06841 3.06699C3.06841 3.34542 2.8427 3.57113 2.56427 3.57113H1.93905C1.66063 3.57113 1.43492 3.34542 1.43492 3.067V3.067C1.43492 2.78857 1.66063 2.56286 1.93905 2.56286H2.56427C2.84269 2.56286 3.0684 2.78857 3.06841 3.06699V3.06699ZM5.40195 7.10013C5.40195 7.37855 5.17624 7.60426 4.89781 7.60426H4.27261C3.99418 7.60426 3.76847 7.37855 3.76847 7.10013V7.10013C3.76847 6.8217 3.99418 6.59599 4.27261 6.59599H4.89781C5.17624 6.59599 5.40195 6.8217 5.40195 7.10013V7.10013ZM5.40195 5.08356C5.40195 5.36199 5.17624 5.5877 4.89781 5.5877H4.2726C3.99418 5.5877 3.76847 5.36199 3.76847 5.08356V5.08356C3.76847 4.80513 3.99418 4.57942 4.2726 4.57942H4.89781C5.17624 4.57942 5.40195 4.80513 5.40195 5.08356V5.08356ZM5.40195 3.067C5.40195 3.34542 5.17624 3.57113 4.89781 3.57113H4.2726C3.99418 3.57113 3.76847 3.34542 3.76847 3.067V3.067C3.76847 2.78857 3.99418 2.56286 4.2726 2.56286H4.89781C5.17624 2.56286 5.40195 2.78857 5.40195 3.067V3.067ZM7.73549 7.10012C7.7355 7.37855 7.50978 7.60426 7.23135 7.60426H6.60614C6.32771 7.60426 6.102 7.37855 6.102 7.10013V7.10013C6.102 6.8217 6.32771 6.59599 6.60614 6.59599H7.23135C7.50978 6.59599 7.73549 6.8217 7.73549 7.10012V7.10012ZM7.73549 5.08355C7.7355 5.36198 7.50978 5.5877 7.23136 5.5877H6.60614C6.32771 5.5877 6.102 5.36199 6.102 5.08356V5.08356C6.102 4.80513 6.32771 4.57942 6.60614 4.57942H7.23136C7.50978 4.57942 7.73549 4.80513 7.73549 5.08355V5.08355ZM7.73549 3.06699C7.7355 3.34542 7.50978 3.57113 7.23136 3.57113H6.60614C6.32771 3.57113 6.102 3.34542 6.102 3.067V3.067C6.102 2.78857 6.32771 2.56286 6.60614 2.56286H7.23136C7.50978 2.56286 7.73549 2.78857 7.73549 3.06699V3.06699Z" fill="#554646"/>
<path fill-rule="evenodd" clip-rule="evenodd" d="M3.629 2.18317H3.46631V2.34586V8.44989V8.61258H3.629H5.55162H5.71432V8.44989V2.34586V2.18317H5.55162H3.629ZM3.7917 2.51525V2.50855H3.80044L3.7917 2.51525ZM5.38893 2.51525V2.50855H5.3802L5.38893 2.51525ZM3.82002 3.12203C3.82002 2.8775 4.01825 2.67927 4.26278 2.67927H4.91785C5.16238 2.67927 5.36061 2.8775 5.36061 3.12203C5.36061 3.36656 5.16238 3.56479 4.91785 3.56479H4.26278C4.01825 3.56479 3.82002 3.36656 3.82002 3.12203ZM3.82002 5.09268C3.82002 4.84815 4.01825 4.64992 4.26278 4.64992H4.91785C5.16238 4.64992 5.36061 4.84815 5.36061 5.09268C5.36061 5.33721 5.16238 5.53544 4.91785 5.53544H4.26278C4.01825 5.53544 3.82002 5.33721 3.82002 5.09268ZM4.26278 6.71394C4.01825 6.71394 3.82002 6.91217 3.82002 7.1567C3.82002 7.40123 4.01825 7.59946 4.26278 7.59946H4.91785C5.16238 7.59946 5.36061 7.40123 5.36061 7.1567C5.36061 6.91217 5.16238 6.71394 4.91785 6.71394H4.26278Z" fill="#FF4847"/>
<g filter="url(#filter0_f_312_2554)">
<path d="M6.31836 4.02481C6.31836 3.54883 6.70422 3.16296 7.18021 3.16296H12.4835C12.9595 3.16296 13.3453 3.54883 13.3453 4.02481V8.73996C13.3453 9.21594 12.9595 9.60181 12.4835 9.60181H7.18021C6.70422 9.60181 6.31836 9.21594 6.31836 8.73996V4.02481Z" fill="#440D0D" fill-opacity="0.35"/>
</g>
<path d="M7.34424 3.44909C7.34424 3.11484 7.6152 2.84387 7.94945 2.84387H14.4397C14.774 2.84387 15.0449 3.11484 15.0449 3.44909V9.37013C15.0449 9.70438 14.774 9.97535 14.4397 9.97535H7.94945C7.6152 9.97535 7.34424 9.70438 7.34424 9.37013V3.44909Z" fill="#F5F5F5"/>
<path d="M14.6949 2.83099H7.69427C7.50096 2.83099 7.34424 3.05671 7.34424 3.33514V3.42151V5.43807V7.45464V9.4712C7.34424 9.74963 7.50096 9.97535 7.69427 9.97535H10.0278H12.3614H14.6949C14.8882 9.97535 15.045 9.74963 15.045 9.4712V7.45464V5.43807V3.42151V3.33514C15.0449 3.05671 14.8882 2.83099 14.6949 2.83099ZM9.67778 8.46291C9.67778 8.74134 9.45207 8.96706 9.17364 8.96706H8.54843C8.27 8.96706 8.04429 8.74135 8.04429 8.46292V8.46292C8.04429 8.18449 8.27 7.95878 8.54843 7.95878H9.17364C9.45207 7.95878 9.67778 8.18449 9.67778 8.46291V8.46291ZM9.67778 6.44635C9.67778 6.72477 9.45207 6.95049 9.17365 6.95049H8.54843C8.27 6.95049 8.04429 6.72478 8.04429 6.44635V6.44635C8.04429 6.16793 8.27 5.94222 8.54843 5.94222H9.17365C9.45207 5.94222 9.67778 6.16792 9.67778 6.44635V6.44635ZM9.67778 4.42978C9.67778 4.70821 9.45207 4.93392 9.17365 4.93392H8.54843C8.27 4.93392 8.04429 4.70822 8.04429 4.42979V4.42979C8.04429 4.15136 8.27 3.92565 8.54843 3.92565H9.17365C9.45207 3.92565 9.67778 4.15136 9.67778 4.42978V4.42978ZM12.0113 8.46292C12.0113 8.74135 11.7856 8.96706 11.5072 8.96706H10.882C10.6036 8.96706 10.3778 8.74135 10.3778 8.46292V8.46292C10.3778 8.18449 10.6036 7.95878 10.882 7.95878H11.5072C11.7856 7.95878 12.0113 8.18449 12.0113 8.46292V8.46292ZM12.0113 6.44635C12.0113 6.72478 11.7856 6.95049 11.5072 6.95049H10.882C10.6036 6.95049 10.3778 6.72478 10.3778 6.44635V6.44635C10.3778 6.16793 10.6036 5.94222 10.882 5.94222H11.5072C11.7856 5.94222 12.0113 6.16793 12.0113 6.44635V6.44635ZM12.0113 4.42979C12.0113 4.70822 11.7856 4.93392 11.5072 4.93392H10.882C10.6036 4.93392 10.3778 4.70822 10.3778 4.42979V4.42979C10.3778 4.15136 10.6036 3.92565 10.882 3.92565H11.5072C11.7856 3.92565 12.0113 4.15136 12.0113 4.42979V4.42979ZM14.3449 8.46291C14.3449 8.74134 14.1192 8.96706 13.8407 8.96706H13.2155C12.9371 8.96706 12.7114 8.74135 12.7114 8.46292V8.46292C12.7114 8.18449 12.9371 7.95878 13.2155 7.95878H13.8407C14.1192 7.95878 14.3449 8.18449 14.3449 8.46291V8.46291ZM14.3449 6.44635C14.3449 6.72477 14.1192 6.95049 13.8407 6.95049H13.2155C12.9371 6.95049 12.7114 6.72478 12.7114 6.44635V6.44635C12.7114 6.16793 12.9371 5.94222 13.2155 5.94222H13.8407C14.1192 5.94222 14.3449 6.16792 14.3449 6.44635V6.44635ZM14.3449 4.42978C14.3449 4.70821 14.1192 4.93392 13.8407 4.93392H13.2155C12.9371 4.93392 12.7114 4.70822 12.7114 4.42979V4.42979C12.7114 4.15136 12.9371 3.92565 13.2155 3.92565H13.8407C14.1192 3.92565 14.3449 4.15136 14.3449 4.42978V4.42978Z" fill="#554646"/>
<path fill-rule="evenodd" clip-rule="evenodd" d="M10.2384 3.54596H10.0757V3.70865V9.81268V9.97537H10.2384H12.161H12.3237V9.81268V3.70865V3.54596H12.161H10.2384ZM10.4011 3.87804V3.87135H10.4098L10.4011 3.87804ZM11.9983 3.87804V3.87135H11.9896L11.9983 3.87804ZM10.4294 4.48483C10.4294 4.2403 10.6276 4.04207 10.8722 4.04207H11.5272C11.7718 4.04207 11.97 4.2403 11.97 4.48483C11.97 4.72936 11.7718 4.92759 11.5272 4.92759H10.8722C10.6276 4.92759 10.4294 4.72936 10.4294 4.48483ZM10.4294 6.45548C10.4294 6.21095 10.6276 6.01272 10.8722 6.01272H11.5272C11.7718 6.01272 11.97 6.21095 11.97 6.45548C11.97 6.70001 11.7718 6.89824 11.5272 6.89824H10.8722C10.6276 6.89824 10.4294 6.70001 10.4294 6.45548ZM10.8722 8.07673C10.6276 8.07673 10.4294 8.27496 10.4294 8.51949C10.4294 8.76402 10.6276 8.96225 10.8722 8.96225H11.5272C11.7718 8.96225 11.97 8.76402 11.97 8.51949C11.97 8.27496 11.7718 8.07673 11.5272 8.07673H10.8722Z" fill="#FF4847"/>
<g filter="url(#filter1_f_312_2554)">
<path d="M3.65479 8.1243C3.65479 7.64831 4.04065 7.26245 4.51664 7.26245H9.81991C10.2959 7.26245 10.6818 7.64831 10.6818 8.1243V13.2884C10.6818 13.7644 10.2959 14.1503 9.81991 14.1503H4.51664C4.04065 14.1503 3.65479 13.7644 3.65479 13.2884V8.1243Z" fill="#440D0D" fill-opacity="0.35"/>
</g>
<path d="M3.46631 8.27111C3.46631 7.93686 3.73727 7.66589 4.07152 7.66589H10.5618C10.896 7.66589 11.167 7.93686 11.167 8.27111V14.1922C11.167 14.5264 10.896 14.7974 10.5618 14.7974H4.07152C3.73727 14.7974 3.46631 14.5264 3.46631 14.1922V8.27111Z" fill="#F5F5F5"/>
<path d="M10.817 7.65302H3.81634C3.62303 7.65302 3.46631 7.87874 3.46631 8.15716V8.24353V10.2601V12.2767V14.2932C3.46631 14.5716 3.62303 14.7974 3.81634 14.7974H6.14989H8.48344H10.817C11.0103 14.7974 11.167 14.5716 11.167 14.2932V12.2767V10.2601V8.24353V8.15716C11.167 7.87874 11.0103 7.65302 10.817 7.65302ZM5.79985 13.2849C5.79986 13.5634 5.57414 13.7891 5.29572 13.7891H4.6705C4.39207 13.7891 4.16636 13.5634 4.16636 13.2849V13.2849C4.16636 13.0065 4.39207 12.7808 4.6705 12.7808H5.29572C5.57414 12.7808 5.79985 13.0065 5.79985 13.2849V13.2849ZM5.79985 11.2684C5.79986 11.5468 5.57414 11.7725 5.29572 11.7725H4.6705C4.39207 11.7725 4.16636 11.5468 4.16636 11.2684V11.2684C4.16636 10.9899 4.39207 10.7642 4.6705 10.7642H5.29572C5.57414 10.7642 5.79985 10.9899 5.79985 11.2684V11.2684ZM5.79985 9.2518C5.79986 9.53023 5.57414 9.75595 5.29572 9.75595H4.6705C4.39207 9.75595 4.16636 9.53024 4.16636 9.25181V9.25181C4.16636 8.97338 4.39207 8.74767 4.6705 8.74767H5.29572C5.57414 8.74767 5.79985 8.97338 5.79985 9.2518V9.2518ZM8.13339 13.2849C8.13339 13.5634 7.90768 13.7891 7.62926 13.7891H7.00405C6.72562 13.7891 6.49991 13.5634 6.49991 13.2849V13.2849C6.49991 13.0065 6.72562 12.7808 7.00405 12.7808H7.62926C7.90768 12.7808 8.13339 13.0065 8.13339 13.2849V13.2849ZM8.13339 11.2684C8.13339 11.5468 7.90769 11.7725 7.62926 11.7725H7.00405C6.72562 11.7725 6.49991 11.5468 6.49991 11.2684V11.2684C6.49991 10.9899 6.72562 10.7642 7.00405 10.7642H7.62926C7.90769 10.7642 8.13339 10.9899 8.13339 11.2684V11.2684ZM8.13339 9.25181C8.13339 9.53024 7.90768 9.75595 7.62926 9.75595H7.00405C6.72562 9.75595 6.49991 9.53024 6.49991 9.25181V9.25181C6.49991 8.97338 6.72562 8.74767 7.00405 8.74767H7.62926C7.90769 8.74767 8.13339 8.97338 8.13339 9.25181V9.25181ZM10.4669 13.2849C10.4669 13.5634 10.2412 13.7891 9.9628 13.7891H9.33758C9.05916 13.7891 8.83345 13.5634 8.83345 13.2849V13.2849C8.83345 13.0065 9.05916 12.7808 9.33758 12.7808H9.9628C10.2412 12.7808 10.4669 13.0065 10.4669 13.2849V13.2849ZM10.4669 11.2684C10.4669 11.5468 10.2412 11.7725 9.9628 11.7725H9.33758C9.05916 11.7725 8.83345 11.5468 8.83345 11.2684V11.2684C8.83345 10.9899 9.05916 10.7642 9.33758 10.7642H9.9628C10.2412 10.7642 10.4669 10.9899 10.4669 11.2684V11.2684ZM10.4669 9.2518C10.4669 9.53023 10.2412 9.75595 9.9628 9.75595H9.33758C9.05916 9.75595 8.83345 9.53024 8.83345 9.25181V9.25181C8.83345 8.97338 9.05916 8.74767 9.33758 8.74767H9.9628C10.2412 8.74767 10.4669 8.97338 10.4669 9.2518V9.2518Z" fill="#554646"/>
<path fill-rule="evenodd" clip-rule="evenodd" d="M6.36045 8.36798H6.19775V8.53067V14.6347V14.7974H6.36045H8.28307H8.44576V14.6347V8.53067V8.36798H8.28307H6.36045ZM6.52314 8.70007V8.69337H6.53188L6.52314 8.70007ZM8.12038 8.70006V8.69337H8.11164L8.12038 8.70006ZM6.55147 9.30685C6.55147 9.06232 6.7497 8.86409 6.99423 8.86409H7.64929C7.89383 8.86409 8.09206 9.06232 8.09206 9.30685C8.09206 9.55138 7.89383 9.74961 7.64929 9.74961H6.99423C6.7497 9.74961 6.55147 9.55138 6.55147 9.30685ZM6.55147 11.2775C6.55147 11.033 6.7497 10.8347 6.99423 10.8347H7.64929C7.89383 10.8347 8.09206 11.033 8.09206 11.2775C8.09206 11.522 7.89383 11.7203 7.64929 11.7203H6.99423C6.7497 11.7203 6.55147 11.522 6.55147 11.2775ZM6.99423 12.8988C6.7497 12.8988 6.55147 13.097 6.55147 13.3415C6.55147 13.586 6.7497 13.7843 6.99423 13.7843H7.64929C7.89383 13.7843 8.09206 13.586 8.09206 13.3415C8.09206 13.097 7.89383 12.8988 7.64929 12.8988H6.99423Z" fill="#FF4847"/>
<defs>
<filter id="filter0_f_312_2554" x="5.45651" y="2.30111" width="8.75056" height="8.16254" filterUnits="userSpaceOnUse" color-interpolation-filters="sRGB">
<feFlood flood-opacity="0" result="BackgroundImageFix"/>
<feBlend mode="normal" in="SourceGraphic" in2="BackgroundImageFix" result="shape"/>
<feGaussianBlur stdDeviation="0.430925" result="effect1_foregroundBlur_312_2554"/>
</filter>
<filter id="filter1_f_312_2554" x="2.79293" y="6.4006" width="8.75056" height="8.61152" filterUnits="userSpaceOnUse" color-interpolation-filters="sRGB">
<feFlood flood-opacity="0" result="BackgroundImageFix"/>
<feBlend mode="normal" in="SourceGraphic" in2="BackgroundImageFix" result="shape"/>
<feGaussianBlur stdDeviation="0.430925" result="effect1_foregroundBlur_312_2554"/>
</filter>
</defs>
</svg>
