<svg width="16" height="16" viewBox="0 0 16 16" fill="none" xmlns="http://www.w3.org/2000/svg">
<path fill-rule="evenodd" clip-rule="evenodd" d="M8 13.4995C11.0373 13.4995 13.4995 11.0373 13.4995 8C13.4995 4.9627 11.0373 2.50049 8 2.50049C4.9627 2.50049 2.50049 4.9627 2.50049 8C2.50049 11.0373 4.9627 13.4995 8 13.4995ZM8.02455 11.4987C7.49496 11.4987 7.06564 11.0694 7.06564 10.5398V8.95894H5.46037C4.93078 8.95894 4.50146 8.52962 4.50146 8.00003C4.50146 7.47044 4.93078 7.04112 5.46037 7.04112H7.06564V5.46019C7.06564 4.9306 7.49496 4.50128 8.02455 4.50128C8.55414 4.50128 8.98346 4.9306 8.98346 5.46019V7.04112H10.54C11.0696 7.04112 11.4989 7.47044 11.4989 8.00003C11.4989 8.52962 11.0696 8.95894 10.54 8.95894H8.98346V10.5398C8.98346 11.0694 8.55414 11.4987 8.02455 11.4987Z" fill="white"/>
<path fill-rule="evenodd" clip-rule="evenodd" d="M8.02436 4.70128C7.60522 4.70128 7.26545 5.04106 7.26545 5.46019V7.24112H5.46018C5.04104 7.24112 4.70127 7.5809 4.70127 8.00003C4.70127 8.41917 5.04104 8.75894 5.46018 8.75894H7.26545V10.5398C7.26545 10.9589 7.60522 11.2987 8.02436 11.2987C8.44349 11.2987 8.78326 10.9589 8.78326 10.5398V8.75894H10.5398C10.9589 8.75894 11.2987 8.41917 11.2987 8.00003C11.2987 7.5809 10.9589 7.24112 10.5398 7.24112H8.78326V5.46019C8.78326 5.04106 8.44349 4.70128 8.02436 4.70128ZM6.86545 5.46019C6.86545 4.82015 7.38431 4.30128 8.02436 4.30128C8.6644 4.30128 9.18326 4.82015 9.18326 5.46019V6.84112H10.5398C11.1798 6.84112 11.6987 7.35999 11.6987 8.00003C11.6987 8.64008 11.1798 9.15894 10.5398 9.15894H9.18326V10.5398C9.18326 11.1799 8.6644 11.6987 8.02436 11.6987C7.38431 11.6987 6.86545 11.1799 6.86545 10.5398V9.15894H5.46018C4.82013 9.15894 4.30127 8.64008 4.30127 8.00003C4.30127 7.35999 4.82013 6.84112 5.46018 6.84112H6.86545V5.46019Z" fill="#666666"/>
</svg>
