<svg width="17" height="16" viewBox="0 0 17 16" fill="none" xmlns="http://www.w3.org/2000/svg">
<path fill-rule="evenodd" clip-rule="evenodd" d="M1.3335 1.33337C1.3335 1.05723 1.55735 0.833374 1.8335 0.833374H3.83243C4.10857 0.833374 4.33243 1.05723 4.33243 1.33337V3.33231C4.33243 3.60845 4.10857 3.83231 3.83243 3.83231H1.8335C1.55735 3.83231 1.3335 3.60845 1.3335 3.33231V1.33337ZM2.3335 1.83337V2.83231H3.33243V1.83337H2.3335Z" fill="#554646"/>
<path fill-rule="evenodd" clip-rule="evenodd" d="M3.33252 2.33398C3.33252 2.05784 3.55638 1.83398 3.83252 1.83398H13.166C13.4421 1.83398 13.666 2.05784 13.666 2.33398C13.666 2.61013 13.4421 2.83398 13.166 2.83398H3.83252C3.55638 2.83398 3.33252 2.61013 3.33252 2.33398Z" fill="#554646"/>
<path fill-rule="evenodd" clip-rule="evenodd" d="M2.8335 2.8324C3.10964 2.8324 3.3335 3.05626 3.3335 3.3324V12.667C3.3335 12.9432 3.10964 13.167 2.8335 13.167C2.55735 13.167 2.3335 12.9432 2.3335 12.667V3.3324C2.3335 3.05626 2.55735 2.8324 2.8335 2.8324Z" fill="#554646"/>
<path fill-rule="evenodd" clip-rule="evenodd" d="M14.165 2.83337C14.4412 2.83337 14.665 3.05723 14.665 3.33337V12.668C14.665 12.9442 14.4412 13.168 14.165 13.168C13.8889 13.168 13.665 12.9442 13.665 12.668V3.33337C13.665 3.05723 13.8889 2.83337 14.165 2.83337Z" fill="#554646"/>
<path fill-rule="evenodd" clip-rule="evenodd" d="M3.33252 13.6674C3.33252 13.3912 3.55638 13.1674 3.83252 13.1674H13.166C13.4421 13.1674 13.666 13.3912 13.666 13.6674C13.666 13.9435 13.4421 14.1674 13.166 14.1674H3.83252C3.55638 14.1674 3.33252 13.9435 3.33252 13.6674Z" fill="#554646"/>
<path fill-rule="evenodd" clip-rule="evenodd" d="M1.3335 12.6666C1.3335 12.3905 1.55735 12.1666 1.8335 12.1666H3.83243C4.10857 12.1666 4.33243 12.3905 4.33243 12.6666V14.6656C4.33243 14.9417 4.10857 15.1656 3.83243 15.1656H1.8335C1.55735 15.1656 1.3335 14.9417 1.3335 14.6656V12.6666ZM2.3335 13.1666V14.1656H3.33243V13.1666H2.3335Z" fill="#554646"/>
<path fill-rule="evenodd" clip-rule="evenodd" d="M12.666 1.33459C12.666 1.05845 12.8899 0.834595 13.166 0.834595H15.1649C15.4411 0.834595 15.6649 1.05845 15.6649 1.33459V3.33353C15.6649 3.60967 15.4411 3.83353 15.1649 3.83353H13.166C12.8899 3.83353 12.666 3.60967 12.666 3.33353V1.33459ZM13.666 1.83459V2.83353H14.6649V1.83459H13.666Z" fill="#554646"/>
<path fill-rule="evenodd" clip-rule="evenodd" d="M12.666 12.668C12.666 12.3918 12.8899 12.168 13.166 12.168H15.1649C15.4411 12.168 15.6649 12.3918 15.6649 12.668V14.6669C15.6649 14.943 15.4411 15.1669 15.1649 15.1669H13.166C12.8899 15.1669 12.666 14.943 12.666 14.6669V12.668ZM13.666 13.168V14.1669H14.6649V13.168H13.666Z" fill="#554646"/>
<path fill-rule="evenodd" clip-rule="evenodd" d="M10.7662 6.26369C10.9126 6.11727 10.9126 5.87986 10.7662 5.73343C10.6198 5.587 10.3824 5.587 10.2359 5.73343L8.38528 7.5841L6.64835 5.84718C6.50193 5.70075 6.26452 5.70075 6.11809 5.84718C5.97166 5.99361 5.97166 6.23101 6.11809 6.37744L7.85501 8.11436L6.23181 9.73756C6.08539 9.88399 6.08539 10.1214 6.23181 10.2678C6.37824 10.4143 6.61565 10.4143 6.76208 10.2678L8.38528 8.64463L10.1222 10.3816C10.2686 10.528 10.5061 10.528 10.6525 10.3816C10.7989 10.2351 10.7989 9.99774 10.6525 9.85131L8.91554 8.11436L10.7662 6.26369Z" fill="#E23B3A"/>
<path fill-rule="evenodd" clip-rule="evenodd" d="M8.38528 7.72552L6.57764 5.91789C6.47027 5.81051 6.29618 5.81051 6.1888 5.91789C6.08142 6.02526 6.08142 6.19936 6.1888 6.30673L7.99643 8.11436L6.30252 9.80827C6.19515 9.91565 6.19515 10.0897 6.30252 10.1971C6.4099 10.3045 6.58399 10.3045 6.69137 10.1971L8.38528 8.50321L10.1929 10.3109C10.3003 10.4182 10.4744 10.4182 10.5818 10.3109C10.6891 10.2035 10.6891 10.0294 10.5818 9.92202L8.77412 8.11436L10.6955 6.19298C10.8029 6.08561 10.8029 5.91152 10.6955 5.80414C10.5881 5.69676 10.414 5.69676 10.3067 5.80414L8.38528 7.72552ZM8.38528 7.5841L6.64835 5.84718C6.50193 5.70075 6.26452 5.70075 6.11809 5.84718C5.97166 5.99361 5.97166 6.23101 6.11809 6.37744L7.85501 8.11436L6.23181 9.73756C6.08539 9.88399 6.08539 10.1214 6.23181 10.2678C6.37824 10.4143 6.61565 10.4143 6.76208 10.2678L8.38528 8.64463L10.1222 10.3816C10.2686 10.528 10.5061 10.528 10.6525 10.3816C10.7989 10.2351 10.7989 9.99774 10.6525 9.85131L8.91554 8.11436L10.7662 6.26369C10.9126 6.11727 10.9126 5.87986 10.7662 5.73343C10.6198 5.587 10.3824 5.587 10.2359 5.73343L8.38528 7.5841Z" fill="#1C7E26"/>
</svg>
