<svg width="16" height="16" viewBox="0 0 16 16" fill="none" xmlns="http://www.w3.org/2000/svg">
<path d="M9.18443 3.58233C8.81639 3.52794 8.45396 3.49999 8.10352 3.49999C5.33623 3.49999 1.61347 5.243 0.5 7.98529C1.02467 9.27747 2.12869 10.3543 3.43911 11.1318L4.24351 10.0748C3.24191 9.50241 2.44821 8.77696 1.98061 7.98559C2.46137 7.17382 3.28738 6.43502 4.33131 5.86096C5.57454 5.17731 6.97541 4.81322 8.10352 4.81322C8.15072 4.81322 8.1983 4.81385 8.24625 4.81513L9.18443 3.58233Z" fill="white"/>
<path d="M11.736 5.84051L12.5406 4.7832C13.8529 5.55837 14.9595 6.65409 15.5 7.98529C14.3865 10.7276 10.8708 12.5 8.10352 12.5C7.67509 12.5 7.22376 12.4575 6.76275 12.3755L7.67993 11.1703C7.82472 11.1813 7.96618 11.1868 8.10352 11.1868C9.22204 11.1868 10.5629 10.8208 11.749 10.1374C12.7455 9.56326 13.5455 8.81682 14.0234 7.98558C13.5466 7.15815 12.7488 6.41856 11.7537 5.85057C11.7478 5.84721 11.7419 5.84385 11.736 5.84051Z" fill="white"/>
<path d="M7.63385 5.61983C6.50768 5.83571 5.65757 6.81268 5.65757 7.98526C5.65757 8.05888 5.66092 8.13174 5.66748 8.20368L7.63385 5.61983Z" fill="white"/>
<path d="M8.27425 10.3894L10.4944 7.47197C10.5309 7.63737 10.55 7.80911 10.55 7.98526C10.55 9.25974 9.54575 10.3031 8.27425 10.3894Z" fill="white"/>
<path fill-rule="evenodd" clip-rule="evenodd" d="M12.9929 1.44168C12.6808 1.21431 12.3182 1.17511 12.1829 1.35412L2.68726 13.8225C2.55197 14.0016 2.69541 14.3309 3.00749 14.5583C3.31957 14.7856 3.68219 14.8249 3.81746 14.6459L13.3131 2.17749C13.4483 1.99848 13.305 1.66904 12.9929 1.44168Z" fill="white"/>
</svg>
