<svg width="16" height="16" viewBox="0 0 16 16" fill="none" xmlns="http://www.w3.org/2000/svg">
<path d="M4.79357 2.26985C4.92641 2.1038 5.12753 2.00714 5.34018 2.00714H10.6601C10.8728 2.00714 11.0739 2.1038 11.2067 2.26985L13.8396 5.56092C13.9389 5.68504 13.993 5.83926 13.993 5.99821V10.0017C13.993 10.1607 13.9389 10.3149 13.8396 10.439L11.2067 13.7301C11.0739 13.8961 10.8728 13.9928 10.6601 13.9928H5.34018C5.12753 13.9928 4.92641 13.8961 4.79357 13.7301L2.16072 10.439C2.06142 10.3149 2.00732 10.1607 2.00732 10.0017V5.99821C2.00732 5.83926 2.06142 5.68504 2.16072 5.56092L4.79357 2.26985Z" fill="#F5F5F5"/>
<path d="M5.02382 2.73024C5.15667 2.56419 5.35778 2.46753 5.57043 2.46753H10.43C10.6427 2.46753 10.8438 2.56419 10.9766 2.73024L13.3793 5.73357C13.4786 5.85769 13.5327 6.0119 13.5327 6.17085V9.82909C13.5327 9.98804 13.4786 10.1423 13.3793 10.2664L10.9766 13.2697C10.8438 13.4358 10.6427 13.5324 10.43 13.5324H5.57043C5.35778 13.5324 5.15667 13.4358 5.02382 13.2697L2.62117 10.2664C2.52187 10.1423 2.46777 9.98804 2.46777 9.82909V6.17085C2.46777 6.0119 2.52187 5.85769 2.62117 5.73357L5.02382 2.73024Z" fill="#47CB44"/>
<path fill-rule="evenodd" clip-rule="evenodd" d="M10.43 3.16753H5.57043L3.16777 6.17085V9.82909L5.57043 12.8324H10.43L12.8327 9.82909V6.17085L10.43 3.16753ZM5.57043 2.46753C5.35778 2.46753 5.15667 2.56419 5.02382 2.73024L2.62117 5.73357C2.52187 5.85769 2.46777 6.0119 2.46777 6.17085V9.82909C2.46777 9.98804 2.52187 10.1423 2.62117 10.2664L5.02382 13.2697C5.15667 13.4358 5.35778 13.5324 5.57043 13.5324H10.43C10.6427 13.5324 10.8438 13.4358 10.9766 13.2697L13.3793 10.2664C13.4786 10.1423 13.5327 9.98804 13.5327 9.82909V6.17085C13.5327 6.0119 13.4786 5.85769 13.3793 5.73357L10.9766 2.73024C10.8438 2.56419 10.6427 2.46753 10.43 2.46753H5.57043Z" fill="#3BA239"/>
<path fill-rule="evenodd" clip-rule="evenodd" d="M10.0115 4.00444H5.98889L4.00469 6.48469L4.00469 9.51525L5.98889 11.9955H10.0115L11.9957 9.51525V6.48469L10.0115 4.00444ZM5.98889 3.30444C5.77624 3.30444 5.57512 3.40111 5.44228 3.56716L3.45808 6.04741C3.35878 6.17153 3.30469 6.32574 3.30469 6.48469V9.51525C3.30469 9.6742 3.35878 9.82841 3.45808 9.95253L5.44228 12.4328C5.57512 12.5988 5.77624 12.6955 5.98889 12.6955H10.0115C10.2242 12.6955 10.4253 12.5988 10.5581 12.4328L12.5423 9.95253C12.6416 9.82841 12.6957 9.6742 12.6957 9.51524V6.48469C12.6957 6.32574 12.6416 6.17153 12.5423 6.04741L10.5581 3.56716C10.4253 3.40111 10.2242 3.30444 10.0115 3.30444H5.98889Z" fill="#3CB63A"/>
</svg>
