<svg width="16" height="16" viewBox="0 0 16 16" fill="none" xmlns="http://www.w3.org/2000/svg">
<path d="M10.1065 2.91033C10.1087 2.91241 10.11 2.91535 10.11 2.91841V10.3196C10.11 10.8719 9.66226 11.3196 9.10998 11.3196H2.22998C1.6777 11.3196 1.22998 10.8719 1.22998 10.3196V1.69958C1.22998 1.1473 1.6777 0.699585 2.22998 0.699585H7.34532C7.59875 0.699585 7.84273 0.795809 8.02793 0.968804L10.1065 2.91033V2.91033Z" fill="#FC7B24"/>
<path d="M2.06836 2.52021C2.06836 2.04579 2.45295 1.66119 2.92737 1.66119L7.47034 1.6612C7.74647 1.6612 7.9417 1.93137 7.85502 2.19354V2.19354C7.75695 2.49018 8.01735 2.78151 8.3231 2.71721L8.59205 2.66064C8.94213 2.58701 9.27127 2.85413 9.27127 3.21187V9.499C9.27127 9.97342 8.88668 10.358 8.41226 10.358H2.92737C2.45295 10.358 2.06836 9.97342 2.06836 9.499V2.52021Z" fill="#F7B78D"/>
<path d="M9.91873 2.73722C9.98504 2.79916 9.94121 2.9103 9.85047 2.9103H7.8373C7.78208 2.9103 7.7373 2.86553 7.7373 2.8103V0.929849C7.7373 0.842392 7.84165 0.797072 7.90557 0.856771L9.91873 2.73722Z" fill="#FC7B24"/>
<path d="M9.91873 2.73722C9.98504 2.79916 9.94121 2.9103 9.85047 2.9103H7.8373C7.78208 2.9103 7.7373 2.86553 7.7373 2.8103V0.929849C7.7373 0.842392 7.84165 0.797072 7.90557 0.856771L9.91873 2.73722Z" fill="#FC7B24"/>
<path d="M9.91873 2.73722C9.98504 2.79916 9.94121 2.9103 9.85047 2.9103H7.8373C7.78208 2.9103 7.7373 2.86553 7.7373 2.8103V0.929849C7.7373 0.842392 7.84165 0.797072 7.90557 0.856771L9.91873 2.73722Z" fill="white" fill-opacity="0.7"/>
<g filter="url(#filter0_f_312_2723)">
<path d="M4.91064 4.86093C4.91064 4.40264 5.28216 4.03113 5.74045 4.03113H10.6599C11.1182 4.03113 11.4897 4.40264 11.4897 4.86093V10.6337C11.4897 11.092 11.1182 11.4635 10.6599 11.4635H5.74045C5.28216 11.4635 4.91064 11.092 4.91064 10.6337V4.86093Z" fill="#AF590A" fill-opacity="0.35"/>
</g>
<path d="M14.7192 6.78958C14.7214 6.79167 14.7227 6.7946 14.7227 6.79767V14.1988C14.7227 14.7511 14.275 15.1988 13.7227 15.1988H6.83789C6.28561 15.1988 5.83789 14.7511 5.83789 14.1988V5.57886C5.83789 5.02657 6.28561 4.57886 6.83789 4.57886H11.9569C12.2103 4.57886 12.4542 4.67501 12.6393 4.84789L14.7192 6.78958V6.78958Z" fill="#FC7B24"/>
<path d="M6.67676 6.39948C6.67676 5.92506 7.06135 5.54047 7.53577 5.54047L12.0819 5.54047C12.3581 5.54047 12.5533 5.81067 12.4666 6.07284V6.07284C12.3684 6.36946 12.6288 6.66082 12.9345 6.59655L13.2041 6.53989C13.5543 6.46627 13.8836 6.73352 13.8836 7.09143V13.3782C13.8836 13.8526 13.499 14.2372 13.0246 14.2372H7.53577C7.06135 14.2372 6.67676 13.8526 6.67676 13.3782V6.39948Z" fill="#F7B78D"/>
<path d="M14.5312 6.61642C14.5976 6.67835 14.5537 6.78952 14.463 6.78952H12.4486C12.3934 6.78952 12.3486 6.74475 12.3486 6.68952V4.809C12.3486 4.72156 12.453 4.67623 12.5169 4.7359L14.5312 6.61642Z" fill="#FC7B24"/>
<path d="M14.5312 6.61642C14.5976 6.67835 14.5537 6.78952 14.463 6.78952H12.4486C12.3934 6.78952 12.3486 6.74475 12.3486 6.68952V4.809C12.3486 4.72156 12.453 4.67623 12.5169 4.7359L14.5312 6.61642Z" fill="#FC7B24"/>
<path d="M14.5312 6.61642C14.5976 6.67835 14.5537 6.78952 14.463 6.78952H12.4486C12.3934 6.78952 12.3486 6.74475 12.3486 6.68952V4.809C12.3486 4.72156 12.453 4.67623 12.5169 4.7359L14.5312 6.61642Z" fill="white" fill-opacity="0.7"/>
<defs>
<filter id="filter0_f_312_2723" x="4.08084" y="3.20133" width="8.23871" height="9.09198" filterUnits="userSpaceOnUse" color-interpolation-filters="sRGB">
<feFlood flood-opacity="0" result="BackgroundImageFix"/>
<feBlend mode="normal" in="SourceGraphic" in2="BackgroundImageFix" result="shape"/>
<feGaussianBlur stdDeviation="0.414901" result="effect1_foregroundBlur_312_2723"/>
</filter>
</defs>
</svg>
