<svg width="16" height="16" viewBox="0 0 16 16" fill="none" xmlns="http://www.w3.org/2000/svg">
<path fill-rule="evenodd" clip-rule="evenodd" d="M5.1937 3.53579C4.64314 2.98523 3.7505 2.98523 3.19994 3.53579C2.64938 4.08635 2.64938 4.97899 3.19994 5.52954L6.00669 8.3363L2.96028 11.3827C2.40972 11.9333 2.40972 12.8259 2.96028 13.3765C3.51084 13.927 4.40348 13.927 4.95403 13.3765L8.00045 10.3301L11.0456 13.3752C11.5961 13.9258 12.4888 13.9258 13.0393 13.3752C13.5899 12.8246 13.5899 11.932 13.0393 11.3815L9.99423 8.3363L12.7996 5.53082C13.3502 4.98027 13.3502 4.08763 12.7996 3.53707C12.2492 2.98651 11.3565 2.98651 10.8059 3.53707L8.00045 6.34255L5.1937 3.53579Z" fill="white"/>
</svg>
