<svg width="16" height="16" viewBox="0 0 16 16" fill="none" xmlns="http://www.w3.org/2000/svg">
<g clip-path="url(#clip0_491_2873)">
<path fill-rule="evenodd" clip-rule="evenodd" d="M3.02897 8.06567C1.77107 9.11129 1.59898 10.9787 2.64461 12.2366C3.69023 13.4945 5.55763 13.6666 6.81553 12.621L7.94191 11.6847C8.23921 11.4375 8.68056 11.4782 8.92768 11.7755C9.17481 12.0728 9.13414 12.5141 8.83684 12.7613L7.71046 13.6976C5.85796 15.2375 3.10787 14.984 1.56799 13.1315C0.0281108 11.279 0.28154 8.52893 2.13404 6.98905L3.26042 6.05275C3.55772 5.80562 3.99907 5.8463 4.2462 6.14359C4.49332 6.44089 4.45265 6.88224 4.15535 7.12937L3.02897 8.06567ZM6.54872 4.22963C6.30159 3.93233 6.34227 3.49099 6.63956 3.24386L7.76594 2.30756C9.61844 0.767689 12.3685 1.02111 13.9084 2.87361C15.4483 4.7261 15.1949 7.4762 13.3424 9.01608L12.216 9.95238C11.9187 10.1995 11.4773 10.1588 11.2302 9.86153C10.9831 9.56423 11.0238 9.12289 11.3211 8.87576L12.4474 7.93946C13.7053 6.89385 13.8774 5.02644 12.8318 3.76854C11.7862 2.51064 9.91877 2.33856 8.66087 3.38418L7.53449 4.32047C7.2372 4.5676 6.79585 4.52693 6.54872 4.22963ZM4.38395 10.7908C4.13682 10.4935 4.17749 10.0521 4.47479 9.805L10.1067 5.12351C10.404 4.87638 10.8453 4.91706 11.0925 5.21436C11.3396 5.51165 11.2989 5.953 11.0016 6.20013L5.36972 10.8816C5.07242 11.1287 4.63107 11.0881 4.38395 10.7908Z" fill="white"/>
</g>
<defs>
<clipPath id="clip0_491_2873">
<rect width="16" height="16" fill="white"/>
</clipPath>
</defs>
</svg>
