<svg width="16" height="16" viewBox="0 0 16 16" fill="none" xmlns="http://www.w3.org/2000/svg">
<g clip-path="url(#clip0_465_13969)">
<path fill-rule="evenodd" clip-rule="evenodd" d="M8.78581 8.99792C9.24404 9.86669 10.0978 10.5212 11.1278 10.757L11.1278 13.1834C11.1278 13.6214 11.5085 13.9766 11.978 13.9766C12.4476 13.9766 12.8282 13.6214 12.8282 13.1834L12.8282 10.7572C14.3817 10.4017 15.5342 9.09403 15.5342 7.53522V5.54485L14.004 5.54485V3.30694C14.004 3.02743 13.7611 2.80084 13.4615 2.80084C13.1619 2.80084 12.919 3.02743 12.919 3.30694V5.54485H11.0377L11.0377 3.30728C11.0377 3.02777 10.7949 2.80118 10.4952 2.80118C10.3642 2.80118 10.2439 2.84455 10.1502 2.91674L10.15 5.35186C10.15 5.70178 10.1198 6.0436 10.0612 6.37417L14.6452 6.37417L14.6452 7.53522C14.6452 8.90929 13.4512 10.0232 11.9783 10.0232C10.7415 10.0232 9.70142 9.23787 9.39967 8.17262C9.22316 8.46955 9.01774 8.74599 8.78581 8.99792ZM8.44671 7.92544C8.9483 7.24997 9.26878 6.42885 9.3459 5.54485L8.42236 5.54485V7.53523C8.42236 7.66724 8.43063 7.79746 8.44671 7.92544Z" fill="#A3A1A1"/>
<path fill-rule="evenodd" clip-rule="evenodd" d="M9.38574 3.43171L7.5812 3.43171L7.5812 0.63336C7.5812 0.2838 7.2948 0.00042523 6.9415 0.000425215C6.58821 0.0004252 6.30181 0.2838 6.30181 0.63336L6.30181 3.43171L4.08349 3.43171L4.08349 0.632935C4.08349 0.283375 3.79709 -2.44288e-07 3.4438 -2.5973e-07C3.09051 -2.75173e-07 2.80411 0.283375 2.80411 0.632935L2.80411 3.43171L0.999805 3.43171L0.999805 5.92091C0.999805 7.87038 2.35878 9.50579 4.19052 9.95032L4.19052 12.9846C4.19052 13.5325 4.63937 13.9766 5.19306 13.9766C5.74674 13.9766 6.19559 13.5325 6.19559 12.9846L6.19559 9.95018C8.02705 9.50546 9.38574 7.87018 9.38574 5.92091L9.38574 3.43171ZM8.3375 5.92091L8.3375 4.46888L2.04805 4.46888L2.04805 5.92091C2.04805 7.63935 3.45599 9.03242 5.19277 9.03242C6.92956 9.03242 8.3375 7.63935 8.3375 5.92091Z" fill="white"/>
</g>
<defs>
<clipPath id="clip0_465_13969">
<rect width="16" height="16" fill="white"/>
</clipPath>
</defs>
</svg>
