<svg width="16" height="16" viewBox="0 0 16 16" fill="none" xmlns="http://www.w3.org/2000/svg">
<path d="M8.84673 4.91596C8.44903 4.60295 8.38038 4.0268 8.6934 3.62909L10.4587 1.38622C10.6706 1.11695 11.0032 0.998524 11.3193 1.04727C11.5484 1.0433 11.7793 1.12473 11.9601 1.29335L14.1181 3.30595C14.4882 3.65113 14.5084 4.231 14.1633 4.60113C13.8181 4.97126 13.2382 4.99148 12.8681 4.64629L12.3275 4.14216L12.3275 12.9158C12.3275 13.4219 11.9172 13.8322 11.4111 13.8322C10.905 13.8322 10.4947 13.4219 10.4947 12.9158L10.4947 4.30378L10.1336 4.76262C9.82059 5.16032 9.24444 5.22898 8.84673 4.91596Z" fill="white"/>
<path d="M10.3035 4.54665L8.96044 3.28971L9.50967 2.59188L12.3274 5.22894L12.3274 12.9158C12.3274 13.2898 12.1033 13.6115 11.7821 13.754L11.7821 6.18144L10.4947 6.18144V5.32453H11.1347L10.4947 4.72554V4.30379L10.3035 4.54665Z" fill="white"/>
<path d="M9.29465 10.0351V11.0454H3.26807V10.0351H9.29465Z" fill="white"/>
<path d="M9.29465 8V9.01033H3.27148V8H9.29465Z" fill="white"/>
<path d="M7.16128 2.78645V1.85691H3.01452C2.4077 1.85691 1.91577 2.31729 1.91577 2.8852L1.91576 13.8165H9.49532C9.65921 14.1645 9.91512 14.4606 10.2317 14.6734H1.45781C1.33637 14.6734 1.2199 14.6282 1.13404 14.5479C1.04818 14.4675 0.999965 14.3585 1 14.2448L1.00015 2.8852C1.00015 1.84403 1.90201 1 3.01452 1H7.61909C7.74051 1 7.85696 1.04514 7.94281 1.12549L8.45737 1.60705L7.16128 2.78645Z" fill="white"/>
<path d="M11.2412 13.8165H11.5809C11.5258 13.8268 11.4691 13.8322 11.411 13.8322C11.353 13.8322 11.2962 13.8268 11.2412 13.8165Z" fill="white"/>
<path d="M6.27295 6.26689H3.26807V7.27722H6.27295V6.26689Z" fill="white"/>
</svg>
