<svg width="16" height="16" viewBox="0 0 16 16" fill="none" xmlns="http://www.w3.org/2000/svg">
<path fill-rule="evenodd" clip-rule="evenodd" d="M8.52577 2.8569C11.1693 2.8569 13.2811 4.91891 13.2811 7.42461C13.2811 9.93032 11.1693 11.9923 8.52577 11.9923C7.84432 11.9923 7.19787 11.8549 6.61371 11.6082L6.45005 11.539L2.97133 12.5513L4.69928 10.1583L4.50863 9.86997C4.04061 9.16228 3.77046 8.32399 3.77046 7.42461C3.77046 4.91891 5.8822 2.8569 8.52577 2.8569ZM14.2811 7.42461C14.2811 4.33267 11.6871 1.8569 8.52577 1.8569C5.36449 1.8569 2.77046 4.33267 2.77046 7.42461C2.77046 8.40401 3.03223 9.32463 3.49079 10.1237L1.82265 12.4339C1.60783 12.7314 1.6295 13.0946 1.79742 13.3528C1.96741 13.6142 2.3037 13.787 2.67487 13.679L6.39255 12.5972C7.05308 12.8524 7.77321 12.9923 8.52577 12.9923C11.6871 12.9923 14.2811 10.5166 14.2811 7.42461Z" fill="white"/>
</svg>
