<svg width="16" height="16" viewBox="0 0 16 16" fill="none" xmlns="http://www.w3.org/2000/svg">
<path fill-rule="evenodd" clip-rule="evenodd" d="M1.54104 1.00833C0.838425 1.00833 0.500196 1.47618 0.500144 2.15601L0.5 2.17518V14.0083C0.5 14.6882 1.02935 14.9726 1.73199 14.9726L14.1873 14.9916C14.89 14.9916 15.4999 14.3689 15.4999 13.689L15.5 2.17519C15.5001 1.49529 15.2549 1.00834 14.5522 1.00834L1.54104 1.00833ZM1.54089 4.11071L14.5521 4.11072V14.0916L1.54089 14.0916L1.54089 4.11071ZM12.2991 2.50428C12.2991 2.01443 12.7095 1.61733 13.2157 1.61733H13.2666C13.7729 1.61733 14.1833 2.01443 14.1833 2.50428C14.1833 2.99412 13.7729 3.39122 13.2666 3.39122H13.2157C12.7095 3.39122 12.2991 2.99412 12.2991 2.50428ZM10.5032 1.61733C9.99695 1.61733 9.58654 2.01443 9.58654 2.50428C9.58654 2.99412 9.99695 3.39122 10.5032 3.39122H10.5541C11.0604 3.39122 11.4708 2.99412 11.4708 2.50428C11.4708 2.01443 11.0604 1.61733 10.5541 1.61733H10.5032Z" fill="white"/>
<path d="M3.5 6.40833C3.5 6.18741 3.56888 6.00833 3.65385 6.00833H8.34615C8.43112 6.00833 8.5 6.18741 8.5 6.40833V6.60833C8.5 6.82924 8.43112 7.00833 8.34615 7.00833H3.65385C3.56888 7.00833 3.5 6.82924 3.5 6.60833V6.40833Z" fill="white"/>
<path d="M9.5 6.40833C9.5 6.18741 9.54133 6.00833 9.59231 6.00833H12.4077C12.4587 6.00833 12.5 6.18741 12.5 6.40833V6.60833C12.5 6.82924 12.4587 7.00833 12.4077 7.00833H9.59231C9.54133 7.00833 9.5 6.82924 9.5 6.60833V6.40833Z" fill="white"/>
<path d="M3.5 8.40836C3.5 8.18744 3.62399 8.00836 3.77692 8.00836H12.2231C12.376 8.00836 12.5 8.18744 12.5 8.40836V8.60836C12.5 8.82927 12.376 9.00836 12.2231 9.00836H3.77692C3.62399 9.00836 3.5 8.82927 3.5 8.60836V8.40836Z" fill="white"/>
<path d="M3.5 10.4084C3.5 10.1874 3.54133 10.0084 3.59231 10.0084H6.40769C6.45867 10.0084 6.5 10.1874 6.5 10.4084V10.6084C6.5 10.8293 6.45867 11.0084 6.40769 11.0084H3.59231C3.54133 11.0084 3.5 10.8293 3.5 10.6084V10.4084Z" fill="white"/>
<path d="M7.5 10.4084C7.5 10.1874 7.56888 10.0084 7.65385 10.0084H12.3462C12.4311 10.0084 12.5 10.1874 12.5 10.4084V10.6084C12.5 10.8293 12.4311 11.0084 12.3462 11.0084H7.65385C7.56888 11.0084 7.5 10.8293 7.5 10.6084V10.4084Z" fill="white"/>
<path d="M3.5 12.4084C3.5 12.1874 3.62399 12.0084 3.77692 12.0084H12.2231C12.376 12.0084 12.5 12.1874 12.5 12.4084V12.6084C12.5 12.8293 12.376 13.0084 12.2231 13.0084H3.77692C3.62399 13.0084 3.5 12.8293 3.5 12.6084V12.4084Z" fill="white"/>
</svg>
