<svg width="16" height="16" viewBox="0 0 16 16" fill="none" xmlns="http://www.w3.org/2000/svg">
<g clip-path="url(#clip0_312_2035)">
<path d="M12.5406 12.7744C12.2398 13.0753 11.7521 13.0753 11.4513 12.7744L3.22548 4.54864C2.92467 4.24782 2.92467 3.76011 3.22548 3.4593C3.52629 3.15848 4.01401 3.15848 4.31482 3.4593L12.5406 11.6851C12.8414 11.9859 12.8414 12.4736 12.5406 12.7744Z" fill="#554646"/>
<path d="M12.7743 3.22564C13.0751 3.52645 13.0751 4.01417 12.7743 4.31498L4.54846 12.5408C4.24765 12.8416 3.75993 12.8416 3.45912 12.5408C3.15831 12.24 3.15831 11.7523 3.45912 11.4514L11.6849 3.22564C11.9857 2.92483 12.4734 2.92483 12.7743 3.22564Z" fill="#554646"/>
</g>
<defs>
<clipPath id="clip0_312_2035">
<rect width="16" height="16" fill="white"/>
</clipPath>
</defs>
</svg>
