<svg width="16" height="16" viewBox="0 0 16 16" fill="none" xmlns="http://www.w3.org/2000/svg">
<path d="M6.36286 9.30075C5.92153 9.8066 5.16756 9.84634 4.67884 9.38955L2.3932 6.95072C1.90448 6.49393 1.86609 5.71348 2.30751 5.20773C2.31994 5.19346 2.33257 5.17952 2.34553 5.166L2.35342 5.15657L4.68593 2.42323C5.1171 1.91009 5.8687 1.856 6.36437 2.30239C6.86014 2.74878 6.91243 3.52663 6.4811 4.03976L6.05627 4.5343H10.4229C11.6383 4.5343 12.803 5.03407 13.661 5.92216C14.5189 6.8101 15 8.01342 15 9.26715C15 10.5209 14.5189 11.7242 13.661 12.6121C12.803 13.5002 11.6383 14 10.4229 14H7.9865C7.3425 14 6.82043 13.4617 6.82043 12.7977C6.82043 12.1337 7.3425 11.5954 7.9865 11.5954H10.4229C11.0169 11.5954 11.5874 11.3513 12.0087 10.9151C12.4302 10.4789 12.6678 9.88614 12.6678 9.26715C12.6678 8.64815 12.4302 8.05544 12.0087 7.61916C11.5874 7.18304 11.0169 6.93887 10.4229 6.93887H5.73791L6.2771 7.55776C6.7658 8.01455 6.80421 8.79489 6.36286 9.30075Z" fill="#FFFFFF"/>
</svg>
