<svg width="16" height="16" viewBox="0 0 16 16" fill="none" xmlns="http://www.w3.org/2000/svg">
    <g transform="rotate(-150 8 8)">
        <path d="M12.384 3.43565C12.7418 3.09406 12.7442 2.51757 12.3416 2.23009C11.6666 1.7481 10.897 1.39497 10.0748 1.1936C8.95235 0.918719 7.7732 0.936764 6.66059 1.24585C5.54798 1.55494 4.54279 2.14371 3.75011 2.95062C2.95742 3.75752 2.40637 4.75292 2.15456 5.83273C1.90275 6.91255 1.95944 8.03711 2.31869 9.08885C2.67794 10.1406 3.32656 11.0809 4.19674 11.8114C5.06691 12.5419 6.12668 13.0358 7.26524 13.2415C8.1142 13.3948 8.98372 13.3837 9.82284 13.2121C10.2936 13.1158 10.5281 12.609 10.3577 12.1597V12.1597C10.1944 11.7289 9.71813 11.5141 9.26346 11.5888C8.71326 11.6792 8.14832 11.6755 7.59541 11.5756C6.76948 11.4264 6.00071 11.0681 5.36947 10.5382C4.73823 10.0082 4.26771 9.32615 4.00711 8.56321C3.7465 7.80026 3.70538 6.98448 3.88805 6.20117C4.07071 5.41786 4.47046 4.69579 5.04548 4.11045C5.6205 3.52511 6.34968 3.098 7.15679 2.87378C7.96389 2.64957 8.81926 2.63648 9.63348 2.83588C10.1741 2.96829 10.6834 3.19114 11.1386 3.49208C11.5251 3.74756 12.0489 3.75556 12.384 3.43565V3.43565Z" fill="#E23B3A"/>
        <path d="M13.6195 11.4762C13.7865 11.2825 13.7008 10.9738 13.4481 10.8593L8.23804 8.49757C7.92602 8.35613 7.60683 8.60717 7.69501 8.92465L9.46042 15.2809C9.5486 15.5984 9.96851 15.71 10.1748 15.4707L13.6195 11.4762Z" fill="#E23B3A"/>
    </g>
</svg>
