<svg width="17" height="17" viewBox="0 0 17 17" fill="none" xmlns="http://www.w3.org/2000/svg">
<g clip-path="url(#clip0_629_3355)">
<path fill-rule="evenodd" clip-rule="evenodd" d="M14.2196 5.56467C14.2414 7.3266 12.8307 8.7658 11.0687 8.77921C9.8878 8.7882 8.84881 8.15449 8.28537 7.20513L7.32673 7.21242L7.28727 4.02216L8.24584 4.01486C8.78567 3.05704 9.80882 2.40766 10.9898 2.39868C12.7518 2.38527 14.1978 3.80257 14.2196 5.56467ZM13.1562 5.57276C13.1489 4.98522 12.6669 4.51296 12.0795 4.51743C11.4922 4.5219 11.022 5.0014 11.0292 5.58894C11.0365 6.17627 11.5185 6.64874 12.1059 6.64427C12.6932 6.6398 13.1634 6.16009 13.1562 5.57276Z" fill="white"/>
<path d="M2.53415 6.71736L7.31978 6.68094L7.29347 4.5541L5.69826 4.56624L5.1731 5.102L4.63478 4.57433L4.10305 4.57838L3.58447 5.64585L3.03957 4.58647L2.50784 4.59052L1.45752 5.66203L2.53415 6.71736Z" fill="white"/>
<path d="M14.1453 10.4722C13.9382 10.3845 13.6972 10.3333 13.4451 10.3333C13.1619 10.3333 12.8933 10.3975 12.6529 10.5125L12.6642 10.5076L9.82303 11.8004C9.82451 11.777 9.83581 11.7566 9.83581 11.7332C9.82893 11.0504 9.28067 10.4996 8.60553 10.4996C8.57161 10.4996 8.53866 10.5011 8.50522 10.5036L8.50965 10.5031H6.64948L4.3089 9.80883C4.27841 9.79938 4.24301 9.79389 4.20614 9.79389H3.13861V9.41639C3.13861 9.21021 2.9734 9.04287 2.76982 9.04287H0.860488C0.656916 9.04287 0.491699 9.21021 0.491699 9.41639V15.4963C0.491699 15.7025 0.656916 15.8699 0.860488 15.8699H2.76982C2.9734 15.8699 3.13861 15.7025 3.13861 15.4963V14.9963C4.03256 15.1377 4.83307 15.3659 5.5913 15.6766L5.51754 15.6497C6.08745 15.8568 6.74537 15.9764 7.43082 15.9764C8.22101 15.9764 8.97432 15.8175 9.66126 15.5292L9.62241 15.5436C10.2336 15.2682 10.7524 14.9778 11.2436 14.6476L11.2033 14.673C11.3695 14.569 11.5347 14.4649 11.7019 14.3648C12.5088 13.8812 13.1529 13.4589 13.7322 13.0345C14.0174 12.8289 14.2662 12.6252 14.5027 12.4085L14.4954 12.415C14.6773 12.2651 14.8228 12.0768 14.9206 11.8622L14.9246 11.8527C14.9403 11.8129 14.9492 11.7671 14.9492 11.7188C14.9492 11.6909 14.9462 11.6635 14.9403 11.6371L14.9408 11.6396C14.8686 11.1336 14.5691 10.7103 14.1526 10.4752L14.1453 10.4722ZM2.40153 15.1238H1.22976V9.7909H2.40153V15.1238ZM13.9756 11.8861C13.773 12.0704 13.5522 12.2497 13.3226 12.4155L13.2995 12.4314C12.7404 12.8408 12.1134 13.2517 11.3257 13.7243C11.1546 13.8264 10.9859 13.9325 10.8158 14.0386C10.3954 14.3244 9.91203 14.5969 9.40655 14.8284L9.34262 14.8543C8.77617 15.0899 8.11825 15.2268 7.42934 15.2268C6.83781 15.2268 6.26987 15.1263 5.7403 14.9405L5.77669 14.9515C5.01206 14.6268 4.12255 14.3787 3.19517 14.2492L3.13861 14.2427V10.5414H4.15205L6.49263 11.2357C6.52311 11.2451 6.55852 11.2506 6.59539 11.2506H8.50916C8.94335 11.2506 9.09775 11.5106 9.09775 11.7337C9.09775 11.9568 8.94335 12.2168 8.50916 12.2168H5.16106C4.95748 12.2168 4.79227 12.3841 4.79227 12.5903C4.79227 12.7965 4.95748 12.9638 5.16106 12.9638H8.98711C9.04169 12.9638 9.09332 12.9519 9.14004 12.9304L9.13757 12.9314L12.9705 11.1874C13.1116 11.1216 13.2769 11.0828 13.451 11.0828C13.5817 11.0828 13.7071 11.1042 13.8247 11.1445L13.8163 11.1421C14.0041 11.2561 14.1398 11.4429 14.185 11.6625L14.1861 11.6675C14.1197 11.7467 14.0504 11.8179 13.9761 11.8836L13.9736 11.8856L13.9756 11.8861Z" fill="white"/>
</g>
<defs>
<clipPath id="clip0_629_3355">
<rect width="16" height="16" fill="white" transform="translate(0.491699 0.398582)"/>
</clipPath>
</defs>
</svg>
