<svg width="16" height="16" viewBox="0 0 16 16" fill="none" xmlns="http://www.w3.org/2000/svg">
<path d="M10.5775 9.17005C11.9642 10.645 12.8376 10.2081 13.8587 11.3839C14.8797 12.5598 14.1964 13.2015 14.1964 13.2015C14.1964 13.2015 13.678 13.9806 12.3334 13.1873C10.9888 12.394 11.2709 11.4647 9.56589 10.3661L10.5775 9.17005Z" fill="#CD3D3C"/>
<path opacity="0.1" d="M13.1091 12.2701C11.7645 11.4767 12.0539 10.5536 10.349 9.45498L9.57325 10.3721C11.2782 11.4707 10.9888 12.3938 12.3334 13.1872C13.678 13.9805 14.1964 13.2014 14.1964 13.2014C14.1964 13.2014 14.4145 12.9966 14.4201 12.6063C14.1226 12.6627 13.6941 12.6152 13.1091 12.2701Z" fill="#302310"/>
<path d="M10.4256 8.23998C9.98967 7.87711 9.25054 8.03901 8.77469 8.6016C8.29885 9.16419 8.26648 9.91442 8.7024 10.2773C9.13832 10.6402 9.87745 10.4783 10.3533 9.91567C10.8291 9.35308 10.8615 8.60285 10.4256 8.23998Z" fill="#C7AEAE"/>
<path opacity="0.1" d="M9.284 9.58929C8.94162 9.30428 8.88828 8.78035 9.1116 8.29607C8.99085 8.37867 8.87659 8.48077 8.7745 8.60148C8.29867 9.16404 8.26633 9.91426 8.70225 10.2771C9.13818 10.64 9.8773 10.4781 10.3531 9.91555C10.4552 9.79484 10.5368 9.66546 10.5978 9.53317C10.1558 9.83543 9.62639 9.8743 9.284 9.58929Z" fill="black"/>
<path d="M6.65364 10.8754C9.07888 10.6632 10.8743 8.54057 10.6637 6.13432C10.4532 3.72806 8.31652 1.94941 5.89128 2.16159C3.46604 2.37377 1.67066 4.49643 1.88118 6.90269C2.0917 9.30895 4.22841 11.0876 6.65364 10.8754Z" fill="#F2AD48"/>
<path fill-rule="evenodd" clip-rule="evenodd" d="M10.9624 6.10818C11.1876 8.6817 9.26768 10.9479 6.6796 11.1743C4.09153 11.4007 1.80729 9.50237 1.58213 6.92884C1.35698 4.35532 3.27687 2.08916 5.86495 1.86274C8.45302 1.63631 10.7373 3.53465 10.9624 6.10818ZM10.6636 6.13432C10.8741 8.54058 9.07869 10.6632 6.65345 10.8754C4.22822 11.0876 2.09151 9.30895 1.88099 6.9027C1.67047 4.49644 3.46585 2.37378 5.89109 2.1616C8.31633 1.94941 10.453 3.72807 10.6636 6.13432Z" fill="#E7A443"/>
<path d="M6.54203 9.59927C8.25689 9.44924 9.52639 7.94833 9.37753 6.24689C9.22868 4.54545 7.71784 3.28779 6.00298 3.43782C4.28812 3.58785 3.01862 5.08876 3.16748 6.7902C3.31633 8.49164 4.82717 9.7493 6.54203 9.59927Z" fill="#EDE4E4"/>
<path opacity="0.1" d="M5.11696 8.81482C3.79908 7.71779 3.62843 5.76719 4.73578 4.45798C5.19056 3.92031 5.79021 3.57463 6.43026 3.42971C5.48967 3.38437 4.53893 3.76078 3.88632 4.5323C2.77896 5.84151 2.94967 7.7921 4.26749 8.88914C5.04411 9.53562 6.0458 9.74122 6.9642 9.53324C6.30876 9.50165 5.65821 9.26533 5.11696 8.81482Z" fill="#5C4545"/>
<path d="M4.43994 6.51857C4.43994 6.24121 4.66479 6.01636 4.94215 6.01636H7.60252C7.87989 6.01636 8.10474 6.24121 8.10474 6.51857V6.51857C8.10474 6.79593 7.87989 7.02078 7.60252 7.02078H4.94215C4.66479 7.02078 4.43994 6.79593 4.43994 6.51857V6.51857Z" fill="#E23B3A"/>
<path fill-rule="evenodd" clip-rule="evenodd" d="M7.60252 6.11636H4.94215C4.72002 6.11636 4.53994 6.29643 4.53994 6.51857C4.53994 6.74071 4.72002 6.92078 4.94215 6.92078H7.60252C7.82466 6.92078 8.00474 6.74071 8.00474 6.51857C8.00474 6.29643 7.82466 6.11636 7.60252 6.11636ZM4.94215 6.01636C4.66479 6.01636 4.43994 6.24121 4.43994 6.51857C4.43994 6.79593 4.66479 7.02078 4.94215 7.02078H7.60252C7.87989 7.02078 8.10474 6.79593 8.10474 6.51857C8.10474 6.24121 7.87989 6.01636 7.60252 6.01636H4.94215Z" fill="#8F2221"/>
</svg>
