<svg width="16" height="16" viewBox="0 0 16 16" fill="none" xmlns="http://www.w3.org/2000/svg">
<g clip-path="url(#clip0_492_3260)">
<path d="M14.6684 5.26884C15.3279 4.51714 15.253 3.3732 14.5013 2.71378C13.7496 2.05437 12.6057 2.12918 11.9463 2.88089L6.30383 9.31302L3.09456 6.10374C2.38663 5.39582 1.23886 5.39582 0.530942 6.10374C-0.176981 6.81166 -0.176981 7.95943 0.530942 8.66735L4.90611 13.0425C5.01949 13.1559 5.14414 13.2511 5.27647 13.3282C5.67285 13.6519 6.16855 13.7806 6.64319 13.722C6.57023 13.2595 6.65845 12.7695 6.92826 12.3426L10.5802 6.56444C11.1703 5.63072 12.4056 5.35218 13.3393 5.9423L13.8143 6.24251L14.6684 5.26884Z" fill="white"/>
<path d="M11.7048 7.39679C11.7472 7.30044 11.8185 7.2195 11.9187 7.15398C12.0228 7.08461 12.1287 7.04993 12.2367 7.04993C12.3407 7.04993 12.4448 7.08461 12.5488 7.15398C12.6567 7.2195 12.73 7.30044 12.7685 7.39679L15.9481 14.7734C15.9828 14.8504 16.0001 14.9294 16.0001 15.0104C16.0001 15.1684 15.9423 15.3052 15.8267 15.4208C15.7149 15.5326 15.58 15.5885 15.422 15.5885C15.3141 15.5885 15.2081 15.5538 15.104 15.4844C15 15.415 14.9268 15.3322 14.8844 15.2358L13.8958 12.9408L10.6006 12.8945L9.58896 15.2416C9.55042 15.338 9.47912 15.4208 9.37506 15.4902C9.271 15.5634 9.16502 15.6 9.0571 15.6C8.89909 15.6 8.76227 15.5442 8.64665 15.4324C8.53489 15.3168 8.479 15.18 8.479 15.0219C8.479 14.941 8.49635 14.862 8.53103 14.7849L11.7048 7.39679ZM12.2367 9.09062L11.0978 11.7441L13.3929 11.773L12.2367 9.09062Z" fill="white"/>
</g>
<defs>
<clipPath id="clip0_492_3260">
<rect width="16" height="16" fill="white"/>
</clipPath>
</defs>
</svg>
