<svg width="16" height="16" viewBox="0 0 16 16" fill="none" xmlns="http://www.w3.org/2000/svg">
<path fill-rule="evenodd" clip-rule="evenodd" d="M13.5425 14.2913C13.5364 14.2914 13.5302 14.2915 13.524 14.2915H2.09131C1.53902 14.2915 1.09131 13.8437 1.09131 13.2915V2.70854C1.09131 2.15626 1.53902 1.70854 2.09131 1.70854H5.95529C6.30449 1.70854 6.62839 1.8907 6.80979 2.18908L7.31068 3.01305C7.49208 3.31143 7.81598 3.49359 8.16518 3.49359H13.5241C14.0763 3.49359 14.5241 3.9413 14.5241 4.49359V6.70206L14.6074 6.70206C15.2549 6.70207 15.7316 7.30796 15.5794 7.93725L14.6305 13.5265C14.5219 13.9752 14.1203 14.2913 13.6586 14.2913L13.5425 14.2913ZM6.12619 2.60465L6.62709 3.42861C6.9536 3.96571 7.53663 4.29359 8.16518 4.29359H13.5241C13.6345 4.29359 13.7241 4.38313 13.7241 4.49359V6.70205L3.71457 6.70196C3.25287 6.70195 2.85119 7.01803 2.74261 7.46677L1.89131 10.985V2.70854C1.89131 2.59809 1.98085 2.50854 2.09131 2.50854H5.95529C6.02513 2.50854 6.08991 2.54497 6.12619 2.60465Z" fill="white"/>
</svg>
