<svg width="16" height="16" viewBox="0 0 16 16" fill="none" xmlns="http://www.w3.org/2000/svg">
<g clip-path="url(#clip0_413_4470)">
<rect x="4.29102" y="2.09106" width="10.9805" height="1.35455" rx="0.677277" fill="#CD3D3C"/>
<rect x="7.27148" y="7.15512" width="8" height="1.35455" rx="0.677277" fill="#CD3D3C"/>
<rect x="9.92627" y="12.9693" width="5.34521" height="1.35455" rx="0.677277" fill="#CD3D3C"/>
<path d="M1.08398 1.4985C1.01758 1.4985 0.958008 1.46921 0.905273 1.41061C0.852539 1.35007 0.826172 1.28854 0.826172 1.22604C0.826172 1.16354 0.842773 1.10104 0.875977 1.03854C0.911133 0.974091 0.964844 0.935028 1.03711 0.921356C1.11133 0.905731 1.1875 0.862762 1.26562 0.79245C1.3457 0.720184 1.42285 0.615692 1.49707 0.478973C1.55566 0.369598 1.63672 0.314911 1.74023 0.314911C1.82422 0.314911 1.89746 0.340302 1.95996 0.391083C2.02441 0.439911 2.05664 0.507294 2.05664 0.593231L2.05371 3.83347H2.40234C2.4707 3.83347 2.52734 3.86569 2.57227 3.93015C2.61719 3.99265 2.63965 4.05319 2.63965 4.11179C2.63965 4.18796 2.6123 4.25339 2.55762 4.30807C2.50293 4.36276 2.4375 4.39011 2.36133 4.39011H1.0957C1.01953 4.39011 0.954102 4.36276 0.899414 4.30807C0.844727 4.25339 0.817383 4.18796 0.817383 4.11179C0.817383 4.05319 0.839844 3.99265 0.884766 3.93015C0.929688 3.86569 0.986328 3.83347 1.05469 3.83347H1.46777V1.37546C1.41309 1.40671 1.35645 1.43503 1.29785 1.46042C1.23926 1.48581 1.16797 1.4985 1.08398 1.4985Z" fill="#CD3D3C"/>
<path d="M2.74756 10.1285C2.66748 10.1285 2.59814 10.1002 2.53955 10.0435C2.48291 9.98495 2.45459 9.91562 2.45459 9.83554C2.45459 9.73593 2.48486 9.63339 2.54541 9.52792C2.60596 9.4205 2.68115 9.31699 2.771 9.21738C2.86084 9.11581 2.95166 9.02304 3.04346 8.93906C3.13525 8.85507 3.2124 8.78574 3.2749 8.73105C3.39795 8.62363 3.53076 8.52402 3.67334 8.43222C3.81592 8.33847 3.95068 8.24081 4.07764 8.13925C4.20654 8.03574 4.31104 7.91855 4.39111 7.78769C4.47314 7.65488 4.51416 7.49765 4.51416 7.31601C4.51416 7.17343 4.48193 7.0455 4.41748 6.93222C4.35303 6.81894 4.26611 6.7291 4.15674 6.66269C4.04736 6.59433 3.92432 6.56015 3.7876 6.56015C3.61768 6.56015 3.47119 6.61386 3.34814 6.72128C3.22705 6.8287 3.15186 6.95078 3.12256 7.08749C3.10889 7.14999 3.07373 7.20468 3.01709 7.25156C2.9624 7.29843 2.90088 7.32187 2.83252 7.32187C2.75244 7.32187 2.68311 7.29355 2.62451 7.23691C2.56787 7.18027 2.53955 7.11288 2.53955 7.03476C2.53955 6.89023 2.57568 6.75449 2.64795 6.62753C2.72021 6.49863 2.81592 6.38535 2.93506 6.28769C3.05615 6.19003 3.19092 6.11386 3.33936 6.05917C3.48779 6.00253 3.63916 5.97421 3.79346 5.97421C4.04736 5.97421 4.27197 6.03378 4.46729 6.15292C4.66455 6.27011 4.81885 6.42929 4.93018 6.63046C5.04346 6.83163 5.1001 7.05624 5.1001 7.30429C5.1001 7.5621 5.05029 7.78378 4.95068 7.96933C4.85107 8.15488 4.7251 8.31699 4.57275 8.45566C4.42041 8.59238 4.26318 8.7164 4.10107 8.82773C3.93896 8.93906 3.79443 9.04941 3.66748 9.15878C3.52686 9.28378 3.40283 9.41171 3.29541 9.54257H5.00928C5.08936 9.54257 5.15771 9.57187 5.21436 9.63046C5.27295 9.6871 5.30225 9.75546 5.30225 9.83554C5.30225 9.91562 5.27295 9.98495 5.21436 10.0435C5.15771 10.1002 5.08936 10.1285 5.00928 10.1285H2.74756Z" fill="#CD3D3C"/>
<path d="M8.24902 12.7108C8.24902 12.5643 8.1875 12.4364 8.06445 12.327C7.94336 12.2177 7.7998 12.163 7.63379 12.163C7.50293 12.163 7.38281 12.1991 7.27344 12.2714C7.16406 12.3436 7.09375 12.4208 7.0625 12.5028C7.03516 12.5751 6.99707 12.6327 6.94824 12.6757C6.89941 12.7186 6.83008 12.7401 6.74023 12.7401C6.67578 12.7401 6.61523 12.7128 6.55859 12.6581C6.50195 12.6014 6.47363 12.5419 6.47363 12.4794C6.47363 12.452 6.47559 12.4286 6.47949 12.4091C6.48535 12.3876 6.49023 12.37 6.49414 12.3563C6.57422 12.1454 6.71289 11.9637 6.91016 11.8114C7.10938 11.6571 7.35059 11.58 7.63379 11.58C7.85059 11.58 8.0498 11.6298 8.23145 11.7294C8.41504 11.829 8.56152 11.9657 8.6709 12.1395C8.78223 12.3134 8.83789 12.5116 8.83789 12.7343C8.83789 12.9042 8.80176 13.0555 8.72949 13.1884C8.65918 13.3212 8.57715 13.4335 8.4834 13.5253C8.62012 13.619 8.72852 13.7382 8.80859 13.8827C8.88867 14.0272 8.92871 14.1942 8.92871 14.3837C8.92871 14.6317 8.86523 14.8524 8.73828 15.0458C8.61133 15.2372 8.44434 15.3876 8.2373 15.4969C8.03027 15.6063 7.80566 15.661 7.56348 15.661C7.30176 15.661 7.06836 15.5985 6.86328 15.4735C6.6582 15.3485 6.49609 15.204 6.37695 15.0399C6.33984 14.9872 6.32129 14.9296 6.32129 14.8671C6.32129 14.787 6.35254 14.7225 6.41504 14.6737C6.47949 14.6249 6.55078 14.6005 6.62891 14.6005C6.7207 14.6005 6.7959 14.6395 6.85449 14.7177C6.92285 14.8055 7.01855 14.8866 7.1416 14.9608C7.26465 15.035 7.39941 15.0721 7.5459 15.0721C7.69043 15.0721 7.82227 15.0419 7.94141 14.9813C8.0625 14.9208 8.15918 14.8397 8.23145 14.7382C8.30566 14.6346 8.34277 14.5204 8.34277 14.3954C8.34277 14.1981 8.27637 14.0634 8.14355 13.9911C8.01074 13.9169 7.82227 13.8788 7.57812 13.8768C7.50195 13.8768 7.43555 13.8495 7.37891 13.7948C7.32422 13.7401 7.29688 13.6708 7.29688 13.5868C7.29688 13.4794 7.33301 13.4012 7.40527 13.3524C7.47754 13.3016 7.55176 13.2762 7.62793 13.2762C7.80762 13.2762 7.95605 13.2313 8.07324 13.1415C8.19043 13.0497 8.24902 12.9061 8.24902 12.7108Z" fill="#CD3D3C"/>
</g>
<defs>
<clipPath id="clip0_413_4470">
<rect width="16" height="16" fill="white"/>
</clipPath>
</defs>
</svg>
