<svg width="16" height="16" viewBox="0 0 16 16" fill="none" xmlns="http://www.w3.org/2000/svg">
<g clip-path="url(#clip0_618_1212)">
<path fill-rule="evenodd" clip-rule="evenodd" d="M6.43433 0H5.31177V1.09074C2.33368 1.19374 0.00299328 2.11987 0.00205221 3.24734C0.00218192 3.27294 0.0035151 3.29852 0.00604673 3.32398C0.000332895 5.53444 -0.00133149 7.74491 0.00105358 9.95538L0.00704536 12.2024V12.2577L0.0220248 12.311C0.414766 13.6948 2.35395 14.7643 5.31177 14.9035V16H6.43433V14.914L6.4375 14.9139V14.0257L6.43433 14.0258V11.9537L6.4375 11.9535V11.0169L6.43433 11.0171V8.90739L6.4375 8.90723V7.96986L6.43433 7.97006V5.40471L6.4375 5.4046V4.52789L6.43433 4.52802V1.96796L6.4375 1.96809V1.09142L6.43433 1.09131V0ZM5.31177 1.96601C4.14283 2.01224 3.07011 2.2036 2.26495 2.50011C1.84053 2.65764 1.51398 2.83647 1.31026 3.01423C1.17045 3.13557 1.12651 3.21434 1.12651 3.24734C1.12651 3.27927 1.17045 3.3591 1.31026 3.48151C1.51398 3.65821 1.83953 3.83703 2.26495 3.99457C3.07011 4.292 4.14283 4.48268 5.31177 4.52872V1.96601ZM5.31177 5.40392C3.40202 5.33774 1.75849 4.93254 0.824923 4.35435C0.823582 5.03842 0.822584 5.72249 0.821927 6.40657V6.40763C1.34122 6.98881 2.7343 7.69772 4.43697 7.90848C4.73074 7.94498 5.02268 7.96915 5.31177 7.9815V5.40392ZM5.31177 8.90888C4.99534 8.89471 4.67694 8.8679 4.35808 8.82815C2.85114 8.64187 1.5689 8.15756 0.821927 7.57851V9.45297C1.34022 10.0352 2.7343 10.7441 4.43697 10.9559C4.73075 10.9924 5.02269 11.0165 5.31177 11.0288V8.90888ZM5.31177 11.9558C4.99533 11.9418 4.67693 11.9152 4.35808 11.8756C2.85314 11.6883 1.5709 11.205 0.823925 10.626L0.827766 12.1389C1.14941 13.1098 2.81584 13.8985 5.31177 14.0176V11.9558Z" fill="white"/>
<path d="M13.9815 6.46475C13.9075 6.24068 13.8054 6.04013 13.6752 5.8631C13.5479 5.68329 13.394 5.52977 13.2135 5.40252C13.0359 5.27528 12.8317 5.17984 12.6008 5.11622C12.37 5.04983 12.1184 5.01664 11.8461 5.01664C11.3578 5.01664 10.9227 5.13144 10.5409 5.36103C10.1591 5.59062 9.85871 5.9281 9.63969 6.37346C9.42363 6.81605 9.31561 7.35546 9.31561 7.99169C9.31561 8.63345 9.42363 9.17701 9.63969 9.62237C9.85575 10.0677 10.1562 10.4066 10.5409 10.6389C10.9257 10.8685 11.3726 10.9833 11.8816 10.9833C12.3434 10.9833 12.7429 10.9004 13.0803 10.7344C13.4207 10.5684 13.4963 10.5267 13.7906 10.2365C13.9741 9.92942 14.0659 9.56981 14.0659 9.15765L14.4388 9.21159H12.4059V8.00829H15.6597V9.02902C15.6597 9.75653 15.5694 10.1784 15.2379 10.7095C14.9064 11.2406 14.4506 11.65 13.8705 11.9377C13.2904 12.2226 12.6245 12.3651 11.8728 12.3651C11.0352 12.3651 10.2997 12.1894 9.66633 11.8381C9.03592 11.484 8.54313 10.982 8.18797 10.3319C7.83577 9.67908 7.65967 8.90454 7.65967 8.00829C7.65967 7.32227 7.76326 6.70955 7.97043 6.17014C8.18057 5.63073 8.47358 5.17293 8.84946 4.79672C9.22534 4.41775 9.66633 4.13007 10.1724 3.93367C10.6785 3.7345 11.229 3.63492 11.8239 3.63492C12.3271 3.63492 12.7962 3.70407 13.2313 3.84238C13.6663 3.97793 14.0526 4.17156 14.39 4.42329C14.7303 4.67501 15.01 4.97376 15.229 5.31954C15.4481 5.66531 15.5916 6.04705 15.6597 6.46475H13.9815Z" fill="white"/>
</g>
<defs>
<clipPath id="clip0_618_1212">
<rect width="16" height="16" fill="white"/>
</clipPath>
</defs>
</svg>
