<svg width="16" height="16" viewBox="0 0 16 16" fill="none" xmlns="http://www.w3.org/2000/svg">
<path fill-rule="evenodd" clip-rule="evenodd" d="M5.82718 1C6.5508 1 7.13968 1.58888 7.13968 2.3125V13.6875C7.13968 14.4111 6.5508 15 5.82718 15L3.09755 15C2.37393 15 1.78505 14.4111 1.78505 13.6875V2.3125C1.78505 1.58888 2.37393 1 3.09755 1H5.82718ZM2.76468 9.75H6.26468V6.25H2.76468V9.75ZM6.26468 13.6875V10.625H2.76468C2.76468 10.625 2.76468 13.3278 2.76468 13.6875C2.76468 14.0472 3.02381 14.125 3.21427 14.125C3.40472 14.125 5.82718 14.125 5.82718 14.125C6.0678 14.125 6.26468 13.9281 6.26468 13.6875Z" fill="#CD3D3C"/>
<path d="M9.52393 11.9922V10.8847H11.3474V4.63506H9.52393V3.64386H14.5807V4.63506H12.8113V10.8847H14.5807V11.9922H9.52393Z" fill="#CD3D3C"/>
</svg>
