<svg width="16" height="16" viewBox="0 0 16 16" fill="none" xmlns="http://www.w3.org/2000/svg">
<g clip-path="url(#clip0_465_13974)">
<path d="M10.2564 12.2552L9.52181 11.7503C9.70074 11.2668 9.78491 10.7634 9.772 10.2529L10.6065 9.98234C10.7402 9.939 10.8157 9.79417 10.7754 9.65887L10.3503 8.23476C10.3308 8.16977 10.2868 8.11568 10.2275 8.08441C10.168 8.05307 10.0992 8.04735 10.0349 8.06807L9.22061 8.33198C8.9614 7.89573 8.62691 7.52319 8.22579 7.22369L8.54314 6.42657C8.59588 6.2941 8.5338 6.14503 8.40443 6.09352L7.04336 5.55164C6.91399 5.50014 6.76644 5.56575 6.7137 5.69822L6.39607 6.49601C5.88788 6.43682 5.3781 6.48112 4.87958 6.6277L4.46219 5.87844C4.42934 5.81947 4.37479 5.77686 4.30995 5.75927C4.24545 5.74192 4.17621 5.75147 4.1177 5.78585L2.83612 6.53914C2.7777 6.57356 2.73462 6.62998 2.71652 6.69589C2.69838 6.7619 2.70667 6.83211 2.73956 6.89098L3.16769 7.65908C2.81112 8.02397 2.53016 8.4492 2.3321 8.92432L1.44781 8.79363C1.38165 8.78373 1.31388 8.80131 1.25944 8.84209C1.205 8.88288 1.16853 8.9437 1.15787 9.01135L0.923453 10.4915C0.901221 10.6321 0.994553 10.7624 1.13272 10.7831L2.04334 10.9177C2.09785 11.4112 2.2414 11.8818 2.47009 12.3175L1.7761 12.9717C1.72649 13.0186 1.69692 13.0831 1.69375 13.1513C1.69058 13.2195 1.71417 13.2859 1.75935 13.3354L2.749 14.4245C2.77457 14.4527 2.80591 14.4743 2.84047 14.4881C2.8668 14.4986 2.89514 14.5045 2.92423 14.5053C2.99121 14.5074 3.05669 14.4823 3.10628 14.4357L3.80881 13.7731C4.21307 14.0287 4.66761 14.2077 5.13568 14.2957L5.19894 15.2579C5.20816 15.3994 5.32884 15.5049 5.46817 15.4929L6.93478 15.369C7.00191 15.3634 7.06433 15.3309 7.10851 15.2788C7.15269 15.2267 7.17499 15.1593 7.17049 15.0913L7.10788 14.1413C7.57283 13.9779 7.99894 13.7308 8.37557 13.406L9.13244 13.9263C9.24793 14.0053 9.40511 13.9733 9.4842 13.8553L10.3207 12.6118C10.3999 12.494 10.3712 12.3342 10.2564 12.2552ZM7.43559 11.0285C7.08952 11.8978 6.11755 12.3299 5.26868 11.992C4.4199 11.654 4.01084 10.6721 4.35691 9.80279C4.70295 8.93363 5.67505 8.50141 6.52382 8.83933C7.3727 9.17729 7.78163 10.1593 7.43559 11.0285Z" stroke="white" stroke-width="0.8"/>
<path d="M15.1976 2.37598L14.5723 2.47457C14.4283 2.13795 14.2258 1.83739 13.9697 1.58054L14.2677 1.03347C14.3154 0.945816 14.2836 0.834251 14.1968 0.784216L13.282 0.257853C13.2402 0.233875 13.1911 0.227499 13.1452 0.240341C13.0993 0.253236 13.061 0.283896 13.038 0.326012L12.7472 0.8598C12.4005 0.761565 12.0461 0.732943 11.693 0.774518L11.4672 0.208626C11.4297 0.114583 11.3249 0.0680764 11.233 0.104723L10.2668 0.490296C10.175 0.526943 10.131 0.632838 10.1685 0.726881L10.3945 1.29325C10.1036 1.51099 9.86251 1.78285 9.67716 2.10192L9.09601 1.91962C9.05028 1.90527 9.00134 1.90995 8.95933 1.93256C8.91761 1.95513 8.88659 1.99387 8.87323 2.04018L8.58063 3.05449C8.56733 3.10077 8.57269 3.15089 8.59556 3.19371C8.61845 3.2366 8.65702 3.26873 8.70273 3.28301L9.29861 3.46978C9.29308 3.83203 9.35598 4.18846 9.48599 4.5301L8.96635 4.89471C8.92741 4.92193 8.90107 4.96409 8.89293 5.01171C8.8848 5.05932 8.89571 5.10849 8.92326 5.14856L9.52547 6.02598C9.5827 6.10932 9.69445 6.13088 9.77576 6.07404L10.3109 5.6986C10.5801 5.92636 10.8839 6.09878 11.2147 6.21167L11.1765 6.88787C11.1739 6.93629 11.1901 6.98396 11.2218 7.02066C11.2535 7.05735 11.2981 7.08005 11.3456 7.08352L12.3877 7.16145C12.4146 7.16349 12.4413 7.1593 12.4659 7.14951C12.4846 7.14206 12.5021 7.13128 12.5175 7.11748C12.553 7.08585 12.5745 7.04089 12.5773 6.99265L12.6157 6.30796C12.949 6.24224 13.2707 6.11245 13.5549 5.92916L14.0576 6.39421C14.1314 6.46263 14.2452 6.45806 14.3111 6.38382L15.0066 5.60354C15.0384 5.56785 15.0547 5.52061 15.052 5.47218C15.0494 5.42376 15.0279 5.37809 14.9924 5.34522L14.496 4.88617C14.6559 4.57483 14.7548 4.23932 14.7903 3.88793L15.4345 3.78636C15.5326 3.77066 15.598 3.67739 15.5812 3.57794L15.4049 2.52842C15.3882 2.42899 15.2953 2.3606 15.1976 2.37598ZM13.1444 3.12165C13.3906 3.73875 13.1007 4.43629 12.4981 4.67676C11.8956 4.91721 11.205 4.61089 10.9588 3.99379C10.7125 3.37676 11.0025 2.67911 11.605 2.43867C12.2076 2.1982 12.8981 2.50461 13.1444 3.12165Z" fill="white"/>
</g>
<defs>
<clipPath id="clip0_465_13974">
<rect width="16" height="16" fill="white"/>
</clipPath>
</defs>
</svg>
