<svg width="16" height="16" viewBox="0 0 16 16" fill="none" xmlns="http://www.w3.org/2000/svg">
<path d="M0.870605 9.56616C0.870605 9.28148 1.09447 9.0507 1.37061 9.0507H14.6309C14.907 9.0507 15.1309 9.28148 15.1309 9.56616V9.89865C15.1309 10.1833 14.907 10.4141 14.6309 10.4141H1.37061C1.09447 10.4141 0.870605 10.1833 0.870605 9.89865V9.56616Z" fill="white"/>
<path d="M10.9502 6.5896C10.9502 6.31346 11.1844 6.0896 11.4734 6.0896H14.6077C14.8966 6.0896 15.1309 6.31346 15.1309 6.5896V6.91211C15.1309 7.18825 14.8966 7.41211 14.6077 7.41211H11.4734C11.1844 7.41211 10.9502 7.18825 10.9502 6.91211V6.5896Z" fill="white"/>
<path d="M5.99756 6.5896C5.99756 6.31346 6.22142 6.0896 6.49756 6.0896H9.49316C9.76931 6.0896 9.99316 6.31346 9.99316 6.5896V6.91211C9.99316 7.18825 9.76931 7.41211 9.49316 7.41211H6.49756C6.22142 7.41211 5.99756 7.18825 5.99756 6.91211V6.5896Z" fill="white"/>
<path d="M0.871094 6.58954C0.871094 6.3134 1.10866 6.08954 1.40171 6.08954H4.58072C4.87376 6.08954 5.11133 6.3134 5.11133 6.58954V6.91205C5.11133 7.18819 4.87376 7.41205 4.58072 7.41205H1.40171C1.10866 7.41205 0.871094 7.18819 0.871094 6.91205V6.58954Z" fill="white"/>
<path d="M6.75342 3.38222C6.75342 3.17342 6.93136 3.00415 7.15086 3.00415H8.35598C8.57548 3.00415 8.75342 3.17342 8.75342 3.38222V3.62608C8.75342 3.83488 8.57548 4.00415 8.35598 4.00415H7.15086C6.93136 4.00415 6.75342 3.83488 6.75342 3.62608V3.38222Z" fill="white"/>
<path d="M0.870605 3.38222C0.870605 3.17342 1.06631 3.00415 1.30773 3.00415H2.63319C2.87461 3.00415 3.07031 3.17342 3.07031 3.38222V3.62608C3.07031 3.83488 2.87461 4.00415 2.63319 4.00415H1.30773C1.06631 4.00415 0.870605 3.83488 0.870605 3.62608V3.38222Z" fill="white"/>
<path d="M12.9302 3.38222C12.9302 3.17342 13.1259 3.00415 13.3674 3.00415H14.693C14.9344 3.00415 15.1302 3.17342 15.1302 3.38222V3.62608C15.1302 3.83488 14.9344 4.00415 14.693 4.00415H13.3674C13.1259 4.00415 12.9302 3.83488 12.9302 3.62608V3.38222Z" fill="white"/>
<path d="M4.37695 3.38222C4.37695 3.17342 4.57972 3.00415 4.82985 3.00415H4.92406C5.17418 3.00415 5.37695 3.17342 5.37695 3.38222V3.62608C5.37695 3.83488 5.17418 4.00415 4.92406 4.00415H4.82985C4.57972 4.00415 4.37695 3.83488 4.37695 3.62608V3.38222Z" fill="white"/>
<path d="M10.4917 3.38222C10.4917 3.17342 10.6945 3.00415 10.9446 3.00415H11.0388C11.2889 3.00415 11.4917 3.17342 11.4917 3.38222V3.62608C11.4917 3.83488 11.2889 4.00415 11.0388 4.00415H10.9446C10.6945 4.00415 10.4917 3.83488 10.4917 3.62608V3.38222Z" fill="white"/>
<path d="M0.871152 12.9234C0.871152 12.5383 1.09501 12.226 1.37115 12.226H14.6312C14.9073 12.226 15.1312 12.5383 15.1312 12.9234V14.3546C15.1312 14.7397 14.9073 15.0519 14.6312 15.0519H1.37115C1.09501 15.0519 0.871152 14.7397 0.871152 14.3546V12.9234Z" fill="white"/>
</svg>
