<svg width="16" height="16" viewBox="0 0 16 16" fill="none" xmlns="http://www.w3.org/2000/svg">
<path fill-rule="evenodd" clip-rule="evenodd" d="M13.6875 1C14.4111 1 15 1.58887 15 2.3125V13.6875C15 14.4111 14.4111 15 13.6875 15H2.3125C1.58887 15 1 14.4111 1 13.6875V2.3125C1 1.58887 1.58887 1 2.3125 1H13.6875ZM10.625 9.75H14.125V6.25H10.625V9.75ZM14.125 13.6875V9.75H10.625C10.625 11.1168 10.625 12.7582 10.625 14.125H13.6875C13.9281 14.125 14.125 13.9281 14.125 13.6875ZM6.25 9.75H10.625V6.25H6.25V9.75ZM6.25 14.125H10.625C10.625 12.7582 10.625 11.1168 10.625 9.75H6.25V14.125ZM1.875 9.75H6.25V6.25H1.875V9.75ZM6.25 14.125V9.75H1.875V13.6875C1.875 13.9281 2.07188 14.125 2.3125 14.125H6.25Z" fill="white"/>
<path d="M7.5332 6.2041H8.46729V14.2936H7.5332V6.2041Z" fill="white"/>
</svg>
