<svg width="17" height="16" viewBox="0 0 17 16" fill="none" xmlns="http://www.w3.org/2000/svg">
<path d="M2.92529 12.1762C2.92529 11.9553 3.10438 11.7762 3.32529 11.7762H14.5253C14.7462 11.7762 14.9253 11.9553 14.9253 12.1762V12.3762C14.9253 12.5972 14.7462 12.7762 14.5253 12.7762H3.32529C3.10438 12.7762 2.92529 12.5972 2.92529 12.3762V12.1762Z" fill="#CD3D3C"/>
<path d="M4.92529 10.1762C4.92529 9.95533 5.10438 9.77625 5.32529 9.77625H14.5253C14.7462 9.77625 14.9253 9.95533 14.9253 10.1762V10.3762C14.9253 10.5972 14.7462 10.7762 14.5253 10.7762H5.32529C5.10438 10.7762 4.92529 10.5972 4.92529 10.3762V10.1762Z" fill="#CD3D3C"/>
<path d="M8.92529 7.17625C8.92529 6.95533 9.10438 6.77625 9.32529 6.77625H14.5253C14.7462 6.77625 14.9253 6.95533 14.9253 7.17625V8.37625C14.9253 8.59716 14.7462 8.77625 14.5253 8.77625H9.32529C9.10438 8.77625 8.92529 8.59716 8.92529 8.37625V7.17625Z" fill="#CD3D3C"/>
<path d="M4.92529 5.17625C4.92529 4.95533 5.10438 4.77625 5.32529 4.77625H14.5253C14.7462 4.77625 14.9253 4.95533 14.9253 5.17625V5.37625C14.9253 5.59716 14.7462 5.77625 14.5253 5.77625H5.32529C5.10438 5.77625 4.92529 5.59716 4.92529 5.37625V5.17625Z" fill="#CD3D3C"/>
<path d="M1.92529 3.17625C1.92529 2.95533 2.10438 2.77625 2.32529 2.77625H14.5253C14.7462 2.77625 14.9253 2.95533 14.9253 3.17625V3.37625C14.9253 3.59716 14.7462 3.77625 14.5253 3.77625H2.32529C2.10438 3.77625 1.92529 3.59716 1.92529 3.37625V3.17625Z" fill="#CD3D3C"/>
</svg>
