<svg width="16" height="16" viewBox="0 0 16 16" fill="none" xmlns="http://www.w3.org/2000/svg">
<g clip-path="url(#clip0_465_13957)">
<rect width="16" height="1" transform="matrix(1 0 0 -1 0 3)" fill="white"/>
<rect width="16" height="1" transform="matrix(1 0 0 -1 0 7.43845)" fill="white"/>
<rect x="9.6" y="0.6" width="3.8" height="3.8" rx="1.9" fill="#4B4949" stroke="white" stroke-width="1.2"/>
<rect x="1.6" y="5.03845" width="3.8" height="3.8" rx="1.9" fill="#4B4949" stroke="white" stroke-width="1.2"/>
<path fill-rule="evenodd" clip-rule="evenodd" d="M4 12H0V13H4.69815C4.44817 12.6861 4.21487 12.3521 4 12Z" fill="white"/>
<path d="M6.60022 11.3352L6.37466 11.6355L6.60022 11.9358C7.5538 13.2052 9.1027 14.2663 10.8967 14.2663C12.6908 14.2663 14.2397 13.2052 15.1932 11.9358L15.4188 11.6355L15.1932 11.3352C14.2491 10.0782 12.7025 8.93845 10.8967 8.93845C9.09096 8.93845 7.54438 10.0782 6.60022 11.3352Z" stroke="white"/>
<path d="M10.8966 13.1594C11.7383 13.1594 12.4206 12.4771 12.4206 11.6354C12.4206 10.7937 11.7383 10.1114 10.8966 10.1114C10.0549 10.1114 9.37256 10.7937 9.37256 11.6354C9.37256 12.4771 10.0549 13.1594 10.8966 13.1594Z" fill="white"/>
</g>
<defs>
<clipPath id="clip0_465_13957">
<rect width="16" height="16" fill="white"/>
</clipPath>
</defs>
</svg>
