<svg width="16" height="16" viewBox="0 0 16 16" fill="none" xmlns="http://www.w3.org/2000/svg">
<path fill-rule="evenodd" clip-rule="evenodd" d="M5.04202 1C5.76564 1 6.35452 1.58888 6.35452 2.3125V13.6875C6.35452 14.4111 5.76564 15 5.04202 15L2.3124 15C1.58877 15 0.999898 14.4111 0.999898 13.6875V2.3125C0.999898 1.58888 1.58877 1 2.3124 1H5.04202ZM1.97952 9.75H5.47952V6.25H1.97952V9.75ZM5.47952 13.6875V10.625H1.97952C1.97952 10.625 1.97952 13.3278 1.97952 13.6875C1.97952 14.0472 2.23866 14.125 2.42911 14.125C2.61957 14.125 5.04202 14.125 5.04202 14.125C5.28264 14.125 5.47952 13.9281 5.47952 13.6875Z" fill="#FFFFFF"/>
<path d="M1.98242 2.42499C1.98242 2.14885 2.20628 1.92499 2.48242 1.92499H4.97363C5.24978 1.92499 5.47363 2.14885 5.47363 2.42499V5.42325H1.98242V2.42499Z" fill="#FFFFFF"/>
<path d="M2.4 1.5H13.6C14.0971 1.5 14.5 1.90294 14.5 2.4V6.04693V11.0939V13.6C14.5 14.0971 14.0971 14.5 13.6 14.5H2.4C1.90294 14.5 1.5 14.0971 1.5 13.6V2.4C1.5 1.90294 1.90294 1.5 2.4 1.5Z" stroke="#FFFFFF"/>
</svg>
