<svg width="16" height="16" viewBox="0 0 16 16" fill="none" xmlns="http://www.w3.org/2000/svg">
<path fill-rule="evenodd" clip-rule="evenodd" d="M1.33887 1.47699C0.747311 1.47699 0.267743 1.95652 0.267699 2.54808L0.267578 2.56477V13.4518C0.267578 14.0434 0.747158 14.523 1.33875 14.523H14.6615C15.253 14.523 15.7326 14.0434 15.7326 13.4518L15.7327 2.54824C15.7328 1.95662 15.2532 1.47699 14.6616 1.47699H1.33887ZM1.33875 4.17656H14.6615V13.4518H1.33875L1.33875 4.17656ZM9.93408 2.80367C9.93408 2.31729 10.3284 1.923 10.8147 1.923H10.8636C11.35 1.923 11.7443 2.31729 11.7443 2.80367C11.7443 3.29004 11.35 3.68433 10.8636 3.68433H10.8147C10.3284 3.68433 9.93408 3.29004 9.93408 2.80367ZM13.4793 1.923C12.9929 1.923 12.5986 2.31729 12.5986 2.80367C12.5986 3.29004 12.9929 3.68433 13.4793 3.68433H13.5282C14.0146 3.68433 14.4089 3.29004 14.4089 2.80367C14.4089 2.31729 14.0146 1.923 13.5282 1.923H13.4793Z" fill="white"/>
<path d="M3.71191 6.34663C3.43577 6.34663 3.21191 6.57049 3.21191 6.84663V7.94112C3.21191 8.21726 3.43577 8.44112 3.71191 8.44112H12.2878C12.564 8.44112 12.7878 8.21726 12.7878 7.94112V6.84663C12.7878 6.57049 12.564 6.34663 12.2878 6.34663H3.71191Z" fill="white"/>
<path d="M3.71191 9.87947C3.43577 9.87947 3.21191 10.1033 3.21191 10.3795V11.474C3.21191 11.7501 3.43577 11.974 3.71191 11.974H12.2878C12.564 11.974 12.7878 11.7501 12.7878 11.474V10.3795C12.7878 10.1033 12.564 9.87947 12.2878 9.87947H3.71191Z" fill="white"/>
</svg>
