<svg width="16" height="16" viewBox="0 0 16 16" fill="none" xmlns="http://www.w3.org/2000/svg">
<path d="M2 14.4C2 14.1791 2.17909 14 2.4 14H14.6C14.8209 14 15 14.1791 15 14.4V14.6C15 14.8209 14.8209 15 14.6 15H2.4C2.17909 15 2 14.8209 2 14.6V14.4Z" fill="#554646"/>
<path d="M3 12.4C3 12.1791 3.17909 12 3.4 12H14.6C14.8209 12 15 12.1791 15 12.4V12.6C15 12.8209 14.8209 13 14.6 13H3.4C3.17909 13 3 12.8209 3 12.6V12.4Z" fill="#554646"/>
<path d="M1.18994 10.4C1.18994 10.1791 1.36903 10 1.58994 10H14.5999C14.8209 10 14.9999 10.1791 14.9999 10.4V10.6C14.9999 10.8209 14.8209 11 14.5999 11H1.58994C1.36903 11 1.18994 10.8209 1.18994 10.6V10.4Z" fill="#554646"/>
<path d="M1.18994 10.4C1.18994 10.1791 1.36903 10 1.58994 10H14.5999C14.8209 10 14.9999 10.1791 14.9999 10.4V10.6C14.9999 10.8209 14.8209 11 14.5999 11H1.58994C1.36903 11 1.18994 10.8209 1.18994 10.6V10.4Z" fill="#554646"/>
<path d="M7.12793 7.4C7.12793 7.17909 7.30702 7 7.52793 7H14.6002C14.8211 7 15.0002 7.17909 15.0002 7.4V8.6C15.0002 8.82091 14.8211 9 14.6002 9H7.52793C7.30702 9 7.12793 8.82091 7.12793 8.6V7.4Z" fill="#554646"/>
<path d="M3.92284 1.48986C3.99431 1.22313 4.26848 1.06484 4.53521 1.13631V1.13631C4.80194 1.20778 4.96023 1.48195 4.88876 1.74868L3.07703 8.51016C3.00556 8.77689 2.73139 8.93518 2.46466 8.86371V8.86371C2.19792 8.79224 2.03963 8.51807 2.1111 8.25134L3.92284 1.48986Z" fill="#12D025"/>
<path d="M5.92284 1.48986C5.99431 1.22313 6.26848 1.06484 6.53521 1.13631V1.13631C6.80194 1.20778 6.96023 1.48195 6.88876 1.74868L5.07703 8.51016C5.00556 8.77689 4.73139 8.93518 4.46466 8.86371V8.86371C4.19792 8.79224 4.03963 8.51807 4.1111 8.25134L5.92284 1.48986Z" fill="#12D025"/>
</svg>
