<svg width="17" height="16" viewBox="0 0 17 16" fill="none" xmlns="http://www.w3.org/2000/svg">
<path fill-rule="evenodd" clip-rule="evenodd" d="M4.26451 6.07298L5.06042 7.56836C5.14755 7.73206 5.39126 7.73983 5.47408 7.58156L7.95312 2.84377C8.01961 2.71669 7.93578 2.55919 7.78488 2.52767L2.15871 1.35259C1.97076 1.31333 1.82618 1.49179 1.9133 1.65549L3.33403 4.32478C2.91067 4.70342 2.55072 5.14946 2.26807 5.65036C1.70887 6.64134 1.47708 7.80311 1.60167 8.99043C1.72626 10.1777 2.2017 11.3379 2.96857 12.326C3.63268 13.1816 4.48985 13.8753 5.45689 14.3443C5.69947 14.4619 5.97845 14.3431 6.0551 14.1047L6.31951 13.2824C6.38895 13.0665 6.26537 12.8309 6.04752 12.7207C5.39661 12.3913 4.81954 11.9165 4.36876 11.3357C3.82864 10.6398 3.49378 9.82266 3.40603 8.98641C3.31827 8.15016 3.48153 7.33191 3.87538 6.63393C3.9882 6.434 4.1185 6.24649 4.26451 6.07298ZM8.51295 13.6912C8.45797 13.8232 8.55673 13.9724 8.71087 13.9902L14.4535 14.6511C14.6448 14.6731 14.7723 14.4835 14.6701 14.3291L13.3468 12.3301C14.0635 11.7987 14.6258 11.0968 14.9852 10.277C15.4417 9.23565 15.5505 8.05087 15.2977 6.87243C15.045 5.69399 14.4421 4.57483 13.5653 3.65646C12.807 2.86213 11.8731 2.24889 10.8548 1.87206C10.5983 1.77715 10.3296 1.92486 10.2804 2.17162L10.1118 3.0167C10.0681 3.23567 10.2149 3.45374 10.4412 3.54118C11.1326 3.80833 11.7661 4.23068 12.2837 4.77277C12.9012 5.4196 13.3258 6.20785 13.5039 7.03784C13.6819 7.86784 13.6053 8.70231 13.2837 9.43572C13.0597 9.94677 12.7237 10.3928 12.2995 10.748L10.9756 8.74808C10.8733 8.5936 10.6293 8.60716 10.561 8.77111L8.51295 13.6912Z" fill="#FFFFFF"/>
</svg>
