<svg width="16" height="16" viewBox="0 0 16 16" fill="none" xmlns="http://www.w3.org/2000/svg">
<g clip-path="url(#clip0_491_2764)">
<path fill-rule="evenodd" clip-rule="evenodd" d="M10.6232 5.01159C10.4228 4.80414 10.0923 4.79836 9.88482 4.99868C9.67736 5.199 9.67158 5.52957 9.87191 5.73702L10.1811 6.05725C8.44617 6.02822 6.85715 7.19374 6.41957 8.94952C6.11284 10.1803 6.4425 11.4206 7.19722 12.3222C7.43513 12.6065 7.85841 12.644 8.14264 12.4061C8.42687 12.1682 8.46442 11.7449 8.22651 11.4607C7.73534 10.8739 7.52341 10.071 7.72201 9.27411C8.01269 8.10778 9.08736 7.34333 10.2443 7.40253L9.72687 7.70842C9.47862 7.85519 9.39635 8.1754 9.54312 8.42365C9.68988 8.6719 10.0101 8.75417 10.2583 8.6074L12.0558 7.54474C12.385 7.35017 12.446 6.89926 12.1804 6.62424L10.6232 5.01159ZM14.0302 8.08189C13.776 7.81218 13.3512 7.79966 13.0815 8.05392C12.8118 8.30818 12.7993 8.73294 13.0535 9.00264C13.5785 9.55946 13.8374 10.3484 13.6862 11.1556C13.4469 12.4326 12.2656 13.2949 10.9955 13.1587L11.6357 12.5725C11.8483 12.3777 11.8629 12.0474 11.6681 11.8347C11.4733 11.6221 11.143 11.6075 10.9303 11.8023L9.22997 13.3595C8.9579 13.6087 8.97764 14.0433 9.27116 14.2668L10.9718 15.5615C11.2012 15.7362 11.5288 15.6918 11.7035 15.4624C11.8782 15.2329 11.8338 14.9053 11.6044 14.7306L11.321 14.5149C13.096 14.4867 14.6659 13.2155 15.0055 11.4028C15.2391 10.1561 14.8368 8.93745 14.0302 8.08189Z" fill="white"/>
<path d="M12.6804 3.02246C12.4717 3.20451 12.1373 3.38766 11.7026 3.549C11.5061 3.62135 11.2941 3.68758 11.0689 3.74715C11.2466 3.83682 11.4124 3.95733 11.5584 4.10855C11.5584 4.10855 11.7232 4.247 11.9533 4.45891C12.4415 4.3022 12.8606 4.11683 13.1917 3.90984L13.1854 5.82582C13.1872 5.82854 13.189 5.83126 13.1908 5.834C13.2074 5.85945 13.2246 5.88587 13.2461 5.91797C13.2766 5.96354 13.3008 6.00401 13.3236 6.04218C13.3693 6.11878 13.4095 6.18608 13.4846 6.26659C13.6206 6.41238 13.8714 6.54564 13.9995 6.60811L14.0222 3.03227C14.0226 2.99644 14.0177 2.96078 14.0079 2.92652C14.0157 2.87938 14.0195 2.83158 14.0192 2.78371C14.0192 1.55838 11.3313 0.565247 8.01554 0.565247C4.69974 0.565247 2.01191 1.55838 2.01089 2.78371C2.01102 2.80993 2.01239 2.83613 2.01498 2.8622C2.00913 5.12608 2.00743 7.38998 2.00987 9.65386L2.016 11.9552V12.0119L2.03135 12.0664C2.45694 13.566 4.65571 14.7052 7.98729 14.7366C7.83301 14.4671 7.74985 14.1661 7.73914 13.8625C7.5662 13.8647 7.39341 13.8444 7.22553 13.8018C4.79345 13.6446 3.17628 12.8553 2.85656 11.8901L2.85263 10.3407C3.40333 10.7672 4.23821 11.1434 5.2373 11.3922C5.13178 11.0543 5.06072 10.7035 5.02736 10.3452C4.00383 10.0202 3.21538 9.54913 2.85058 9.13931V7.21955C3.40587 7.64967 4.25008 8.02911 5.26102 8.27778C5.36253 7.96718 5.49161 7.6722 5.64481 7.39492C4.32417 7.08431 3.28661 6.50838 2.85058 6.02038V6.01929C2.85125 5.31868 2.85227 4.61808 2.85365 3.91747C3.90096 4.56611 5.82069 5.00218 8.01554 5.00218C8.16672 5.00218 8.3166 5.00011 8.46497 4.99606C8.53649 4.65747 8.70503 4.33564 8.9698 4.07528C8.65889 4.09628 8.33971 4.10716 8.01554 4.10716C6.60105 4.10716 5.28169 3.90112 4.32847 3.549C3.89278 3.38766 3.55935 3.20451 3.35071 3.02355C3.20752 2.89818 3.16252 2.81642 3.16252 2.78371C3.16252 2.74992 3.20752 2.66925 3.35071 2.54497C3.55935 2.36291 3.8938 2.17977 4.32847 2.01842C5.28169 1.66739 6.60105 1.46026 8.01554 1.46026C9.43002 1.46026 10.7494 1.6663 11.7026 2.01842C12.1383 2.17977 12.4717 2.36291 12.6804 2.54388C12.8235 2.66925 12.8685 2.75101 12.8685 2.78371C12.8685 2.81642 12.8235 2.89818 12.6804 3.02246Z" fill="white"/>
<path d="M7.04975 7.60798C6.84898 7.88011 6.6823 8.18227 6.55758 8.50974C7.04266 8.56679 7.52639 8.59465 8.00372 8.59432C8.05719 8.50564 8.11589 8.42099 8.1793 8.34069C8.45899 7.98649 8.83022 7.71687 9.24813 7.55879C8.54226 7.64839 7.80384 7.66757 7.04975 7.60798Z" fill="white"/>
<path d="M10.1625 7.39969C10.1639 7.39972 10.1653 7.39974 10.1667 7.39977C10.1925 7.40027 10.2184 7.40119 10.2444 7.40251L9.72698 7.70841C9.47873 7.85518 9.39646 8.17539 9.54322 8.42364C9.55653 8.44614 9.57126 8.46728 9.58723 8.48701C10.0441 8.42429 10.4888 8.33444 10.9163 8.21847L12.0559 7.54473C12.1253 7.50374 12.1827 7.45137 12.2277 7.39167C12.2636 7.34404 12.2916 7.29175 12.3113 7.23683C12.3412 7.1538 12.3524 7.06479 12.3438 6.97688C12.3333 6.8691 12.2932 6.76299 12.2217 6.67162C11.5989 6.98785 10.905 7.23427 10.1625 7.39969Z" fill="white"/>
<path d="M13.1746 9.14077L13.1782 7.97812C13.2619 7.92403 13.3547 7.89054 13.4497 7.87744C13.6402 7.85116 13.8393 7.90685 13.9904 8.04283L13.9608 12.6937C13.9608 12.6937 13.3349 13.162 13.1754 13.2863C12.9371 13.4716 12.666 13.6645 12.3531 13.8302C11.6049 14.2245 10.8468 14.5084 9.76835 14.6452L9.27127 14.2668C9.11801 14.1501 9.03939 13.9758 9.03798 13.8005C10.222 13.7194 11.1905 13.4735 11.9724 13.067C12.0025 13.0579 12.0324 13.0482 12.062 13.0379C12.46 12.9004 12.8172 12.663 13.098 12.3501C13.3903 12.0245 13.5998 11.6171 13.6863 11.1556C13.8254 10.4131 13.6174 9.68594 13.1746 9.14077Z" fill="white"/>
<path d="M7.81446 10.7627C7.3997 10.7589 6.97822 10.7314 6.55298 10.6786C6.49742 10.6717 6.44217 10.6643 6.38726 10.6563C6.4608 11.0051 6.58265 11.3399 6.7471 11.6515C7.28889 11.7065 7.82822 11.7251 8.35798 11.7089C8.33304 11.6204 8.28943 11.5357 8.22662 11.4607C8.05195 11.252 7.9126 11.016 7.81446 10.7627Z" fill="white"/>
</g>
<defs>
<clipPath id="clip0_491_2764">
<rect width="16" height="16" fill="white"/>
</clipPath>
</defs>
</svg>
