<svg width="16" height="16" viewBox="0 0 16 16" fill="none" xmlns="http://www.w3.org/2000/svg">
<path d="M2.72128 12.9421L5.84381 12.1054L7.55631 15.0717L9.20999 12.2073L12.4942 13.0874L11.6447 9.91701L14.6538 8.17974L11.7697 6.51462L12.6757 3.13292L9.43343 4.0018L7.65901 0.928345L5.89026 3.99204L2.68484 3.13317L3.54087 6.32763L0.510254 8.07685L3.55395 9.83411L2.72128 12.9421ZM7.60752 4.08876C9.83522 4.08876 11.6473 5.90082 11.6473 8.12828C11.6473 10.3558 9.83519 12.1678 7.60752 12.1678C5.38008 12.1678 3.568 10.3558 3.568 8.12828C3.56802 5.90082 5.38033 4.08876 7.60752 4.08876Z" fill="white"/>
<path d="M7.58194 10.7583C9.10286 10.7583 10.3404 9.52092 10.3404 8.00001C10.3404 6.4791 9.10284 5.24175 7.58194 5.24175C6.06105 5.24175 4.82369 6.4791 4.82369 8.00001C4.82369 9.52092 6.06103 10.7583 7.58194 10.7583Z" fill="white"/>
</svg>
