<svg width="16" height="16" viewBox="0 0 16 16" fill="none" xmlns="http://www.w3.org/2000/svg">
<path d="M3.22152 5.48737V6.37811H0V5.48737H3.22152ZM0.88332 11.1881V4.82673C0.88332 4.47044 0.96126 4.17476 1.11714 3.9397C1.27302 3.70217 1.47962 3.52526 1.73695 3.40897C1.99427 3.2902 2.27387 3.23082 2.57573 3.23082C2.79842 3.23082 2.98894 3.24938 3.14729 3.28649C3.30564 3.32113 3.42317 3.3533 3.49988 3.38299L3.24008 4.28115C3.18812 4.26631 3.12131 4.24899 3.03966 4.22919C2.95801 4.20693 2.85904 4.19579 2.74275 4.19579C2.47305 4.19579 2.28005 4.2626 2.16376 4.39621C2.04995 4.52982 1.99304 4.72281 1.99304 4.97519V11.1881H0.88332Z" fill="white"/>
<path d="M5.15603 8.03341C5.15603 7.10308 5.2785 6.24697 5.52346 5.4651C5.76841 4.68323 6.12595 3.96197 6.59606 3.30134H7.61299C7.42989 3.54629 7.25917 3.84692 7.10081 4.20321C6.94246 4.55951 6.8039 4.95045 6.68513 5.37602C6.56637 5.79913 6.47358 6.23831 6.40678 6.69358C6.33997 7.14638 6.30657 7.59298 6.30657 8.03341C6.30657 8.62229 6.36471 9.21859 6.48101 9.82232C6.5973 10.426 6.75441 10.9865 6.95236 11.5036C7.1503 12.0207 7.37051 12.4426 7.61299 12.7692H6.59606C6.12595 12.1086 5.76841 11.3873 5.52346 10.6054C5.2785 9.82355 5.15603 8.96621 5.15603 8.03341Z" fill="white"/>
<path d="M9.24086 5.48737L10.499 7.7068L11.7683 5.48737H12.982L11.2042 8.33774L12.9968 11.1881H11.7832L10.499 9.05776L9.21859 11.1881H8.00124L9.77531 8.33774L8.02351 5.48737H9.24086Z" fill="white"/>
<path d="M15.8374 8.03341C15.8374 8.96621 15.7149 9.82355 15.47 10.6054C15.225 11.3873 14.8675 12.1086 14.3974 12.7692H13.3804C13.5635 12.5242 13.7343 12.2236 13.8926 11.8673C14.051 11.511 14.1895 11.1213 14.3083 10.6982C14.4271 10.2726 14.5198 9.83221 14.5867 9.37694C14.6535 8.92168 14.6869 8.47383 14.6869 8.03341C14.6869 7.447 14.6287 6.85194 14.5124 6.24821C14.3961 5.64449 14.239 5.08406 14.0411 4.56693C13.8431 4.04981 13.6229 3.62794 13.3804 3.30134H14.3974C14.8675 3.96197 15.225 4.68323 15.47 5.4651C15.7149 6.24697 15.8374 7.10308 15.8374 8.03341Z" fill="white"/>
</svg>
