<svg width="16" height="16" viewBox="0 0 16 16" fill="none" xmlns="http://www.w3.org/2000/svg">
<path d="M3.2072 10.711C3.69288 11.0863 4.01988 11.0683 4.47844 10.6707C4.937 10.2732 4.91492 9.64668 4.42924 9.27139L3.90635 8.86775L12.0932 8.86775L11.5703 9.27139C11.0846 9.64668 11.0625 10.2732 11.5211 10.6707C11.9796 11.0683 12.3066 11.0863 12.7923 10.711L14.8271 8.64064C14.8574 8.619 14.887 8.59591 14.9154 8.57139C15.3531 8.19282 15.3582 7.59468 14.9154 7.21111C14.887 7.18656 14.8574 7.16344 14.8271 7.14178L12.7923 5.28898C12.306 4.91368 11.9796 4.93173 11.5211 5.32927C11.0619 5.72682 11.2896 6.35334 11.7759 6.72863L12.0932 6.9735H10.7274C10.7272 6.9735 10.7277 6.9735 10.7274 6.9735L3.90635 6.9735L4.22362 6.72863C4.70993 6.35334 4.93763 5.72682 4.47844 5.32927C4.01988 4.93173 3.69351 4.91368 3.2072 5.28898L1.17241 7.14178C1.14214 7.16343 1.11249 7.18656 1.08411 7.21111C0.64132 7.59468 0.646366 8.19282 1.08411 8.57139C1.11249 8.59591 1.14214 8.619 1.17241 8.64064L3.2072 10.711Z" fill="white"/>
</svg>
