<svg width="16" height="16" viewBox="0 0 16 16" fill="none" xmlns="http://www.w3.org/2000/svg">
<path fill-rule="evenodd" clip-rule="evenodd" d="M5.85647 1C6.5801 1 7.16897 1.58888 7.16897 2.3125V13.6875C7.16897 14.4111 6.5801 15 5.85647 15L3.12685 15C2.40323 15 1.81435 14.4111 1.81435 13.6875V2.3125C1.81435 1.58888 2.40323 1 3.12685 1H5.85647ZM2.79397 9.75H6.29397V6.25H2.79397V9.75ZM6.29397 13.6875V10.625H2.79397C2.79397 10.625 2.79397 13.3278 2.79397 13.6875C2.79397 14.0472 3.05311 14.125 3.24357 14.125C3.43402 14.125 5.85647 14.125 5.85647 14.125C6.0971 14.125 6.29397 13.9281 6.29397 13.6875Z" fill="white"/>
<path d="M9.55322 11.9922V10.8847H11.3767V4.63506H9.55322V3.64386H14.61V4.63506H12.8406V10.8847H14.61V11.9922H9.55322Z" fill="white"/>
</svg>
