<svg width="16" height="16" viewBox="0 0 16 16" fill="none" xmlns="http://www.w3.org/2000/svg">
<g clip-path="url(#clip0_479_1300)">
<path fill-rule="evenodd" clip-rule="evenodd" d="M0.407227 2.75768C0.407227 1.65311 1.30266 0.757683 2.40723 0.757683H13.5923C14.6969 0.757683 15.5923 1.65311 15.5923 2.75768V13.7743C15.5923 14.8789 14.6969 15.7743 13.5923 15.7743H2.40723C1.30266 15.7743 0.407227 14.8789 0.407227 13.7743V2.75768ZM4.5215 7.92979C4.1782 7.92979 3.8999 7.65149 3.8999 7.30819V5.89857H2.49025C2.14695 5.89857 1.86865 5.62027 1.86865 5.27697C1.86865 4.93367 2.14695 4.65537 2.49025 4.65537H3.8999V3.24574C3.8999 2.90245 4.1782 2.62415 4.5215 2.62415C4.8648 2.62415 5.1431 2.90244 5.1431 3.24574V4.65537H6.5527C6.896 4.65537 7.17429 4.93367 7.17429 5.27697C7.17429 5.62027 6.896 5.89857 6.5527 5.89857H5.1431V7.30819C5.1431 7.65149 4.8648 7.92979 4.5215 7.92979ZM8.89111 5.27697C8.89111 4.93367 9.16941 4.65537 9.51271 4.65537L13.3193 4.65537C13.6626 4.65537 13.9409 4.93367 13.9409 5.27697C13.9409 5.62027 13.6626 5.89857 13.3193 5.89857H9.51271C9.16941 5.89857 8.89111 5.62027 8.89111 5.27697ZM8.89111 10.5788C8.89111 10.2355 9.16941 9.95722 9.51271 9.95722H13.3193C13.6626 9.95722 13.9409 10.2355 13.9409 10.5788C13.9409 10.9221 13.6626 11.2004 13.3193 11.2004H9.51271C9.16941 11.2004 8.89111 10.9221 8.89111 10.5788ZM8.89111 12.476C8.89111 12.1327 9.16941 11.8544 9.51271 11.8544H13.3193C13.6626 11.8544 13.9409 12.1327 13.9409 12.476C13.9409 12.8193 13.6626 13.0976 13.3193 13.0976H9.51271C9.16941 13.0976 8.89111 12.8193 8.89111 12.476ZM3.52403 9.53607C3.28128 9.29332 2.8877 9.29332 2.64495 9.53607C2.4022 9.77882 2.4022 10.1724 2.64495 10.4151L3.64209 11.4123L2.64561 12.4088C2.40286 12.6515 2.40286 13.0451 2.64561 13.2878C2.88836 13.5306 3.28193 13.5306 3.52468 13.2878L4.52117 12.2914L5.51754 13.2877C5.76028 13.5305 6.15386 13.5305 6.39661 13.2877C6.63936 13.045 6.63936 12.6514 6.39661 12.4087L5.40024 11.4123L6.39727 10.4153C6.64001 10.1725 6.64001 9.77894 6.39726 9.53619C6.15452 9.29344 5.76094 9.29344 5.51819 9.53619L4.52117 10.5332L3.52403 9.53607Z" fill="#4B4949"/>
</g>
<defs>
<clipPath id="clip0_479_1300">
<rect width="16" height="16" fill="white"/>
</clipPath>
</defs>
</svg>
