<svg width="16" height="16" viewBox="0 0 16 16" fill="none" xmlns="http://www.w3.org/2000/svg">
<path fill-rule="evenodd" clip-rule="evenodd" d="M3.88852 0.341302C4.22623 0.154095 4.59094 0.159852 4.70313 0.354159L13.057 14.8234C13.1692 15.0178 12.9863 15.327 12.6486 15.5142C12.3109 15.7014 11.9462 15.6957 11.834 15.5014L3.48016 1.03209C3.36798 0.837786 3.5508 0.528508 3.88852 0.341302Z" fill="#4B4949"/>
<path fill-rule="evenodd" clip-rule="evenodd" d="M3.35484 2.81467H2.21443C1.74365 2.81467 1.362 3.19632 1.362 3.6671C1.362 4.13788 1.74365 4.51952 2.21443 4.51952H4.33913L3.35484 2.81467ZM6.76208 8.7162C5.80339 9.16934 5.07919 10.0374 4.82121 11.0886H2.21375C1.74297 11.0886 1.36133 11.4702 1.36133 11.941C1.36133 12.4118 1.74297 12.7934 2.21375 12.7934H4.8211C5.20311 14.3509 6.6085 15.5064 8.28377 15.5064H9.42286H10.4229V15.0568L9.42286 13.3248V14.5064H8.28377C6.86707 14.5064 5.7186 13.3579 5.7186 11.9412C5.7186 10.8867 6.35494 9.98079 7.26457 9.58653L6.76208 8.7162ZM8.29759 9.37607L7.7437 8.41671C7.91982 8.38995 8.10017 8.37607 8.28376 8.37607H9.33461L10.8485 10.9982H10.4229V12.8844H11.9375L12.5656 13.9723H10.9512L9.42286 11.3251V9.37607H8.29759ZM12.2146 10.9982H12.8275C13.1279 10.9982 13.3714 10.7547 13.3714 10.4543C13.3714 10.1539 13.1279 9.91041 12.8275 9.91041H11.5865L12.2146 10.9982ZM10.0404 7.23248H10.4235V6.23248V5.69834H12.8289C13.1293 5.69834 13.3728 5.45483 13.3728 5.15443C13.3728 4.85404 13.1293 4.61052 12.8289 4.61052H10.4235V2.72432H12.8282C13.1286 2.72432 13.3721 2.48081 13.3721 2.18041C13.3721 1.88002 13.1286 1.6365 12.8282 1.6365H10.4235V1.10216V0.102158H9.42353H8.28444C7.54114 0.102158 6.85097 0.329628 6.27974 0.718755L6.7817 1.58819C7.20403 1.28241 7.72318 1.10216 8.28444 1.10216H9.42353V6.16397L10.0404 7.23248ZM5.97301 2.55361C5.81041 2.89044 5.71928 3.26824 5.71928 3.66732C5.71928 5.0196 6.76568 6.12748 8.09294 6.22544L8.67435 7.23248H8.28444C7.79296 7.23248 7.32471 7.13303 6.89871 6.95315L4.50936 2.81467H4.82188C4.934 2.35783 5.13416 1.93559 5.40336 1.56695L5.97301 2.55361Z" fill="#4B4949"/>
</svg>
