<svg width="16" height="16" viewBox="0 0 16 16" fill="none" xmlns="http://www.w3.org/2000/svg">
<path d="M14.2394 10.778C14.656 11.1008 14.7322 11.6995 14.4097 12.1163L12.5909 14.4655C12.3723 14.7481 12.0267 14.8741 11.6969 14.8253C11.4586 14.8314 11.2184 14.7486 11.0289 14.5748L8.62623 12.3518C8.2381 11.996 8.21225 11.3922 8.56846 11.0044C8.92469 10.6161 9.52811 10.5902 9.91623 10.9465L10.4984 11.4982L10.4984 3.18802C10.4984 2.66095 10.9255 2.23401 11.4523 2.23401C11.9791 2.23401 12.4062 2.66095 12.4062 3.18802L12.4062 11.5877L12.9012 10.9483C13.2237 10.532 13.8228 10.4558 14.2394 10.778Z" fill="#4B4949"/>
<path fill-rule="evenodd" clip-rule="evenodd" d="M1.39077 3.04853C1.39077 2.00736 2.29264 1.16333 3.40514 1.16333H8.00972C8.13114 1.16333 8.24758 1.20847 8.33344 1.28882L9.59049 2.46527C9.50451 2.68808 9.45737 2.93022 9.45737 3.18339V3.55254L8.46753 2.62617V4.76311C8.46753 4.97201 8.46789 5.10292 8.4765 5.20161C8.48467 5.29514 8.49794 5.32158 8.50157 5.32825C8.53158 5.38334 8.57937 5.42802 8.63806 5.45601C8.64513 5.45938 8.67327 5.47181 8.77337 5.47947C8.87883 5.48753 9.01871 5.48786 9.24194 5.48786H9.45737V6.34477H9.22494C9.02381 6.34478 8.84607 6.34479 8.69881 6.33353C8.54209 6.32155 8.38005 6.2947 8.22239 6.21953C7.99122 6.10931 7.80348 5.93347 7.68577 5.71734C7.60543 5.56978 7.57673 5.41808 7.56392 5.27139C7.55189 5.13359 7.55189 4.96725 7.5519 4.77904V4.77904V4.77904V4.77903V4.779L7.5519 2.02024H3.40514C2.79832 2.02024 2.30639 2.48062 2.30639 3.04853L2.30638 13.9798H8.84123L9.77479 14.8367H1.84844C1.727 14.8367 1.61053 14.7916 1.52467 14.7112C1.43881 14.6308 1.39059 14.5218 1.39063 14.4081L1.39082 13.7783L1.39077 3.04853ZM13.0883 10.765L13.0882 13.823L12.5908 14.4655C12.3722 14.7481 12.0266 14.8741 11.6968 14.8253C11.4585 14.8314 11.2183 14.7486 11.0288 14.5748L10.3857 13.9798H12.1727L12.1728 6.34477L10.4983 6.34477V5.48786H11.5253L10.4983 4.52671V3.31486L12.4061 5.1003V11.5877L12.9011 10.9483C12.9562 10.8772 13.0193 10.816 13.0883 10.765ZM9.45738 8.16333H3.66211V9.17366H9.45738V8.16333ZM10.4983 9.17366V8.16333H10.5894V9.17366H10.4983ZM8.38488 10.1984H3.65869V11.2088H7.59989C7.68663 10.9585 7.82494 10.7215 8.01549 10.514C8.12795 10.3915 8.25219 10.2863 8.38488 10.1984ZM8.42047 11.2088H10.1929L9.91327 10.9437C9.72275 10.7688 9.48035 10.686 9.24078 10.6929C8.9923 10.7001 8.74686 10.8039 8.5655 11.0016C8.50682 11.0655 8.45851 11.1352 8.42047 11.2088ZM10.4983 11.2088V10.1984H10.5894V11.2088H10.4983ZM6.66357 6.43022H3.65869V7.44055H6.66357V6.43022Z" fill="#4B4949"/>
</svg>
