<svg width="16" height="16" viewBox="0 0 16 16" fill="none" xmlns="http://www.w3.org/2000/svg">
<g clip-path="url(#clip0_1152_117)">
<path d="M12.0071 3.13582C11.9905 3.11963 11.9719 3.10253 11.9514 3.08453C11.7427 2.90356 11.4093 2.72042 10.9736 2.55907C10.0204 2.20695 8.70101 2.00091 7.28653 2.00091C5.87205 2.00091 4.55268 2.20804 3.59947 2.55907C3.16479 2.72042 2.83035 2.90356 2.62171 3.08562C2.47852 3.20989 2.43352 3.29057 2.43352 3.32436C2.43352 3.35706 2.47852 3.43883 2.62171 3.56419C2.83035 3.74516 3.16377 3.92831 3.59947 4.08965C4.55268 4.44177 5.87205 4.64781 7.28653 4.64781C7.42545 4.64781 7.56345 4.64581 7.70028 4.64187C7.48069 4.92086 7.30871 5.22469 7.18573 5.54252C5.033 5.5294 3.15589 5.09681 2.12464 4.45812C2.12327 5.15873 2.12225 5.85933 2.12158 6.55994V6.56103C2.65341 7.15625 4.08017 7.8823 5.82398 8.09815C6.31465 8.15911 6.80034 8.18649 7.27649 8.18253C7.43371 8.515 7.64972 8.83071 7.92615 9.11686C7.21268 9.15623 6.47913 9.13178 5.74318 9.04004C4.20052 8.84935 2.88675 8.35289 2.12158 7.7602V9.67996C2.65239 10.2763 4.08017 11.0023 5.82398 11.2193C6.27334 11.275 6.7185 11.3026 7.15597 11.3037C6.891 11.5936 6.73547 11.9109 6.67113 12.241C6.36311 12.2261 6.05335 12.1996 5.74318 12.1612C4.20256 11.9694 2.8888 11.474 2.12362 10.8813L2.12756 12.4308C2.48197 13.5006 4.43064 14.3545 7.31634 14.3707C7.55757 14.6904 7.85182 14.9917 8.18061 15.2596C7.93624 15.2717 7.67682 15.2779 7.40006 15.2779C3.98914 15.2779 1.73395 14.1278 1.30234 12.607L1.287 12.5525V12.4958L1.28086 10.1945C1.27842 7.93063 1.28013 5.66673 1.28598 3.40285C1.28339 3.37678 1.28202 3.35058 1.28189 3.32436C1.28291 2.09903 3.97073 1.1059 7.28653 1.1059C10.6023 1.1059 13.2902 2.09903 13.2902 3.32436C13.2905 3.37223 13.2867 3.42003 13.2789 3.46717C13.2872 3.49599 13.2919 3.52581 13.293 3.55588C12.8884 3.35209 12.4583 3.20815 12.0071 3.13582Z" fill="#4B4949"/>
<path fill-rule="evenodd" clip-rule="evenodd" d="M11.7238 4.25896C11.4207 3.95013 10.944 3.95105 10.6592 4.26102L8.55804 6.54764C8.4122 6.70635 8.33889 6.9246 8.35627 7.14833C8.37364 7.37207 8.48007 7.58038 8.64921 7.72168L10.9387 9.63434C11.269 9.9103 11.7417 9.85874 11.9945 9.51917C12.2472 9.17961 12.1844 8.68062 11.854 8.40466L10.9773 7.72168C12.4108 7.69337 13.8688 8.62529 14.1105 9.88509C14.1144 9.90502 14.1189 9.9248 14.1241 9.94441C14.2997 10.5997 14.1087 11.3054 13.6333 11.8906C13.1539 12.4807 12.4577 12.8523 11.801 12.8693C10.9676 12.8909 10.2182 12.4906 9.74114 11.8637C9.47751 11.5173 9.00298 11.4532 8.68125 11.7205C8.35952 11.9878 8.31243 12.4854 8.57607 12.8318C9.3502 13.849 10.5584 14.4877 11.882 14.4534C13.0172 14.424 14.0842 13.8095 14.7904 12.9403C15.4949 12.073 15.9105 10.8586 15.5809 9.58593C15.114 7.24133 12.8637 6.16758 10.9773 6.24757C10.971 6.24784 10.9647 6.2481 10.9584 6.24837L11.7569 5.37942C12.0417 5.06944 12.0269 4.5678 11.7238 4.25896Z" fill="#4B4949"/>
</g>
<defs>
<clipPath id="clip0_1152_117">
<rect width="16" height="16" fill="white"/>
</clipPath>
</defs>
</svg>
