<svg width="16" height="16" viewBox="0 0 16 16" fill="none" xmlns="http://www.w3.org/2000/svg">
<path d="M2.5 7.23871C1.83334 7.62361 1.83334 8.58586 2.5 8.97076L7.87493 12.074C8.54159 12.4589 9.3749 11.9777 9.3749 11.2079L9.3749 5.00157C9.3749 4.23177 8.54159 3.75057 7.87493 4.13547L2.5 7.23871Z" fill="#4B4949"/>
<path d="M7.55078 8.97075C6.88412 8.58585 6.88412 7.6236 7.55078 7.2387L9.37476 6.18561L9.37476 10.0238L7.55078 8.97075Z" fill="#4B4949"/>
<path d="M10.0748 10.428L10.0748 5.78146L12.9257 4.13546C13.5924 3.75056 14.4257 4.23176 14.4257 5.00156L14.4257 11.2079C14.4257 11.9777 13.5924 12.4589 12.9257 12.074L10.0748 10.428Z" fill="#4B4949"/>
</svg>
