<svg width="16" height="16" viewBox="0 0 16 16" fill="none" xmlns="http://www.w3.org/2000/svg">
<path d="M3.25 6.98939C3.25 6.44303 3.73517 6 4.33369 6H14.1663C14.7648 6 15.25 6.44303 15.25 6.98939V14.0107C15.25 14.5571 14.7648 15 14.1663 15H4.33369C3.73517 15 3.25 14.5571 3.25 14.0107V6.98939Z" fill="#4B4949"/>
<rect x="11.75" y="10" width="11" height="8" rx="1" transform="rotate(180 11.75 10)" fill="#F9F9F9"/>
<path fill-rule="evenodd" clip-rule="evenodd" d="M1.75 9.4H10.75C10.9709 9.4 11.15 9.22091 11.15 9V3C11.15 2.77909 10.9709 2.6 10.75 2.6H1.75C1.52909 2.6 1.35 2.77909 1.35 3V9C1.35 9.22091 1.52909 9.4 1.75 9.4ZM10.75 10C11.3023 10 11.75 9.55228 11.75 9V3C11.75 2.44772 11.3023 2 10.75 2H1.75C1.19772 2 0.75 2.44772 0.75 3V9C0.75 9.55228 1.19771 10 1.75 10H10.75Z" fill="#4B4949"/>
</svg>
