<svg width="16" height="16" viewBox="0 0 16 16" fill="none" xmlns="http://www.w3.org/2000/svg">
<path fill-rule="evenodd" clip-rule="evenodd" d="M3.30587 6.62433L4.58148 14.2458H10.4442L11.7943 6.62433H3.30587ZM2.73764 5.62433C2.44109 5.62433 2.21634 5.90467 2.26756 6.21068L3.71054 14.8321C3.75058 15.0713 3.94885 15.2458 4.18063 15.2458H10.8411C11.0711 15.2458 11.2684 15.0739 11.3103 14.837L12.8375 6.21556C12.892 5.90812 12.6668 5.62433 12.3683 5.62433H2.73764Z" fill="#4B4949"/>
<path d="M2.16504 3.58658C2.16504 3.10711 2.53288 2.71841 2.98663 2.71841H12.0241C12.4779 2.71841 12.8457 3.10711 12.8457 3.58658C12.8457 4.06606 12.4779 4.45475 12.0241 4.45475H2.98663C2.53288 4.45475 2.16504 4.06606 2.16504 3.58658Z" fill="#4B4949"/>
<path d="M5.66016 2.65088C5.66016 1.63179 6.48629 0.805664 7.50537 0.805664C8.52446 0.805664 9.3506 1.6318 9.35059 2.65089L9.35059 2.71841H5.66016L5.66016 2.65088Z" fill="#4B4949"/>
<path d="M6.43752 7.85712C6.72337 7.85712 6.95511 8.08886 6.95511 8.37472L6.95511 11.8788C6.95511 12.1646 6.72337 12.3964 6.43752 12.3964C6.15166 12.3964 5.91992 12.1646 5.91992 11.8788L5.91992 8.37472C5.91992 8.08886 6.15166 7.85712 6.43752 7.85712Z" fill="#4B4949"/>
<path d="M8.57326 7.85712C8.85912 7.85712 9.09085 8.08886 9.09085 8.37472V11.8788C9.09085 12.1646 8.85912 12.3964 8.57326 12.3964C8.2874 12.3964 8.05566 12.1646 8.05566 11.8788L8.05566 8.37472C8.05566 8.08886 8.2874 7.85712 8.57326 7.85712Z" fill="#4B4949"/>
</svg>
