<svg width="16" height="16" viewBox="0 0 16 16" fill="none" xmlns="http://www.w3.org/2000/svg">
<g clip-path="url(#clip0_465_13677)">
<path fill-rule="evenodd" clip-rule="evenodd" d="M1.81048 3.64647C1.54226 3.49161 1.20699 3.68518 1.20699 3.99489V11.2825C1.20699 11.5923 1.54226 11.7858 1.81048 11.631L8.12176 7.98714C8.38998 7.83229 8.38998 7.44515 8.12177 7.29029L1.81048 3.64647ZM0 3.99489C0 2.75604 1.3411 1.98176 2.41397 2.60119L8.72526 6.24501C9.79814 6.86444 9.79814 8.413 8.72526 9.03243L2.41397 12.6762C1.34109 13.2957 0 12.5214 0 11.2825V3.99489Z" fill="#4B4949"/>
<path fill-rule="evenodd" clip-rule="evenodd" d="M2.22607 14.5109C2.23804 14.832 2.46914 15.0881 2.75246 15.0881L14.832 15.0881C15.123 15.0881 15.3589 14.8179 15.3589 14.4847V14.183C15.3589 13.8497 15.123 13.5796 14.832 13.5796L4.1066 13.5796L3.14884 14.1325C2.84829 14.3061 2.53836 14.4308 2.22607 14.5109ZM6.76722 12.0435C6.83729 12.146 6.93195 12.209 7.03614 12.209L14.968 12.209C15.1839 12.209 15.3589 11.9388 15.3589 11.6056V11.3039C15.3589 10.9706 15.1839 10.7004 14.968 10.7004L9.0934 10.7004L6.76722 12.0435Z" fill="#B1AFAF"/>
<path d="M10.9209 8.91181C10.9665 8.92204 11.0147 8.92752 11.0645 8.92752L14.8323 8.92752C15.1232 8.92752 15.3591 8.74038 15.3591 8.50953V7.54938C15.3591 7.31852 15.1232 7.13139 14.8323 7.13139L11.2576 7.13139C11.2959 7.73831 11.1836 8.35351 10.9209 8.91181Z" fill="#4B4949"/>
<path d="M10.4452 5.06462L14.9681 5.06462C15.1839 5.06462 15.359 4.79446 15.359 4.46121V4.1595C15.359 3.82624 15.1839 3.55609 14.9681 3.55609H8.28057L9.46027 4.2372C9.8525 4.46365 10.1808 4.74548 10.4452 5.06462Z" fill="#4B4949"/>
<path d="M6.31353 2.42042L14.8321 2.42042C15.1231 2.42042 15.359 2.15026 15.359 1.81701V1.51531C15.359 1.18204 15.1231 0.911896 14.8321 0.911896H3.70068L6.31353 2.42042Z" fill="#4B4949"/>
</g>
<defs>
<clipPath id="clip0_465_13677">
<rect width="16" height="16" fill="white"/>
</clipPath>
</defs>
</svg>
