<svg width="16" height="16" viewBox="0 0 17 16" fill="none" xmlns="http://www.w3.org/2000/svg">
<path d="M15.3643 13.3901L9.36552 3C8.98062 2.33333 8.01837 2.33333 7.63347 3L1.63472 13.3901C1.24982 14.0568 1.73094 14.8901 2.50075 14.8901H14.4982C15.268 14.8901 15.7492 14.0568 15.3643 13.3901Z" stroke="#4B4949"/>
<path d="M8.49951 13.6458C8.94927 13.6458 9.31387 13.2807 9.31387 12.8303C9.31387 12.38 8.94927 12.0149 8.49951 12.0149C8.04975 12.0149 7.68515 12.38 7.68515 12.8303C7.68515 13.2807 8.04975 13.6458 8.49951 13.6458Z" fill="#4B4949"/>
<path d="M7.68611 5.81408L8.03515 11.0566C8.05037 11.2851 8.2277 11.4624 8.44134 11.4624H8.49743C8.71107 11.4624 8.8884 11.2852 8.90362 11.0566L9.25265 5.81408C9.26949 5.56116 9.0828 5.34607 8.84646 5.34607H8.09235C7.85597 5.34607 7.66928 5.5612 7.68611 5.81408Z" fill="#4B4949"/>
</svg>
