<svg width="16" height="16" viewBox="0 0 16 16" fill="none" xmlns="http://www.w3.org/2000/svg">
<path d="M8.36426 0.254913C8.91654 0.254913 9.36426 0.702629 9.36426 1.25491V1.47559H11.3601C11.9124 1.47559 12.3601 1.9233 12.3601 2.47559V4.52002H11.5601V2.47559C11.5601 2.36513 11.4706 2.27559 11.3601 2.27559H2.85791C2.74745 2.27559 2.65791 2.36513 2.65791 2.47559V11.6274C2.65791 11.7378 2.74745 11.8274 2.85791 11.8274H3.85693V12.6274H2.85791C2.30563 12.6274 1.85791 12.1797 1.85791 11.6274V2.47559C1.85791 1.9233 2.30563 1.47559 2.85791 1.47559H4.85292V1.25491C4.85292 0.702628 5.30064 0.254913 5.85292 0.254913H8.36426Z" fill="#4B4949"/>
<path fill-rule="evenodd" clip-rule="evenodd" d="M5.86963 6.43092C5.86963 5.6203 6.57179 4.96317 7.43796 4.96317H11.0229C11.1175 4.96317 11.2081 4.99831 11.275 5.06087L14.8726 8.42781C14.9395 8.49037 14.977 8.57522 14.977 8.66369L14.9771 15.1387C14.9771 15.3229 14.8175 15.4722 14.6207 15.4722H6.22619C6.13164 15.4722 6.04096 15.437 5.97412 15.3744C5.90727 15.3119 5.86973 15.227 5.86975 15.1385L5.8699 14.6482L5.86963 6.43092ZM7.43796 5.63033C6.9655 5.63033 6.5825 5.98877 6.5825 6.43092L6.58273 14.805H14.2643L14.2641 8.99727L11.9691 8.99727C11.8125 8.99728 11.6741 8.99728 11.5594 8.98852C11.4374 8.97919 11.3113 8.95829 11.1885 8.89976C11.0085 8.81395 10.8624 8.67704 10.7707 8.50877C10.7082 8.39389 10.6858 8.27578 10.6758 8.16157C10.6665 8.05427 10.6665 7.92476 10.6665 7.77821L10.6665 5.63033H7.43796ZM11.3794 6.10208L13.7601 8.33011H11.9823C11.8085 8.33011 11.6996 8.32985 11.6175 8.32357C11.5395 8.31761 11.5176 8.30793 11.5121 8.30531C11.4664 8.28352 11.4292 8.24873 11.4059 8.20584M11.3794 6.10208V7.76584C11.3794 7.92848 11.3796 8.0304 11.3864 8.10724C11.3927 8.18006 11.403 8.20065 11.4059 8.20584" fill="#4B4949"/>
</svg>
