<svg width="16" height="16" viewBox="0 0 16 16" fill="none" xmlns="http://www.w3.org/2000/svg">
<g clip-path="url(#clip0_606_1703)">
<path d="M9.56986 1.15498C9.07016 1.10382 8.54366 1.07648 7.99987 1.07648C4.7601 1.07648 2.13391 2.04683 2.13291 3.24407C2.13304 3.26969 2.13438 3.29529 2.13691 3.32076C2.13219 5.14664 2.13023 6.97252 2.13103 8.7984C2.18182 8.77264 2.23349 8.74824 2.28596 8.72517C2.50077 8.63075 2.72389 8.56175 2.95315 8.51549C2.95303 7.7758 2.95296 6.80483 2.95335 6.40546C2.954 5.72092 2.955 5.03638 2.95635 4.35184C3.89228 4.9315 5.5413 5.33741 7.45687 5.40249C7.42605 5.12049 7.42302 4.8266 7.45024 4.52648C6.27895 4.48069 5.20398 4.28978 4.39735 3.99181C3.97165 3.83417 3.64587 3.65522 3.44201 3.47841C3.30211 3.35591 3.25814 3.27603 3.25814 3.24407C3.25814 3.21105 3.30211 3.13223 3.44201 3.0108C3.64587 2.83292 3.97265 2.65398 4.39735 2.49633C5.32871 2.15335 6.61782 1.95097 7.99987 1.95097C8.17495 1.95097 8.34854 1.9542 8.5201 1.96054C8.83042 1.60847 9.18854 1.33329 9.56986 1.15498Z" fill="#4B4949"/>
<path d="M13.0354 9.52998L11.8926 9.54162V11.2448C12.2993 11.0784 12.6822 10.8843 13.0354 10.664L13.0413 12.4491C13.0044 12.4856 12.9655 12.5235 12.9245 12.5621C12.8031 12.676 12.7221 12.7385 12.6191 12.8181L12.5617 12.8624C12.3625 13.0175 12.1592 13.1365 11.8926 13.2776V14.2102C12.0088 14.1553 12.1235 14.0976 12.238 14.0373C12.5437 13.8754 12.8086 13.6869 13.0414 13.5058C13.0617 13.49 13.0897 13.4685 13.1231 13.443V9.51137H13.0355L13.0354 9.52998Z" fill="#4B4949"/>
<path d="M9.55464 9.56545L7.86453 9.58267C7.73869 9.62655 7.61746 9.68067 7.50086 9.74504C7.13928 9.94465 6.85119 10.2355 6.6366 10.6177L6.62834 10.6325C6.56044 10.7562 6.50332 10.8885 6.45698 11.0294C6.38457 11.2496 6.3385 11.4909 6.31877 11.7532L6.31735 11.7727L6.31592 11.794C6.31463 11.814 6.3135 11.8341 6.31251 11.8544C6.37194 11.8628 6.43175 11.8707 6.49191 11.8782C6.85065 11.9227 7.20883 11.9509 7.56428 11.9631C7.56609 11.8975 7.56983 11.834 7.5755 11.7727C7.59498 11.5622 7.63721 11.3768 7.70221 11.2166C7.79667 10.9879 7.93173 10.8148 8.10739 10.6971C8.28306 10.5794 8.49269 10.5206 8.7363 10.5206C8.98156 10.5206 9.1912 10.5794 9.36521 10.6971C9.54087 10.8148 9.6751 10.9879 9.76791 11.2166C9.83773 11.3857 9.88175 11.5828 9.89996 11.808C10.3239 11.7349 10.7354 11.6373 11.1302 11.5164C11.0876 11.2236 11.0084 10.9598 10.8926 10.725C10.8772 10.6937 10.861 10.6628 10.8443 10.6325C10.6288 10.243 10.3372 9.94722 9.96925 9.74504C9.83689 9.67197 9.69869 9.61211 9.55464 9.56545Z" fill="#4B4949"/>
<path d="M3.71094 9.625L3.14437 9.49707C2.98293 9.53012 2.83092 9.57797 2.68836 9.64064C2.46798 9.73751 2.28255 9.86224 2.13207 10.0149L2.13729 11.9711C2.30886 12.1154 2.52073 12.233 2.77288 12.3239C2.87248 12.3598 2.97836 12.3915 3.09054 12.4191C3.03438 12.3286 2.99044 12.236 2.95919 12.1417L2.95535 10.6277C2.99155 10.6558 3.02901 10.6836 3.06769 10.7112C3.07196 10.7048 3.07644 10.6984 3.08112 10.6921C3.13415 10.6192 3.21369 10.562 3.31975 10.5206C3.42581 10.4792 3.55839 10.4585 3.71748 10.4585L3.73581 10.4586L3.74811 10.4587C3.94577 10.4624 4.10433 10.5023 4.2238 10.5784C4.24057 10.5891 4.25658 10.6005 4.27181 10.6126C4.31079 10.6427 4.3447 10.6764 4.37355 10.7137L4.38043 10.7228C4.44427 10.8091 4.48181 10.914 4.49305 11.0377H5.67131C5.66934 10.849 5.63939 10.6738 5.58147 10.5122C5.54223 10.4028 5.49015 10.2995 5.42522 10.2024C5.38637 10.1444 5.3437 10.0894 5.29721 10.0377C5.15132 9.87517 4.96778 9.74366 4.7466 9.64312C4.72566 9.63343 4.70445 9.62409 4.68296 9.61509L3.71094 9.625Z" fill="#4B4949"/>
<path d="M2.42797 12.907C2.86081 13.5653 3.68357 14.116 4.82404 14.4746C5.11576 14.3524 5.34018 14.1787 5.49731 13.9535C5.53493 13.8996 5.56819 13.8432 5.5971 13.7843C5.14339 13.6828 4.73934 13.5539 4.39091 13.4031C4.3282 13.4796 4.23962 13.5396 4.12515 13.5831C4.00915 13.6279 3.86828 13.6502 3.70256 13.6502C3.52193 13.6502 3.36284 13.6221 3.22529 13.5657C3.13841 13.5297 3.06338 13.4828 3.0002 13.4251C2.97647 13.4034 2.9544 13.3802 2.93401 13.3555L2.93091 13.3517C2.92181 13.3405 2.91305 13.329 2.90462 13.3171C2.82674 13.2078 2.78282 13.071 2.77288 12.907H2.42797Z" fill="#4B4949"/>
<path d="M9.8628 14.8133C10.2125 14.7629 10.5274 14.696 10.8196 14.614L10.3818 14.0741C10.4081 14.0501 10.4339 14.0254 10.4591 14L10.4738 13.9851C10.5463 13.9106 10.614 13.8302 10.677 13.744C9.94469 13.9389 9.09375 14.0373 8.1108 14.0373C7.72671 14.0373 7.35928 14.0222 7.01012 13.9935C7.15503 14.1405 7.31861 14.2647 7.50086 14.3661C7.79276 14.5286 8.1136 14.6263 8.4634 14.6593C8.55249 14.6677 8.64345 14.6719 8.7363 14.6719C8.78243 14.6719 8.8281 14.6709 8.87331 14.6688C8.90675 14.6672 8.93994 14.6651 8.97287 14.6625C9.15375 14.6478 9.32706 14.6161 9.49282 14.5673C9.50566 14.5635 9.51847 14.5597 9.53123 14.5557C9.55938 14.5469 9.58731 14.5376 9.61502 14.5278L9.62199 14.5253L9.8628 14.8133Z" fill="#4B4949"/>
<path d="M11.8926 11.8491V12.4673C11.912 12.4809 11.9326 12.4924 11.9542 12.5017C11.997 12.5202 12.0429 12.5295 12.0891 12.529L12.0901 12.528C12.2859 12.528 12.4458 12.3618 12.4458 12.1573C12.4458 11.9528 12.2859 11.7866 12.0901 11.7866C12.0171 11.7866 11.9492 11.8097 11.8926 11.8491Z" fill="#4B4949"/>
<path d="M12.9811 1.83672C12.6803 2.13758 12.6803 2.62536 12.9811 2.92621L14.1815 4.12659L12.9811 5.32696C12.6803 5.62781 12.6803 6.11559 12.9811 6.41645C13.282 6.7173 13.7697 6.7173 14.0706 6.41645L15.7745 4.71255C15.9354 4.55163 16.0103 4.33722 15.999 4.12655C16.0103 3.9159 15.9354 3.70153 15.7745 3.54062L14.0706 1.83672C13.7697 1.53587 13.282 1.53587 12.9811 1.83672Z" fill="#4B4949"/>
<path fill-rule="evenodd" clip-rule="evenodd" d="M9.85481 3.83766C10.4542 3.43018 11.3159 3.35242 12.02 3.35242L13.6855 3.35246C14.1614 3.35246 14.5472 3.73828 14.5472 4.2142C14.5472 4.69013 14.1614 5.07595 13.6855 5.07595L12.02 5.0759C11.6141 5.0759 10.8804 5.11881 10.6036 5.30699C10.3404 5.48589 9.85481 5.96047 9.85481 5.96047L8.77297 7.33182L8.77295 5.10962C8.77295 5.10962 9.24179 4.25441 9.85481 3.83766Z" fill="#4B4949"/>
<path d="M4.49219 11.031C4.47562 10.8487 4.40187 10.707 4.27095 10.6059C4.14169 10.5032 3.95691 10.4518 3.71662 10.4518C3.55753 10.4518 3.42495 10.4725 3.31889 10.514C3.21283 10.5554 3.13329 10.6126 3.08026 10.6855C3.02723 10.7567 2.99988 10.8388 2.99822 10.9316C2.99491 11.0078 3.00982 11.0749 3.04297 11.1329C3.07777 11.1909 3.12749 11.2423 3.19212 11.287C3.2584 11.3301 3.33795 11.3682 3.43075 11.4014C3.52356 11.4345 3.62796 11.4635 3.74396 11.4884L4.18146 11.5878C4.43336 11.6425 4.65542 11.7154 4.84766 11.8066C5.04155 11.8977 5.20395 12.0063 5.33487 12.1322C5.46745 12.2582 5.56771 12.4032 5.63565 12.5672C5.7036 12.7313 5.7384 12.9152 5.74006 13.1191C5.7384 13.4406 5.6572 13.7165 5.49645 13.9468C5.3357 14.1772 5.10452 14.3537 4.80291 14.4763C4.50296 14.5989 4.14086 14.6603 3.71662 14.6603C3.29072 14.6603 2.91951 14.5965 2.60298 14.4689C2.28646 14.3413 2.04036 14.1474 1.8647 13.8872C1.68904 13.627 1.59872 13.298 1.59375 12.9003H2.77202C2.78196 13.0644 2.82588 13.2011 2.90376 13.3105C2.98165 13.4198 3.08854 13.5027 3.22443 13.5591C3.36198 13.6154 3.52107 13.6436 3.7017 13.6436C3.86742 13.6436 4.00829 13.6212 4.12429 13.5765C4.24195 13.5317 4.33227 13.4696 4.39524 13.39C4.45822 13.3105 4.49053 13.2193 4.49219 13.1166C4.49053 13.0205 4.4607 12.9384 4.4027 12.8705C4.3447 12.8009 4.25521 12.7412 4.13423 12.6915C4.01491 12.6401 3.86245 12.5929 3.67685 12.5498L3.14489 12.4255C2.70407 12.3244 2.35689 12.1612 2.10334 11.9358C1.84979 11.7088 1.72384 11.4022 1.7255 11.0161C1.72384 10.7012 1.80836 10.4253 1.97905 10.1883C2.14974 9.95134 2.38589 9.76656 2.6875 9.63398C2.98911 9.50141 3.33298 9.43512 3.71911 9.43512C4.11352 9.43512 4.45573 9.50224 4.74574 9.63647C5.03741 9.76904 5.26361 9.95548 5.42436 10.1958C5.58511 10.4361 5.66714 10.7145 5.67045 11.031H4.49219Z" fill="#4B4949"/>
<path d="M8.30788 12.7661H9.3022L9.72479 13.3055L10.2791 13.9419L11.1317 14.9934H10.0181L9.42152 14.2799L9.06854 13.7728L8.30788 12.7661ZM11.1665 12.0502C11.1665 12.6103 11.0588 13.0851 10.8434 13.4745C10.628 13.864 10.3363 14.1598 9.9684 14.362C9.60215 14.5641 9.19117 14.6652 8.73544 14.6652C8.27805 14.6652 7.86624 14.5633 7.5 14.3595C7.13376 14.1556 6.84292 13.8598 6.62749 13.4721C6.41371 13.0826 6.30682 12.6087 6.30682 12.0502C6.30682 11.49 6.41371 11.0153 6.62749 10.6258C6.84292 10.2364 7.13376 9.94056 7.5 9.73839C7.86624 9.53621 8.27805 9.43512 8.73544 9.43512C9.19117 9.43512 9.60215 9.53621 9.9684 9.73839C10.3363 9.94056 10.628 10.2364 10.8434 10.6258C11.0588 11.0153 11.1665 11.49 11.1665 12.0502ZM9.90874 12.0502C9.90874 11.7187 9.86151 11.4387 9.76705 11.21C9.67424 10.9813 9.54001 10.8081 9.36435 10.6904C9.19034 10.5728 8.98071 10.514 8.73544 10.514C8.49183 10.514 8.2822 10.5728 8.10653 10.6904C7.93087 10.8081 7.79581 10.9813 7.70135 11.21C7.60855 11.4387 7.56214 11.7187 7.56214 12.0502C7.56214 12.3816 7.60855 12.6617 7.70135 12.8904C7.79581 13.1191 7.93087 13.2922 8.10653 13.4099C8.2822 13.5276 8.49183 13.5864 8.73544 13.5864C8.98071 13.5864 9.19034 13.5276 9.36435 13.4099C9.54001 13.2922 9.67424 13.1191 9.76705 12.8904C9.86151 12.6617 9.90874 12.3816 9.90874 12.0502Z" fill="#4B4949"/>
<path d="M11.8918 14.5956V9.50472H13.1222V13.5963H15.2401V14.5956H11.8918Z" fill="#4B4949"/>
</g>
<defs>
<clipPath id="clip0_606_1703">
<rect width="16" height="16" fill="white"/>
</clipPath>
</defs>
</svg>
