<svg width="16" height="16" viewBox="0 0 16 16" fill="none" xmlns="http://www.w3.org/2000/svg">
<path d="M2.04953 6.55712C2.05319 6.24943 2.30558 6.00296 2.61327 6.00662L5.64962 6.0427C5.95731 6.04635 6.20377 6.29875 6.20012 6.60644C6.19646 6.91413 5.94407 7.16059 5.63638 7.15694L2.60003 7.12086C2.29234 7.1172 2.04588 6.86481 2.04953 6.55712Z" fill="#4B4949"/>
<path d="M2.00644 10.1841C2.01009 9.87637 2.26249 9.62991 2.57018 9.63356L5.60652 9.66964C5.91421 9.6733 6.16068 9.92569 6.15702 10.2334C6.15337 10.5411 5.90097 10.7875 5.59328 10.7839L2.55694 10.7478C2.24925 10.7441 2.00278 10.4918 2.00644 10.1841Z" fill="#4B4949"/>
<path fill-rule="evenodd" clip-rule="evenodd" d="M7.44337 13.5657C4.69521 13.3773 1.65806 13.1798 1.09307 13.1431C1.04046 13.1397 0.999999 13.096 0.999999 13.0433L1.00015 3.16498C1.00015 3.10586 1.05116 3.05965 1.11 3.06547L7.94337 3.74178L14.7771 3.06547C14.8359 3.05965 14.8869 3.10586 14.887 3.16498L14.8871 13.0423C14.8871 13.0955 14.8467 13.1393 14.7937 13.1422C14.2615 13.1718 11.5276 13.3271 8.44337 13.5616C8.27762 13.5742 8.11085 13.587 7.94337 13.6001C7.7782 13.5887 7.61132 13.5772 7.44337 13.5657ZM7.9478 14.6028L7.87447 14.5977C5.00903 14.3998 1.62774 14.1799 1.02832 14.141C0.443762 14.1031 -8.52334e-06 13.6172 1.2278e-10 13.0433L0.000146389 3.16497C0.000155985 2.51464 0.561316 2.00628 1.20849 2.07033L7.94337 2.73689L14.6786 2.07033C15.3258 2.00629 15.8869 2.51463 15.887 3.16497L15.8871 13.0423C15.8871 13.6119 15.4462 14.1075 14.8492 14.1407C14.2913 14.1717 11.2943 14.3419 8.02108 14.5971L7.9478 14.6028Z" fill="#4B4949"/>
<path d="M7.48535 3.1991H8.4016V13.6001H7.48535V3.1991Z" fill="#4B4949"/>
</svg>
