<svg width="16" height="16" viewBox="0 0 16 16" fill="none" xmlns="http://www.w3.org/2000/svg">
<path d="M5.12099 4.73429L5.82887 3.91027C6.19065 3.47901 6.1455 2.82446 5.73073 2.451C5.31984 2.08096 4.69824 2.12466 4.33924 2.55189L4.33826 2.55305L2.00634 5.28572L1.99013 5.30437C1.97975 5.3152 1.96911 5.32693 1.95839 5.33924C1.58745 5.76423 1.62045 6.42184 2.02997 6.80461L2.03933 6.81395L4.32024 9.24774C4.72591 9.62225 5.34635 9.58878 5.71236 9.16926C6.08325 8.74415 6.05022 8.08663 5.64073 7.70387L5.63324 7.69687L4.79861 6.73887H9.92313C10.5724 6.73887 11.1945 7.00584 11.6528 7.4802C12.111 7.95447 12.368 8.59728 12.368 9.26715C12.368 9.93701 12.111 10.5798 11.6528 11.0541C11.1945 11.5285 10.5724 11.7954 9.92313 11.7954H7.4867C6.95887 11.7954 6.52063 12.2384 6.52063 12.7977C6.52063 13.3571 6.95887 13.8 7.4867 13.8H9.92313C11.0832 13.8 12.1963 13.323 13.0174 12.4732C13.8385 11.6232 14.3002 10.47 14.3002 9.26715C14.3002 8.06428 13.8385 6.91107 13.0174 6.06113C12.1963 5.21126 11.0832 4.73429 9.92313 4.73429H5.12099Z" fill="#4B4949"/>
</svg>
