<svg width="16" height="16" viewBox="0 0 16 16" fill="none" xmlns="http://www.w3.org/2000/svg">
<path fill-rule="evenodd" clip-rule="evenodd" d="M0.861622 8.00004C0.860921 9.02989 1.28217 9.97314 1.95765 10.6467C2.63114 11.322 3.57479 11.7438 4.60485 11.7434C5.6345 11.7441 6.57785 11.3229 7.25169 10.6473C7.72637 10.1738 8.07343 9.56305 8.23843 8.88308L8.30334 8.61558L11.354 8.61567L11.3539 10.466L12.2834 10.466L12.2834 8.61578L14.2246 8.61578L14.2246 10.4659L15.1385 10.4659L15.1387 7.38477L8.30338 7.38446L8.2385 7.11698C8.07355 6.43695 7.72717 5.82686 7.25253 5.35334C6.57875 4.67783 5.63517 4.256 4.6055 4.25659C3.57557 4.25586 2.63214 4.67708 1.95856 5.3524C1.28299 6.02597 0.860994 6.97006 0.861622 8.00004ZM10.654 9.31587L8.84498 9.31565C8.62954 10.0129 8.24975 10.6403 7.747 11.1419C6.94678 11.9441 5.82745 12.4442 4.60493 12.4434C3.3823 12.4438 2.26302 11.944 1.46305 11.142C0.660926 10.342 0.160855 9.2224 0.161622 7.9998C0.160935 6.77701 0.661113 5.6577 1.46329 4.85772C2.26328 4.05585 3.3826 3.55578 4.60535 3.55659C5.82797 3.55596 6.94737 4.05618 7.74753 4.85838C8.25011 5.35998 8.62975 5.98729 8.8451 6.68448L15.8387 6.6848L15.8385 11.166L13.5246 11.1658L13.5246 9.31578L12.9834 9.31578L12.9834 11.166L10.6539 11.166L10.654 9.31587ZM3.24324 9.3598C2.89476 9.00862 2.68126 8.53585 2.68072 8.00016C2.6813 7.46476 2.89484 6.99126 3.24335 6.64013L3.24508 6.63839C3.5963 6.28945 4.06933 6.07662 4.60457 6.07565L4.60584 6.07565C5.14098 6.07662 5.6137 6.28974 5.96473 6.63836L5.96644 6.64007C6.31504 6.99112 6.52851 7.46393 6.52907 7.99959C6.52843 8.53518 6.31501 9.00895 5.96634 9.35999L5.96464 9.3617C5.61354 9.71035 5.14081 9.92341 4.60566 9.92431L4.60447 9.92431C4.06918 9.92337 3.59615 9.71038 3.24502 9.36158L3.24324 9.3598ZM3.73923 8.86584C3.9654 9.09008 4.26336 9.22356 4.6051 9.22431C4.94647 9.22358 5.24422 9.09017 5.47052 8.86586C5.69498 8.63948 5.82857 8.34148 5.82907 7.99992C5.8286 7.65846 5.69507 7.36063 5.47059 7.13417C5.24436 6.9099 4.9466 6.77644 4.60521 6.77565C4.26339 6.77644 3.96547 6.90985 3.7393 7.13413C3.5147 7.36084 3.38118 7.65874 3.38072 7.99983C3.38116 8.34125 3.51468 8.63913 3.73923 8.86584Z" fill="#4B4949"/>
</svg>
