<svg width="16" height="16" viewBox="0 0 16 16" fill="none" xmlns="http://www.w3.org/2000/svg">
<path d="M8.1038 10.3951C9.45482 10.3951 10.55 9.31619 10.55 7.98527C10.55 6.65434 9.45482 5.57541 8.1038 5.57541C6.75279 5.57541 5.65757 6.65434 5.65757 7.98527C5.65757 9.31619 6.75279 10.3951 8.1038 10.3951Z" fill="#4B4949"/>
<path fill-rule="evenodd" clip-rule="evenodd" d="M15.5 7.9853C14.3865 10.7276 10.8708 12.5 8.10352 12.5C5.33623 12.5 1.61347 10.7276 0.5 7.9853C1.61347 5.24301 5.33623 3.5 8.10352 3.5C10.8708 3.5 14.3865 5.24301 15.5 7.9853ZM11.749 10.1374C12.7455 9.56327 13.5455 8.81683 14.0234 7.98559C13.5466 7.15816 12.7488 6.41856 11.7537 5.85058C10.5689 5.17437 9.22646 4.81322 8.10352 4.81322C6.97541 4.81322 5.57454 5.17732 4.33131 5.86097C3.28738 6.43502 2.46137 7.17383 1.98061 7.98559C2.46251 8.80116 3.29076 9.54672 4.33597 10.1269C5.58045 10.8177 6.9797 11.1868 8.10352 11.1868C9.22204 11.1868 10.5629 10.8208 11.749 10.1374Z" fill="#4B4949"/>
</svg>
