<svg width="16" height="16" viewBox="0 0 16 16" fill="none" xmlns="http://www.w3.org/2000/svg">
<g clip-path="url(#clip0_475_3097)">
<path fill-rule="evenodd" clip-rule="evenodd" d="M4.82324 5.32207C4.54163 4.95558 4.0235 4.89249 3.66597 5.18117L0.360419 7.8501C-0.133026 8.24852 -0.117241 9.02031 0.392063 9.39718L3.69355 11.8401C4.06257 12.1132 4.57766 12.0279 4.84404 11.6496C5.11042 11.2714 5.02722 10.7433 4.65819 10.4703L2.11216 8.58633L4.68578 6.50837C5.04331 6.21969 5.10485 5.68857 4.82324 5.32207Z" fill="#4B4949"/>
<path fill-rule="evenodd" clip-rule="evenodd" d="M11.1768 5.32207C11.4584 4.95558 11.9765 4.89249 12.334 5.18117L15.6396 7.8501C16.133 8.24852 16.1172 9.02031 15.6079 9.39718L12.3065 11.8401C11.9374 12.1132 11.4223 12.0279 11.156 11.6496C10.8896 11.2714 10.9728 10.7433 11.3418 10.4703L13.8878 8.58633L11.3142 6.50837C10.9567 6.21969 10.8951 5.68857 11.1768 5.32207Z" fill="#4B4949"/>
<rect x="8.24561" y="2.61392" width="1.50362" height="11.9188" rx="0.75181" transform="rotate(9.53288 8.24561 2.61392)" fill="#4B4949"/>
</g>
<defs>
<clipPath id="clip0_475_3097">
<rect width="16" height="16" fill="white"/>
</clipPath>
</defs>
</svg>
