<svg width="16" height="16" viewBox="0 0 16 16" fill="none" xmlns="http://www.w3.org/2000/svg">
<path d="M11.055 12.9462C11.4103 13.2543 12.0043 13.2683 12.3806 12.9775L14.2877 11.373C14.3111 11.3562 14.3341 11.3383 14.3561 11.3193C14.6953 11.0259 14.6992 10.5624 14.3561 10.2651C14.3341 10.2461 14.3111 10.2282 14.2877 10.2114L12.3806 8.77549C12.0038 8.48464 11.4103 8.49863 11.055 8.80672C10.6991 9.11481 10.7162 9.60034 11.0931 9.89119L11.339 10.081H5.74035C5.2447 10.081 4.84289 10.4096 4.84289 10.815C4.84289 11.2203 5.2447 11.549 5.74035 11.549L11.4983 11.549L11.0931 11.8618C10.7167 12.1526 10.6996 12.6381 11.055 12.9462Z" fill="#4B4949"/>
<path fill-rule="evenodd" clip-rule="evenodd" d="M3.4027 1.02275C2.29019 1.02275 1.38833 1.86678 1.38833 2.90795L1.38818 14.2676C1.38815 14.3812 1.43637 14.4902 1.52223 14.5706C1.60809 14.651 1.72455 14.6961 1.846 14.6961H11.3639C10.9593 14.5756 10.5694 14.358 10.2317 14.0655C10.1505 13.9952 10.0745 13.9196 10.0041 13.8392H2.30394L2.30395 2.90795C2.30395 2.34004 2.79588 1.87966 3.4027 1.87966H7.54946L7.54946 4.63842C7.54945 4.82664 7.54945 4.993 7.56148 5.13081C7.57428 5.2775 7.60299 5.4292 7.68333 5.57676C7.80104 5.79289 7.98878 5.96873 8.21995 6.07895C8.37761 6.15413 8.53965 6.18097 8.69637 6.19295C8.84363 6.20421 9.02137 6.2042 9.2225 6.20419L12.1703 6.20419L12.1703 7.08561C12.4854 7.14306 12.7952 7.27001 13.0859 7.46601L13.0859 5.77574C13.0859 5.66211 13.0377 5.55313 12.9518 5.47278L8.331 1.14824C8.24514 1.06789 8.12869 1.02275 8.00728 1.02275H3.4027ZM11.5229 5.34728L8.46509 2.48559V4.62253C8.46509 4.83143 8.46544 4.96234 8.47406 5.06103C8.48223 5.15456 8.4955 5.181 8.49913 5.18767C8.52914 5.24276 8.57692 5.28745 8.63562 5.31543C8.64269 5.3188 8.67082 5.33123 8.77093 5.33889C8.87639 5.34695 9.01627 5.34728 9.2395 5.34728H11.5229Z" fill="#4B4949"/>
<path d="M13.0859 9.35403L12.3142 8.75809C12.2651 8.72013 12.2173 8.68741 12.1703 8.65991L12.1703 13.0609C12.2161 13.0327 12.2637 12.9991 12.3142 12.9601L13.0858 12.3642L13.0859 9.35403Z" fill="#4B4949"/>
</svg>
