<svg width="16" height="16" viewBox="0 0 16 16" fill="none" xmlns="http://www.w3.org/2000/svg">
<g clip-path="url(#clip0_1036_26)">
<path d="M9.20189 3.58222C8.80923 3.52802 8.40798 3.5 8 3.5C4.82431 3.5 2.05655 5.1979 0.569296 7.72024C0.476901 7.87694 0.476901 8.07145 0.569296 8.22815C1.27963 9.43286 2.28207 10.4495 3.48155 11.1829L4.08605 10.3797C3.07534 9.77936 2.21894 8.95368 1.58737 7.97419C2.93233 5.88833 5.29687 4.5 8 4.5C8.16776 4.5 8.33422 4.50535 8.49921 4.51588L9.20189 3.58222Z" fill="#4B4949"/>
<path d="M11.9818 5.6095L12.5858 4.80706C13.7554 5.5371 14.7337 6.53813 15.4307 7.72024C15.5231 7.87694 15.5231 8.07145 15.4307 8.22815C13.9434 10.7505 11.1757 12.4484 8 12.4484C7.62303 12.4484 7.25181 12.4245 6.88779 12.3781L7.59532 11.438C7.7293 11.4449 7.86422 11.4484 8 11.4484C10.7031 11.4484 13.0677 10.0601 14.4126 7.97419C13.7952 7.01671 12.963 6.20621 11.9818 5.6095Z" fill="#4B4949"/>
<path d="M7.76732 5.48835C6.53323 5.60555 5.56787 6.64484 5.56787 7.90961C5.56787 8.06223 5.58193 8.21156 5.60881 8.35638L7.76732 5.48835Z" fill="#4B4949"/>
<path d="M8.45174 10.3L10.4219 7.68223C10.4288 7.75709 10.4324 7.83294 10.4324 7.90961C10.4324 9.0986 9.57925 10.0883 8.45174 10.3Z" fill="#4B4949"/>
<path fill-rule="evenodd" clip-rule="evenodd" d="M12.9924 1.26874C12.6803 1.04137 12.3177 1.00218 12.1824 1.18119L2.11039 14.5116C1.97511 14.6907 2.11854 15.0201 2.43062 15.2475C2.7427 15.4748 3.10532 15.5141 3.24059 15.3351L13.3126 2.00456C13.4478 1.82554 13.3045 1.49611 12.9924 1.26874Z" fill="#4B4949"/>
</g>
<defs>
<clipPath id="clip0_1036_26">
<rect width="16" height="16" fill="white"/>
</clipPath>
</defs>
</svg>
