<svg width="12" height="12" viewBox="0 0 12 12" fill="none" xmlns="http://www.w3.org/2000/svg">
    <g clip-path="url(#clip0_136_468)">
        <circle cx="6" cy="6" r="6" fill="url(#paint0_linear_136_468)"/>
        <path d="M1 6.5H2V11H1V6.5Z" fill="white"/>
        <path d="M6.5 8.5H4.5L3.5 8L2.5 7.5L3 8.5V9.5L2.5 10H4L4.5 10.5H5.5M5.5 10.5H6H6.5M5.5 10.5H3.5L5.5 11H6.5L7 10.5H7.5L8.5 9.5H8H7.5H9.5M6.5 10.5L7.5 10H8.5L9 9H10L10.5 8.5V8L7 9.5H6H4L3.5 9V8.5L4.5 8H5L7 8.5V9L6.5 10V10.5Z"
              stroke="white" stroke-linecap="round" stroke-linejoin="round"/>
        <path d="M10.899 7.4698C10.7411 7.4038 10.5573 7.36518 10.365 7.36518C10.149 7.36518 9.9442 7.41355 9.76083 7.50018L9.76945 7.49643L7.6027 8.46993C7.60383 8.4523 7.61245 8.43693 7.61245 8.4193C7.6072 7.90518 7.18908 7.49043 6.6742 7.49043C6.64833 7.49043 6.6232 7.49155 6.5977 7.49343L6.60108 7.49305H5.18245L3.39745 6.9703C3.3742 6.96318 3.3472 6.95905 3.31908 6.95905H3.31833H2.50495V6.6748C2.50495 6.51955 2.37895 6.39355 2.2237 6.39355H0.767578C0.612328 6.39355 0.486328 6.51955 0.486328 6.6748V11.2528C0.486328 11.4081 0.612328 11.5341 0.767578 11.5341H2.2237C2.37895 11.5341 2.50495 11.4081 2.50495 11.2528V10.8763C3.1867 10.9828 3.7972 11.1546 4.37545 11.3886L4.3192 11.3683C4.75383 11.5243 5.25558 11.6143 5.77833 11.6143C6.38095 11.6143 6.95545 11.4947 7.47933 11.2776L7.4497 11.2884C7.91583 11.0811 8.31145 10.8624 8.68608 10.6138L8.65533 10.6329C8.78208 10.5546 8.90808 10.4762 9.03558 10.4008C9.65095 10.0367 10.1422 9.71868 10.584 9.39918C10.8015 9.2443 10.9912 9.09093 11.1716 8.9278L11.166 8.93268C11.3047 8.8198 11.4157 8.67805 11.4903 8.51643L11.4933 8.5093C11.5053 8.4793 11.5121 8.4448 11.5121 8.40843C11.5121 8.38743 11.5098 8.3668 11.5053 8.34693L11.5057 8.3488C11.4506 7.9678 11.2222 7.64905 10.9046 7.47205L10.8986 7.46905L10.899 7.4698ZM1.94283 10.9723H1.0492V6.9568H1.94283V10.9723ZM10.7696 8.53443C10.6151 8.67318 10.4467 8.80818 10.2716 8.93305L10.254 8.94505C9.82758 9.2533 9.34945 9.56268 8.7487 9.91855C8.6182 9.99543 8.48958 10.0753 8.35983 10.1552C8.0392 10.3704 7.67058 10.5756 7.28508 10.7499L7.23633 10.7694C6.80433 10.9468 6.30258 11.0499 5.7772 11.0499C5.32608 11.0499 4.89295 10.9742 4.48908 10.8343L4.51683 10.8426C3.9337 10.5981 3.25533 10.4113 2.54808 10.3138L2.50495 10.3089V7.52193H3.27783L5.06283 8.04468C5.08608 8.0518 5.11308 8.05593 5.1412 8.05593H5.14195H6.6007C6.93183 8.05593 7.04958 8.25168 7.04958 8.41968C7.04958 8.58768 6.93183 8.78343 6.6007 8.78343H4.04733C3.89208 8.78343 3.76608 8.90943 3.76608 9.06468C3.76608 9.21993 3.89208 9.34593 4.04733 9.34593H6.9652C7.00683 9.34593 7.0462 9.33693 7.08183 9.3208L7.07995 9.32155L10.0031 8.0083C10.1107 7.9588 10.2367 7.92955 10.3695 7.92955C10.4692 7.92955 10.5648 7.94568 10.6545 7.97605L10.6481 7.97418C10.7913 8.06005 10.8948 8.20068 10.9293 8.36605L10.9301 8.3698C10.8795 8.42943 10.8266 8.48305 10.77 8.53255L10.7681 8.53405L10.7696 8.53443Z"
              fill="black"/>
    </g>
    <defs>
        <linearGradient id="paint0_linear_136_468" x1="6" y1="0" x2="6" y2="12" gradientUnits="userSpaceOnUse">
            <stop offset="1" stop-color="#3ADD31"/>
        </linearGradient>
        <clipPath id="clip0_136_468">
            <rect width="12" height="12" fill="white"/>
        </clipPath>
    </defs>
</svg>
