<svg width="16" height="16" viewBox="0 0 16 16" fill="none" xmlns="http://www.w3.org/2000/svg">
<path fill-rule="evenodd" clip-rule="evenodd" d="M7.22663 7.40899C8.06117 7.89082 8.06118 9.09538 7.22663 9.57721L3.06791 11.9782C2.23337 12.4601 1.19018 11.8578 1.19018 10.8941V6.09207C1.19018 5.12842 2.23336 4.52613 3.06791 5.00796L7.22663 7.40899ZM6.69014 8.64798C6.80935 8.57914 6.80936 8.40706 6.69013 8.33823L2.53142 5.93719C2.4122 5.86836 2.26317 5.9544 2.26317 6.09207V10.8941C2.26317 11.0318 2.4122 11.1178 2.53142 11.049L6.69014 8.64798Z" fill="#4B4949"/>
<path fill-rule="evenodd" clip-rule="evenodd" d="M5.51794 1C4.40543 1 3.50356 1.84403 3.50356 2.8852L3.50357 3.55218C3.60948 3.59705 3.71443 3.64921 3.81791 3.70896L4.41919 4.05611L4.41919 2.8852C4.41919 2.31729 4.91111 1.85691 5.51794 1.85691H9.6647L9.6647 4.61567V4.6157C9.66469 4.80391 9.66468 4.97025 9.67671 5.10806C9.68952 5.25475 9.71822 5.40645 9.79857 5.55401C9.91627 5.77014 10.104 5.94598 10.3352 6.0562C10.4928 6.13137 10.6549 6.15822 10.8116 6.1702C10.9589 6.18146 11.1366 6.18145 11.3377 6.18144L14.2855 6.18144L14.2855 13.8165H4.41917L4.41917 12.9302L3.81791 13.2773C3.71444 13.3371 3.60951 13.3892 3.50361 13.4341L3.50361 13.615L3.50342 14.2448C3.50338 14.3585 3.5516 14.4675 3.63746 14.5479C3.72332 14.6282 3.83979 14.6734 3.96123 14.6734H14.7432C14.996 14.6734 15.201 14.4816 15.201 14.245L15.2012 5.75299C15.2012 5.63936 15.1529 5.53038 15.0671 5.45003L10.4462 1.12549C10.3604 1.04514 10.2439 1 10.1225 1H5.51794ZM3.5036 11.7267L4.41918 11.1981L4.41918 9.95915L3.5036 10.4878L3.5036 11.7267ZM3.50358 6.49851L4.41918 7.02714L4.41918 5.78816L3.50357 5.25953L3.50358 6.49851ZM13.6381 5.32453L10.5803 2.46284V4.59978C10.5803 4.80868 10.5807 4.93959 10.5893 5.03828C10.5975 5.13181 10.6107 5.15825 10.6144 5.16492C10.6444 5.22001 10.6922 5.26469 10.7509 5.29268C10.7579 5.29605 10.7861 5.30848 10.8862 5.31614C10.9916 5.3242 11.1315 5.32453 11.3547 5.32453H13.6381Z" fill="#4B4949"/>
</svg>
