<svg width="16" height="16" viewBox="0 0 16 16" fill="none" xmlns="http://www.w3.org/2000/svg">
<path fill-rule="evenodd" clip-rule="evenodd" d="M14.4222 3.47384C13.8006 2.91283 12.8418 2.96195 12.2808 3.58357L7.11426 9.30817L4.07969 6.65316C3.44875 6.10113 2.48974 6.1651 1.93773 6.79605C1.3857 7.42699 1.44967 8.386 2.08062 8.93803L6.19895 12.5413C6.50509 12.8091 6.8872 12.9318 7.2643 12.9154L7.27362 12.915L7.28294 12.9149C7.69354 12.9112 8.09933 12.7426 8.39537 12.4146L14.5319 5.61521C15.0929 4.99359 15.0438 4.03486 14.4222 3.47384ZM11.4811 2.86179C12.4407 1.79849 14.0806 1.71445 15.1439 2.67411C16.2073 3.63376 16.2913 5.27369 15.3316 6.33699L9.1951 13.1364C8.69099 13.6949 7.99826 13.9833 7.30198 13.992C6.66204 14.0177 6.00997 13.8073 5.48959 13.352L1.37125 9.74881C0.29254 8.80501 0.18314 7.16542 1.12695 6.0867C2.07074 5.00796 3.71034 4.89858 4.78906 5.84239L7.02526 7.79889L11.4811 2.86179Z" fill="#4B4949"/>
</svg>
