<svg width="16" height="16" viewBox="0 0 16 16" fill="none" xmlns="http://www.w3.org/2000/svg">
<path d="M13.9452 13.0425C13.4978 12.5656 13.697 12.2549 13.697 12.2549C13.5893 12.1253 13.444 12.2702 13.2231 12.4905L13.1597 12.5536L13.1598 12.5806C13.1594 12.6506 13.1593 12.6754 13.1706 12.6924C13.1769 12.7018 13.1866 12.7088 13.2016 12.7197C13.244 12.7503 13.3288 12.8116 13.4978 13.0425C13.7269 13.0436 13.9452 13.0425 13.9452 13.0425Z" fill="#4B4949"/>
<path d="M12.1851 6.35278C12.0898 6.35366 11.998 6.31421 11.9299 6.24309C11.8619 6.17198 11.8231 6.07499 11.822 5.97341C11.822 5.7641 11.9856 5.59513 12.1861 5.59513C12.3865 5.59513 12.5502 5.7641 12.5502 5.97341C12.5502 6.18381 12.3865 6.35278 12.1861 6.35278H12.1851Z" fill="#4B4949"/>
<path fill-rule="evenodd" clip-rule="evenodd" d="M11.687 3.89775C12.1216 3.73641 12.4561 3.55327 12.6647 3.37121C12.8079 3.24693 12.8529 3.16517 12.8529 3.13247C12.8529 3.09976 12.8079 3.018 12.6647 2.89263C12.4561 2.71167 12.1227 2.52852 11.687 2.36718C10.7338 2.01506 9.41439 1.80902 7.99991 1.80902C6.58543 1.80902 5.26606 2.01615 4.31285 2.36718C3.87817 2.52852 3.54373 2.71167 3.33509 2.89372C3.1919 3.018 3.1469 3.09867 3.1469 3.13247C3.1469 3.16517 3.1919 3.24693 3.33509 3.3723C3.54373 3.55327 3.87715 3.73641 4.31285 3.89775C5.26606 4.24987 6.58543 4.45591 7.99991 4.45591C9.41439 4.45591 10.7338 4.24878 11.687 3.89775ZM2.83495 9.48807V7.56831C3.60013 8.161 4.9139 8.65745 6.45656 8.84815C8.94904 9.15884 11.4139 8.69771 13.1649 7.59992L13.1587 9.5622C11.5152 10.7494 9.09427 11.3446 6.53736 11.0274C4.79355 10.8104 3.36577 10.0844 2.83495 9.48807ZM2.83495 6.36914C3.36679 6.96436 4.79355 7.6904 6.53736 7.90625C9.09938 8.22458 11.5254 7.62717 13.169 6.43454L13.1761 4.2586C12.1298 4.91269 10.204 5.35093 7.99991 5.35093C5.80506 5.35093 3.88533 4.91487 2.83802 4.26623C2.83665 4.96683 2.83563 5.66744 2.83495 6.36805V6.36914ZM2.84093 12.2389L2.837 10.6894C3.60218 11.2821 4.91594 11.7775 6.45656 11.9693C8.94392 12.2778 11.4047 11.8177 13.1536 10.7265L13.1597 12.5536C13.1219 12.5909 13.0821 12.6297 13.0401 12.6691C12.9159 12.7858 12.833 12.8498 12.7275 12.9312L12.6688 12.9766C12.4643 13.1357 12.2556 13.2578 11.9815 13.4028C11.0048 13.9174 9.73452 14.179 8.11344 14.179C5.18175 14.179 3.19876 13.319 2.84093 12.2389ZM13.9452 13.0425C13.9452 13.0425 13.7269 13.0436 13.4978 13.0425C13.3288 12.8116 13.244 12.7503 13.2016 12.7197C13.1866 12.7088 13.1769 12.7018 13.1706 12.6924C13.1593 12.6754 13.1594 12.6506 13.1598 12.5806L13.1597 12.5536L13.2231 12.4905C13.444 12.2702 13.5893 12.1253 13.697 12.2549C13.697 12.2549 13.4978 12.5656 13.9452 13.0425ZM13.9452 13.0425C13.9452 13.0425 13.3193 13.5107 13.1598 13.635C12.9215 13.8203 12.6504 14.0133 12.3375 14.179C11.2595 14.747 10.161 15.086 8.11344 15.086C4.70252 15.086 2.44733 13.9359 2.01572 12.4151L2.00038 12.3606V12.3039L1.99424 10.0026C1.9918 7.73873 1.99351 5.47484 1.99936 3.21096C1.99676 3.18488 1.9954 3.15869 1.99527 3.13247C1.99629 1.90713 4.68411 0.914001 7.99991 0.914001C11.3157 0.914001 14.0035 1.90713 14.0035 3.13247C14.0038 3.18033 14.0001 3.22813 13.9923 3.27528C14.0021 3.30953 14.007 3.3452 14.0066 3.38102L13.9452 13.0425Z" fill="#4B4949"/>
<path d="M12.1851 9.4739C12.0898 9.47477 11.998 9.43532 11.9299 9.36421C11.8619 9.29309 11.8231 9.19611 11.822 9.09452C11.822 8.88521 11.9856 8.71515 12.1861 8.71515C12.3865 8.71515 12.5502 8.88521 12.5502 9.09452C12.5502 9.30383 12.3865 9.4739 12.1861 9.4739H12.1851Z" fill="#4B4949"/>
<path d="M12.1851 12.6353C12.1378 12.6358 12.0909 12.6263 12.0471 12.6074C12.0032 12.5885 11.9633 12.5606 11.9296 12.5253C11.8959 12.4899 11.869 12.4479 11.8506 12.4015C11.8321 12.3551 11.8224 12.3053 11.822 12.2549C11.822 12.0456 11.9856 11.8755 12.1861 11.8755C12.3865 11.8755 12.5502 12.0456 12.5502 12.2549C12.5502 12.4642 12.3865 12.6343 12.1861 12.6343L12.1851 12.6353Z" fill="#4B4949"/>
</svg>
