<svg width="16" height="16" viewBox="0 0 16 16" fill="none" xmlns="http://www.w3.org/2000/svg">
<circle cx="8.0144" cy="8.0144" r="7.0144" fill="#4B4949"/>
<path d="M7.26465 12.3601V6.66918H8.73568V12.3601H7.26465Z" fill="white"/>
<path d="M7.30302 5.2418C7.49689 5.42134 7.72896 5.51112 7.99981 5.51112C8.27067 5.51112 8.50131 5.42134 8.69234 5.2418C8.88621 5.05941 8.98302 4.84139 8.98302 4.58775C8.98302 4.33696 8.88621 4.1218 8.69234 3.94225C8.50131 3.75986 8.27067 3.66866 7.99981 3.66866C7.72896 3.66866 7.49689 3.75986 7.30302 3.94225C7.11199 4.1218 7.0166 4.33696 7.0166 4.58775C7.0166 4.84139 7.11199 5.05941 7.30302 5.2418Z" fill="white"/>
</svg>
