<svg width="16" height="16" viewBox="0 0 16 16" fill="none" xmlns="http://www.w3.org/2000/svg">
<path fill-rule="evenodd" clip-rule="evenodd" d="M12.9089 4.00031C14.5309 3.97706 15.8583 5.27316 15.8738 6.89523C15.8842 7.98233 15.3027 8.93995 14.4298 9.46036L14.4382 10.3429L13.949 10.3499L13.9911 14.7553L13.0215 15.7484L12.0332 14.7834L12.0285 14.2939L13.0028 13.7903L12.0192 13.3149L12.0145 12.8254L12.4993 12.3289L12.0051 11.8464L11.9911 10.378L11.5014 10.385L11.4929 9.50252C10.6102 9.00729 10.0105 8.06657 10.0001 6.97942C9.98461 5.35736 11.2868 4.02356 12.9089 4.00031ZM12.9182 4.97931C12.3774 4.98707 11.9435 5.43165 11.9487 5.97235C11.9538 6.51306 12.3961 6.94508 12.937 6.93733C13.4777 6.92958 13.9117 6.48499 13.9066 5.94429C13.9014 5.40358 13.4589 4.97156 12.9182 4.97931Z" fill="#4B4949"/>
<path d="M7.73305 7.42781C7.73305 9.03319 6.43163 10.3346 4.82624 10.3346C3.22086 10.3346 1.91943 9.03319 1.91943 7.42781C1.91943 5.82242 3.22086 4.521 4.82624 4.521C6.43163 4.521 7.73305 5.82242 7.73305 7.42781Z" fill="#4B4949"/>
<path fill-rule="evenodd" clip-rule="evenodd" d="M7.18024 11.8791L4.93342 15.8586L2.44092 11.8758C2.9681 11.6223 3.55677 11.4817 4.17294 11.4817H5.44142C6.06034 11.4817 6.65139 11.6235 7.18024 11.8791Z" fill="#C8C8C8"/>
<path d="M2.44758 11.8614C1.35296 12.3878 0.52343 13.4011 0.263209 14.6537L0 15.9207H9.62126L9.61997 15.912L9.36812 14.6715C9.11276 13.4137 8.28358 12.3946 7.1869 11.8647L4.94007 15.8442L2.44758 11.8614Z" fill="#4B4949"/>
</svg>
