<svg width="16" height="16" viewBox="0 0 16 16" fill="none" xmlns="http://www.w3.org/2000/svg">
<path d="M4.87999 9.93036H6.10945V13.218C6.10945 13.598 6.01903 13.929 5.83818 14.2111C5.65732 14.4915 5.40513 14.7088 5.08158 14.8631C4.75804 15.0158 4.38224 15.0921 3.95416 15.0921C3.52112 15.0921 3.14282 15.0158 2.81928 14.8631C2.49574 14.7088 2.24437 14.4915 2.06518 14.2111C1.88598 13.929 1.79639 13.598 1.79639 13.218V9.93036H3.02834V13.111C3.02834 13.2869 3.0665 13.4437 3.14282 13.5814C3.2208 13.7191 3.32948 13.827 3.46885 13.905C3.60822 13.9829 3.76999 14.0219 3.95416 14.0219C4.13833 14.0219 4.29928 13.9829 4.43699 13.905C4.57636 13.827 4.68504 13.7191 4.76302 13.5814C4.841 13.4437 4.87999 13.2869 4.87999 13.111V9.93036Z" fill="#4B4949"/>
<path d="M8.48527 15.0274H6.60126V9.93036H8.48279C9.00211 9.93036 9.44926 10.0324 9.82424 10.2365C10.2009 10.4389 10.4912 10.7309 10.6953 11.1125C10.8994 11.4925 11.0014 11.9471 11.0014 12.4764C11.0014 13.0073 10.8994 13.4636 10.6953 13.8452C10.4929 14.2268 10.2034 14.5197 9.82673 14.7238C9.45009 14.9262 9.00294 15.0274 8.48527 15.0274ZM7.83321 13.9771H8.43799C8.72337 13.9771 8.96478 13.929 9.16222 13.8328C9.36133 13.7349 9.51148 13.5764 9.61269 13.3574C9.71556 13.1367 9.767 12.8431 9.767 12.4764C9.767 12.1097 9.71556 11.8177 9.61269 11.6003C9.50982 11.3813 9.35801 11.2237 9.15725 11.1275C8.95814 11.0296 8.71258 10.9806 8.42057 10.9806H7.83321V13.9771Z" fill="#4B4949"/>
<path d="M11.4404 15.0274V9.93036H14.9197V10.9309H12.6723V11.9761H14.6982V12.9791H12.6723V15.0274H11.4404Z" fill="#4B4949"/>
<path fill-rule="evenodd" clip-rule="evenodd" d="M1.36426 2.62541C1.36426 1.44413 2.38749 0.486511 3.64971 0.486511H8.87394C9.0117 0.486511 9.14382 0.537727 9.24123 0.628891L14.4839 5.5354C14.5813 5.62656 14.6361 5.75021 14.6361 5.87913L14.636 8.11484H13.5972L13.5972 6.36524L10.2527 6.36524C10.0245 6.36525 9.82282 6.36526 9.65578 6.35249C9.47796 6.33889 9.29411 6.30844 9.11524 6.22315C8.85296 6.09809 8.63995 5.89859 8.50641 5.65337C8.41525 5.48596 8.38268 5.31384 8.36815 5.14741C8.3545 4.99105 8.35451 4.80231 8.35452 4.58876L8.35452 1.45874H3.64971C2.96123 1.45874 2.4031 1.98108 2.4031 2.62541L2.40309 8.11484H1.36428L1.36426 2.62541ZM9.39337 2.14621L12.8626 5.39302H10.272C10.0187 5.39302 9.86002 5.39264 9.74037 5.38349C9.62679 5.37481 9.59487 5.3607 9.58685 5.35688C9.52025 5.32512 9.46604 5.27443 9.43199 5.21193L9.39337 2.14621Z" fill="#4B4949"/>
</svg>
