<svg width="16" height="16" viewBox="0 0 16 16" fill="none" xmlns="http://www.w3.org/2000/svg">
<path fill-rule="evenodd" clip-rule="evenodd" d="M15 5.95902V13.6875C15 14.4111 14.4111 15 13.6875 15H2.3125C1.58887 15 1 14.4111 1 13.6875V2.3125C1 1.58887 1.58887 1 2.3125 1H8.94548C8.3548 1.6301 8 2.43776 8 3.31834C8 4.51998 8.6607 5.58584 9.67988 6.25H6.25V9.75H9.75V6.29471C10.0196 6.46286 10.313 6.60336 10.625 6.71152V9.75H14.125V6.52084C14.4445 6.36745 14.7385 6.17812 15 5.95902ZM14.125 10.625V13.6875C14.125 13.9281 13.9281 14.125 13.6875 14.125H10.625V10.625H14.125ZM9.75 14.125H6.25V10.625H9.75V14.125ZM5.375 9.75H1.875V6.25H5.375V9.75ZM5.375 10.625V14.125H2.3125C2.07187 14.125 1.875 13.9281 1.875 13.6875V10.625H5.375Z" fill="#4B4949"/>
<path fill-rule="evenodd" clip-rule="evenodd" d="M11.8253 4.11025H12.6409H13.5468H14.9441C15.4195 4.11025 15.8049 3.72486 15.8049 3.24946C15.8049 2.77406 15.4195 2.38867 14.9441 2.38867H13.5468L12.6409 2.38868L11.8253 2.38867H10.3842C9.90883 2.38867 9.52344 2.77406 9.52344 3.24946C9.52344 3.72486 9.90883 4.11025 10.3842 4.11025H11.8253Z" fill="#4B4949"/>
</svg>
