<svg width="16" height="16" viewBox="0 0 16 16" fill="none" xmlns="http://www.w3.org/2000/svg">
<path d="M0.870117 2.4939C0.870117 2.21775 1.09397 1.9939 1.37012 1.9939H14.6301C14.9063 1.9939 15.1301 2.21775 15.1301 2.4939V2.81641C15.1301 3.09255 14.9063 3.31641 14.6301 3.31641H1.37012C1.09397 3.31641 0.870117 3.09255 0.870117 2.81641V2.4939Z" fill="#4B4949"/>
<path d="M0.870117 7.1264C0.870117 6.85026 1.09397 6.6264 1.37012 6.6264H14.6301C14.9063 6.6264 15.1301 6.85026 15.1301 7.1264V7.44891C15.1301 7.72506 14.9063 7.94891 14.6301 7.94891H1.37012C1.09397 7.94891 0.870117 7.72506 0.870117 7.44891V7.1264Z" fill="#4B4949"/>
<path d="M0.870117 11.7589C0.870117 11.4828 1.09397 11.2589 1.37012 11.2589H14.6301C14.9063 11.2589 15.1301 11.4828 15.1301 11.7589V12.0814C15.1301 12.3576 14.9063 12.5814 14.6301 12.5814H1.37012C1.09397 12.5814 0.870117 12.3576 0.870117 12.0814V11.7589Z" fill="#4B4949"/>
<path d="M2.95178 4.81641C2.95178 4.54026 3.17564 4.31641 3.45178 4.31641H12.5485C12.8246 4.31641 13.0485 4.54026 13.0485 4.81641V5.12641C13.0485 5.40255 12.8246 5.62641 12.5485 5.62641H3.45178C3.17563 5.62641 2.95178 5.40255 2.95178 5.12641V4.81641Z" fill="#4B4949"/>
<path d="M2.95166 9.44891C2.95166 9.17277 3.17552 8.94891 3.45166 8.94891H12.5483C12.8245 8.94891 13.0483 9.17277 13.0483 9.44891V9.75891C13.0483 10.0351 12.8245 10.2589 12.5483 10.2589H3.45166C3.17552 10.2589 2.95166 10.0351 2.95166 9.75891V9.44891Z" fill="#4B4949"/>
<path d="M2.95166 14.0814C2.95166 13.8053 3.17552 13.5814 3.45166 13.5814H12.5483C12.8245 13.5814 13.0483 13.8053 13.0483 14.0814V14.3914C13.0483 14.6676 12.8245 14.8914 12.5483 14.8914H3.45166C3.17552 14.8914 2.95166 14.6676 2.95166 14.3914V14.0814Z" fill="#4B4949"/>
</svg>
