<svg width="16" height="16" viewBox="0 0 16 16" fill="none" xmlns="http://www.w3.org/2000/svg">
<path d="M1.11986 6.3702C1.07661 6.14588 1.05399 5.91457 1.05415 5.67858C1.05354 4.6764 1.46415 3.75779 2.12148 3.1024C2.77689 2.44531 3.69485 2.03546 4.69698 2.03617C5.69886 2.0356 6.61697 2.44604 7.27256 3.10331C7.7344 3.56405 8.07142 4.15768 8.23192 4.81935L8.29505 5.07961L14.9458 5.07992L14.9457 8.07791L14.0564 8.07785V6.27769H12.1676L12.1676 8.07793H11.2633L11.2633 6.27759L8.29501 6.27751L8.23185 6.53779C8.20194 6.66105 8.16588 6.78197 8.12401 6.90013C8.28983 7.1232 8.43612 7.36163 8.56036 7.61292C8.66438 7.40375 8.75211 7.185 8.82204 6.95868L10.5822 6.95889L10.5821 8.75904L12.8487 8.75904V6.9588H13.3753V8.7589L15.6268 8.75906L15.627 4.39884L8.82215 4.39853C8.61261 3.72016 8.24322 3.10978 7.7542 2.62172C6.97564 1.84117 5.88646 1.35445 4.69683 1.35506C3.50709 1.35427 2.41798 1.84084 1.63958 2.62108C0.859058 3.39946 0.372381 4.48856 0.373048 5.67835C0.372758 6.14108 0.446203 6.58865 0.581999 7.00866C0.742061 6.77991 0.922199 6.56624 1.11986 6.3702Z" fill="#4B4949"/>
<path d="M6.56499 5.56094C6.53591 5.08802 6.33472 4.67105 6.02119 4.35532L6.01952 4.35365C5.67797 4.01444 5.21801 3.80708 4.69731 3.80613H4.69608C4.17528 3.80708 3.71502 4.01416 3.37328 4.35368L3.37159 4.35538C3.12223 4.60662 2.94388 4.92225 2.86672 5.27888C3.12379 5.18958 3.39113 5.12222 3.66648 5.07904C3.71816 4.991 3.78122 4.90966 3.85416 4.83604C4.07422 4.61782 4.36411 4.488 4.69669 4.48723C5.02888 4.488 5.31859 4.61786 5.53872 4.83608C5.65465 4.95303 5.74565 5.08954 5.80559 5.24158C6.06977 5.32583 6.32368 5.43307 6.56499 5.56094Z" fill="#4B4949"/>
<path d="M7.4996 13.446C6.76254 14.185 5.73128 14.6457 4.60508 14.6449C3.47861 14.6454 2.44738 14.1848 1.71062 13.4461C0.971694 12.7093 0.510954 11.6777 0.51172 10.5513C0.511033 9.42483 0.971853 8.39358 1.71085 7.65677C2.44767 6.91805 3.47893 6.45733 4.6054 6.45813C5.7316 6.45749 6.76282 6.91821 7.49982 7.65709C8.02034 8.17639 8.39869 8.84377 8.57873 9.58601L15.4888 9.58633L15.4888 9.83799L15.4886 11.5174L15.4886 13.3675L13.8747 13.3674L13.8747 11.5173L12.6335 11.5173L12.6335 13.3675L11.004 13.3675L11.0041 11.5173L10.6767 11.5174L8.57866 11.5172C8.39856 12.2593 8.02015 12.9267 7.4996 13.446ZM6.17917 10.5515C6.17871 10.1126 6.00503 9.72708 5.71819 9.43823C5.42944 9.15146 5.04393 8.97798 4.6053 8.97719C4.16643 8.97798 3.78068 9.1513 3.49186 9.43823C3.205 9.72724 3.03129 10.1128 3.03081 10.5513C3.03126 10.9902 3.20495 11.3758 3.49178 11.6648C3.78055 11.9517 4.16631 12.1251 4.60518 12.1258C5.04378 12.1251 5.42929 11.9517 5.71811 11.6649C6.00497 11.3761 6.17864 10.9904 6.17917 10.5515Z" fill="#4B4949"/>
</svg>
