<svg width="16" height="16" viewBox="0 0 16 16" fill="none" xmlns="http://www.w3.org/2000/svg">
<g clip-path="url(#clip0_614_1806)">
<path d="M0.579102 2.67184C0.579102 2.38145 0.784646 2.14606 1.03819 2.14606H15.0404C15.2939 2.14606 15.4994 2.38145 15.4994 2.67184V2.93473C15.4994 3.22511 15.2939 3.46051 15.0404 3.46051H1.03819C0.784646 3.46051 0.579102 3.22511 0.579102 2.93473V2.67184Z" fill="#4B4949"/>
<path d="M0.579102 4.97585C0.579102 4.68547 0.784647 4.45007 1.03819 4.45007H15.0404C15.294 4.45007 15.4995 4.68547 15.4995 4.97585V5.23875C15.4995 5.52912 15.294 5.76453 15.0404 5.76453H1.03819C0.784647 5.76453 0.579102 5.52912 0.579102 5.23875V4.97585Z" fill="#4B4949"/>
<path d="M0.999126 6.75452C0.745584 6.75452 0.540039 6.98991 0.540039 7.2803V7.54319C0.540039 7.83356 0.745584 8.06897 0.999126 8.06897H7.0245L7.43394 7.58519C7.83053 7.11658 8.55181 7.11264 8.95349 7.57689L9.37925 8.06897H15.0013C15.2548 8.06897 15.4604 7.83356 15.4604 7.54319V7.2803C15.4604 6.98991 15.2548 6.75452 15.0013 6.75452H0.999126Z" fill="#C0C0C0"/>
<path d="M6.18702 9.05853H0.999128C0.745585 9.05853 0.540039 9.29393 0.540039 9.58431V9.84721C0.540039 10.1376 0.745585 10.373 0.999128 10.373H5.07457L6.18702 9.05853Z" fill="#C0C0C0"/>
<path d="M11.3728 10.373L10.2354 9.05853H15.0014C15.2549 9.05853 15.4604 9.29393 15.4604 9.58431V9.84721C15.4604 10.1376 15.2549 10.373 15.0014 10.373H11.3728Z" fill="#C0C0C0"/>
<path d="M4.30859 11.363H0.999128C0.745585 11.363 0.540039 11.5984 0.540039 11.8888V12.1516C0.540039 12.442 0.745585 12.6774 0.999128 12.6774H4.95204C4.40061 12.5128 4.1027 11.8948 4.30859 11.363Z" fill="#C0C0C0"/>
<path d="M11.5086 12.6774C12.0605 12.5127 12.3575 11.894 12.152 11.363H15.0014C15.2549 11.363 15.4604 11.5984 15.4604 11.8888V12.1516C15.4604 12.442 15.2549 12.6774 15.0014 12.6774H11.5086Z" fill="#C0C0C0"/>
<path d="M10.3658 11.9351C10.6828 11.5977 10.6972 11.0339 10.3979 10.6766L8.74686 8.8661C8.7296 8.84383 8.71119 8.82202 8.69163 8.80114C8.38974 8.47908 7.91275 8.47536 7.60687 8.80114C7.58729 8.82202 7.56885 8.84383 7.55158 8.8661L6.07405 10.6766C5.77477 11.0343 5.78916 11.5977 6.10619 11.9351C6.42321 12.2729 6.92283 12.2567 7.22212 11.8989L7.41739 11.6655L7.41739 16.9806C7.41739 17.4512 7.75554 17.8326 8.17268 17.8326C8.58982 17.8326 8.92797 17.4512 8.92797 16.9806L8.92797 11.5142L9.24985 11.8989C9.54914 12.2562 10.0487 12.2725 10.3658 11.9351Z" fill="#4B4949"/>
</g>
<defs>
<clipPath id="clip0_614_1806">
<rect width="16" height="16" fill="white"/>
</clipPath>
</defs>
</svg>
