<svg width="16" height="16" viewBox="0 0 16 16" fill="none" xmlns="http://www.w3.org/2000/svg">
<path d="M9.69287 7.52754C9.69287 7.32639 9.89842 7.16333 10.152 7.16333H15.4613C15.7148 7.16333 15.9204 7.32639 15.9204 7.52754V8.62019C15.9204 8.82133 15.7148 8.9844 15.4613 8.9844H10.152C9.89842 8.9844 9.69287 8.82133 9.69287 8.62019V7.52754Z" fill="#4B4949"/>
<path d="M1.65869 2.52578C1.65869 2.23539 1.86424 2 2.11778 2H15.4611C15.7147 2 15.9202 2.23539 15.9202 2.52578V2.78867C15.9202 3.07905 15.7147 3.31445 15.4611 3.31445H2.11778C1.86424 3.31445 1.65869 3.07905 1.65869 2.78867V2.52578Z" fill="#4B4949"/>
<path d="M1.65869 13.5637C1.65869 13.2734 1.86424 13.038 2.11778 13.038H15.4611C15.7147 13.038 15.9202 13.2734 15.9202 13.5637V13.8266C15.9202 14.117 15.7147 14.3524 15.4611 14.3524H2.11778C1.86424 14.3524 1.65869 14.117 1.65869 13.8266V13.5637Z" fill="#4B4949"/>
<path d="M5.50977 4.8298C5.50977 4.53941 5.66226 4.30402 5.85036 4.30402H15.5796C15.7677 4.30402 15.9202 4.53941 15.9202 4.8298V5.09269C15.9202 5.38306 15.7677 5.61847 15.5796 5.61847H5.85036C5.66226 5.61847 5.50977 5.38306 5.50977 5.09269V4.8298Z" fill="#4B4949"/>
<path d="M5.50977 11.055C5.50977 10.7646 5.66226 10.5292 5.85036 10.5292H15.5796C15.7677 10.5292 15.9202 10.7646 15.9202 11.055V11.3179C15.9202 11.6083 15.7677 11.8437 15.5796 11.8437H5.85036C5.66226 11.8437 5.50977 11.6083 5.50977 11.3179V11.055Z" fill="#4B4949"/>
</svg>
