<svg width="16" height="16" viewBox="0 0 16 16" fill="none" xmlns="http://www.w3.org/2000/svg">
<g clip-path="url(#clip0_465_13527)">
<path fill-rule="evenodd" clip-rule="evenodd" d="M10.1112 11.7801C12.0303 12.0558 13.8078 10.7358 14.0814 8.83179C14.355 6.92774 13.0211 5.16064 11.102 4.88487C9.18297 4.6091 7.40545 5.92909 7.13184 7.83315C6.85823 9.7372 8.19214 11.5043 10.1112 11.7801ZM10.2573 10.7706C11.6143 10.9656 12.8711 10.0322 13.0646 8.68587C13.2581 7.33953 12.3149 6.09004 10.9579 5.89504C9.60096 5.70005 8.34409 6.6334 8.15063 7.97974C7.95716 9.32607 8.90035 10.5756 10.2573 10.7706Z" fill="#4B4949"/>
<path d="M14.6693 12.4734C14.2936 12.1978 13.8859 11.8988 13.4644 11.1702L12.4628 11.914C13.0489 12.5204 13.2234 12.9926 13.3842 13.4277C13.5314 13.8261 13.6671 14.1933 14.0965 14.604C14.9951 15.4633 15.5385 14.9533 15.5385 14.9533C15.5385 14.9533 16.1849 14.5797 15.6067 13.4826C15.3303 12.9582 15.0132 12.7256 14.6693 12.4734Z" fill="#4B4949"/>
<path d="M7.5 5.90781L6.54336 5.45945C6.41399 5.40795 6.26644 5.47355 6.2137 5.60602L5.89607 6.40382C5.38788 6.34463 4.8781 6.38893 4.37958 6.53551L3.96219 5.78624C3.92934 5.72727 3.87479 5.68466 3.80995 5.66707C3.74545 5.64973 3.67621 5.65928 3.6177 5.69366L2.33612 6.44695C2.2777 6.48137 2.23462 6.53778 2.21652 6.6037C2.19838 6.66971 2.20667 6.73991 2.23956 6.79879L2.66769 7.56688C2.31112 7.93178 2.03016 8.357 1.8321 8.83212L0.947812 8.70143C0.881647 8.69154 0.813876 8.70912 0.75944 8.7499C0.705004 8.79068 0.668527 8.8515 0.657869 8.91916L0.423453 10.3993C0.401221 10.5399 0.494553 10.6702 0.632719 10.6909L1.54334 10.8255C1.59785 11.319 1.7414 11.7896 1.97009 12.2253L1.2761 12.8795C1.22649 12.9264 1.19692 12.9909 1.19375 13.0591C1.19058 13.1273 1.21417 13.1937 1.25935 13.2432L2.249 14.3324C2.27457 14.3605 2.30591 14.3821 2.34047 14.3959C2.3668 14.4064 2.39514 14.4123 2.42423 14.4131C2.49121 14.4152 2.55669 14.3901 2.60628 14.3435L3.30881 13.6809C3.71307 13.9365 4.16761 14.1155 4.63568 14.2035L4.69894 15.1657C4.70816 15.3072 4.82884 15.4127 4.96817 15.4007L6.43478 15.2768C6.50191 15.2712 6.56433 15.2387 6.60851 15.1866C6.65269 15.1345 6.67499 15.0671 6.67049 14.9991L6.60788 14.0491C7.07283 13.8857 7.49894 13.6386 7.87557 13.3138L8.63244 13.8341C8.74793 13.9131 8.90511 13.8811 8.9842 13.7631L9.82066 12.5197M6.93559 10.9363C6.58952 11.8056 5.61755 12.2377 4.76868 11.8998C3.9199 11.5618 3.51084 10.5799 3.85691 9.7106C4.20295 8.84144 5.17505 8.40922 6.02382 8.74714C6.8727 9.0851 7.28163 10.0671 6.93559 10.9363Z" stroke="#4B4949" stroke-width="0.8"/>
<path fill-rule="evenodd" clip-rule="evenodd" d="M14.072 2.38238L14.6974 2.28378C14.7951 2.2684 14.888 2.33679 14.9047 2.43623L15.0809 3.48574C15.0978 3.58519 15.0324 3.67846 14.9343 3.69416L14.29 3.79573C14.2546 4.14712 14.1556 4.48263 13.9958 4.79397L14.4921 5.25302C14.5277 5.28589 14.5491 5.33156 14.5518 5.37998C14.5545 5.42841 14.5382 5.47565 14.5063 5.51134L14.1061 5.96041C13.6514 5.29946 13.0099 4.76792 12.2454 4.44862C12.6749 4.13828 12.8537 3.55472 12.6441 3.02945C12.3979 2.41241 11.7074 2.106 11.1048 2.34647C10.5022 2.58692 10.2123 3.28456 10.4585 3.90159C10.4894 3.97895 10.5273 4.05143 10.5711 4.11856C10.0154 4.12152 9.47858 4.23315 8.98494 4.43574C8.85549 4.09476 8.79286 3.73907 8.79839 3.37758L8.2025 3.19081C8.15679 3.17653 8.11822 3.1444 8.09533 3.10151C8.07246 3.05869 8.06711 3.00857 8.0804 2.96229L8.373 1.94798C8.38636 1.90167 8.41738 1.86293 8.4591 1.84036C8.50112 1.81775 8.55005 1.81307 8.59579 1.82742L9.17694 2.00972C9.36229 1.69065 9.6034 1.41879 9.89426 1.20105L9.66825 0.634682C9.63072 0.540639 9.67473 0.434744 9.76657 0.398097L10.7328 0.0125239C10.8247 -0.0241228 10.9295 0.0223842 10.967 0.116427L11.1928 0.682318C11.5459 0.640743 11.9003 0.669365 12.247 0.767601L12.5377 0.233813C12.5608 0.191697 12.5991 0.161037 12.645 0.148142C12.6909 0.1353 12.74 0.141676 12.7818 0.165654L13.6965 0.692017C13.7834 0.742052 13.8152 0.853616 13.7675 0.941267L13.4695 1.48834C13.7256 1.74519 13.9281 2.04575 14.072 2.38238ZM13.0519 5.83878C12.5377 5.34124 11.8661 4.99473 11.1017 4.88487C10.2177 4.75785 9.36379 4.96939 8.67304 5.42062L9.02525 5.93379C9.08248 6.01712 9.19422 6.03868 9.27554 5.98184L9.81066 5.6064C9.94085 5.71656 10.0791 5.81376 10.2247 5.89755C10.4616 5.86149 10.7078 5.85917 10.9575 5.89504C11.3905 5.95727 11.7814 6.12687 12.1067 6.37274L12.1155 6.21576C12.4476 6.15026 12.7683 6.02111 13.0519 5.83878Z" fill="#4B4949"/>
</g>
<defs>
<clipPath id="clip0_465_13527">
<rect width="16" height="16" fill="white"/>
</clipPath>
</defs>
</svg>
