<svg width="16" height="16" viewBox="0 0 16 16" fill="none" xmlns="http://www.w3.org/2000/svg">
<path d="M11.3501 8.16331H4.42285V9.17364H11.3501V8.16331Z" fill="#4B4949"/>
<path d="M4.41943 6.4302H7.42432V7.44053H4.41943V6.4302Z" fill="#4B4949"/>
<path d="M11.3501 10.1984H4.41943V11.2087H11.3501V10.1984Z" fill="#4B4949"/>
<path fill-rule="evenodd" clip-rule="evenodd" d="M4.16589 1.16331C3.05338 1.16331 2.15151 2.00734 2.15151 3.04851L2.15137 14.4081C2.15133 14.5218 2.19955 14.6308 2.28541 14.7112C2.37127 14.7915 2.48774 14.8367 2.60918 14.8367H13.3911C13.6439 14.8367 13.8489 14.6449 13.849 14.4083L13.8491 5.9163C13.8491 5.80266 13.8009 5.69368 13.715 5.61333L9.09418 1.2888C9.00832 1.20845 8.89188 1.16331 8.77046 1.16331H4.16589ZM3.06714 3.04851C3.06714 2.4806 3.55906 2.02022 4.16589 2.02022H8.31265L8.31265 4.77898C8.31264 4.96719 8.31263 5.13356 8.32466 5.27137C8.33747 5.41806 8.36617 5.56976 8.44652 5.71732C8.56422 5.93345 8.75196 6.10929 8.98313 6.21951C9.14079 6.29468 9.30283 6.32152 9.45956 6.33351C9.60681 6.34477 9.78455 6.34476 9.98568 6.34475L12.9335 6.34475L12.9334 13.9798H3.06712L3.06714 3.04851ZM12.2861 5.48784L9.22827 2.62614V4.76309C9.22827 4.97199 9.22863 5.10289 9.23724 5.20159C9.24541 5.29511 9.25868 5.32156 9.26231 5.32823C9.29232 5.38332 9.34011 5.428 9.3988 5.45599C9.40587 5.45936 9.43401 5.47179 9.53412 5.47944C9.63957 5.48751 9.77945 5.48784 10.0027 5.48784H12.2861Z" fill="#4B4949"/>
</svg>
