<svg width="16" height="16" viewBox="0 0 16 16" fill="none" xmlns="http://www.w3.org/2000/svg">
<path d="M10.935 13.6975C11.3028 14.0164 11.9175 14.0309 12.3071 13.7298L14.2809 12.0692C14.3052 12.0518 14.3289 12.0333 14.3517 12.0136C14.7028 11.71 14.7069 11.2302 14.3517 10.9225C14.3289 10.9028 14.3052 10.8843 14.2809 10.8669L12.3071 9.38079C11.917 9.07976 11.3028 9.09423 10.935 9.41311C10.5667 9.73198 10.5844 10.2345 10.9744 10.5355L11.2289 10.732H5.43426C4.92125 10.732 4.50537 11.0721 4.50537 11.4916C4.50537 11.9112 4.92125 12.2513 5.43426 12.2513L11.3939 12.2513L10.9744 12.5751C10.5849 12.8761 10.5672 13.3787 10.935 13.6975Z" fill="#4B4949"/>
<path d="M3.00586 2.0172C3.00586 1.74105 3.22972 1.5172 3.50586 1.5172H5.88755C6.16369 1.5172 6.38755 1.74105 6.38755 2.0172V3.75037H3.00586V2.0172Z" fill="#4B4949"/>
<path d="M9.6123 2.0172C9.6123 1.74105 9.83616 1.5172 10.1123 1.5172H12.494C12.7701 1.5172 12.994 1.74105 12.994 2.0172V3.75037H9.6123V2.0172Z" fill="#4B4949"/>
<path d="M6.60163 13.7513H5.07874C4.46864 13.7513 3.69736 13.5053 3.16084 12.9991H1.63672V13.9828C1.63672 14.2589 1.86058 14.4828 2.13672 14.4828H6.10163C6.37777 14.4828 6.60163 14.2589 6.60163 13.9828V13.7513Z" fill="#4B4949"/>
<path d="M6.31916 12.2689L5.1963 12.2728C4.68329 12.2728 4.26741 11.9327 4.26741 11.5131C4.26741 11.0936 4.68329 10.7534 5.1963 10.7534L6.31916 10.7494V12.2689Z" fill="#4B4949"/>
<path d="M11.0741 12.4979L11.3936 12.2513L9.68084 12.2573V10.7375L11.2287 10.7319L10.9742 10.5355C10.5841 10.2345 10.5664 9.73196 10.9347 9.41309C11.0212 9.33817 11.1212 9.28006 11.2287 9.23889C11.5788 9.10483 12.0084 9.15047 12.3068 9.38077L14.0642 10.7039C14.0677 10.7822 14.0706 10.8595 14.0728 10.9356C14.0846 11.3474 14.0805 11.9154 14.0765 12.2409L13.771 12.4979H11.0741Z" fill="#4B4949"/>
<path d="M13.1754 12.9991L12.3068 13.7298C11.9405 14.0129 11.3751 14.017 11.0031 13.7513C10.9795 13.7345 10.9567 13.7165 10.9347 13.6975C10.7112 13.5037 10.6301 13.2421 10.6883 12.9991H13.1754Z" fill="#4B4949"/>
<path d="M13.8675 8.67818C13.5667 6.46171 13.0493 4.25192 13.0493 4.25192H9.68084V8.5571C9.76334 8.45739 9.8544 8.36436 9.95294 8.27905C10.867 7.48725 12.2697 7.46422 13.2145 8.18657L13.8675 8.67818Z" fill="#4B4949"/>
<path d="M9.02295 9.23333L9.02295 5.25017L6.97725 5.25017L6.97725 9.24375L9.02295 9.23333Z" fill="#4B4949"/>
<path d="M6.31916 9.24711V4.25192H2.95067C2.95067 4.25192 2.00245 8.30187 1.92718 10.9356C1.90975 11.5455 1.92718 12.4979 1.92718 12.4979H2.76594C2.60874 12.218 2.51482 11.8901 2.51482 11.5131C2.51482 9.99722 4.03339 9.25343 5.07874 9.25343L6.31916 9.24711Z" fill="#4B4949"/>
</svg>
