<svg width="16" height="16" viewBox="0 0 16 16" fill="none" xmlns="http://www.w3.org/2000/svg">
<path d="M2.37256 7.44092H6.39966V11.468H2.37256V7.44092Z" fill="#554646"/>
<path d="M13.4545 1H2.54546C2.24422 1 2 1.34824 2 1.77779V4.88889V8V11.1111V14.2222C2 14.6518 2.24422 15 2.54546 15H6.18182H9.81818H13.4545C13.7558 15 14 14.6518 14 14.2222V11.1111V8V4.88889V1.77779C14 1.34824 13.7557 1 13.4545 1ZM5.63635 12.6667C5.63636 13.0962 5.28813 13.4444 4.85858 13.4444H3.86866C3.43911 13.4444 3.09089 13.0962 3.09089 12.6667V12.6667C3.09089 12.2371 3.43911 11.8889 3.86866 11.8889H4.85858C5.28813 11.8889 5.63634 12.2371 5.63635 12.6667V12.6667ZM5.63635 9.55554C5.63636 9.9851 5.28813 10.3333 4.85858 10.3333H3.86866C3.43911 10.3333 3.09089 9.98511 3.09089 9.55556V9.55556C3.09089 9.12601 3.43911 8.77779 3.86866 8.77779H4.85858C5.28813 8.77779 5.63634 9.126 5.63635 9.55554V9.55554ZM5.63635 6.44444C5.63636 6.87399 5.28813 7.22222 4.85858 7.22222H3.86866C3.43911 7.22222 3.09089 6.874 3.09089 6.44445V6.44445C3.09089 6.0149 3.43911 5.66668 3.86866 5.66668H4.85858C5.28813 5.66668 5.63634 6.01489 5.63635 6.44444V6.44444ZM9.2727 12.6667C9.2727 13.0962 8.92448 13.4444 8.49493 13.4444H7.50502C7.07547 13.4444 6.72726 13.0962 6.72726 12.6667V12.6667C6.72726 12.2371 7.07547 11.8889 7.50502 11.8889H8.49493C8.92448 11.8889 9.2727 12.2371 9.2727 12.6667V12.6667ZM9.2727 9.55556C9.2727 9.98511 8.92448 10.3333 8.49493 10.3333H7.50502C7.07547 10.3333 6.72726 9.98511 6.72726 9.55556V9.55556C6.72726 9.12601 7.07547 8.77779 7.50502 8.77779H8.49493C8.92448 8.77779 9.2727 9.12601 9.2727 9.55556V9.55556ZM9.2727 6.44445C9.2727 6.874 8.92448 7.22222 8.49493 7.22222H7.50502C7.07547 7.22222 6.72726 6.874 6.72726 6.44445V6.44445C6.72726 6.0149 7.07547 5.66668 7.50502 5.66668H8.49493C8.92448 5.66668 9.2727 6.0149 9.2727 6.44445V6.44445ZM12.909 12.6667C12.9091 13.0962 12.5608 13.4444 12.1313 13.4444H11.1414C10.7118 13.4444 10.3636 13.0962 10.3636 12.6667V12.6667C10.3636 12.2371 10.7118 11.8889 11.1414 11.8889H12.1313C12.5608 11.8889 12.909 12.2371 12.909 12.6667V12.6667ZM12.909 9.55554C12.9091 9.9851 12.5608 10.3333 12.1313 10.3333H11.1414C10.7118 10.3333 10.3636 9.98511 10.3636 9.55556V9.55556C10.3636 9.12601 10.7118 8.77779 11.1414 8.77779H12.1313C12.5608 8.77779 12.909 9.126 12.909 9.55554V9.55554ZM12.909 6.44444C12.9091 6.87399 12.5608 7.22222 12.1313 7.22222H11.1414C10.7118 7.22222 10.3636 6.874 10.3636 6.44445V6.44445C10.3636 6.0149 10.7118 5.66668 11.1414 5.66668H12.1313C12.5608 5.66668 12.909 6.01489 12.909 6.44444V6.44444Z" fill="#554646"/>
<path d="M13.4545 1H2.54546C2.24422 1 2 1.29849 2 1.66667V4.33333C2 4.70151 2.24422 5 2.54546 5H3.09092H5.63637H6.72727H9.27273H10.3636H12.9091H13.4545C13.7558 5 14 4.70151 14 4.33333V1.66667C14 1.29849 13.7558 1 13.4545 1Z" fill="#CD3D3C"/>
<path d="M4.76926 4.52377L6.54354 6.19818C6.61275 6.31232 6.65308 6.44159 6.66102 6.57479C6.66897 6.70798 6.64429 6.84107 6.58913 6.96252C6.53398 7.08396 6.45001 7.19008 6.34451 7.27167C6.23901 7.35326 6.11517 7.40785 5.98374 7.43072L5.05606 7.43622L5.04552 9.76724C5.04636 9.98386 4.96144 10.1919 4.80931 10.346C4.65718 10.5001 4.45021 10.5877 4.23359 10.5896C4.01697 10.5902 3.80882 10.5051 3.6546 10.3529C3.50037 10.2006 3.41262 9.99355 3.41049 9.77693L3.40944 7.44598L2.48176 7.45149C2.35003 7.43018 2.22545 7.37706 2.11885 7.29673C2.01224 7.2164 1.92683 7.11128 1.87001 6.9905C1.8132 6.86973 1.78671 6.73694 1.79283 6.60366C1.79896 6.47038 1.83751 6.34064 1.90516 6.22569L3.64446 4.53044C3.70498 4.43673 3.78789 4.35958 3.88571 4.30595C3.98353 4.25231 4.09318 4.22389 4.20478 4.22322C4.31638 4.22256 4.42642 4.24969 4.52496 4.30216C4.62351 4.35463 4.70747 4.43079 4.76926 4.52377Z" fill="#28EA3C"/>
<path fill-rule="evenodd" clip-rule="evenodd" d="M4.5384 4.7184L6.30466 6.38525C6.33781 6.44958 6.35723 6.52021 6.36155 6.59265C6.36659 6.67712 6.35094 6.76149 6.31599 6.83846C6.28103 6.91542 6.22782 6.98266 6.16098 7.03436C6.09998 7.08153 6.0293 7.11447 5.9541 7.13089L4.75741 7.13798L4.74552 9.76588L4.74552 9.7684C4.74605 9.90575 4.69221 10.0376 4.59583 10.1352C4.49965 10.2327 4.36883 10.2882 4.23179 10.2896C4.09475 10.2898 3.96304 10.2358 3.86537 10.1394C3.76778 10.043 3.71216 9.91214 3.71049 9.77522L3.7093 7.1442L2.50783 7.15133C2.43235 7.13579 2.36113 7.10366 2.29939 7.05714C2.23173 7.00615 2.17753 6.93944 2.14148 6.86281C2.10543 6.78617 2.08863 6.70194 2.09252 6.61743C2.09585 6.54485 2.11436 6.47394 2.14667 6.40922L3.8781 4.72164L3.89647 4.6932C3.92995 4.64136 3.97582 4.59868 4.02994 4.569C4.08406 4.53933 4.14476 4.52358 4.20656 4.52322C4.26837 4.52285 4.32934 4.53788 4.38397 4.56696C4.4386 4.59605 4.48515 4.63827 4.51941 4.68983L4.5384 4.7184ZM1.90516 6.22569C1.83751 6.34064 1.79896 6.47038 1.79283 6.60366C1.78671 6.73694 1.8132 6.86973 1.87001 6.9905C1.92683 7.11128 2.01224 7.2164 2.11885 7.29673C2.22545 7.37706 2.35003 7.43018 2.48176 7.45149L3.40944 7.44598L3.41049 9.77693C3.41262 9.99355 3.50037 10.2006 3.6546 10.3529C3.80882 10.5051 4.01697 10.5902 4.23359 10.5896C4.45021 10.5877 4.65718 10.5001 4.80931 10.346C4.96144 10.1919 5.04636 9.98386 5.04552 9.76724L5.05606 7.43622L5.98374 7.43072C6.11517 7.40785 6.23901 7.35326 6.34451 7.27167C6.45001 7.19008 6.53398 7.08396 6.58913 6.96252C6.64429 6.84107 6.66897 6.70798 6.66102 6.57479C6.65308 6.44159 6.61275 6.31232 6.54354 6.19818L4.76926 4.52377C4.70747 4.43079 4.62351 4.35463 4.52496 4.30216C4.42642 4.24969 4.31638 4.22256 4.20478 4.22322C4.09318 4.22389 3.98353 4.25231 3.88571 4.30595C3.78789 4.35958 3.70498 4.43673 3.64446 4.53044L1.90516 6.22569Z" fill="black"/>
<path d="M2.07178 12.068C2.07178 11.7366 2.34041 11.468 2.67178 11.468H5.79996C6.13133 11.468 6.39996 11.7366 6.39996 12.068V14.428C6.39996 14.7594 6.13133 15.028 5.79996 15.028H2.67178C2.34041 15.028 2.07178 14.7594 2.07178 14.428V12.068Z" fill="#28EA3C"/>
<path fill-rule="evenodd" clip-rule="evenodd" d="M5.79996 11.768H2.67178C2.50609 11.768 2.37178 11.9023 2.37178 12.068V14.428C2.37178 14.5937 2.50609 14.728 2.67178 14.728H5.79996C5.96565 14.728 6.09996 14.5937 6.09996 14.428V12.068C6.09996 11.9023 5.96565 11.768 5.79996 11.768ZM2.67178 11.468C2.34041 11.468 2.07178 11.7366 2.07178 12.068V14.428C2.07178 14.7594 2.34041 15.028 2.67178 15.028H5.79996C6.13133 15.028 6.39996 14.7594 6.39996 14.428V12.068C6.39996 11.7366 6.13133 11.468 5.79996 11.468H2.67178Z" fill="black"/>
</svg>
