<svg width="16" height="16" viewBox="0 0 16 16" fill="none" xmlns="http://www.w3.org/2000/svg">
<g clip-path="url(#clip0_475_1436)">
<path fill-rule="evenodd" clip-rule="evenodd" d="M10.4546 12.4162C12.2246 12.7165 13.901 11.5364 14.1989 9.78025C14.4969 8.02414 13.3036 6.35707 11.5336 6.05676C9.76367 5.75644 8.08728 6.93659 7.78932 8.69271C7.49135 10.4488 8.68464 12.1159 10.4546 12.4162ZM10.6135 11.4852C11.8651 11.6975 13.0504 10.863 13.2611 9.6213C13.4718 8.37957 12.628 7.20081 11.3765 6.98846C10.125 6.77611 8.93963 7.61058 8.72894 8.85231C8.51825 10.094 9.36201 11.2728 10.6135 11.4852Z" fill="#4B4949"/>
<path d="M14.6577 13.165C14.3164 12.9011 13.946 12.6147 13.5728 11.9304L12.6282 12.5954C13.1566 13.1704 13.307 13.6116 13.4456 14.0182C13.5725 14.3904 13.6895 14.7336 14.0774 15.1238C14.8891 15.9403 15.404 15.4809 15.404 15.4809C15.404 15.4809 16.0112 15.1503 15.5017 14.1211C15.2581 13.6293 14.9701 13.4066 14.6577 13.165Z" fill="#4B4949"/>
<path fill-rule="evenodd" clip-rule="evenodd" d="M10.0149 3.62174C10.1026 3.64612 10.1953 3.64612 10.2829 3.62174L14.3796 2.4822C14.6983 2.39357 15.0136 2.63318 15.0136 2.96391V7.12188C14.7589 6.64513 14.42 6.21571 14.0136 5.85584V3.62198L10.743 4.53171V4.71625C10.3333 4.73776 9.9342 4.81435 9.55469 4.93988V4.53168L6.44477 3.66663V9.13136C6.44318 9.20049 6.44319 9.26937 6.44477 9.33797V11.4606L7.1549 11.6581C7.53073 12.2459 8.04088 12.7464 8.64978 13.1119L5.99844 12.3744C5.91077 12.35 5.81812 12.35 5.73045 12.3744L1.61983 13.5178C1.30119 13.6065 0.98584 13.3669 0.98584 13.0361V4.20418C0.98584 3.97964 1.13552 3.78264 1.35185 3.72246L5.32847 2.61633C5.67913 2.51879 6.04976 2.51879 6.40041 2.61633L10.0149 3.62174ZM5.28412 3.66663V11.4606L1.98584 12.3781V4.58408L5.28412 3.66663Z" fill="#4B4949"/>
<path d="M13.9295 12.4773L12.7989 12.7918C12.7469 12.7281 12.6902 12.6626 12.6284 12.5954L13.573 11.9304C13.6924 12.1493 13.8115 12.3275 13.9295 12.4773Z" fill="#4B4949"/>
<path d="M9.55469 12.1258C9.83215 12.2624 10.134 12.3618 10.4548 12.4162C10.5468 12.4318 10.6394 12.4435 10.7307 12.4512C11.2965 12.499 11.8456 12.3981 12.3352 12.1788C12.6319 12.0458 12.9067 11.8694 13.1501 11.6562L10.743 12.3257V11.5034C10.7 11.4986 10.6569 11.4925 10.6137 11.4851C10.2115 11.4167 9.85128 11.2484 9.55469 11.0103V12.1258Z" fill="#4B4949"/>
<path d="M9.55469 7.45599C9.89105 7.18841 10.3021 7.01534 10.743 6.96838V6.01906C10.3234 6.05006 9.92094 6.16174 9.55469 6.34081V7.45599Z" fill="#4B4949"/>
<path d="M14.0136 8.04967V10.4395C14.0467 10.3571 14.0765 10.2727 14.1029 10.1866C14.1432 10.0551 14.1755 9.91959 14.1991 9.78041C14.3017 9.17555 14.2274 8.58122 14.0136 8.04967Z" fill="#4B4949"/>
</g>
<defs>
<clipPath id="clip0_475_1436">
<rect width="16" height="16" fill="white"/>
</clipPath>
</defs>
</svg>
