<svg width="16" height="16" viewBox="0 0 16 16" fill="none" xmlns="http://www.w3.org/2000/svg">
<path fill-rule="evenodd" clip-rule="evenodd" d="M7.03669 8.40899C7.87123 8.89082 7.87124 10.0954 7.03669 10.5772L2.87797 12.9782C2.04343 13.4601 1.00024 12.8578 1.00024 11.8941V7.09207C1.00024 6.12842 2.04342 5.52613 2.87797 6.00796L7.03669 8.40899ZM6.50019 9.64798C6.61941 9.57914 6.61941 9.40706 6.50019 9.33823L2.34148 6.93719C2.22226 6.86836 2.07323 6.9544 2.07323 7.09207V11.8941C2.07323 12.0318 2.22226 12.1178 2.34148 12.049L6.50019 9.64798Z" fill="#4B4949"/>
<path fill-rule="evenodd" clip-rule="evenodd" d="M5.32799 2C4.21549 2 3.31362 2.84403 3.31362 3.8852L3.31362 4.55218C3.41954 4.59705 3.52448 4.64921 3.62797 4.70896L4.22924 5.05611L4.22925 3.8852C4.22925 3.31729 4.72117 2.85691 5.32799 2.85691H9.47476L9.47476 5.61567C9.47475 5.80388 9.47474 5.97025 9.48677 6.10806C9.49958 6.25475 9.52828 6.40645 9.60862 6.55401C9.72633 6.77014 9.91407 6.94598 10.1452 7.0562C10.3029 7.13137 10.4649 7.15822 10.6217 7.1702C10.7689 7.18146 10.9467 7.18145 11.1478 7.18144L14.0956 7.18144L14.0956 14.8165H4.22923L4.22923 13.9302L3.62797 14.2773C3.5245 14.3371 3.41957 14.3892 3.31367 14.4341L3.31348 15.2448C3.31344 15.3585 3.36166 15.4675 3.44752 15.5479C3.53338 15.6282 3.64985 15.6734 3.77129 15.6734H14.5533C14.8061 15.6734 15.011 15.4816 15.0111 15.245L15.0112 6.75299C15.0112 6.63936 14.963 6.53038 14.8771 6.45003L10.2563 2.12549C10.1704 2.04514 10.054 2 9.93257 2H5.32799ZM13.4482 6.32453L10.3904 3.46284V5.59978C10.3904 5.80868 10.3907 5.93959 10.3994 6.03828C10.4075 6.13181 10.4208 6.15825 10.4244 6.16492C10.4544 6.22001 10.5022 6.26469 10.5609 6.29268C10.568 6.29605 10.5961 6.30848 10.6962 6.31614C10.8017 6.3242 10.9416 6.32453 11.1648 6.32453H13.4482Z" fill="#4B4949"/>
<path d="M3.31366 12.7267L4.22924 12.1981L4.22924 10.9592L3.31366 11.4878L3.31366 12.7267Z" fill="#4B4949"/>
<path d="M3.31364 7.49851L4.22924 8.02714L4.22924 6.78816L3.31363 6.25953L3.31364 7.49851Z" fill="#4B4949"/>
</svg>
