<svg width="16" height="16" viewBox="0 0 16 16" fill="none" xmlns="http://www.w3.org/2000/svg">
<path d="M7.4996 10.8945C6.76254 11.6335 5.73128 12.0942 4.60508 12.0934C3.47861 12.0938 2.44738 11.6333 1.71062 10.8945C0.971694 10.1577 0.510954 9.12616 0.51172 7.9998C0.511033 6.87329 0.971853 5.84205 1.71085 5.10524C2.44767 4.36651 3.47893 3.90579 4.6054 3.90659C5.7316 3.90595 6.76282 4.36667 7.49982 5.10556C8.02034 5.62485 8.39869 6.29224 8.57873 7.03447L15.4888 7.03479L15.4888 7.28646L15.4886 8.96587L15.4886 10.816L13.8747 10.8158L13.8747 8.96578L12.6335 8.96578L12.6335 10.816L11.004 10.816L11.0041 8.96578L10.6767 8.96587L8.57866 8.96562C8.39856 9.70779 8.02015 10.3752 7.4996 10.8945ZM6.17917 7.99996C6.17871 7.5611 6.00503 7.17555 5.71819 6.88669C5.42944 6.59992 5.04393 6.42645 4.6053 6.42565C4.16643 6.42645 3.78068 6.59976 3.49186 6.88669C3.205 7.1757 3.03129 7.56126 3.03081 7.9998C3.03126 8.43867 3.20495 8.82423 3.49178 9.11327C3.78055 9.40012 4.16631 9.57354 4.60518 9.57431C5.04378 9.57358 5.42929 9.40015 5.71811 9.11335C6.00497 8.82454 6.17864 8.43883 6.17917 7.99996Z" fill="#4B4949"/>
</svg>
