<svg width="16" height="16" viewBox="0 0 16 16" fill="none" xmlns="http://www.w3.org/2000/svg">
<path d="M10.8287 9.66761C12.0593 11.5636 13.1057 11.257 13.994 12.7518C14.8823 14.2466 14.004 14.8159 14.004 14.8159C14.004 14.8159 13.2797 15.569 11.9599 14.4302C10.6401 13.2915 11.1347 12.3265 9.47957 10.7808L10.8287 9.66761Z" fill="#4B4949"/>
<path fill-rule="evenodd" clip-rule="evenodd" d="M11.525 6.34913C11.2784 9.03477 8.88414 11.0104 6.17732 10.7618C3.4705 10.5132 1.47613 8.13455 1.72277 5.44891C1.96941 2.76328 4.36367 0.787658 7.07049 1.03625C9.77731 1.28483 11.7717 3.66349 11.525 6.34913ZM10.0908 6.21768C9.91644 8.11667 8.22349 9.5136 6.30953 9.33783C4.39556 9.16206 2.98537 7.48013 3.15976 5.58115C3.33416 3.68216 5.02711 2.28523 6.94108 2.461C8.85504 2.63677 10.2652 4.3187 10.0908 6.21768Z" fill="#4B4949"/>
<path d="M6.64305 8.44971C6.98635 8.44971 7.26465 8.17141 7.26465 7.82811L7.26465 6.5464H8.54637C8.88967 6.5464 9.16797 6.2681 9.16797 5.9248C9.16797 5.5815 8.88967 5.3032 8.54637 5.3032L7.26465 5.3032L7.26465 4.0215C7.26465 3.6782 6.98635 3.3999 6.64305 3.3999C6.29975 3.3999 6.02145 3.6782 6.02145 4.0215L6.02145 5.3032L4.73976 5.3032C4.39646 5.3032 4.11816 5.5815 4.11816 5.9248C4.11816 6.2681 4.39646 6.5464 4.73976 6.5464H6.02145L6.02145 7.82811C6.02145 8.17141 6.29975 8.44971 6.64305 8.44971Z" fill="#4B4949"/>
</svg>
