<svg width="16" height="16" viewBox="0 0 16 16" fill="none" xmlns="http://www.w3.org/2000/svg">
<path d="M9.18443 3.58234C8.81639 3.52795 8.45396 3.5 8.10352 3.5C5.33623 3.5 1.61347 5.24301 0.5 7.9853C1.02467 9.27748 2.12869 10.3543 3.43911 11.1318L4.24351 10.0748C3.24191 9.50242 2.44821 8.77696 1.98061 7.98559C2.46137 7.17383 3.28738 6.43502 4.33131 5.86097C5.57454 5.17732 6.97541 4.81322 8.10352 4.81322C8.15072 4.81322 8.1983 4.81386 8.24625 4.81513L9.18443 3.58234Z" fill="#4B4949"/>
<path d="M11.736 5.84052L12.5406 4.7832C13.8529 5.55838 14.9595 6.6541 15.5 7.9853C14.3865 10.7276 10.8708 12.5 8.10352 12.5C7.67509 12.5 7.22376 12.4575 6.76275 12.3755L7.67993 11.1703C7.82472 11.1813 7.96618 11.1868 8.10352 11.1868C9.22204 11.1868 10.5629 10.8208 11.749 10.1374C12.7455 9.56327 13.5455 8.81683 14.0234 7.98559C13.5466 7.15816 12.7488 6.41856 11.7537 5.85058C11.7478 5.84722 11.7419 5.84386 11.736 5.84052Z" fill="#4B4949"/>
<path d="M7.63385 5.61983C6.50768 5.83571 5.65757 6.81269 5.65757 7.98527C5.65757 8.05889 5.66092 8.13175 5.66748 8.20369L7.63385 5.61983Z" fill="#4B4949"/>
<path d="M8.27425 10.3894L10.4944 7.47197C10.5309 7.63738 10.55 7.80912 10.55 7.98527C10.55 9.25975 9.54575 10.3032 8.27425 10.3894Z" fill="#4B4949"/>
<path fill-rule="evenodd" clip-rule="evenodd" d="M12.9929 1.44168C12.6808 1.21432 12.3182 1.17512 12.1829 1.35413L2.68726 13.8225C2.55197 14.0016 2.69541 14.3309 3.00749 14.5583C3.31957 14.7857 3.68219 14.8249 3.81746 14.6459L13.3131 2.1775C13.4483 1.99849 13.305 1.66905 12.9929 1.44168Z" fill="#4B4949"/>
</svg>
