<svg width="16" height="16" viewBox="0 0 16 16" fill="none" xmlns="http://www.w3.org/2000/svg">
<g clip-path="url(#clip0_606_1674)">
<path d="M6.61893 13.4105L6.62676 13.4111C6.82658 13.4253 7.02813 13.3936 7.21469 13.3172C7.2436 13.166 7.29053 13.0158 7.35655 12.8694L10.4103 7.0847C10.8642 6.07771 12.0485 5.62938 13.0555 6.08331L13.3322 6.18747C13.408 6.22166 13.4809 6.25945 13.5505 6.30053L14.8609 4.80668C15.335 4.26627 15.2812 3.44388 14.7408 2.96982C14.2004 2.49576 13.378 2.54954 12.9039 3.08995L6.61743 10.2563L2.87674 6.51559C2.36944 6.00829 1.54695 6.00829 1.03965 6.51559C0.532355 7.02289 0.532355 7.84538 1.03965 8.35268L5.71709 13.0301C5.96459 13.2776 6.28645 13.4043 6.61108 13.4104L6.61893 13.4105Z" fill="#4B4949"/>
<path d="M11.7048 7.39679C11.7472 7.30044 11.8185 7.2195 11.9187 7.15398C12.0228 7.08461 12.1287 7.04993 12.2367 7.04993C12.3407 7.04993 12.4448 7.08461 12.5488 7.15398C12.6567 7.2195 12.73 7.30044 12.7685 7.39679L15.9481 14.7734C15.9828 14.8504 16.0001 14.9294 16.0001 15.0104C16.0001 15.1684 15.9423 15.3052 15.8267 15.4208C15.7149 15.5326 15.58 15.5885 15.422 15.5885C15.3141 15.5885 15.2081 15.5538 15.104 15.4844C15 15.415 14.9268 15.3322 14.8844 15.2358L13.8958 12.9408L10.6006 12.8945L9.58896 15.2416C9.55042 15.338 9.47912 15.4208 9.37506 15.4902C9.271 15.5634 9.16502 15.6 9.0571 15.6C8.89909 15.6 8.76227 15.5442 8.64665 15.4324C8.53489 15.3168 8.479 15.18 8.479 15.0219C8.479 14.941 8.49635 14.862 8.53103 14.7849L11.7048 7.39679ZM12.2367 9.09062L11.0978 11.7441L13.3929 11.773L12.2367 9.09062Z" fill="#4B4949"/>
</g>
<defs>
<clipPath id="clip0_606_1674">
<rect width="16" height="16" fill="white"/>
</clipPath>
</defs>
</svg>
