<svg width="16" height="16" viewBox="0 0 16 16" fill="none" xmlns="http://www.w3.org/2000/svg">
<path d="M11.3567 6.36093C11.4008 6.26067 11.475 6.17646 11.5793 6.10828C11.6875 6.03609 11.7978 6 11.9101 6C12.0184 6 12.1267 6.03609 12.235 6.10828C12.3473 6.17646 12.4235 6.26067 12.4636 6.36093L15.7721 14.0368C15.8082 14.117 15.8263 14.1992 15.8263 14.2834C15.8263 14.4479 15.7661 14.5902 15.6458 14.7106C15.5295 14.8269 15.3891 14.885 15.2247 14.885C15.1124 14.885 15.0021 14.8489 14.8938 14.7767C14.7856 14.7045 14.7094 14.6183 14.6653 14.5181L13.6366 12.1299L10.2077 12.0817L9.15499 14.5241C9.11489 14.6243 9.04069 14.7106 8.93241 14.7827C8.82413 14.8589 8.71385 14.897 8.60156 14.897C8.43713 14.897 8.29476 14.8389 8.17445 14.7226C8.05815 14.6023 8 14.4599 8 14.2955C8 14.2113 8.01805 14.129 8.05414 14.0488L11.3567 6.36093ZM11.9101 8.1235L10.7251 10.8846L13.1132 10.9147L11.9101 8.1235Z" fill="#4B4949"/>
<path fill-rule="evenodd" clip-rule="evenodd" d="M12.2808 3.58357C12.8418 2.96195 13.8006 2.91283 14.4222 3.47384C15.0438 4.03486 15.0929 4.99359 14.5319 5.61521L13.6515 6.59067L14.1206 7.67886L15.3316 6.33699C16.2913 5.27369 16.2073 3.63376 15.1439 2.67411C14.0806 1.71445 12.4407 1.79849 11.4811 2.86179L7.02526 7.79889L4.78906 5.84239C3.71034 4.89858 2.07074 5.00796 1.12695 6.0867C0.18314 7.16542 0.29254 8.80501 1.37125 9.74881L5.48959 13.352C5.93634 13.7429 6.48015 13.9532 7.03002 13.9887C7.05334 13.8708 7.08981 13.7568 7.13795 13.648L7.45789 12.9033C7.39987 12.9105 7.34145 12.9144 7.28294 12.9149L7.27362 12.915L7.2643 12.9154C6.8872 12.9318 6.50509 12.8091 6.19895 12.5413L2.08062 8.93803C1.44967 8.386 1.3857 7.42699 1.93773 6.79605C2.48974 6.1651 3.44875 6.10113 4.07969 6.65316L7.11426 9.30817L12.2808 3.58357ZM9.08392 11.6517L8.1434 13.8411C8.53431 13.7016 8.89756 13.466 9.1951 13.1364L11.2217 10.8909L10.7251 10.8846L11.5855 8.87986L9.08392 11.6517ZM12.0258 8.39196L12.4949 9.48015L13.3836 8.49544L12.9146 7.40724L12.0258 8.39196Z" fill="#4B4949"/>
</svg>
