<svg width="16" height="16" viewBox="0 0 16 16" fill="none" xmlns="http://www.w3.org/2000/svg">
<path fill-rule="evenodd" clip-rule="evenodd" d="M5.83206 1C6.55568 1 7.14456 1.58888 7.14456 2.3125V13.6875C7.14456 14.4111 6.55568 15 5.83206 15L3.10244 15C2.37881 15 1.78994 14.4111 1.78994 13.6875V2.3125C1.78994 1.58888 2.37881 1 3.10244 1H5.83206ZM2.76956 9.75H6.26956V6.25H2.76956V9.75ZM6.26956 13.6875V10.625H2.76956C2.76956 10.625 2.76956 13.3278 2.76956 13.6875C2.76956 14.0472 3.0287 14.125 3.21915 14.125C3.40961 14.125 5.83206 14.125 5.83206 14.125C6.07268 14.125 6.26956 13.9281 6.26956 13.6875Z" fill="#4B4949"/>
<path d="M14.3219 7.45148C14.2479 7.22742 14.1458 7.02687 14.0155 6.84983C13.8883 6.67003 13.7344 6.5165 13.5538 6.38926C13.3762 6.26201 13.172 6.16658 12.9412 6.10295C12.7103 6.03656 12.4587 6.00337 12.1865 6.00337C11.6981 6.00337 11.263 6.11817 10.8812 6.34776C10.4994 6.57736 10.199 6.91483 9.98002 7.36019C9.76397 7.80279 9.65594 8.3422 9.65594 8.97842C9.65594 9.62018 9.76397 10.1637 9.98002 10.6091C10.1961 11.0545 10.4965 11.3933 10.8812 11.6257C11.266 11.8553 11.7129 11.9701 12.222 11.9701C12.6837 11.9701 13.0832 11.8871 13.4206 11.7211C13.761 11.5551 13.8366 11.5134 14.131 11.2232C14.3145 10.9161 14.4062 10.5565 14.4062 10.1444L14.7791 10.1983H12.7463V8.99502H16V10.0157C16 10.7433 15.9097 11.1651 15.5782 11.6962C15.2468 12.2273 14.791 12.6367 14.2109 12.9244C13.6308 13.2093 12.9649 13.3518 12.2131 13.3518C11.3755 13.3518 10.64 13.1761 10.0067 12.8248C9.37625 12.4708 8.88346 11.9687 8.5283 11.3186C8.1761 10.6658 8 9.89127 8 8.99502C8 8.309 8.10359 7.69629 8.31077 7.15688C8.5209 6.61747 8.81391 6.15966 9.18979 5.78346C9.56567 5.40449 10.0067 5.1168 10.5128 4.9204C11.0189 4.72123 11.5694 4.62165 12.1643 4.62165C12.6674 4.62165 13.1365 4.69081 13.5716 4.82912C14.0067 4.96466 14.3929 5.15829 14.7303 5.41002C15.0707 5.66174 15.3504 5.96049 15.5694 6.30627C15.7884 6.65205 15.9319 7.03378 16 7.45148H14.3219Z" fill="#4B4949"/>
</svg>
