<svg width="16" height="16" viewBox="0 0 16 16" fill="none" xmlns="http://www.w3.org/2000/svg">
<path d="M5.77434 4.78298C5.45547 4.41516 5.441 4.15287 5.74202 3.76331L7.40269 1.78951C7.42005 1.76523 7.43857 1.74145 7.45824 1.71868C7.76189 1.36757 8.24166 1.36352 8.54933 1.71868C8.56902 1.74145 8.58757 1.76523 8.60494 1.78951L10.0911 3.76331C10.3921 4.15338 10.3776 4.41516 10.0588 4.78297C9.73989 5.15129 9.23735 4.96865 8.93633 4.57858L8.73991 4.3241L8.73991 9.45301C8.73991 9.96602 8.39979 10.3819 7.98022 10.3819C7.56065 10.3819 7.22053 9.96602 7.22053 9.45301L7.22053 4.3241L6.89677 4.74351C6.59574 5.13308 6.09322 5.15079 5.77434 4.78298Z" fill="#4B4949"/>
<path fill-rule="evenodd" clip-rule="evenodd" d="M2.26953 9.85626C2.68374 9.85626 3.01953 10.192 3.01953 10.6063V11.8186C3.01953 11.9567 3.13146 12.0686 3.26953 12.0686H12.5635C12.7015 12.0686 12.8135 11.9567 12.8135 11.8186V10.6063C12.8135 10.192 13.1493 9.85626 13.5635 9.85626C13.9777 9.85626 14.3135 10.192 14.3135 10.6063V11.8186C14.3135 12.7851 13.53 13.5686 12.5635 13.5686H3.26953C2.30303 13.5686 1.51953 12.7851 1.51953 11.8186V10.6063C1.51953 10.192 1.85532 9.85626 2.26953 9.85626Z" fill="#4B4949"/>
</svg>
