<svg width="16" height="16" viewBox="0 0 16 16" fill="none" xmlns="http://www.w3.org/2000/svg">
<path d="M5.38547 2.47436C5.25915 2.08494 5.48986 1.66119 5.90079 1.52788C6.31172 1.39458 6.74726 1.60219 6.87359 1.99161L10.6153 13.5256C10.7416 13.9151 10.5109 14.3388 10.0999 14.4721C9.68901 14.6054 9.25348 14.3978 9.12715 14.0084L5.38547 2.47436Z" fill="#4B4949"/>
<path d="M5.79371 6.97349L3.49766 6.97349L3.81493 6.72862C4.30124 6.35332 4.52894 5.7268 4.06975 5.32926C3.61119 4.93171 3.28482 4.91366 2.79851 5.28896L0.763722 7.14177C0.733445 7.16343 0.703801 7.18655 0.675417 7.2111C0.232628 7.59467 0.237674 8.19282 0.675417 8.57138C0.703801 8.59591 0.733445 8.619 0.763722 8.64064L2.79851 10.711C3.28419 11.0863 3.61119 11.0683 4.06975 10.6707C4.52831 10.2732 4.50623 9.64668 4.02055 9.27139L3.49766 8.86774L6.40821 8.86774L5.79371 6.97349Z" fill="#4B4949"/>
<path d="M9.10423 8.86773L7.45951 8.86774L6.84501 6.97349L8.48973 6.97348L9.10423 8.86773Z" fill="#4B4949"/>
<path d="M10.1555 8.86773L12.502 8.86772L11.9791 9.27137C11.4934 9.64666 11.4714 10.2732 11.9299 10.6707C12.3885 11.0683 12.7155 11.0863 13.2012 10.711L15.236 8.64062C15.2662 8.61898 15.2959 8.59589 15.3243 8.57137C15.762 8.1928 15.7671 7.59466 15.3243 7.21109C15.2959 7.18653 15.2662 7.16341 15.236 7.14176L13.2012 5.28896C12.7149 4.91366 12.3885 4.9317 11.9299 5.32925C11.4707 5.7268 11.6984 6.35331 12.1848 6.72861L12.502 6.97348L9.54103 6.97348L10.1555 8.86773Z" fill="#4B4949"/>
</svg>
