<svg width="16" height="16" viewBox="0 0 16 16" fill="none" xmlns="http://www.w3.org/2000/svg">
<path d="M2.51667 13.5851H0.781738L3.94054 4.61255H5.94711L9.11029 13.5851H7.37536L4.97887 6.45263H4.90878L2.51667 13.5851ZM2.57363 10.0671H7.30526V11.3727H2.57363V10.0671Z" fill="#4B4949"/>
<path d="M11.665 13.7209C11.2386 13.7209 10.8545 13.645 10.5127 13.4931C10.1739 13.3383 9.90522 13.1105 9.70661 12.8097C9.51092 12.5088 9.41307 12.1379 9.41307 11.6969C9.41307 11.3172 9.48317 11.0032 9.62337 10.7549C9.76357 10.5066 9.95488 10.308 10.1973 10.1591C10.4397 10.0101 10.7128 9.89767 11.0166 9.82173C11.3233 9.74287 11.6402 9.68591 11.9673 9.65086C12.3616 9.60997 12.6814 9.57346 12.9268 9.54134C13.1721 9.50629 13.3503 9.45371 13.4613 9.38361C13.5752 9.3106 13.6321 9.19815 13.6321 9.04627V9.01998C13.6321 8.68993 13.5343 8.43437 13.3386 8.25328C13.1429 8.07219 12.861 7.98165 12.493 7.98165C12.1046 7.98165 11.7964 8.06635 11.5686 8.23576C11.3437 8.40516 11.1918 8.60523 11.113 8.83597L9.63213 8.62568C9.74896 8.21677 9.94173 7.87504 10.2104 7.60049C10.4792 7.32302 10.8077 7.11564 11.1962 6.97837C11.5847 6.83817 12.014 6.76807 12.4843 6.76807C12.8085 6.76807 13.1312 6.80604 13.4525 6.88198C13.7738 6.95792 14.0673 7.08351 14.3331 7.25876C14.5989 7.43108 14.8121 7.66621 14.9727 7.96412C15.1363 8.26204 15.2181 8.63444 15.2181 9.08132V13.5851H13.6935V12.6607H13.6409C13.5445 12.8476 13.4087 13.0229 13.2334 13.1864C13.0611 13.3471 12.8435 13.4771 12.5806 13.5764C12.3207 13.6728 12.0155 13.7209 11.665 13.7209ZM12.0768 12.5556C12.3952 12.5556 12.6712 12.4928 12.9048 12.3672C13.1385 12.2387 13.3181 12.0693 13.4437 11.859C13.5722 11.6487 13.6365 11.4194 13.6365 11.1711V10.3781C13.5868 10.419 13.5021 10.457 13.3824 10.492C13.2656 10.5271 13.1341 10.5578 12.9881 10.584C12.842 10.6103 12.6975 10.6337 12.5544 10.6541C12.4112 10.6746 12.2871 10.6921 12.182 10.7067C11.9454 10.7388 11.7336 10.7914 11.5467 10.8644C11.3598 10.9375 11.2123 11.0397 11.1042 11.1711C10.9961 11.2996 10.9421 11.4661 10.9421 11.6706C10.9421 11.9626 11.0487 12.1832 11.2619 12.3321C11.4751 12.4811 11.7468 12.5556 12.0768 12.5556Z" fill="#4B4949"/>
</svg>
