<svg width="16" height="16" viewBox="0 0 16 16" fill="none" xmlns="http://www.w3.org/2000/svg">
<path fill-rule="evenodd" clip-rule="evenodd" d="M10.6495 6.26427C10.6495 6.73967 11.0349 7.12506 11.5103 7.12506C11.9857 7.12506 12.371 6.73967 12.371 6.26427V4.84516H13.7683C14.2437 4.84516 14.6291 4.45977 14.6291 3.98437C14.6291 3.50897 14.2437 3.12358 13.7683 3.12358H12.371V1.70442C12.371 1.22902 11.9857 0.843628 11.5103 0.843628C11.0349 0.843628 10.6495 1.22902 10.6495 1.70442V3.12358H9.20844C8.73304 3.12358 8.34766 3.50897 8.34766 3.98437C8.34766 4.45977 8.73304 4.84516 9.20844 4.84516H10.6495V6.26427Z" fill="#4B4949"/>
<path d="M11.1973 12.7339C11.2401 12.7524 11.2859 12.7616 11.3321 12.7612L11.3331 12.7601C11.5291 12.7601 11.689 12.5939 11.689 12.3894C11.689 12.1848 11.5291 12.0186 11.3331 12.0186C11.1372 12.0186 10.9773 12.1848 10.9773 12.3894C10.9777 12.4386 10.9872 12.4873 11.0052 12.5326C11.0233 12.578 11.0495 12.6191 11.0825 12.6536C11.1154 12.6882 11.1544 12.7154 11.1973 12.7339Z" fill="#4B4949"/>
<path fill-rule="evenodd" clip-rule="evenodd" d="M11.0494 8.46288C10.6078 8.37081 10.2138 8.14906 9.90908 7.83929C8.67015 8.19924 7.26359 8.31955 5.81236 8.13924C4.10805 7.92828 2.71361 7.21868 2.19382 6.63693V6.63587C2.19447 5.95113 2.19547 5.26639 2.19682 4.58166C3.22041 5.21561 5.09665 5.64179 7.24179 5.64179C7.39125 5.64179 7.53941 5.63973 7.68606 5.63568C7.42851 5.39813 7.22666 5.10108 7.10233 4.76636C5.77282 4.75331 4.53846 4.55408 3.63824 4.22153C3.21241 4.06384 2.88654 3.88484 2.68262 3.70798C2.54268 3.58545 2.4987 3.50554 2.4987 3.47358C2.4987 3.44055 2.54268 3.3617 2.68262 3.24024C2.88654 3.06231 3.21341 2.88331 3.63824 2.72562C4.56986 2.38254 5.85934 2.1801 7.24179 2.1801C7.44792 2.1801 7.65198 2.18458 7.85309 2.19334C8.22977 1.90788 8.69927 1.73851 9.20834 1.73851H9.26427V1.70445C9.26427 1.61487 9.26951 1.52652 9.27971 1.43969C8.64492 1.35282 7.95836 1.30536 7.24179 1.30536C4.00109 1.30536 1.37415 2.276 1.37315 3.47358C1.37328 3.4992 1.37461 3.52481 1.37715 3.55029C1.37143 5.76289 1.36976 7.97551 1.37215 10.1881L1.37815 12.4373V12.4927L1.39314 12.546C1.81497 14.0323 4.01908 15.1564 7.35274 15.1564C9.35394 15.1564 10.4275 14.825 11.4811 14.2699C11.787 14.108 12.0519 13.9194 12.2848 13.7382C12.4407 13.6168 13.0524 13.1592 13.0524 13.1592L13.0861 7.86445C12.8612 8.08592 12.5899 8.26035 12.2881 8.3718L12.2838 9.75768C10.6774 10.918 8.31136 11.4997 5.81236 11.1897C4.10805 10.9776 2.71261 10.268 2.19382 9.68522V7.80894C2.94166 8.38821 4.22567 8.87342 5.73339 9.0598C7.62665 9.2958 9.50361 9.07615 11.0494 8.46288ZM2.19582 10.8594L2.19966 12.3737C2.54939 13.4294 4.48745 14.2699 7.35274 14.2699C8.93711 14.2699 10.1786 14.0142 11.1332 13.5113C11.4011 13.3696 11.605 13.2503 11.805 13.0947L11.8623 13.0503C11.9654 12.9708 12.0464 12.9083 12.1678 12.7942C12.2089 12.7557 12.2478 12.7178 12.2847 12.6813L12.2788 10.8956C10.5695 11.9621 8.16442 12.4117 5.73339 12.1102C4.22767 11.9228 2.94366 11.4386 2.19582 10.8594Z" fill="#4B4949"/>
<path d="M13.0334 3.12361C13.0834 3.23753 13.1094 3.35443 13.1094 3.47358C13.1097 3.52036 13.1061 3.56708 13.0984 3.61315C13.108 3.64663 13.1128 3.68149 13.1124 3.7165L13.1053 4.84519H12.3709V6.2643C12.3709 6.39133 12.3434 6.51194 12.294 6.62049L12.3008 4.5742C11.8814 4.83638 11.3174 5.06308 10.6494 5.2393V4.84519H9.20834C9.02386 4.84519 8.85293 4.78715 8.71282 4.68835C9.52228 4.59957 10.2555 4.43873 10.8453 4.22153C11.2702 4.06384 11.597 3.88484 11.801 3.70691C11.9409 3.58545 11.9849 3.50554 11.9849 3.47358C11.9849 3.44161 11.9409 3.3617 11.801 3.23917C11.597 3.06231 11.2712 2.88331 10.8453 2.72562C10.7817 2.7021 10.7163 2.67924 10.6494 2.65707V1.70821C11.3561 1.8948 11.9461 2.13791 12.3709 2.41967V3.12361H13.0334Z" fill="#4B4949"/>
<path d="M11.6504 7.11373C11.8478 7.00182 12.037 6.88235 12.217 6.75574C12.0868 6.94258 11.8845 7.07538 11.6504 7.11373Z" fill="#4B4949"/>
<path d="M11.3321 6.62095C11.239 6.62181 11.1493 6.58325 11.0828 6.51375C11.0163 6.44424 10.9783 6.34945 10.9773 6.25017C10.9773 6.0456 11.1372 5.88046 11.3331 5.88046C11.5291 5.88046 11.689 6.0456 11.689 6.25017C11.689 6.45581 11.5291 6.62095 11.3331 6.62095H11.3321Z" fill="#4B4949"/>
<path d="M11.3321 9.67137C11.239 9.67223 11.1493 9.63367 11.0828 9.56417C11.0163 9.49466 10.9783 9.39987 10.9773 9.30059C10.9773 9.09602 11.1372 8.92981 11.3331 8.92981C11.5291 8.92981 11.689 9.09602 11.689 9.30059C11.689 9.50516 11.5291 9.67137 11.3331 9.67137H11.3321Z" fill="#4B4949"/>
</svg>
