<svg width="16" height="16" viewBox="0 0 16 16" fill="none" xmlns="http://www.w3.org/2000/svg">
<path d="M3.00588 2.01719C3.00588 1.74105 3.22974 1.51719 3.50588 1.51719H5.88758C6.16372 1.51719 6.38758 1.74105 6.38758 2.01719V3.75036H3.00588V2.01719Z" fill="#4B4949"/>
<path d="M9.61277 2.01719C9.61277 1.74105 9.83663 1.51719 10.1128 1.51719H12.4945C12.7706 1.51719 12.9945 1.74105 12.9945 2.01719V3.75036H9.61277V2.01719Z" fill="#4B4949"/>
<path d="M1.63721 12.9991H6.60211V13.9828C6.60211 14.2589 6.37826 14.4828 6.10211 14.4828H2.13721C1.86106 14.4828 1.63721 14.2589 1.63721 13.9828V12.9991Z" fill="#4B4949"/>
<path d="M9.39837 12.9991H14.3633V13.9828C14.3633 14.2589 14.1394 14.4828 13.8633 14.4828H9.89837C9.62223 14.4828 9.39837 14.2589 9.39837 13.9828V12.9991Z" fill="#4B4949"/>
<path d="M9.02317 10.0782H6.97748L6.97748 5.25017L9.02317 5.25017L9.02317 10.0782Z" fill="#4B4949"/>
<path d="M2.95078 4.25192H6.31927V12.4979H1.92728C1.92728 12.4979 1.90985 11.5455 1.92728 10.9356C2.00255 8.30186 2.95078 4.25192 2.95078 4.25192Z" fill="#4B4949"/>
<path d="M13.0494 4.25192H9.68087V12.4979H14.0728C14.0728 12.4979 14.0903 11.5455 14.0728 10.9356C13.9976 8.30186 13.0494 4.25192 13.0494 4.25192Z" fill="#4B4949"/>
</svg>
