<svg width="16" height="16" viewBox="0 0 16 16" fill="none" xmlns="http://www.w3.org/2000/svg">
<path fill-rule="evenodd" clip-rule="evenodd" d="M5.83206 1C6.55568 1 7.14456 1.58888 7.14456 2.3125V13.6875C7.14456 14.4111 6.55568 15 5.83206 15L3.10244 15C2.37881 15 1.78994 14.4111 1.78994 13.6875V2.3125C1.78994 1.58888 2.37881 1 3.10244 1H5.83206ZM2.76956 9.75H6.26956V6.25H2.76956V9.75ZM6.26956 13.6875V10.625H2.76956C2.76956 10.625 2.76956 13.3278 2.76956 13.6875C2.76956 14.0472 3.0287 14.125 3.21915 14.125C3.40961 14.125 5.83206 14.125 5.83206 14.125C6.07268 14.125 6.26956 13.9281 6.26956 13.6875Z" fill="#4B4949"/>
<path d="M14.4126 6.95041C14.3426 6.73163 14.246 6.53581 14.1228 6.36294C14.0024 6.18738 13.8568 6.03747 13.6861 5.91322C13.5181 5.78898 13.3249 5.69579 13.1065 5.63367C12.8881 5.56885 12.6501 5.53644 12.3925 5.53644C11.9305 5.53644 11.519 5.64853 11.1578 5.87271C10.7966 6.09689 10.5124 6.42641 10.3052 6.86128C10.1008 7.29344 9.99865 7.82013 9.99865 8.44136C9.99865 9.06799 10.1008 9.59874 10.3052 10.0336C10.5096 10.4685 10.7938 10.7993 11.1578 11.0262C11.5218 11.2504 11.9445 11.3625 12.4261 11.3625C12.8629 11.3625 13.2409 11.2815 13.5601 11.1194C13.882 10.9573 13.9536 10.9166 14.232 10.6332C14.4056 10.3334 14.4924 9.98228 14.4924 9.57983L14.8452 9.6325H12.9221V8.45757H16.0001V9.45423C16.0001 10.1646 15.9147 10.5765 15.6012 11.0951C15.2876 11.6137 14.8564 12.0134 14.3076 12.2943C13.7589 12.5725 13.1289 12.7116 12.4177 12.7116C11.6254 12.7116 10.9296 12.5401 10.3304 12.1971C9.73406 11.8514 9.26789 11.3611 8.9319 10.7264C8.59872 10.089 8.43213 9.33269 8.43213 8.45757C8.43213 7.78772 8.53012 7.18945 8.72611 6.66275C8.9249 6.13606 9.20209 5.68904 9.55767 5.32171C9.91325 4.95167 10.3304 4.67077 10.8092 4.47899C11.288 4.28452 11.8088 4.18729 12.3715 4.18729C12.8475 4.18729 13.2913 4.25481 13.7029 4.38986C14.1144 4.52221 14.4798 4.71128 14.799 4.95707C15.121 5.20286 15.3856 5.49457 15.5928 5.83219C15.7999 6.16982 15.9357 6.54256 16.0001 6.95041H14.4126Z" fill="#4B4949"/>
</svg>
