<svg width="16" height="16" viewBox="0 0 16 16" fill="none" xmlns="http://www.w3.org/2000/svg">
<path d="M11.3567 7.4639C11.4008 7.36364 11.475 7.27942 11.5793 7.21125C11.6875 7.13906 11.7978 7.10297 11.9101 7.10297C12.0184 7.10297 12.1267 7.13906 12.235 7.21125C12.3473 7.27942 12.4235 7.36364 12.4636 7.4639L15.7721 15.1398C15.8082 15.22 15.8263 15.3022 15.8263 15.3864C15.8263 15.5508 15.7661 15.6932 15.6458 15.8135C15.5295 15.9298 15.3891 15.988 15.2247 15.988C15.1124 15.988 15.0021 15.9519 14.8938 15.8797C14.7856 15.8075 14.7094 15.7213 14.6653 15.621L13.6366 13.2328L10.2077 13.1847L9.15499 15.627C9.11489 15.7273 9.04069 15.8135 8.93241 15.8857C8.82413 15.9619 8.71385 16 8.60156 16C8.43713 16 8.29476 15.9418 8.17445 15.8255C8.05815 15.7052 8 15.5629 8 15.3984C8 15.3142 8.01805 15.232 8.05414 15.1518L11.3567 7.4639ZM11.9101 9.22646L10.7251 11.9876L13.1132 12.0177L11.9101 9.22646Z" fill="#4B4949"/>
<path fill-rule="evenodd" clip-rule="evenodd" d="M12.9241 6.17265C13.6175 5.3902 13.5521 4.19344 12.7743 3.4915C11.9922 2.78561 10.7859 2.84742 10.08 3.62956L5.61331 8.57869L3.16663 6.43804C2.37301 5.74368 1.16674 5.82415 0.472394 6.61778C-0.221979 7.4114 -0.141498 8.61766 0.652122 9.31203L4.47557 12.6572C4.86041 12.994 5.34224 13.1485 5.81573 13.1278C6.19164 13.1244 6.56567 13.0106 6.88512 12.789L9.89108 6.99512C10.0667 6.59599 10.3492 6.29943 10.6601 6.09481C10.9556 5.8991 11.3216 5.75574 11.7397 5.73978L11.8175 5.7396L11.8896 5.73959C12.3055 5.75454 12.3392 5.76204 12.6233 5.94594C12.7254 6.00992 12.8271 6.08518 12.9241 6.17265Z" fill="#4B4949"/>
</svg>
