<svg width="16" height="16" viewBox="0 0 16 16" fill="none" xmlns="http://www.w3.org/2000/svg">
<g clip-path="url(#clip0_484_2198)">
<path d="M4.05488 10.7014C4.45488 11.0773 5.12339 11.0943 5.54706 10.7395L7.69361 8.78194C7.72002 8.76148 7.74588 8.73965 7.77063 8.71646C8.15248 8.35852 8.15688 7.79298 7.77063 7.43031C7.74588 7.4071 7.72002 7.38523 7.69361 7.36476L5.54706 5.61293C5.12284 5.25809 4.45488 5.27515 4.05488 5.65103C3.65432 6.02691 3.67358 6.61928 4.09779 6.97413L4.37455 7.20565H-1.92731C-2.48522 7.20565 -2.9375 7.60658 -2.9375 8.10116C-2.9375 8.59574 -2.48522 8.99666 -1.92731 8.99666L4.55392 8.99667L4.09779 9.37831C3.67413 9.73315 3.65487 10.3255 4.05488 10.7014Z" fill="#4B4949"/>
<path d="M1.65869 2.52578C1.65869 2.23539 1.86424 2 2.11778 2H15.4611C15.7147 2 15.9202 2.23539 15.9202 2.52578V2.78867C15.9202 3.07905 15.7147 3.31445 15.4611 3.31445H2.11778C1.86424 3.31445 1.65869 3.07905 1.65869 2.78867V2.52578Z" fill="#4B4949"/>
<path d="M9.82943 7.2347C9.91233 7.16983 10.0262 7.1298 10.1518 7.1298H15.4611C15.7147 7.1298 15.9202 7.29285 15.9202 7.49401L15.9201 8.90917C15.9201 9.11032 15.7145 9.27339 15.461 9.27339H10.1517C9.98636 9.27339 9.84147 9.20408 9.76063 9.10011C10.0003 8.5043 10.0245 7.84437 9.82943 7.2347Z" fill="#4B4949"/>
<path d="M8.56095 5.61847H15.5796C15.7677 5.61847 15.9202 5.38306 15.9202 5.09269V4.8298C15.9202 4.53941 15.7677 4.30402 15.5796 4.30402H6.95032L8.56095 5.61847Z" fill="#4B4949"/>
<path d="M7.15792 11.8437H15.5796C15.7677 11.8437 15.9202 11.6083 15.9202 11.3179V11.055C15.9202 10.7646 15.7677 10.5292 15.5796 10.5292H8.59928L7.15792 11.8437Z" fill="#4B4949"/>
<path d="M5.61028 10.6821C5.65008 10.621 5.6996 10.575 5.75494 10.5502L5.61028 10.6821Z" fill="#4B4949"/>
<path d="M2.11778 13.038C1.86424 13.038 1.65869 13.2734 1.65869 13.5637V13.8266C1.65869 14.117 1.86424 14.3524 2.11778 14.3524H15.4611C15.7147 14.3524 15.9202 14.117 15.9202 13.8266V13.5637C15.9202 13.2734 15.7147 13.038 15.4611 13.038H2.11778Z" fill="#4B4949"/>
</g>
<defs>
<clipPath id="clip0_484_2198">
<rect width="16" height="16" fill="white"/>
</clipPath>
</defs>
</svg>
