<svg width="16" height="16" viewBox="0 0 16 16" fill="none" xmlns="http://www.w3.org/2000/svg">
<g clip-path="url(#clip0_438_1909)">
<circle cx="8" cy="8" r="7" fill="#4B4949"/>
<path d="M7.02249 9.87608V9.76131C7.02544 9.22866 7.07546 8.80489 7.17258 8.49001C7.27263 8.17513 7.41389 7.92205 7.59634 7.73077C7.7788 7.53654 8.00098 7.3585 8.26289 7.19664C8.4424 7.08482 8.60279 6.96269 8.74404 6.83026C8.88824 6.69489 9.00154 6.54481 9.08394 6.38001C9.16634 6.21227 9.20754 6.0254 9.20754 5.8194C9.20754 5.58692 9.15309 5.38534 9.04421 5.21465C8.93532 5.04397 8.78818 4.91154 8.60279 4.81737C8.42033 4.7232 8.21581 4.67612 7.98921 4.67612C7.78027 4.67612 7.58163 4.72173 7.39329 4.81296C7.20789 4.90124 7.05339 5.03661 6.92979 5.21907C6.80914 5.39858 6.74145 5.62665 6.72674 5.90327H5.15527C5.16999 5.34414 5.30536 4.87623 5.56138 4.49955C5.82035 4.12287 6.16172 3.84036 6.58548 3.65202C7.01219 3.46368 7.48304 3.36951 7.99804 3.36951C8.56012 3.36951 9.05451 3.46809 9.48122 3.66526C9.91087 3.86243 10.2449 4.14347 10.4832 4.50838C10.7246 4.87034 10.8452 5.3 10.8452 5.79733C10.8452 6.13281 10.7908 6.43298 10.6819 6.69784C10.5759 6.96269 10.4244 7.19811 10.2272 7.40411C10.0301 7.61011 9.7961 7.79404 9.52536 7.95589C9.28699 8.10303 9.09129 8.25606 8.93827 8.41497C8.78818 8.57388 8.67636 8.76075 8.60279 8.97558C8.53216 9.18746 8.49537 9.44937 8.49243 9.76131V9.87608H7.02249ZM7.79057 12.6306C7.52571 12.6306 7.29765 12.5364 7.10636 12.348C6.91508 12.1597 6.81944 11.9302 6.81944 11.6594C6.81944 11.3946 6.91508 11.168 7.10636 10.9796C7.29765 10.7913 7.52571 10.6971 7.79057 10.6971C8.05248 10.6971 8.27908 10.7913 8.47036 10.9796C8.66459 11.168 8.7617 11.3946 8.7617 11.6594C8.7617 11.8389 8.71608 12.0023 8.62486 12.1494C8.53657 12.2965 8.41886 12.4143 8.27172 12.5025C8.12752 12.5879 7.96714 12.6306 7.79057 12.6306Z" fill="white"/>
</g>
<defs>
<clipPath id="clip0_438_1909">
<rect width="16" height="16" fill="white"/>
</clipPath>
</defs>
</svg>
