<svg width="16" height="16" viewBox="0 0 16 16" fill="none" xmlns="http://www.w3.org/2000/svg">
<g clip-path="url(#clip0_479_1212)">
<path fill-rule="evenodd" clip-rule="evenodd" d="M15.3368 3.17315C15.3368 2.32361 14.6417 1.62854 13.7922 1.62854H2.20769C1.35816 1.62854 0.663086 2.32361 0.663086 3.17315V13.9853C0.663086 14.8348 1.35816 15.53 2.20769 15.53H13.7922C14.6417 15.53 15.3368 14.8348 15.3368 13.9853V3.17315ZM1.66309 13.9853V5.7177H14.3368V13.9853C14.3368 14.2826 14.0894 14.53 13.7922 14.53H2.20769C1.91047 14.53 1.66309 14.2826 1.66309 13.9853ZM10.3169 3.17314C10.3169 3.48038 10.439 3.77502 10.6562 3.99228C10.8735 4.20953 11.1681 4.33159 11.4753 4.33159C11.7826 4.33159 12.0773 4.20953 12.2945 3.99228C12.5117 3.77502 12.6338 3.48038 12.6338 3.17314C12.6338 2.86588 12.5117 2.57123 12.2945 2.35398C12.0773 2.13672 11.7826 2.01468 11.4753 2.01468C11.1681 2.01468 10.8735 2.13672 10.6562 2.35398C10.439 2.57123 10.3169 2.86588 10.3169 3.17314ZM3.706 3.99228C3.48875 3.77502 3.3667 3.48038 3.3667 3.17314C3.3667 2.86588 3.48875 2.57123 3.706 2.35398C3.92326 2.13672 4.21791 2.01468 4.52516 2.01468C4.8324 2.01468 5.12706 2.13672 5.34431 2.35398C5.56157 2.57123 5.68361 2.86588 5.68361 3.17314C5.68361 3.48038 5.56157 3.77502 5.34431 3.99228C5.12706 4.20953 4.8324 4.33159 4.52516 4.33159C4.21791 4.33159 3.92326 4.20953 3.706 3.99228Z" fill="#4B4949"/>
<path d="M11.475 0.470055C11.0503 0.470055 10.7027 0.817581 10.7027 1.24236V3.17312C10.7027 3.59788 11.0503 3.94541 11.475 3.94541C11.8998 3.94541 12.2473 3.59788 12.2473 3.17312V1.24236C12.2473 0.817581 11.8998 0.470055 11.475 0.470055ZM4.52426 0.470055C4.09948 0.470055 3.75195 0.817581 3.75195 1.24236V3.17312C3.75195 3.59788 4.09948 3.94541 4.52426 3.94541C4.94902 3.94541 5.29656 3.59788 5.29656 3.17312V1.24236C5.29656 0.817581 4.94902 0.470055 4.52426 0.470055Z" fill="#4B4949"/>
<path d="M3.51758 7.17354C3.24144 7.17354 3.01758 7.3974 3.01758 7.67354V8.76802C3.01758 9.04416 3.24144 9.26802 3.51758 9.26802H5.00391C5.28005 9.26802 5.50391 9.04416 5.50391 8.76802V7.67354C5.50391 7.3974 5.28005 7.17354 5.00391 7.17354H3.51758Z" fill="#4B4949"/>
<path d="M3.51758 10.7064C3.24144 10.7064 3.01758 10.9302 3.01758 11.2064V12.3009C3.01758 12.577 3.24144 12.8009 3.51758 12.8009H5.00391C5.28005 12.8009 5.50391 12.577 5.50391 12.3009V11.2064C5.50391 10.9302 5.28005 10.7064 5.00391 10.7064H3.51758Z" fill="#4B4949"/>
<path d="M6.8125 7.67354C6.8125 7.3974 7.03636 7.17354 7.3125 7.17354H8.79883C9.07497 7.17354 9.29883 7.3974 9.29883 7.67354V8.76802C9.29883 9.04416 9.07497 9.26802 8.79883 9.26802H7.3125C7.03636 9.26802 6.8125 9.04416 6.8125 8.76802V7.67354Z" fill="#4B4949"/>
<path d="M7.3125 10.7064C7.03636 10.7064 6.8125 10.9302 6.8125 11.2064V12.3009C6.8125 12.577 7.03636 12.8009 7.3125 12.8009H8.79883C9.07497 12.8009 9.29883 12.577 9.29883 12.3009V11.2064C9.29883 10.9302 9.07497 10.7064 8.79883 10.7064H7.3125Z" fill="#4B4949"/>
<path d="M10.4961 7.67354C10.4961 7.3974 10.72 7.17354 10.9961 7.17354H12.4824C12.7586 7.17354 12.9824 7.3974 12.9824 7.67354V8.76802C12.9824 9.04416 12.7586 9.26802 12.4824 9.26802H10.9961C10.72 9.26802 10.4961 9.04416 10.4961 8.76802V7.67354Z" fill="#4B4949"/>
<path d="M10.9961 10.7064C10.72 10.7064 10.4961 10.9302 10.4961 11.2064V12.3009C10.4961 12.577 10.72 12.8009 10.9961 12.8009H12.4824C12.7586 12.8009 12.9824 12.577 12.9824 12.3009V11.2064C12.9824 10.9302 12.7586 10.7064 12.4824 10.7064H10.9961Z" fill="#4B4949"/>
</g>
<defs>
<clipPath id="clip0_479_1212">
<rect width="16" height="16" fill="white"/>
</clipPath>
</defs>
</svg>
