<svg width="16" height="16" viewBox="0 0 16 16" fill="none" xmlns="http://www.w3.org/2000/svg">
<path d="M5.73928 5.15037L3.68725 10.8091H2.50835L0.452637 5.15037H1.63522L3.06833 9.50494H3.12727L4.55669 5.15037H5.73928Z" fill="#4B4949"/>
<path d="M8.25919 10.9344C7.9006 10.9344 7.57641 10.8681 7.28659 10.7354C6.99678 10.6003 6.76714 10.4051 6.59767 10.1497C6.43066 9.89423 6.34715 9.58108 6.34715 9.21022C6.34715 8.89093 6.40855 8.62813 6.53136 8.42183C6.65416 8.21552 6.81994 8.05219 7.02871 7.93184C7.23747 7.8115 7.4708 7.72062 7.72868 7.65922C7.98657 7.59782 8.24936 7.55116 8.51707 7.51923C8.85601 7.47993 9.13109 7.448 9.34231 7.42344C9.55353 7.39643 9.70703 7.35345 9.80281 7.2945C9.8986 7.23555 9.94649 7.13977 9.94649 7.00714V6.98135C9.94649 6.65961 9.85562 6.41032 9.67387 6.23349C9.49458 6.05665 9.22687 5.96823 8.87074 5.96823C8.49988 5.96823 8.20761 6.05051 7.99393 6.21507C7.78271 6.37717 7.63658 6.55769 7.55553 6.75663L6.52031 6.52084C6.64311 6.177 6.8224 5.89946 7.05818 5.68824C7.29642 5.47457 7.57027 5.31984 7.87973 5.22405C8.18919 5.12581 8.51462 5.07669 8.85601 5.07669C9.08196 5.07669 9.32143 5.1037 9.5744 5.15774C9.82983 5.20931 10.0681 5.3051 10.2891 5.4451C10.5126 5.58509 10.6956 5.78526 10.838 6.0456C10.9805 6.30348 11.0517 6.63874 11.0517 7.05135V10.8091H9.97597V10.0355H9.93176C9.86053 10.1779 9.75369 10.3179 9.61124 10.4554C9.46879 10.593 9.28582 10.7072 9.06232 10.7981C8.83881 10.8889 8.57111 10.9344 8.25919 10.9344ZM8.49865 10.0502C8.8032 10.0502 9.06354 9.99001 9.27968 9.86967C9.49826 9.74932 9.66405 9.59213 9.77703 9.39811C9.89246 9.20162 9.95018 8.99163 9.95018 8.76813V8.03868C9.91088 8.07798 9.83474 8.11482 9.72176 8.1492C9.61124 8.18113 9.48476 8.20938 9.34231 8.23394C9.19985 8.25604 9.06109 8.27692 8.926 8.29657C8.79092 8.31376 8.67794 8.3285 8.58707 8.34078C8.37339 8.36779 8.17814 8.41323 8.0013 8.47709C7.82692 8.54094 7.68693 8.63305 7.58132 8.75339C7.47816 8.87128 7.42659 9.02847 7.42659 9.22495C7.42659 9.49758 7.52728 9.70388 7.72868 9.84388C7.93008 9.98142 8.18673 10.0502 8.49865 10.0502Z" fill="#4B4949"/>
<path d="M12.5189 10.8091V5.15037H13.5836V6.04928H13.6425C13.7457 5.74473 13.9274 5.50527 14.1878 5.33089C14.4506 5.15405 14.7478 5.06564 15.0793 5.06564C15.1481 5.06564 15.2291 5.06809 15.3225 5.073C15.4183 5.07792 15.4932 5.08406 15.5472 5.09142V6.14507C15.503 6.13279 15.4244 6.11928 15.3114 6.10454C15.1984 6.08735 15.0855 6.07876 14.9725 6.07876C14.7121 6.07876 14.4801 6.13402 14.2762 6.24454C14.0748 6.35261 13.9152 6.50365 13.7973 6.69768C13.6794 6.88925 13.6204 7.10784 13.6204 7.35345V10.8091H12.5189Z" fill="#4B4949"/>
</svg>
