<svg width="16" height="16" viewBox="0 0 16 16" fill="none" xmlns="http://www.w3.org/2000/svg">
<path d="M2.25586 12.6859V5.43024H13.744V12.6859C13.744 13.351 13.1998 13.8952 12.5347 13.8952H3.46514C2.80004 13.8952 2.25586 13.351 2.25586 12.6859Z" fill="#DDDDDD"/>
<path d="M13.744 4.221V6.03492H2.25586V4.221C2.25586 3.55589 2.80004 3.01172 3.46514 3.01172H12.5347C13.1998 3.01172 13.744 3.55589 13.744 4.221Z" fill="#CD3D3C"/>
<path d="M9.81396 4.22099C9.81396 4.46153 9.90952 4.69221 10.0796 4.8623C10.2497 5.03239 10.4804 5.12795 10.7209 5.12795C10.9615 5.12795 11.1922 5.03239 11.3622 4.8623C11.5323 4.69221 11.6279 4.46153 11.6279 4.22099C11.6279 3.98044 11.5323 3.74976 11.3622 3.57967C11.1922 3.40958 10.9615 3.31403 10.7209 3.31403C10.4804 3.31403 10.2497 3.40958 10.0796 3.57967C9.90952 3.74976 9.81396 3.98044 9.81396 4.22099Z" fill="#9A2120"/>
<path d="M4.37207 4.22099C4.37207 4.46153 4.46762 4.69221 4.63771 4.8623C4.8078 5.03239 5.03849 5.12795 5.27903 5.12795C5.51957 5.12795 5.75026 5.03239 5.92035 4.8623C6.09044 4.69221 6.18599 4.46153 6.18599 4.22099C6.18599 3.98044 6.09044 3.74976 5.92035 3.57967C5.75026 3.40958 5.51957 3.31403 5.27903 3.31403C5.03849 3.31403 4.8078 3.40958 4.63771 3.57967C4.46762 3.74976 4.37207 3.98044 4.37207 4.22099Z" fill="#9A2120"/>
<path d="M10.7207 2.10474C10.3882 2.10474 10.1161 2.37682 10.1161 2.70938V4.22098C10.1161 4.55353 10.3882 4.82561 10.7207 4.82561C11.0533 4.82561 11.3254 4.55353 11.3254 4.22098V2.70938C11.3254 2.37682 11.0533 2.10474 10.7207 2.10474ZM5.27896 2.10474C4.9464 2.10474 4.67432 2.37682 4.67432 2.70938V4.22098C4.67432 4.55353 4.9464 4.82561 5.27896 4.82561C5.61151 4.82561 5.8836 4.55353 5.8836 4.22098V2.70938C5.8836 2.37682 5.61151 2.10474 5.27896 2.10474Z" fill="#B8B6B6"/>
<path d="M4.67432 7.2442H5.8836V8.45348H4.67432V7.2442ZM6.48824 7.2442H7.69752V8.45348H6.48824V7.2442ZM8.30215 7.2442H9.51143V8.45348H8.30215V7.2442ZM10.1161 7.2442H11.3254V8.45348H10.1161V7.2442ZM4.67432 9.05812H5.8836V10.2674H4.67432V9.05812ZM6.48824 9.05812H7.69752V10.2674H6.48824V9.05812ZM8.30215 9.05812H9.51143V10.2674H8.30215V9.05812ZM10.1161 9.05812H11.3254V10.2674H10.1161V9.05812ZM4.67432 10.872H5.8836V12.0813H4.67432V10.872ZM6.48824 10.872H7.69752V12.0813H6.48824V10.872ZM8.30215 10.872H9.51143V12.0813H8.30215V10.872ZM10.1161 10.872H11.3254V12.0813H10.1161V10.872Z" fill="#554646"/>
</svg>
