<svg width="16" height="16" viewBox="0 0 16 16" fill="none" xmlns="http://www.w3.org/2000/svg">
<path d="M2.75944 0.810432C1.83843 0.810432 1.0918 1.50919 1.0918 2.37114L1.09182 11.4721C1.09179 11.5661 1.13171 11.6564 1.20279 11.7229C1.27387 11.7895 1.37029 11.8269 1.47083 11.8269H5.93408V11.1174H1.84995L1.84982 2.37114C1.84982 1.90098 2.25707 1.51985 2.75944 1.51985H6.19244L6.19244 3.80376C6.19243 3.95957 6.19243 4.0973 6.20239 4.21139C6.20608 4.25365 6.21136 4.29641 6.21948 4.33935H7.0499C7.02031 4.31772 6.99592 4.29017 6.97865 4.25847C6.97564 4.25294 6.96465 4.23105 6.95789 4.15362C6.95076 4.07192 6.95047 3.96354 6.95047 3.7906V2.02148L9.42716 4.33935H10.4992L6.83946 0.914324C6.76838 0.847803 6.67197 0.810432 6.57145 0.810432H2.75944Z" fill="#4B4949"/>
<path fill-rule="evenodd" clip-rule="evenodd" d="M5.22412 5.57573C5.22412 4.71378 5.97075 4.01502 6.89177 4.01502H10.7038C10.8043 4.01502 10.9007 4.05239 10.9718 4.11891L14.7973 7.69909C14.8683 7.76561 14.9083 7.85583 14.9083 7.9499L14.9084 14.8349C14.9083 15.0308 14.7387 15.1896 14.5294 15.1896H5.60327C5.50273 15.1896 5.40631 15.1522 5.33523 15.0856C5.26414 15.0191 5.22423 14.9288 5.22425 14.8348L5.22441 14.3134L5.22412 5.57573ZM6.89177 4.72444C6.3894 4.72444 5.98214 5.10557 5.98214 5.57573L5.98239 14.4802H14.1505L14.1503 8.30461L11.7098 8.30461C11.5433 8.30461 11.3962 8.30462 11.2743 8.2953C11.1445 8.28538 11.0104 8.26316 10.8798 8.20092C10.6885 8.10967 10.533 7.9641 10.4356 7.78517C10.3691 7.66301 10.3453 7.53742 10.3347 7.41598C10.3248 7.30189 10.3248 7.16417 10.3248 7.00835L10.3248 4.72444H6.89177ZM11.0828 5.22607L13.6143 7.59519H11.7239C11.5391 7.59519 11.4233 7.59492 11.336 7.58824C11.2531 7.58191 11.2298 7.57161 11.224 7.56882C11.1754 7.54565 11.1358 7.50866 11.111 7.46306M11.0828 5.22607V6.99519C11.0828 7.16813 11.0831 7.27651 11.0902 7.35821C11.097 7.43564 11.108 7.45753 11.111 7.46306" fill="#4B4949"/>
</svg>
