<svg width="16" height="16" viewBox="0 0 16 16" fill="none" xmlns="http://www.w3.org/2000/svg">
<path fill-rule="evenodd" clip-rule="evenodd" d="M13.7279 5.16608C13.7497 6.92801 12.339 8.36722 10.577 8.38063C9.3961 8.38961 8.35711 7.75591 7.79367 6.80655L6.83503 6.81384L6.79557 3.62357L7.75414 3.61628C8.29397 2.65846 9.31712 2.00908 10.4981 2.00009C12.2601 1.98669 13.7061 3.40399 13.7279 5.16608ZM12.6645 5.17418C12.6572 4.58663 12.1752 4.11438 11.5878 4.11885C11.0005 4.12332 10.5303 4.60282 10.5375 5.19036C10.5448 5.77769 11.0268 6.25016 11.6142 6.24569C12.2015 6.24122 12.6717 5.7615 12.6645 5.17418Z" fill="#4B4949"/>
<path d="M2.04245 6.31878L6.82808 6.28236L6.80177 4.15552L5.20656 4.16766L4.6814 4.70341L4.14308 4.17575L3.61135 4.1798L3.09277 5.24726L2.54787 4.18789L2.01614 4.19193L0.96582 5.26345L2.04245 6.31878Z" fill="#4B4949"/>
<path d="M13.6536 10.0736C13.4465 9.98597 13.2055 9.93468 12.9534 9.93468C12.6702 9.93468 12.4016 9.99891 12.1612 10.114L12.1725 10.109L9.33133 11.4019C9.33281 11.3784 9.34411 11.358 9.34411 11.3346C9.33723 10.6518 8.78897 10.101 8.11383 10.101C8.07991 10.101 8.04696 10.1025 8.01352 10.105L8.01795 10.1045H6.15778L3.8172 9.41025C3.78672 9.40079 3.75131 9.39531 3.71444 9.39531H2.64691V9.01781C2.64691 8.81162 2.4817 8.64429 2.27813 8.64429H0.368788C0.165217 8.64429 0 8.81162 0 9.01781V15.0977C0 15.3039 0.165217 15.4713 0.368788 15.4713H2.27813C2.4817 15.4713 2.64691 15.3039 2.64691 15.0977V14.5977C3.54086 14.7391 4.34137 14.9673 5.0996 15.278L5.02585 15.2511C5.59575 15.4583 6.25367 15.5778 6.93913 15.5778C7.72931 15.5778 8.48262 15.419 9.16956 15.1306L9.13071 15.145C9.74192 14.8697 10.2607 14.5792 10.7519 14.2491L10.7116 14.2744C10.8778 14.1704 11.043 14.0663 11.2102 13.9662C12.0171 13.4826 12.6612 13.0603 13.2406 12.636C13.5257 12.4303 13.7745 12.2266 14.011 12.0099L14.0037 12.0164C14.1856 11.8665 14.3311 11.6783 14.4289 11.4636L14.4329 11.4541C14.4486 11.4143 14.4575 11.3685 14.4575 11.3202C14.4575 11.2923 14.4545 11.2649 14.4486 11.2385L14.4491 11.241C14.3769 10.735 14.0774 10.3117 13.6609 10.0766L13.6536 10.0736ZM1.90983 14.7252H0.738065V9.39232H1.90983V14.7252ZM13.4839 11.4875C13.2813 11.6718 13.0605 11.8511 12.8309 12.0169L12.8078 12.0328C12.2487 12.4422 11.6217 12.8531 10.834 13.3257C10.6629 13.4278 10.4942 13.5339 10.3241 13.64C9.90369 13.9258 9.42033 14.1983 8.91485 14.4298L8.85093 14.4557C8.28447 14.6913 7.62655 14.8282 6.93764 14.8282C6.34611 14.8282 5.77817 14.7277 5.2486 14.5419L5.28499 14.5529C4.52036 14.2282 3.63085 13.9801 2.70347 13.8506L2.64691 13.8441V10.1429H3.66035L6.00093 10.8371C6.03141 10.8466 6.06682 10.852 6.10369 10.852H8.01746C8.45165 10.852 8.60605 11.112 8.60605 11.3351C8.60605 11.5582 8.45165 11.8182 8.01746 11.8182H4.66936C4.46578 11.8182 4.30057 11.9855 4.30057 12.1917C4.30057 12.3979 4.46578 12.5652 4.66936 12.5652H8.49541C8.54999 12.5652 8.60162 12.5533 8.64834 12.5319L8.64587 12.5329L12.4788 10.7888C12.6199 10.723 12.7852 10.6842 12.9593 10.6842C13.09 10.6842 13.2154 10.7056 13.333 10.746L13.3246 10.7435C13.5124 10.8575 13.6481 11.0443 13.6933 11.2639L13.6944 11.2689C13.628 11.3481 13.5587 11.4193 13.4844 11.485L13.482 11.487L13.4839 11.4875Z" fill="#4B4949"/>
</svg>
