<svg width="16" height="16" viewBox="0 0 16 16" fill="none" xmlns="http://www.w3.org/2000/svg">
<g clip-path="url(#clip0_438_1866)">
<path d="M14.3585 12.9235C13.9216 12.4578 14.1162 12.1545 14.1162 12.1545C14.011 12.0279 13.8691 12.1694 13.6534 12.3845L13.5915 12.4461L13.5916 12.4725C13.5913 12.5409 13.5911 12.5651 13.6022 12.5817C13.6083 12.5909 13.6178 12.5977 13.6325 12.6083C13.6738 12.6382 13.7566 12.698 13.9216 12.9235C14.1453 12.9246 14.3585 12.9235 14.3585 12.9235Z" fill="#4B4949"/>
<path d="M12.6399 6.39167C12.5468 6.39252 12.4572 6.354 12.3908 6.28456C12.3243 6.21513 12.2864 6.12043 12.2854 6.02125C12.2854 5.81687 12.4451 5.65189 12.6409 5.65189C12.8366 5.65189 12.9964 5.81687 12.9964 6.02125C12.9964 6.22668 12.8356 6.39167 12.6399 6.39167Z" fill="#4B4949"/>
<path fill-rule="evenodd" clip-rule="evenodd" d="M12.1535 3.99457C12.578 3.83703 12.9045 3.65821 13.1082 3.48045C13.248 3.3591 13.292 3.27927 13.292 3.24734C13.292 3.2154 13.248 3.13557 13.1082 3.01316C12.9045 2.83647 12.579 2.65764 12.1535 2.50011C11.2228 2.1563 9.93459 1.95512 8.55349 1.95512C7.17238 1.95512 5.88415 2.15736 4.95342 2.50011C4.52901 2.65764 4.20245 2.83647 3.99873 3.01423C3.85893 3.13557 3.81499 3.21434 3.81499 3.24734C3.81499 3.27927 3.85893 3.3591 3.99873 3.48151C4.20245 3.65821 4.52801 3.83703 4.95342 3.99457C5.88415 4.33838 7.17238 4.53956 8.55349 4.53956C9.93459 4.53956 11.2228 4.33732 12.1535 3.99457ZM3.5104 9.45297V7.57851C4.25738 8.15756 5.53962 8.64187 7.04655 8.82815C9.48021 9.13151 11.8869 8.68126 13.5966 7.60938L13.5906 9.52535C11.9858 10.6845 9.62202 11.2657 7.12544 10.9559C5.42278 10.7441 4.02869 10.0352 3.5104 9.45297ZM3.5104 6.40763C4.02969 6.98881 5.42278 7.69772 7.12544 7.90848C9.62701 8.21929 11.9958 7.63599 13.6006 6.4715L13.6076 4.3469C12.586 4.98555 10.7055 5.41346 8.55349 5.41346C6.41043 5.41346 4.536 4.98768 3.5134 4.35435C3.51206 5.03842 3.51106 5.72249 3.5104 6.40657V6.40763ZM3.51624 12.1389L3.5124 10.626C4.25938 11.205 5.54162 11.6883 7.04655 11.8756C9.47522 12.1768 11.8779 11.7277 13.5856 10.6622L13.5915 12.4461C13.5546 12.4826 13.5157 12.5205 13.4747 12.559C13.3535 12.6729 13.2725 12.7353 13.1695 12.8148L13.1122 12.8591C12.9125 13.0146 12.7088 13.1338 12.4412 13.2753C11.4875 13.7778 10.2472 14.0332 8.66433 14.0332C5.80182 14.0332 3.86563 13.1935 3.51624 12.1389ZM14.3585 12.9235C14.3585 12.9235 14.1453 12.9246 13.9216 12.9235C13.7566 12.698 13.6738 12.6382 13.6325 12.6083C13.6178 12.5977 13.6083 12.5909 13.6022 12.5817C13.5911 12.5651 13.5913 12.5409 13.5916 12.4725L13.5915 12.4461L13.6534 12.3845C13.8691 12.1694 14.011 12.0279 14.1162 12.1545C14.1162 12.1545 13.9216 12.4578 14.3585 12.9235ZM14.3585 12.9235C14.3585 12.9235 13.7474 13.3807 13.5916 13.5021C13.3589 13.683 13.0943 13.8714 12.7887 14.0332C11.7361 14.5878 10.6636 14.9188 8.66433 14.9188C5.3339 14.9188 3.13192 13.7958 2.7105 12.311L2.69552 12.2577V12.2024L2.68953 9.95538C2.68715 7.74491 2.68881 5.53444 2.69452 3.32398C2.69199 3.29852 2.69066 3.27294 2.69053 3.24734C2.69153 2.05092 5.31593 1.08122 8.55349 1.08122C11.791 1.08122 14.4154 2.05092 14.4154 3.24734C14.4158 3.29408 14.4121 3.34075 14.4045 3.38678C14.4141 3.42023 14.4188 3.45505 14.4184 3.49003L14.3585 12.9235Z" fill="#4B4949"/>
<path d="M12.6399 9.43913C12.5468 9.43998 12.4572 9.40147 12.3908 9.33203C12.3243 9.26259 12.2864 9.1679 12.2854 9.06871C12.2854 8.86434 12.4451 8.69829 12.6409 8.69829C12.8366 8.69829 12.9964 8.86434 12.9964 9.06871C12.9964 9.27308 12.8356 9.43913 12.6399 9.43913Z" fill="#4B4949"/>
<path d="M12.6399 12.526C12.5937 12.5264 12.5479 12.5171 12.5051 12.4987C12.4623 12.4802 12.4234 12.453 12.3904 12.4185C12.3575 12.384 12.3313 12.3429 12.3133 12.2976C12.2952 12.2523 12.2858 12.2037 12.2854 12.1545C12.2854 11.9501 12.4451 11.7841 12.6409 11.7841C12.8366 11.7841 12.9964 11.9501 12.9964 12.1545C12.9964 12.3589 12.8366 12.5249 12.6409 12.5249L12.6399 12.526Z" fill="#4B4949"/>
<path d="M8.88525 14.9188C10.7437 14.895 11.7752 14.5683 12.7882 14.0346C13.0938 13.8728 13.3585 13.6844 13.5911 13.5034C13.7469 13.3821 14.3581 12.9249 14.3581 12.9249L14.418 3.49137C14.4183 3.45639 14.4136 3.42157 14.404 3.38812C14.4116 3.34209 14.4153 3.29542 14.415 3.24868C14.415 2.09346 11.9682 1.14962 8.88525 1.08598V1.96036C10.1396 1.98984 11.2974 2.18537 12.1531 2.50145C12.5785 2.65898 12.9041 2.83781 13.1078 3.0145C13.2476 3.13691 13.2915 3.21675 13.2915 3.24868C13.2915 3.28061 13.2476 3.36044 13.1078 3.48179C12.9041 3.65955 12.5775 3.83837 12.1531 3.99591C11.2974 4.31101 10.1396 4.50736 8.88525 4.53698V5.41138C10.8976 5.36989 12.6384 4.95381 13.6071 4.34824L13.6001 6.47284C12.3784 7.35934 10.714 7.90902 8.88525 7.98381V8.91693C10.658 8.86387 12.3209 8.41021 13.5961 7.61072L13.5901 9.52669C12.3692 10.4086 10.709 10.9559 8.88525 11.0309V11.9633C10.6533 11.9095 12.3123 11.4577 13.5851 10.6635L13.591 12.4475C13.5542 12.4839 13.5153 12.5218 13.4743 12.5603C13.353 12.6742 13.2721 12.7367 13.1691 12.8162L13.1118 12.8605C12.9121 13.0159 12.7083 13.1351 12.4407 13.2767C11.5319 13.7554 10.3629 14.0099 8.88525 14.0329V14.9188Z" fill="#C2C1C1"/>
<path d="M12.6394 6.39301C12.5464 6.39386 12.4568 6.35534 12.3903 6.28591C12.3239 6.21647 12.286 6.12177 12.2849 6.02259C12.2849 5.81822 12.4447 5.65323 12.6404 5.65323C12.8362 5.65323 12.9959 5.81822 12.9959 6.02259C12.9959 6.22802 12.8352 6.39301 12.6394 6.39301Z" fill="#C2C1C1"/>
<path d="M12.6394 9.44047C12.5464 9.44133 12.4568 9.40281 12.3903 9.33337C12.3239 9.26393 12.286 9.16924 12.2849 9.07005C12.2849 8.86568 12.4447 8.69963 12.6404 8.69963C12.8362 8.69963 12.9959 8.86568 12.9959 9.07005C12.9959 9.27442 12.8352 9.44047 12.6394 9.44047Z" fill="#C2C1C1"/>
<path d="M12.5047 12.5C12.5475 12.5185 12.5933 12.5277 12.6394 12.5273L12.6399 12.526C12.8356 12.526 12.9959 12.3602 12.9959 12.1558C12.9959 11.9515 12.8362 11.7854 12.6404 11.7854C12.4447 11.7854 12.2849 11.9515 12.2849 12.1558C12.2853 12.205 12.2948 12.2537 12.3128 12.299C12.3309 12.3443 12.3571 12.3853 12.39 12.4198C12.4229 12.4543 12.4619 12.4816 12.5047 12.5Z" fill="#C2C1C1"/>
<path d="M8.00024 0H9.1228V16H8.00024V0Z" fill="#4B4949"/>
</g>
<defs>
<clipPath id="clip0_438_1866">
<rect width="16" height="16" fill="white"/>
</clipPath>
</defs>
</svg>
