<svg width="16" height="16" viewBox="0 0 16 16" fill="none" xmlns="http://www.w3.org/2000/svg">
<path fill-rule="evenodd" clip-rule="evenodd" d="M14.8874 1.49495C15.4397 1.49495 15.8874 1.94266 15.8874 2.49495V13.5051C15.8874 14.0401 15.4672 14.477 14.9389 14.5037L14.8874 14.5051H1.11279C0.595025 14.5051 0.169166 14.1116 0.117956 13.6073C0.114542 13.5737 0.112793 13.5396 0.112793 13.5051V2.49495C0.112793 1.94266 0.560508 1.49495 1.11279 1.49495H14.8874ZM5.05762 2.49495H1.11279V4.59495H5.05762V2.49495ZM1.11279 5.59495L1.11279 10.4051H14.8874L14.8874 5.59495H1.11279ZM6.07279 4.59495H14.6138V2.49495H6.07279V4.59495ZM9.92725 13.5051V11.4051H6.07279V13.5051L9.92725 13.5051ZM14.8872 11.4051V13.5051L11.0176 13.5051V11.4051H14.8872ZM5.05762 11.4051H1.11279L1.11279 13.5051L5.05762 13.5051V11.4051Z" fill="#636363"/>
</svg>
