<svg width="16" height="16" viewBox="0 0 16 16" fill="none" xmlns="http://www.w3.org/2000/svg">
<g clip-path="url(#clip0_312_2820)">
<path d="M12.822 1.45017L15.4065 5.22885C15.5072 5.39735 15.5652 5.58788 15.5756 5.78389C15.5859 5.97991 15.5483 6.17549 15.4659 6.35366C15.3836 6.53183 15.259 6.68721 15.1029 6.80632C14.9469 6.92543 14.7642 7.00466 14.5706 7.03715L13.2059 7.03715L13.2059 13.7164C13.2049 14.0351 13.0779 14.3405 12.8525 14.5658C12.6272 14.7911 12.3218 14.9182 12.0032 14.9191C11.6845 14.9182 11.3791 14.7911 11.1538 14.5658C10.9284 14.3405 10.8014 14.0351 10.8005 13.7164L10.7834 7.03715L9.41865 7.03715C9.22507 7.00466 9.04234 6.92543 8.88632 6.80632C8.7303 6.68721 8.6057 6.53183 8.52334 6.35366C8.44098 6.17549 8.40334 5.97991 8.41369 5.78389C8.42404 5.58788 8.48207 5.39735 8.58273 5.22885L11.1672 1.45017C11.2572 1.31284 11.38 1.20007 11.5244 1.12202C11.6689 1.04397 11.8304 1.00311 11.9946 1.00311C12.1588 1.00311 12.3204 1.04397 12.4649 1.12202C12.6093 1.20007 12.732 1.31284 12.822 1.45017Z" fill="#28EA3C"/>
<path fill-rule="evenodd" clip-rule="evenodd" d="M12.5744 1.61953L15.1533 5.39007C15.2263 5.51484 15.2684 5.65529 15.276 5.79971C15.2838 5.94698 15.2555 6.09392 15.1936 6.22778C15.1317 6.36164 15.0381 6.47838 14.9209 6.56786C14.8098 6.65265 14.6808 6.71054 14.5438 6.73715L12.9059 6.73715L12.9059 13.7155C12.9059 13.7157 12.9059 13.7153 12.9059 13.7155C12.905 13.9547 12.8096 14.1845 12.6404 14.3537C12.4713 14.5228 12.2423 14.6182 12.0032 14.6191C11.7641 14.6182 11.535 14.5228 11.3659 14.3537C11.1966 14.1844 11.1012 13.955 11.1005 13.7156C11.1005 13.7156 11.1005 13.7157 11.1005 13.7156L11.0826 6.73715H9.44544C9.30849 6.71054 9.17942 6.65265 9.06836 6.56786C8.95114 6.47838 8.85753 6.36164 8.79565 6.22778C8.73377 6.09392 8.7055 5.94698 8.71327 5.79971C8.7209 5.65529 8.76297 5.51484 8.83592 5.39007L11.4182 1.61461C11.4809 1.51893 11.5664 1.44033 11.667 1.38595C11.7677 1.33158 11.8802 1.30311 11.9946 1.30311C12.109 1.30311 12.2216 1.33158 12.3222 1.38595C12.4229 1.44033 12.5084 1.5189 12.5711 1.61458L12.5744 1.61953ZM8.58273 5.22885C8.48207 5.39735 8.42404 5.58788 8.41369 5.78389C8.40334 5.97991 8.44098 6.17549 8.52334 6.35366C8.6057 6.53183 8.7303 6.68721 8.88632 6.80632C9.04234 6.92543 9.22507 7.00466 9.41865 7.03715L10.7834 7.03715L10.8005 13.7164C10.8014 14.0351 10.9284 14.3405 11.1538 14.5658C11.3791 14.7911 11.6845 14.9182 12.0032 14.9191C12.3218 14.9182 12.6272 14.7911 12.8525 14.5658C13.0779 14.3405 13.2049 14.0351 13.2059 13.7164L13.2059 7.03715L14.5706 7.03715C14.7642 7.00466 14.9469 6.92543 15.1029 6.80632C15.259 6.68721 15.3836 6.53183 15.4659 6.35366C15.5483 6.17549 15.5859 5.97991 15.5756 5.78389C15.5652 5.58788 15.5072 5.39735 15.4065 5.22885L12.822 1.45017C12.732 1.31284 12.6093 1.20007 12.4649 1.12202C12.3204 1.04397 12.1588 1.00311 11.9946 1.00311C11.8304 1.00311 11.6689 1.04397 11.5244 1.12202C11.38 1.20007 11.2572 1.31284 11.1672 1.45017L8.58273 5.22885Z" fill="#1C7E26"/>
<path d="M8 12.0513C8 13.7081 6.65685 15.0513 5 15.0513C3.34315 15.0513 2 13.7081 2 12.0513C2 10.3944 3.34315 9.05127 5 9.05127C6.65685 9.05127 8 10.3944 8 12.0513Z" fill="#FF7675"/>
<path fill-rule="evenodd" clip-rule="evenodd" d="M5 14.7513C6.49117 14.7513 7.7 13.5424 7.7 12.0513C7.7 10.5601 6.49117 9.35127 5 9.35127C3.50883 9.35127 2.3 10.5601 2.3 12.0513C2.3 13.5424 3.50883 14.7513 5 14.7513ZM5 15.0513C6.65685 15.0513 8 13.7081 8 12.0513C8 10.3944 6.65685 9.05127 5 9.05127C3.34315 9.05127 2 10.3944 2 12.0513C2 13.7081 3.34315 15.0513 5 15.0513Z" fill="#CB2625"/>
<path d="M6.98875 12.0513C6.98875 13.1495 6.09846 14.0398 5.00023 14.0398C3.90201 14.0398 3.01172 13.1495 3.01172 12.0513C3.01172 10.953 3.90201 10.0627 5.00023 10.0627C6.09846 10.0627 6.98875 10.953 6.98875 12.0513Z" fill="#E23B3A"/>
<path d="M4.83333 1.25619C4.86856 1.17714 4.98076 1.17714 5.016 1.25619L6.00622 3.47765C6.02075 3.51025 6.05156 3.53264 6.08706 3.53638L8.50579 3.79166C8.59185 3.80075 8.62653 3.90746 8.56224 3.9654L6.75549 5.59362C6.72898 5.61752 6.71721 5.65373 6.72462 5.68865L7.22926 8.06789C7.24721 8.15255 7.15644 8.2185 7.08147 8.17526L4.97463 6.9601C4.9437 6.94226 4.90562 6.94226 4.8747 6.9601L2.76786 8.17526C2.69289 8.2185 2.60211 8.15255 2.62007 8.06789L3.12471 5.68865C3.13212 5.65373 3.12035 5.61752 3.09383 5.59362L1.28709 3.9654C1.2228 3.90746 1.25747 3.80075 1.34354 3.79166L3.76227 3.53638C3.79777 3.53264 3.82858 3.51025 3.84311 3.47765L4.83333 1.25619Z" fill="#F2AD48"/>
<path fill-rule="evenodd" clip-rule="evenodd" d="M3.84311 3.47765C3.82858 3.51025 3.79777 3.53264 3.76227 3.53638L1.34354 3.79166C1.25747 3.80075 1.2228 3.90746 1.28709 3.9654L3.09383 5.59362C3.12035 5.61752 3.13212 5.65374 3.12471 5.68865L2.62007 8.06789C2.60211 8.15255 2.69289 8.2185 2.76786 8.17526L4.8747 6.9601C4.90562 6.94226 4.9437 6.94226 4.97463 6.9601L7.08147 8.17526C7.15644 8.2185 7.24721 8.15255 7.22926 8.06789L6.72462 5.68865C6.71721 5.65373 6.72898 5.61752 6.75549 5.59362L8.56224 3.9654C8.62653 3.90746 8.59186 3.80075 8.50579 3.79166L6.08706 3.53638C6.05156 3.53264 6.02075 3.51025 6.00622 3.47765L5.016 1.25619C4.98076 1.17714 4.86856 1.17714 4.83333 1.25619L3.84311 3.47765ZM4.92466 1.78814L4.11712 3.59979C4.05899 3.7302 3.93575 3.81974 3.79376 3.83472L1.82123 4.04291L3.29467 5.37076C3.40073 5.46635 3.44781 5.61122 3.41818 5.7509L3.00664 7.69122L4.72481 6.70022C4.8485 6.62889 5.00083 6.62889 5.12451 6.70022L6.84269 7.69122L6.43114 5.7509C6.40152 5.61122 6.44859 5.46635 6.55466 5.37076L8.0281 4.04291L6.05557 3.83472C5.91358 3.81974 5.79034 3.7302 5.73221 3.59979L4.92466 1.78814Z" fill="#AF6936"/>
</g>
<defs>
<clipPath id="clip0_312_2820">
<rect width="16" height="16" fill="white"/>
</clipPath>
</defs>
</svg>
