<svg width="16" height="16" viewBox="0 0 16 16" fill="none" xmlns="http://www.w3.org/2000/svg">
<path d="M8 15C11.866 15 15 11.866 15 8C15 4.13401 11.866 1 8 1C4.13401 1 1 4.13401 1 8C1 11.866 4.13401 15 8 15Z" fill="#554646"/>
<path d="M7.06671 3.93099C7.06671 3.6927 7.15055 3.48971 7.31824 3.32202C7.49475 3.14551 7.70215 3.05725 7.94044 3.05725C8.17874 3.05725 8.38173 3.14551 8.54941 3.32202C8.72592 3.48971 8.81418 3.6927 8.81418 3.93099C8.81418 4.16928 8.72592 4.37668 8.54941 4.5532C8.38173 4.72088 8.17874 4.80473 7.94044 4.80473C7.70215 4.80473 7.49475 4.72088 7.31824 4.5532C7.15055 4.37668 7.06671 4.16928 7.06671 3.93099ZM10.1248 10.5767L10.3498 10.7885V10.9341C10.1822 11.1371 9.98799 11.3489 9.76735 11.5696C9.54671 11.7814 9.30842 11.9623 9.05247 12.1123C8.80536 12.2535 8.54941 12.3242 8.28464 12.3242C8.12578 12.3242 7.97575 12.2889 7.83454 12.2182C7.69333 12.1565 7.57859 12.0682 7.49034 11.9535C7.3756 11.7946 7.30059 11.6005 7.26528 11.371C7.22998 11.1415 7.21674 10.8238 7.22557 10.4178C7.2344 10.003 7.23881 9.46024 7.23881 8.78949V7.2406C7.22998 7.09939 7.19468 6.95818 7.1329 6.81697C7.07995 6.66693 6.9608 6.59191 6.77546 6.59191C6.63425 6.59191 6.48422 6.63604 6.32536 6.7243C6.17532 6.80373 6.02087 6.90081 5.86201 7.01554L5.6502 6.7243C5.85319 6.55661 6.07383 6.38892 6.31212 6.22124C6.55924 6.05355 6.81077 5.91234 7.06671 5.79761C7.32265 5.68287 7.57859 5.62551 7.83454 5.62551C7.96692 5.62551 8.09489 5.65198 8.21845 5.70494C8.34201 5.74907 8.43468 5.82408 8.49646 5.92999C8.54941 6.01825 8.58913 6.12857 8.6156 6.26095C8.64208 6.39334 8.65532 6.65369 8.65532 7.04202C8.65532 7.30679 8.64649 7.57597 8.62884 7.84956C8.62002 8.11433 8.6156 8.3791 8.6156 8.64387C8.6156 9.18223 8.61119 9.64116 8.60237 10.0207C8.60237 10.4002 8.64208 10.6914 8.72151 10.8944C8.80094 11.0974 8.95539 11.1989 9.18486 11.1989C9.34372 11.1989 9.50699 11.1283 9.67468 10.9871C9.84237 10.8459 9.9924 10.7091 10.1248 10.5767Z" fill="white"/>
</svg>
