<svg width="16" height="16" viewBox="0 0 16 16" fill="none" xmlns="http://www.w3.org/2000/svg">
<path fill-rule="evenodd" clip-rule="evenodd" d="M10.2829 3.62173C10.1953 3.64612 10.1026 3.64612 10.0149 3.62173L6.44477 2.62866L6.40041 2.61632C6.04976 2.51878 5.67913 2.51878 5.32848 2.61632L5.28412 2.62866L1.35185 3.72246C1.13552 3.78263 0.98584 3.97963 0.98584 4.20417V13.0361C0.98584 13.3669 1.30119 13.6065 1.61983 13.5178L5.73045 12.3744C5.81812 12.35 5.91077 12.35 5.99844 12.3744L9.55469 13.3636L10.0149 13.4916C10.1026 13.516 10.1953 13.516 10.2829 13.4916L10.743 13.3637L14.6476 12.2776C14.8639 12.2174 15.0136 12.0204 15.0136 11.7959V2.96391C15.0136 2.63317 14.6983 2.39357 14.3796 2.4822L10.2829 3.62173ZM10.743 12.3257V4.53171L14.0136 3.62197V11.416L10.743 12.3257ZM9.55469 4.53168L6.44477 3.66663V11.4606L9.55469 12.3257V4.53168ZM5.28412 11.4606V3.66663L1.98584 4.58407V12.3781L5.28412 11.4606Z" fill="#4B4949"/>
</svg>
