<svg width="16" height="16" viewBox="0 0 16 16" fill="none" xmlns="http://www.w3.org/2000/svg">
<path d="M9.36621 7.40973H13.3933V11.4368H9.36621V7.40973Z" fill="#554646"/>
<path d="M13.4545 1H2.54546C2.24422 1 2 1.34824 2 1.77779V4.88889V8V11.1111V14.2222C2 14.6518 2.24422 15 2.54546 15H6.18182H9.81818H13.4545C13.7558 15 14 14.6518 14 14.2222V11.1111V8V4.88889V1.77779C14 1.34824 13.7557 1 13.4545 1ZM5.63635 12.6667C5.63636 13.0962 5.28813 13.4444 4.85858 13.4444H3.86866C3.43911 13.4444 3.09089 13.0962 3.09089 12.6667V12.6667C3.09089 12.2371 3.43911 11.8889 3.86866 11.8889H4.85858C5.28813 11.8889 5.63634 12.2371 5.63635 12.6667V12.6667ZM5.63635 9.55554C5.63636 9.9851 5.28813 10.3333 4.85858 10.3333H3.86866C3.43911 10.3333 3.09089 9.98511 3.09089 9.55556V9.55556C3.09089 9.12601 3.43911 8.77779 3.86866 8.77779H4.85858C5.28813 8.77779 5.63634 9.126 5.63635 9.55554V9.55554ZM5.63635 6.44444C5.63636 6.87399 5.28813 7.22222 4.85858 7.22222H3.86866C3.43911 7.22222 3.09089 6.874 3.09089 6.44445V6.44445C3.09089 6.0149 3.43911 5.66668 3.86866 5.66668H4.85858C5.28813 5.66668 5.63634 6.01489 5.63635 6.44444V6.44444ZM9.2727 12.6667C9.2727 13.0962 8.92448 13.4444 8.49493 13.4444H7.50502C7.07547 13.4444 6.72726 13.0962 6.72726 12.6667V12.6667C6.72726 12.2371 7.07547 11.8889 7.50502 11.8889H8.49493C8.92448 11.8889 9.2727 12.2371 9.2727 12.6667V12.6667ZM9.2727 9.55556C9.2727 9.98511 8.92448 10.3333 8.49493 10.3333H7.50502C7.07547 10.3333 6.72726 9.98511 6.72726 9.55556V9.55556C6.72726 9.12601 7.07547 8.77779 7.50502 8.77779H8.49493C8.92448 8.77779 9.2727 9.12601 9.2727 9.55556V9.55556ZM9.2727 6.44445C9.2727 6.874 8.92448 7.22222 8.49493 7.22222H7.50502C7.07547 7.22222 6.72726 6.874 6.72726 6.44445V6.44445C6.72726 6.0149 7.07547 5.66668 7.50502 5.66668H8.49493C8.92448 5.66668 9.2727 6.0149 9.2727 6.44445V6.44445ZM12.909 12.6667C12.9091 13.0962 12.5608 13.4444 12.1313 13.4444H11.1414C10.7118 13.4444 10.3636 13.0962 10.3636 12.6667V12.6667C10.3636 12.2371 10.7118 11.8889 11.1414 11.8889H12.1313C12.5608 11.8889 12.909 12.2371 12.909 12.6667V12.6667ZM12.909 9.55554C12.9091 9.9851 12.5608 10.3333 12.1313 10.3333H11.1414C10.7118 10.3333 10.3636 9.98511 10.3636 9.55556V9.55556C10.3636 9.12601 10.7118 8.77779 11.1414 8.77779H12.1313C12.5608 8.77779 12.909 9.126 12.909 9.55554V9.55554ZM12.909 6.44444C12.9091 6.87399 12.5608 7.22222 12.1313 7.22222H11.1414C10.7118 7.22222 10.3636 6.874 10.3636 6.44445V6.44445C10.3636 6.0149 10.7118 5.66668 11.1414 5.66668H12.1313C12.5608 5.66668 12.909 6.01489 12.909 6.44444V6.44444Z" fill="#554646"/>
<path d="M13.4545 1H2.54546C2.24422 1 2 1.29849 2 1.66667V4.33333C2 4.70151 2.24422 5 2.54546 5H3.09092H5.63637H6.72727H9.27273H10.3636H12.9091H13.4545C13.7558 5 14 4.70151 14 4.33333V1.66667C14 1.29849 13.7558 1 13.4545 1Z" fill="#CD3D3C"/>
<path d="M12.3689 4.5007L14.1431 6.17511C14.2124 6.28925 14.2527 6.41852 14.2606 6.55171C14.2686 6.68491 14.2439 6.818 14.1887 6.93944C14.1336 7.06088 14.0496 7.16701 13.9441 7.2486C13.8386 7.33019 13.7148 7.38478 13.5833 7.40764L12.6557 7.41315L12.6451 9.74417C12.646 9.96079 12.561 10.1689 12.4089 10.3229C12.2568 10.477 12.0498 10.5646 11.8332 10.5665C11.6166 10.5672 11.4084 10.4821 11.2542 10.3298C11.1 10.1775 11.0122 9.97048 11.0101 9.75386L11.009 7.42291L10.0814 7.42841C9.94964 7.40711 9.82506 7.35399 9.71846 7.27366C9.61185 7.19332 9.52644 7.08821 9.46962 6.96743C9.41281 6.84666 9.38632 6.71387 9.39244 6.58059C9.39857 6.44731 9.43712 6.31757 9.50477 6.20262L11.2441 4.50737C11.3046 4.41366 11.3875 4.33651 11.4853 4.28288C11.5831 4.22924 11.6928 4.20081 11.8044 4.20015C11.916 4.19949 12.026 4.22662 12.1246 4.27909C12.2231 4.33155 12.3071 4.40772 12.3689 4.5007Z" fill="#28EA3C"/>
<path fill-rule="evenodd" clip-rule="evenodd" d="M12.138 4.69533L13.9043 6.36218C13.9374 6.42651 13.9568 6.49714 13.9612 6.56958C13.9662 6.65405 13.9506 6.73842 13.9156 6.81538C13.8806 6.89235 13.8274 6.95959 13.7606 7.01129C13.6996 7.05846 13.6289 7.0914 13.5537 7.10781L12.357 7.11491L12.3451 9.74281L12.3451 9.74532C12.3457 9.88268 12.2918 10.0145 12.1954 10.1122C12.0993 10.2096 11.9684 10.2651 11.8314 10.2665C11.6944 10.2667 11.5626 10.2127 11.465 10.1163C11.3674 10.02 11.3118 9.88907 11.3101 9.75215L11.3089 7.12113L10.1074 7.12825C10.032 7.11272 9.96074 7.08059 9.899 7.03407C9.83134 6.98308 9.77714 6.91637 9.74109 6.83974C9.70504 6.7631 9.68824 6.67887 9.69213 6.59436C9.69546 6.52177 9.71397 6.45087 9.74628 6.38615L11.4777 4.69857L11.4961 4.67013C11.5296 4.61829 11.5754 4.57561 11.6295 4.54593C11.6837 4.51626 11.7444 4.50051 11.8062 4.50015C11.868 4.49978 11.929 4.5148 11.9836 4.54389C12.0382 4.57298 12.0848 4.6152 12.119 4.66675L12.138 4.69533ZM9.50477 6.20262C9.43712 6.31757 9.39857 6.44731 9.39244 6.58059C9.38632 6.71387 9.41281 6.84666 9.46962 6.96743C9.52644 7.08821 9.61185 7.19332 9.71846 7.27366C9.82506 7.35399 9.94964 7.40711 10.0814 7.42841L11.009 7.42291L11.0101 9.75386C11.0122 9.97048 11.1 10.1775 11.2542 10.3298C11.4084 10.4821 11.6166 10.5672 11.8332 10.5665C12.0498 10.5646 12.2568 10.477 12.4089 10.3229C12.561 10.1689 12.646 9.96079 12.6451 9.74417L12.6557 7.41315L13.5833 7.40764C13.7148 7.38478 13.8386 7.33019 13.9441 7.2486C14.0496 7.16701 14.1336 7.06088 14.1887 6.93944C14.2439 6.818 14.2686 6.68491 14.2606 6.55171C14.2527 6.41852 14.2124 6.28925 14.1431 6.17511L12.3689 4.5007C12.3071 4.40772 12.2231 4.33155 12.1246 4.27909C12.026 4.22662 11.916 4.19949 11.8044 4.20015C11.6928 4.20081 11.5831 4.22924 11.4853 4.28288C11.3875 4.33651 11.3046 4.41366 11.2441 4.50737L9.50477 6.20262Z" fill="black"/>
<path d="M9.67139 12.0368C9.67139 11.7055 9.94002 11.4368 10.2714 11.4368H13.3996C13.7309 11.4368 13.9996 11.7055 13.9996 12.0368V14.3968C13.9996 14.7282 13.7309 14.9968 13.3996 14.9968H10.2714C9.94002 14.9968 9.67139 14.7282 9.67139 14.3968V12.0368Z" fill="#28EA3C"/>
<path fill-rule="evenodd" clip-rule="evenodd" d="M13.3996 11.7368H10.2714C10.1057 11.7368 9.97139 11.8711 9.97139 12.0368V14.3968C9.97139 14.5625 10.1057 14.6968 10.2714 14.6968H13.3996C13.5653 14.6968 13.6996 14.5625 13.6996 14.3968V12.0368C13.6996 11.8711 13.5653 11.7368 13.3996 11.7368ZM10.2714 11.4368C9.94002 11.4368 9.67139 11.7055 9.67139 12.0368V14.3968C9.67139 14.7282 9.94002 14.9968 10.2714 14.9968H13.3996C13.7309 14.9968 13.9996 14.7282 13.9996 14.3968V12.0368C13.9996 11.7055 13.7309 11.4368 13.3996 11.4368H10.2714Z" fill="black"/>
</svg>
