<svg width="16" height="16" viewBox="0 0 16 16" fill="none" xmlns="http://www.w3.org/2000/svg">
<path d="M13.4545 1H2.54546C2.24422 1 2 1.34824 2 1.77779V4.88889V8V11.1111V14.2222C2 14.6518 2.24422 15 2.54546 15H6.18182H9.81818H13.4545C13.7558 15 14 14.6518 14 14.2222V11.1111V8V4.88889V1.77779C14 1.34824 13.7557 1 13.4545 1ZM5.63635 12.6667C5.63636 13.0962 5.28813 13.4444 4.85858 13.4444H3.86866C3.43911 13.4444 3.09089 13.0962 3.09089 12.6667V12.6667C3.09089 12.2371 3.43911 11.8889 3.86866 11.8889H4.85858C5.28813 11.8889 5.63634 12.2371 5.63635 12.6667V12.6667ZM5.63635 9.55554C5.63636 9.9851 5.28813 10.3333 4.85858 10.3333H3.86866C3.43911 10.3333 3.09089 9.98511 3.09089 9.55556V9.55556C3.09089 9.12601 3.43911 8.77779 3.86866 8.77779H4.85858C5.28813 8.77779 5.63634 9.126 5.63635 9.55554V9.55554ZM5.63635 6.44444C5.63636 6.87399 5.28813 7.22222 4.85858 7.22222H3.86866C3.43911 7.22222 3.09089 6.874 3.09089 6.44445V6.44445C3.09089 6.0149 3.43911 5.66668 3.86866 5.66668H4.85858C5.28813 5.66668 5.63634 6.01489 5.63635 6.44444V6.44444ZM9.2727 12.6667C9.2727 13.0962 8.92448 13.4444 8.49493 13.4444H7.50502C7.07547 13.4444 6.72726 13.0962 6.72726 12.6667V12.6667C6.72726 12.2371 7.07547 11.8889 7.50502 11.8889H8.49493C8.92448 11.8889 9.2727 12.2371 9.2727 12.6667V12.6667ZM9.2727 9.55556C9.2727 9.98511 8.92448 10.3333 8.49493 10.3333H7.50502C7.07547 10.3333 6.72726 9.98511 6.72726 9.55556V9.55556C6.72726 9.12601 7.07547 8.77779 7.50502 8.77779H8.49493C8.92448 8.77779 9.2727 9.12601 9.2727 9.55556V9.55556ZM9.2727 6.44445C9.2727 6.874 8.92448 7.22222 8.49493 7.22222H7.50502C7.07547 7.22222 6.72726 6.874 6.72726 6.44445V6.44445C6.72726 6.0149 7.07547 5.66668 7.50502 5.66668H8.49493C8.92448 5.66668 9.2727 6.0149 9.2727 6.44445V6.44445ZM12.909 12.6667C12.9091 13.0962 12.5608 13.4444 12.1313 13.4444H11.1414C10.7118 13.4444 10.3636 13.0962 10.3636 12.6667V12.6667C10.3636 12.2371 10.7118 11.8889 11.1414 11.8889H12.1313C12.5608 11.8889 12.909 12.2371 12.909 12.6667V12.6667ZM12.909 9.55554C12.9091 9.9851 12.5608 10.3333 12.1313 10.3333H11.1414C10.7118 10.3333 10.3636 9.98511 10.3636 9.55556V9.55556C10.3636 9.12601 10.7118 8.77779 11.1414 8.77779H12.1313C12.5608 8.77779 12.909 9.126 12.909 9.55554V9.55554ZM12.909 6.44444C12.9091 6.87399 12.5608 7.22222 12.1313 7.22222H11.1414C10.7118 7.22222 10.3636 6.874 10.3636 6.44445V6.44445C10.3636 6.0149 10.7118 5.66668 11.1414 5.66668H12.1313C12.5608 5.66668 12.909 6.01489 12.909 6.44444V6.44444Z" fill="#554646"/>
<path d="M13.4545 1H2.54546C2.24422 1 2 1.29849 2 1.66667V4.33333C2 4.70151 2.24422 5 2.54546 5H3.09092H5.63637H6.72727H9.27273H10.3636H12.9091H13.4545C13.7558 5 14 4.70151 14 4.33333V1.66667C14 1.29849 13.7558 1 13.4545 1Z" fill="#CD3D3C"/>
<path d="M5.97478 11.5713H4.55009L5.16801 8.1593L2.0249 12.4285H3.44962L2.8317 15.8406L5.97478 11.5713Z" fill="#FFD500"/>
<path d="M2.83181 16C2.81064 16 2.78922 15.9958 2.76879 15.987C2.70072 15.9576 2.66184 15.8852 2.67506 15.8122L3.25898 12.588H2.02509C1.965 12.588 1.90998 12.5541 1.88286 12.5005C1.85575 12.4469 1.86112 12.3825 1.89675 12.3341L5.03984 8.06488C5.08381 8.00516 5.16314 7.9837 5.23125 8.01301C5.29933 8.04235 5.3382 8.11479 5.32498 8.18776L4.74108 11.412H5.97497C6.03506 11.412 6.09007 11.4458 6.1172 11.4995C6.14431 11.5531 6.13893 11.6174 6.10331 11.6659L2.9602 15.9351C2.92942 15.9769 2.88126 16 2.83181 16ZM2.34029 12.2692H3.44978C3.49701 12.2692 3.54181 12.2902 3.57209 12.3264C3.60237 12.3627 3.61501 12.4105 3.60659 12.457L3.11122 15.1924L5.65973 11.7307H4.55025C4.50301 11.7307 4.45822 11.7098 4.42793 11.6735C4.39765 11.6373 4.38501 11.5895 4.39343 11.543L4.88881 8.8076L2.34029 12.2692Z" fill="#3D3D3D"/>
</svg>
