<svg width="16" height="16" viewBox="0 0 16 16" fill="none" xmlns="http://www.w3.org/2000/svg">
<g clip-path="url(#clip0_484_2174)">
<path fill-rule="evenodd" clip-rule="evenodd" d="M4.35391 2.72488V5.30996H11.6461V2.72488H4.35391ZM3.75391 1.62488C3.47776 1.62488 3.25391 1.84874 3.25391 2.12488V5.90996C3.25391 6.1861 3.47776 6.40996 3.75391 6.40996H12.2461C12.5222 6.40996 12.7461 6.1861 12.7461 5.90996V2.12488C12.7461 1.84874 12.5222 1.62488 12.2461 1.62488H3.75391Z" fill="#4B4949"/>
<path d="M1.47402 12.6335V6.44666H14.526V12.6335H12.7461V13.7335H15.126C15.4021 13.7335 15.626 13.5097 15.626 13.2335V5.84666C15.626 5.57052 15.4021 5.34666 15.126 5.34666H0.874023C0.597881 5.34666 0.374023 5.57052 0.374023 5.84667V13.2335C0.374023 13.5097 0.597881 13.7335 0.874023 13.7335H3.25391V12.6335H1.47402Z" fill="#4B4949"/>
<path fill-rule="evenodd" clip-rule="evenodd" d="M4.35391 11.2111V14.9H11.6461V11.2111H4.35391ZM3.75391 10.1111C3.47776 10.1111 3.25391 10.335 3.25391 10.6111V15.5C3.25391 15.7761 3.47776 16 3.75391 16H12.2461C12.5222 16 12.7461 15.7761 12.7461 15.5V10.6111C12.7461 10.335 12.5222 10.1111 12.2461 10.1111H3.75391Z" fill="#4B4949"/>
</g>
<defs>
<clipPath id="clip0_484_2174">
<rect width="16" height="16" fill="white"/>
</clipPath>
</defs>
</svg>
