<svg width="16" height="16" viewBox="0 0 16 16" fill="none" xmlns="http://www.w3.org/2000/svg">
<path d="M8.97074 13.9258C8.58584 14.5924 7.62359 14.5924 7.23869 13.9258L4.13547 8.55086C3.75057 7.8842 4.2317 7.05089 5.0015 7.05089L11.2079 7.05089C11.9777 7.05089 12.4589 7.8842 12.074 8.55086L8.97074 13.9258Z" fill="#4B4949"/>
<path d="M7.23869 8.8749C7.62359 9.54156 8.58584 9.54156 8.97074 8.8749L10.0238 7.05092L6.18561 7.05092L7.23869 8.8749Z" fill="#4B4949"/>
<path d="M5.78146 6.35092L10.428 6.35092L12.074 3.49997C12.4589 2.83331 11.9777 2 11.2079 2H5.0015C4.2317 2 3.75057 2.83331 4.13547 3.49997L5.78146 6.35092Z" fill="#4B4949"/>
</svg>
