<svg width="16" height="16" viewBox="0 0 16 16" fill="none" xmlns="http://www.w3.org/2000/svg">
<path d="M10.6002 9.79757C11.8308 11.6936 12.8773 11.387 13.7656 12.8817C14.6539 14.3765 13.7755 14.9459 13.7755 14.9459C13.7755 14.9459 13.0512 15.6989 11.7314 14.5602C10.4117 13.4214 10.9062 12.4565 9.25111 10.9108L10.6002 9.79757Z" fill="#4B4949"/>
<path fill-rule="evenodd" clip-rule="evenodd" d="M11.2966 6.47912C11.05 9.16475 8.6557 11.1404 5.94888 10.8918C3.24206 10.6432 1.24769 8.26454 1.49433 5.5789C1.74097 2.89326 4.13523 0.917646 6.84205 1.16623C9.54887 1.41482 11.5432 3.79348 11.2966 6.47912ZM9.8624 6.34767C9.688 8.24665 7.99505 9.64359 6.08109 9.46782C4.16712 9.29204 2.75693 7.61012 2.93133 5.71114C3.10572 3.81215 4.79868 2.41521 6.71264 2.59099C8.6266 2.76676 10.0368 4.44868 9.8624 6.34767Z" fill="#4B4949"/>
</svg>
