<svg width="16" height="16" viewBox="0 0 16 16" fill="none" xmlns="http://www.w3.org/2000/svg">
<path fill-rule="evenodd" clip-rule="evenodd" d="M13.6875 1.13C14.4111 1.13 15 1.71888 15 2.4425V13.8175C15 14.5411 14.4111 15.13 13.6875 15.13H2.3125C1.58887 15.13 1 14.5411 1 13.8175V2.4425C1 1.71888 1.58887 1.13 2.3125 1.13H13.6875ZM10.625 9.88H14.125V6.38H10.625V9.88ZM14.125 13.8175V10.755H10.625V14.255H13.6875C13.9281 14.255 14.125 14.0581 14.125 13.8175ZM6.25 9.88H9.75V6.38H6.25V9.88ZM6.25 14.255H9.75V10.755H6.25V14.255ZM1.875 9.88H5.375V6.38H1.875V9.88ZM5.375 14.255V10.755H1.875V13.8175C1.875 14.0581 2.07187 14.255 2.3125 14.255H5.375Z" fill="#CD3D3C"/>
</svg>
