<svg width="16" height="16" viewBox="0 0 16 16" fill="none" xmlns="http://www.w3.org/2000/svg">
<path d="M8.96802 0.5V6.63032H7.32892C5.63608 6.63032 4.26376 5.258 4.26376 3.56516C4.26376 1.87232 5.63608 0.5 7.32892 0.5L8.96802 0.5Z" stroke="#4B4949"/>
<path d="M4.23267 2.71251V4.41736H1.25883C0.788051 4.41736 0.406407 4.03572 0.406407 3.56493V3.56493C0.406407 3.09415 0.788051 2.71251 1.25883 2.71251H4.23267Z" fill="#4B4949"/>
<rect width="1.08783" height="3.65276" rx="0.543913" transform="matrix(0 1 1 0 8.7644 4.50836)" fill="#4B4949"/>
<rect width="1.08783" height="3.58711" rx="0.543913" transform="matrix(0 1 1 0 8.82959 1.53435)" fill="#4B4949"/>
<path d="M8.96729 8.77391V14.9042H7.32819C5.63535 14.9042 4.26303 13.5319 4.26303 11.8391C4.26303 10.1462 5.63535 8.77391 7.32819 8.77391H8.96729Z" stroke="#4B4949"/>
<path d="M4.23218 10.9864V12.6913H1.25834C0.787563 12.6913 0.405919 12.3096 0.405919 11.8389V11.8389C0.405919 11.3681 0.787562 10.9864 1.25834 10.9864H4.23218Z" fill="#4B4949"/>
<rect width="1.08783" height="3.65276" rx="0.543913" transform="matrix(0 1 1 0 8.76392 12.7823)" fill="#4B4949"/>
<rect width="1.08783" height="3.58711" rx="0.543913" transform="matrix(0 1 1 0 8.82886 9.80826)" fill="#4B4949"/>
</svg>
