<svg width="16" height="16" viewBox="0 0 16 16" fill="none" xmlns="http://www.w3.org/2000/svg">
<path fill-rule="evenodd" clip-rule="evenodd" d="M4.83066 1.84713C5.16837 1.65992 5.52189 1.6463 5.62027 1.81669L12.9461 14.5053C13.0444 14.6757 12.8504 14.9656 12.5127 15.1528C12.175 15.34 11.8215 15.3537 11.7231 15.1833L4.3973 2.49463C4.29892 2.32423 4.49294 2.03434 4.83066 1.84713Z" fill="#4B4949"/>
<path fill-rule="evenodd" clip-rule="evenodd" d="M5.18841 5.86477C5.0107 6.1946 4.87288 6.5491 4.78141 6.92181H1.48413C0.888834 6.92181 0.40625 7.4044 0.40625 7.99969C0.40625 8.59499 0.888834 9.07758 1.48413 9.07758H4.78126C5.25385 11.0044 6.96511 12.4446 9.02276 12.5061L8.39881 11.4253C6.8272 11.0778 5.65166 9.67616 5.65166 8C5.65166 7.63279 5.70808 7.27876 5.81272 6.94611L5.18841 5.86477ZM9.60112 11.5081L10.1785 12.5081H10.8646H11.7928L10.8646 10.9004V11.5081H9.60112ZM7.4282 4.94832C7.00999 5.18613 6.64544 5.50743 6.35724 5.88954L5.82456 4.96691C6.14263 4.61736 6.51491 4.318 6.9281 4.08213L7.4282 4.94832ZM10.8646 8.90069V4.4919H9.15977C8.88843 4.4919 8.62429 4.5227 8.37065 4.581L7.8529 3.68423C8.26654 3.55915 8.7053 3.4919 9.15977 3.4919H10.8646H11.8646V4.4919V5.43208H14.9058C15.2857 5.43208 15.5936 5.74001 15.5936 6.11985C15.5936 6.4997 15.2857 6.80762 14.9058 6.80762H11.8646V9.19263H14.9063C15.2862 9.19263 15.5941 9.50055 15.5941 9.8804C15.5941 10.2602 15.2862 10.5682 14.9063 10.5682H11.8646V10.6327L10.8646 8.90069Z" fill="#4B4949"/>
</svg>
