<svg width="16" height="16" viewBox="0 0 16 16" fill="none" xmlns="http://www.w3.org/2000/svg">
<g clip-path="url(#clip0_484_1912)">
<path fill-rule="evenodd" clip-rule="evenodd" d="M12.0206 5.42064C12.0206 5.89604 12.406 6.28143 12.8814 6.28143C13.3568 6.28143 13.7421 5.89604 13.7421 5.42064V4.00153H15.1394C15.6148 4.00153 16.0002 3.61614 16.0002 3.14074C16.0002 2.66534 15.6148 2.27995 15.1394 2.27995H13.7421V0.860788C13.7421 0.385388 13.3568 0 12.8814 0C12.406 0 12.0206 0.385388 12.0206 0.860788V2.27995H10.5795C10.1041 2.27995 9.71875 2.66534 9.71875 3.14074C9.71875 3.61614 10.1041 4.00153 10.5795 4.00153H12.0206V5.42064Z" fill="#4B4949"/>
<path fill-rule="evenodd" clip-rule="evenodd" d="M14.125 7.42768V9.75H10.625V6.25H10.6704C10.5824 6.0157 10.5307 5.76371 10.5219 5.50084C9.2447 5.47024 8.21875 4.4253 8.21875 3.14074C8.21875 2.19303 8.77718 1.37575 9.58294 1H2.3125C1.58887 1 1 1.58887 1 2.3125V13.6875C1 14.4111 1.58887 15 2.3125 15H13.6875C14.4111 15 15 14.4111 15 13.6875V6.46331C14.804 6.86081 14.4994 7.19517 14.125 7.42768ZM14.125 10.625V13.6875C14.125 13.9281 13.9281 14.125 13.6875 14.125H10.625V10.625H14.125ZM9.75 9.75H6.25V6.25H9.75V9.75ZM9.75 14.125H6.25V10.625H9.75V14.125ZM5.375 9.75H1.875V6.25H5.375V9.75ZM5.375 10.625V14.125H2.3125C2.07187 14.125 1.875 13.9281 1.875 13.6875V10.625H5.375Z" fill="#4B4949"/>
<path d="M14.9996 2.27995C14.9999 2.29077 15 2.30162 15 2.3125V4.00153H13.7421V5.42064C13.7421 5.81592 13.4757 6.14896 13.1126 6.25H12.6501C12.287 6.14896 12.0206 5.81592 12.0206 5.42064V4.00153H10.5795C10.1041 4.00153 9.71875 3.61614 9.71875 3.14074C9.71875 2.66534 10.1041 2.27995 10.5795 2.27995H12.0206V1H13.6875C13.7058 1 13.724 1.00038 13.7421 1.00112V2.27995H14.9996Z" fill="#4B4949"/>
</g>
<defs>
<clipPath id="clip0_484_1912">
<rect width="16" height="16" fill="white"/>
</clipPath>
</defs>
</svg>
