<svg width="16" height="16" viewBox="0 0 16 16" fill="none" xmlns="http://www.w3.org/2000/svg">
<g clip-path="url(#clip0_405_3988)">
<rect x="0.427734" y="0.404724" width="7.99696" height="7.99696" rx="1.3" fill="white"/>
<path fill-rule="evenodd" clip-rule="evenodd" d="M7.67498 0.404724C8.08832 0.404724 8.42469 0.741096 8.42469 1.15444V7.65197C8.42469 8.06531 8.08832 8.40168 7.67498 8.40168H1.17745C0.764106 8.40168 0.427734 8.06531 0.427734 7.65197V1.15444C0.427734 0.741096 0.764106 0.404724 1.17745 0.404724H7.67498ZM5.92564 5.40282H7.92488V3.40358H5.92564V5.40282ZM7.92488 7.65197V5.90263H5.92564V7.90187H7.67498C7.81242 7.90187 7.92488 7.78941 7.92488 7.65197ZM3.42659 5.40282H5.42583V3.40358H3.42659V5.40282ZM3.42659 7.90187H5.42583V5.90263H3.42659V7.90187ZM0.927544 5.40282H2.92678V3.40358H0.927544V5.40282ZM2.92678 7.90187V5.90263H0.927544V7.65197C0.927544 7.78941 1.04 7.90187 1.17745 7.90187H2.92678Z" fill="#4B4949"/>
<g filter="url(#filter0_f_405_3988)">
<path d="M5.89648 4.50229C5.89648 3.9779 6.32159 3.5528 6.84598 3.5528H12.6886C13.213 3.5528 13.6381 3.9779 13.6381 4.50229V9.69693C13.6381 10.2213 13.213 10.6464 12.6886 10.6464H6.84598C6.32159 10.6464 5.89648 10.2213 5.89648 9.69693V4.50229Z" fill="#4F4D4D" fill-opacity="0.24"/>
</g>
<rect x="7.32666" y="3.5528" width="7.99696" height="7.99696" rx="1.3" fill="white"/>
<path fill-rule="evenodd" clip-rule="evenodd" d="M14.5739 3.5528C14.9872 3.5528 15.3236 3.88917 15.3236 4.30251V10.8C15.3236 11.2134 14.9872 11.5498 14.5739 11.5498H8.07637C7.66303 11.5498 7.32666 11.2134 7.32666 10.8V4.30251C7.32666 3.88917 7.66303 3.5528 8.07637 3.5528H14.5739ZM12.8246 8.55089H14.8238V6.55165H12.8246V8.55089ZM14.8238 10.8V9.0507H12.8246V11.0499H14.5739C14.7113 11.0499 14.8238 10.9375 14.8238 10.8ZM10.3255 8.55089H12.3248V6.55165H10.3255V8.55089ZM10.3255 11.0499H12.3248V9.0507H10.3255V11.0499ZM7.82647 8.55089H9.82571V6.55165H7.82647V8.55089ZM9.82571 11.0499V9.0507H7.82647V10.8C7.82647 10.9375 7.93893 11.0499 8.07637 11.0499H9.82571Z" fill="#4B4949"/>
<g filter="url(#filter1_f_405_3988)">
<path d="M2.61279 8.30478C2.61279 7.78039 3.0379 7.35529 3.56229 7.35529H9.40487C9.92926 7.35529 10.3544 7.78039 10.3544 8.30478V13.4994C10.3544 14.0238 9.92926 14.4489 9.40487 14.4489H3.56229C3.0379 14.4489 2.61279 14.0238 2.61279 13.4994V8.30478Z" fill="#4F4D4D" fill-opacity="0.24"/>
</g>
<rect x="2.61279" y="7.74738" width="7.99696" height="7.99696" rx="1.3" fill="white"/>
<path fill-rule="evenodd" clip-rule="evenodd" d="M9.86004 7.74738C10.2734 7.74738 10.6097 8.08375 10.6097 8.49709V14.9946C10.6097 15.408 10.2734 15.7443 9.86004 15.7443H3.36251C2.94916 15.7443 2.61279 15.408 2.61279 14.9946V8.49709C2.61279 8.08375 2.94916 7.74738 3.36251 7.74738H9.86004ZM8.1107 12.7455H10.1099V10.7462H8.1107V12.7455ZM10.1099 14.9946V13.2453H8.1107V15.2445H9.86004C9.99748 15.2445 10.1099 15.1321 10.1099 14.9946ZM5.61165 12.7455H7.61089V10.7462H5.61165V12.7455ZM5.61165 15.2445H7.61089V13.2453H5.61165V15.2445ZM3.1126 12.7455H5.11184V10.7462H3.1126V12.7455ZM5.11184 15.2445V13.2453H3.1126V14.9946C3.1126 15.1321 3.22506 15.2445 3.36251 15.2445H5.11184Z" fill="#4B4949"/>
</g>
<defs>
<filter id="filter0_f_405_3988" x="5.03463" y="2.69094" width="9.4654" height="8.81733" filterUnits="userSpaceOnUse" color-interpolation-filters="sRGB">
<feFlood flood-opacity="0" result="BackgroundImageFix"/>
<feBlend mode="normal" in="SourceGraphic" in2="BackgroundImageFix" result="shape"/>
<feGaussianBlur stdDeviation="0.430925" result="effect1_foregroundBlur_405_3988"/>
</filter>
<filter id="filter1_f_405_3988" x="1.75094" y="6.49343" width="9.4654" height="8.81733" filterUnits="userSpaceOnUse" color-interpolation-filters="sRGB">
<feFlood flood-opacity="0" result="BackgroundImageFix"/>
<feBlend mode="normal" in="SourceGraphic" in2="BackgroundImageFix" result="shape"/>
<feGaussianBlur stdDeviation="0.430925" result="effect1_foregroundBlur_405_3988"/>
</filter>
<clipPath id="clip0_405_3988">
<rect width="16" height="16" fill="white"/>
</clipPath>
</defs>
</svg>
