<svg width="16" height="16" viewBox="0 0 16 16" fill="none" xmlns="http://www.w3.org/2000/svg">
<g clip-path="url(#clip0_464_13087)">
<path fill-rule="evenodd" clip-rule="evenodd" d="M1.04799 1.76958C1.04804 1.09457 1.37296 0.566254 2.04797 0.566254L14.5479 0.547394C15.2229 0.547394 15.4586 1.11354 15.4586 1.78862L15.4585 8.33628C15.0653 8.12037 14.9687 7.91748 14.5477 7.76812V3.62778L2.04783 3.64664L2.05538 14.5595L6.54785 14.5474C7.20542 15.0587 7.91443 15.1439 8.67534 15.4438L2.04783 15.4526C1.37279 15.4526 1.04785 14.8865 1.04785 14.2115V1.78862L1.04799 1.76958ZM13.264 1.23472C12.7777 1.23472 12.3834 1.629 12.3834 2.11538C12.3834 2.60176 12.7777 2.99604 13.264 2.99604H13.3129C13.7993 2.99604 14.1936 2.60176 14.1936 2.11538C14.1936 1.629 13.7993 1.23472 13.3129 1.23472H13.264ZM9.77742 2.11538C9.77742 1.629 10.1717 1.23472 10.6581 1.23472H10.707C11.1934 1.23472 11.5876 1.629 11.5876 2.11538C11.5876 2.60176 11.1934 2.99604 10.707 2.99604H10.6581C10.1717 2.99604 9.77742 2.60176 9.77742 2.11538Z" fill="#4B4949"/>
<path d="M6.57727 11.3894L6.35171 11.6897L6.57727 11.99C7.53085 13.2595 9.07975 14.3205 10.8738 14.3205C12.6678 14.3205 14.2167 13.2595 15.1703 11.99L15.3959 11.6897L15.1703 11.3894C14.2261 10.1325 12.6796 8.99268 10.8738 8.99268C9.06801 8.99268 7.52143 10.1324 6.57727 11.3894Z" stroke="#4B4949"/>
<path d="M10.8736 13.2137C11.7153 13.2137 12.3977 12.5313 12.3977 11.6896C12.3977 10.8479 11.7153 10.1656 10.8736 10.1656C10.0319 10.1656 9.34961 10.8479 9.34961 11.6896C9.34961 12.5313 10.0319 13.2137 10.8736 13.2137Z" fill="#4B4949"/>
</g>
<defs>
<clipPath id="clip0_464_13087">
<rect width="16" height="16" fill="white"/>
</clipPath>
</defs>
</svg>
