<svg width="16" height="16" viewBox="0 0 16 16" fill="none" xmlns="http://www.w3.org/2000/svg">
<path fill-rule="evenodd" clip-rule="evenodd" d="M8 13.4995C11.0373 13.4995 13.4995 11.0373 13.4995 8C13.4995 4.9627 11.0373 2.50049 8 2.50049C4.9627 2.50049 2.50049 4.9627 2.50049 8C2.50049 11.0373 4.9627 13.4995 8 13.4995ZM5.46037 8.95894C4.93078 8.95894 4.50146 8.52962 4.50146 8.00003C4.50146 7.47044 4.93078 7.04113 5.46037 7.04113H10.54C11.0696 7.04113 11.4989 7.47044 11.4989 8.00003C11.4989 8.52962 11.0696 8.95894 10.54 8.95894H5.46037Z" fill="#4B4949"/>
<path fill-rule="evenodd" clip-rule="evenodd" d="M5.46018 7.24113C5.04104 7.24113 4.70127 7.5809 4.70127 8.00003C4.70127 8.41917 5.04104 8.75894 5.46018 8.75894H10.5398C10.9589 8.75894 11.2987 8.41917 11.2987 8.00003C11.2987 7.5809 10.9589 7.24113 10.5398 7.24113H5.46018ZM10.5398 6.84113C11.1798 6.84113 11.6987 7.35999 11.6987 8.00003C11.6987 8.64008 11.1798 9.15894 10.5398 9.15894H5.46018C4.82013 9.15894 4.30127 8.64008 4.30127 8.00003C4.30127 7.35999 4.82013 6.84113 5.46018 6.84113H10.5398Z" fill="#2E2E2E"/>
</svg>
