<svg width="16" height="16" viewBox="0 0 16 16" fill="none" xmlns="http://www.w3.org/2000/svg">
<path d="M13.9944 3.91435C13.9974 3.9171 13.9992 3.921 13.9992 3.9251V14C13.9992 14.5523 13.5514 15 12.9992 15H3C2.44772 15 2 14.5523 2 14V2C2 1.44772 2.44772 1 3 1H10.409C10.6582 1 10.8984 1.09303 11.0826 1.26087L13.9944 3.91435V3.91435Z" fill="#FC7B24"/>
<path d="M13.8002 3.74038C13.8677 3.8019 13.8242 3.91429 13.7328 3.91429H10.893C10.8377 3.91429 10.793 3.86952 10.793 3.81429V1.22642C10.793 1.13955 10.8961 1.09399 10.9603 1.1525L13.8002 3.74038Z" fill="white" fill-opacity="0.7"/>
<path d="M10.5615 10V6.43066H11.3184V9.375H12.7661V10H10.5615Z" fill="white"/>
<path d="M7.85596 10L6.99658 7.19971H6.97461C7.00553 7.76937 7.021 8.14941 7.021 8.33984V10H6.34473V6.43066H7.375L8.21973 9.16016H8.23438L9.13037 6.43066H10.1606V10H9.45508V8.31055C9.45508 8.23079 9.45589 8.13883 9.45752 8.03467C9.46077 7.9305 9.47217 7.65381 9.4917 7.20459H9.46973L8.54932 10H7.85596Z" fill="white"/>
<path d="M6.39551 10H5.53125L4.70117 8.6499L3.87109 10H3.06055L4.24463 8.15918L3.13623 6.43066H3.97119L4.74023 7.71484L5.49463 6.43066H6.31006L5.18945 8.20068L6.39551 10Z" fill="white"/>
</svg>
