<svg width="16" height="16" viewBox="0 0 16 16" fill="none" xmlns="http://www.w3.org/2000/svg">
<circle cx="8" cy="8" r="7" fill="#6894C1"/>
<path fill-rule="evenodd" clip-rule="evenodd" d="M8 15C11.866 15 15 11.866 15 8C15 4.13401 11.866 1 8 1C4.13401 1 1 4.13401 1 8C1 11.866 4.13401 15 8 15ZM8 14C11.3137 14 14 11.3137 14 8C14 4.68629 11.3137 2 8 2C4.68629 2 2 4.68629 2 8C2 11.3137 4.68629 14 8 14Z" fill="white"/>
<path d="M7 12.25V7.05161H8.99959V12.25H7ZM7.9998 5.88582C7.65616 5.88582 7.38181 5.79436 7.17675 5.61147C6.97168 5.42858 6.86914 5.12058 6.86914 4.84902C6.86914 4.57746 6.97168 4.20723 7.17675 4.02435C7.38181 3.84146 7.65616 3.75 7.9998 3.75C8.34343 3.75 8.61778 3.83592 8.82285 4.00772C9.02792 4.17952 9.13045 4.54421 9.13045 4.81577C9.13045 5.10395 9.02792 5.42304 8.82285 5.61147C8.61778 5.79436 8.34343 5.88582 7.9998 5.88582Z" fill="white"/>
</svg>
