<svg width="16" height="16" viewBox="0 0 16 16" fill="none" xmlns="http://www.w3.org/2000/svg">
<rect x="1" y="1" width="14" height="14" fill="#5284C3"/>
<rect x="2" y="2" width="12" height="12" fill="#F5F5F5"/>
<rect x="3" y="3" width="10" height="2" fill="#355783"/>
<rect x="3" y="6" width="10" height="1" fill="#4474B1"/>
<rect x="3" y="8" width="10" height="1" fill="#4474B1"/>
<rect x="3" y="10" width="10" height="1" fill="#4474B1"/>
<rect x="3" y="12" width="10" height="1" fill="#4474B1"/>
<rect x="4" y="6" width="7" height="1" transform="rotate(90 4 6)" fill="#4474B1"/>
<rect x="7" y="6" width="7" height="1" transform="rotate(90 7 6)" fill="#4474B1"/>
<rect x="13" y="6" width="7" height="1" transform="rotate(90 13 6)" fill="#4474B1"/>
<rect x="10" y="6" width="7" height="1" transform="rotate(90 10 6)" fill="#4474B1"/>
<circle cx="12" cy="12" r="4" fill="#7DCD17"/>
<rect x="11.5" y="10" width="1" height="4" fill="white"/>
<rect x="14" y="11.5" width="1" height="4" transform="rotate(90 14 11.5)" fill="white"/>
</svg>
