<svg width="32" height="32" viewBox="0 0 32 32" fill="none" xmlns="http://www.w3.org/2000/svg">
<rect x="2" y="2" width="28" height="28" fill="#5284C3"/>
<rect x="4" y="4" width="24" height="24" fill="#F5F5F5"/>
<rect x="6" y="6" width="20" height="4" fill="#355783"/>
<rect x="6" y="12" width="20" height="2" fill="#4474B1"/>
<rect x="6" y="16" width="20" height="2" fill="#4474B1"/>
<rect x="6" y="20" width="20" height="2" fill="#4474B1"/>
<rect x="6" y="24" width="20" height="2" fill="#4474B1"/>
<rect x="8" y="12" width="14" height="2" transform="rotate(90 8 12)" fill="#4474B1"/>
<rect x="14" y="12" width="14" height="2" transform="rotate(90 14 12)" fill="#4474B1"/>
<rect x="26" y="12" width="14" height="2" transform="rotate(90 26 12)" fill="#4474B1"/>
<rect x="20" y="12" width="14" height="2" transform="rotate(90 20 12)" fill="#4474B1"/>
<circle cx="24" cy="24" r="8" fill="#7DCD17"/>
<rect x="23" y="20" width="2" height="8" fill="white"/>
<rect x="28" y="23" width="2" height="8" transform="rotate(90 28 23)" fill="white"/>
</svg>
