<svg width="24" height="24" viewBox="0 0 24 24" fill="none" xmlns="http://www.w3.org/2000/svg">
    <g clip-path="url(#clip0_137_472)">
        <g clip-path="url(#clip1_137_472)">
            <circle cx="12" cy="4" r="4" transform="rotate(90 12 4)" fill="#3ADD31"/>
        </g>
        <g clip-path="url(#clip2_137_472)">
            <circle cx="12" cy="12" r="4" transform="rotate(90 12 12)" fill="#3ADD31"/>
        </g>
        <g clip-path="url(#clip3_137_472)">
            <circle cx="12" cy="20" r="4" transform="rotate(90 12 20)" fill="#3ADD31"/>
        </g>
        <path d="M5.33398 16.6667H6.66732V22.6667H5.33398V16.6667Z" fill="white"/>
        <path d="M12.6673 19.3333H10.0007L8.66732 18.6667L7.33398 18L8.00065 19.3333V20.6667L7.33398 21.3333H9.33398L10.0007 22H11.334M11.334 22H12.0007H12.6673M11.334 22H8.66732L11.334 22.6667H12.6673L13.334 22H14.0007L15.334 20.6667H14.6673H14.0007H16.6673M12.6673 22L14.0007 21.3333H15.334L16.0007 20H17.334L18.0007 19.3333V18.6667L13.334 20.6667H12.0007H9.33398L8.66732 20V19.3333L10.0007 18.6667H10.6673L13.334 19.3333V20L12.6673 21.3333V22Z"
              stroke="white" stroke-width="1.33333" stroke-linecap="round" stroke-linejoin="round"/>
        <path d="M18.5319 17.9599C18.3214 17.8719 18.0764 17.8204 17.8199 17.8204C17.5319 17.8204 17.2589 17.8849 17.0144 18.0004L17.0259 17.9954L14.1369 19.2934C14.1384 19.2699 14.1499 19.2494 14.1499 19.2259C14.1429 18.5404 13.5854 17.9874 12.8989 17.9874C12.8644 17.9874 12.8309 17.9889 12.7969 17.9914L12.8014 17.9909H10.9099L8.52994 17.2939C8.49894 17.2844 8.46294 17.2789 8.42544 17.2789H8.42444H7.33994V16.8999C7.33994 16.6929 7.17194 16.5249 6.96494 16.5249H5.02344C4.81644 16.5249 4.64844 16.6929 4.64844 16.8999V23.0039C4.64844 23.2109 4.81644 23.3789 5.02344 23.3789H6.96494C7.17194 23.3789 7.33994 23.2109 7.33994 23.0039V22.5019C8.24894 22.6439 9.06294 22.8729 9.83394 23.1849L9.75894 23.1579C10.3384 23.3659 11.0074 23.4859 11.7044 23.4859C12.5079 23.4859 13.2739 23.3264 13.9724 23.0369L13.9329 23.0514C14.5544 22.7749 15.0819 22.4834 15.5814 22.1519L15.5404 22.1774C15.7094 22.0729 15.8774 21.9684 16.0474 21.8679C16.8679 21.3824 17.5229 20.9584 18.1119 20.5324C18.4019 20.3259 18.6549 20.1214 18.8954 19.9039L18.8879 19.9104C19.0729 19.7599 19.2209 19.5709 19.3204 19.3554L19.3244 19.3459C19.3404 19.3059 19.3494 19.2599 19.3494 19.2114C19.3494 19.1834 19.3464 19.1559 19.3404 19.1294L19.3409 19.1319C19.2674 18.6239 18.9629 18.1989 18.5394 17.9629L18.5314 17.9589L18.5319 17.9599ZM6.59044 22.6299H5.39894V17.2759H6.59044V22.6299ZM18.3594 19.3794C18.1534 19.5644 17.9289 19.7444 17.6954 19.9109L17.6719 19.9269C17.1034 20.3379 16.4659 20.7504 15.6649 21.2249C15.4909 21.3274 15.3194 21.4339 15.1464 21.5404C14.7189 21.8274 14.2274 22.1009 13.7134 22.3334L13.6484 22.3594C13.0724 22.5959 12.4034 22.7334 11.7029 22.7334C11.1014 22.7334 10.5239 22.6324 9.98544 22.4459L10.0224 22.4569C9.24494 22.1309 8.34044 21.8819 7.39744 21.7519L7.33994 21.7454V18.0294H8.37044L10.7504 18.7264C10.7814 18.7359 10.8174 18.7414 10.8549 18.7414H10.8559H12.8009C13.2424 18.7414 13.3994 19.0024 13.3994 19.2264C13.3994 19.4504 13.2424 19.7114 12.8009 19.7114H9.39644C9.18944 19.7114 9.02144 19.8794 9.02144 20.0864C9.02144 20.2934 9.18944 20.4614 9.39644 20.4614H13.2869C13.3424 20.4614 13.3949 20.4494 13.4424 20.4279L13.4399 20.4289L17.3374 18.6779C17.4809 18.6119 17.6489 18.5729 17.8259 18.5729C17.9589 18.5729 18.0864 18.5944 18.2059 18.6349L18.1974 18.6324C18.3884 18.7469 18.5264 18.9344 18.5724 19.1549L18.5734 19.1599C18.5059 19.2394 18.4354 19.3109 18.3599 19.3769L18.3574 19.3789L18.3594 19.3794Z"
              fill="black"/>
    </g>
    <defs>
        <clipPath id="clip0_137_472">
            <rect width="24" height="24" fill="white"/>
        </clipPath>
        <clipPath id="clip1_137_472">
            <rect width="8" height="8" fill="white" transform="translate(16) rotate(90)"/>
        </clipPath>
        <clipPath id="clip2_137_472">
            <rect width="8" height="8" fill="white" transform="translate(16 8) rotate(90)"/>
        </clipPath>
        <clipPath id="clip3_137_472">
            <rect width="8" height="8" fill="white" transform="translate(16 16) rotate(90)"/>
        </clipPath>
    </defs>
</svg>
