<svg width="24" height="24" viewBox="0 0 24 24" fill="none" xmlns="http://www.w3.org/2000/svg">
    <g clip-path="url(#clip0_137_715)">
        <g clip-path="url(#clip1_137_715)">
            <circle cx="4" cy="8" r="4" fill="#3ADD31"/>
        </g>
        <g clip-path="url(#clip2_137_715)">
            <circle cx="12" cy="8" r="4" fill="#3ADD31"/>
        </g>
        <g clip-path="url(#clip3_137_715)">
            <circle cx="20" cy="8" r="4" fill="#3ADD31"/>
        </g>
        <path d="M5.33398 13.1667H6.66732V19.1667H5.33398V13.1667Z" fill="white"/>
        <path d="M12.6673 15.8333H10.0007L8.66732 15.1667L7.33398 14.5L8.00065 15.8333V17.1667L7.33398 17.8333H9.33398L10.0007 18.5H11.334M11.334 18.5H12.0007H12.6673M11.334 18.5H8.66732L11.334 19.1667H12.6673L13.334 18.5H14.0007L15.334 17.1667H14.6673H14.0007H16.6673M12.6673 18.5L14.0007 17.8333H15.334L16.0007 16.5H17.334L18.0007 15.8333V15.1667L13.334 17.1667H12.0007H9.33398L8.66732 16.5V15.8333L10.0007 15.1667H10.6673L13.334 15.8333V16.5L12.6673 17.8333V18.5Z"
              stroke="white" stroke-width="1.33333" stroke-linecap="round" stroke-linejoin="round"/>
        <path d="M18.5319 14.4599C18.3214 14.3719 18.0764 14.3204 17.8199 14.3204C17.5319 14.3204 17.2589 14.3849 17.0144 14.5004L17.0259 14.4954L14.1369 15.7934C14.1384 15.7699 14.1499 15.7494 14.1499 15.7259C14.1429 15.0404 13.5854 14.4874 12.8989 14.4874C12.8644 14.4874 12.8309 14.4889 12.7969 14.4914L12.8014 14.4909H10.9099L8.52994 13.7939C8.49894 13.7844 8.46294 13.7789 8.42544 13.7789H8.42444H7.33994V13.3999C7.33994 13.1929 7.17194 13.0249 6.96494 13.0249H5.02344C4.81644 13.0249 4.64844 13.1929 4.64844 13.3999V19.5039C4.64844 19.7109 4.81644 19.8789 5.02344 19.8789H6.96494C7.17194 19.8789 7.33994 19.7109 7.33994 19.5039V19.0019C8.24894 19.1439 9.06294 19.3729 9.83394 19.6849L9.75894 19.6579C10.3384 19.8659 11.0074 19.9859 11.7044 19.9859C12.5079 19.9859 13.2739 19.8264 13.9724 19.5369L13.9329 19.5514C14.5544 19.2749 15.0819 18.9834 15.5814 18.6519L15.5404 18.6774C15.7094 18.5729 15.8774 18.4684 16.0474 18.3679C16.8679 17.8824 17.5229 17.4584 18.1119 17.0324C18.4019 16.8259 18.6549 16.6214 18.8954 16.4039L18.8879 16.4104C19.0729 16.2599 19.2209 16.0709 19.3204 15.8554L19.3244 15.8459C19.3404 15.8059 19.3494 15.7599 19.3494 15.7114C19.3494 15.6834 19.3464 15.6559 19.3404 15.6294L19.3409 15.6319C19.2674 15.1239 18.9629 14.6989 18.5394 14.4629L18.5314 14.4589L18.5319 14.4599ZM6.59044 19.1299H5.39894V13.7759H6.59044V19.1299ZM18.3594 15.8794C18.1534 16.0644 17.9289 16.2444 17.6954 16.4109L17.6719 16.4269C17.1034 16.8379 16.4659 17.2504 15.6649 17.7249C15.4909 17.8274 15.3194 17.9339 15.1464 18.0404C14.7189 18.3274 14.2274 18.6009 13.7134 18.8334L13.6484 18.8594C13.0724 19.0959 12.4034 19.2334 11.7029 19.2334C11.1014 19.2334 10.5239 19.1324 9.98544 18.9459L10.0224 18.9569C9.24494 18.6309 8.34044 18.3819 7.39744 18.2519L7.33994 18.2454V14.5294H8.37044L10.7504 15.2264C10.7814 15.2359 10.8174 15.2414 10.8549 15.2414H10.8559H12.8009C13.2424 15.2414 13.3994 15.5024 13.3994 15.7264C13.3994 15.9504 13.2424 16.2114 12.8009 16.2114H9.39644C9.18944 16.2114 9.02144 16.3794 9.02144 16.5864C9.02144 16.7934 9.18944 16.9614 9.39644 16.9614H13.2869C13.3424 16.9614 13.3949 16.9494 13.4424 16.9279L13.4399 16.9289L17.3374 15.1779C17.4809 15.1119 17.6489 15.0729 17.8259 15.0729C17.9589 15.0729 18.0864 15.0944 18.2059 15.1349L18.1974 15.1324C18.3884 15.2469 18.5264 15.4344 18.5724 15.6549L18.5734 15.6599C18.5059 15.7394 18.4354 15.8109 18.3599 15.8769L18.3574 15.8789L18.3594 15.8794Z"
              fill="black"/>
    </g>
    <defs>
        <clipPath id="clip0_137_715">
            <rect width="24" height="24" fill="white"/>
        </clipPath>
        <clipPath id="clip1_137_715">
            <rect width="8" height="8" fill="white" transform="translate(0 4)"/>
        </clipPath>
        <clipPath id="clip2_137_715">
            <rect width="8" height="8" fill="white" transform="translate(8 4)"/>
        </clipPath>
        <clipPath id="clip3_137_715">
            <rect width="8" height="8" fill="white" transform="translate(16 4)"/>
        </clipPath>
    </defs>
</svg>
