<svg width="128" height="128" viewBox="0 0 128 128" fill="none" xmlns="http://www.w3.org/2000/svg">
<circle cx="51" cy="51" r="32" fill="#98AFD2"/>
<path fill-rule="evenodd" clip-rule="evenodd" d="M51.3843 94.7685C75.3447 94.7685 94.7685 75.3447 94.7685 51.3843C94.7685 27.4238 75.3447 8 51.3843 8C27.4238 8 8 27.4238 8 51.3843C8 75.3447 27.4238 94.7685 51.3843 94.7685ZM51.3843 82.373C68.4989 82.373 82.373 68.4989 82.373 51.3843C82.373 34.2696 68.4989 20.3955 51.3843 20.3955C34.2696 20.3955 20.3955 34.2696 20.3955 51.3843C20.3955 68.4989 34.2696 82.373 51.3843 82.373Z" fill="#2B2B2B"/>
<path d="M74.36 83.1255C71.9396 80.7051 71.9396 76.7809 74.36 74.3606C76.7804 71.9402 80.7046 71.9402 83.1249 74.3606L118.185 109.42C120.605 111.841 120.605 115.765 118.185 118.185C115.764 120.606 111.84 120.606 109.42 118.185L74.36 83.1255Z" fill="#2B2B2B"/>
</svg>
