<svg width="32" height="32" viewBox="0 0 32 32" fill="none" xmlns="http://www.w3.org/2000/svg">
<circle cx="13" cy="13" r="8" fill="#98AFD2"/>
<path fill-rule="evenodd" clip-rule="evenodd" d="M12.8461 23.6921C18.8362 23.6921 23.6921 18.8362 23.6921 12.8461C23.6921 6.85595 18.8362 2 12.8461 2C6.85595 2 2 6.85595 2 12.8461C2 18.8362 6.85595 23.6921 12.8461 23.6921ZM12.8461 20.5933C17.1247 20.5933 20.5933 17.1247 20.5933 12.8461C20.5933 8.56741 17.1247 5.09888 12.8461 5.09888C8.56741 5.09888 5.09888 8.56741 5.09888 12.8461C5.09888 17.1247 8.56741 20.5933 12.8461 20.5933Z" fill="#2B2B2B"/>
<path d="M18.59 20.7814C17.9849 20.1763 17.9849 19.1952 18.59 18.5901C19.1951 17.985 20.1761 17.985 20.7812 18.5901L29.5462 27.3551C30.1513 27.9602 30.1513 28.9412 29.5462 29.5463C28.9411 30.1514 27.96 30.1514 27.3549 29.5463L18.59 20.7814Z" fill="#2B2B2B"/>
</svg>
