<svg width="72" height="72" viewBox="0 0 72 72" fill="none" xmlns="http://www.w3.org/2000/svg">
<circle cx="29" cy="29" r="18" fill="#98AFD2"/>
<path fill-rule="evenodd" clip-rule="evenodd" d="M28.9036 53.3073C42.3814 53.3073 53.3073 42.3814 53.3073 28.9036C53.3073 15.4259 42.3814 4.5 28.9036 4.5C15.4259 4.5 4.5 15.4259 4.5 28.9036C4.5 42.3814 15.4259 53.3073 28.9036 53.3073ZM28.9036 46.3348C38.5306 46.3348 46.3348 38.5306 46.3348 28.9036C46.3348 19.2767 38.5306 11.4725 28.9036 11.4725C19.2767 11.4725 11.4725 19.2767 11.4725 28.9036C11.4725 38.5306 19.2767 46.3348 28.9036 46.3348Z" fill="#2B2B2B"/>
<path d="M41.8275 46.7581C40.466 45.3966 40.466 43.1893 41.8275 41.8278C43.189 40.4664 45.3963 40.4664 46.7578 41.8278L66.4789 61.5489C67.8404 62.9104 67.8404 65.1178 66.4789 66.4792C65.1174 67.8407 62.9101 67.8407 61.5486 66.4792L41.8275 46.7581Z" fill="#2B2B2B"/>
</svg>
