<svg width="256" height="256" viewBox="0 0 256 256" fill="none" xmlns="http://www.w3.org/2000/svg">
<ellipse cx="102.5" cy="102" rx="66.5" ry="66" fill="#98AFD2"/>
<path fill-rule="evenodd" clip-rule="evenodd" d="M102.769 189.537C150.689 189.537 189.537 150.689 189.537 102.769C189.537 54.8476 150.689 16 102.769 16C54.8476 16 16 54.8476 16 102.769C16 150.689 54.8476 189.537 102.769 189.537ZM102.769 164.746C136.998 164.746 164.746 136.998 164.746 102.769C164.746 68.5393 136.998 40.791 102.769 40.791C68.5393 40.791 40.791 68.5393 40.791 102.769C40.791 136.998 68.5393 164.746 102.769 164.746Z" fill="#2B2B2B"/>
<path d="M148.72 166.251C143.879 161.41 143.879 153.562 148.72 148.721C153.561 143.88 161.409 143.88 166.25 148.721L236.369 218.841C241.21 223.681 241.21 231.53 236.369 236.371C231.529 241.211 223.68 241.211 218.84 236.371L148.72 166.251Z" fill="#2B2B2B"/>
</svg>
