<svg width="16" height="16" viewBox="0 0 16 16" fill="none" xmlns="http://www.w3.org/2000/svg">
<g clip-path="url(#clip0_138_245)">
<path d="M0.624 12L2.028 5.04C2.156 4.4 2.416 3.904 2.808 3.552C3.208 3.2 3.732 3.024 4.38 3.024C4.644 3.024 4.892 3.06 5.124 3.132C5.364 3.196 5.56 3.292 5.712 3.42L5.232 4.272C5.008 4.072 4.724 3.972 4.38 3.972C4.036 3.972 3.76 4.068 3.552 4.26C3.352 4.452 3.212 4.744 3.132 5.136L2.952 5.964L2.892 6.444L1.776 12H0.624ZM0.624 6.588L0.804 5.64H4.872L4.68 6.588H0.624ZM4.77047 14.328C4.66647 14.04 4.56647 13.716 4.47047 13.356C4.38247 12.996 4.31447 12.616 4.26647 12.216C4.22647 11.824 4.20647 11.436 4.20647 11.052C4.20647 10.324 4.26647 9.596 4.38647 8.868C4.51447 8.14 4.69447 7.432 4.92647 6.744C5.15847 6.048 5.44247 5.392 5.77847 4.776C6.11447 4.16 6.49047 3.6 6.90647 3.096H8.08247C7.64247 3.648 7.25447 4.244 6.91847 4.884C6.58247 5.524 6.29047 6.188 6.04247 6.876C5.80247 7.564 5.61847 8.268 5.49047 8.988C5.37047 9.7 5.31047 10.408 5.31047 11.112C5.31047 11.656 5.35447 12.188 5.44247 12.708C5.53047 13.236 5.65847 13.776 5.82647 14.328H4.77047ZM5.87344 12L9.36544 8.412L9.24544 9L7.32544 5.64H8.52544L10.0254 8.304L9.49744 8.292L12.0294 5.64H13.3374L10.0014 9.096L10.0974 8.448L12.1374 12H10.9134L9.35344 9.216H9.86944L7.21744 12H5.87344ZM11.7865 14.328C12.2265 13.776 12.6145 13.18 12.9505 12.54C13.2945 11.9 13.5865 11.236 13.8265 10.548C14.0665 9.86 14.2465 9.16 14.3665 8.448C14.4945 7.728 14.5585 7.016 14.5585 6.312C14.5585 5.768 14.5145 5.236 14.4265 4.716C14.3465 4.188 14.2185 3.648 14.0425 3.096H15.0985C15.2105 3.376 15.3105 3.7 15.3985 4.068C15.4865 4.428 15.5505 4.804 15.5905 5.196C15.6385 5.588 15.6625 5.98 15.6625 6.372C15.6625 7.1 15.5985 7.828 15.4705 8.556C15.3505 9.284 15.1745 9.996 14.9425 10.692C14.7105 11.38 14.4265 12.032 14.0905 12.648C13.7625 13.264 13.3865 13.824 12.9625 14.328H11.7865Z" fill="#2B2B2B"/>
</g>
<defs>
<clipPath id="clip0_138_245">
<rect width="16" height="16" fill="white"/>
</clipPath>
</defs>
</svg>
