<svg width="16" height="16" viewBox="0 0 16 16" fill="none" xmlns="http://www.w3.org/2000/svg">
<g clip-path="url(#clip0_208_225)">
<path d="M12.4916 8.82256C12.7697 8.81945 12.9969 9.04393 12.9972 9.32209L13.0022 15.0052C13.0026 15.4494 12.4668 15.6735 12.1508 15.3613L6.463 9.74184C6.14701 9.42964 6.36463 8.89116 6.80882 8.88619L12.4916 8.82256Z" fill="#E74848"/>
<path d="M3.50938 8.82514C3.23124 8.82222 3.00419 9.04686 3.00413 9.32502L3.00299 15.0081C3.0029 15.4523 3.53886 15.6761 3.85465 15.3637L9.53857 9.74029C9.85435 9.42787 9.63636 8.88954 9.19217 8.88487L3.50938 8.82514Z" fill="#E74848"/>
<rect x="3" y="0.599976" width="10" height="10" rx="1" fill="#E74848"/>
</g>
<defs>
<clipPath id="clip0_208_225">
<rect width="16" height="16" fill="white"/>
</clipPath>
</defs>
</svg>
