<svg width="16" height="16" viewBox="0 0 16 16" fill="none" xmlns="http://www.w3.org/2000/svg">
<g clip-path="url(#clip0_251_478)">
<rect x="1" y="1" width="14" height="14" fill="#5284C3"/>
<rect x="2" y="2" width="12" height="12" fill="#F5F5F5"/>
<rect x="3" y="3" width="10" height="2" fill="#355783"/>
<rect x="3" y="6" width="10" height="1" fill="#4474B1"/>
<rect x="3" y="8" width="10" height="1" fill="#4474B1"/>
<rect x="3" y="10" width="10" height="1" fill="#4474B1"/>
<rect x="3" y="12" width="10" height="1" fill="#4474B1"/>
<rect x="4" y="6" width="7" height="1" transform="rotate(90 4 6)" fill="#4474B1"/>
<rect x="7" y="6" width="7" height="1" transform="rotate(90 7 6)" fill="#4474B1"/>
<rect x="13" y="6" width="7" height="1" transform="rotate(90 13 6)" fill="#4474B1"/>
<rect x="10" y="6" width="7" height="1" transform="rotate(90 10 6)" fill="#4474B1"/>
<rect x="10" y="9" width="4" height="9" transform="rotate(-180 10 9)" fill="#DD3131"/>
<path d="M8 15L4.5359 10.5L11.4641 10.5L8 15Z" fill="#DD3131"/>
<rect x="9" y="8" width="2" height="7" transform="rotate(-180 9 8)" fill="#EAA9A9"/>
</g>
<defs>
<clipPath id="clip0_251_478">
<rect width="16" height="16" fill="white"/>
</clipPath>
</defs>
</svg>
