<svg width="16" height="16" viewBox="0 0 16 16" fill="none" xmlns="http://www.w3.org/2000/svg">
    <ellipse cx="8" cy="4" rx="5" ry="2" fill="white"/>
    <path fill-rule="evenodd" clip-rule="evenodd"
          d="M13 5H3V13C3 14.1046 5.23858 15 8 15C10.7614 15 13 14.1046 13 13V5Z" fill="#404040"/>
    <path fill-rule="evenodd" clip-rule="evenodd"
          d="M13 7H3V10C3 11.1046 5.23858 12 8 12C10.7614 12 13 11.1046 13 10V7Z" fill="#808080"/>
    <path fill-rule="evenodd" clip-rule="evenodd" d="M13 4H3V7C3 8.10457 5.23858 9 8 9C10.7614 9 13 8.10457 13 7V4Z"
          fill="#BFBFBF"/>
    <ellipse cx="8" cy="4" rx="5" ry="2" fill="#E3E3E3"/>
    <path d="M9.5955 1H3.73634L5.56733 2.83099C5.56733 2.83099 0.303979 6.38049 1.07764 9.78873C1.63771 12.256 5.56888 14 5.56888 14C5.56888 14 3.39381 11.5341 3.64102 9.42253C3.9423 6.84912 7.76451 5.02817 7.76451 5.02817L9.5955 6.85915V1Z"
          fill="#7DCD17"/>
    <path d="M3.73634 1V0.816901H3.2943L3.60687 1.12947L3.73634 1ZM9.5955 1H9.7786V0.816901H9.5955V1ZM9.5955 6.85915L9.46603 6.98862L9.7786 7.30119V6.85915H9.5955ZM7.76451 5.02817L7.89399 4.8987L7.80253 4.80724L7.68576 4.86287L7.76451 5.02817ZM3.64102 9.42253L3.82287 9.44383L3.64102 9.42253ZM5.56888 14L5.49463 14.1674C5.5733 14.2023 5.66564 14.1777 5.71653 14.1083C5.76742 14.0389 5.76312 13.9434 5.7062 13.8789L5.56888 14ZM1.07764 9.78873L0.899081 9.82926L0.899081 9.82926L1.07764 9.78873ZM5.56733 2.83099L5.6697 2.98279L5.85387 2.85859L5.6968 2.70152L5.56733 2.83099ZM3.73634 1.1831H9.5955V0.816901H3.73634V1.1831ZM9.4124 1V6.85915H9.7786V1H9.4124ZM9.72497 6.72968L7.89399 4.8987L7.63504 5.15764L9.46603 6.98862L9.72497 6.72968ZM7.76451 5.02817C7.68576 4.86287 7.68571 4.8629 7.68564 4.86293C7.68559 4.86295 7.68551 4.86299 7.68542 4.86303C7.68525 4.86312 7.68502 4.86323 7.68473 4.86336C7.68416 4.86364 7.68335 4.86403 7.68232 4.86452C7.68025 4.86552 7.67727 4.86696 7.67342 4.86883C7.66571 4.87258 7.65448 4.87809 7.63995 4.88532C7.6109 4.89977 7.56866 4.92112 7.51502 4.9491C7.40776 5.00504 7.25481 5.08756 7.0706 5.19458C6.70253 5.40844 6.20791 5.7211 5.70294 6.1161C4.70333 6.89802 3.61892 8.03667 3.45916 9.40124L3.82287 9.44383C3.9644 8.23499 4.94174 7.17645 5.92856 6.40454C6.4168 6.02263 6.89657 5.71922 7.25457 5.51122C7.4334 5.40732 7.58142 5.32748 7.68436 5.27378C7.73583 5.24694 7.77599 5.22665 7.80308 5.21318C7.81662 5.20644 7.82689 5.2014 7.83366 5.19811C7.83705 5.19646 7.83956 5.19525 7.84117 5.19447C7.84198 5.19408 7.84256 5.19381 7.84291 5.19364C7.84308 5.19356 7.8432 5.1935 7.84326 5.19347C7.84329 5.19346 7.84329 5.19345 7.84331 5.19345C7.84329 5.19345 7.84327 5.19347 7.76451 5.02817ZM3.45916 9.40124C3.32831 10.5189 3.83684 11.7074 4.35403 12.5953C4.61508 13.0434 4.88367 13.4238 5.08692 13.6922C5.18864 13.8266 5.27422 13.9331 5.33463 14.0064C5.36484 14.043 5.38878 14.0714 5.4053 14.0907C5.41357 14.1004 5.41998 14.1078 5.42441 14.1129C5.42662 14.1155 5.42833 14.1174 5.42953 14.1188C5.43013 14.1195 5.4306 14.12 5.43094 14.1204C5.43111 14.1206 5.43125 14.1208 5.43135 14.1209C5.43141 14.1209 5.43146 14.121 5.43149 14.121C5.43153 14.1211 5.43157 14.1211 5.56888 14C5.7062 13.8789 5.70622 13.8789 5.70623 13.8789C5.70622 13.8789 5.70623 13.8789 5.70621 13.8789C5.70618 13.8789 5.70612 13.8788 5.70603 13.8787C5.70584 13.8785 5.70553 13.8781 5.70508 13.8776C5.70419 13.8766 5.70279 13.875 5.70089 13.8728C5.6971 13.8684 5.69133 13.8618 5.68373 13.8529C5.66851 13.8351 5.64596 13.8083 5.61718 13.7734C5.55961 13.7036 5.47719 13.601 5.37886 13.4712C5.18201 13.2112 4.92227 12.8432 4.67046 12.4109C4.16192 11.5379 3.70651 10.4377 3.82287 9.44383L3.45916 9.40124ZM5.56888 14C5.64313 13.8326 5.64315 13.8326 5.64316 13.8326C5.64315 13.8326 5.64314 13.8326 5.64311 13.8326C5.64304 13.8326 5.64291 13.8325 5.64272 13.8324C5.64235 13.8323 5.64174 13.832 5.6409 13.8316C5.63922 13.8309 5.63661 13.8297 5.6331 13.8281C5.62608 13.8249 5.61545 13.8201 5.60144 13.8136C5.57341 13.8007 5.53187 13.7812 5.47858 13.7554C5.37198 13.7039 5.21849 13.6272 5.03232 13.5275C4.65967 13.328 4.1576 13.0368 3.63899 12.6701C2.59064 11.9288 1.51999 10.9103 1.25619 9.7482L0.899081 9.82926C1.19536 11.1345 2.37033 12.2216 3.42758 12.9691C3.96177 13.3468 4.4775 13.6458 4.85945 13.8504C5.05058 13.9527 5.20859 14.0316 5.31917 14.0851C5.37446 14.1118 5.41792 14.1322 5.44776 14.146C5.46268 14.1529 5.47419 14.1582 5.48208 14.1617C5.48602 14.1635 5.48906 14.1649 5.49116 14.1658C5.49221 14.1663 5.49303 14.1667 5.49361 14.1669C5.4939 14.167 5.49413 14.1671 5.4943 14.1672C5.49439 14.1673 5.49447 14.1673 5.49451 14.1673C5.49458 14.1673 5.49463 14.1674 5.56888 14ZM1.25619 9.7482C1.0747 8.94867 1.24471 8.13071 1.61824 7.34211C1.99196 6.55312 2.56406 5.80542 3.16656 5.15633C3.76824 4.50812 4.3948 3.96403 4.87157 3.58169C5.10975 3.39068 5.31004 3.24044 5.45047 3.13817C5.52068 3.08704 5.57588 3.04792 5.61335 3.02172C5.63208 3.00862 5.64637 2.99875 5.65588 2.99223C5.66063 2.98896 5.66419 2.98654 5.66651 2.98496C5.66767 2.98417 5.66852 2.98359 5.66905 2.98323C5.66932 2.98305 5.66951 2.98292 5.66962 2.98285C5.66967 2.98281 5.66969 2.9828 5.66972 2.98278C5.66972 2.98278 5.6697 2.98279 5.56733 2.83099C5.46496 2.67918 5.4649 2.67922 5.46482 2.67927C5.46477 2.67931 5.46467 2.67938 5.46456 2.67945C5.46435 2.67959 5.46406 2.67979 5.46369 2.68004C5.46295 2.68054 5.46189 2.68125 5.46053 2.68218C5.45779 2.68405 5.45381 2.68676 5.44863 2.69032C5.43827 2.69743 5.4231 2.70791 5.40347 2.72164C5.36421 2.74909 5.3071 2.78957 5.23489 2.84215C5.0905 2.94731 4.88564 3.101 4.64247 3.29601C4.15653 3.6857 3.51561 4.24201 2.89816 4.9072C2.28153 5.57152 1.68285 6.35025 1.28729 7.18535C0.891537 8.02086 0.693743 8.92467 0.899081 9.82926L1.25619 9.7482ZM5.6968 2.70152L3.86581 0.87053L3.60687 1.12947L5.43786 2.96046L5.6968 2.70152Z"
          fill="#579B00"/>
</svg>
