<svg width="32" height="32" viewBox="0 0 32 32" fill="none" xmlns="http://www.w3.org/2000/svg">
<g clip-path="url(#clip0_251_384)">
<ellipse cx="7" cy="16.5998" rx="7" ry="2.8" fill="url(#paint0_linear_251_384)"/>
<path fill-rule="evenodd" clip-rule="evenodd" d="M14 18H0V29.2C0 29.2001 0 29.2003 0 29.2004C0 30.7468 3.13401 32.0004 7 32.0004C10.866 32.0004 14 30.7468 14 29.2004C14 29.2003 14 29.2001 14 29.2V18Z" fill="#2F1948"/>
<path fill-rule="evenodd" clip-rule="evenodd" d="M14 20.7998H0V24.9998C0 24.9999 0 25.0001 0 25.0002C0 26.5466 3.13401 27.8002 7 27.8002C10.866 27.8002 14 26.5466 14 25.0002C14 25.0001 14 24.9999 14 24.9998V20.7998Z" fill="#472766"/>
<path fill-rule="evenodd" clip-rule="evenodd" d="M14 16.6001H0V20.8C0 20.8 0 20.8001 0 20.8001C0.000131425 22.3464 3.13409 23.6 7 23.6C10.8659 23.6 13.9999 22.3464 14 20.8001C14 20.8001 14 20.8 14 20.8V16.6001Z" fill="#8C5AAF"/>
<ellipse cx="7" cy="16.5998" rx="7" ry="2.8" fill="#D29EFF"/>
<path d="M5.81332 11.003L3 11.003L7.21998 17.0048L11.44 11.003L8.62665 11.003C8.62665 7.68838 14.0269 4.9584 17.1344 4.9584L17.1344 1.95752C12.4731 1.95752 5.81332 6.03099 5.81332 11.003Z" fill="#7DCD17"/>
<ellipse cx="25" cy="2.8" rx="7" ry="2.8" fill="url(#paint1_linear_251_384)"/>
<path fill-rule="evenodd" clip-rule="evenodd" d="M32 4.2002H18V15.4002C18 15.4003 18 15.4005 18 15.4006C18 16.947 21.134 18.2006 25 18.2006C28.866 18.2006 32 16.947 32 15.4006C32 15.4005 32 15.4003 32 15.4002V4.2002Z" fill="#2F1948"/>
<path fill-rule="evenodd" clip-rule="evenodd" d="M32 7H18V11.2C18 11.2001 18 11.2003 18 11.2004C18 12.7468 21.134 14.0004 25 14.0004C28.866 14.0004 32 12.7468 32 11.2004C32 11.2003 32 11.2001 32 11.2V7Z" fill="#472766"/>
<path fill-rule="evenodd" clip-rule="evenodd" d="M32 2.80029H18V7.0002C18 7.00023 18 7.00026 18 7.00029C18.0001 8.54665 21.1341 9.8002 25 9.8002C28.8659 9.8002 31.9999 8.54665 32 7.00029C32 7.00026 32 7.00023 32 7.0002V2.80029Z" fill="#8C5AAF"/>
<ellipse cx="25" cy="2.8" rx="7" ry="2.8" fill="#D29EFF"/>
<path d="M26.1867 20.9545L29 20.9545L24.78 14.9528L20.56 20.9545L23.3734 20.9545C23.3734 24.2691 17.9731 26.9991 14.8656 26.9991L14.8656 30C19.5269 30 26.1867 25.9265 26.1867 20.9545Z" fill="#7DCD17"/>
</g>
<defs>
<linearGradient id="paint0_linear_251_384" x1="6.3" y1="13.0998" x2="10.5" y2="19.3998" gradientUnits="userSpaceOnUse">
<stop stop-color="#E3E3E3"/>
<stop offset="1" stop-color="#ACACAC"/>
</linearGradient>
<linearGradient id="paint1_linear_251_384" x1="24.3" y1="-0.7" x2="28.5" y2="5.6" gradientUnits="userSpaceOnUse">
<stop stop-color="#E3E3E3"/>
<stop offset="1" stop-color="#ACACAC"/>
</linearGradient>
<clipPath id="clip0_251_384">
<rect width="32" height="32" fill="white"/>
</clipPath>
</defs>
</svg>
