<svg width="16" height="16" viewBox="0 0 16 16" fill="none" xmlns="http://www.w3.org/2000/svg">
<g clip-path="url(#clip0_263_374)">
<path d="M10.3086 3.42871H13.7701V16.0001H10.3086V3.42871Z" fill="#7DCD17"/>
<path d="M12 0L15.4641 4.45714H8.5359L12 0Z" fill="#7DCD17"/>
<circle cx="4" cy="12.5" r="3.5" fill="#E74848"/>
<path fill-rule="evenodd" clip-rule="evenodd" d="M4 0C4.24029 0 4.4549 0.150323 4.53702 0.376143L5.2314 2.28569H7.42854C7.67794 2.28569 7.89854 2.44745 7.97352 2.68532C8.0485 2.92319 7.96055 3.18221 7.75623 3.32524L6.045 4.5231L6.82271 6.66179C6.90792 6.89613 6.83135 7.15866 6.63352 7.31044C6.43568 7.46222 6.16228 7.46819 5.958 7.3252L4 5.9546L2.042 7.3252C1.83772 7.46819 1.56432 7.46222 1.36648 7.31044C1.16865 7.15866 1.09208 6.89613 1.17729 6.66179L1.955 4.5231L0.243775 3.32524C0.0394509 3.18221 -0.0485055 2.92319 0.0264766 2.68532C0.101459 2.44745 0.322055 2.28569 0.571464 2.28569H2.7686L3.46298 0.376143C3.5451 0.150323 3.75971 0 4 0Z" fill="#F4C12C"/>
</g>
<defs>
<clipPath id="clip0_263_374">
<rect width="16" height="16" fill="white"/>
</clipPath>
</defs>
</svg>
