<svg width="16" height="16" viewBox="0 0 16 16" fill="none" xmlns="http://www.w3.org/2000/svg">
<g clip-path="url(#clip0_251_258)">
<ellipse cx="3.5" cy="8.2999" rx="3.5" ry="1.4" fill="url(#paint0_linear_251_258)"/>
<path fill-rule="evenodd" clip-rule="evenodd" d="M7 9H0V14.6C0 14.6 0 14.6001 0 14.6001C0 15.3733 1.567 16.0001 3.5 16.0001C5.433 16.0001 7 15.3733 7 14.6001C7 14.6001 7 14.6 7 14.6V9Z" fill="#2F1948"/>
<path fill-rule="evenodd" clip-rule="evenodd" d="M7 10.3999H0V12.4999C0 12.5 0 12.5 0 12.5001C0 13.2733 1.567 13.9001 3.5 13.9001C5.433 13.9001 7 13.2733 7 12.5001C7 12.5 7 12.5 7 12.4999V10.3999Z" fill="#472766"/>
<path fill-rule="evenodd" clip-rule="evenodd" d="M7 8.30005H0V10.4C0 10.4 0 10.4 0 10.4C8.05316e-06 11.1732 1.56701 11.8 3.5 11.8C5.43299 11.8 6.99999 11.1732 7 10.4C7 10.4 7 10.4 7 10.4V8.30005Z" fill="#8C5AAF"/>
<ellipse cx="3.5" cy="8.2999" rx="3.5" ry="1.4" fill="#D29EFF"/>
<path d="M2.90666 5.5015L1.5 5.5015L3.60999 8.50238L5.71999 5.5015L4.31332 5.5015C4.31332 3.84419 7.01346 2.4792 8.56719 2.4792L8.56719 0.97876C6.23656 0.97876 2.90666 3.0155 2.90666 5.5015Z" fill="#7DCD17"/>
<ellipse cx="12.5" cy="1.4" rx="3.5" ry="1.4" fill="url(#paint1_linear_251_258)"/>
<path fill-rule="evenodd" clip-rule="evenodd" d="M16 2.1001H9V7.7001C9 7.70014 9 7.70018 9 7.70023C9 8.47342 10.567 9.10023 12.5 9.10023C14.433 9.10023 16 8.47342 16 7.70023C16 7.70018 16 7.70014 16 7.7001V2.1001Z" fill="#2F1948"/>
<path fill-rule="evenodd" clip-rule="evenodd" d="M16 3.5H9V5.6C9 5.60006 9 5.60012 9 5.60018C9 6.37338 10.567 7.00018 12.5 7.00018C14.433 7.00018 16 6.37338 16 5.60018C16 5.60012 16 5.60006 16 5.6V3.5Z" fill="#472766"/>
<path fill-rule="evenodd" clip-rule="evenodd" d="M16 1.40015H9V3.50014C9 3.50014 9 3.50014 9 3.50015C9.00001 4.27334 10.567 4.90014 12.5 4.90014C14.433 4.90014 16 4.27334 16 3.50015C16 3.50014 16 3.50014 16 3.50014V1.40015Z" fill="#8C5AAF"/>
<ellipse cx="12.5" cy="1.4" rx="3.5" ry="1.4" fill="#D29EFF"/>
<path d="M13.0933 10.4773L14.5 10.4773L12.39 7.47638L10.28 10.4773L11.6867 10.4773C11.6867 12.1346 8.98654 13.4996 7.43281 13.4996L7.43281 15C9.76344 15 13.0933 12.9633 13.0933 10.4773Z" fill="#7DCD17"/>
</g>
<defs>
<linearGradient id="paint0_linear_251_258" x1="3.15" y1="6.5499" x2="5.25" y2="9.6999" gradientUnits="userSpaceOnUse">
<stop stop-color="#E3E3E3"/>
<stop offset="1" stop-color="#ACACAC"/>
</linearGradient>
<linearGradient id="paint1_linear_251_258" x1="12.15" y1="-0.35" x2="14.25" y2="2.8" gradientUnits="userSpaceOnUse">
<stop stop-color="#E3E3E3"/>
<stop offset="1" stop-color="#ACACAC"/>
</linearGradient>
<clipPath id="clip0_251_258">
<rect width="16" height="16" fill="white"/>
</clipPath>
</defs>
</svg>
