<svg width="16" height="16" viewBox="0 0 16 16" fill="none" xmlns="http://www.w3.org/2000/svg">
<g clip-path="url(#clip0_279_223)">
<mask id="path-1-inside-1_279_223" fill="white">
<path fill-rule="evenodd" clip-rule="evenodd" d="M11.0955 10.2193C11.6896 10.0919 11.8879 9.344 11.4349 8.93905L1.72973 0.263537C1.25133 -0.164109 0.492303 0.175101 0.491786 0.816777L0.481275 13.8456C0.480787 14.4511 1.16595 14.8028 1.65764 14.4495L3.75939 12.9392C4.14142 12.6646 4.67917 12.8098 4.87111 13.2393L5.66496 15.0156C6.04346 15.8626 7.03688 16.2423 7.88382 15.8638C8.73076 15.4853 9.11051 14.4919 8.73201 13.645L7.91563 11.8182C7.72291 11.387 7.97632 10.8878 8.43817 10.7888L11.0955 10.2193Z"/>
</mask>
<path fill-rule="evenodd" clip-rule="evenodd" d="M11.0955 10.2193C11.6896 10.0919 11.8879 9.344 11.4349 8.93905L1.72973 0.263537C1.25133 -0.164109 0.492303 0.175101 0.491786 0.816777L0.481275 13.8456C0.480787 14.4511 1.16595 14.8028 1.65764 14.4495L3.75939 12.9392C4.14142 12.6646 4.67917 12.8098 4.87111 13.2393L5.66496 15.0156C6.04346 15.8626 7.03688 16.2423 7.88382 15.8638C8.73076 15.4853 9.11051 14.4919 8.73201 13.645L7.91563 11.8182C7.72291 11.387 7.97632 10.8878 8.43817 10.7888L11.0955 10.2193Z" fill="white"/>
<path d="M5.66496 15.0156L4.64763 15.4703L4.64763 15.4703L5.66496 15.0156ZM7.88382 15.8638L7.42917 14.8465L7.42917 14.8465L7.88382 15.8638ZM8.73201 13.645L7.71468 14.0996L7.71468 14.0996L8.73201 13.645ZM3.75939 12.9392L3.10914 12.0343L3.75939 12.9392ZM4.87111 13.2393L3.85379 13.694L4.87111 13.2393ZM7.91563 11.8182L6.89831 12.2729L7.91563 11.8182ZM8.43817 10.7888L8.67169 11.8783L8.43817 10.7888ZM1.65764 14.4495L2.30789 15.3544L1.65764 14.4495ZM11.4349 8.93905L10.6923 9.76981L11.4349 8.93905ZM0.987106 1.0943L10.6923 9.76981L12.1775 8.10829L2.47235 -0.567222L0.987106 1.0943ZM1.59557 13.8465L1.60608 0.817676L-0.622506 0.815878L-0.633017 13.8447L1.59557 13.8465ZM3.10914 12.0343L1.00739 13.5446L2.30789 15.3544L4.40964 13.844L3.10914 12.0343ZM6.68228 14.561L5.88843 12.7847L3.85379 13.694L4.64763 15.4703L6.68228 14.561ZM7.42917 14.8465C7.14408 14.9739 6.80969 14.8461 6.68228 14.561L4.64763 15.4703C5.27723 16.8791 6.92967 17.5107 8.33846 16.8812L7.42917 14.8465ZM7.71468 14.0996C7.84209 14.3847 7.71426 14.7191 7.42917 14.8465L8.33846 16.8812C9.74726 16.2516 10.3789 14.5991 9.74933 13.1903L7.71468 14.0996ZM6.89831 12.2729L7.71468 14.0996L9.74933 13.1903L8.93296 11.3636L6.89831 12.2729ZM10.862 9.12971L8.20466 9.69922L8.67169 11.8783L11.329 11.3088L10.862 9.12971ZM4.40964 13.844C4.21863 13.9813 3.94976 13.9087 3.85379 13.694L5.88843 12.7847C5.40858 11.711 4.0642 11.348 3.10914 12.0343L4.40964 13.844ZM8.93296 11.3636C9.02932 11.5792 8.90261 11.8288 8.67169 11.8783L8.20466 9.69922C7.05001 9.94668 6.4165 11.1948 6.89831 12.2729L8.93296 11.3636ZM-0.633017 13.8447C-0.634238 15.3584 1.07868 16.2377 2.30789 15.3544L1.00739 13.5446C1.25323 13.3679 1.59581 13.5438 1.59557 13.8465L-0.633017 13.8447ZM10.6923 9.76981C10.4658 9.56734 10.5649 9.19337 10.862 9.12971L11.329 11.3088C12.8143 10.9905 13.31 9.12066 12.1775 8.10829L10.6923 9.76981ZM2.47235 -0.567222C1.27634 -1.63634 -0.621212 -0.788309 -0.622506 0.815878L1.60608 0.817676C1.60582 1.13851 1.22631 1.30812 0.987106 1.0943L2.47235 -0.567222Z" fill="#474747" mask="url(#path-1-inside-1_279_223)"/>
<path d="M12.25 9.49006V9.40909C12.2557 8.88068 12.3082 8.46023 12.4077 8.14773C12.5099 7.83523 12.6548 7.58239 12.8423 7.3892C13.0298 7.19602 13.2557 7.01989 13.5199 6.8608C13.6903 6.75284 13.8438 6.6321 13.9801 6.49858C14.1165 6.36506 14.2244 6.21165 14.304 6.03835C14.3835 5.86506 14.4233 5.6733 14.4233 5.46307C14.4233 5.21023 14.3636 4.99148 14.2443 4.80682C14.125 4.62216 13.9659 4.48011 13.767 4.38068C13.571 4.27841 13.3523 4.22727 13.1108 4.22727C12.892 4.22727 12.6832 4.27273 12.4844 4.36364C12.2855 4.45455 12.1207 4.59659 11.9901 4.78977C11.8594 4.98011 11.7841 5.22585 11.7642 5.52699H10.4688C10.4886 5.01562 10.6179 4.58381 10.8565 4.23153C11.0952 3.87642 11.4105 3.60795 11.8026 3.42614C12.1974 3.24432 12.6335 3.15341 13.1108 3.15341C13.6335 3.15341 14.0909 3.25142 14.483 3.44744C14.875 3.64062 15.179 3.91193 15.3949 4.26136C15.6136 4.60795 15.723 5.01278 15.723 5.47585C15.723 5.79403 15.6733 6.08097 15.5739 6.33665C15.4744 6.58949 15.3324 6.81534 15.1477 7.0142C14.9659 7.21307 14.7472 7.3892 14.4915 7.54261C14.25 7.69318 14.054 7.84943 13.9034 8.01136C13.7557 8.1733 13.6477 8.36506 13.5795 8.58665C13.5114 8.80824 13.4744 9.08239 13.4688 9.40909V9.49006H12.25ZM12.8935 12.081C12.6605 12.081 12.4602 11.9986 12.2926 11.8338C12.125 11.6662 12.0412 11.4645 12.0412 11.2287C12.0412 10.9957 12.125 10.7969 12.2926 10.6321C12.4602 10.4645 12.6605 10.3807 12.8935 10.3807C13.1236 10.3807 13.3224 10.4645 13.4901 10.6321C13.6605 10.7969 13.7457 10.9957 13.7457 11.2287C13.7457 11.3849 13.706 11.5284 13.6264 11.6591C13.5497 11.7869 13.4474 11.8892 13.3196 11.9659C13.1918 12.0426 13.0497 12.081 12.8935 12.081Z" fill="#474747"/>
</g>
<defs>
<clipPath id="clip0_279_223">
<rect width="16" height="16" fill="white"/>
</clipPath>
</defs>
</svg>
