<svg width="24" height="24" viewBox="0 0 24 24" fill="none" xmlns="http://www.w3.org/2000/svg">
<path fill-rule="evenodd" clip-rule="evenodd" d="M6.29883 4.5C6.29883 3.67157 6.9704 3 7.79883 3H16.7988V3.12561H19.626L21.126 4.62561L19.5 6.75L16.7988 6.46287V19.5C16.7988 20.3284 16.1273 21 15.2988 21H6.29883V20.5805L5.25 21L3 19.5V18L6.29883 17.3402V4.5Z" fill="#E6E6E6"/>
<path d="M16.9968 7H18.9968C20 7 20.9968 6 20.9968 5C20.9968 4 19.996 3 18.9968 3M18.9968 3C17.9976 3 16.9968 4 16.9976 5C17.0028 11.2484 16.9841 15 16.9968 19C17 20 15.9936 21 14.9968 21M18.9968 3C14.9962 3 11.9974 3 7.99681 3C6.99764 3 5.99892 4 5.99764 5C5.99378 8 5.99764 17 5.99764 17M14.9968 21C14 21 12.9976 20.1043 12.9976 19C12.9976 17.2635 14.9976 17 14.9976 17C14 17 5.99764 17 5.99764 17M14.9968 21C11.0916 21 8.99681 21 4.99681 21C3.99927 21 2.99927 20 3 19C3.00073 18 4.0043 17 5 17C5.99764 17 5.99764 17 5.99764 17" stroke="#565656" stroke-width="1.5" stroke-linejoin="round"/>
<path d="M3.83088 12.2745C3.59366 12.1769 3.59367 11.841 3.83089 11.7434L7.37426 10.2862C7.62398 10.1835 7.75106 9.90452 7.66468 9.6487L7.57163 9.37314C7.47631 9.09084 7.16103 8.9492 6.88667 9.06542L1.69987 11.2626C1.51051 11.3428 1.3875 11.5285 1.3875 11.7342V12.2838C1.3875 12.4895 1.51051 12.6752 1.69987 12.7554L6.88667 14.9526C7.16103 15.0688 7.47631 14.9272 7.57163 14.6449L7.66468 14.3693C7.75106 14.1135 7.62398 13.8345 7.37427 13.7318L3.83088 12.2745Z" fill="#4670A7" stroke="#437ED8" stroke-width="0.225"/>
<path d="M9.50545 9.64772C9.41907 9.90355 9.54615 10.1825 9.79588 10.2852L13.3392 11.7424C13.5765 11.84 13.5765 12.176 13.3392 12.2735L9.79587 13.7308C9.54615 13.8335 9.41907 14.1125 9.50545 14.3683L9.5985 14.6439C9.69383 14.9262 10.0091 15.0678 10.2835 14.9516L15.4703 12.7544C15.6596 12.6742 15.7826 12.4885 15.7826 12.2829V11.7332C15.7826 11.5275 15.6596 11.3418 15.4703 11.2616L10.2835 9.06445C10.0091 8.94822 9.69383 9.08986 9.5985 9.37217L9.50545 9.64772Z" fill="#4670A7" stroke="#437ED8" stroke-width="0.225"/>
</svg>
