<svg width="16" height="16" viewBox="0 0 16 16" fill="none" xmlns="http://www.w3.org/2000/svg">
<path d="M3.5 6.41046L14.5 12.0105M14.5 5.34379L3.5 10.9438M4.5 2.67712C5.60457 2.67712 6.5 3.57256 6.5 4.67712C6.5 5.78169 5.60457 6.67712 4.5 6.67712C3.39543 6.67712 2.5 5.78169 2.5 4.67712C2.5 3.57256 3.39543 2.67712 4.5 2.67712ZM4.5 10.6771C5.60457 10.6771 6.5 11.5725 6.5 12.6771C6.5 13.7817 5.60457 14.6771 4.5 14.6771C3.39543 14.6771 2.5 13.7817 2.5 12.6771C2.5 11.5725 3.39543 10.6771 4.5 10.6771Z" stroke="#2B2B2B" stroke-width="1.33333" stroke-linecap="round" stroke-linejoin="round"/>
</svg>
