<svg width="16" height="16" viewBox="0 0 16 16" fill="none" xmlns="http://www.w3.org/2000/svg">
<ellipse cx="8" cy="4" rx="5" ry="2" fill="white"/>
<path fill-rule="evenodd" clip-rule="evenodd" d="M13 5H3V13C3 14.1046 5.23858 15 8 15C10.7614 15 13 14.1046 13 13V5Z" fill="#404040"/>
<path fill-rule="evenodd" clip-rule="evenodd" d="M13 7H3V10C3 11.1046 5.23858 12 8 12C10.7614 12 13 11.1046 13 10V7Z" fill="#808080"/>
<path fill-rule="evenodd" clip-rule="evenodd" d="M13 4H3V7C3 8.10457 5.23858 9 8 9C10.7614 9 13 8.10457 13 7V4Z" fill="#BFBFBF"/>
<ellipse cx="8" cy="4" rx="5" ry="2" fill="#E3E3E3"/>
<path d="M10.0484 7.4V7.85419C9.83874 7.91753 9.63792 8.00126 9.44824 8.10308L9.12607 7.78091C8.85828 7.51312 8.42412 7.51312 8.15633 7.78091L7.7792 8.15803C7.51142 8.42582 7.51142 8.85999 7.77921 9.12778L8.10189 9.45046C8.00076 9.63921 7.91753 9.83899 7.85446 10.0475H7.4C7.02129 10.0475 6.71429 10.3545 6.71429 10.7332L6.71429 11.2666C6.71429 11.6453 7.02129 11.9523 7.4 11.9523H7.8544C7.91759 12.1613 8.00103 12.3615 8.10245 12.5506L7.78091 12.8721C7.51312 13.1399 7.51312 13.5741 7.78091 13.8419L8.15803 14.219C8.42582 14.4868 8.85999 14.4868 9.12778 14.219L9.44928 13.8975C9.63865 13.999 9.83913 14.0826 10.0484 14.1458V14.5999C10.0484 14.9786 10.3554 15.2856 10.7341 15.2856H11.2675C11.6462 15.2856 11.9532 14.9786 11.9532 14.5999V14.1453C12.162 14.0821 12.3621 13.9987 12.5511 13.8973L12.8728 14.219C13.1406 14.4868 13.5748 14.4868 13.8425 14.219L14.2197 13.8418C14.4875 13.5741 14.4875 13.1399 14.2197 12.8721L13.8978 12.5502C13.9991 12.3612 14.0825 12.1611 14.1456 11.9523H14.6C14.9787 11.9523 15.2857 11.6453 15.2857 11.2666V10.7332C15.2857 10.3545 14.9787 10.0475 14.6 10.0475H14.1455C14.0823 9.83855 13.9989 9.63838 13.8975 9.44928L14.219 9.1278C14.4868 8.86001 14.4868 8.42584 14.219 8.15806L13.8418 7.78093C13.5741 7.51315 13.1399 7.51315 12.8721 7.78093L12.5506 8.10245C12.3617 8.00118 12.1618 7.91783 11.9532 7.85468V7.4C11.9532 7.02129 11.6462 6.71429 11.2675 6.71429H10.7341C10.3554 6.71429 10.0484 7.02129 10.0484 7.4ZM12.0468 11.0001C12.0468 11.5787 11.5778 12.0477 10.9992 12.0477C10.4206 12.0477 9.95158 11.5787 9.95158 11.0001C9.95158 10.4215 10.4206 9.95248 10.9992 9.95248C11.5778 9.95248 12.0468 10.4215 12.0468 11.0001Z" fill="white" stroke="#474747" stroke-width="0.571425"/>
</svg>
