<svg width="24" height="24" viewBox="0 0 24 24" fill="none" xmlns="http://www.w3.org/2000/svg">
<ellipse cx="12" cy="6" rx="7.5" ry="3" fill="white"/>
<path fill-rule="evenodd" clip-rule="evenodd" d="M19.5 7.5H4.5V19.5C4.5 21.1569 7.85786 22.5 12 22.5C16.1421 22.5 19.5 21.1569 19.5 19.5V7.5Z" fill="#404040"/>
<path fill-rule="evenodd" clip-rule="evenodd" d="M19.5 10.5H4.5V15C4.5 16.6569 7.85786 18 12 18C16.1421 18 19.5 16.6569 19.5 15V10.5Z" fill="#808080"/>
<path fill-rule="evenodd" clip-rule="evenodd" d="M19.5 6H4.5V10.5C4.5 12.1569 7.85786 13.5 12 13.5C16.1421 13.5 19.5 12.1569 19.5 10.5V6Z" fill="#BFBFBF"/>
<ellipse cx="12" cy="6" rx="7.5" ry="3" fill="#E3E3E3"/>
<path fill-rule="evenodd" clip-rule="evenodd" d="M19.4329 12.0623C20.0271 11.9358 20.5089 11.4532 20.6042 10.817C20.7269 9.9977 20.1623 9.23403 19.343 9.11128C18.5237 8.98853 17.76 9.55319 17.6373 10.3725C17.5682 10.8337 17.7169 11.2773 18.0063 11.5988L16.6597 15.7473L13.0937 16.589C12.871 16.3523 12.5702 16.1858 12.2239 16.134C11.4046 16.0112 10.6409 16.5759 10.5182 17.3951C10.3954 18.2144 10.9601 18.9781 11.7793 19.1008C12.5268 19.2128 13.228 18.7526 13.4384 18.0489L16.9337 17.2239L19.2303 20.3299C19.1791 20.4475 19.1424 20.5737 19.1225 20.7066C18.9997 21.5259 19.5644 22.2896 20.3837 22.4123C21.2029 22.535 21.9666 21.9704 22.0894 21.1511C22.2121 20.3318 21.6475 19.5682 20.8282 19.4454C20.6953 19.4255 20.5639 19.4237 20.4364 19.4381L18.0753 16.2448L19.4329 12.0623Z" fill="#5CEB7B"/>
</svg>
