<svg width="24" height="24" viewBox="0 0 24 24" fill="none" xmlns="http://www.w3.org/2000/svg">
<ellipse cx="12" cy="6" rx="7.5" ry="3" fill="white"/>
<path fill-rule="evenodd" clip-rule="evenodd" d="M19.5 7.5H4.5V19.5C4.5 21.1569 7.85786 22.5 12 22.5C16.1421 22.5 19.5 21.1569 19.5 19.5V7.5Z" fill="#404040"/>
<path fill-rule="evenodd" clip-rule="evenodd" d="M19.5 10.5H4.5V15C4.5 16.6569 7.85786 18 12 18C16.1421 18 19.5 16.6569 19.5 15V10.5Z" fill="#808080"/>
<path fill-rule="evenodd" clip-rule="evenodd" d="M19.5 6H4.5V10.5C4.5 12.1569 7.85786 13.5 12 13.5C16.1421 13.5 19.5 12.1569 19.5 10.5V6Z" fill="#BFBFBF"/>
<ellipse cx="12" cy="6" rx="7.5" ry="3" fill="#E3E3E3"/>
<path d="M14.3347 9.7V10.4948C13.9678 10.6057 13.6164 10.7522 13.2844 10.9304L12.7206 10.3666C12.252 9.89796 11.4922 9.89796 11.0236 10.3666L10.3636 11.0266C9.89498 11.4952 9.89498 12.255 10.3636 12.7236L10.9283 13.2883C10.7513 13.6186 10.6057 13.9682 10.4953 14.3332H9.7C9.03726 14.3332 8.5 14.8704 8.5 15.5332L8.5 16.4665C8.5 17.1292 9.03726 17.6665 9.7 17.6665H10.4952C10.6058 18.0322 10.7518 18.3826 10.9293 18.7135L10.3666 19.2762C9.89796 19.7448 9.89796 20.5046 10.3666 20.9733L11.0266 21.6332C11.4952 22.1019 12.255 22.1019 12.7236 21.6332L13.2862 21.0706C13.6176 21.2483 13.9685 21.3945 14.3347 21.5052V22.2998C14.3347 22.9626 14.872 23.4998 15.5347 23.4998H16.4681C17.1308 23.4998 17.6681 22.9626 17.6681 22.2998V21.5043C18.0336 21.3937 18.3837 21.2477 18.7144 21.0702L19.2774 21.6332C19.746 22.1018 20.5058 22.1018 20.9745 21.6332L21.6344 20.9732C22.103 20.5046 22.103 19.7448 21.6344 19.2762L21.0711 18.7128C21.2484 18.3821 21.3943 18.032 21.5048 17.6665H22.3C22.9627 17.6665 23.5 17.1292 23.5 16.4665V15.5332C23.5 14.8704 22.9627 14.3332 22.3 14.3332H21.5047C21.3941 13.9675 21.2481 13.6172 21.0706 13.2862L21.6332 12.7237C22.1018 12.255 22.1018 11.4952 21.6332 11.0266L20.9732 10.3666C20.5046 9.898 19.7448 9.898 19.2762 10.3666L18.7135 10.9293C18.383 10.7521 18.0332 10.6062 17.6681 10.4957V9.7C17.6681 9.03726 17.1308 8.5 16.4681 8.5H15.5347C14.872 8.5 14.3347 9.03726 14.3347 9.7ZM17.8319 16.0002C17.8319 17.0127 17.0111 17.8335 15.9986 17.8335C14.9861 17.8335 14.1653 17.0127 14.1653 16.0002C14.1653 14.9877 14.9861 14.1668 15.9986 14.1668C17.0111 14.1668 17.8319 14.9877 17.8319 16.0002Z" fill="white" stroke="#474747"/>
</svg>
