<svg width="16" height="16" viewBox="0 0 16 16" fill="none" xmlns="http://www.w3.org/2000/svg">
<ellipse cx="8" cy="4" rx="5" ry="2" fill="white"/>
<path fill-rule="evenodd" clip-rule="evenodd" d="M13 5H3V13C3 14.1046 5.23858 15 8 15C10.7614 15 13 14.1046 13 13V5Z" fill="#404040"/>
<path fill-rule="evenodd" clip-rule="evenodd" d="M13 7H3V10C3 11.1046 5.23858 12 8 12C10.7614 12 13 11.1046 13 10V7Z" fill="#808080"/>
<path fill-rule="evenodd" clip-rule="evenodd" d="M13 4H3V7C3 8.10457 5.23858 9 8 9C10.7614 9 13 8.10457 13 7V4Z" fill="#BFBFBF"/>
<ellipse cx="8" cy="4" rx="5" ry="2" fill="#E3E3E3"/>
<path fill-rule="evenodd" clip-rule="evenodd" d="M13.4056 7.46136C13.5064 7.54577 13.5326 7.69006 13.4679 7.80451L11.7146 10.9081H13.7263C13.8413 10.9081 13.944 10.9802 13.9829 11.0885C14.0218 11.1967 13.9886 11.3177 13.9 11.391L8.94214 15.4864C8.84079 15.5701 8.69414 15.5696 8.59337 15.4852C8.49261 15.4008 8.46641 15.2565 8.53106 15.142L10.1952 12.1964L10.2444 12.0385H8.27269C8.15768 12.0385 8.05502 11.9663 8.0161 11.8581C7.97718 11.7498 8.01036 11.6288 8.09903 11.5556L13.0569 7.46016C13.1582 7.37644 13.3049 7.37694 13.4056 7.46136Z" fill="#FFD600"/>
</svg>
