<svg width="16" height="16" viewBox="0 0 16 16" fill="none" xmlns="http://www.w3.org/2000/svg">
<ellipse cx="8" cy="4" rx="5" ry="2" fill="white"/>
<path fill-rule="evenodd" clip-rule="evenodd" d="M13 5H3V13C3 14.1046 5.23858 15 8 15C10.7614 15 13 14.1046 13 13V5Z" fill="#404040"/>
<path fill-rule="evenodd" clip-rule="evenodd" d="M13 7H3V10C3 11.1046 5.23858 12 8 12C10.7614 12 13 11.1046 13 10V7Z" fill="#808080"/>
<path fill-rule="evenodd" clip-rule="evenodd" d="M13 4H3V7C3 8.10457 5.23858 9 8 9C10.7614 9 13 8.10457 13 7V4Z" fill="#BFBFBF"/>
<ellipse cx="8" cy="4" rx="5" ry="2" fill="white"/>
<rect x="10.334" y="8" width="1.33333" height="1.66667" rx="0.4" fill="white"/>
<rect x="13.3574" y="8.7002" width="1.33333" height="1.66667" rx="0.4" transform="rotate(45 13.3574 8.7002)" fill="white"/>
<rect x="14.3008" y="14.3569" width="1.33333" height="1.66667" rx="0.4" transform="rotate(135 14.3008 14.3569)" fill="white"/>
<rect x="9.82031" y="9.87866" width="1.33333" height="1.66667" rx="0.4" transform="rotate(135 9.82031 9.87866)" fill="white"/>
<rect x="8.87891" y="13.1785" width="1.33333" height="1.66667" rx="0.4" transform="rotate(45 8.87891 13.1785)" fill="white"/>
<rect x="9" y="11.3333" width="1.33333" height="2" rx="0.4" transform="rotate(90 9 11.3333)" fill="white"/>
<rect x="15" y="11.3333" width="1.33333" height="2" rx="0.4" transform="rotate(90 15 11.3333)" fill="white"/>
<rect x="10.334" y="14.3333" width="1.33333" height="1.66667" rx="0.4" fill="white"/>
<path fill-rule="evenodd" clip-rule="evenodd" d="M11 15C12.6569 15 14 13.6569 14 12C14 10.3431 12.6569 9 11 9C9.34315 9 8 10.3431 8 12C8 13.6569 9.34315 15 11 15ZM11 13.3333C11.7364 13.3333 12.3333 12.7364 12.3333 12C12.3333 11.2636 11.7364 10.6667 11 10.6667C10.2636 10.6667 9.66667 11.2636 9.66667 12C9.66667 12.7364 10.2636 13.3333 11 13.3333Z" fill="white"/>
</svg>
