<svg width="24" height="24" viewBox="0 0 24 24" fill="none" xmlns="http://www.w3.org/2000/svg">
<g clip-path="url(#clip0_276_1118)">
<ellipse cx="12" cy="6" rx="7.5" ry="3" fill="white"/>
<path fill-rule="evenodd" clip-rule="evenodd" d="M19.5 7.5H4.5V19.5C4.5 21.1569 7.85786 22.5 12 22.5C16.1421 22.5 19.5 21.1569 19.5 19.5V7.5Z" fill="#404040"/>
<path fill-rule="evenodd" clip-rule="evenodd" d="M19.5 10.5H4.5V15C4.5 16.6569 7.85786 18 12 18C16.1421 18 19.5 16.6569 19.5 15V10.5Z" fill="#808080"/>
<path fill-rule="evenodd" clip-rule="evenodd" d="M19.5 6H4.5V10.5C4.5 12.1569 7.85786 13.5 12 13.5C16.1421 13.5 19.5 12.1569 19.5 10.5V6Z" fill="#BFBFBF"/>
<ellipse cx="12" cy="6" rx="7.5" ry="3" fill="#E3E3E3"/>
<circle cx="15.5" cy="15.5" r="4.5" fill="#98AFD2"/>
<path fill-rule="evenodd" clip-rule="evenodd" d="M15.423 20.8461C18.4181 20.8461 20.8461 18.4181 20.8461 15.423C20.8461 12.428 18.4181 10 15.423 10C12.428 10 10 12.428 10 15.423C10 18.4181 12.428 20.8461 15.423 20.8461ZM15.423 19.2966C17.5624 19.2966 19.2966 17.5624 19.2966 15.423C19.2966 13.2837 17.5624 11.5494 15.423 11.5494C13.2837 11.5494 11.5494 13.2837 11.5494 15.423C11.5494 17.5624 13.2837 19.2966 15.423 19.2966Z" fill="#2B2B2B"/>
<path d="M18.295 19.3907C17.9925 19.0881 17.9925 18.5976 18.295 18.2951C18.5975 17.9925 19.0881 17.9925 19.3906 18.2951L23.7731 22.6775C24.0756 22.9801 24.0756 23.4706 23.7731 23.7732C23.4705 24.0757 22.98 24.0757 22.6775 23.7732L18.295 19.3907Z" fill="#2B2B2B"/>
</g>
<defs>
<clipPath id="clip0_276_1118">
<rect width="24" height="24" fill="white"/>
</clipPath>
</defs>
</svg>
