<svg width="16" height="16" viewBox="0 0 16 16" fill="none" xmlns="http://www.w3.org/2000/svg">
<ellipse cx="8" cy="4" rx="5" ry="2" fill="white"/>
<path fill-rule="evenodd" clip-rule="evenodd" d="M13 5H3V13C3 14.1046 5.23858 15 8 15C10.7614 15 13 14.1046 13 13V5Z" fill="#404040"/>
<path fill-rule="evenodd" clip-rule="evenodd" d="M13 7H3V10C3 11.1046 5.23858 12 8 12C10.7614 12 13 11.1046 13 10V7Z" fill="#808080"/>
<path fill-rule="evenodd" clip-rule="evenodd" d="M13 4H3V7C3 8.10457 5.23858 9 8 9C10.7614 9 13 8.10457 13 7V4Z" fill="#BFBFBF"/>
<ellipse cx="8" cy="4" rx="5" ry="2" fill="#E3E3E3"/>
<circle cx="10.1437" cy="10.143" r="2.57144" fill="#98AFD2"/>
<path fill-rule="evenodd" clip-rule="evenodd" d="M10.0989 13.1978C11.8104 13.1978 13.1978 11.8104 13.1978 10.0989C13.1978 8.38742 11.8104 7 10.0989 7C8.38742 7 7 8.38742 7 10.0989C7 11.8104 8.38742 13.1978 10.0989 13.1978ZM10.0989 12.3124C11.3214 12.3124 12.3124 11.3214 12.3124 10.0989C12.3124 8.87641 11.3214 7.8854 10.0989 7.8854C8.87641 7.8854 7.8854 8.87641 7.8854 10.0989C7.8854 11.3214 8.87641 12.3124 10.0989 12.3124Z" fill="#002835"/>
<path d="M11.74 12.3661C11.5671 12.1932 11.5671 11.9129 11.74 11.7401C11.9129 11.5672 12.1932 11.5672 12.3661 11.7401L14.8704 14.2443C15.0433 14.4172 15.0433 14.6975 14.8704 14.8704C14.6975 15.0433 14.4172 15.0433 14.2443 14.8704L11.74 12.3661Z" fill="#002835"/>
</svg>
