<svg width="16" height="16" viewBox="0 0 16 16" fill="none" xmlns="http://www.w3.org/2000/svg">
<path fill-rule="evenodd" clip-rule="evenodd" d="M11.0077 4.31217C11.6016 4.1855 12.0831 3.70296 12.1784 3.06698C12.3011 2.2477 11.7365 1.48403 10.9172 1.36128C10.0979 1.23853 9.33426 1.80319 9.21151 2.62247C9.14238 3.0839 9.29129 3.52768 9.58094 3.84926L8.23445 7.99745L4.66808 8.83921C4.44542 8.60236 4.14451 8.43586 3.79807 8.38395C2.97879 8.2612 2.21512 8.82585 2.09237 9.64514C1.96963 10.4644 2.53428 11.2281 3.35356 11.3508C4.10096 11.4628 4.80207 11.0027 5.01254 10.2991L8.50758 9.4742L10.8037 12.5796C10.7525 12.6973 10.7156 12.8236 10.6957 12.9566C10.573 13.7759 11.1376 14.5395 11.9569 14.6623C12.7762 14.785 13.5398 14.2204 13.6626 13.4011C13.7853 12.5818 13.2207 11.8181 12.4014 11.6954C12.2686 11.6755 12.1373 11.6737 12.01 11.688L9.6497 8.49586L11.0077 4.31217Z" fill="#EA5353"/>
</svg>
