<svg width="16" height="16" viewBox="0 0 16 16" fill="none" xmlns="http://www.w3.org/2000/svg">
<rect x="2" y="1.5" width="12" height="4" rx="1" fill="#91BAE1"/>
<rect x="2" y="6" width="12" height="4" rx="1" fill="#91BAE1"/>
<rect x="2" y="10.5" width="12" height="4" rx="1" fill="#91BAE1"/>
<path d="M9.42947 6.45V6.96097C9.19359 7.03222 8.96765 7.12642 8.75427 7.24096L8.39183 6.87852C8.09057 6.57726 7.60213 6.57726 7.30087 6.87852L6.87661 7.30279C6.57534 7.60405 6.57535 8.09249 6.87661 8.39375L7.23962 8.75676C7.12585 8.96911 7.03222 9.19386 6.96127 9.42846H6.45C6.02395 9.42846 5.67857 9.77384 5.67857 10.1999L5.67857 10.7999C5.67857 11.2259 6.02395 11.5713 6.45 11.5713H6.9612C7.03229 11.8064 7.12616 12.0317 7.24025 12.2444L6.87852 12.6061C6.57726 12.9074 6.57726 13.3958 6.87852 13.6971L7.30279 14.1214C7.60405 14.4226 8.09249 14.4226 8.39375 14.1214L8.75544 13.7597C8.96848 13.8739 9.19402 13.9679 9.42947 14.039V14.5499C9.42947 14.9759 9.77485 15.3213 10.2009 15.3213H10.8009C11.2269 15.3213 11.5723 14.9759 11.5723 14.5499V14.0385C11.8073 13.9674 12.0324 13.8735 12.245 13.7594L12.6069 14.1213C12.9082 14.4226 13.3966 14.4226 13.6979 14.1213L14.1221 13.6971C14.4234 13.3958 14.4234 12.9074 14.1221 12.6061L13.76 12.244C13.874 12.0313 13.9678 11.8063 14.0388 11.5713H14.55C14.976 11.5713 15.3214 11.2259 15.3214 10.7999V10.1999C15.3214 9.77384 14.976 9.42846 14.55 9.42846H14.0387C13.9676 9.19337 13.8738 8.96818 13.7597 8.75544L14.1213 8.39378C14.4226 8.09252 14.4226 7.60408 14.1213 7.30281L13.6971 6.87855C13.3958 6.57729 12.9074 6.57729 12.6061 6.87855L12.2444 7.24025C12.032 7.12632 11.8071 7.03256 11.5723 6.96151V6.45C11.5723 6.02395 11.2269 5.67857 10.8009 5.67857H10.2009C9.77485 5.67857 9.42947 6.02395 9.42947 6.45ZM11.6777 10.5001C11.6777 11.151 11.15 11.6787 10.4991 11.6787C9.84819 11.6787 9.32052 11.151 9.32052 10.5001C9.32052 9.8492 9.84819 9.32154 10.4991 9.32154C11.15 9.32154 11.6777 9.8492 11.6777 10.5001Z" fill="white" stroke="#474747" stroke-width="0.642853"/>
</svg>
