<svg width="16" height="16" viewBox="0 0 16 16" fill="none" xmlns="http://www.w3.org/2000/svg">
<g clip-path="url(#clip0_263_424)">
<rect width="12" height="12" fill="#5284C3"/>
<rect x="0.857422" y="0.857178" width="10.2857" height="10.2857" fill="#F5F5F5"/>
<rect x="1.71484" y="1.71436" width="8.57143" height="1.71429" fill="#355783"/>
<rect x="1.71484" y="4.28564" width="8.57143" height="0.857143" fill="#4474B1"/>
<rect x="1.71484" y="6" width="8.57143" height="0.857143" fill="#4474B1"/>
<rect x="1.71484" y="7.71436" width="8.57143" height="0.857143" fill="#4474B1"/>
<rect x="1.71484" y="9.42847" width="8.57143" height="0.857143" fill="#4474B1"/>
<rect x="2.57227" y="4.28564" width="6" height="0.857143" transform="rotate(90 2.57227 4.28564)" fill="#4474B1"/>
<rect x="5.14258" y="4.28564" width="6" height="0.857143" transform="rotate(90 5.14258 4.28564)" fill="#4474B1"/>
<rect x="10.2852" y="4.28564" width="6" height="0.857143" transform="rotate(90 10.2852 4.28564)" fill="#4474B1"/>
<rect x="7.71484" y="4.28564" width="6" height="0.857143" transform="rotate(90 7.71484 4.28564)" fill="#4474B1"/>
<rect x="2" y="2" width="12" height="12" fill="#5284C3"/>
<rect x="2.85742" y="2.85718" width="10.2857" height="10.2857" fill="#F5F5F5"/>
<rect x="3.71484" y="3.71436" width="8.57143" height="1.71429" fill="#355783"/>
<rect x="3.71484" y="6.28564" width="8.57143" height="0.857143" fill="#4474B1"/>
<rect x="3.71484" y="8" width="8.57143" height="0.857143" fill="#4474B1"/>
<rect x="3.71484" y="9.71436" width="8.57143" height="0.857143" fill="#4474B1"/>
<rect x="3.71484" y="11.4285" width="8.57143" height="0.857143" fill="#4474B1"/>
<rect x="4.57227" y="6.28564" width="6" height="0.857143" transform="rotate(90 4.57227 6.28564)" fill="#4474B1"/>
<rect x="7.14258" y="6.28564" width="6" height="0.857143" transform="rotate(90 7.14258 6.28564)" fill="#4474B1"/>
<rect x="12.2852" y="6.28564" width="6" height="0.857143" transform="rotate(90 12.2852 6.28564)" fill="#4474B1"/>
<rect x="9.71484" y="6.28564" width="6" height="0.857143" transform="rotate(90 9.71484 6.28564)" fill="#4474B1"/>
<rect x="4" y="4" width="12" height="12" fill="#5284C3"/>
<rect x="4.85742" y="4.85718" width="10.2857" height="10.2857" fill="#F5F5F5"/>
<rect x="5.71484" y="5.71436" width="8.57143" height="1.71429" fill="#355783"/>
<rect x="5.71484" y="8.28564" width="8.57143" height="0.857143" fill="#4474B1"/>
<rect x="5.71484" y="10" width="8.57143" height="0.857143" fill="#4474B1"/>
<rect x="5.71484" y="11.7144" width="8.57143" height="0.857143" fill="#4474B1"/>
<rect x="5.71484" y="13.4285" width="8.57143" height="0.857143" fill="#4474B1"/>
<rect x="6.57227" y="8.28564" width="6" height="0.857143" transform="rotate(90 6.57227 8.28564)" fill="#4474B1"/>
<rect x="9.14258" y="8.28564" width="6" height="0.857143" transform="rotate(90 9.14258 8.28564)" fill="#4474B1"/>
<rect x="14.2852" y="8.28564" width="6" height="0.857143" transform="rotate(90 14.2852 8.28564)" fill="#4474B1"/>
<rect x="11.7148" y="8.28564" width="6" height="0.857143" transform="rotate(90 11.7148 8.28564)" fill="#4474B1"/>
</g>
<defs>
<clipPath id="clip0_263_424">
<rect width="16" height="16" fill="white"/>
</clipPath>
</defs>
</svg>
