<svg width="32" height="32" viewBox="0 0 32 32" fill="none" xmlns="http://www.w3.org/2000/svg">
    <path d="M24 16L9 26.3923L9 5.60769L24 16Z" fill="#7DCD17"/>
    <path d="M17.1477 27V15.3636H21.5113C22.4053 15.3636 23.1553 15.5303 23.7613 15.8636C24.3712 16.197 24.8314 16.6553 25.142 17.2386C25.4564 17.8182 25.6136 18.4773 25.6136 19.2159C25.6136 19.9621 25.4564 20.625 25.142 21.2046C24.8276 21.7841 24.3636 22.2405 23.75 22.5739C23.1363 22.9034 22.3807 23.0682 21.4829 23.0682H18.5909V21.3352H21.1988C21.7216 21.3352 22.1496 21.2443 22.4829 21.0625C22.8163 20.8807 23.0625 20.6307 23.2216 20.3125C23.3844 19.9943 23.4659 19.6288 23.4659 19.2159C23.4659 18.803 23.3844 18.4394 23.2216 18.125C23.0625 17.8106 22.8144 17.5663 22.4773 17.3921C22.1439 17.214 21.714 17.125 21.1875 17.125H19.2557V27H17.1477Z"
          fill="black"/>
</svg>
