<svg width="16" height="16" viewBox="0 0 16 16" fill="none" xmlns="http://www.w3.org/2000/svg">
<g clip-path="url(#clip0_279_244)">
<rect x="6.11602" y="5.95" width="3.76667" height="2.1" fill="#6D859E" stroke="#404A56" stroke-width="0.9"/>
<mask id="path-2-inside-1_279_244" fill="white">
<path d="M4.11133 1H7.22244V5.5H4.11133V1Z"/>
</mask>
<path d="M4.11133 1H7.22244V5.5H4.11133V1Z" fill="#6D859E"/>
<path d="M4.11133 1V0.1H3.21133V1H4.11133ZM7.22244 1H8.12244V0.1H7.22244V1ZM7.22244 5.5V6.4H8.12244V5.5H7.22244ZM4.11133 5.5H3.21133V6.4H4.11133V5.5ZM4.11133 1.9H7.22244V0.1H4.11133V1.9ZM6.32244 1V5.5H8.12244V1H6.32244ZM7.22244 4.6H4.11133V6.4H7.22244V4.6ZM5.01133 5.5V1H3.21133V5.5H5.01133Z" fill="#404A56" mask="url(#path-2-inside-1_279_244)"/>
<mask id="path-4-inside-2_279_244" fill="white">
<path fill-rule="evenodd" clip-rule="evenodd" d="M11.89 1H8.77886V5.5H11.89V1ZM7.22331 4H2.55664V8.5H7.22331V4Z"/>
</mask>
<path fill-rule="evenodd" clip-rule="evenodd" d="M11.89 1H8.77886V5.5H11.89V1ZM7.22331 4H2.55664V8.5H7.22331V4Z" fill="#6D859E"/>
<path d="M8.77886 1V0.1H7.87886V1H8.77886ZM11.89 1H12.79V0.1H11.89V1ZM8.77886 5.5H7.87886V6.4H8.77886V5.5ZM11.89 5.5V6.4H12.79V5.5H11.89ZM2.55664 4V3.1H1.65664V4H2.55664ZM7.22331 4H8.12331V3.1H7.22331V4ZM2.55664 8.5H1.65664V9.4H2.55664V8.5ZM7.22331 8.5V9.4H8.12331V8.5H7.22331ZM8.77886 1.9H11.89V0.1H8.77886V1.9ZM9.67886 5.5V1H7.87886V5.5H9.67886ZM11.89 4.6H8.77886V6.4H11.89V4.6ZM10.99 1V5.5H12.79V1H10.99ZM2.55664 4.9H7.22331V3.1H2.55664V4.9ZM3.45664 8.5V4H1.65664V8.5H3.45664ZM7.22331 7.6H2.55664V9.4H7.22331V7.6ZM6.32331 4V8.5H8.12331V4H6.32331Z" fill="#404A56" mask="url(#path-4-inside-2_279_244)"/>
<rect x="9.15234" y="4.375" width="3.91667" height="3.75" fill="#6D859E" stroke="#404A56" stroke-width="0.75"/>
<rect x="9.22734" y="7.45" width="5.32222" height="6.6" fill="#6D859E" stroke="#404A56" stroke-width="0.9"/>
<rect x="1.45" y="7.45" width="5.32222" height="6.6" fill="#6D859E" stroke="#404A56" stroke-width="0.9"/>
<path fill-rule="evenodd" clip-rule="evenodd" d="M12.1 15.4688L16 12.4666L12.1 9.46436L12.1 10.7333L6.99976 10.7333L6.99976 14.2L12.1 14.2L12.1 15.4688Z" fill="#7DCD17"/>
</g>
<defs>
<clipPath id="clip0_279_244">
<rect width="16" height="16" fill="white"/>
</clipPath>
</defs>
</svg>
