<svg width="16" height="16" viewBox="0 0 16 16" fill="none" xmlns="http://www.w3.org/2000/svg">
<g clip-path="url(#clip0_263_766)">
<rect width="9" height="9" fill="#5284C3"/>
<rect x="0.642578" y="0.642822" width="7.71429" height="7.71429" fill="#F5F5F5"/>
<rect x="1.28516" y="1.28564" width="6.42857" height="1.28571" fill="#355783"/>
<rect x="1.28516" y="3.21436" width="6.42857" height="0.642857" fill="#4474B1"/>
<rect x="1.28516" y="4.5" width="6.42857" height="0.642857" fill="#4474B1"/>
<rect x="1.28516" y="5.78564" width="6.42857" height="0.642857" fill="#4474B1"/>
<rect x="1.28516" y="7.07153" width="6.42857" height="0.642857" fill="#4474B1"/>
<rect x="1.92773" y="3.21436" width="4.5" height="0.642857" transform="rotate(90 1.92773 3.21436)" fill="#4474B1"/>
<rect x="3.85742" y="3.21436" width="4.5" height="0.642857" transform="rotate(90 3.85742 3.21436)" fill="#4474B1"/>
<rect x="7.71484" y="3.21436" width="4.5" height="0.642857" transform="rotate(90 7.71484 3.21436)" fill="#4474B1"/>
<rect x="5.78516" y="3.21436" width="4.5" height="0.642857" transform="rotate(90 5.78516 3.21436)" fill="#4474B1"/>
<rect x="1.28516" width="0.642857" height="8.35714" fill="#EDA416"/>
<rect x="3.21484" width="0.642857" height="8.35714" fill="#EDA416"/>
<rect x="1.28516" width="2.57143" height="0.642857" fill="#EDA416"/>
<rect x="1.28516" y="7.71436" width="2.57143" height="0.642857" fill="#EDA416"/>
<rect x="7" y="3" width="9" height="9" fill="#5284C3"/>
<rect x="7.64258" y="3.64282" width="7.71429" height="7.71429" fill="#F5F5F5"/>
<rect x="8.28516" y="4.28564" width="6.42857" height="1.28571" fill="#355783"/>
<rect x="8.28516" y="6.21436" width="6.42857" height="0.642857" fill="#4474B1"/>
<rect x="8.28516" y="7.5" width="6.42857" height="0.642857" fill="#4474B1"/>
<rect x="8.28516" y="8.78564" width="6.42857" height="0.642857" fill="#4474B1"/>
<rect x="8.28516" y="10.0715" width="6.42857" height="0.642857" fill="#4474B1"/>
<rect x="8.92773" y="6.21436" width="4.5" height="0.642857" transform="rotate(90 8.92773 6.21436)" fill="#4474B1"/>
<rect x="10.8574" y="6.21436" width="4.5" height="0.642857" transform="rotate(90 10.8574 6.21436)" fill="#4474B1"/>
<rect x="14.7148" y="6.21436" width="4.5" height="0.642857" transform="rotate(90 14.7148 6.21436)" fill="#4474B1"/>
<rect x="12.7852" y="6.21436" width="4.5" height="0.642857" transform="rotate(90 12.7852 6.21436)" fill="#4474B1"/>
<rect x="8.28516" y="3" width="0.642857" height="8.35714" fill="#EDA416"/>
<rect x="10.2148" y="3" width="0.642857" height="8.35714" fill="#EDA416"/>
<rect x="8.28516" y="3" width="2.57143" height="0.642857" fill="#EDA416"/>
<rect x="8.28516" y="10.7144" width="2.57143" height="0.642857" fill="#EDA416"/>
<rect x="3" y="7" width="9" height="9" fill="#5284C3"/>
<rect x="3.64258" y="7.64282" width="7.71429" height="7.71429" fill="#F5F5F5"/>
<rect x="4.28516" y="8.28564" width="6.42857" height="1.28571" fill="#355783"/>
<rect x="4.28516" y="10.2144" width="6.42857" height="0.642857" fill="#4474B1"/>
<rect x="4.28516" y="11.5" width="6.42857" height="0.642857" fill="#4474B1"/>
<rect x="4.28516" y="12.7856" width="6.42857" height="0.642857" fill="#4474B1"/>
<rect x="4.28516" y="14.0715" width="6.42857" height="0.642857" fill="#4474B1"/>
<rect x="4.92773" y="10.2144" width="4.5" height="0.642857" transform="rotate(90 4.92773 10.2144)" fill="#4474B1"/>
<rect x="6.85742" y="10.2144" width="4.5" height="0.642857" transform="rotate(90 6.85742 10.2144)" fill="#4474B1"/>
<rect x="10.7148" y="10.2144" width="4.5" height="0.642857" transform="rotate(90 10.7148 10.2144)" fill="#4474B1"/>
<rect x="8.78516" y="10.2144" width="4.5" height="0.642857" transform="rotate(90 8.78516 10.2144)" fill="#4474B1"/>
<rect x="4.28516" y="7" width="0.642857" height="8.35714" fill="#EDA416"/>
<rect x="6.21484" y="7" width="0.642857" height="8.35714" fill="#EDA416"/>
<rect x="4.28516" y="7" width="2.57143" height="0.642857" fill="#EDA416"/>
<rect x="4.28516" y="14.7144" width="2.57143" height="0.642857" fill="#EDA416"/>
</g>
<defs>
<clipPath id="clip0_263_766">
<rect width="16" height="16" fill="white"/>
</clipPath>
</defs>
</svg>
