<svg width="16" height="16" viewBox="0 0 16 16" fill="none" xmlns="http://www.w3.org/2000/svg">
<path d="M3.46606 14.6263C3.44025 14.4161 3.48778 14.2132 3.48778 14.0046C3.48778 13.927 3.49174 13.916 3.53122 13.8535C3.59206 13.7571 3.5867 13.6363 3.6181 13.5303C3.63596 13.4701 3.62782 13.4061 3.62896 13.3436C3.63027 13.2716 3.64729 13.1957 3.65913 13.1249C3.67572 13.0257 3.67869 12.8699 3.6531 12.7735C3.64644 12.7484 3.62118 12.6618 3.60241 12.6457C3.56981 12.6177 3.57283 12.7859 3.57225 12.7956C3.56459 12.9235 3.54002 13.0497 3.53363 13.1777C3.52935 13.2636 3.53122 13.3498 3.53122 13.4357C3.53122 13.4434 3.53922 13.5057 3.53243 13.5107C3.50288 13.5324 3.47054 13.4039 3.46847 13.394C3.44738 13.2924 3.4552 13.1849 3.4552 13.0819V12.6863C3.4552 12.6239 3.44344 12.5336 3.48416 12.4823C3.51042 12.4492 3.54402 12.4228 3.56983 12.3902C3.59407 12.3595 3.60852 12.3231 3.63741 12.2956C3.70792 12.2284 3.91091 12.2862 3.9958 12.2956C4.09434 12.3064 4.18344 12.3263 4.28421 12.3263C4.36562 12.3263 4.47569 12.2927 4.42419 12.4037C4.39896 12.458 4.37477 12.5128 4.34977 12.5672M4.34977 12.5672C4.32848 12.6135 4.3066 12.6595 4.283 12.7047C4.26882 12.7318 4.25735 12.7592 4.24749 12.7867M4.34977 12.5672C4.37929 12.5661 4.40995 12.5695 4.42781 12.5695C4.49363 12.5695 4.5597 12.5669 4.6251 12.5757C4.70138 12.5859 4.77645 12.5985 4.85197 12.6132C4.94978 12.6321 5.05044 12.6233 5.14942 12.6254C5.42108 12.6313 5.69205 12.6359 5.96395 12.6359H6.75978C7.1314 12.6359 7.5012 12.6494 7.87237 12.6568C9.03959 12.6801 10.2097 12.658 11.3773 12.658C11.5753 12.658 11.7616 12.6672 11.9541 12.72C11.9944 12.7311 12.208 12.8324 12.2449 12.7778C12.2708 12.7395 12.2439 12.6573 12.2358 12.6187C12.2217 12.5504 12.2269 12.4646 12.193 12.4024C12.1344 12.2951 12.0322 12.2474 11.9197 12.2317C11.689 12.1994 11.4553 12.1604 11.2216 12.1604H7.89228C7.29027 12.1604 6.69077 12.2267 6.08885 12.2267C5.58885 12.2267 5.10549 12.0388 4.6058 12.0388C4.45035 12.0388 4.28489 12.0217 4.13156 12.0529C3.94116 12.0917 3.74868 12.1162 3.55837 12.1543C3.51083 12.1638 3.23064 12.2689 3.25488 12.1702C3.27438 12.0908 3.33649 11.9162 3.41779 11.8778C3.46213 11.8569 3.53938 11.8729 3.58673 11.8729H3.77015C4.21568 11.8729 4.66071 11.884 5.10598 11.884C6.3064 11.884 7.5063 11.8729 8.70681 11.8729H11.1794C11.3925 11.8729 11.6058 11.8741 11.8189 11.8729C11.9598 11.8721 12.0986 11.8543 12.2389 11.8508C12.2969 11.8493 12.5324 11.7959 12.508 11.9048C12.4888 11.9901 12.4802 12.0707 12.4802 12.1579C12.4802 12.3 12.4483 12.44 12.4476 12.5831C12.4458 12.9558 12.4275 13.3275 12.5321 13.6888C12.5938 13.9019 12.6574 14.1138 12.7059 14.3302C12.7104 14.3503 12.7397 14.4603 12.6986 14.458C12.6513 14.4553 12.6033 14.4465 12.5562 14.4408C12.3598 14.4171 12.1723 14.3707 11.9734 14.4051C11.8541 14.4258 11.7294 14.4162 11.609 14.4162C11.3803 14.4162 11.1542 14.4494 10.9247 14.4494C10.6035 14.4494 10.2787 14.4326 9.95938 14.4715C9.742 14.498 9.52141 14.502 9.30293 14.5133C9.16151 14.5206 9.01388 14.5234 8.87334 14.5047C8.66099 14.4764 8.4475 14.4826 8.23378 14.4826C8.07263 14.4826 7.91473 14.4802 7.75471 14.4998C7.66437 14.5108 7.57515 14.5172 7.48562 14.5354C7.40518 14.5518 7.32601 14.5824 7.24427 14.5907C6.95534 14.6198 6.66619 14.6199 6.37544 14.6152C6.25733 14.6133 6.14066 14.5735 6.02067 14.571C5.86856 14.5679 5.71687 14.5506 5.56453 14.5489C5.3566 14.5466 5.15175 14.5047 4.94428 14.5047C4.71867 14.5047 4.49566 14.4826 4.27093 14.4826C4.18893 14.4826 4.1145 14.4945 4.03321 14.5022C4.01045 14.5044 3.82365 14.5209 3.86789 14.4715C3.93037 14.4017 3.87875 14.3427 3.87875 14.2553C3.87875 14.1513 3.88882 14.0488 3.90289 13.9456C3.94246 13.6555 3.97248 13.3652 3.9946 13.0733C4.00533 12.9317 4.01233 12.7818 4.03924 12.642C4.04891 12.5918 4.07162 12.7367 4.07994 12.7898L4.08027 12.7919C4.09472 12.8841 4.07782 13.0254 4.13457 13.1052C4.15252 13.1305 4.1741 13.0346 4.17681 13.0266C4.20429 12.9452 4.21933 12.8652 4.24749 12.7867M4.34977 12.5672C4.31897 12.5683 4.28942 12.5744 4.27697 12.5947C4.24846 12.6412 4.24644 12.7186 4.24749 12.7867M4.24749 12.7867C4.24796 12.8176 4.24906 12.8466 4.24861 12.8699C4.24772 12.9157 4.22859 13.0227 4.27697 13.0542C4.33438 13.0917 4.45496 13.0671 4.51831 13.0671H4.8399C5.02757 13.0671 5.21481 13.0561 5.40223 13.0561H8.85825C9.21859 13.0561 9.57856 13.045 9.93886 13.045C10.2418 13.045 10.5436 13.0671 10.8469 13.0671C11.1714 13.0671 11.5311 13.0229 11.8449 13.1157C11.8754 13.1247 11.9166 13.1178 11.942 13.1402C11.9735 13.1681 12.0033 13.2095 12.0283 13.2435C12.0888 13.3255 12.1265 13.4574 12.1423 13.558C12.1562 13.6462 12.1588 13.7369 12.1713 13.8258C12.1787 13.879 12.1848 13.9351 12.2087 13.9837C12.2162 13.9991 12.2456 14.0236 12.2226 14.0347C12.0137 14.1354 11.778 14.1272 11.5534 14.1342C11.2311 14.1444 10.9136 14.1889 10.5923 14.2116C10.4615 14.2209 10.332 14.1998 10.2013 14.1963C9.93636 14.1891 9.67052 14.195 9.4055 14.195C8.96972 14.195 8.53465 14.207 8.10044 14.1668C7.6357 14.1238 7.17286 14.1287 6.70668 14.1287C6.27229 14.1287 5.84326 14.1567 5.41188 14.2098C5.2038 14.2354 4.98536 14.2172 4.77594 14.2172C4.57656 14.2172 4.39512 14.1992 4.19913 14.157C4.10971 14.1377 4.04525 14.002 4.04226 13.9168L4.04222 13.9156C4.03972 13.8445 4.03653 13.7536 4.09234 13.7011C4.15668 13.6407 4.28742 13.6643 4.36566 13.6643C4.58885 13.6643 4.79567 13.7145 5.01487 13.749C5.28691 13.7919 5.56774 13.7748 5.84207 13.7748C6.16106 13.7748 6.47815 13.778 6.79598 13.7478C7.0036 13.7281 7.21012 13.7085 7.41864 13.7085C7.57012 13.7085 7.72148 13.7057 7.87237 13.722C8.12113 13.7488 8.36678 13.7988 8.6151 13.8283C9.04324 13.8791 9.48758 13.8633 9.91835 13.8633H10.5941C10.7256 13.8633 10.8573 13.8612 10.9887 13.8695C11.1258 13.878 11.2567 13.9149 11.3923 13.9333C11.4892 13.9466 11.5879 13.9518 11.6856 13.9518C11.725 13.9518 11.781 13.961 11.8153 13.937C11.8674 13.9006 11.8621 13.7844 11.8569 13.7312C11.8464 13.6233 11.8005 13.498 11.7127 13.4296C11.631 13.366 11.4979 13.3878 11.4026 13.3878C11.1779 13.3878 10.9525 13.3814 10.7287 13.4056C10.4848 13.432 10.2444 13.4874 9.9992 13.5009C9.37113 13.5354 8.73066 13.4881 8.10526 13.4327C7.7149 13.398 7.33484 13.3223 6.94803 13.2668C6.73716 13.2365 6.52446 13.2441 6.31209 13.2441H5.45291C5.28589 13.2441 5.12213 13.2408 4.95816 13.2772C4.87674 13.2953 4.79723 13.3095 4.715 13.3215M3.41175 11.6296C3.29817 11.4766 3.23451 11.2519 3.29229 11.0608C3.34866 10.8742 3.34708 10.6869 3.37073 10.4943C3.39629 10.2861 3.42261 10.0658 3.42261 9.85545C3.42261 9.75838 3.44116 9.63738 3.41598 9.54337C3.39914 9.48052 3.38015 9.42556 3.37374 9.3603C3.36725 9.29424 3.36914 9.22326 3.35142 9.1588C3.33101 9.0846 3.33573 9.01098 3.33573 8.93396C3.33573 8.79852 3.40766 8.70102 3.52639 8.63355C3.58491 8.6003 3.62906 8.58815 3.69533 8.5887C3.7069 8.5888 3.71844 8.58903 3.72995 8.58937M3.72995 8.58937C3.73528 8.58953 3.74061 8.58971 3.74593 8.58992M3.72995 8.58937C3.73222 8.58411 3.73474 8.57897 3.73757 8.57396C3.74195 8.5662 3.74447 8.57641 3.74593 8.58992M3.72995 8.58937C3.71574 8.62221 3.71121 8.65937 3.70257 8.69437C3.68333 8.77234 3.6454 8.93633 3.63138 9.01259C3.59292 9.22167 3.59673 9.4311 3.59638 9.64289C3.59597 9.89598 3.59783 10.1491 3.59397 10.4022C3.59128 10.5787 3.59497 10.7615 3.56863 10.9367C3.5645 10.9641 3.5638 10.8543 3.5638 10.8457V10.5681M3.74593 8.58992C3.92018 8.59675 4.08746 8.62988 4.26007 8.65874C4.56853 8.7103 4.87675 8.76602 5.18803 8.7988C5.51446 8.83319 5.84391 8.82092 6.17151 8.82092C6.2393 8.82092 6.30711 8.82065 6.37492 8.82039M3.74593 8.58992C3.74713 8.60108 3.74762 8.61449 3.74782 8.62188C3.76105 9.09312 3.74843 9.56654 3.74843 10.0379C3.74843 10.4691 3.74857 10.8998 3.79368 11.3292C3.80697 11.4557 3.81723 11.624 3.86306 11.7488C3.87747 11.788 3.93908 11.6146 3.94391 11.594C3.96128 11.5199 3.99082 11.4493 4.00847 11.3759C4.02386 11.3119 4.02187 11.2447 4.03321 11.1799C4.04852 11.0925 4.07671 11.0081 4.09475 10.9213C4.12745 10.7639 4.12765 10.6117 4.12914 10.452C4.13338 9.99871 4.14199 9.54593 4.16052 9.09307C4.16177 9.06261 4.14437 8.98669 4.17017 9.00215C4.18019 9.00814 4.18163 9.02313 4.18405 9.03471C4.19537 9.08894 4.20374 9.14381 4.2112 9.19873C4.27604 9.6762 4.31334 10.158 4.35299 10.6381C4.37625 10.9197 4.39238 11.202 4.41815 11.4834C4.43696 11.6888 4.43707 11.3924 4.43746 11.3765C4.44498 11.0665 4.44803 10.7564 4.45435 10.4464C4.45888 10.2248 4.44604 10.0019 4.47125 9.78173C4.48911 9.62571 4.48875 10.0954 4.49538 10.2523L4.49541 10.253C4.50495 10.4787 4.53196 11.118 4.54365 11.3507C4.5495 11.4673 4.55904 12.0366 4.59916 11.4472C4.6492 10.712 4.64705 9.9742 4.69449 9.23928C4.69686 9.20259 4.70406 9.09482 4.71259 9.13054C4.73476 9.22341 4.73154 9.32078 4.73672 9.4162C4.7407 9.48936 4.74423 9.56217 4.74739 9.63474M6.37492 8.82039C6.39245 8.82032 6.40998 8.82025 6.42751 8.82019M6.37492 8.82039C6.38252 8.80124 6.39323 8.7921 6.40862 8.80372C6.41537 8.80882 6.42165 8.81432 6.42751 8.82019M6.37492 8.82039C6.3609 8.85571 6.35749 8.92509 6.35493 8.96099C6.34101 9.15562 6.35218 9.35132 6.35553 9.54644C6.35582 9.56341 6.35612 9.58034 6.35644 9.59722M6.42751 8.82019C6.53848 8.8198 6.64946 8.81964 6.76038 8.82092C6.88631 8.82238 7.0099 8.84304 7.13688 8.84304C8.39391 8.84304 9.65163 8.85915 10.9085 8.84242C11.1103 8.83973 11.3096 8.80986 11.5112 8.80986C11.5844 8.80986 11.658 8.8116 11.7316 8.81224M6.42751 8.82019C6.49529 8.88809 6.50673 9.00458 6.53714 9.0986C6.70939 9.63113 6.83607 10.1762 6.95435 10.7231M11.7316 8.81224C11.7367 8.81228 11.7418 8.81232 11.7469 8.81235M11.7316 8.81224C11.7359 8.76115 11.7394 8.70999 11.7417 8.65874C11.7465 8.55294 11.7468 8.65532 11.7469 8.81235M11.7316 8.81224C11.7015 9.17225 11.6298 9.5287 11.6145 9.89032M11.7469 8.81235C11.8115 8.81276 11.8761 8.81216 11.9402 8.80863C12.1266 8.79837 12.3101 8.72651 12.4959 8.7214C12.5372 8.72026 12.6544 8.68825 12.6853 8.73C12.7222 8.7797 12.6705 8.94378 12.6636 8.99785C12.6573 9.04727 12.6518 9.09628 12.6431 9.14528C12.6179 9.28803 12.619 9.4351 12.5948 9.579C12.5621 9.77433 12.5347 9.9804 12.52 10.178C12.5053 10.3754 12.5128 10.5754 12.5128 10.7732C12.5128 10.9633 12.5115 11.1524 12.5236 11.3421C12.5335 11.4953 12.5321 11.6571 12.5671 11.8072C12.5685 11.8132 12.593 11.8696 12.5767 11.8711C12.5467 11.8737 12.4946 11.8705 12.4687 11.8532C12.4198 11.8206 12.3924 11.6272 12.3819 11.5866C12.3308 11.3907 12.2968 11.1928 12.2672 10.9926C12.2276 10.7243 12.1978 10.455 12.1661 10.1858M11.7469 8.81235C11.747 8.97474 11.7469 9.19557 11.7513 9.30501L11.7517 9.31338C11.7553 9.40264 11.7589 9.49286 11.7632 9.58365M12.1661 10.1858C12.1446 10.003 12.1222 9.82021 12.0953 9.63797C12.074 9.49392 12.0467 9.34258 11.9722 9.21532C11.9628 9.19928 11.9526 9.19574 11.9372 9.18829C11.9074 9.17391 12.0031 9.18528 12.0361 9.18583C12.207 9.18868 12.2615 9.39784 12.2497 9.53784C12.2315 9.75369 12.2003 9.97025 12.1661 10.1858ZM12.1661 10.1858C12.1464 10.31 12.1258 10.4338 12.1061 10.557C12.0818 10.7091 12.048 10.8596 12.0168 11.0104C12.0007 11.0887 12.0004 11.1121 11.9698 11.0153C11.8949 10.7791 11.8481 10.5314 11.8173 10.2804M11.8173 10.2804C11.7889 10.0488 11.774 9.81438 11.7632 9.58365M11.8173 10.2804C11.8186 10.5198 11.8177 10.7593 11.8177 10.9987C11.8177 11.33 11.8191 11.6614 11.8171 11.9927C11.8165 12.091 11.8179 12.3829 11.7966 12.287C11.7687 12.1614 11.787 12.0183 11.7803 11.8913C11.7659 11.6183 11.7295 11.3456 11.6922 11.0749C11.6702 10.9149 11.6353 10.7579 11.5973 10.6016M11.8173 10.2804C11.8169 10.2047 11.8163 10.129 11.8153 10.0533C11.8146 9.99959 11.8107 9.74279 11.802 9.66746C11.7991 9.64217 11.7809 9.59103 11.7632 9.58365M11.7632 9.58365C11.7587 9.58178 11.7543 9.58272 11.7501 9.5876C11.711 9.63377 11.6482 9.79763 11.6145 9.89032M11.6145 9.89032L11.6144 9.89353C11.6045 10.1312 11.6078 10.3662 11.5973 10.6016M11.6145 9.89032C11.6025 9.92331 11.5943 9.94728 11.5921 9.95374C11.5639 10.036 11.5341 10.1291 11.5049 10.2254M11.5973 10.6016C11.5921 10.719 11.5834 10.8365 11.5679 10.9545C11.5563 11.0432 11.5419 11.1308 11.5221 11.218C11.5171 11.24 11.483 11.4425 11.481 11.293C11.4768 10.9742 11.4828 10.6565 11.4712 10.3386M11.5973 10.6016C11.5668 10.4762 11.5343 10.3512 11.5049 10.2254M11.4712 10.3386C11.4676 10.2398 11.4623 10.1411 11.4545 10.0422C11.4525 10.0173 11.4505 9.99237 11.4485 9.96745M11.4712 10.3386C11.4823 10.3007 11.4935 10.2628 11.5049 10.2254M11.4712 10.3386C11.4331 10.4694 11.3976 10.6004 11.37 10.713C11.2974 11.01 11.2619 11.3067 11.2313 11.61C11.2229 11.6929 11.2093 11.866 11.2013 11.9829M11.4485 9.96745C11.4347 9.79743 11.4196 9.62728 11.3996 9.45798C11.3876 9.3563 11.3459 9.05477 11.3393 9.15696C11.3342 9.23364 11.3581 9.42143 11.3634 9.46105C11.3894 9.65707 11.4134 9.79712 11.4485 9.96745ZM11.4485 9.96745C11.4592 10.0193 11.4709 10.0739 11.4841 10.1337C11.4908 10.1643 11.4977 10.1949 11.5049 10.2254M11.2013 11.9829C11.1945 12.082 11.1916 12.1409 11.1993 12.0707C11.2022 12.0438 11.2022 12.0126 11.2013 11.9829ZM11.2013 11.9829C11.2004 11.9563 11.1989 11.9309 11.1981 11.911C11.1873 11.6426 11.171 11.3854 11.1539 11.1159L11.1534 11.1087C11.1213 10.6025 11.0864 10.0988 11.0134 9.59681C10.9867 9.41265 10.973 9.19746 10.9211 9.01628C10.9076 8.96889 10.9087 9.11437 10.9079 9.16371C10.9033 9.43481 10.9033 9.70596 10.9006 9.97708C10.8932 10.7287 10.8975 11.4814 10.8837 12.2329C10.8834 12.2495 10.8862 12.267 10.8807 12.2826C10.8624 12.3348 10.8506 12.1762 10.8385 12.1223C10.7015 11.5152 10.5793 10.9053 10.4816 10.2906M10.4816 10.2906C10.4653 10.1883 10.4497 10.0858 10.4348 9.98323C10.4329 9.96973 10.4309 9.95615 10.4288 9.9425M10.4816 10.2906C10.4817 10.3632 10.4818 10.4334 10.4819 10.4993L10.4819 10.5115C10.4824 10.9728 10.4938 11.4363 10.4795 11.8975C10.4627 12.4367 10.4223 11.2959 10.3944 10.4388M10.4816 10.2906C10.4811 10.0582 10.4802 9.80185 10.4771 9.58883C10.4753 9.46509 10.4783 9.34078 10.465 9.21777C10.4464 9.04661 10.45 9.56186 10.4409 9.73381C10.4371 9.8034 10.4331 9.87296 10.4288 9.9425M10.4288 9.9425C10.4088 9.80794 10.3853 9.66619 10.3661 9.52279M10.4288 9.9425C10.4186 10.108 10.4069 10.2734 10.3944 10.4388M10.3661 9.52279C10.339 9.32073 10.3202 9.11539 10.331 8.92228C10.3438 8.6952 10.3564 9.1551 10.3661 9.52279ZM10.3661 9.52279C10.3692 9.6413 10.372 9.75023 10.3745 9.8235C10.3796 9.97615 10.3865 10.1961 10.3944 10.4388M10.3944 10.4388C10.3625 10.8604 10.3254 11.2816 10.2948 11.7033C10.2842 11.8504 10.2864 11.9023 10.2864 11.7316C10.2864 11.3929 10.2866 11.1916 10.2852 10.8267C10.2835 10.3966 10.2817 10.0495 10.2749 9.62384C10.273 9.50322 10.2708 9.38259 10.2671 9.26201C10.266 9.22571 10.2916 9.17091 10.2605 9.15327C10.2311 9.13665 10.2571 9.22165 10.2562 9.25586C10.2434 9.78779 10.2572 9.47357 10.2345 10.1257C10.2216 10.4955 10.2048 10.8579 10.1877 11.2268L10.1862 11.2586C10.1813 11.3642 10.1765 11.4699 10.1712 11.5756C10.1693 11.612 10.1806 11.7176 10.1645 11.6849C10.1442 11.6434 10.159 11.5924 10.1567 11.5461C10.1506 11.4257 10.1454 11.3052 10.1392 11.1848C10.1193 10.7977 10.0984 10.3992 10.0716 10.0127C10.061 9.86004 10.0492 9.70745 10.0354 9.55504C10.0279 9.47152 10.0277 9.38635 10.0076 9.30501C9.97815 9.18558 9.96196 9.54728 9.95093 9.66992C9.87335 10.5327 9.82064 11.4027 9.69269 12.2599C9.6486 12.5553 9.64967 12.244 9.64805 12.1518C9.64608 12.0407 9.64565 10.866 9.64563 10.8084M9.64563 10.8084L9.64563 10.8064M9.64563 10.8084L9.64563 11.6222C9.64563 11.7984 9.6425 11.2699 9.63598 11.0939C9.6183 10.617 9.59986 10.3095 9.55754 9.83087C9.54285 9.66474 9.52787 9.49853 9.50565 9.33327C9.49887 9.28278 9.50174 9.14466 9.47066 9.1846C9.42707 9.24061 9.4568 9.32695 9.45497 9.39839C9.45036 9.57874 9.45208 9.7592 9.45135 9.93961C9.45037 10.1819 9.44972 10.5378 9.45046 10.8462M9.64563 10.8064C9.64543 10.3043 9.64563 8.79799 9.64563 9.30009V10.8064ZM9.45046 10.8462C9.45074 10.9629 9.45122 11.0727 9.45195 11.167C9.45287 11.2847 9.46028 11.6371 9.46644 11.5197C9.47758 11.307 9.47961 10.7477 9.48023 10.5748L9.48031 10.5533C9.48162 10.2085 9.48049 9.17412 9.46945 9.51879C9.45529 9.96086 9.45141 10.4035 9.45046 10.8462ZM9.45046 10.8462C9.44977 11.1671 9.45063 11.488 9.45025 11.8086M9.45025 11.8086C9.45022 11.8321 9.45019 11.8556 9.45014 11.879C9.44953 12.2184 9.45101 11.8955 9.45025 11.8086ZM9.45025 11.8086C9.45022 11.8051 9.45018 11.8019 9.45014 11.7992C9.44372 11.3532 9.43575 10.9712 9.40429 10.5214C9.38998 10.3168 9.37171 10.1124 9.34637 9.90889C9.33266 9.7988 9.33255 9.68238 9.28724 9.58146C9.27108 9.54547 9.25337 9.65448 9.24983 9.69388C9.23595 9.84833 9.23793 10.0039 9.23535 10.1589C9.23169 10.379 9.23325 10.5992 9.23113 10.8193C9.22923 11.0153 9.23088 11.2114 9.22328 11.4072C9.21981 11.4967 9.23904 11.5954 9.19794 11.6745C9.17807 11.7127 9.15576 11.598 9.14605 11.5559C9.10888 11.3946 9.08686 11.23 9.05796 11.0669C9.0454 10.996 9.03119 10.9129 9.01575 10.8231M9.01575 10.8231C8.97677 10.5963 8.93 10.3264 8.88233 10.1008M9.01575 10.8231C8.99637 10.7886 8.99466 10.7398 8.98315 10.7008C8.94703 10.5782 8.91529 10.4542 8.88601 10.3297C8.88531 10.3267 8.88462 10.3238 8.88393 10.3209M9.01575 10.8231C9.02167 10.8336 9.02925 10.8428 9.03926 10.85C9.06739 10.8703 9.04703 10.78 9.04469 10.745C9.03715 10.6322 9.02214 10.5201 9.00969 10.4077C9.00207 10.3389 8.95097 9.85586 8.91979 9.7375C8.89256 9.63411 8.88269 9.9493 8.88239 10.0563C8.88234 10.0711 8.88233 10.0859 8.88233 10.1008M8.88233 10.1008C8.86526 10.02 8.84808 9.94484 8.8311 9.8794C8.80302 9.77118 8.77502 9.66624 8.74937 9.63465M8.88233 10.1008C8.88236 10.1732 8.88293 10.2467 8.88393 10.3209M8.74937 9.63465C8.74766 9.63255 8.74597 9.63077 8.74428 9.62934M8.74937 9.63465C8.74683 9.61892 8.74418 9.60255 8.74141 9.58548M8.74937 9.63465C8.79324 9.90616 8.80653 9.99137 8.88393 10.3209M8.74428 9.62934C8.72158 9.61006 8.7009 9.65345 8.68388 9.80999C8.68065 9.83969 8.67782 9.8724 8.67535 9.90751M8.74428 9.62934C8.74885 9.70062 8.75424 9.79105 8.76051 9.90459C8.77363 10.1423 8.78411 10.3721 8.79033 10.6026M8.74428 9.62934C8.74329 9.61383 8.74233 9.59922 8.74141 9.58548M8.67535 9.90751C8.65214 10.2378 8.66087 10.7801 8.66699 11.0319C8.67181 11.2304 8.67683 11.4292 8.69233 11.6272C8.69899 11.7122 8.68559 11.8096 8.73336 11.8797C8.75921 11.9176 8.76992 11.7935 8.77439 11.7476C8.79076 11.5791 8.79345 11.4094 8.7955 11.2401C8.79813 11.0229 8.796 10.8125 8.79033 10.6026M8.67535 9.90751C8.68399 9.94991 8.69133 9.98832 8.69688 10.0174L8.69716 10.0189C8.72965 10.1891 8.76115 10.3945 8.79033 10.6026M8.67535 9.90751C8.63703 9.71937 8.57298 9.45256 8.5246 9.57286C8.4775 9.68997 8.46764 10.3531 8.46667 10.3961C8.46334 10.5445 8.46413 10.693 8.46305 10.8414C8.46252 10.9141 8.48012 10.9892 8.46185 11.0595C8.45044 11.1034 8.44789 10.9699 8.44133 10.925C8.42054 10.7827 8.40327 10.6399 8.37979 10.498C8.33864 10.2494 8.27702 9.90972 8.21353 9.61535M8.79033 10.6026C8.82318 10.8369 8.85309 11.0746 8.87816 11.2696C8.9735 12.0112 8.91121 11.2732 8.90652 11.1406C8.89716 10.8758 8.88763 10.5943 8.88393 10.3209M8.74141 9.58548C8.7179 9.23316 8.71957 9.45108 8.73637 9.55443C8.7381 9.56504 8.73978 9.57538 8.74141 9.58548ZM8.21353 9.61535C8.19169 9.51411 8.16963 9.41823 8.1481 9.33327C8.12691 9.24962 8.12033 9.15515 8.07428 9.08378M8.21353 9.61535C8.26427 9.96307 8.31933 10.392 8.35445 10.6713C8.38002 10.8747 8.40776 11.0779 8.42806 11.2819C8.43774 11.3792 8.45885 11.4782 8.44435 11.5749C8.41855 11.747 8.31809 11.2498 8.28144 11.0798C8.1766 10.5934 8.117 10.2065 8.06544 9.70924C8.06163 9.67247 8.05785 9.63568 8.05424 9.59887M8.21353 9.61535C8.20012 9.52345 8.18701 9.43721 8.17465 9.36091C8.15648 9.24873 8.14904 9.13288 8.11069 9.0261C8.10316 9.00514 8.07719 9.05986 8.07449 9.08201L8.07428 9.08378M8.07428 9.08378C8.07007 9.07725 8.06553 9.07092 8.06061 9.06481C8.03488 9.03278 8.02833 9.14322 8.02864 9.1846C8.02967 9.32295 8.04074 9.46108 8.05424 9.59887M8.07428 9.08378C8.06286 9.17961 8.05714 9.39068 8.05424 9.59887M8.05424 9.59887C8.05094 9.83515 8.05126 10.0677 8.05096 10.1239C8.04972 10.3547 8.04972 10.5855 8.04915 10.8163C8.04872 10.9917 8.04902 11.1672 8.04794 11.3427C8.04741 11.4302 8.05556 11.5184 8.04432 11.605C8.02501 11.7541 7.99907 11.308 7.97916 11.159C7.94269 10.8862 7.87198 10.3613 7.81988 10.0877C7.80227 9.99517 7.79591 9.89644 7.7517 9.81367C7.73949 9.79081 7.71108 9.85178 7.70765 9.87756C7.6883 10.023 7.68609 10.4312 7.68701 10.6779M7.68701 10.6779C7.6873 10.7535 7.68787 10.8139 7.68834 10.847C7.689 10.8931 7.70103 11.4764 7.72455 11.6186C7.75187 11.7838 7.72717 11.2833 7.7173 11.116C7.70964 10.9862 7.69923 10.8348 7.68701 10.6779ZM7.68701 10.6779C7.66623 10.411 7.6402 10.1279 7.61353 9.90705C7.59717 9.77158 7.54344 9.37469 7.5194 9.50897C7.50179 9.60735 7.51313 9.89068 7.52462 10.0946M7.52462 10.0946C7.53071 10.2027 7.53684 10.2885 7.53871 10.3125C7.56157 10.6056 7.6104 11.0435 7.65938 11.3433C7.69741 11.5761 7.71339 11.5432 7.69438 11.3237C7.66518 10.9864 7.59906 10.4968 7.53992 10.1761C7.5349 10.1489 7.52982 10.1217 7.52462 10.0946ZM7.52462 10.0946C7.49598 9.94484 7.46403 9.79562 7.42287 9.64903C7.39927 9.56501 7.40551 9.43409 7.32392 9.40699C7.26176 9.38634 7.28291 9.53521 7.28047 9.60173C7.27361 9.78904 7.28439 9.97678 7.29616 10.1638C7.30738 10.342 7.32236 10.5199 7.33952 10.6976M7.33952 10.6976C7.34775 10.7829 7.35649 10.8681 7.36555 10.9532L7.36564 10.9541C7.37588 11.0503 7.45966 11.8378 7.53388 12.0553C7.60149 12.2534 7.52119 11.6347 7.48562 11.4281C7.44177 11.1736 7.39422 10.9344 7.33952 10.6976ZM7.33952 10.6976C7.27949 10.4378 7.21085 10.181 7.12903 9.91012C7.11496 9.86353 7.09418 9.79559 7.0703 9.72301M7.0703 9.72301C7.03829 9.62567 7.00073 9.51997 6.96636 9.44619M7.0703 9.72301C7.13585 10.4338 7.19158 11.1525 7.18876 11.8655C7.18792 12.0796 7.17881 12.3282 7.10912 11.9564C7.0481 11.6309 6.9902 11.0836 6.95435 10.7231M7.0703 9.72301C7.06323 9.64624 7.05603 9.56956 7.04879 9.49299C7.02959 9.29019 6.9684 8.68665 6.95225 8.88972C6.94458 8.98619 6.95375 9.218 6.96636 9.44619M6.96636 9.44619C6.92448 9.35626 6.88734 9.31375 6.8708 9.39163C6.83089 9.57947 6.93946 10.5717 6.94018 10.5791C6.9444 10.6224 6.94914 10.6708 6.95435 10.7231M6.96636 9.44619C6.9805 9.70176 6.99896 9.9528 7.00293 10.0041C7.04226 10.5121 7.08315 10.8755 7.13808 11.3728C7.15191 11.498 7.20305 11.8716 7.17549 11.7488C7.099 11.4079 7.02832 11.0651 6.95435 10.7231M6.35644 9.59722C6.36358 9.97894 6.37683 10.3381 6.39337 10.7063M6.35644 9.59722C6.42985 9.92128 6.50075 10.2816 6.50697 10.3125C6.59728 10.7616 6.72068 11.3936 6.77909 11.8637C6.79459 11.9884 6.85179 12.456 6.71272 12.0148C6.60512 11.6734 6.4782 11.1031 6.39337 10.7063M6.35644 9.59722C6.30893 9.38751 6.26038 9.19298 6.22762 9.11272C6.20388 9.05457 6.19355 9.08082 6.19075 9.14737M6.39337 10.7063C6.40141 10.8852 6.41022 11.0663 6.41949 11.253C6.42115 11.2867 6.42288 11.3203 6.42464 11.3539M6.39337 10.7063C6.37704 10.6299 6.36227 10.5599 6.3495 10.4993C6.34639 10.4845 6.34333 10.4699 6.34031 10.4556M6.42464 11.3539C6.42899 11.4366 6.4336 11.5193 6.43826 11.602M6.42464 11.3539C6.43102 11.4365 6.43591 11.5192 6.43826 11.602M6.42464 11.3539C6.40897 11.1507 6.38432 10.9478 6.36639 10.745C6.35786 10.6485 6.34923 10.552 6.34031 10.4556M6.43826 11.602C6.44521 11.7255 6.45226 11.8489 6.4587 11.9724C6.4635 12.0643 6.49008 12.1582 6.47137 12.2482C6.4569 12.3179 6.45314 12.1071 6.44543 12.0363C6.42096 11.8116 6.39928 11.5865 6.37484 11.3618C6.31253 10.789 6.25808 10.3015 6.18237 9.73319C6.17033 9.6429 6.14151 9.45913 6.12084 9.32821M6.43826 11.602C6.44003 11.6642 6.44035 11.7265 6.43879 11.7887C6.43349 12.0004 6.37941 11.3696 6.35734 11.159C6.32143 10.8166 6.27583 10.3634 6.24155 9.97108M6.12084 9.32821C6.10185 9.2079 6.08976 9.13221 6.10393 9.2147C6.10986 9.24921 6.11564 9.28271 6.1213 9.31537M6.12084 9.32821C6.12099 9.32393 6.12114 9.31965 6.1213 9.31537M6.12084 9.32821C6.11638 9.45716 6.11698 9.58634 6.116 9.71538C6.1143 9.9377 6.11827 10.8217 6.11841 11.0595C6.11848 11.1734 6.11955 11.5143 6.10755 11.4011C5.99239 10.3142 6.18433 11.8584 6.00498 10.3469C5.97739 10.1144 5.87627 9.33501 5.82156 9.06665C5.74284 8.68049 5.73939 9.06969 5.73468 9.21409C5.70858 10.0129 5.72502 10.8151 5.72502 11.6143C5.72502 11.7491 5.72911 12.152 5.71054 12.0185C5.6574 11.6364 5.62892 11.2511 5.58927 10.8672C5.53569 10.3486 5.4853 9.82961 5.42998 9.31115C5.41729 9.19224 5.41698 9.07084 5.38835 8.95484C5.37855 8.91516 5.37349 9.03558 5.37206 9.07648C5.36273 9.34336 5.36784 10.1464 5.36904 10.3346C5.3696 10.4218 5.37022 10.5235 5.37109 10.6327M6.1213 9.31537C6.1635 9.55868 6.19926 9.75529 6.24155 9.97108M6.1213 9.31537C6.12243 9.28508 6.12385 9.2548 6.12565 9.22453C6.12885 9.17069 6.12261 9.02243 6.15461 9.06542C6.17275 9.08979 6.18372 9.11766 6.19075 9.14737M6.24155 9.97108C6.27015 10.117 6.30173 10.2717 6.34031 10.4556M6.24155 9.97108C6.23181 9.85955 6.22298 9.75294 6.21555 9.65517C6.20662 9.53764 6.1855 9.27192 6.19075 9.14737M6.34031 10.4556C6.32471 10.2869 6.30821 10.1184 6.28976 9.95005C6.26747 9.7467 6.24342 9.54344 6.21253 9.34125C6.20296 9.27856 6.20533 9.209 6.19075 9.14737M5.37109 10.6327C5.37363 10.9513 5.37828 11.334 5.38956 11.6075C5.39211 11.6695 5.38384 11.8511 5.40524 11.793C5.43279 11.7182 5.4109 11.6333 5.40947 11.5534C5.40607 11.3637 5.40007 11.1741 5.39076 10.9846C5.38633 10.8944 5.3795 10.7714 5.37109 10.6327ZM5.37109 10.6327C5.3473 10.2401 5.31094 9.7212 5.28095 9.46105C5.24416 9.14189 5.20456 8.9402 5.16993 9.4119C5.16628 9.46168 5.16284 9.52051 5.15962 9.58614M5.15962 9.58614C5.13637 10.0594 5.12433 10.8862 5.12408 11.2229C5.12391 11.4474 5.12658 11.672 5.13615 11.8962C5.14027 11.9929 5.13564 12.093 5.16511 12.185C5.21356 12.3362 5.22211 11.8709 5.22786 11.7119C5.24297 11.2939 5.24281 10.5177 5.23751 10.1233C5.23398 9.86069 5.24301 9.0801 5.18924 9.33695C5.17209 9.41888 5.16458 9.50233 5.15962 9.58614ZM5.15962 9.58614C5.1551 9.66238 5.15268 9.73893 5.14701 9.8149C5.12914 10.0543 5.11655 10.2941 5.09994 10.5337C5.08126 10.8032 5.05668 11.1989 5.01789 11.4871L5.01727 11.4917C5.00817 11.5594 4.98507 11.7314 4.96238 11.6726C4.94037 11.6156 4.9396 11.5522 4.93281 11.4914C4.91666 11.3465 4.90481 11.2012 4.8936 11.0558C4.86063 10.6284 4.82645 10.0545 4.80189 9.6306C4.79108 9.44408 4.78184 9.25747 4.77112 9.07095C4.76616 8.98471 4.77095 8.89713 4.75482 8.81232C4.74584 8.76504 4.74996 8.90853 4.74939 8.95669C4.74755 9.11374 4.74774 9.27081 4.74758 9.42787C4.74751 9.49683 4.74745 9.56578 4.74739 9.63474M4.74739 9.63474C4.74686 10.2454 4.74707 10.8562 4.75422 11.4668C4.75564 11.5881 4.76329 11.9517 4.7687 11.8305C4.7798 11.5819 4.77563 10.9582 4.77413 10.8058C4.77024 10.41 4.76437 10.0258 4.74739 9.63474ZM10.2538 9.27429C10.0188 9.27429 9.78282 9.28214 9.54849 9.26139C9.26954 9.23669 8.99336 9.21997 8.71405 9.2061C8.56429 9.19866 8.41672 9.16732 8.26757 9.15266C8.1595 9.14203 8.0447 9.15564 7.93813 9.13668C7.75095 9.10338 7.57185 9.05933 7.38124 9.04208C7.25371 9.03053 7.13578 9.0089 7.00655 9.0089M3.35745 8.57765C3.37582 8.40747 3.38977 8.23974 3.40331 8.06898C3.41435 7.92976 3.44604 7.7951 3.45761 7.65616C3.46766 7.53538 3.50998 7.42071 3.51794 7.29985C3.5257 7.18212 3.52036 7.06276 3.52036 6.94477C3.52036 6.82859 3.53207 6.72373 3.55173 6.60934C3.55962 6.56347 3.56614 6.51705 3.5718 6.47033M3.5718 6.47033C3.58854 6.33207 3.59769 6.19117 3.61207 6.05399C3.63517 5.83362 3.64377 5.60911 3.65008 5.38745C3.65066 5.36706 3.64955 5.2624 3.64986 5.16357M3.5718 6.47033C3.53657 6.57197 3.47144 6.68608 3.37616 6.58907C3.30807 6.51974 3.33175 6.35288 3.34056 6.26532C3.35746 6.09723 3.37697 5.92903 3.38762 5.76034C3.39486 5.64574 3.38736 5.53251 3.40089 5.41816C3.40868 5.35232 3.41195 5.28641 3.41718 5.22035C3.41864 5.20199 3.416 5.16127 3.42925 5.14479C3.47155 5.09215 3.59771 5.14324 3.64224 5.16076C3.64472 5.16174 3.64727 5.16268 3.64986 5.16357M3.5718 6.47033C3.58618 6.42884 3.59557 6.38942 3.6 6.3673C3.64072 6.16388 3.65557 5.9559 3.69292 5.75174C3.73998 5.49449 3.69418 5.75805 3.72852 5.57297C3.73221 5.55309 3.72996 5.4959 3.73998 5.51339C3.79386 5.60742 3.80975 5.79932 3.82686 5.89058C3.87907 6.16906 3.9251 6.44862 3.9654 6.72908M3.64986 5.16357C3.65017 5.06605 3.65186 4.97421 3.65792 4.97462C3.92506 4.99275 4.19418 5.09578 4.45315 5.15585C4.4978 5.1662 4.54247 5.17633 4.58719 5.1862M3.64986 5.16357C3.71898 5.18737 3.82618 5.18232 3.89806 5.18288C4.12613 5.18464 4.35805 5.17282 4.58719 5.1862M4.58719 5.1862C4.78063 5.22888 4.97479 5.26675 5.17054 5.29776C5.20792 5.30368 5.24535 5.31003 5.28283 5.31634M4.58719 5.1862C4.68763 5.19206 4.78754 5.20277 4.88636 5.22158C5.10435 5.26308 5.32446 5.28592 5.54281 5.32663C5.60492 5.33821 5.66895 5.35201 5.73338 5.36267M5.28283 5.31634C5.2857 5.31683 5.28857 5.31731 5.29144 5.31779M5.28283 5.31634C5.27779 5.32216 5.27726 5.34251 5.27673 5.34445C5.16764 5.7443 5.10687 6.14831 5.05047 6.55958C4.98065 7.06871 4.88498 7.57557 4.82723 8.08618C4.78926 8.42185 4.77389 8.75853 4.76931 9.09614C4.76846 9.15865 4.78287 9.33717 4.75241 9.28289C4.73954 9.25995 4.74705 9.20937 4.74758 9.18583C4.75375 8.91279 4.78365 8.64102 4.78861 8.36755C4.79564 7.98047 4.79103 7.59298 4.79103 7.20586C4.79103 6.59214 4.776 5.98469 4.68966 5.37639C4.68755 5.36151 4.67817 5.28583 4.66734 5.25783C4.66624 5.25499 4.66357 5.25081 4.6607 5.25168C4.65295 5.25405 4.65301 5.26621 4.64984 5.2738C4.63486 5.30964 4.61925 5.34559 4.60881 5.38315C4.57776 5.49487 4.56244 5.61171 4.54365 5.72594C4.49148 6.04317 4.42011 6.35606 4.36144 6.672C4.33152 6.8331 4.30507 6.99464 4.28233 7.15661M5.28283 5.31634C5.28424 5.31472 5.28599 5.31423 5.28819 5.31557C5.28932 5.31626 5.2904 5.317 5.29144 5.31779M5.29144 5.31779C5.41 5.33771 5.52908 5.3568 5.649 5.3598C5.67715 5.36051 5.70527 5.36153 5.73338 5.36267M5.29144 5.31779C5.30819 5.33048 5.31506 5.35602 5.32077 5.37332C5.36309 5.50148 5.38256 5.64114 5.39559 5.77509C5.42681 6.09592 5.41007 6.42408 5.41007 6.74572C5.41007 6.87551 5.41044 7.00533 5.41077 7.13516M5.73338 5.36267C5.79132 5.36502 5.84921 5.36789 5.90718 5.36966M5.73338 5.36267C5.7906 5.37213 5.84814 5.37912 5.90494 5.37987M5.90718 5.36966C5.92368 5.37016 5.94019 5.37058 5.95671 5.37086C5.99488 5.37152 5.95 5.37913 5.94102 5.37946C5.92904 5.3799 5.917 5.38002 5.90494 5.37987M5.90718 5.36966C5.90642 5.37306 5.90568 5.37646 5.90494 5.37987M5.90718 5.36966C5.93778 5.23162 5.97981 5.09253 6.04842 4.98015C6.05349 4.97185 6.06753 4.95586 6.07256 4.96418C6.08623 4.9868 6.10131 5.09413 6.10152 5.09564C6.1631 5.54921 6.16684 6.01234 6.17995 6.46928C6.19203 6.88986 6.19202 7.31036 6.19202 7.73107V7.75076C6.19202 7.83342 6.19236 7.91607 6.19241 7.9987M5.90494 5.37987C5.88721 5.46128 5.87332 5.54209 5.86017 5.61659C5.83957 5.73332 5.82473 5.85086 5.81409 5.96891M3.9654 6.72908C3.97989 6.82994 3.99364 6.93091 4.00666 7.032C4.01461 7.09365 4.02287 7.15539 4.03105 7.21721M3.9654 6.72908C3.91476 6.99757 3.86885 7.26782 3.84134 7.53882C3.80955 7.85205 3.81239 8.168 3.81338 8.48274M3.9654 6.72908C3.98443 6.62813 4.00414 6.52744 4.02378 6.42704L4.02718 6.40969C4.08577 6.11022 4.16672 5.81584 4.22447 5.51646C4.2349 5.46243 4.24289 5.40571 4.2474 5.35059C4.24951 5.3249 4.24981 5.31741 4.25525 5.37025C4.28919 5.70015 4.29033 6.03354 4.29145 6.36484C4.29234 6.62975 4.28941 6.89342 4.28233 7.15661M4.03105 7.21721C4.05867 7.42592 4.08539 7.63552 4.09596 7.84537C4.10495 8.0239 4.09531 7.48781 4.09777 7.30906C4.10247 6.96777 4.12786 6.6304 4.14906 6.29051C4.15008 6.27408 4.1474 6.22522 4.14423 6.24136C4.13826 6.27176 4.13594 6.32159 4.13457 6.34764C4.12481 6.53362 4.1041 6.71425 4.07786 6.89931C4.06282 7.00537 4.04721 7.11134 4.03105 7.21721ZM4.03105 7.21721C3.97091 7.61131 3.90321 8.00411 3.82928 8.39581C3.8238 8.42481 3.81849 8.45378 3.81338 8.48274M3.81338 8.48274C3.78941 8.61851 3.76991 8.75411 3.75929 8.89218C3.75359 8.96618 3.749 9.04033 3.74843 9.11457C3.74814 9.15129 3.73965 9.2044 3.75506 9.23928C3.76753 9.26749 3.78935 9.24939 3.79609 9.22699C3.81141 9.17609 3.81064 9.10758 3.81178 9.05928C3.81444 8.94639 3.81359 8.69335 3.81359 8.5973C3.81359 8.55914 3.8135 8.52095 3.81338 8.48274ZM4.28233 7.15661C4.26948 7.6341 4.24299 8.10998 4.20094 8.5887C4.19286 8.68079 4.18693 8.77268 4.18262 8.86454M4.28233 7.15661C4.22642 7.55469 4.1929 7.95536 4.18526 8.35833C4.18205 8.52705 4.18218 8.6958 4.18262 8.86454M4.18262 8.86454C4.17419 9.04447 4.17198 9.22427 4.17198 9.40514C4.17198 9.48923 4.18199 9.36424 4.18224 9.33818C4.18373 9.18031 4.18304 9.02243 4.18262 8.86454ZM5.41077 7.13516C5.41163 7.47472 5.41223 7.81436 5.40524 8.15376C5.40099 8.36065 5.38669 8.56579 5.36904 8.77177C5.36289 8.84356 5.3637 8.9194 5.35094 8.99047C5.33759 9.06484 5.33409 8.95109 5.33405 8.94624C5.33277 8.81321 5.33321 8.67996 5.33405 8.54693C5.33587 8.25798 5.35122 7.97015 5.37146 7.68196C5.38421 7.50039 5.3951 7.31754 5.41077 7.13516ZM5.41077 7.13516C5.43366 6.86877 5.46675 6.60341 5.53074 6.34457C5.57318 6.17289 5.62687 6.00366 5.67856 5.83468C5.69635 5.77653 5.71157 5.71513 5.74071 5.66144C5.74611 5.65148 5.76599 5.60537 5.7745 5.63686C5.80244 5.74032 5.81107 5.85472 5.81409 5.96891M5.81409 5.96891C5.81663 6.06473 5.81521 6.16041 5.81794 6.24935C5.83734 6.8826 5.83438 7.52241 5.80105 8.15499C5.79777 8.2171 5.794 8.27931 5.79016 8.34157M5.81409 5.96891C5.77814 6.36783 5.79018 6.77258 5.79018 7.17145V8.31901C5.79018 8.32615 5.79018 8.33368 5.79016 8.34157M5.79016 8.34157C5.7748 8.5909 5.75842 8.84121 5.76907 9.09061C5.77974 9.34054 5.78962 8.6183 5.79016 8.34157ZM6.19241 7.9987C6.19257 8.26086 6.18983 8.52278 6.16427 8.78406C6.15044 8.92536 6.13145 9.06585 6.12746 9.20794C6.12432 9.3197 6.12686 9.14162 6.12686 9.13545C6.12686 8.8309 6.13317 8.52972 6.16547 8.22625C6.17356 8.15026 6.18262 8.07442 6.19241 7.9987ZM6.19241 7.9987C6.2455 7.58793 6.3201 7.18042 6.37785 6.7703C6.4111 6.53423 6.439 6.2978 6.47801 6.06259C6.49806 5.9417 6.51702 5.82111 6.56067 5.70628C6.57046 5.68053 6.58464 5.63065 6.60894 5.61352C6.64011 5.59155 6.63811 5.68578 6.64273 5.7241C6.67045 5.95434 6.67146 6.18924 6.68134 6.42075C6.69581 6.75953 6.70413 7.09838 6.70869 7.43736M6.70869 7.43736C6.71022 7.55123 6.71134 7.66512 6.71211 7.77902C6.71484 8.17871 6.70094 8.56732 6.66505 8.96406C6.66332 8.98323 6.66316 9.10535 6.65178 8.99477C6.62781 8.76181 6.61116 8.52702 6.61558 8.2926C6.62098 8.0054 6.6607 7.72048 6.70869 7.43736ZM6.70869 7.43736C6.72873 7.31914 6.75021 7.20123 6.77124 7.0836C6.8518 6.63304 6.94109 6.18444 7.04758 5.73946C7.07168 5.63874 7.08916 5.49507 7.13688 5.39789C7.1387 5.39418 7.14707 5.38713 7.15015 5.39666C7.18605 5.50762 7.17985 5.67828 7.18454 5.78492C7.22326 6.66476 7.20204 7.54845 7.20204 8.42898C7.20204 8.60433 7.19898 8.78011 7.20264 8.95546C7.20361 9.00162 7.20651 9.04512 7.22135 9.08877C7.23424 9.1267 7.22274 9.00849 7.22376 8.96836C7.23457 8.54374 7.28359 8.11956 7.34926 7.70039C7.42509 7.21636 7.54484 6.74269 7.6618 6.26778C7.71633 6.04631 7.76248 5.81899 7.83315 5.60185C7.86148 5.51481 7.86099 5.61474 7.86573 5.65468C7.90525 5.98777 7.91799 6.32327 7.92486 6.65849C7.92559 6.69428 7.92625 6.73007 7.92683 6.76586M7.92683 6.76586C7.92953 6.93273 7.93063 7.09962 7.93088 7.26651M7.92683 6.76586C7.9218 6.92239 7.9213 7.07919 7.92003 7.23534C7.91989 7.25332 7.91976 7.2713 7.91966 7.28927M7.92683 6.76586C7.93503 6.51052 7.95528 6.25591 8.01054 6.00608C8.04149 5.86613 8.08025 5.72446 8.12879 5.58956C8.13198 5.58071 8.14338 5.55686 8.14448 5.56622C8.15239 5.63332 8.14722 5.70137 8.1469 5.76895C8.145 6.16321 8.13274 6.5572 8.10283 6.94952M7.93088 7.26651C7.9313 7.54897 7.92929 7.83146 7.92847 8.11393M7.93088 7.26651C7.92715 7.2741 7.92341 7.28169 7.91966 7.28927M7.93088 7.26651C7.97484 7.17703 8.0176 7.08707 8.06061 6.99698C8.07098 6.97527 8.09465 6.91415 8.10104 6.93739C8.10213 6.94138 8.10267 6.94543 8.10283 6.94952M7.92847 8.11393C7.92834 8.15878 7.92824 8.20364 7.92818 8.24849M7.92847 8.11393C7.92886 8.12986 7.92927 8.1458 7.92969 8.16175C7.93029 8.18491 7.93092 8.20809 7.93155 8.23127M7.92847 8.11393C7.92166 7.83895 7.91811 7.56435 7.91966 7.28927M7.92818 8.24849C7.92797 8.41965 7.9284 8.59081 7.93029 8.76194L7.93033 8.76523C7.9309 8.8175 7.93138 8.86084 7.93512 8.91184C7.93714 8.93949 7.93911 8.95439 7.93994 8.91491C7.94475 8.68727 7.93778 8.45894 7.93155 8.23127M7.92818 8.24849C7.92931 8.24275 7.93043 8.23701 7.93155 8.23127M7.92818 8.24849C7.82247 8.78766 7.69634 9.32296 7.56224 9.85544C7.54584 9.92056 7.51631 9.7289 7.50251 9.66316C7.44307 9.38002 7.39394 9.08573 7.40778 8.79512C7.43167 8.29353 7.6553 7.81176 7.8778 7.37295C7.89191 7.34512 7.90585 7.31722 7.91966 7.28927M7.93155 8.23127C7.936 8.20851 7.9404 8.18575 7.94477 8.16298C8.0132 7.80633 8.06027 7.44706 8.09167 7.08626M8.10283 6.94952C8.10226 6.95701 8.10168 6.96449 8.1011 6.97198M8.10283 6.94952C8.10312 6.95691 8.10219 6.96444 8.1011 6.97198M8.1011 6.97198C8.09813 7.01009 8.09499 7.04818 8.09167 7.08626M8.1011 6.97198C8.10016 6.9785 8.0991 6.98502 8.09863 6.99146L8.09824 6.99669C8.09565 7.0315 8.09354 7.05996 8.09167 7.08626M8.09167 7.08626C8.08713 7.15044 8.08408 7.20176 8.07932 7.30108C8.05894 7.72646 8.05111 8.15181 8.04915 8.57765C8.04753 8.93005 8.03437 9.28319 8.03708 9.63552C8.03742 9.67884 8.06478 9.85211 8.10526 9.70678C8.18332 9.42651 8.18396 9.11135 8.2012 8.82338C8.23597 8.24227 8.26314 7.66019 8.2736 7.07808C8.27957 6.74592 8.27464 6.4138 8.27782 6.08164C8.27884 5.97557 8.28274 5.88252 8.31583 5.78246C8.3219 5.76411 8.32556 5.75291 8.32911 5.73454C8.33059 5.72686 8.32388 5.71206 8.33152 5.7112C8.35024 5.70908 8.3458 5.74678 8.35083 5.76526C8.37304 5.84688 8.3978 5.95572 8.41117 6.03556C8.46941 6.38352 8.47889 6.73789 8.49443 7.08975C8.51133 7.47233 8.52002 7.85446 8.52761 8.23731C8.52936 8.32511 8.51207 8.48456 8.55476 8.5715C8.55937 8.58089 8.56523 8.58911 8.57648 8.58256C8.61692 8.55904 8.60233 8.44563 8.60243 8.44372C8.63661 7.80342 8.62695 7.16163 8.6694 6.5215C8.6889 6.22742 8.73708 5.93607 8.74422 5.64117C8.74633 5.55403 8.75048 5.5763 8.76232 5.66205C8.81201 6.02203 8.8628 6.38227 8.90471 6.74327C8.96136 7.23119 9.0055 7.72188 9.02079 8.2132M9.02079 8.2132C9.02457 8.33486 9.02659 8.45656 9.02659 8.57826C9.02659 8.99513 9.02334 8.7367 9.02079 8.2132ZM9.02079 8.2132C9.01704 7.44398 9.01479 6.10246 9.02659 5.49004C9.03423 5.09338 9.13246 6.27707 9.15329 6.67323C9.18995 7.37009 9.15793 8.0694 9.17019 8.76686C9.17232 8.8884 9.17374 9.01198 9.18708 9.133C9.19509 9.20566 9.22371 8.99136 9.23535 8.91921C9.32972 8.33433 9.40256 7.74604 9.47911 7.15855C9.55016 6.61317 9.63208 6.06775 9.67339 5.51891C9.67822 5.45472 9.66929 5.26933 9.69692 5.32724C9.71909 5.37372 9.72415 5.47392 9.72648 5.50294C9.74471 5.72983 9.74786 5.94021 9.75122 6.1701C9.75956 6.74046 9.75424 7.31121 9.75424 7.88161C9.75424 8.08275 9.75373 8.48988 9.75544 8.70665C9.75666 8.85973 9.75366 9.01839 9.77354 9.17109C9.77525 9.18419 9.78234 9.22223 9.7844 9.20917C9.79637 9.13345 9.79249 9.056 9.79647 8.97942C9.8223 8.4823 9.86783 7.98866 9.92197 7.49397C9.97694 6.99168 10.0183 6.48461 10.0957 5.98519C10.1006 5.95408 10.0992 5.91933 10.1163 5.89304C10.1232 5.88234 10.1308 5.91485 10.1331 5.92744C10.1676 6.11144 10.1733 6.30637 10.188 6.49262C10.2163 6.84896 10.237 7.20484 10.241 7.5611M10.241 7.5611C10.2438 7.81201 10.2383 8.06312 10.2212 8.31471C10.2166 8.38265 10.2257 8.45442 10.2019 8.51806C10.1775 8.58331 10.2018 8.37835 10.2043 8.30857C10.2136 8.0595 10.2251 7.81016 10.241 7.5611ZM10.241 7.5611C10.267 7.15426 10.3047 6.74817 10.3636 6.34518C10.3907 6.15988 10.4203 5.97464 10.4505 5.78983C10.4648 5.70241 10.4691 5.72479 10.4807 5.81195C10.584 6.58725 10.5579 7.3801 10.5579 8.16052C10.5579 8.26407 10.5534 8.36959 10.5585 8.47321C10.5639 8.58298 10.5848 8.25503 10.5965 8.14577C10.6643 7.51273 10.7623 6.88357 10.83 6.25058C10.8574 5.99443 10.8595 5.92465 10.8765 5.68417C10.8808 5.62354 10.8837 5.56279 10.8898 5.50233C10.8996 5.40513 10.9054 5.46334 10.9103 5.52567C10.9439 5.95291 10.9609 6.38512 10.9659 6.81418M10.9659 6.81418C10.9664 6.852 10.9667 6.8898 10.967 6.92756C10.9702 7.38568 10.9123 7.83373 10.8729 8.28891C10.854 8.50639 10.8505 8.58267 10.8427 8.78652C10.8408 8.83573 10.8406 8.93059 10.8403 8.78652C10.8392 8.23967 10.8497 7.70235 10.9199 7.15917C10.9348 7.04407 10.9503 6.9291 10.9659 6.81418ZM10.9659 6.81418C11.0084 6.50173 11.0518 6.18958 11.0864 5.87584C11.0974 5.77624 11.101 5.67531 11.1214 5.57728C11.1228 5.57061 11.1281 5.55476 11.1323 5.56007C11.1434 5.57416 11.1436 5.59434 11.1486 5.61168C11.2607 6.00121 11.2385 6.45436 11.2488 6.85262C11.2626 7.38868 11.2618 7.92476 11.2644 8.46092L11.2645 8.48266C11.265 8.58156 11.2656 8.70355 11.2693 8.80372C11.272 8.87836 11.2736 8.84676 11.2801 8.77915C11.3259 8.30693 11.3658 7.83446 11.4255 7.36374C11.4803 6.93198 11.5442 6.50411 11.574 6.06935C11.5891 5.84727 11.5907 5.77252 11.5987 5.56806C11.6083 5.32207 11.6323 5.58853 11.6403 5.64977C11.7788 6.70187 11.751 7.76467 11.7526 8.82338L11.7526 8.83455C11.7526 8.88961 11.7528 9.05317 11.755 9.10842C11.756 9.13551 11.7599 9.05442 11.761 9.02733C11.7942 8.22919 11.8955 7.43754 11.9601 6.6419C11.9822 6.37018 11.9905 6.0983 12.0023 5.82608C12.0036 5.79719 11.9999 5.76742 12.0072 5.73946C12.0091 5.73204 12.0181 5.75105 12.0198 5.7585C12.0412 5.84746 12.0818 6.14302 12.0874 6.183C12.1801 6.83946 12.2322 7.49905 12.2273 8.15983M12.2273 8.15983C12.2249 8.49096 12.2081 8.82239 12.1749 9.15388C12.1734 9.1693 12.1712 9.18464 12.1689 9.19996C12.1682 9.20463 12.1698 9.19055 12.1701 9.18583C12.1852 8.95112 12.1748 9.10336 12.1918 8.7644C12.2019 8.5626 12.2137 8.36111 12.2273 8.15983ZM12.2273 8.15983C12.2604 7.66884 12.3038 7.17911 12.3571 6.68921C12.3748 6.52717 12.3863 6.36176 12.4102 6.2002C12.4209 6.1282 12.4297 6.23191 12.4337 6.24873C12.4567 6.34508 12.4919 6.43687 12.5116 6.5344C12.541 6.68011 12.5589 6.82855 12.5816 6.97548C12.61 7.16048 12.5997 7.349 12.5997 7.53575C12.5997 7.66402 12.6069 7.7948 12.5973 7.92277C12.5861 8.0707 12.5333 8.2112 12.5248 8.35895C12.5191 8.46052 12.5441 8.5609 12.5375 8.66119C12.5362 8.68064 12.529 8.70526 12.5238 8.72939M12.5238 8.72939C12.5193 8.74996 12.5162 8.77017 12.5194 8.78652C12.5236 8.80789 12.5239 8.76468 12.5238 8.72939ZM12.5238 8.72939C12.5237 8.71755 12.5236 8.7066 12.5236 8.69928M3.43347 4.91749C3.41362 4.76471 3.36831 4.6149 3.36831 4.46043V4.15204C3.36831 3.9622 3.36388 3.7717 3.36892 3.58194C3.37102 3.5026 3.37346 3.41481 3.38521 3.33621C3.39671 3.25921 3.42261 3.1997 3.42261 3.12058V2.24763C3.42261 2.10253 3.44434 1.95992 3.44434 1.81575C3.44434 1.74633 3.46756 1.68737 3.47571 1.62101C3.48157 1.57329 3.47583 1.53003 3.49321 1.48402C3.49705 1.47385 3.4957 1.46156 3.49984 1.45207C3.51239 1.42332 3.79533 1.45354 3.8148 1.45392C4.0006 1.45747 4.18646 1.45637 4.3723 1.45637C4.49047 1.45637 4.61672 1.46972 4.7325 1.44286C4.86701 1.41165 4.98973 1.38215 5.12649 1.36668C5.15602 1.36334 5.18158 1.34793 5.21036 1.34149C5.26953 1.32827 5.33435 1.33474 5.39438 1.33474H6.29821C6.70287 1.33474 7.10733 1.32368 7.51216 1.32368H8.12698C8.35233 1.32368 8.55547 1.35796 8.77439 1.40477C8.97679 1.44805 9.1895 1.44532 9.39584 1.44532C9.41238 1.44532 9.46017 1.43638 9.46583 1.45699C9.48131 1.51326 9.47187 1.58161 9.47187 1.63944V1.91835C9.47187 2.23369 9.47362 2.54908 9.47187 2.86441C9.47023 3.15848 9.44109 3.4508 9.45075 3.74597C9.45775 3.95976 9.4822 4.28705 9.66192 4.43463C9.70099 4.46671 9.75733 4.4755 9.80251 4.49729C9.85614 4.52316 9.92339 4.55123 9.9811 4.56364C10.1888 4.60828 10.4046 4.64104 10.617 4.64104C11.0657 4.64104 11.5197 4.6055 11.968 4.63121C12.0756 4.63739 12.1789 4.66316 12.2871 4.66316C12.3502 4.66316 12.4075 4.67704 12.4693 4.68773C12.5001 4.69304 12.5802 4.68657 12.5864 4.72828C12.6038 4.84649 12.5545 4.95488 12.5429 5.06861C12.512 5.37318 12.4638 5.67249 12.4862 5.97966C12.4903 6.03553 12.5177 6.19932 12.4971 6.14737C12.4475 6.02244 12.4296 5.86584 12.4193 5.7327C12.4116 5.63343 12.4357 5.53534 12.4295 5.43598C12.4228 5.32831 12.3702 5.25598 12.2944 5.18472C12.1736 5.07122 12.0956 5.06713 11.9565 5.14602C11.8232 5.22162 11.7438 5.32962 11.6868 5.47223C11.6699 5.51451 11.66 5.55961 11.6415 5.60123C11.619 5.65207 11.6004 5.49748 11.5872 5.44335L11.5861 5.43881C11.5572 5.31992 11.5212 5.17168 11.4859 5.05633C11.4754 5.02217 11.423 4.7764 11.3387 4.77988C11.3042 4.7813 11.2567 4.84217 11.2409 4.85913C11.1892 4.91477 11.1383 4.97144 11.0877 5.02807C10.9147 5.22137 10.7609 5.42973 10.576 5.61229L10.5736 5.6147C10.5445 5.64339 10.4523 5.7345 10.4047 5.75789C10.33 5.79451 10.3588 5.61647 10.36 5.60431C10.3807 5.39351 10.4502 5.196 10.5241 4.99981C10.5343 4.97271 10.5746 4.92738 10.5483 4.91626C10.5329 4.90977 10.4483 4.96487 10.4052 4.99407C10.3882 5.00557 10.3711 5.01677 10.3535 5.02726C10.2067 5.11478 10.059 5.19941 9.92076 5.30083C9.87245 5.33628 9.78192 5.43729 9.74157 5.34997C9.71273 5.28759 9.68199 5.22462 9.67821 5.15462C9.67544 5.10328 9.67689 5.09537 9.62089 5.08397C9.50896 5.06118 9.42339 5.08455 9.40791 4.94268C9.40502 4.91619 9.40805 4.89579 9.41548 4.88034M9.41548 4.88034C9.45404 4.80019 9.61112 4.85306 9.6758 4.8794C9.74561 4.90783 9.81191 4.9254 9.88516 4.9396C9.89473 4.94146 9.75132 4.96793 9.73252 4.96786C9.6211 4.96745 9.51513 4.93062 9.41548 4.88034ZM9.41548 4.88034C9.35898 4.85183 9.30452 4.819 9.25224 4.78602C9.20291 4.7549 9.15898 4.72532 9.12171 4.69271M9.12171 4.69271C9.05183 4.63159 9.00533 4.55986 8.99039 4.44753C8.96274 4.23979 8.96399 4.02585 8.95539 3.81662C8.94716 3.61647 8.93124 3.4175 8.9204 3.21765C8.90342 2.90484 8.93971 2.5872 8.93971 2.27343V1.94353C8.93971 1.90767 8.93871 1.85384 8.96384 1.91835C9.02206 2.06778 9.06411 2.23168 9.07968 2.39138C9.13297 2.93782 9.14492 3.4939 9.14605 4.04269C9.1465 4.26079 9.1361 4.47673 9.12171 4.69271ZM9.12171 4.69271C9.11888 4.73516 9.1159 4.7776 9.11282 4.82007M9.11282 4.82007C9.10582 4.9164 9.09831 5.01282 9.09087 5.10954M9.11282 4.82007C9.10658 4.80347 9.10046 4.78858 9.09477 4.77681C9.0925 4.77212 9.0847 4.76134 9.0833 4.76636C9.06681 4.82589 9.081 4.89004 9.08089 4.95189C9.08081 4.9958 9.08111 5.03979 9.08157 5.08383M9.11282 4.82007C9.13711 4.88474 9.16314 4.97532 9.1726 5.00841C9.20448 5.11986 9.2561 5.30602 9.27095 5.42492C9.2744 5.45259 9.28951 5.52394 9.26672 5.50847C9.22433 5.4797 9.21343 5.41966 9.19312 5.37209C9.15625 5.28575 9.12296 5.19787 9.09087 5.10954M9.09087 5.10954C9.09016 5.11883 9.08945 5.12812 9.08873 5.13742C9.08679 5.16284 9.08499 5.19598 9.08338 5.23335M9.09087 5.10954C9.08776 5.10097 9.08466 5.0924 9.08157 5.08383M9.08338 5.23335C9.07432 5.44331 9.07098 5.78669 9.07848 5.64362C9.08561 5.50741 9.08499 5.37032 9.08338 5.23335ZM9.08338 5.23335C9.0828 5.18347 9.08208 5.13362 9.08157 5.08383M9.08157 5.08383C9.07487 5.06525 9.06822 5.04666 9.06158 5.02807C8.96798 4.76569 8.84945 4.397 8.76594 4.12746C8.73818 4.03789 8.71202 3.9478 8.68569 3.85778C8.67381 3.81715 8.66463 3.77568 8.6513 3.73552C8.64942 3.72986 8.64459 3.71717 8.64044 3.72139C8.59754 3.76508 8.61588 3.84253 8.60846 3.90385C8.55629 4.33512 8.52205 4.76912 8.49322 5.20254C8.47801 5.43132 8.46405 5.67425 8.45343 5.91341M8.45343 5.91341C8.44805 6.0345 8.44352 6.15463 8.44013 6.27146C8.43789 6.34843 8.43719 6.42546 8.43832 6.50245C8.43918 6.56194 8.44838 6.38379 8.44918 6.3243C8.45101 6.18735 8.4524 6.05038 8.45343 5.91341ZM8.45343 5.91341C8.46031 4.99571 8.45099 4.07754 8.45099 3.1599C8.45099 2.69693 8.48562 2.22687 8.381 1.77337C8.34978 1.63805 8.20736 1.5406 8.09501 1.6763C7.98054 1.81456 8.00571 2.03805 8.00571 2.20401C8.00571 2.51617 8.02304 2.8256 8.0395 3.13717C8.052 3.37388 8.05195 3.61161 8.04674 3.84856C8.04123 4.09876 8.00005 4.34356 7.98037 4.59251C7.95384 4.92805 7.90813 5.24652 7.81686 5.57052C7.80231 5.62216 7.79242 5.70183 7.76135 5.74806C7.75312 5.76031 7.74876 5.75627 7.73601 5.74683C7.66296 5.69273 7.60795 5.5925 7.57491 5.51093C7.41262 5.11028 7.43512 4.64404 7.46209 4.22146C7.48685 3.83332 7.54163 3.45064 7.59422 3.06591C7.62942 2.80837 7.61473 2.54453 7.61473 2.2851C7.61473 2.16877 7.62645 1.95689 7.52725 1.87104C7.50802 1.8544 7.42116 1.78804 7.39391 1.79978C7.29942 1.84048 7.27308 2.05603 7.25755 2.1395C7.22572 2.3105 7.21697 2.48689 7.21411 2.66045C7.20551 3.18126 7.21618 3.70243 7.2129 4.2233C7.21083 4.55212 7.19627 4.87981 7.1411 5.20438C7.11676 5.34758 7.08953 5.50682 7.03069 5.64117C6.99563 5.7212 6.92695 5.49619 6.90519 5.41141C6.85312 5.20853 6.84204 5.08502 6.83097 4.8665C6.8109 4.46993 6.82192 4.07101 6.82192 3.67409V2.50323M6.82192 2.50323C6.84705 2.40023 6.86881 2.29651 6.88286 2.19111C6.89881 2.07157 6.90613 1.93215 6.85692 1.81883C6.83709 1.77316 6.82746 1.72775 6.82216 1.67999M6.82192 2.50323C6.76588 2.73303 6.69309 2.95925 6.65178 3.19246C6.56404 3.68771 6.56344 4.19075 6.51542 4.69019C6.49515 4.90099 6.46586 5.11233 6.42069 5.31926C6.41709 5.33576 6.34455 5.57421 6.33079 5.55147C6.30816 5.51408 6.29744 5.35404 6.297 5.34506C6.28073 5.01256 6.31195 4.67947 6.33924 4.34862C6.37841 3.87384 6.39837 3.40694 6.39837 2.93076C6.39837 2.54324 6.40923 2.15587 6.40923 1.76845C6.40923 1.74211 6.42869 1.49517 6.34588 1.53869C6.25944 1.58411 6.2292 1.76209 6.2071 1.84156C6.15591 2.02562 6.1313 2.21403 6.10996 2.40366C6.06014 2.84646 6.07322 3.29683 6.03877 3.74167C6.0068 4.15447 5.97651 4.58178 5.86862 4.98261L5.86676 4.98952C5.82853 5.1316 5.79023 5.27391 5.72744 5.40711C5.70086 5.46348 5.68623 5.54129 5.64659 5.45195C5.51247 5.14977 5.47685 4.79311 5.44748 4.4678C5.39688 3.90737 5.41007 3.34173 5.41007 2.77963V2.05473C5.41007 1.96246 5.40286 1.86648 5.41248 1.77459C5.41808 1.72117 5.4418 1.6904 5.47624 1.66918M6.82192 2.50323V1.75862C6.82192 1.73242 6.82205 1.70621 6.82216 1.67999M6.82216 1.67999C6.82234 1.63698 6.82247 1.59397 6.82192 1.55098C6.82183 1.54397 6.82259 1.52382 6.81951 1.53009C6.80888 1.55173 6.81659 1.60527 6.8177 1.6247C6.81878 1.64356 6.82016 1.66194 6.82216 1.67999ZM5.47624 1.66918C5.50103 1.65391 5.53138 1.64358 5.56453 1.6333C5.60549 1.6206 5.68737 1.58372 5.73166 1.60565C5.76446 1.6219 5.76786 1.63907 5.77599 1.68022L5.77631 1.68183C5.808 1.84208 5.80102 2.01663 5.79622 2.17882C5.78533 2.54672 5.70614 2.91561 5.65021 3.27785C5.59822 3.61453 5.54498 3.95064 5.50962 4.28965C5.50652 4.31941 5.50324 4.35101 5.50002 4.3835M5.47624 1.66918C5.50899 1.84819 5.49692 2.14405 5.49695 2.16653C5.49777 2.68134 5.49695 3.19615 5.49695 3.71095C5.49695 3.93441 5.50286 4.15933 5.50002 4.3835M5.47624 1.66918C5.46069 1.58419 5.43503 1.52554 5.39318 1.53501C5.22495 1.57307 5.15009 1.69632 5.10598 1.8606C5.03149 2.13802 5.01283 2.42349 5.00823 2.7096C4.99997 3.22407 4.98637 3.73835 4.97505 4.25279C4.96959 4.50098 4.96738 4.69528 4.95031 4.9396C4.93633 5.13977 4.90359 5.3364 4.88153 5.5355C4.87841 5.56365 4.89139 5.89497 4.83567 5.72041C4.71557 5.34415 4.6119 4.96217 4.52884 4.57571M5.50002 4.3835C5.49165 4.46791 5.48366 4.5583 5.48006 4.63797C5.47299 4.79457 5.49062 4.66873 5.49213 4.63981C5.49658 4.55457 5.49894 4.46909 5.50002 4.3835ZM4.52884 4.57571C4.45094 4.21326 4.39117 3.84685 4.35299 3.47751C4.30995 3.06123 4.30717 2.64142 4.4079 2.23411C4.43431 2.1273 4.47456 2.02808 4.5165 1.92695C4.53116 1.89159 4.54572 1.81615 4.57865 1.79057C4.72715 1.67517 4.74045 2.04773 4.74396 2.09159C4.77405 2.46688 4.73789 2.84643 4.69871 3.21949C4.66885 3.50384 4.64313 3.78928 4.60157 4.07218L4.59678 4.10477C4.57371 4.26174 4.55066 4.41864 4.52884 4.57571ZM4.52884 4.57571C4.50745 4.72974 4.48725 4.88393 4.4694 5.03854C4.46902 5.0418 4.46867 5.04505 4.46833 5.04831C4.46516 5.07873 4.44806 5.24192 4.44229 5.27073C4.42262 5.36885 4.38251 5.22886 4.37833 5.21237C4.29212 4.87234 4.27916 4.50413 4.25163 4.15572C4.22446 3.81199 4.22207 3.46761 4.23353 3.12304C4.24058 2.91072 4.26035 2.69929 4.28541 2.48844C4.30317 2.33907 4.33853 2.19202 4.35359 2.04244C4.35892 1.98952 4.37612 1.89323 4.30713 1.87657C4.25519 1.86403 4.17166 1.84027 4.11889 1.84524C4.08149 1.84877 4.07322 1.86738 4.06097 1.90545C4.01332 2.05348 4.02072 2.23436 4.01028 2.38646C3.97955 2.8342 3.94603 3.28129 3.89263 3.72692C3.82929 4.25555 3.77187 4.79682 3.66034 5.31803C3.6451 5.38925 3.6054 5.38513 3.5813 5.30636C3.54951 5.20248 3.54571 5.08399 3.54087 4.97831C3.52558 4.64402 3.52899 4.30717 3.53122 3.97265C3.53442 3.49225 3.56126 3.02854 3.67904 2.56216C3.71911 2.4035 3.75889 2.25305 3.76773 2.08913C3.77314 1.98903 3.77015 1.88833 3.77015 1.78811M13 14.1667V4.52261C13 4.30419 12.9143 4.09451 12.7612 3.93868L10.12 1.24941C9.96327 1.08987 9.74903 1 9.52542 1H3.83333C3.3731 1 3 1.3731 3 1.83333V14.1667C3 14.6269 3.3731 15 3.83333 15H12.1667C12.6269 15 13 14.6269 13 14.1667Z" stroke="#D4E6F2" stroke-width="0.833333" stroke-linecap="round"/>
<path d="M10.9756 2.85234L10.9521 2.86642M10.9802 2.8101C10.9332 2.74906 10.8813 2.68973 10.8397 2.62469C10.8067 2.57312 10.7707 2.51999 10.7291 2.47474C10.6544 2.39347 10.6235 2.29099 10.5693 2.19728C10.5351 2.1382 10.4812 2.09695 10.4384 2.04499C10.4212 2.02425 10.4037 2.00469 10.3853 1.98553M10.3853 1.98553C10.3788 1.9788 10.3723 1.97212 10.3656 1.96546C10.3505 1.95034 10.3664 1.99572 10.3672 2.0017C10.3707 2.0284 10.3702 2.05527 10.3702 2.08213M10.3853 1.98553C10.3891 2.06443 10.3884 2.1441 10.3869 2.22366M10.3853 1.98553C10.3847 1.973 10.3839 1.96048 10.3831 1.94798C10.3798 1.90012 10.366 1.84939 10.3361 1.8103C10.328 1.79967 10.3149 1.7912 10.3179 1.81238C10.327 1.87724 10.3487 1.93969 10.3583 2.00457C10.3622 2.03064 10.3663 2.05643 10.3702 2.08213M10.3702 2.08213C10.3701 2.10702 10.3703 2.13189 10.3742 2.1566C10.3788 2.18573 10.383 2.21439 10.3866 2.24293M10.3702 2.08213C10.3773 2.1292 10.3838 2.17599 10.3869 2.22366M10.3866 2.24293C10.3873 2.24848 10.3879 2.25402 10.3886 2.25957M10.3866 2.24293C10.3854 2.30104 10.3841 2.35904 10.3841 2.41659C10.3841 2.48206 10.3829 2.67816 10.3888 2.61295C10.3906 2.59312 10.3961 2.57388 10.3977 2.55402C10.4013 2.50778 10.3982 2.46013 10.3982 2.41372L10.3982 2.41122M10.3866 2.24293C10.3867 2.23651 10.3868 2.23008 10.3869 2.22366M10.3886 2.25957C10.3944 2.3096 10.3981 2.35949 10.3982 2.41122M10.3886 2.25957C10.3883 2.24753 10.3877 2.23557 10.3869 2.22366M10.3886 2.25957C10.3887 2.26401 10.3888 2.26845 10.3888 2.27291C10.3893 2.3206 10.3928 2.36575 10.3982 2.41122M10.3982 2.41122C10.4013 2.43741 10.405 2.4637 10.4092 2.49065C10.4241 2.58856 10.4123 2.69422 10.4123 2.79341C10.4123 2.8906 10.4062 2.98018 10.3823 3.07478C10.3645 3.14531 10.3588 3.21791 10.3408 3.28887C10.3245 3.35331 10.3225 3.40082 10.3304 3.46568C10.3352 3.50472 10.3156 3.5913 10.3487 3.62136C10.3688 3.63966 10.4346 3.62683 10.4595 3.62683C10.5206 3.62683 10.5749 3.62993 10.635 3.63987C10.6856 3.64826 10.737 3.65077 10.7875 3.65995C10.8372 3.66899 10.8851 3.6852 10.9349 3.69359C10.9855 3.70213 11.0348 3.71643 11.0861 3.72071C11.1635 3.72716 11.2411 3.72835 11.3185 3.73479C11.4896 3.74906 11.6595 3.75534 11.8314 3.75331C11.8999 3.7525 11.9664 3.74495 12.0343 3.73714C12.0763 3.73231 12.1219 3.72696 12.16 3.70663C12.1879 3.69173 12.1032 3.61628 12.0937 3.60754C12.0045 3.52528 11.8953 3.46202 11.7939 3.39631C11.7114 3.34289 11.6155 3.30093 11.538 3.23899M11.538 3.23899C11.5295 3.23223 11.5212 3.22523 11.5133 3.21794C11.4362 3.14768 11.3785 3.06749 11.3203 2.98168C11.258 2.8898 11.1865 2.80991 11.1101 2.72978C11.1057 2.72515 11.0672 2.69281 11.0679 2.68258C11.0685 2.67266 11.0869 2.68874 11.0955 2.69379C11.1262 2.71186 11.1517 2.72975 11.1805 2.75142C11.2951 2.83748 11.3746 2.94092 11.4475 3.06383C11.4695 3.10073 11.5207 3.17362 11.538 3.23899ZM11.538 3.23899C11.5511 3.28883 11.5446 3.33431 11.4903 3.35615C11.4494 3.37261 11.4031 3.3738 11.3599 3.37024C11.2671 3.36257 11.1742 3.33959 11.0838 3.31808C11.0482 3.30963 11.004 3.30255 10.974 3.27896C10.9463 3.25724 10.9319 3.22106 10.9098 3.19447C10.8659 3.14163 10.7806 3.14506 10.7145 3.1602M10.7145 3.1602C10.7043 3.16254 10.6946 3.16515 10.6856 3.16788C10.6289 3.18496 10.6086 3.26197 10.6313 3.31495C10.6403 3.33588 10.6629 3.31757 10.6712 3.30843C10.7067 3.26953 10.7158 3.21322 10.7145 3.1602ZM10.7145 3.1602C10.7141 3.14382 10.7128 3.12774 10.7109 3.11259C10.703 3.04943 10.6859 2.99785 10.6188 2.99785M12.497 4H10.2083C10.0933 4 10 3.90673 10 3.79167V1.50296C10 1.31736 10.2244 1.2244 10.3556 1.35565L12.6444 3.64435C12.7756 3.7756 12.6826 4 12.497 4Z" stroke="#97A6B0" stroke-width="0.833333" stroke-linecap="round"/>
<path d="M10 8L6 5V11L10 8Z" fill="#2868A3" stroke="#3583CB" stroke-linecap="round" stroke-linejoin="round"/>
</svg>
