<svg width="16" height="16" viewBox="0 0 16 16" fill="none" xmlns="http://www.w3.org/2000/svg">
<g clip-path="url(#clip0_256_746)">
<rect x="1" y="1" width="14" height="14" fill="#5284C3"/>
<rect x="2" y="2" width="12" height="12" fill="#F5F5F5"/>
<rect x="3" y="3" width="10" height="2" fill="#355783"/>
<rect x="3" y="6" width="10" height="1" fill="#4474B1"/>
<rect x="3" y="8" width="10" height="1" fill="#4474B1"/>
<rect x="3" y="10" width="10" height="1" fill="#4474B1"/>
<rect x="3" y="12" width="10" height="1" fill="#4474B1"/>
<rect x="4" y="6" width="7" height="1" transform="rotate(90 4 6)" fill="#4474B1"/>
<rect x="7" y="6" width="7" height="1" transform="rotate(90 7 6)" fill="#4474B1"/>
<rect x="13" y="6" width="7" height="1" transform="rotate(90 13 6)" fill="#4474B1"/>
<rect x="10" y="6" width="7" height="1" transform="rotate(90 10 6)" fill="#4474B1"/>
<path d="M13.8316 9.94965C13.7593 9.71528 13.6594 9.5055 13.5321 9.32031C13.4077 9.13223 13.2572 8.97164 13.0807 8.83854C12.9071 8.70544 12.7075 8.60561 12.4818 8.53906C12.2561 8.46962 12.0101 8.4349 11.7439 8.4349C11.2665 8.4349 10.8411 8.55498 10.4679 8.79514C10.0946 9.0353 9.80093 9.38831 9.58681 9.85417C9.37558 10.3171 9.26997 10.8814 9.26997 11.5469C9.26997 12.2182 9.37558 12.7867 9.58681 13.2526C9.79803 13.7185 10.0917 14.0729 10.4679 14.316C10.844 14.5561 11.281 14.6762 11.7786 14.6762C12.23 14.6762 12.6207 14.5894 12.9505 14.4158C13.2833 14.2422 13.5394 13.9962 13.7187 13.678C13.8981 13.3568 13.9878 12.9806 13.9878 12.5495L14.3524 12.6059H11.9392V11.3472H15.546V12.4149C15.546 13.1759 15.384 13.8342 15.0599 14.3898C14.7358 14.9453 14.2902 15.3736 13.7231 15.6745C13.156 15.9725 12.5049 16.1215 11.77 16.1215C10.9511 16.1215 10.2321 15.9378 9.61285 15.5703C8.99653 15.1999 8.51476 14.6748 8.16753 13.9948C7.82321 13.3119 7.65104 12.5017 7.65104 11.5642C7.65104 10.8466 7.75231 10.2057 7.95486 9.64149C8.1603 9.07726 8.44676 8.59838 8.81424 8.20486C9.18171 7.80845 9.61285 7.50752 10.1076 7.30208C10.6024 7.09375 11.1406 6.98958 11.7222 6.98958C12.2141 6.98958 12.6727 7.06192 13.0981 7.2066C13.5234 7.34838 13.901 7.55093 14.2309 7.81424C14.5637 8.07755 14.8371 8.39005 15.0512 8.75174C15.2653 9.11343 15.4057 9.51273 15.4722 9.94965H13.8316Z" fill="#EC0000"/>
</g>
<defs>
<clipPath id="clip0_256_746">
<rect width="16" height="16" fill="white"/>
</clipPath>
</defs>
</svg>
