<svg width="32" height="32" viewBox="0 0 32 32" fill="none" xmlns="http://www.w3.org/2000/svg">
<path fill-rule="evenodd" clip-rule="evenodd" d="M27.6325 23.1351L18.7295 14.2321C19.1942 12.9775 19.3188 11.6273 19.0888 10.2949C18.8212 8.74497 18.09 7.33597 16.9743 6.22028C14.011 3.25698 9.18934 3.25698 6.22604 6.22028C4.79057 7.65575 4 9.56436 4 11.5944C4 13.6245 4.79057 15.5331 6.22609 16.9685C7.40471 18.1472 8.89828 18.8915 10.5451 19.1211C11.8596 19.3044 13.2154 19.1351 14.4413 18.6439L15.3025 20.5489L17.8004 21.6783L18.9298 24.1761L21.428 25.3057L22.6462 27.9999L28.0278 27.9475L27.6325 23.1351ZM8.46118 14.7021C9.9391 14.7021 11.1372 13.504 11.1372 12.0261C11.1372 10.5482 9.9391 9.3501 8.46118 9.3501C6.98325 9.3501 5.78516 10.5482 5.78516 12.0261C5.78516 13.504 6.98325 14.7021 8.46118 14.7021Z" fill="#2B2B2B"/>
</svg>
