<svg width="16" height="16" viewBox="0 0 16 16" fill="none" xmlns="http://www.w3.org/2000/svg">
<path fill-rule="evenodd" clip-rule="evenodd" d="M13.8163 11.5675L9.36474 7.11604C9.59709 6.48876 9.65941 5.81364 9.54439 5.14743C9.41059 4.37249 9.04499 3.66799 8.48714 3.11014C7.00552 1.62849 4.59467 1.62849 3.11302 3.11014C2.39528 3.82787 2 4.78218 2 5.79721C2 6.81224 2.39528 7.76653 3.11304 8.48426C3.70236 9.07362 4.44914 9.44577 5.27256 9.56056C5.92981 9.65221 6.60772 9.56755 7.22064 9.32195L7.65126 10.2744L8.90021 10.8391L9.46489 12.0881L10.714 12.6528L11.3231 14L14.0139 13.9737L13.8163 11.5675ZM4.23052 7.35101C4.96948 7.35101 5.56853 6.75196 5.56853 6.013C5.56853 5.27404 4.96948 4.67499 4.23052 4.67499C3.49155 4.67499 2.89251 5.27404 2.89251 6.013C2.89251 6.75196 3.49155 7.35101 4.23052 7.35101Z" fill="#2B2B2B"/>
</svg>
