<svg width="16" height="16" viewBox="0 0 16 16" fill="none" xmlns="http://www.w3.org/2000/svg">
<g clip-path="url(#clip0_251_508)">
<circle cx="8" cy="8" r="7" fill="#6894C1"/>
<path fill-rule="evenodd" clip-rule="evenodd" d="M8 15C11.866 15 15 11.866 15 8C15 4.13401 11.866 1 8 1C4.13401 1 1 4.13401 1 8C1 11.866 4.13401 15 8 15ZM8 14C11.3137 14 14 11.3137 14 8C14 4.68629 11.3137 2 8 2C4.68629 2 2 4.68629 2 8C2 11.3137 4.68629 14 8 14Z" fill="white"/>
<path d="M7.22917 10.5V10.4375C7.23611 9.77431 7.30556 9.24653 7.4375 8.85417C7.56944 8.46181 7.75694 8.1441 8 7.90104C8.24306 7.65799 8.53472 7.43403 8.875 7.22917C9.07986 7.10417 9.26389 6.9566 9.42708 6.78646C9.59028 6.61285 9.71875 6.41319 9.8125 6.1875C9.90972 5.96181 9.95833 5.71181 9.95833 5.4375C9.95833 5.09722 9.87847 4.80208 9.71875 4.55208C9.55903 4.30208 9.34549 4.10937 9.07813 3.97396C8.81076 3.83854 8.51389 3.77083 8.1875 3.77083C7.90278 3.77083 7.62847 3.82986 7.36458 3.94792C7.10069 4.06597 6.88021 4.25174 6.70313 4.50521C6.52604 4.75868 6.42361 5.09028 6.39583 5.5H5.08333C5.11111 4.90972 5.26389 4.40451 5.54167 3.98438C5.82292 3.56424 6.19271 3.24306 6.65104 3.02083C7.11285 2.79861 7.625 2.6875 8.1875 2.6875C8.79861 2.6875 9.32986 2.80903 9.78125 3.05208C10.2361 3.29514 10.5868 3.62847 10.8333 4.05208C11.0833 4.47569 11.2083 4.95833 11.2083 5.5C11.2083 5.88194 11.1493 6.22743 11.0312 6.53646C10.9167 6.84549 10.75 7.12153 10.5312 7.36458C10.316 7.60764 10.0556 7.82292 9.75 8.01042C9.44444 8.20139 9.19965 8.40278 9.01562 8.61458C8.8316 8.82292 8.69792 9.07118 8.61458 9.35938C8.53125 9.64757 8.48611 10.0069 8.47917 10.4375V10.5H7.22917ZM7.89583 13.5833C7.63889 13.5833 7.4184 13.4913 7.23438 13.3073C7.05035 13.1233 6.95833 12.9028 6.95833 12.6458C6.95833 12.3889 7.05035 12.1684 7.23438 11.9844C7.4184 11.8003 7.63889 11.7083 7.89583 11.7083C8.15278 11.7083 8.37326 11.8003 8.55729 11.9844C8.74132 12.1684 8.83333 12.3889 8.83333 12.6458C8.83333 12.816 8.78993 12.9722 8.70313 13.1146C8.61979 13.2569 8.50694 13.3715 8.36458 13.4583C8.22569 13.5417 8.06944 13.5833 7.89583 13.5833Z" fill="white"/>
</g>
<defs>
<clipPath id="clip0_251_508">
<rect width="16" height="16" fill="white"/>
</clipPath>
</defs>
</svg>
