<svg width="16" height="16" viewBox="0 0 16 16" fill="none" xmlns="http://www.w3.org/2000/svg">
<g clip-path="url(#clip0_283_568)">
<path fill-rule="evenodd" clip-rule="evenodd" d="M11.984 2C13.7008 2 14.5942 2.64818 15.1373 3.08613C15.2584 3.18249 15.356 3.30509 15.4227 3.44469C15.4895 3.58429 15.5237 3.73723 15.5227 3.89197V12.4234C15.518 12.4876 15.4935 12.5488 15.4526 12.5985C15.4302 12.6222 15.403 12.6407 15.3727 12.6528C15.3425 12.6649 15.31 12.6703 15.2774 12.6686C15.2475 12.6702 15.2176 12.6647 15.1902 12.6525C15.1628 12.6403 15.1387 12.6218 15.1198 12.5985C14.5767 12.1431 13.5081 11.5474 11.9315 11.5474C9.30372 11.5474 8.53292 14 8.53292 14V4.71533C8.534 4.23884 8.69432 3.77638 8.98839 3.40146C9.4789 2.75328 10.3723 2 11.984 2ZM4.52124 2C6.13292 2 7.02635 2.75328 7.53438 3.40146C7.82845 3.77638 7.98877 4.23884 7.98985 4.71533V14C7.98985 14 7.21905 11.5474 4.59131 11.5474C3.01467 11.5474 1.94606 12.1431 1.40299 12.5985C1.35395 12.6291 1.30088 12.6527 1.24533 12.6686C1.2129 12.6694 1.18066 12.6636 1.15054 12.6516C1.12043 12.6395 1.09308 12.6215 1.07014 12.5985C1.04721 12.5756 1.02917 12.5483 1.01713 12.5181C1.00508 12.488 0.99928 12.4558 1.00007 12.4234V3.89197C1.00094 3.73755 1.03595 3.58523 1.10257 3.44591C1.1692 3.3066 1.26581 3.18374 1.38547 3.08613C1.91102 2.64818 2.80445 2 4.52124 2Z" fill="white" stroke="#474747" stroke-opacity="0.454902" stroke-width="1.2" stroke-linejoin="round"/>
</g>
<defs>
<clipPath id="clip0_283_568">
<rect width="16" height="16" fill="white"/>
</clipPath>
</defs>
</svg>
