<svg width="16" height="16" viewBox="0 0 16 16" fill="none" xmlns="http://www.w3.org/2000/svg">
<path d="M2.51585 7.30005H11.5159C11.5159 7.30005 13.0826 7.54187 13.5159 8.30005C13.9034 8.97819 13.7758 9.56353 13.5159 10.3C13.0472 11.6279 11.6872 11.519 10.5156 12.3C10.4297 12.7298 9.51585 13.3 9.51585 13.3H4.51585C4.51585 13.3 3.85492 12.736 3.51585 12.3C2.29332 10.7282 2.51585 7.30005 2.51585 7.30005Z" fill="#D9D9D9"/>
<path d="M11.5159 7.30005H2.51585C2.51585 7.30005 2.29332 10.7282 3.51585 12.3C3.85492 12.736 4.51585 13.3 4.51585 13.3H9.51585C9.51585 13.3 10.4297 12.7298 10.5156 12.3M11.5159 7.30005C11.5159 7.30005 13.0826 7.54187 13.5159 8.30005C13.9034 8.97819 13.7758 9.56353 13.5159 10.3C13.0472 11.6279 11.6872 11.519 10.5156 12.3M11.5159 7.30005C11.5159 7.30005 11.5154 10.8 10.5156 12.3" stroke="#2A2A2A" stroke-linejoin="round"/>
<path d="M5.01562 6.30005C5.01562 6.30005 4.54749 5.7355 4.51563 5.30005C4.46425 4.5979 4.94464 4.50048 5.01569 3.80005C5.07802 3.18573 4.51569 2.30005 4.51569 2.30005M5.01562 6.30005C5.01562 6.30005 4.54749 5.7355 4.51563 5.30005C4.46425 4.5979 4.94464 4.50048 5.01569 3.80005C5.07802 3.18573 4.51569 2.30005 4.51569 2.30005" stroke="#2B2B2B" stroke-linecap="round" stroke-linejoin="round"/>
<path d="M7.01953 6.30005C7.01953 6.30005 6.55139 5.7355 6.51953 5.30005C6.46815 4.5979 6.94854 4.50048 7.0196 3.80005C7.08192 3.18573 6.5196 2.30005 6.5196 2.30005" stroke="#2B2B2B" stroke-linecap="round" stroke-linejoin="round"/>
<path d="M9.01953 6.30005C9.01953 6.30005 8.55139 5.7355 8.51953 5.30005C8.46815 4.5979 8.94854 4.50048 9.0196 3.80005C9.08192 3.18573 8.5196 2.30005 8.5196 2.30005" stroke="#2B2B2B" stroke-linecap="round" stroke-linejoin="round"/>
</svg>
