<svg width="16" height="16" viewBox="0 0 16 16" fill="none" xmlns="http://www.w3.org/2000/svg">
<g clip-path="url(#clip0_266_981)">
<path d="M6.33474 1.7V2.49483C5.9678 2.60568 5.61635 2.75221 5.28442 2.93038L4.72063 2.36659C4.252 1.89796 3.4922 1.89796 3.02357 2.36659L2.36361 3.02655C1.89498 3.49518 1.89498 4.25498 2.36361 4.72361L2.9283 5.2883C2.75132 5.61861 2.60567 5.96822 2.49531 6.33316H1.7C1.03726 6.33316 0.5 6.87042 0.5 7.53316L0.5 8.46649C0.5 9.12923 1.03726 9.66649 1.7 9.66649H2.4952C2.60578 10.0322 2.7518 10.3826 2.92928 10.7135L2.36659 11.2762C1.89796 11.7448 1.89796 12.5046 2.36659 12.9733L3.02655 13.6332C3.49518 14.1019 4.25498 14.1019 4.72361 13.6332L5.28625 13.0706C5.61764 13.2483 5.96847 13.3945 6.33474 13.5052V14.2998C6.33474 14.9626 6.87199 15.4998 7.53474 15.4998H8.46807C9.13081 15.4998 9.66807 14.9626 9.66807 14.2998V13.5043C10.0336 13.3937 10.3837 13.2477 10.7144 13.0702L11.2774 13.6332C11.746 14.1018 12.5058 14.1018 12.9745 13.6332L13.6344 12.9732C14.103 12.5046 14.103 11.7448 13.6344 11.2762L13.0711 10.7128C13.2484 10.3821 13.3943 10.032 13.5048 9.66649H14.3C14.9627 9.66649 15.5 9.12923 15.5 8.46649V7.53316C15.5 6.87042 14.9627 6.33316 14.3 6.33316H13.5047C13.3941 5.96747 13.2481 5.61716 13.0706 5.28625L13.6332 4.72365C14.1018 4.25503 14.1018 3.49523 13.6332 3.0266L12.9732 2.36663C12.5046 1.898 11.7448 1.898 11.2762 2.36663L10.7135 2.92928C10.383 2.75206 10.0332 2.6062 9.66807 2.49568V1.7C9.66807 1.03726 9.13081 0.5 8.46807 0.5H7.53474C6.87199 0.5 6.33474 1.03726 6.33474 1.7ZM9.83193 8.00018C9.83193 9.0127 9.01112 9.83351 7.9986 9.83351C6.98608 9.83351 6.16526 9.0127 6.16526 8.00018C6.16526 6.98765 6.98608 6.16684 7.9986 6.16684C9.01112 6.16684 9.83193 6.98765 9.83193 8.00018Z" fill="white" stroke="#474747"/>
</g>
<defs>
<clipPath id="clip0_266_981">
<rect width="16" height="16" fill="white"/>
</clipPath>
</defs>
</svg>
