<svg width="16" height="16" viewBox="0 0 16 16" fill="none" xmlns="http://www.w3.org/2000/svg">
<path d="M3 14.6352V2.57637C3 1.98814 3 1.98814 3.58824 1.98814H5.94118V1.3999H10.0588V1.98814H12.4118C13 1.98814 13 1.98814 13 2.57637V14.6352H3Z" fill="#D9D9D9"/>
<path d="M5.94118 1.98814H3.58824C3 1.98814 3 1.98814 3 2.57637V14.6352H13V2.57637C13 1.98814 13 1.98814 12.4118 1.98814H10.0588V1.3999M10.0588 1.3999H5.94118V2.87049H10.0588V1.3999ZM7.11765 4.34108H11.8235M7.11765 5.51755H9.47059M7.11765 7.28225H11.8235M7.11765 8.45873H9.47059M7.11765 10.2234H11.8235M7.11765 11.3999H9.47059M4.17647 4.34108H5.94118V6.10578H4.17647V4.34108ZM4.17647 7.28225H5.94118V9.04696H4.17647V7.28225ZM4.17647 10.2234H5.94118V11.9881H4.17647V10.2234Z" stroke="#474747" stroke-width="0.588235" stroke-linecap="round" stroke-linejoin="round"/>
</svg>
