<svg width="16" height="16" viewBox="0 0 16 16" fill="none" xmlns="http://www.w3.org/2000/svg">
<path d="M2.18383 4.49267L7.96624 2.0145C7.9878 2.00526 8.0122 2.00526 8.03376 2.0145L13.8162 4.49267C13.8854 4.52236 13.8854 4.62056 13.8162 4.65024L8.03376 7.12841C8.0122 7.13766 7.9878 7.13766 7.96624 7.12842L2.18383 4.65024C2.11456 4.62056 2.11456 4.52236 2.18383 4.49267Z" fill="#FFB800"/>
<path d="M2 11.372V4.70133C2 4.6398 2.06292 4.59831 2.11948 4.62255L7.96624 7.12842C7.9878 7.13766 8.0122 7.13766 8.03376 7.12841L11 5.85706L13.8805 4.62255C13.9371 4.59831 14 4.6398 14 4.70133V11.372C14 11.4063 13.9796 11.4372 13.9481 11.4507L8.03376 13.9854C8.0122 13.9947 7.9878 13.9947 7.96624 13.9854L2.05195 11.4507C2.02043 11.4372 2 11.4063 2 11.372Z" fill="#FFB800"/>
<path d="M7.96624 7.12842L2.18383 4.65024C2.11456 4.62056 2.11456 4.52236 2.18383 4.49267L7.96624 2.0145C7.9878 2.00526 8.0122 2.00526 8.03376 2.0145L13.8162 4.49267C13.8854 4.52236 13.8854 4.62056 13.8162 4.65024L8.03376 7.12841M7.96624 7.12842C7.9878 7.13766 8.0122 7.13766 8.03376 7.12841M7.96624 7.12842L2.11948 4.62255C2.06292 4.59831 2 4.6398 2 4.70133V11.372C2 11.4063 2.02043 11.4372 2.05195 11.4507L7.96624 13.9854C7.9878 13.9947 8.0122 13.9947 8.03376 13.9854L13.9481 11.4507C13.9796 11.4372 14 11.4063 14 11.372V4.70133C14 4.6398 13.9371 4.59831 13.8805 4.62255L11 5.85706M8.03376 7.12841L11 5.85706M11 5.85706L5 3.28563M8 7.14269V13.9998" stroke="#E16F3E" stroke-width="0.857143" stroke-linejoin="round"/>
</svg>
