<svg width="36" height="32" viewBox="0 0 36 32" fill="none" xmlns="http://www.w3.org/2000/svg">
    <g clip-path="url(#clip0_314_2417)">
        <path d="M36 32H-1.25469e-06L36 -8.01042e-07V32Z" fill="#FFF786"/>
        <mask id="path-2-outside-1_314_2417" maskUnits="userSpaceOnUse" x="1.5" y="9" width="32" height="15"
              fill="black">
            <rect fill="white" x="1.5" y="9" width="32" height="15"/>
            <path fill-rule="evenodd" clip-rule="evenodd"
                  d="M13.4 17C12.9367 19.2822 10.919 21 8.5 21C5.73858 21 3.5 18.7614 3.5 16C3.5 13.2386 5.73858 11 8.5 11C10.919 11 12.9367 12.7178 13.4 15H31.5V17H29.5V22H27.5V17H25.5V22H23.5V17H13.4Z"/>
        </mask>
        <path fill-rule="evenodd" clip-rule="evenodd"
              d="M13.4 17C12.9367 19.2822 10.919 21 8.5 21C5.73858 21 3.5 18.7614 3.5 16C3.5 13.2386 5.73858 11 8.5 11C10.919 11 12.9367 12.7178 13.4 15H31.5V17H29.5V22H27.5V17H25.5V22H23.5V17H13.4Z"
              fill="#FFF12E"/>
        <path d="M13.4 17V15H11.7652L11.44 16.6021L13.4 17ZM13.4 15L11.44 15.3979L11.7652 17H13.4V15ZM31.5 15H33.5V13H31.5V15ZM31.5 17V19H33.5V17H31.5ZM29.5 17V15H27.5V17H29.5ZM29.5 22V24H31.5V22H29.5ZM27.5 22H25.5V24H27.5V22ZM27.5 17H29.5V15H27.5V17ZM25.5 17V15H23.5V17H25.5ZM25.5 22V24H27.5V22H25.5ZM23.5 22H21.5V24H23.5V22ZM23.5 17H25.5V15H23.5V17ZM8.5 23C11.8889 23 14.7113 20.5938 15.36 17.3979L11.44 16.6021C11.1622 17.9706 9.94905 19 8.5 19V23ZM1.5 16C1.5 19.866 4.63401 23 8.5 23V19C6.84315 19 5.5 17.6569 5.5 16H1.5ZM8.5 9C4.63401 9 1.5 12.134 1.5 16H5.5C5.5 14.3431 6.84315 13 8.5 13V9ZM15.36 14.6021C14.7113 11.4062 11.8889 9 8.5 9V13C9.94905 13 11.1622 14.0294 11.44 15.3979L15.36 14.6021ZM31.5 13H13.4V17H31.5V13ZM33.5 17V15H29.5V17H33.5ZM29.5 19H31.5V15H29.5V19ZM31.5 22V17H27.5V22H31.5ZM27.5 24H29.5V20H27.5V24ZM25.5 17V22H29.5V17H25.5ZM25.5 19H27.5V15H25.5V19ZM23.5 17V22H27.5V17H23.5ZM25.5 20H23.5V24H25.5V20ZM25.5 22V17H21.5V22H25.5ZM13.4 19H23.5V15H13.4V19Z"
              fill="#2B2B2B" mask="url(#path-2-outside-1_314_2417)"/>
    </g>
    <defs>
        <clipPath id="clip0_314_2417">
            <rect width="36" height="32" fill="white"/>
        </clipPath>
    </defs>
</svg>
