<svg width="18" height="16" viewBox="0 0 18 16" fill="none" xmlns="http://www.w3.org/2000/svg">
<mask id="path-1-outside-1_238_340" maskUnits="userSpaceOnUse" x="1" y="4.5" width="16" height="8" fill="black">
<rect fill="white" x="1" y="4.5" width="16" height="8"/>
<path fill-rule="evenodd" clip-rule="evenodd" d="M6.94999 8.5C6.71836 9.64112 5.70948 10.5 4.5 10.5C3.11929 10.5 2 9.38071 2 8C2 6.61929 3.11929 5.5 4.5 5.5C5.70948 5.5 6.71836 6.35888 6.94999 7.5H16V8.5H15V11H14V8.5H13V11H12V8.5H6.94999Z"/>
</mask>
<path fill-rule="evenodd" clip-rule="evenodd" d="M6.94999 8.5C6.71836 9.64112 5.70948 10.5 4.5 10.5C3.11929 10.5 2 9.38071 2 8C2 6.61929 3.11929 5.5 4.5 5.5C5.70948 5.5 6.71836 6.35888 6.94999 7.5H16V8.5H15V11H14V8.5H13V11H12V8.5H6.94999Z" fill="#FFF12E"/>
<path d="M6.94999 8.5V7.5H6.13259L5.96998 8.30107L6.94999 8.5ZM6.94999 7.5L5.96998 7.69893L6.13259 8.5H6.94999V7.5ZM16 7.5H17V6.5H16V7.5ZM16 8.5V9.5H17V8.5H16ZM15 8.5V7.5H14V8.5H15ZM15 11V12H16V11H15ZM14 11H13V12H14V11ZM14 8.5H15V7.5H14V8.5ZM13 8.5V7.5H12V8.5H13ZM13 11V12H14V11H13ZM12 11H11V12H12V11ZM12 8.5H13V7.5H12V8.5ZM4.5 11.5C6.19443 11.5 7.60563 10.2969 7.93 8.69893L5.96998 8.30107C5.83108 8.98532 5.22452 9.5 4.5 9.5V11.5ZM1 8C1 9.933 2.567 11.5 4.5 11.5V9.5C3.67157 9.5 3 8.82843 3 8H1ZM4.5 4.5C2.567 4.5 1 6.067 1 8H3C3 7.17157 3.67157 6.5 4.5 6.5V4.5ZM7.93 7.30107C7.60563 5.70308 6.19443 4.5 4.5 4.5V6.5C5.22452 6.5 5.83108 7.01468 5.96998 7.69893L7.93 7.30107ZM16 6.5H6.94999V8.5H16V6.5ZM17 8.5V7.5H15V8.5H17ZM15 9.5H16V7.5H15V9.5ZM16 11V8.5H14V11H16ZM14 12H15V10H14V12ZM13 8.5V11H15V8.5H13ZM13 9.5H14V7.5H13V9.5ZM12 8.5V11H14V8.5H12ZM13 10H12V12H13V10ZM13 11V8.5H11V11H13ZM6.94999 9.5H12V7.5H6.94999V9.5Z" fill="#2B2B2B" mask="url(#path-1-outside-1_238_340)"/>
</svg>
