<svg width="16" height="16" viewBox="0 0 16 16" fill="none" xmlns="http://www.w3.org/2000/svg">
<rect x="1" y="6.90918" width="13.0909" height="5.72727" rx="1.63636" fill="#2B2B2B"/>
<path d="M3.45508 10.75H3.20508V11V13.4545C3.20508 14.0445 3.68332 14.5227 4.27326 14.5227H10.8187C11.4087 14.5227 11.8869 14.0445 11.8869 13.4545V11V10.75H11.6369H3.45508Z" fill="white" stroke="#2B2B2B" stroke-width="0.5"/>
<path d="M11.6369 7.15909H11.8869V6.90909V2.81818C11.8869 2.22824 11.4087 1.75 10.8187 1.75H4.27326C3.68332 1.75 3.20508 2.22824 3.20508 2.81818V6.90909V7.15909H3.45508H11.6369Z" fill="white" stroke="#2B2B2B" stroke-width="0.5"/>
<path d="M2.63672 4.45466C2.63672 4.00279 3.00303 3.63647 3.4549 3.63647V6.9092H2.63672V4.45466Z" fill="#191919"/>
<path d="M10.8185 10.1819C11.2704 10.1819 11.6367 10.5482 11.6367 11.0001L3.4549 11.0001C3.4549 10.5482 3.82121 10.1819 4.27308 10.1819L10.8185 10.1819Z" fill="#191919"/>
<path d="M11.6367 3.63647C12.0886 3.63647 12.4549 4.00279 12.4549 4.45466V6.9092H11.6367V3.63647Z" fill="#191919"/>
<rect x="2.63672" y="7.72729" width="0.818182" height="0.818182" rx="0.409091" fill="#C4C4C4"/>
</svg>
