<svg width="16" height="16" viewBox="0 0 16 16" fill="none" xmlns="http://www.w3.org/2000/svg">
<rect x="1" y="6.90918" width="13.0909" height="5.72727" rx="1.63636" fill="#2B2B2B"/>
<path d="M3.45508 11H11.6369V13.4545C11.6369 13.9064 11.2706 14.2727 10.8187 14.2727H4.27326C3.82139 14.2727 3.45508 13.9064 3.45508 13.4545V11Z" fill="white"/>
<path d="M3.45508 2.81818C3.45508 2.36631 3.82139 2 4.27326 2H10.8187C11.2706 2 11.6369 2.36631 11.6369 2.81818V6.90909H3.45508V2.81818Z" fill="white"/>
<path d="M2.63672 4.45466C2.63672 4.00279 3.00303 3.63647 3.4549 3.63647V6.9092H2.63672V4.45466Z" fill="#191919"/>
<path d="M10.8185 10.1819C11.2704 10.1819 11.6367 10.5482 11.6367 11.0001L3.4549 11.0001C3.4549 10.5482 3.82121 10.1819 4.27308 10.1819L10.8185 10.1819Z" fill="#191919"/>
<path d="M11.6367 3.63647C12.0886 3.63647 12.4549 4.00279 12.4549 4.45466V6.9092H11.6367V3.63647Z" fill="#191919"/>
<rect x="2.63672" y="7.72729" width="0.818182" height="0.818182" rx="0.409091" fill="#C4C4C4"/>
</svg>
