<svg width="24" height="24" viewBox="0 0 24 24" fill="none" xmlns="http://www.w3.org/2000/svg">
<path d="M20.25 9.14626H3.75V3C3.75 1.5 4.5 0.75 6 0.75H14.25C15 0.75 15.9 1.5 15.9 1.5L18.9 4.5C20.25 6 20.25 6.3 20.25 6.6513V9.14626Z" stroke="#474747" stroke-width="0.75" stroke-linejoin="round"/>
<path d="M20.25 16.3425H3.75V20.9998C3.75 22.4998 4.5 23.2498 6 23.2498H18C19.5 23.2498 20.25 22.4998 20.25 20.9998V16.3425Z" stroke="#474747" stroke-width="0.75" stroke-linejoin="round"/>
<mask id="mask0_311_1881" style="mask-type:alpha" maskUnits="userSpaceOnUse" x="3" y="0" width="18" height="24">
<path d="M5.19908 21.9395C5.16037 21.6241 5.23166 21.3198 5.23166 21.0069C5.23166 20.8905 5.23761 20.874 5.29683 20.7802C5.38808 20.6357 5.38005 20.4544 5.42715 20.2955C5.45395 20.2051 5.44174 20.1092 5.44344 20.0154C5.44541 19.9074 5.47093 19.7936 5.48869 19.6873C5.51358 19.5385 5.51803 19.3049 5.47964 19.1602C5.46966 19.1226 5.43178 18.9928 5.40362 18.9686C5.35471 18.9266 5.35924 19.1788 5.35837 19.1934C5.34688 19.3853 5.31002 19.5745 5.30045 19.7666C5.29403 19.8954 5.29683 20.0247 5.29683 20.1536C5.29683 20.1651 5.30883 20.2585 5.29864 20.266C5.25431 20.2986 5.20581 20.1059 5.2027 20.0909C5.17107 19.9386 5.18279 19.7774 5.18279 19.6228V19.0294C5.18279 18.9358 5.16516 18.8005 5.22623 18.7235C5.26563 18.6738 5.31602 18.6343 5.35475 18.5852C5.39111 18.5392 5.41279 18.4846 5.45611 18.4433C5.56188 18.3426 5.86636 18.4293 5.9937 18.4433C6.14151 18.4596 6.27516 18.4894 6.42631 18.4894C6.54842 18.4894 6.71354 18.4391 6.63628 18.6055C6.59844 18.687 6.56215 18.7692 6.52466 18.8507M6.52466 18.8507C6.49272 18.9202 6.4599 18.9892 6.4245 19.057C6.40323 19.0978 6.38602 19.1388 6.37123 19.18M6.52466 18.8507C6.56893 18.8491 6.61492 18.8543 6.64171 18.8543C6.74045 18.8543 6.83954 18.8503 6.93766 18.8635C7.05206 18.8789 7.16467 18.8978 7.27795 18.9197C7.42466 18.9482 7.57566 18.9349 7.72413 18.9382C8.13162 18.947 8.53808 18.9538 8.94593 18.9538H10.1397C10.6971 18.9538 11.2518 18.974 11.8086 18.9852C13.5594 19.0201 15.3145 18.987 17.0659 18.987C17.3629 18.987 17.6424 19.0008 17.9311 19.0801C17.9915 19.0967 18.312 19.2486 18.3673 19.1667C18.4062 19.1092 18.3658 18.9859 18.3538 18.928C18.3325 18.8256 18.3404 18.6969 18.2895 18.6037C18.2017 18.4427 18.0483 18.3711 17.8795 18.3475C17.5336 18.2991 17.1829 18.2406 16.8324 18.2406H11.8384C10.9354 18.2406 10.0362 18.3401 9.13327 18.3401C8.38328 18.3401 7.65823 18.0581 6.90869 18.0581C6.67552 18.0581 6.42733 18.0325 6.19734 18.0793C5.91174 18.1375 5.62302 18.1743 5.33755 18.2314C5.26624 18.2456 4.84596 18.4034 4.88232 18.2553C4.91156 18.1363 5.00474 17.8742 5.12668 17.8167C5.1932 17.7853 5.30907 17.8093 5.38009 17.8093H5.65522C6.32352 17.8093 6.99107 17.8259 7.65897 17.8259C9.4596 17.8259 11.2595 17.8093 13.0602 17.8093H16.769C17.0888 17.8093 17.4086 17.8111 17.7284 17.8093C17.9398 17.8082 18.1479 17.7815 18.3583 17.7762C18.4454 17.774 18.7986 17.6939 18.7619 17.8573C18.7332 17.9851 18.7203 18.106 18.7203 18.2369C18.7203 18.45 18.6725 18.6601 18.6714 18.8746C18.6688 19.4337 18.6412 19.9913 18.7981 20.5333C18.8907 20.8528 18.9861 21.1707 19.0588 21.4953C19.0655 21.5254 19.1095 21.6905 19.0479 21.687C18.977 21.6829 18.905 21.6697 18.8343 21.6612C18.5397 21.6256 18.2585 21.556 17.9601 21.6077C17.7812 21.6387 17.5941 21.6243 17.4134 21.6243C17.0704 21.6243 16.7314 21.6741 16.3871 21.6741C15.9053 21.6741 15.4181 21.6488 14.9391 21.7072C14.613 21.747 14.2821 21.753 13.9544 21.7699C13.7423 21.7808 13.5208 21.7851 13.31 21.757C12.9915 21.7146 12.6713 21.7238 12.3507 21.7238C12.1089 21.7238 11.8721 21.7204 11.6321 21.7496C11.4966 21.7661 11.3627 21.7757 11.2284 21.8031C11.1078 21.8276 10.989 21.8736 10.8664 21.886C10.433 21.9298 9.99928 21.9299 9.56316 21.9229C9.38599 21.92 9.21099 21.8603 9.031 21.8565C8.80285 21.8518 8.5753 21.8259 8.34679 21.8233C8.0349 21.8199 7.72762 21.757 7.41642 21.757C7.07801 21.757 6.74349 21.7238 6.4064 21.7238C6.2834 21.7238 6.17176 21.7417 6.04982 21.7533C6.01567 21.7566 5.73547 21.7814 5.80184 21.7072C5.89556 21.6026 5.81813 21.5141 5.81813 21.3829C5.81813 21.2269 5.83323 21.0731 5.85433 20.9184C5.91369 20.4833 5.95871 20.0479 5.99189 19.6099C6.00799 19.3975 6.0185 19.1726 6.05887 18.963C6.07337 18.8877 6.10743 19.105 6.11991 19.1847L6.12041 19.1879C6.14207 19.3261 6.11673 19.538 6.20186 19.6578C6.22878 19.6957 6.26114 19.552 6.26521 19.5399C6.30644 19.4178 6.329 19.2978 6.37123 19.18M6.52466 18.8507C6.47846 18.8525 6.43413 18.8617 6.41545 18.8921C6.37269 18.9618 6.36966 19.0778 6.37123 19.18M6.37123 19.18C6.37194 19.2264 6.37359 19.2699 6.37291 19.3049C6.37158 19.3735 6.34289 19.5341 6.41545 19.5814C6.50157 19.6375 6.68244 19.6007 6.77746 19.6007H7.25985C7.54135 19.6007 7.82222 19.5841 8.10334 19.5841H13.2874C13.8279 19.5841 14.3678 19.5675 14.9083 19.5675C15.3628 19.5675 15.8155 19.6007 16.2704 19.6007C16.7571 19.6007 17.2967 19.5344 17.7673 19.6735C17.813 19.687 17.8749 19.6767 17.913 19.7104C17.9603 19.7521 18.0049 19.8143 18.0424 19.8652C18.1331 19.9883 18.1898 20.1861 18.2135 20.337C18.2343 20.4693 18.2382 20.6053 18.2569 20.7388C18.2681 20.8186 18.2772 20.9026 18.313 20.9756C18.3243 20.9986 18.3684 21.0354 18.3339 21.0521C18.0206 21.2031 17.667 21.1908 17.3302 21.2013C16.8466 21.2165 16.3704 21.2834 15.8884 21.3175C15.6923 21.3313 15.498 21.2997 15.302 21.2944C14.9045 21.2837 14.5058 21.2926 14.1082 21.2926C13.4546 21.2926 12.802 21.3105 12.1507 21.2502C11.4536 21.1857 10.7593 21.1931 10.06 21.1931C9.40843 21.1931 8.76489 21.235 8.11782 21.3147C7.8057 21.3531 7.47804 21.3257 7.16391 21.3257C6.86484 21.3257 6.59268 21.2988 6.2987 21.2354C6.16456 21.2065 6.06788 21.003 6.06339 20.8751L6.06333 20.8733C6.05959 20.7667 6.0548 20.6304 6.13851 20.5517C6.23502 20.461 6.43112 20.4964 6.54849 20.4964C6.88327 20.4964 7.19351 20.5718 7.52231 20.6236C7.93037 20.6878 8.35161 20.6623 8.76311 20.6623C9.24158 20.6623 9.71723 20.667 10.194 20.6217C10.5054 20.5921 10.8152 20.5628 11.128 20.5628C11.3552 20.5628 11.5822 20.5586 11.8086 20.583C12.1817 20.6233 12.5502 20.6982 12.9226 20.7424C13.5649 20.8187 14.2314 20.795 14.8775 20.795H15.8912C16.0885 20.795 16.286 20.7919 16.4831 20.8042C16.6887 20.817 16.8851 20.8723 17.0885 20.9C17.2338 20.9198 17.3818 20.9277 17.5284 20.9277C17.5875 20.9277 17.6715 20.9415 17.723 20.9055C17.8011 20.8509 17.7932 20.6766 17.7854 20.5968C17.7697 20.4349 17.7008 20.2469 17.5691 20.1444C17.4465 20.049 17.2469 20.0817 17.1039 20.0817C16.7668 20.0817 16.4287 20.0722 16.093 20.1085C15.7272 20.148 15.3665 20.2311 14.9988 20.2513C14.0567 20.303 13.096 20.2322 12.1579 20.149C11.5723 20.0971 11.0023 19.9835 10.422 19.9002C10.1057 19.8548 9.78669 19.8661 9.46813 19.8661H8.17936C7.92883 19.8661 7.6832 19.8612 7.43723 19.9159C7.31511 19.943 7.19584 19.9643 7.07251 19.9822M5.11763 17.4444C4.94726 17.2148 4.85177 16.8779 4.93843 16.5911C5.023 16.3113 5.02063 16.0304 5.05609 15.7415C5.09444 15.4291 5.13392 15.0987 5.13392 14.7832C5.13392 14.6376 5.16174 14.4561 5.12397 14.3151C5.09872 14.2208 5.07023 14.1383 5.06061 14.0404C5.05088 13.9414 5.05372 13.8349 5.02713 13.7382C4.99652 13.6269 5.0036 13.5165 5.0036 13.4009C5.0036 13.1978 5.1115 13.0515 5.28959 12.9503C5.37736 12.9004 5.44359 12.8822 5.543 12.8831C5.56036 12.8832 5.57766 12.8835 5.59492 12.8841M5.59492 12.8841C5.60292 12.8843 5.61091 12.8846 5.61889 12.8849M5.59492 12.8841C5.59833 12.8762 5.60211 12.8685 5.60635 12.8609C5.61292 12.8493 5.6167 12.8646 5.61889 12.8849M5.59492 12.8841C5.57361 12.9333 5.56681 12.9891 5.55386 13.0416C5.52499 13.1585 5.4681 13.4045 5.44706 13.5189C5.38938 13.8325 5.39509 14.1467 5.39457 14.4643C5.39395 14.844 5.39674 15.2237 5.39095 15.6033C5.38691 15.868 5.39246 16.1422 5.35294 16.405C5.34676 16.4461 5.3457 16.2815 5.3457 16.2686V15.8521M5.61889 12.8849C5.88027 12.8951 6.13119 12.9448 6.39011 12.9881C6.85279 13.0655 7.31513 13.149 7.78205 13.1982C8.27169 13.2498 8.76586 13.2314 9.25726 13.2314C9.35895 13.2314 9.46066 13.231 9.56238 13.2306M5.61889 12.8849C5.6207 12.9016 5.62142 12.9217 5.62173 12.9328C5.64157 13.6397 5.62264 14.3498 5.62264 15.0569C5.62264 15.7037 5.62285 16.3498 5.69052 16.9938C5.71045 17.1835 5.72585 17.436 5.7946 17.6232C5.81621 17.6821 5.90862 17.4219 5.91587 17.391C5.94192 17.2798 5.98623 17.174 6.01271 17.0639C6.03579 16.9679 6.03281 16.8671 6.04982 16.7699C6.07277 16.6387 6.11507 16.5122 6.14213 16.382C6.19117 16.1459 6.19147 15.9176 6.19372 15.6779C6.20008 14.9981 6.21298 14.3189 6.24078 13.6396C6.24265 13.5939 6.21655 13.48 6.25526 13.5032C6.27028 13.5122 6.27245 13.5347 6.27607 13.5521C6.29305 13.6334 6.30561 13.7157 6.3168 13.7981C6.41406 14.5143 6.47002 15.237 6.52948 15.9571C6.56437 16.3796 6.58857 16.803 6.62723 17.2251C6.65544 17.5332 6.65561 17.0886 6.65619 17.0648C6.66748 16.5998 6.67204 16.1347 6.68153 15.6696C6.68831 15.3373 6.66906 15.0028 6.70687 14.6726C6.73367 14.4386 6.73313 15.1431 6.74307 15.3785L6.74311 15.3794C6.75742 15.718 6.79794 16.6769 6.81548 17.0261C6.82425 17.2009 6.83855 18.0549 6.89874 17.1707C6.9738 16.068 6.97057 14.9613 7.04173 13.8589C7.04529 13.8039 7.05609 13.6422 7.06888 13.6958C7.10214 13.8351 7.09731 13.9812 7.10509 14.1243C7.11105 14.234 7.11635 14.3433 7.12108 14.4521M9.56238 13.2306C9.58868 13.2305 9.61497 13.2304 9.64127 13.2303M9.56238 13.2306C9.57378 13.2019 9.58985 13.1881 9.61294 13.2056C9.62306 13.2132 9.63248 13.2215 9.64127 13.2303M9.56238 13.2306C9.54135 13.2836 9.53624 13.3876 9.53239 13.4415C9.51152 13.7334 9.52827 14.027 9.53329 14.3197C9.53373 14.3451 9.53419 14.3705 9.53466 14.3958M9.64127 13.2303C9.80772 13.2297 9.97418 13.2295 10.1406 13.2314C10.3295 13.2336 10.5148 13.2646 10.7053 13.2646C12.5909 13.2646 14.4774 13.2887 16.3627 13.2636C16.6655 13.2596 16.9644 13.2148 17.2668 13.2148C17.3766 13.2148 17.4871 13.2174 17.5974 13.2184M9.64127 13.2303C9.74293 13.3321 9.7601 13.5069 9.80571 13.6479C10.0641 14.4467 10.2541 15.2643 10.4315 16.0847M17.5974 13.2184C17.6051 13.2184 17.6127 13.2185 17.6204 13.2185M17.5974 13.2184C17.6039 13.1417 17.609 13.065 17.6125 12.9881C17.6198 12.8294 17.6202 12.983 17.6204 13.2185M17.5974 13.2184C17.5522 13.7584 17.4448 14.293 17.4218 14.8355M17.6204 13.2185C17.7173 13.2191 17.8141 13.2182 17.9103 13.2129C18.1899 13.1976 18.4651 13.0898 18.7438 13.0821C18.8058 13.0804 18.9816 13.0324 19.028 13.095C19.0833 13.1696 19.0057 13.4157 18.9954 13.4968C18.986 13.5709 18.9776 13.6444 18.9647 13.7179C18.9269 13.932 18.9285 14.1527 18.8923 14.3685C18.8431 14.6615 18.8021 14.9706 18.78 15.267C18.758 15.5631 18.7692 15.8631 18.7692 16.1599C18.7692 16.445 18.7672 16.7286 18.7855 17.0132C18.8002 17.2429 18.7982 17.4857 18.8506 17.7107C18.8528 17.7199 18.8895 17.8044 18.8651 17.8066C18.82 17.8106 18.7419 17.8057 18.7031 17.7799C18.6298 17.7309 18.5887 17.4409 18.5728 17.3799C18.4962 17.0861 18.4451 16.7892 18.4008 16.4888C18.3415 16.0865 18.2967 15.6824 18.2492 15.2787M17.6204 13.2185C17.6206 13.4621 17.6204 13.7934 17.627 13.9575L17.6275 13.9701C17.6329 14.104 17.6384 14.2393 17.6448 14.3755M18.2492 15.2787C18.2169 15.0044 18.1832 14.7303 18.1429 14.457C18.111 14.2409 18.07 14.0139 17.9583 13.823C17.9442 13.7989 17.929 13.7936 17.9058 13.7824C17.861 13.7609 18.0047 13.7779 18.0542 13.7787C18.3105 13.783 18.3923 14.0968 18.3746 14.3068C18.3472 14.6305 18.3004 14.9554 18.2492 15.2787ZM18.2492 15.2787C18.2197 15.465 18.1887 15.6507 18.1592 15.8355C18.1227 16.0637 18.072 16.2894 18.0252 16.5156C18.001 16.633 18.0006 16.6681 17.9546 16.5229C17.8423 16.1686 17.7722 15.797 17.726 15.4206M17.726 15.4206C17.6833 15.0732 17.6611 14.7216 17.6448 14.3755M17.726 15.4206C17.728 15.7797 17.7266 16.139 17.7266 16.4981C17.7266 16.995 17.7287 17.4921 17.7257 17.989C17.7248 18.1365 17.7269 18.5743 17.6949 18.4304C17.653 18.2422 17.6805 18.0275 17.6705 17.837C17.6488 17.4274 17.5943 17.0184 17.5383 16.6123C17.5053 16.3724 17.4529 16.1369 17.396 15.9024M17.726 15.4206C17.7254 15.307 17.7244 15.1935 17.723 15.0799C17.7219 14.9994 17.7161 14.6142 17.703 14.5012C17.6987 14.4633 17.6713 14.3865 17.6448 14.3755M17.6448 14.3755C17.6381 14.3727 17.6314 14.3741 17.6252 14.3814C17.5664 14.4507 17.4722 14.6964 17.4218 14.8355M17.4218 14.8355L17.4216 14.8403C17.4068 15.1968 17.4117 15.5492 17.396 15.9024M17.4218 14.8355C17.4038 14.885 17.3914 14.9209 17.3881 14.9306C17.3459 15.0539 17.3012 15.1936 17.2573 15.3381M17.396 15.9024C17.3881 16.0785 17.3751 16.2547 17.3519 16.4317C17.3345 16.5647 17.3129 16.6963 17.2831 16.827C17.2756 16.8599 17.2245 17.1637 17.2216 16.9395C17.2153 16.4613 17.2242 15.9848 17.2068 15.5079M17.396 15.9024C17.3502 15.7143 17.3015 15.5268 17.2573 15.3381M17.2068 15.5079C17.2014 15.3598 17.1935 15.2116 17.1817 15.0633C17.1788 15.0259 17.1758 14.9886 17.1728 14.9512M17.2068 15.5079C17.2234 15.451 17.2403 15.3942 17.2573 15.3381M17.2068 15.5079C17.1497 15.704 17.0964 15.9006 17.055 16.0696C16.9461 16.5149 16.8928 16.9601 16.8469 17.4149C16.8343 17.5393 16.814 17.7989 16.8019 17.9744M17.1728 14.9512C17.1521 14.6961 17.1294 14.4409 17.0994 14.187C17.0814 14.0344 17.0189 13.5822 17.0089 13.7354C17.0013 13.8505 17.0372 14.1321 17.0451 14.1916C17.0841 14.4856 17.1201 14.6957 17.1728 14.9512ZM17.1728 14.9512C17.1888 15.0289 17.2064 15.1108 17.2261 15.2006C17.2362 15.2465 17.2466 15.2923 17.2573 15.3381M16.8019 17.9744C16.7917 18.123 16.7874 18.2113 16.7989 18.1061C16.8033 18.0657 16.8033 18.0189 16.8019 17.9744ZM16.8019 17.9744C16.8006 17.9345 16.7983 17.8964 16.7971 17.8665C16.7809 17.4639 16.7565 17.0781 16.7308 16.6739L16.7301 16.663C16.682 15.9037 16.6296 15.1482 16.5202 14.3952C16.48 14.119 16.4595 13.7962 16.3817 13.5244C16.3614 13.4533 16.363 13.6716 16.3618 13.7456C16.3549 14.1522 16.3549 14.5589 16.3509 14.9656C16.3398 16.093 16.3463 17.2221 16.3256 18.3493C16.3251 18.3743 16.3293 18.4005 16.3211 18.424C16.2936 18.5021 16.276 18.2644 16.2577 18.1835C16.0522 17.2728 15.869 16.358 15.7224 15.4358M15.7224 15.4358C15.6979 15.2824 15.6746 15.1287 15.6522 14.9748C15.6493 14.9546 15.6463 14.9342 15.6432 14.9137M15.7224 15.4358C15.7226 15.5447 15.7227 15.6501 15.7228 15.7489L15.7228 15.7673C15.7236 16.4591 15.7407 17.1545 15.7192 17.8462C15.6941 18.655 15.6335 16.9439 15.5916 15.6581M15.7224 15.4358C15.7217 15.0874 15.7202 14.7028 15.7156 14.3832C15.7129 14.1976 15.7175 14.0112 15.6975 13.8267C15.6696 13.5699 15.675 14.3428 15.6613 14.6007C15.6557 14.7051 15.6497 14.8094 15.6432 14.9137M15.6432 14.9137C15.6132 14.7119 15.578 14.4993 15.5491 14.2842M15.6432 14.9137C15.6279 15.162 15.6104 15.4101 15.5916 15.6581M15.5491 14.2842C15.5085 13.9811 15.4803 13.6731 15.4966 13.3834C15.5157 13.0428 15.5346 13.7326 15.5491 14.2842ZM15.5491 14.2842C15.5538 14.462 15.5581 14.6254 15.5617 14.7353C15.5694 14.9642 15.5797 15.2941 15.5916 15.6581M15.5916 15.6581C15.5438 16.2906 15.4882 16.9223 15.4423 17.555C15.4263 17.7756 15.4296 17.8535 15.4296 17.5974C15.4296 17.0894 15.4299 16.7874 15.4278 16.24C15.4252 15.5949 15.4225 15.0743 15.4124 14.4358C15.4095 14.2548 15.4062 14.0739 15.4006 13.893C15.399 13.8386 15.4374 13.7564 15.3907 13.7299C15.3466 13.705 15.3856 13.8325 15.3843 13.8838C15.3651 14.6817 15.3859 14.2104 15.3518 15.1886C15.3324 15.7432 15.3072 16.2869 15.2816 16.8401L15.2794 16.8879C15.272 17.0464 15.2648 17.2049 15.2567 17.3633C15.2539 17.418 15.2708 17.5764 15.2468 17.5274C15.2162 17.4652 15.2385 17.3885 15.235 17.3191C15.2259 17.1385 15.218 16.9579 15.2088 16.7773C15.179 16.1965 15.1476 15.5988 15.1074 15.0191C15.0915 14.7901 15.0738 14.5612 15.0531 14.3326C15.0418 14.2073 15.0416 14.0795 15.0115 13.9575C14.9672 13.7784 14.9429 14.3209 14.9264 14.5049C14.81 15.799 14.731 17.1041 14.539 18.3899C14.4729 18.833 14.4745 18.366 14.4721 18.2277C14.4691 18.061 14.4685 16.299 14.4684 16.2126M14.4684 16.2126L14.4684 16.2096M14.4684 16.2126L14.4684 17.4334C14.4684 17.6976 14.4638 16.9049 14.454 16.6409C14.4275 15.9254 14.3998 15.4642 14.3363 14.7463C14.3143 14.4971 14.2918 14.2478 14.2585 13.9999C14.2483 13.9242 14.2526 13.717 14.206 13.7769C14.1406 13.8609 14.1852 13.9904 14.1825 14.0976C14.1755 14.3681 14.1781 14.6388 14.177 14.9094C14.1756 15.2729 14.1746 15.8068 14.1757 16.2693M14.4684 16.2096C14.4681 15.4565 14.4684 13.197 14.4684 13.9501V16.2096ZM14.1757 16.2693C14.1761 16.4443 14.1768 16.6091 14.1779 16.7505C14.1793 16.927 14.1904 17.4557 14.1997 17.2795C14.2164 16.9605 14.2194 16.1216 14.2203 15.8622L14.2205 15.83C14.2224 15.3127 14.2207 13.7612 14.2042 14.2782C14.1829 14.9413 14.1771 15.6053 14.1757 16.2693ZM14.1757 16.2693C14.1747 16.7506 14.176 17.232 14.1754 17.7129M14.1754 17.7129C14.1753 17.7481 14.1753 17.7833 14.1752 17.8186C14.1743 18.3276 14.1765 17.8433 14.1754 17.7129ZM14.1754 17.7129C14.1753 17.7076 14.1753 17.7028 14.1752 17.6988C14.1656 17.0298 14.1536 16.4569 14.1064 15.7821C14.085 15.4752 14.0576 15.1686 14.0196 14.8633C13.999 14.6982 13.9988 14.5236 13.9309 14.3722C13.9066 14.3182 13.8801 14.4817 13.8747 14.5408C13.8539 14.7725 13.8569 15.0058 13.853 15.2384C13.8475 15.5685 13.8499 15.8988 13.8467 16.229C13.8438 16.523 13.8463 16.8171 13.8349 17.1109C13.8297 17.245 13.8586 17.393 13.7969 17.5117C13.7671 17.5691 13.7336 17.397 13.7191 17.3339C13.6633 17.0918 13.6303 16.845 13.5869 16.6003C13.5681 16.494 13.5468 16.3694 13.5236 16.2346M13.5236 16.2346C13.4652 15.8945 13.395 15.4896 13.3235 15.1511M13.5236 16.2346C13.4946 16.1829 13.492 16.1098 13.4747 16.0511C13.4206 15.8672 13.3729 15.6813 13.329 15.4946C13.328 15.4901 13.3269 15.4857 13.3259 15.4813M13.5236 16.2346C13.5325 16.2504 13.5439 16.2643 13.5589 16.2751C13.6011 16.3054 13.5705 16.17 13.567 16.1175C13.5557 15.9483 13.5332 15.7801 13.5145 15.6116C13.5031 15.5083 13.4265 14.7838 13.3797 14.6062C13.3388 14.4512 13.324 14.9239 13.3236 15.0845C13.3235 15.1066 13.3235 15.1289 13.3235 15.1511M13.3235 15.1511C13.2979 15.0299 13.2721 14.9173 13.2467 14.8191C13.2045 14.6568 13.1625 14.4994 13.1241 14.452M13.3235 15.1511C13.3235 15.2598 13.3244 15.3701 13.3259 15.4813M13.1241 14.452C13.1215 14.4488 13.1189 14.4462 13.1164 14.444M13.1241 14.452C13.1202 14.4284 13.1163 14.4038 13.1121 14.3782M13.1241 14.452C13.1899 14.8592 13.2098 14.9871 13.3259 15.4813M13.1164 14.444C13.0824 14.4151 13.0514 14.4802 13.0258 14.715C13.021 14.7595 13.0167 14.8086 13.013 14.8613M13.1164 14.444C13.1233 14.5509 13.1314 14.6866 13.1408 14.8569C13.1604 15.2134 13.1762 15.5582 13.1855 15.9038M13.1164 14.444C13.1149 14.4207 13.1135 14.3988 13.1121 14.3782M13.013 14.8613C12.9782 15.3567 12.9913 16.1702 13.0005 16.5478C13.0077 16.8457 13.0152 17.1438 13.0385 17.4407C13.0485 17.5683 13.0284 17.7143 13.1 17.8195C13.1388 17.8764 13.1549 17.6903 13.1616 17.6214C13.1861 17.3686 13.1902 17.1141 13.1933 16.8602C13.1972 16.5344 13.194 16.2188 13.1855 15.9038M13.013 14.8613C13.026 14.9249 13.037 14.9825 13.0453 15.0261L13.0457 15.0283C13.0945 15.2836 13.1417 15.5917 13.1855 15.9038M13.013 14.8613C12.9555 14.5791 12.8595 14.1788 12.7869 14.3593C12.7162 14.535 12.7015 15.5297 12.7 15.5941C12.695 15.8167 12.6962 16.0395 12.6946 16.2622C12.6938 16.3712 12.7202 16.4839 12.6928 16.5893C12.6757 16.6551 12.6718 16.4548 12.662 16.3875C12.6308 16.1741 12.6049 15.9598 12.5697 15.747C12.508 15.3741 12.4155 14.8646 12.3203 14.423M13.1855 15.9038C13.2348 16.2553 13.2796 16.6119 13.3172 16.9044C13.4602 18.0168 13.3668 16.9097 13.3598 16.7109C13.3457 16.3137 13.3314 15.8914 13.3259 15.4813M13.1121 14.3782C13.0768 13.8497 13.0794 14.1766 13.1046 14.3316C13.1071 14.3476 13.1097 14.3631 13.1121 14.3782ZM12.3203 14.423C12.2875 14.2712 12.2544 14.1274 12.2222 13.9999C12.1904 13.8744 12.1805 13.7327 12.1114 13.6257M12.3203 14.423C12.3964 14.9446 12.479 15.588 12.5317 16.0069C12.57 16.312 12.6116 16.6168 12.6421 16.9229C12.6566 17.0689 12.6883 17.2173 12.6665 17.3624C12.6278 17.6205 12.4771 16.8747 12.4222 16.6197C12.2649 15.8902 12.1755 15.3097 12.0982 14.5639C12.0924 14.5087 12.0868 14.4535 12.0814 14.3983M12.3203 14.423C12.3002 14.2852 12.2805 14.1558 12.262 14.0414C12.2347 13.8731 12.2236 13.6993 12.166 13.5392C12.1547 13.5077 12.1158 13.5898 12.1117 13.623L12.1114 13.6257M12.1114 13.6257C12.1051 13.6159 12.0983 13.6064 12.0909 13.5972C12.0523 13.5492 12.0425 13.7148 12.043 13.7769C12.0445 13.9844 12.0611 14.1916 12.0814 14.3983M12.1114 13.6257C12.0943 13.7694 12.0857 14.086 12.0814 14.3983M12.0814 14.3983C12.0764 14.7527 12.0769 15.1016 12.0764 15.1859C12.0746 15.532 12.0746 15.8782 12.0737 16.2244C12.0731 16.4876 12.0735 16.7509 12.0719 17.0141C12.0711 17.1453 12.0833 17.2775 12.0665 17.4076C12.0375 17.6311 11.9986 16.962 11.9687 16.7386C11.914 16.3293 11.808 15.542 11.7298 15.1315C11.7034 14.9928 11.6939 14.8447 11.6275 14.7205C11.6092 14.6862 11.5666 14.7777 11.5615 14.8163C11.5325 15.0346 11.5291 15.6469 11.5305 16.0169M11.5305 16.0169C11.5309 16.1302 11.5318 16.2209 11.5325 16.2705C11.5335 16.3397 11.5516 17.2146 11.5868 17.4278C11.6278 17.6756 11.5908 16.9249 11.576 16.6741C11.5645 16.4793 11.5488 16.2523 11.5305 16.0169ZM11.5305 16.0169C11.4993 15.6164 11.4603 15.1918 11.4203 14.8606C11.3957 14.6574 11.3152 14.062 11.2791 14.2634C11.2527 14.411 11.2697 14.836 11.2869 15.1419M11.2869 15.1419C11.2961 15.3041 11.3053 15.4328 11.3081 15.4688C11.3424 15.9084 11.4156 16.5652 11.4891 17.015C11.5461 17.3642 11.5701 17.3149 11.5416 16.9855C11.4978 16.4797 11.3986 15.7452 11.3099 15.2642C11.3024 15.2234 11.2947 15.1826 11.2869 15.1419ZM11.2869 15.1419C11.244 14.9173 11.1961 14.6934 11.1343 14.4735C11.0989 14.3475 11.1083 14.1511 10.9859 14.1105C10.8926 14.0795 10.9244 14.3028 10.9207 14.4026C10.9104 14.6836 10.9266 14.9652 10.9442 15.2458C10.9611 15.513 10.9835 15.7799 11.0093 16.0464M11.0093 16.0464C11.0216 16.1743 11.0347 16.3021 11.0483 16.4299L11.0485 16.4312C11.0638 16.5755 11.1895 17.7567 11.3008 18.083C11.4022 18.3802 11.2818 17.452 11.2284 17.1422C11.1627 16.7603 11.0913 16.4015 11.0093 16.0464ZM11.0093 16.0464C10.9192 15.6567 10.8163 15.2715 10.6935 14.8652C10.6724 14.7953 10.6413 14.6934 10.6055 14.5845M10.6055 14.5845C10.5574 14.4385 10.5011 14.28 10.4495 14.1693M10.6055 14.5845C10.7038 15.6508 10.7874 16.7288 10.7831 17.7983C10.7819 18.1194 10.7682 18.4923 10.6637 17.9347C10.5721 17.4464 10.4853 16.6254 10.4315 16.0847M10.6055 14.5845C10.5948 14.4694 10.584 14.3543 10.5732 14.2395C10.5444 13.9353 10.4526 13.03 10.4284 13.3346C10.4169 13.4793 10.4306 13.827 10.4495 14.1693M10.4495 14.1693C10.3867 14.0344 10.331 13.9706 10.3062 14.0874C10.2463 14.3692 10.4092 15.8575 10.4103 15.8687C10.4166 15.9335 10.4237 16.0062 10.4315 16.0847M10.4495 14.1693C10.4707 14.5526 10.4984 14.9292 10.5044 15.0062C10.5634 15.7681 10.6247 16.3133 10.7071 17.0592C10.7279 17.247 10.8046 17.8074 10.7632 17.6232C10.6485 17.1119 10.5425 16.5977 10.4315 16.0847M9.53466 14.3958C9.54536 14.9684 9.56525 15.5072 9.59006 16.0594M9.53466 14.3958C9.64478 14.8819 9.75113 15.4224 9.76046 15.4688C9.89591 16.1424 10.081 17.0904 10.1686 17.7955C10.1919 17.9827 10.2777 18.684 10.0691 18.0222C9.90768 17.5101 9.71731 16.6547 9.59006 16.0594M9.53466 14.3958C9.4634 14.0813 9.39056 13.7895 9.34143 13.6691C9.30582 13.5819 9.29032 13.6212 9.28612 13.721M9.59006 16.0594C9.60211 16.3278 9.61533 16.5994 9.62923 16.8796C9.63173 16.93 9.63432 16.9804 9.63697 17.0308M9.59006 16.0594C9.56556 15.9448 9.5434 15.8399 9.52424 15.7489C9.51958 15.7268 9.51499 15.7049 9.51046 15.6833M9.63697 17.0308C9.64349 17.1549 9.65041 17.2789 9.65739 17.403M9.63697 17.0308C9.64653 17.1548 9.65387 17.2789 9.65739 17.403M9.63697 17.0308C9.61346 16.7261 9.57648 16.4217 9.54958 16.1175C9.53679 15.9727 9.52385 15.828 9.51046 15.6833M9.65739 17.403C9.66782 17.5882 9.6784 17.7734 9.68806 17.9586C9.69524 18.0965 9.73512 18.2373 9.70706 18.3724C9.68535 18.4769 9.6797 18.1606 9.66814 18.0545C9.63143 17.7173 9.59893 17.3798 9.56226 17.0427C9.4688 16.1835 9.38712 15.4522 9.27355 14.5998C9.2555 14.4643 9.21226 14.1887 9.18126 13.9923M9.65739 17.403C9.66004 17.4963 9.66053 17.5897 9.65819 17.6831C9.65024 18.0006 9.56912 17.0543 9.53601 16.7386C9.48214 16.2249 9.41374 15.5452 9.36233 14.9566M9.18126 13.9923C9.15278 13.8118 9.13464 13.6983 9.15589 13.8221C9.16479 13.8738 9.17346 13.9241 9.18195 13.9731M9.18126 13.9923C9.18149 13.9859 9.18172 13.9795 9.18195 13.9731M9.18126 13.9923C9.17457 14.1857 9.17547 14.3795 9.174 14.5731C9.17145 14.9066 9.1774 16.2325 9.17762 16.5893C9.17772 16.7602 9.17932 17.2715 9.16132 17.1016C8.98859 15.4712 9.2765 17.7876 9.00747 15.5204C8.96608 15.1716 8.8144 14.0025 8.73234 13.6C8.61426 13.0207 8.60909 13.6045 8.60201 13.8211C8.56287 15.0194 8.58753 16.2226 8.58753 17.4214C8.58753 17.6236 8.59366 18.228 8.56581 18.0277C8.4861 17.4545 8.44338 16.8766 8.3839 16.3009C8.30353 15.5229 8.22795 14.7444 8.14497 13.9667C8.12594 13.7884 8.12547 13.6063 8.08252 13.4323C8.06783 13.3727 8.06023 13.5534 8.05809 13.6147C8.0441 14.015 8.05176 15.2195 8.05356 15.5019C8.0544 15.6327 8.05533 15.7852 8.05664 15.949M9.18195 13.9731C9.24525 14.338 9.29889 14.6329 9.36233 14.9566M9.18195 13.9731C9.18365 13.9276 9.18578 13.8822 9.18848 13.8368C9.19327 13.756 9.18392 13.5336 9.23192 13.5981C9.25913 13.6347 9.27558 13.6765 9.28612 13.721M9.36233 14.9566C9.40522 15.1755 9.4526 15.4076 9.51046 15.6833M9.36233 14.9566C9.34771 14.7893 9.33447 14.6294 9.32333 14.4828C9.30993 14.3065 9.27824 13.9079 9.28612 13.721M9.51046 15.6833C9.48707 15.4304 9.46232 15.1776 9.43465 14.9251C9.40121 14.62 9.36514 14.3152 9.3188 14.0119C9.30443 13.9178 9.30799 13.8135 9.28612 13.721M8.05664 15.949C8.06045 16.4269 8.06742 17.0009 8.08433 17.4113C8.08817 17.5043 8.07576 17.7767 8.10786 17.6895C8.14918 17.5774 8.11635 17.45 8.1142 17.3302C8.1091 17.0456 8.1001 16.7611 8.08614 16.4769C8.0795 16.3416 8.06925 16.1571 8.05664 15.949ZM8.05664 15.949C8.02096 15.3601 7.96641 14.5818 7.92143 14.1916C7.86624 13.7128 7.80684 13.4103 7.7549 14.1179C7.74942 14.1925 7.74426 14.2808 7.73942 14.3792M7.73942 14.3792C7.70455 15.089 7.68649 16.3294 7.68612 16.8344C7.68587 17.1711 7.68987 17.508 7.70422 17.8444C7.7104 17.9893 7.70347 18.1395 7.74766 18.2775C7.82034 18.5044 7.83316 17.8064 7.84178 17.5679C7.86446 16.9408 7.86422 15.7765 7.85626 15.1849C7.85097 14.791 7.86452 13.6201 7.78386 14.0054C7.75814 14.1283 7.74688 14.2535 7.73942 14.3792ZM7.73942 14.3792C7.73264 14.4936 7.72901 14.6084 7.72051 14.7223C7.69371 15.0815 7.67483 15.4412 7.64992 15.8005C7.62188 16.2048 7.58502 16.7983 7.52683 17.2306L7.5259 17.2376C7.51226 17.3391 7.47761 17.5971 7.44357 17.5089C7.41056 17.4234 7.4094 17.3284 7.39922 17.2371C7.37499 17.0198 7.35721 16.8018 7.3404 16.5838C7.29095 15.9427 7.23967 15.0817 7.20283 14.4459C7.18662 14.1661 7.17276 13.8862 7.15667 13.6064C7.14923 13.4771 7.15642 13.3457 7.13224 13.2185C7.11876 13.1476 7.12494 13.3628 7.12409 13.435C7.12132 13.6706 7.12162 13.9062 7.12138 14.1418C7.12127 14.2452 7.12117 14.3487 7.12108 14.4521M7.12108 14.4521C7.12028 15.3681 7.12061 16.2843 7.13133 17.2002C7.13346 17.3822 7.14494 17.9276 7.15305 17.7458C7.1697 17.3728 7.16344 16.4373 7.1612 16.2087C7.15537 15.6149 7.14655 15.0386 7.12108 14.4521ZM15.3807 13.9114C15.0283 13.9114 14.6742 13.9232 14.3227 13.8921C13.9043 13.855 13.49 13.83 13.0711 13.8092C12.8464 13.798 12.6251 13.751 12.4013 13.729C12.2393 13.713 12.0671 13.7335 11.9072 13.705C11.6264 13.6551 11.3578 13.589 11.0719 13.5631C10.8806 13.5458 10.7037 13.5134 10.5098 13.5134M5.03618 12.8665C5.06373 12.6112 5.08465 12.3596 5.10496 12.1035C5.12152 11.8946 5.16907 11.6927 5.18641 11.4842C5.20149 11.3031 5.26497 11.1311 5.27692 10.9498C5.28855 10.7732 5.28054 10.5941 5.28054 10.4171C5.28054 10.2429 5.29811 10.0856 5.3276 9.91402C5.33943 9.8452 5.34921 9.77557 5.3577 9.70549M5.3577 9.70549C5.38281 9.4981 5.39653 9.28676 5.4181 9.08099C5.45276 8.75043 5.46565 8.41366 5.47512 8.08117C5.47599 8.05059 5.47433 7.8936 5.47479 7.74535M5.3577 9.70549C5.30486 9.85796 5.20716 10.0291 5.06423 9.88361C4.9621 9.77962 4.99763 9.52932 5.01084 9.39798C5.0362 9.14585 5.06545 8.89354 5.08143 8.64052C5.09228 8.46861 5.08104 8.29877 5.10134 8.12725C5.11303 8.02848 5.11793 7.92961 5.12578 7.83053C5.12796 7.80299 5.12401 7.74191 5.14388 7.71718C5.20733 7.63822 5.39656 7.71487 5.46335 7.74114C5.46708 7.74261 5.4709 7.74401 5.47479 7.74535M5.3577 9.70549C5.37927 9.64326 5.39336 9.58413 5.4 9.55095C5.46107 9.24582 5.48335 8.93384 5.53938 8.62762C5.60997 8.24174 5.54127 8.63708 5.59277 8.35946C5.59831 8.32963 5.59494 8.24385 5.60997 8.27008C5.69078 8.41114 5.71463 8.69897 5.74029 8.83587C5.8186 9.25359 5.88765 9.67293 5.9481 10.0936M5.47479 7.74535C5.47525 7.59907 5.47779 7.46131 5.48688 7.46193C5.88759 7.48913 6.29127 7.64367 6.67972 7.73377C6.74669 7.74931 6.81371 7.76449 6.88078 7.77929M5.47479 7.74535C5.57847 7.78106 5.73927 7.77348 5.84709 7.77432C6.1892 7.77696 6.53707 7.75923 6.88078 7.77929M6.88078 7.77929C7.17095 7.84332 7.46219 7.90013 7.75581 7.94663C7.81188 7.95552 7.86803 7.96505 7.92425 7.97451M6.88078 7.77929C7.03145 7.78809 7.18131 7.80415 7.32954 7.83237C7.65653 7.89463 7.98669 7.92889 8.31421 7.98994C8.40739 8.00731 8.50343 8.02801 8.60007 8.044M7.92425 7.97451C7.92855 7.97524 7.93286 7.97596 7.93717 7.97669M7.92425 7.97451C7.91668 7.98325 7.91588 8.01377 7.91509 8.01667C7.75146 8.61645 7.66031 9.22246 7.5757 9.83938C7.47098 10.6031 7.32747 11.3634 7.24084 12.1293C7.18389 12.6328 7.16083 13.1378 7.15396 13.6442C7.15269 13.738 7.17431 14.0058 7.12862 13.9243C7.10931 13.8899 7.12058 13.814 7.12138 13.7787C7.13062 13.3692 7.17548 12.9615 7.18292 12.5513C7.19346 11.9707 7.18654 11.3895 7.18654 10.8088C7.18654 9.88821 7.164 8.97703 7.03449 8.06459C7.03133 8.04227 7.01726 7.92874 7.00101 7.88674C6.99936 7.88249 6.99535 7.87621 6.99105 7.87752C6.97942 7.88108 6.97952 7.89932 6.97476 7.9107C6.95229 7.96446 6.92888 8.01839 6.91322 8.07472C6.86664 8.24231 6.84365 8.41756 6.81548 8.58891C6.73722 9.06476 6.63017 9.53408 6.54216 10.008C6.49728 10.2497 6.4576 10.492 6.42349 10.7349M7.92425 7.97451C7.92635 7.97208 7.92898 7.97134 7.93229 7.97336C7.93397 7.97439 7.9356 7.9755 7.93717 7.97669M7.93717 7.97669C8.115 8.00657 8.29362 8.03519 8.4735 8.03971C8.51573 8.04076 8.55791 8.04229 8.60007 8.044M7.93717 7.97669C7.96228 7.99572 7.97259 8.03404 7.98116 8.05998C8.04464 8.25221 8.07384 8.46171 8.09338 8.66263C8.14021 9.14388 8.11511 9.63612 8.11511 10.1186C8.11511 10.3133 8.11566 10.508 8.11615 10.7027M8.60007 8.044C8.68699 8.04753 8.77381 8.05184 8.86077 8.05449M8.60007 8.044C8.6859 8.0582 8.77221 8.06867 8.8574 8.0698M8.86077 8.05449C8.88552 8.05525 8.91029 8.05586 8.93507 8.05629C8.99233 8.05728 8.925 8.0687 8.91154 8.06919C8.89355 8.06985 8.8755 8.07004 8.8574 8.0698M8.86077 8.05449C8.85964 8.05959 8.85851 8.0647 8.8574 8.0698M8.86077 8.05449C8.90667 7.84743 8.96971 7.6388 9.07263 7.47022C9.08023 7.45778 9.10129 7.43379 9.10883 7.44627C9.12934 7.4802 9.15197 7.64119 9.15227 7.64346C9.24465 8.32382 9.25025 9.01851 9.26993 9.70392C9.28804 10.3348 9.28803 10.9655 9.28803 11.5966V11.6261C9.28803 11.7501 9.28854 11.8741 9.28861 11.998M8.8574 8.0698C8.83081 8.19191 8.80998 8.31313 8.79026 8.42489C8.75936 8.59998 8.7371 8.77629 8.72114 8.95336M5.9481 10.0936C5.96983 10.2449 5.99046 10.3964 6.00999 10.548C6.02191 10.6405 6.0343 10.7331 6.04658 10.8258M5.9481 10.0936C5.87214 10.4964 5.80328 10.9017 5.76202 11.3082C5.71432 11.7781 5.71858 12.252 5.72006 12.7241M5.9481 10.0936C5.97665 9.9422 6.00621 9.79115 6.03567 9.64056L6.04077 9.61453C6.12865 9.16534 6.25008 8.72376 6.33671 8.27469C6.35235 8.19364 6.36434 8.10857 6.3711 8.02588C6.37426 7.98735 6.37472 7.97612 6.38287 8.05537C6.43378 8.55022 6.4355 9.0503 6.43717 9.54726C6.43851 9.94462 6.43411 10.3401 6.42349 10.7349M6.04658 10.8258C6.08801 11.1389 6.12809 11.4533 6.14394 11.7681C6.15743 12.0359 6.14296 11.2317 6.14665 10.9636C6.1537 10.4516 6.19179 9.9456 6.22358 9.43576C6.22512 9.41112 6.2211 9.33783 6.21634 9.36204C6.20739 9.40763 6.20391 9.48239 6.20186 9.52146C6.18722 9.80042 6.15615 10.0714 6.11679 10.349C6.09423 10.5081 6.07081 10.667 6.04658 10.8258ZM6.04658 10.8258C5.95636 11.417 5.85481 12.0062 5.74391 12.5937C5.7357 12.6372 5.72773 12.6807 5.72006 12.7241M5.72006 12.7241C5.68412 12.9278 5.65487 13.1312 5.63893 13.3383C5.63039 13.4493 5.6235 13.5605 5.62264 13.6719C5.62221 13.7269 5.60948 13.8066 5.6326 13.8589C5.6513 13.9012 5.68402 13.8741 5.69414 13.8405C5.71712 13.7641 5.71596 13.6614 5.71767 13.5889C5.72166 13.4196 5.72038 13.04 5.72038 12.896C5.72038 12.8387 5.72024 12.7814 5.72006 12.7241ZM6.42349 10.7349C6.40422 11.4511 6.36448 12.165 6.30142 12.8831C6.28929 13.0212 6.28039 13.159 6.27393 13.2968M6.42349 10.7349C6.33964 11.332 6.28936 11.933 6.27788 12.5375C6.27308 12.7906 6.27327 13.0437 6.27393 13.2968M6.27393 13.2968C6.26128 13.5667 6.25797 13.8364 6.25797 14.1077C6.25797 14.2338 6.27299 14.0464 6.27336 14.0073C6.2756 13.7705 6.27456 13.5336 6.27393 13.2968ZM8.11615 10.7027C8.11745 11.2121 8.11834 11.7215 8.10787 12.2306C8.10148 12.541 8.08004 12.8487 8.05356 13.1577C8.04434 13.2653 8.04555 13.3791 8.02641 13.4857C8.00639 13.5973 8.00114 13.4266 8.00107 13.4194C7.99916 13.2198 7.99981 13.0199 8.00107 12.8204C8.0038 12.387 8.02683 11.9552 8.05718 11.5229C8.07631 11.2506 8.09265 10.9763 8.11615 10.7027ZM8.11615 10.7027C8.15049 10.3032 8.20013 9.90512 8.29611 9.51685C8.35977 9.25934 8.4403 9.00549 8.51785 8.75202C8.54453 8.6648 8.56735 8.57269 8.61106 8.49216C8.61917 8.47722 8.64899 8.40805 8.66175 8.4553C8.70366 8.61048 8.71661 8.78207 8.72114 8.95336M8.72114 8.95336C8.72495 9.0971 8.72282 9.24061 8.72691 9.37402C8.75601 10.3239 8.75157 11.2836 8.70157 12.2325C8.69666 12.3257 8.691 12.419 8.68524 12.5124M8.72114 8.95336C8.66722 9.55174 8.68528 10.1589 8.68528 10.7572V12.4785C8.68528 12.4892 8.68527 12.5005 8.68524 12.5124M8.68524 12.5124C8.6622 12.8863 8.63763 13.2618 8.6536 13.6359C8.66961 14.0108 8.68443 12.9274 8.68524 12.5124ZM9.28861 11.998C9.28885 12.3913 9.28475 12.7842 9.2464 13.1761C9.22566 13.388 9.19717 13.5988 9.19119 13.8119C9.18649 13.9796 9.19029 13.7124 9.19029 13.7032C9.19029 13.2463 9.19976 12.7946 9.24821 12.3394C9.26034 12.2254 9.27393 12.1116 9.28861 11.998ZM9.28861 11.998C9.36826 11.3819 9.48015 10.7706 9.56678 10.1554C9.61665 9.80135 9.6585 9.4467 9.71702 9.09389C9.74709 8.91255 9.77552 8.73166 9.84101 8.55943C9.85569 8.5208 9.87696 8.44598 9.91341 8.42028C9.96017 8.38732 9.95717 8.52868 9.96409 8.58615C10.0057 8.93151 10.0072 9.28386 10.022 9.63112C10.0437 10.1393 10.0562 10.6476 10.063 11.156M10.063 11.156C10.0653 11.3268 10.067 11.4977 10.0682 11.6685C10.0723 12.2681 10.0514 12.851 9.99758 13.4461C9.99498 13.4748 9.99473 13.658 9.97767 13.4922C9.94171 13.1427 9.91674 12.7905 9.92336 12.4389C9.93148 12.0081 9.99105 11.5807 10.063 11.156ZM10.063 11.156C10.0931 10.9787 10.1253 10.8018 10.1569 10.6254C10.2777 9.94956 10.4116 9.27667 10.5714 8.60919C10.6075 8.45812 10.6337 8.2426 10.7053 8.09684C10.708 8.09127 10.7206 8.0807 10.7252 8.09499C10.7791 8.26143 10.7698 8.51742 10.7768 8.67738C10.8349 9.99715 10.8031 11.3227 10.8031 12.6435C10.8031 12.9065 10.7985 13.1702 10.804 13.4332C10.8054 13.5024 10.8098 13.5677 10.832 13.6331C10.8514 13.6901 10.8341 13.5127 10.8356 13.4525C10.8519 12.8156 10.9254 12.1793 11.0239 11.5506C11.1376 10.8245 11.3173 10.114 11.4927 9.40167C11.5745 9.06947 11.6437 8.72848 11.7497 8.40277C11.7922 8.27222 11.7915 8.42211 11.7986 8.48202C11.8579 8.98166 11.877 9.4849 11.8873 9.98773C11.8884 10.0414 11.8894 10.0951 11.8902 10.1488M11.8902 10.1488C11.8943 10.3991 11.8959 10.6494 11.8963 10.8998M11.8902 10.1488C11.8827 10.3836 11.8819 10.6188 11.88 10.853C11.8798 10.88 11.8796 10.9069 11.8795 10.9339M11.8902 10.1488C11.9025 9.76577 11.9329 9.38386 12.0158 9.00911C12.0622 8.7992 12.1204 8.58668 12.1932 8.38434C12.198 8.37106 12.2151 8.33528 12.2167 8.34933C12.2286 8.44997 12.2208 8.55205 12.2203 8.65342C12.2175 9.24482 12.1991 9.8358 12.1542 10.4243M11.8963 10.8998C11.897 11.3235 11.8939 11.7472 11.8927 12.1709M11.8963 10.8998C11.8907 10.9112 11.8851 10.9225 11.8795 10.9339M11.8963 10.8998C11.9623 10.7655 12.0264 10.6306 12.0909 10.4955C12.1065 10.4629 12.142 10.3712 12.1516 10.4061C12.1532 10.4121 12.154 10.4181 12.1542 10.4243M11.8927 12.1709C11.8925 12.2382 11.8924 12.3055 11.8923 12.3727M11.8927 12.1709C11.8933 12.1948 11.8939 12.2187 11.8945 12.2426C11.8954 12.2774 11.8964 12.3121 11.8973 12.3469M11.8927 12.1709C11.8825 11.7584 11.8772 11.3465 11.8795 10.9339M11.8923 12.3727C11.892 12.6295 11.8926 12.8862 11.8954 13.1429L11.8955 13.1479C11.8964 13.2262 11.8971 13.2913 11.9027 13.3678C11.9057 13.4092 11.9087 13.4316 11.9099 13.3724C11.9171 13.0309 11.9067 12.6884 11.8973 12.3469M11.8923 12.3727C11.894 12.3641 11.8956 12.3555 11.8973 12.3469M11.8923 12.3727C11.7337 13.1815 11.5445 13.9844 11.3434 14.7832C11.3188 14.8808 11.2745 14.5934 11.2538 14.4947C11.1646 14.07 11.0909 13.6286 11.1117 13.1927C11.1475 12.4403 11.4829 11.7176 11.8167 11.0594C11.8379 11.0177 11.8588 10.9758 11.8795 10.9339M11.8973 12.3469C11.904 12.3128 11.9106 12.2786 11.9172 12.2445C12.0198 11.7095 12.0904 11.1706 12.1375 10.6294M12.1542 10.4243C12.1534 10.4355 12.1525 10.4467 12.1517 10.458M12.1542 10.4243C12.1547 10.4354 12.1533 10.4467 12.1517 10.458M12.1517 10.458C12.1472 10.5151 12.1425 10.5723 12.1375 10.6294M12.1517 10.458C12.1502 10.4677 12.1487 10.4775 12.1479 10.4872L12.1474 10.495C12.1435 10.5472 12.1403 10.5899 12.1375 10.6294M12.1375 10.6294C12.1307 10.7257 12.1261 10.8026 12.119 10.9516C12.0884 11.5897 12.0767 12.2277 12.0737 12.8665C12.0713 13.3951 12.0515 13.9248 12.0556 14.4533C12.0561 14.5183 12.0972 14.7782 12.1579 14.5602C12.275 14.1398 12.2759 13.667 12.3018 13.2351C12.354 12.3634 12.3947 11.4903 12.4104 10.6171C12.4194 10.1189 12.412 9.62069 12.4167 9.12246C12.4183 8.96336 12.4241 8.82377 12.4738 8.67369C12.4829 8.64616 12.4883 8.62937 12.4937 8.60181C12.4959 8.5903 12.4858 8.56809 12.4973 8.5668C12.5254 8.56362 12.5187 8.62017 12.5262 8.64789C12.5596 8.77032 12.5967 8.93359 12.6167 9.05334C12.7041 9.57529 12.7183 10.1068 12.7416 10.6346C12.767 11.2085 12.78 11.7817 12.7914 12.356C12.794 12.4877 12.7681 12.7268 12.8321 12.8573C12.8391 12.8713 12.8478 12.8837 12.8647 12.8738C12.9254 12.8386 12.9035 12.6684 12.9036 12.6656C12.9549 11.7051 12.9404 10.7424 13.0041 9.78224C13.0334 9.34113 13.1056 8.9041 13.1163 8.46175C13.1195 8.33104 13.1257 8.36445 13.1435 8.49308C13.218 9.03304 13.2942 9.5734 13.3571 10.1149C13.442 10.8468 13.5082 11.5828 13.5312 12.3198M13.5312 12.3198C13.5369 12.5023 13.5399 12.6848 13.5399 12.8674C13.5399 13.4927 13.535 13.1051 13.5312 12.3198ZM13.5312 12.3198C13.5256 11.166 13.5222 9.15369 13.5399 8.23506C13.5513 7.64007 13.6987 9.4156 13.7299 10.0098C13.7849 11.0551 13.7369 12.1041 13.7553 13.1503C13.7585 13.3326 13.7606 13.518 13.7806 13.6995C13.7926 13.8085 13.8356 13.487 13.853 13.3788C13.9946 12.5015 14.1038 11.6191 14.2187 10.7378C14.3252 9.91976 14.4481 9.10162 14.5101 8.27837C14.5173 8.18207 14.5039 7.90399 14.5454 7.99087C14.5786 8.06058 14.5862 8.21088 14.5897 8.25441C14.6171 8.59475 14.6218 8.91031 14.6268 9.25515C14.6393 10.1107 14.6314 10.9668 14.6314 11.8224C14.6314 12.1241 14.6306 12.7348 14.6332 13.06C14.635 13.2896 14.6305 13.5276 14.6603 13.7566C14.6629 13.7763 14.6735 13.8333 14.6766 13.8138C14.6946 13.7002 14.6887 13.584 14.6947 13.4691C14.7335 12.7234 14.8017 11.983 14.883 11.241C14.9654 10.4875 15.0274 9.72692 15.1436 8.97778C15.1508 8.93112 15.1488 8.879 15.1744 8.83956C15.1848 8.8235 15.1962 8.87227 15.1997 8.89116C15.2514 9.16716 15.2599 9.45956 15.2821 9.73893C15.3244 10.2734 15.3555 10.8073 15.3615 11.3416M15.3615 11.3416C15.3657 11.718 15.3574 12.0947 15.3319 12.4721C15.3249 12.574 15.3386 12.6816 15.3029 12.7771C15.2663 12.875 15.3026 12.5675 15.3065 12.4629C15.3204 12.0892 15.3376 11.7152 15.3615 11.3416ZM15.3615 11.3416C15.4005 10.7314 15.4571 10.1223 15.5454 9.51778C15.586 9.23983 15.6304 8.96196 15.6758 8.68475C15.6972 8.55361 15.7036 8.58718 15.721 8.71792C15.8759 9.88088 15.8369 11.0702 15.8369 12.2408C15.8369 12.3961 15.8301 12.5544 15.8378 12.7098C15.8459 12.8745 15.8772 12.3825 15.8948 12.2187C15.9964 11.2691 16.1435 10.3254 16.245 9.37587C16.2861 8.99165 16.2892 8.88697 16.3147 8.52625C16.3212 8.43532 16.3255 8.34419 16.3346 8.25349C16.3493 8.10769 16.358 8.19501 16.3654 8.28851C16.4159 8.92937 16.4413 9.57768 16.4489 10.2213M16.4489 10.2213C16.4495 10.278 16.4501 10.3347 16.4505 10.3913C16.4553 11.0785 16.3685 11.7506 16.3093 12.4334C16.281 12.7596 16.2758 12.874 16.264 13.1798C16.2612 13.2536 16.2608 13.3959 16.2604 13.1798C16.2588 12.3595 16.2746 11.5535 16.3799 10.7387C16.4022 10.5661 16.4254 10.3937 16.4489 10.2213ZM16.4489 10.2213C16.5126 9.75259 16.5778 9.28436 16.6297 8.81376C16.6461 8.66436 16.6514 8.51296 16.6822 8.36591C16.6843 8.35591 16.6922 8.33214 16.6985 8.34011C16.7151 8.36124 16.7154 8.39151 16.7229 8.41752C16.8911 9.00182 16.8577 9.68154 16.8731 10.2789C16.8939 11.083 16.8927 11.8871 16.8967 12.6914L16.8968 12.724C16.8975 12.8723 16.8984 13.0553 16.9039 13.2056C16.908 13.3175 16.9104 13.2701 16.9202 13.1687C16.9888 12.4604 17.0487 11.7517 17.1383 11.0456C17.2205 10.398 17.3163 9.75616 17.3609 9.10403C17.3837 8.7709 17.386 8.65878 17.398 8.35209C17.4125 7.98311 17.4484 8.38279 17.4605 8.47465C17.6681 10.0528 17.6265 11.647 17.6288 13.2351L17.6288 13.2518C17.6289 13.3344 17.6292 13.5797 17.6324 13.6626C17.634 13.7033 17.6398 13.5816 17.6415 13.541C17.6913 12.3438 17.8433 11.1563 17.9402 9.96285C17.9732 9.55527 17.9857 9.14746 18.0035 8.73912C18.0054 8.69578 17.9999 8.65113 18.0108 8.60919C18.0136 8.59806 18.0271 8.62658 18.0298 8.63775C18.0618 8.77119 18.1227 9.21453 18.1311 9.2745C18.2701 10.2592 18.3483 11.2486 18.341 12.2397M18.341 12.2397C18.3373 12.7364 18.3121 13.2336 18.2624 13.7308C18.26 13.7539 18.2568 13.777 18.2533 13.7999C18.2522 13.8069 18.2547 13.7858 18.2551 13.7787C18.2778 13.4267 18.2623 13.655 18.2877 13.1466C18.3028 12.8439 18.3206 12.5417 18.341 12.2397ZM18.341 12.2397C18.3906 11.5033 18.4557 10.7687 18.5357 10.0338C18.5621 9.79075 18.5795 9.54263 18.6153 9.3003C18.6313 9.1923 18.6446 9.34787 18.6506 9.3731C18.6851 9.51763 18.7378 9.6553 18.7674 9.80159C18.8115 10.0202 18.8384 10.2428 18.8723 10.4632C18.9151 10.7407 18.8995 11.0235 18.8995 11.3036C18.8995 11.496 18.9104 11.6922 18.8959 11.8842C18.8791 12.106 18.7999 12.3168 18.7873 12.5384C18.7786 12.6908 18.8161 12.8414 18.8063 12.9918C18.8044 13.021 18.7936 13.0579 18.7857 13.0941M18.7857 13.0941C18.7789 13.1249 18.7743 13.1553 18.7791 13.1798C18.7854 13.2118 18.7858 13.147 18.7857 13.0941ZM18.7857 13.0941C18.7856 13.0763 18.7855 13.0599 18.7855 13.0489M5.15021 7.37623C5.12042 7.14707 5.05247 6.92235 5.05247 6.69064V6.22806C5.05247 5.9433 5.04582 5.65754 5.05337 5.37291C5.05653 5.2539 5.06019 5.12222 5.07781 5.00432C5.09507 4.88882 5.13392 4.79955 5.13392 4.68088V3.37144C5.13392 3.1538 5.1665 2.93987 5.1665 2.72363C5.1665 2.6195 5.20135 2.53105 5.21356 2.43152C5.22235 2.35994 5.21374 2.29504 5.23981 2.22603C5.24557 2.21077 5.24355 2.19234 5.24977 2.17811C5.26859 2.13499 5.69299 2.18032 5.72219 2.18087C6.00091 2.1862 6.2797 2.18456 6.55845 2.18456C6.73571 2.18456 6.92508 2.20458 7.09875 2.16429C7.30052 2.11748 7.48459 2.07323 7.68974 2.05002C7.73403 2.04501 7.77237 2.02189 7.81554 2.01224C7.9043 1.9924 8.00153 2.0021 8.09157 2.0021H9.44732C10.0543 2.0021 10.661 1.98552 11.2682 1.98552H12.1905C12.5285 1.98552 12.8332 2.03694 13.1616 2.10715C13.4652 2.17207 13.7842 2.16797 14.0938 2.16797C14.1186 2.16797 14.1902 2.15457 14.1987 2.18548C14.222 2.2699 14.2078 2.37241 14.2078 2.45916V2.87752C14.2078 3.35053 14.2104 3.82361 14.2078 4.29661C14.2054 4.73772 14.1616 5.17619 14.1761 5.61895C14.1866 5.93963 14.2233 6.43058 14.4929 6.65194C14.5515 6.70006 14.636 6.71325 14.7038 6.74593C14.7842 6.78473 14.8851 6.82685 14.9716 6.84545C15.2832 6.91242 15.6069 6.96156 15.9256 6.96156C16.5986 6.96156 17.2795 6.90825 17.9519 6.94682C18.1134 6.95608 18.2684 6.99474 18.4307 6.99474C18.5252 6.99474 18.6113 7.01556 18.704 7.0316C18.7501 7.03956 18.8704 7.02986 18.8796 7.09241C18.9057 7.26974 18.8318 7.43232 18.8144 7.60292C18.768 8.05977 18.6957 8.50874 18.7294 8.96949C18.7355 9.05329 18.7765 9.29898 18.7456 9.22106C18.6713 9.03366 18.6443 8.79875 18.6289 8.59905C18.6174 8.45014 18.6535 8.303 18.6443 8.15397C18.6343 7.99246 18.5553 7.88398 18.4416 7.77708C18.2604 7.60683 18.1433 7.6007 17.9347 7.71903C17.7348 7.83243 17.6158 7.99443 17.5302 8.20834C17.5048 8.27177 17.49 8.33941 17.4623 8.40185C17.4285 8.4781 17.4006 8.24622 17.3809 8.16503L17.3792 8.15822C17.3358 7.97988 17.2818 7.75752 17.2288 7.58449C17.2131 7.53326 17.1346 7.16459 17.008 7.16982C16.9563 7.17195 16.885 7.26326 16.8614 7.28869C16.7838 7.37215 16.7075 7.45716 16.6315 7.5421C16.3721 7.83205 16.1414 8.14459 15.864 8.41844L15.8604 8.42205C15.8168 8.46508 15.6785 8.60175 15.607 8.63683C15.495 8.69176 15.5382 8.4247 15.54 8.40646C15.571 8.09026 15.6752 7.794 15.7862 7.49971C15.8015 7.45906 15.8619 7.39107 15.8224 7.37439C15.7993 7.36466 15.6725 7.4473 15.6078 7.49111C15.5824 7.50836 15.5567 7.52515 15.5303 7.5409C15.3101 7.67217 15.0884 7.79912 14.8811 7.95124C14.8087 8.00442 14.6729 8.15593 14.6123 8.02496C14.5691 7.93138 14.523 7.83693 14.5173 7.73193C14.5132 7.65492 14.5153 7.64306 14.4313 7.62596C14.2634 7.59176 14.1351 7.62682 14.1119 7.41401C14.1075 7.37428 14.1121 7.34369 14.1232 7.3205M14.1232 7.3205C14.1811 7.20028 14.4167 7.27959 14.5137 7.3191C14.6184 7.36175 14.7179 7.3881 14.8277 7.40941C14.8421 7.41219 14.627 7.4519 14.5988 7.45179C14.4317 7.45117 14.2727 7.39593 14.1232 7.3205ZM14.1232 7.3205C14.0385 7.27774 13.9568 7.22849 13.8784 7.17903C13.8044 7.13235 13.7385 7.08797 13.6826 7.03907M13.6826 7.03907C13.5777 6.94738 13.508 6.83979 13.4856 6.67129C13.4441 6.35968 13.446 6.03878 13.4331 5.72492C13.4207 5.4247 13.3969 5.12626 13.3806 4.82647C13.3551 4.35725 13.4096 3.8808 13.4096 3.41014V2.9153C13.4096 2.86151 13.4081 2.78076 13.4458 2.87752C13.5331 3.10168 13.5962 3.34752 13.6195 3.58707C13.6995 4.40673 13.7174 5.24086 13.7191 6.06403C13.7198 6.39119 13.7041 6.71509 13.6826 7.03907ZM13.6826 7.03907C13.6783 7.10274 13.6739 7.16641 13.6692 7.23011M13.6692 7.23011C13.6587 7.3746 13.6475 7.51924 13.6363 7.66431M13.6692 7.23011C13.6599 7.20521 13.6507 7.18287 13.6422 7.16521C13.6388 7.15819 13.627 7.14201 13.625 7.14955C13.6002 7.23883 13.6215 7.33507 13.6213 7.42784C13.6212 7.4937 13.6217 7.55968 13.6224 7.62574M13.6692 7.23011C13.7057 7.32711 13.7447 7.46298 13.7589 7.51261C13.8067 7.67979 13.8841 7.95903 13.9064 8.13738C13.9116 8.17888 13.9343 8.28591 13.9001 8.26271C13.8365 8.21955 13.8201 8.12949 13.7897 8.05814C13.7344 7.92863 13.6844 7.7968 13.6363 7.66431M13.6363 7.66431C13.6352 7.67825 13.6342 7.69218 13.6331 7.70613C13.6302 7.74426 13.6275 7.79397 13.6251 7.85002M13.6363 7.66431C13.6316 7.65146 13.627 7.6386 13.6224 7.62574M13.6251 7.85002C13.6115 8.16496 13.6065 8.68004 13.6177 8.46543C13.6284 8.26112 13.6275 8.05548 13.6251 7.85002ZM13.6251 7.85002C13.6242 7.77521 13.6231 7.70043 13.6224 7.62574M13.6224 7.62574C13.6123 7.59788 13.6023 7.56999 13.5924 7.5421C13.452 7.14853 13.2742 6.5955 13.1489 6.1912C13.1073 6.05683 13.068 5.9217 13.0285 5.78666C13.0107 5.72572 12.9969 5.66353 12.977 5.60329C12.9741 5.59479 12.9669 5.57575 12.9607 5.58209C12.8963 5.64762 12.9238 5.7638 12.9127 5.85577C12.8344 6.50268 12.7831 7.15367 12.7398 7.8038C12.717 8.14698 12.6961 8.51137 12.6801 8.87012M12.6801 8.87012C12.6721 9.05176 12.6653 9.23194 12.6602 9.4072C12.6568 9.52264 12.6558 9.63819 12.6575 9.75368C12.6588 9.84292 12.6726 9.57569 12.6738 9.48644C12.6765 9.28102 12.6786 9.07558 12.6801 8.87012ZM12.6801 8.87012C12.6905 7.49356 12.6765 6.11631 12.6765 4.73985C12.6765 4.0454 12.7284 3.34031 12.5715 2.66005C12.5247 2.45708 12.311 2.3109 12.1425 2.51445C11.9708 2.72183 12.0086 3.05708 12.0086 3.30601C12.0086 3.77425 12.0346 4.2384 12.0592 4.70576C12.078 5.06081 12.0779 5.41742 12.0701 5.77284C12.0618 6.14814 12.0001 6.51533 11.9706 6.88876C11.9308 7.39207 11.8622 7.86978 11.7253 8.35578C11.7035 8.43324 11.6886 8.55274 11.642 8.62209C11.6297 8.64046 11.6231 8.6344 11.604 8.62024C11.4944 8.5391 11.4119 8.38874 11.3624 8.26639C11.1189 7.66543 11.1527 6.96606 11.1931 6.33219C11.2303 5.74997 11.3124 5.17595 11.3913 4.59886C11.4441 4.21256 11.4221 3.81679 11.4221 3.42765C11.4221 3.25316 11.4397 2.93534 11.2909 2.80656C11.262 2.78161 11.1317 2.68206 11.0909 2.69967C10.9491 2.76073 10.9096 3.08405 10.8863 3.20926C10.8386 3.46574 10.8255 3.73033 10.8212 3.99068C10.8083 4.77189 10.8243 5.55365 10.8193 6.33495C10.8162 6.82818 10.7944 7.31972 10.7116 7.80657C10.6751 8.02136 10.6343 8.26023 10.546 8.46175C10.4934 8.5818 10.3904 8.24429 10.3578 8.11711C10.2797 7.81279 10.2631 7.62753 10.2465 7.29975C10.2163 6.70489 10.2329 6.10651 10.2329 5.51114V3.75484M10.2329 3.75484C10.2706 3.60034 10.3032 3.44476 10.3243 3.28666C10.3482 3.10736 10.3592 2.89823 10.2854 2.72824C10.2556 2.65974 10.2412 2.59162 10.2332 2.51999M10.2329 3.75484C10.1488 4.09955 10.0396 4.43887 9.97767 4.78869C9.84607 5.53156 9.84516 6.28612 9.77313 7.03528C9.74272 7.35148 9.69878 7.66849 9.63104 7.97889C9.62563 8.00365 9.51683 8.36131 9.49619 8.32721C9.46225 8.27112 9.44617 8.03106 9.44551 8.01759C9.42109 7.51884 9.46792 7.01921 9.50886 6.52293C9.56761 5.81077 9.59755 5.11041 9.59755 4.39613C9.59755 3.81486 9.61384 3.2338 9.61384 2.65268C9.61384 2.61317 9.64304 2.24276 9.51881 2.30804C9.38916 2.37617 9.34381 2.64314 9.31066 2.76233C9.23387 3.03843 9.19695 3.32105 9.16495 3.6055C9.09022 4.26968 9.10983 4.94525 9.05815 5.6125C9.0102 6.23171 8.96476 6.87267 8.80293 7.47391L8.80014 7.48428C8.74279 7.69739 8.68534 7.91086 8.59115 8.11066C8.55129 8.19522 8.52935 8.31193 8.46988 8.17793C8.26871 7.72465 8.21527 7.18967 8.17122 6.7017C8.09532 5.86105 8.11511 5.01259 8.11511 4.16945V3.08209C8.11511 2.94368 8.10429 2.79972 8.11873 2.66189C8.12712 2.58175 8.16269 2.53561 8.21436 2.50377M10.2329 3.75484V2.63793C10.2329 2.59863 10.2331 2.55931 10.2332 2.51999M10.2332 2.51999C10.2335 2.45547 10.2337 2.39095 10.2329 2.32647C10.2328 2.31595 10.2339 2.28573 10.2293 2.29514C10.2133 2.3276 10.2249 2.40791 10.2266 2.43705C10.2282 2.46534 10.2302 2.49291 10.2332 2.51999ZM8.21436 2.50377C8.25154 2.48087 8.29707 2.46537 8.34679 2.44995C8.40823 2.43089 8.53106 2.37558 8.59749 2.40848C8.6467 2.43286 8.65179 2.4586 8.66398 2.52033L8.66446 2.52275C8.712 2.76313 8.70153 3.02494 8.69433 3.26823C8.67799 3.82008 8.55921 4.37341 8.47531 4.91678C8.39733 5.4218 8.31747 5.92596 8.26444 6.43447C8.25978 6.47911 8.25486 6.52652 8.25003 6.57524M8.21436 2.50377C8.26349 2.77228 8.24538 3.21608 8.24543 3.2498C8.24666 4.02201 8.24543 4.79422 8.24543 5.56643C8.24543 5.90162 8.25429 6.239 8.25003 6.57524M8.21436 2.50377C8.19104 2.37628 8.15255 2.2883 8.08976 2.30251C7.83743 2.3596 7.72513 2.54448 7.65897 2.7909C7.54723 3.20703 7.51924 3.63524 7.51235 4.0644C7.49996 4.8361 7.47955 5.60753 7.46258 6.37918C7.45439 6.75147 7.45107 7.04291 7.42547 7.40941C7.4045 7.70965 7.35538 8.00461 7.32229 8.30325C7.31762 8.34547 7.33709 8.84245 7.25351 8.58062C7.07336 8.01622 6.91785 7.44326 6.79326 6.86357M8.25003 6.57524C8.23748 6.70186 8.22549 6.83745 8.22009 6.95696C8.20948 7.19185 8.23593 7.00309 8.23819 6.95972C8.24487 6.83185 8.2484 6.70363 8.25003 6.57524ZM6.79326 6.86357C6.67641 6.31988 6.58676 5.77028 6.52948 5.21626C6.46493 4.59185 6.46075 3.96213 6.61184 3.35117C6.65146 3.19095 6.71184 3.04211 6.77475 2.89042C6.79674 2.83739 6.81859 2.72422 6.86797 2.68585C7.09073 2.51275 7.11067 3.07159 7.11595 3.13738C7.16108 3.70033 7.10684 4.26964 7.04807 4.82924C7.00327 5.25577 6.9647 5.68392 6.90236 6.10826L6.89517 6.15716C6.86057 6.39261 6.82599 6.62796 6.79326 6.86357ZM6.79326 6.86357C6.76117 7.09461 6.73087 7.3259 6.7041 7.55782C6.70353 7.5627 6.703 7.56758 6.70249 7.57246C6.69775 7.6181 6.67209 7.86287 6.66343 7.90609C6.63393 8.05328 6.57377 7.84328 6.5675 7.81855C6.43818 7.30851 6.41874 6.75619 6.37744 6.23359C6.33669 5.71798 6.33311 5.20141 6.35029 4.68456C6.36087 4.36608 6.39053 4.04893 6.42812 3.73266C6.45475 3.5086 6.50779 3.28803 6.53039 3.06366C6.53839 2.98429 6.56418 2.83984 6.4607 2.81486C6.38278 2.79605 6.25749 2.7604 6.17833 2.76786C6.12224 2.77315 6.10983 2.80107 6.09145 2.85817C6.01997 3.08022 6.03108 3.35155 6.01543 3.57969C5.96933 4.2513 5.91904 4.92193 5.83894 5.59039C5.74393 6.38332 5.6578 7.19524 5.4905 7.97704C5.46765 8.08387 5.4081 8.07769 5.37195 7.95954C5.32426 7.80373 5.31856 7.62598 5.31131 7.46746C5.28837 6.96603 5.29348 6.46075 5.29683 5.95898C5.30163 5.23838 5.34188 4.54281 5.51856 3.84324C5.57866 3.60526 5.63833 3.37958 5.6516 3.13369C5.6597 2.98354 5.65522 2.8325 5.65522 2.68216M19.5 21.25V6.78391C19.5 6.45629 19.3714 6.14176 19.1418 5.90802L15.1799 1.87411C14.9449 1.63481 14.6235 1.5 14.2881 1.5H5.75C5.05964 1.5 4.5 2.05964 4.5 2.75V21.25C4.5 21.9404 5.05964 22.5 5.75 22.5H18.25C18.9404 22.5 19.5 21.9404 19.5 21.25Z" stroke="white" stroke-width="1.25" stroke-linecap="round"/>
</mask>
<g mask="url(#mask0_311_1881)">
<path d="M3 0H21V9H3V0Z" fill="white"/>
<path d="M3 16.5H21V25.5H3V16.5Z" fill="white"/>
</g>
<path d="M16.4633 4.27851L16.4281 4.29964M16.4704 4.21515C16.3997 4.12359 16.322 4.03459 16.2595 3.93703C16.21 3.85968 16.1561 3.77998 16.0937 3.71212C15.9815 3.59021 15.9352 3.43648 15.8539 3.29592C15.8026 3.2073 15.7218 3.14542 15.6575 3.06749C15.6319 3.03637 15.6055 3.00704 15.5779 2.9783M15.5779 2.9783C15.5682 2.9682 15.5584 2.95818 15.5484 2.94818C15.5257 2.92551 15.5496 2.99357 15.5508 3.00256C15.556 3.0426 15.5554 3.08291 15.5553 3.12319M15.5779 2.9783C15.5837 3.09664 15.5826 3.21616 15.5804 3.33549M15.5779 2.9783C15.577 2.95949 15.5759 2.94072 15.5746 2.92198C15.5697 2.85018 15.549 2.77408 15.5042 2.71545C15.492 2.6995 15.4724 2.6868 15.4768 2.71858C15.4905 2.81586 15.5231 2.90954 15.5375 3.00686C15.5432 3.04596 15.5494 3.08464 15.5553 3.12319M15.5553 3.12319C15.5552 3.16053 15.5555 3.19784 15.5613 3.2349C15.5682 3.2786 15.5745 3.32158 15.5799 3.36439M15.5553 3.12319C15.566 3.1938 15.5757 3.26398 15.5804 3.33549M15.5799 3.36439C15.5809 3.37272 15.5819 3.38104 15.5829 3.38935M15.5799 3.36439C15.5782 3.45155 15.5762 3.53856 15.5762 3.62489C15.5762 3.7231 15.5743 4.01724 15.5832 3.91943C15.5859 3.88969 15.5942 3.86082 15.5965 3.83103C15.602 3.76167 15.5973 3.6902 15.5973 3.62059L15.5973 3.61683M15.5799 3.36439C15.58 3.35476 15.5802 3.34513 15.5804 3.33549M15.5829 3.38935C15.5916 3.46439 15.5971 3.53924 15.5973 3.61683M15.5829 3.38935C15.5824 3.3713 15.5816 3.35335 15.5804 3.33549M15.5829 3.38935C15.583 3.39601 15.5832 3.40268 15.5832 3.40936C15.5839 3.4809 15.5892 3.54862 15.5973 3.61683M15.5973 3.61683C15.602 3.65611 15.6076 3.69555 15.6137 3.73598C15.6362 3.88284 15.6184 4.04133 15.6184 4.19011C15.6184 4.3359 15.6093 4.47026 15.5734 4.61217C15.5467 4.71796 15.5382 4.82686 15.5112 4.93331C15.4868 5.02997 15.4837 5.10124 15.4956 5.19852C15.5028 5.25708 15.4734 5.38695 15.523 5.43204C15.5532 5.45949 15.6519 5.44025 15.6892 5.44025C15.7809 5.44025 15.8624 5.44489 15.9525 5.45981C16.0284 5.47239 16.1055 5.47615 16.1813 5.48993C16.2559 5.50348 16.3276 5.52779 16.4023 5.54039C16.4783 5.5532 16.5522 5.57465 16.6292 5.58107C16.7452 5.59074 16.8617 5.59252 16.9777 5.60219C17.2345 5.62359 17.4893 5.63301 17.7471 5.62996C17.8499 5.62875 17.9496 5.61743 18.0514 5.60571C18.1145 5.59846 18.1828 5.59045 18.24 5.55995C18.2819 5.53759 18.1548 5.42442 18.1406 5.41131C18.0067 5.28791 17.843 5.19303 17.6908 5.09447C17.567 5.01434 17.4232 4.9514 17.3069 4.85849M17.3069 4.85849C17.2942 4.84834 17.2819 4.83784 17.2699 4.82692C17.1543 4.72151 17.0677 4.60123 16.9804 4.47253C16.887 4.33469 16.7798 4.21487 16.6652 4.09467C16.6585 4.08772 16.6008 4.03922 16.6018 4.02387C16.6027 4.00898 16.6304 4.03312 16.6433 4.04069C16.6892 4.06779 16.7275 4.09463 16.7708 4.12713C16.9426 4.25622 17.0619 4.41137 17.1713 4.59574C17.2042 4.65109 17.281 4.76042 17.3069 4.85849ZM17.3069 4.85849C17.3267 4.93325 17.3169 5.00146 17.2355 5.03423C17.1741 5.05892 17.1047 5.0607 17.0399 5.05535C16.9006 5.04385 16.7613 5.00939 16.6257 4.97712C16.5724 4.96444 16.506 4.95383 16.461 4.91845C16.4195 4.88586 16.3979 4.83158 16.3648 4.79171C16.2989 4.71245 16.1709 4.71758 16.0718 4.74031M16.0718 4.74031C16.0565 4.74381 16.0419 4.74772 16.0284 4.75181C15.9434 4.77743 15.9129 4.89295 15.947 4.97243C15.9605 5.00382 15.9944 4.97635 16.0068 4.96265C16.06 4.9043 16.0736 4.81983 16.0718 4.74031ZM16.0718 4.74031C16.0712 4.71572 16.0691 4.69161 16.0663 4.66889C16.0545 4.57415 16.0289 4.49678 15.9282 4.49678M18.7456 6H15.3125C15.1399 6 15 5.86009 15 5.6875V2.25444C15 1.97603 15.3366 1.83661 15.5335 2.03347L18.9665 5.46653C19.1634 5.66339 19.024 6 18.7456 6Z" stroke="#C1C1C1" stroke-width="1.25" stroke-linecap="round"/>
<path d="M16.1652 7.68155L21.4685 12.9848M21.4685 12.9848L16.1652 18.2881M21.4685 12.9848L3 12.9853" stroke="#474747" stroke-width="2.25" stroke-linecap="round" stroke-linejoin="round"/>
</svg>
