<svg width="16" height="16" viewBox="0 0 16 16" fill="none" xmlns="http://www.w3.org/2000/svg">
<ellipse cx="8" cy="4" rx="5" ry="2" fill="white"/>
<path fill-rule="evenodd" clip-rule="evenodd" d="M13 5H3V13C3 14.1046 5.23858 15 8 15C10.7614 15 13 14.1046 13 13V5Z" fill="#404040"/>
<path fill-rule="evenodd" clip-rule="evenodd" d="M13 7H3V10C3 11.1046 5.23858 12 8 12C10.7614 12 13 11.1046 13 10V7Z" fill="#808080"/>
<path fill-rule="evenodd" clip-rule="evenodd" d="M13 4H3V7C3 8.10457 5.23858 9 8 9C10.7614 9 13 8.10457 13 7V4Z" fill="#BFBFBF"/>
<ellipse cx="8" cy="4" rx="5" ry="2" fill="#E3E3E3"/>
<path d="M10.6 7V8.125C8.61178 8.125 7 9.63604 7 11.5C7 12.9749 8.01025 14.2259 9.41641 14.6849V13.4457C8.69335 13.0581 8.2 12.3368 8.2 11.5C8.2 10.2574 9.27454 9.25 10.6 9.25V10.375L13 8.6875L10.6 7ZM13.6 8.32056V9.56201C14.3146 9.95177 14.8 10.6693 14.8 11.5C14.8 12.7426 13.7254 13.75 12.4 13.75V12.625L10 14.3125L12.4 16V14.875C14.3884 14.875 16 13.3641 16 11.5C16 10.031 14.9974 8.78417 13.6 8.32056Z" fill="#7DCD17"/>
</svg>
