<svg width="16" height="16" viewBox="0 0 16 16" fill="none" xmlns="http://www.w3.org/2000/svg">
<g clip-path="url(#clip0_238_324)">
<path d="M7 2.5V4.10157C4.2 5.12376 4 6.97606 4 8.38229C4 10.4857 6.1701 12.1912 8.6 12.1912V10.2867L13 13.1434L8.6 16V14.0956C4.9546 14.0956 2 11.5379 2 8.38229C2 5.89548 3 3.5 7 2.5Z" fill="#7DCD17"/>
<path fill-rule="evenodd" clip-rule="evenodd" d="M13.4907 10.4229C13.8181 9.68191 14 8.86219 14 8C14 4.68629 11.3137 2 8 2C4.68629 2 2 4.68629 2 8C2 9.6433 2.66063 11.1323 3.7308 12.2159L3.99952 5.00005L4.87644 5.50109C5.60948 4.586 6.73631 4 8 4C10.2091 4 12 5.79086 12 8C12 8.501 11.9079 8.98048 11.7397 9.42244L13.4907 10.4229Z" fill="#7DCD17"/>
</g>
<defs>
<clipPath id="clip0_238_324">
<rect width="16" height="16" fill="white"/>
</clipPath>
</defs>
</svg>
