<svg width="16" height="16" viewBox="0 0 16 16" fill="none" xmlns="http://www.w3.org/2000/svg">
<g clip-path="url(#clip0_223_248)">
<path d="M6.4 0V2C2.86539 2 0 4.6863 0 8C0 10.622 1.79599 12.8461 4.29583 13.6621V11.459C3.01039 10.77 2.13333 9.4877 2.13333 8C2.13333 5.7909 4.04363 4 6.4 4V6L10.6667 3L6.4 0ZM11.7333 2.34766V4.55469C13.0037 5.24759 13.8667 6.5232 13.8667 8C13.8667 10.209 11.9563 12 9.6 12V10L5.33333 13L9.6 16V14C13.1349 14 16 11.314 16 8C16 5.3884 14.2176 3.17186 11.7333 2.34766Z" fill="#2E2E2E"/>
</g>
<defs>
<clipPath id="clip0_223_248">
<rect width="16" height="16" fill="white"/>
</clipPath>
</defs>
</svg>
