<svg width="16" height="16" viewBox="0 0 16 16" fill="none" xmlns="http://www.w3.org/2000/svg">
    <g clip-path="url(#clip0_329_286)">
        <rect x="1" y="1" width="14" height="14" rx="3" fill="#7C7C7C"/>
        <g filter="url(#filter0_ii_329_286)">
            <path d="M1 4C1 2.34315 2.34315 1 4 1H8V8H1V4Z" fill="#E27B1B"/>
            <path d="M8 1H12C13.6569 1 15 2.34315 15 4V8H8V1Z" fill="#E27B1B"/>
            <path d="M1 8H8V15H4C2.34315 15 1 13.6569 1 12V8Z" fill="#E27B1B"/>
            <path d="M8 8H15V12C15 13.6569 13.6569 15 12 15H8V8Z" fill="#B4B4B4"/>
        </g>
        <path d="M9.66122 11.0788V10.1964H13.0941V11.0788H9.66122ZM9.66122 12.7294V11.8469H13.0941V12.7294H9.66122Z"
              fill="black"/>
        <path d="M4.13317 13.2241V9.70419H5.02308V13.2241H4.13317ZM2.81818 11.9091V11.0192H6.33807V11.9091H2.81818Z"
              fill="#E4E4E4"/>
        <path d="M13.0376 4.5V5.30291H9.69425V4.5H13.0376Z" fill="#E4E4E4"/>
        <path d="M5.04297 6.18182V5.9517C5.04297 5.77699 5.0799 5.61648 5.15376 5.47017C5.22905 5.32244 5.33771 5.20455 5.47976 5.11648C5.62322 5.02699 5.79794 4.98224 6.00391 4.98224C6.21271 4.98224 6.38814 5.02628 6.53018 5.11435C6.67365 5.20241 6.78161 5.32031 6.85405 5.46804C6.92791 5.61435 6.96484 5.77557 6.96484 5.9517V6.18182C6.96484 6.35653 6.92791 6.51776 6.85405 6.66548C6.78018 6.81179 6.67152 6.92898 6.52805 7.01705C6.38459 7.10653 6.20987 7.15128 6.00391 7.15128C5.7951 7.15128 5.61967 7.10653 5.47763 7.01705C5.33558 6.92898 5.22763 6.81179 5.15376 6.66548C5.0799 6.51776 5.04297 6.35653 5.04297 6.18182ZM5.663 5.9517V6.18182C5.663 6.28267 5.68714 6.37784 5.73544 6.46733C5.78516 6.55682 5.87464 6.60156 6.00391 6.60156C6.13317 6.60156 6.22124 6.55753 6.26811 6.46946C6.31641 6.38139 6.34055 6.28551 6.34055 6.18182V5.9517C6.34055 5.84801 6.31783 5.75142 6.27237 5.66193C6.22692 5.57244 6.13743 5.5277 6.00391 5.5277C5.87607 5.5277 5.78729 5.57244 5.73757 5.66193C5.68786 5.75142 5.663 5.84801 5.663 5.9517ZM2.80362 3.68466V3.45455C2.80362 3.27841 2.84126 3.11719 2.91655 2.97088C2.99183 2.82315 3.1005 2.70526 3.24254 2.61719C3.38601 2.52912 3.5593 2.48509 3.76243 2.48509C3.97266 2.48509 4.14879 2.52912 4.29084 2.61719C4.43288 2.70526 4.54084 2.82315 4.6147 2.97088C4.68857 3.11719 4.7255 3.27841 4.7255 3.45455V3.68466C4.7255 3.8608 4.68786 4.02202 4.61257 4.16832C4.53871 4.31463 4.43004 4.43182 4.28658 4.51989C4.14453 4.60653 3.96982 4.64986 3.76243 4.64986C3.55504 4.64986 3.37962 4.60582 3.23615 4.51776C3.09411 4.42827 2.98615 4.31108 2.91229 4.16619C2.83984 4.01989 2.80362 3.85937 2.80362 3.68466ZM3.42791 3.45455V3.68466C3.42791 3.78835 3.45206 3.88423 3.50036 3.9723C3.55007 4.06037 3.63743 4.1044 3.76243 4.1044C3.89311 4.1044 3.98189 4.06037 4.02876 3.9723C4.07706 3.88423 4.10121 3.78835 4.10121 3.68466V3.45455C4.10121 3.35085 4.07848 3.25426 4.03303 3.16477C3.98757 3.07528 3.89737 3.03054 3.76243 3.03054C3.63601 3.03054 3.54865 3.07599 3.50036 3.1669C3.45206 3.25781 3.42791 3.35369 3.42791 3.45455ZM3.08487 7L6.08487 2.63636H6.64311L3.64311 7H3.08487Z"
              fill="#E4E4E4"/>
        <path d="M8 1V8M8 15V8M8 8H1H15" stroke="#3E3E3E" stroke-width="0.1"/>
    </g>
    <defs>
        <filter id="filter0_ii_329_286" x="0.5" y="0.5" width="15" height="15" filterUnits="userSpaceOnUse"
                color-interpolation-filters="sRGB">
            <feFlood flood-opacity="0" result="BackgroundImageFix"/>
            <feBlend mode="normal" in="SourceGraphic" in2="BackgroundImageFix" result="shape"/>
            <feColorMatrix in="SourceAlpha" type="matrix" values="0 0 0 0 0 0 0 0 0 0 0 0 0 0 0 0 0 0 127 0"
                           result="hardAlpha"/>
            <feOffset dx="0.5" dy="-0.5"/>
            <feGaussianBlur stdDeviation="1.25"/>
            <feComposite in2="hardAlpha" operator="arithmetic" k2="-1" k3="1"/>
            <feColorMatrix type="matrix" values="0 0 0 0 0 0 0 0 0 0 0 0 0 0 0 0 0 0 0.25 0"/>
            <feBlend mode="normal" in2="shape" result="effect1_innerShadow_329_286"/>
            <feColorMatrix in="SourceAlpha" type="matrix" values="0 0 0 0 0 0 0 0 0 0 0 0 0 0 0 0 0 0 127 0"
                           result="hardAlpha"/>
            <feOffset dx="-0.5" dy="0.5"/>
            <feGaussianBlur stdDeviation="0.5"/>
            <feComposite in2="hardAlpha" operator="arithmetic" k2="-1" k3="1"/>
            <feColorMatrix type="matrix" values="0 0 0 0 1 0 0 0 0 1 0 0 0 0 1 0 0 0 0.25 0"/>
            <feBlend mode="normal" in2="effect1_innerShadow_329_286" result="effect2_innerShadow_329_286"/>
        </filter>
        <clipPath id="clip0_329_286">
            <rect width="16" height="16" fill="white"/>
        </clipPath>
    </defs>
</svg>
