<svg width="16" height="16" viewBox="0 0 16 16" fill="none" xmlns="http://www.w3.org/2000/svg">
<rect x="1" y="1" width="14" height="14" fill="#5284C3"/>
<rect x="2" y="2" width="12" height="12" fill="#F5F5F5"/>
<rect x="3" y="3" width="10" height="2" fill="#355783"/>
<rect x="3" y="6" width="10" height="1" fill="#4474B1"/>
<rect x="3" y="8" width="10" height="1" fill="#4474B1"/>
<rect x="3" y="10" width="10" height="1" fill="#4474B1"/>
<rect x="3" y="12" width="10" height="1" fill="#4474B1"/>
<rect x="4" y="6" width="7" height="1" transform="rotate(90 4 6)" fill="#4474B1"/>
<rect x="7" y="6" width="7" height="1" transform="rotate(90 7 6)" fill="#4474B1"/>
<rect x="13" y="6" width="7" height="1" transform="rotate(90 13 6)" fill="#4474B1"/>
<rect x="10" y="6" width="7" height="1" transform="rotate(90 10 6)" fill="#4474B1"/>
<rect x="7" y="13" width="3" height="9" transform="rotate(-90 7 13)" fill="#3ADD31"/>
<path d="M1 11.5L5.5 8.46891L5.5 14.5311L1 11.5Z" fill="#3ADD31"/>
<rect x="8" y="12" width="1" height="7" transform="rotate(-90 8 12)" fill="#D2FF99"/>
</svg>
