<svg width="16" height="16" viewBox="0 0 16 16" fill="none" xmlns="http://www.w3.org/2000/svg">
<rect x="1" y="1" width="14" height="14" fill="#5284C3"/>
<rect x="2" y="2" width="12" height="12" fill="#F5F5F5"/>
<rect x="3" y="3" width="10" height="2" fill="#355783"/>
<rect x="3" y="6" width="10" height="1" fill="#4474B1"/>
<rect x="3" y="8" width="10" height="1" fill="#4474B1"/>
<rect x="3" y="10" width="10" height="1" fill="#4474B1"/>
<rect x="3" y="12" width="10" height="1" fill="#4474B1"/>
<rect x="4" y="6" width="7" height="1" transform="rotate(90 4 6)" fill="#4474B1"/>
<rect x="7" y="6" width="7" height="1" transform="rotate(90 7 6)" fill="#4474B1"/>
<rect x="13" y="6" width="7" height="1" transform="rotate(90 13 6)" fill="#4474B1"/>
<rect x="10" y="6" width="7" height="1" transform="rotate(90 10 6)" fill="#4474B1"/>
<mask id="path-12-inside-1_251_704" fill="white">
<path fill-rule="evenodd" clip-rule="evenodd" d="M14.9833 5.08223C15.1135 5.19128 15.1474 5.37768 15.0638 5.52554L12.7988 9.5349H15.3976C15.5462 9.5349 15.6788 9.62814 15.7291 9.76796C15.7794 9.90778 15.7365 10.0641 15.6219 10.1588L9.21711 15.4495C9.08619 15.5576 8.89674 15.557 8.76656 15.4479C8.63638 15.3389 8.60253 15.1525 8.68606 15.0046L10.8241 11.2201L10.8945 10.9952H8.35228C8.20369 10.9952 8.07108 10.902 8.0208 10.7622C7.97052 10.6224 8.01338 10.466 8.12794 10.3714L14.5328 5.08068C14.6637 4.97253 14.8532 4.97318 14.9833 5.08223ZM10.8986 10.9952L10.834 11.2025L10.9511 10.9952H10.8986Z"/>
</mask>
<path fill-rule="evenodd" clip-rule="evenodd" d="M14.9833 5.08223C15.1135 5.19128 15.1474 5.37768 15.0638 5.52554L12.7988 9.5349H15.3976C15.5462 9.5349 15.6788 9.62814 15.7291 9.76796C15.7794 9.90778 15.7365 10.0641 15.6219 10.1588L9.21711 15.4495C9.08619 15.5576 8.89674 15.557 8.76656 15.4479C8.63638 15.3389 8.60253 15.1525 8.68606 15.0046L10.8241 11.2201L10.8945 10.9952H8.35228C8.20369 10.9952 8.07108 10.902 8.0208 10.7622C7.97052 10.6224 8.01338 10.466 8.12794 10.3714L14.5328 5.08068C14.6637 4.97253 14.8532 4.97318 14.9833 5.08223ZM10.8986 10.9952L10.834 11.2025L10.9511 10.9952H10.8986Z" fill="#FFD600"/>
<path d="M10.5855 11.1454C10.5443 11.2772 10.6176 11.4174 10.7494 11.4587C10.8812 11.4999 11.0214 11.4265 11.0627 11.2948L10.5855 11.1454ZM11.133 11.0699C11.1743 10.9382 11.1009 10.7979 10.9691 10.7567C10.8374 10.7154 10.6971 10.7888 10.6559 10.9206L11.133 11.0699ZM11.0627 11.2948L11.133 11.0699L10.6559 10.9206L10.5855 11.1454L11.0627 11.2948ZM15.0638 5.52554L15.4992 5.77147V5.77147L15.0638 5.52554ZM14.9833 5.08223L15.3044 4.69894L15.3044 4.69894L14.9833 5.08223ZM12.7988 9.5349L12.3635 9.28896L11.942 10.0349H12.7988V9.5349ZM15.7291 9.76796L15.2586 9.93716L15.2586 9.93716L15.7291 9.76796ZM15.6219 10.1588L15.3035 9.77327L15.3035 9.77327L15.6219 10.1588ZM9.21711 15.4495L8.89868 15.064H8.89868L9.21711 15.4495ZM8.76656 15.4479L8.44548 15.8312H8.44548L8.76656 15.4479ZM8.68606 15.0046L9.12139 15.2506L9.1214 15.2505L8.68606 15.0046ZM10.8241 11.2201L11.2594 11.466L11.2854 11.4199L11.3013 11.3694L10.8241 11.2201ZM10.8945 10.9952L11.3716 11.1446L11.5749 10.4952H10.8945V10.9952ZM8.12794 10.3714L7.80951 9.98591H7.80951L8.12794 10.3714ZM14.5328 5.08068L14.8512 5.46617L14.8512 5.46616L14.5328 5.08068ZM10.8986 10.9952V10.4952H10.5308L10.4213 10.8464L10.8986 10.9952ZM10.834 11.2025L10.3567 11.0537L11.2694 11.4484L10.834 11.2025ZM10.9511 10.9952L11.3864 11.2412L11.8078 10.4952H10.9511V10.9952ZM15.4992 5.77147C15.7012 5.41375 15.6194 4.96277 15.3044 4.69894L14.6623 5.46551C14.6077 5.41978 14.5935 5.34161 14.6285 5.2796L15.4992 5.77147ZM13.2341 9.78084L15.4992 5.77147L14.6285 5.2796L12.3635 9.28896L13.2341 9.78084ZM15.3976 9.0349H12.7988V10.0349H15.3976V9.0349ZM16.1996 9.59876C16.0779 9.26048 15.7571 9.0349 15.3976 9.0349V10.0349C15.3353 10.0349 15.2797 9.9958 15.2586 9.93716L16.1996 9.59876ZM15.9404 10.5442C16.2175 10.3153 16.3212 9.93705 16.1996 9.59876L15.2586 9.93716C15.2375 9.87852 15.2555 9.81295 15.3035 9.77327L15.9404 10.5442ZM9.53555 15.835L15.9404 10.5442L15.3035 9.77327L8.89868 15.064L9.53555 15.835ZM8.44548 15.8312C8.76043 16.095 9.21879 16.0966 9.53555 15.835L8.89868 15.064C8.95359 15.0186 9.03304 15.0189 9.08764 15.0646L8.44548 15.8312ZM8.25073 14.7587C8.04864 15.1164 8.13053 15.5674 8.44548 15.8312L9.08764 15.0646C9.14223 15.1104 9.15643 15.1885 9.12139 15.2506L8.25073 14.7587ZM10.3888 10.9741L8.25073 14.7587L9.1214 15.2505L11.2594 11.466L10.3888 10.9741ZM11.3013 11.3694L11.3716 11.1446L10.4173 10.8459L10.3469 11.0707L11.3013 11.3694ZM8.35228 11.4952H10.8945V10.4952H8.35228V11.4952ZM7.5503 10.9314C7.67195 11.2697 7.99279 11.4952 8.35228 11.4952V10.4952C8.4146 10.4952 8.47022 10.5344 8.4913 10.593L7.5503 10.9314ZM7.80951 9.98591C7.53234 10.2149 7.42865 10.5931 7.5503 10.9314L8.4913 10.593C8.51239 10.6516 8.49441 10.7172 8.44637 10.7569L7.80951 9.98591ZM14.2143 4.69519L7.80951 9.98591L8.44637 10.7569L14.8512 5.46617L14.2143 4.69519ZM15.3044 4.69894C14.9895 4.43511 14.5311 4.43353 14.2143 4.69519L14.8512 5.46616C14.7963 5.51152 14.7168 5.51125 14.6623 5.46552L15.3044 4.69894ZM10.4213 10.8464L10.3567 11.0537L11.3114 11.3513L11.376 11.1441L10.4213 10.8464ZM10.5158 10.7493L10.3987 10.9566L11.2694 11.4484L11.3864 11.2412L10.5158 10.7493ZM10.8986 11.4952H10.9511V10.4952H10.8986V11.4952Z" fill="#FFA800" mask="url(#path-12-inside-1_251_704)"/>
</svg>
