<svg width="24" height="24" viewBox="0 0 24 24" fill="none" xmlns="http://www.w3.org/2000/svg">
<g clip-path="url(#clip0_283_221)">
<path d="M4.8782 0.454545V7H3.49432V1.76811H3.45597L1.95703 2.70774V1.48047L3.57741 0.454545H4.8782ZM8.27956 14V13.0028L10.6095 10.8455C10.8076 10.6538 10.9738 10.4812 11.108 10.3278C11.2444 10.1744 11.3477 10.0241 11.4181 9.87713C11.4884 9.72798 11.5235 9.56712 11.5235 9.39453C11.5235 9.20277 11.4798 9.03764 11.3925 8.89915C11.3051 8.75852 11.1858 8.65092 11.0345 8.57635C10.8833 8.49964 10.7117 8.46129 10.52 8.46129C10.3197 8.46129 10.145 8.50178 9.99583 8.58274C9.84668 8.66371 9.73162 8.77983 9.65066 8.93111C9.56969 9.08239 9.52921 9.26243 9.52921 9.47124H8.21564C8.21564 9.04297 8.31259 8.67116 8.50648 8.35582C8.70037 8.04048 8.97203 7.79652 9.32147 7.62393C9.6709 7.45135 10.0736 7.36506 10.5296 7.36506C10.9983 7.36506 11.4063 7.44815 11.7536 7.61435C12.1031 7.77841 12.3747 8.00639 12.5686 8.2983C12.7625 8.5902 12.8595 8.92472 12.8595 9.30185C12.8595 9.54901 12.8105 9.79297 12.7124 10.0337C12.6166 10.2745 12.445 10.5419 12.1979 10.8359C11.9507 11.1278 11.6024 11.4783 11.1528 11.8874L10.1972 12.8239V12.8686H12.9458V14H8.27956ZM16.948 21.0895C16.4707 21.0895 16.0456 21.0075 15.6728 20.8434C15.302 20.6772 15.0091 20.4492 14.7939 20.1594C14.5808 19.8675 14.4711 19.5309 14.4647 19.1495H15.8581C15.8667 19.3093 15.9189 19.4499 16.0147 19.5714C16.1127 19.6907 16.2427 19.7834 16.4047 19.8494C16.5666 19.9155 16.7488 19.9485 16.9512 19.9485C17.1621 19.9485 17.3485 19.9112 17.5105 19.8366C17.6724 19.7621 17.7992 19.6587 17.8908 19.5266C17.9824 19.3945 18.0282 19.2422 18.0282 19.0696C18.0282 18.8949 17.9792 18.7404 17.8812 18.6062C17.7853 18.4698 17.6468 18.3633 17.4657 18.2866C17.2868 18.2099 17.0737 18.1715 16.8265 18.1715H16.2161V17.1552H16.8265C17.0353 17.1552 17.2196 17.119 17.3794 17.0465C17.5414 16.9741 17.6671 16.8739 17.7566 16.7461C17.8461 16.6161 17.8908 16.4648 17.8908 16.2923C17.8908 16.1282 17.8514 15.9844 17.7725 15.8608C17.6958 15.7351 17.5872 15.6371 17.4466 15.5668C17.3081 15.4964 17.1461 15.4613 16.9608 15.4613C16.7733 15.4613 16.6017 15.4954 16.4462 15.5636C16.2907 15.6296 16.166 15.7244 16.0723 15.848C15.9785 15.9716 15.9284 16.1165 15.9221 16.2827H14.5957C14.6021 15.9055 14.7097 15.5732 14.9185 15.2855C15.1273 14.9979 15.4086 14.7731 15.7623 14.6112C16.1181 14.4471 16.5197 14.3651 16.9672 14.3651C17.4189 14.3651 17.8141 14.4471 18.1529 14.6112C18.4917 14.7752 18.7548 14.9968 18.9423 15.2759C19.1319 15.5529 19.2257 15.864 19.2235 16.2092C19.2257 16.5756 19.1117 16.8814 18.8816 17.1264C18.6536 17.3714 18.3564 17.527 17.9899 17.593V17.6442C18.4714 17.706 18.8379 17.8732 19.0893 18.146C19.3429 18.4165 19.4686 18.7553 19.4664 19.1623C19.4686 19.5352 19.361 19.8665 19.1436 20.1562C18.9284 20.446 18.6312 20.674 18.252 20.8402C17.8727 21.0064 17.438 21.0895 16.948 21.0895Z" fill="#040284"/>
<path fill-rule="evenodd" clip-rule="evenodd" d="M15.427 11.4769L22.6515 12.9966L22.2725 5.62378L20.2835 7.32447L14.0635 0.0498583L11.1972 2.50056L17.4173 9.77517L15.427 11.4769Z" fill="#7DCD17"/>
</g>
<defs>
<clipPath id="clip0_283_221">
<rect width="24" height="24" fill="white"/>
</clipPath>
</defs>
</svg>
