<svg width="16" height="16" viewBox="0 0 16 16" fill="none" xmlns="http://www.w3.org/2000/svg">
<path fill-rule="evenodd" clip-rule="evenodd" d="M4.19922 3C4.19922 2.44772 4.64693 2 5.19922 2H11.1992V2.08374H13.084L14.084 3.08374L13 4.5L11.1992 4.30858V13C11.1992 13.5523 10.7515 14 10.1992 14H4.19922V13.7203L3.5 14L2 13V12L4.19922 11.5602V3Z" fill="#E6E6E6"/>
<path d="M11.3312 4.66667H12.6645C13.3333 4.66667 13.9979 4 13.9979 3.33333C13.9979 2.66667 13.3307 2 12.6645 2M12.6645 2C11.9984 2 11.3312 2.66667 11.3318 3.33333C11.3352 7.49892 11.3227 10 11.3312 12.6667C11.3333 13.3333 10.6624 14 9.99787 14M12.6645 2C9.99749 2 7.99826 2 5.33121 2C4.66509 2 3.99928 2.66667 3.99842 3.33333C3.99585 5.33333 3.99842 11.3333 3.99842 11.3333M9.99787 14C9.33333 14 8.66509 13.4029 8.66509 12.6667C8.66509 11.509 9.99842 11.3333 9.99842 11.3333C9.33333 11.3333 3.99842 11.3333 3.99842 11.3333M9.99787 14C7.39438 14 5.99787 14 3.33121 14C2.66618 14 1.99952 13.3333 2 12.6667C2.00048 12 2.66953 11.3333 3.33333 11.3333C3.99842 11.3333 3.99842 11.3333 3.99842 11.3333" stroke="#565656" stroke-linejoin="round"/>
<path d="M2.55392 8.18308C2.39578 8.11804 2.39578 7.89407 2.55392 7.82903L4.91617 6.85753C5.08265 6.78906 5.16737 6.6031 5.10978 6.43255L5.04775 6.24884C4.9842 6.06064 4.77402 5.96621 4.59111 6.0437L1.13324 7.50848C1.00701 7.56195 0.925 7.68575 0.925 7.82285V8.18931C0.925 8.32641 1.00701 8.45021 1.13324 8.50368L4.59111 9.96846C4.77402 10.0459 4.9842 9.95152 5.04775 9.76332L5.10979 9.57961C5.16737 9.40906 5.08266 9.2231 4.91618 9.15463L2.55392 8.18308Z" fill="#C83232" stroke="#D84343" stroke-width="0.15"/>
<path d="M6.33697 6.43182C6.27938 6.60237 6.3641 6.78833 6.53058 6.8568L8.89283 7.82829C9.05098 7.89333 9.05098 8.11731 8.89283 8.18235L6.53058 9.1539C6.3641 9.22237 6.27938 9.40833 6.33697 9.57888L6.399 9.76258C6.46255 9.95079 6.67273 10.0452 6.85564 9.96773L10.3135 8.50295C10.4397 8.44948 10.5218 8.32568 10.5218 8.18858V7.82212C10.5218 7.68502 10.4397 7.56122 10.3135 7.50774L6.85564 6.04296C6.67273 5.96548 6.46255 6.05991 6.399 6.24811L6.33697 6.43182Z" fill="#C83232" stroke="#D84343" stroke-width="0.15"/>
</svg>
