<svg width="16" height="16" viewBox="0 0 16 16" fill="none" xmlns="http://www.w3.org/2000/svg">
<path d="M12.5575 1H6.24761L8.21944 2.97183C8.21944 2.97183 2.55122 6.79437 3.38439 10.4648C3.98754 13.1219 8.22112 15 8.22112 15C8.22112 15 5.87873 12.3444 6.14495 10.0704C6.46941 7.29906 10.5856 5.33803 10.5856 5.33803L12.5575 7.30986V1Z" fill="#2B2B2B"/>
<path d="M6.24761 1V0.802817H5.77157L6.10818 1.13943L6.24761 1ZM12.5575 1H12.7547V0.802817H12.5575V1ZM12.5575 7.30986L12.418 7.44929L12.7547 7.7859V7.30986H12.5575ZM10.5856 5.33803L10.7251 5.1986L10.6266 5.10011L10.5008 5.16002L10.5856 5.33803ZM6.14495 10.0704L6.3408 10.0934L6.14495 10.0704ZM8.22112 15L8.14116 15.1802C8.22587 15.2178 8.32532 15.1913 8.38012 15.1166C8.43493 15.0419 8.4303 14.9391 8.36899 14.8696L8.22112 15ZM3.38439 10.4648L3.57668 10.4211L3.38439 10.4648ZM8.21944 2.97183L8.32969 3.13531L8.52803 3.00156L8.35887 2.8324L8.21944 2.97183ZM6.24761 1.19718H12.5575V0.802817H6.24761V1.19718ZM12.3603 1V7.30986H12.7547V1H12.3603ZM12.6969 7.17043L10.7251 5.1986L10.4462 5.47746L12.418 7.44929L12.6969 7.17043ZM10.5856 5.33803C10.5008 5.16002 10.5008 5.16004 10.5007 5.16008C10.5007 5.1601 10.5006 5.16015 10.5005 5.16019C10.5003 5.16028 10.5 5.1604 10.4997 5.16055C10.4991 5.16084 10.4982 5.16126 10.4971 5.1618C10.4949 5.16287 10.4917 5.16442 10.4875 5.16644C10.4792 5.17048 10.4671 5.17641 10.4515 5.18419C10.4202 5.19976 10.3747 5.22274 10.317 5.25287C10.2014 5.31312 10.0367 5.40199 9.83836 5.51725C9.44196 5.74755 8.9093 6.08427 8.36548 6.50965C7.28898 7.35172 6.12116 8.57795 5.94911 10.0475L6.3408 10.0934C6.49321 8.79153 7.54573 7.65156 8.60846 6.82027C9.13426 6.40898 9.65093 6.08223 10.0365 5.85824C10.2291 5.74635 10.3885 5.66036 10.4993 5.60254C10.5547 5.57363 10.598 5.55178 10.6272 5.53727C10.6418 5.53001 10.6528 5.52459 10.6601 5.52104C10.6638 5.51927 10.6665 5.51796 10.6682 5.51712C10.6691 5.51671 10.6697 5.51641 10.6701 5.51623C10.6703 5.51614 10.6704 5.51608 10.6704 5.51605C10.6705 5.51603 10.6705 5.51603 10.6705 5.51602C10.6705 5.51603 10.6705 5.51604 10.5856 5.33803ZM5.94911 10.0475C5.8082 11.2511 6.35584 12.5311 6.91282 13.4872C7.19395 13.9698 7.48319 14.3795 7.70208 14.6686C7.81162 14.8132 7.90379 14.928 7.96885 15.0069C8.00138 15.0463 8.02715 15.0769 8.04495 15.0977C8.05385 15.1081 8.06076 15.1161 8.06553 15.1216C8.06791 15.1243 8.06976 15.1265 8.07105 15.1279C8.07169 15.1287 8.0722 15.1293 8.07257 15.1297C8.07275 15.1299 8.0729 15.13 8.07301 15.1302C8.07307 15.1302 8.07312 15.1303 8.07315 15.1303C8.0732 15.1304 8.07324 15.1304 8.22112 15C8.36899 14.8696 8.36901 14.8696 8.36903 14.8696C8.36902 14.8696 8.36902 14.8696 8.36901 14.8696C8.36898 14.8695 8.36891 14.8695 8.36881 14.8694C8.36861 14.8691 8.36827 14.8687 8.36779 14.8682C8.36683 14.8671 8.36532 14.8654 8.36328 14.863C8.3592 14.8583 8.35299 14.8511 8.3448 14.8415C8.32841 14.8224 8.30412 14.7936 8.27313 14.756C8.21113 14.6808 8.12237 14.5703 8.01647 14.4305C7.80449 14.1506 7.52477 13.7542 7.25358 13.2887C6.70592 12.3486 6.21549 11.1637 6.3408 10.0934L5.94911 10.0475ZM8.22112 15C8.30108 14.8198 8.3011 14.8198 8.30111 14.8198C8.30109 14.8198 8.30109 14.8198 8.30105 14.8197C8.30098 14.8197 8.30084 14.8197 8.30064 14.8196C8.30024 14.8194 8.29958 14.8191 8.29868 14.8187C8.29687 14.8179 8.29406 14.8166 8.29027 14.8149C8.28271 14.8115 8.27126 14.8063 8.25617 14.7993C8.22599 14.7853 8.18125 14.7643 8.12386 14.7366C8.00906 14.6811 7.84377 14.5986 7.64328 14.4912C7.24197 14.2763 6.70128 13.9627 6.14278 13.5678C5.01378 12.7695 3.86077 11.6726 3.57668 10.4211L3.1921 10.5084C3.51117 11.9141 4.77652 13.0848 5.9151 13.8898C6.49038 14.2966 7.04578 14.6186 7.45711 14.8389C7.66294 14.9491 7.83311 15.0341 7.95219 15.0916C8.01174 15.1204 8.05854 15.1424 8.09067 15.1572C8.10674 15.1647 8.11914 15.1703 8.12763 15.1742C8.13188 15.1761 8.13515 15.1776 8.13741 15.1786C8.13855 15.1791 8.13943 15.1795 8.14005 15.1798C8.14036 15.1799 8.14061 15.18 8.1408 15.1801C8.14089 15.1801 8.14098 15.1802 8.14103 15.1802C8.1411 15.1802 8.14116 15.1802 8.22112 15ZM3.57668 10.4211C3.38123 9.5601 3.56431 8.67922 3.96658 7.82997C4.36905 6.98028 4.98516 6.17507 5.634 5.47605C6.28197 4.77797 6.95672 4.19204 7.47016 3.78028C7.72666 3.57458 7.94237 3.41278 8.0936 3.30264C8.1692 3.24758 8.22866 3.20546 8.269 3.17724C8.28917 3.16313 8.30456 3.1525 8.3148 3.14548C8.31992 3.14196 8.32375 3.13935 8.32625 3.13765C8.3275 3.1368 8.32842 3.13618 8.32899 3.13579C8.32928 3.13559 8.32948 3.13546 8.3296 3.13538C8.32966 3.13534 8.32968 3.13532 8.32971 3.1353C8.32971 3.1353 8.32969 3.13531 8.21944 2.97183C8.1092 2.80835 8.10913 2.80839 8.10905 2.80845C8.10899 2.80849 8.10889 2.80856 8.10877 2.80863C8.10854 2.80879 8.10823 2.809 8.10783 2.80927C8.10704 2.80981 8.1059 2.81058 8.10443 2.81158C8.10148 2.81359 8.0972 2.81651 8.09162 2.82034C8.08046 2.828 8.06412 2.83929 8.04298 2.85407C8.0007 2.88364 7.93919 2.92723 7.86143 2.98386C7.70594 3.0971 7.48532 3.26261 7.22344 3.47263C6.70013 3.8923 6.0099 4.4914 5.34496 5.20776C4.68089 5.92318 4.03616 6.7618 3.61017 7.66115C3.18397 8.56092 2.97097 9.53426 3.1921 10.5084L3.57668 10.4211ZM8.35887 2.8324L6.38704 0.86057L6.10818 1.13943L8.08001 3.11126L8.35887 2.8324Z" fill="#2B2B2B"/>
</svg>
