<svg width="16" height="16" viewBox="0 0 16 16" fill="none" xmlns="http://www.w3.org/2000/svg">
    <g clip-path="url(#clip0_141_217)">
        <path d="M4.82006 0L4.46288 0.321468L0.319515 4.46483L-0.00195312 4.82202V11.1799L0.319515 11.5371L4.46288 15.6805L4.82006 16.002H11.178L11.5352 15.6805L15.6785 11.5371L16 11.1799V4.82202L15.6785 4.46483L11.5352 0.321468L11.178 0H4.82006ZM5.71303 2.28599H10.285L13.714 5.71498V10.287L10.285 13.716H5.71303L2.28404 10.287V5.71498L5.71303 2.28599ZM6.21309 3.42899L3.42704 6.21504V9.78691L6.21309 12.573H9.78496L12.571 9.78691V6.21504L9.78496 3.42899H6.21309Z"
              fill="#F53D3D"/>
    </g>
    <defs>
        <clipPath id="clip0_141_217">
            <rect width="16" height="16" fill="white"/>
        </clipPath>
    </defs>
</svg>
