<svg width="24" height="24" viewBox="0 0 24 24" fill="none" xmlns="http://www.w3.org/2000/svg">
<g clip-path="url(#clip0_283_678)">
<rect width="18" height="18" fill="#5284C3"/>
<rect x="1.28516" y="1.28564" width="15.4286" height="15.4286" fill="#F5F5F5"/>
<rect x="2.57227" y="2.57153" width="12.8571" height="2.57143" fill="#355783"/>
<rect x="2.57227" y="6.42847" width="12.8571" height="1.28571" fill="#4474B1"/>
<rect x="2.57227" y="9" width="12.8571" height="1.28571" fill="#4474B1"/>
<rect x="2.57227" y="11.5715" width="12.8571" height="1.28571" fill="#4474B1"/>
<rect x="2.57227" y="14.1426" width="12.8571" height="1.28571" fill="#4474B1"/>
<rect x="3.85938" y="6.42847" width="9" height="1.28571" transform="rotate(90 3.85938 6.42847)" fill="#4474B1"/>
<rect x="7.71484" y="6.42847" width="9" height="1.28571" transform="rotate(90 7.71484 6.42847)" fill="#4474B1"/>
<rect x="15.4277" y="6.42847" width="9" height="1.28571" transform="rotate(90 15.4277 6.42847)" fill="#4474B1"/>
<rect x="11.5723" y="6.42847" width="9" height="1.28571" transform="rotate(90 11.5723 6.42847)" fill="#4474B1"/>
<rect x="6" y="6" width="18" height="18" fill="#5284C3"/>
<rect x="7.28516" y="7.28564" width="15.4286" height="15.4286" fill="#F5F5F5"/>
<rect x="8.57227" y="8.57153" width="12.8571" height="2.57143" fill="#355783"/>
<rect x="8.57227" y="12.4285" width="12.8571" height="1.28571" fill="#4474B1"/>
<rect x="8.57227" y="15" width="12.8571" height="1.28571" fill="#4474B1"/>
<rect x="8.57227" y="17.5715" width="12.8571" height="1.28571" fill="#4474B1"/>
<rect x="8.57227" y="20.1426" width="12.8571" height="1.28571" fill="#4474B1"/>
<rect x="9.85938" y="12.4285" width="9" height="1.28571" transform="rotate(90 9.85938 12.4285)" fill="#4474B1"/>
<rect x="13.7148" y="12.4285" width="9" height="1.28571" transform="rotate(90 13.7148 12.4285)" fill="#4474B1"/>
<rect x="21.4277" y="12.4285" width="9" height="1.28571" transform="rotate(90 21.4277 12.4285)" fill="#4474B1"/>
<rect x="17.5723" y="12.4285" width="9" height="1.28571" transform="rotate(90 17.5723 12.4285)" fill="#4474B1"/>
</g>
<defs>
<clipPath id="clip0_283_678">
<rect width="24" height="24" fill="white"/>
</clipPath>
</defs>
</svg>
