<svg width="16" height="16" viewBox="0 0 16 16" fill="none" xmlns="http://www.w3.org/2000/svg">
<g clip-path="url(#clip0_283_227)">
<path d="M3.25213 0.636364V5H2.32955V1.51207H2.30398L1.30469 2.13849V1.32031L2.38494 0.636364H3.25213ZM5.51971 10V9.33523L7.07298 7.89702C7.20508 7.76918 7.31587 7.65412 7.40536 7.55185C7.49627 7.44957 7.56516 7.34943 7.61204 7.25142C7.65891 7.15199 7.68235 7.04474 7.68235 6.92969C7.68235 6.80185 7.65323 6.69176 7.59499 6.59943C7.53675 6.50568 7.45721 6.43395 7.35636 6.38423C7.2555 6.3331 7.14116 6.30753 7.01332 6.30753C6.87979 6.30753 6.76332 6.33452 6.66388 6.38849C6.56445 6.44247 6.48775 6.51989 6.43377 6.62074C6.37979 6.72159 6.35281 6.84162 6.35281 6.98082H5.4771C5.4771 6.69531 5.54173 6.44744 5.67099 6.23722C5.80025 6.02699 5.98136 5.86435 6.21431 5.74929C6.44727 5.63423 6.71573 5.5767 7.01971 5.5767C7.33221 5.5767 7.60423 5.6321 7.83576 5.7429C8.06871 5.85227 8.24982 6.00426 8.37908 6.19886C8.50835 6.39347 8.57298 6.61648 8.57298 6.8679C8.57298 7.03267 8.54031 7.19531 8.47496 7.35582C8.41104 7.51634 8.2967 7.6946 8.13192 7.89062C7.96715 8.08523 7.73491 8.31889 7.43519 8.59162L6.79812 9.21591V9.24574H8.6305V10H5.51971ZM11.2987 15.0597C10.9805 15.0597 10.6971 15.005 10.4485 14.8956C10.2013 14.7848 10.006 14.6328 9.86257 14.4396C9.72053 14.245 9.64737 14.0206 9.64311 13.7663H10.5721C10.5778 13.8729 10.6126 13.9666 10.6765 14.0476C10.7418 14.1271 10.8285 14.1889 10.9364 14.233C11.0444 14.277 11.1658 14.299 11.3008 14.299C11.4414 14.299 11.5657 14.2741 11.6737 14.2244C11.7816 14.1747 11.8661 14.1058 11.9272 14.0178C11.9883 13.9297 12.0188 13.8281 12.0188 13.7131C12.0188 13.5966 11.9862 13.4936 11.9208 13.4041C11.8569 13.3132 11.7646 13.2422 11.6438 13.1911C11.5245 13.1399 11.3825 13.1143 11.2177 13.1143H10.8107V12.4368H11.2177C11.3569 12.4368 11.4798 12.4126 11.5863 12.3643C11.6942 12.3161 11.7781 12.2493 11.8377 12.1641C11.8974 12.0774 11.9272 11.9766 11.9272 11.8615C11.9272 11.7521 11.9009 11.6562 11.8484 11.5739C11.7972 11.4901 11.7248 11.4247 11.631 11.3778C11.5387 11.331 11.4308 11.3075 11.3072 11.3075C11.1822 11.3075 11.0678 11.3303 10.9641 11.3757C10.8604 11.4197 10.7773 11.483 10.7148 11.5653C10.6523 11.6477 10.619 11.7443 10.6147 11.8551H9.73047C9.73473 11.6037 9.80646 11.3821 9.94567 11.1903C10.0849 10.9986 10.2724 10.8487 10.5082 10.7408C10.7454 10.6314 11.0131 10.5767 11.3114 10.5767C11.6126 10.5767 11.8761 10.6314 12.1019 10.7408C12.3278 10.8501 12.5032 10.9979 12.6282 11.1839C12.7546 11.3686 12.8171 11.576 12.8157 11.8061C12.8171 12.0504 12.7411 12.2543 12.5877 12.4176C12.4357 12.581 12.2376 12.6847 11.9933 12.7287V12.7628C12.3143 12.804 12.5586 12.9155 12.7262 13.0973C12.8952 13.2777 12.979 13.5036 12.9776 13.7749C12.979 14.0234 12.9073 14.2443 12.7624 14.4375C12.619 14.6307 12.4208 14.7827 12.168 14.8935C11.9151 15.0043 11.6254 15.0597 11.2987 15.0597Z" fill="#DD3131"/>
<path fill-rule="evenodd" clip-rule="evenodd" d="M10.2827 7.65126L15.099 8.66442L14.8464 3.74918L13.5206 4.88274L9.37418 0.0332419L7.46337 1.66704L11.6098 6.51654L10.2827 7.65126Z" fill="#7DCD17"/>
</g>
<defs>
<clipPath id="clip0_283_227">
<rect width="16" height="16" fill="white"/>
</clipPath>
</defs>
</svg>
