<svg width="16" height="16" viewBox="0 0 16 16" fill="none" xmlns="http://www.w3.org/2000/svg">
<circle cx="6" cy="4" r="3" fill="#812424"/>
<path d="M1 11.8C1 9.14903 3.14903 7 5.8 7H6.2C8.85097 7 11 9.14903 11 11.8C11 12.4627 10.4627 13 9.8 13H2.2C1.53726 13 1 12.4627 1 11.8Z" fill="#812424"/>
<circle cx="10" cy="6" r="3" fill="#DD3131"/>
<path d="M5 13.8C5 11.149 7.14903 9 9.8 9H10.2C12.851 9 15 11.149 15 13.8C15 14.4627 14.4627 15 13.8 15H6.2C5.53726 15 5 14.4627 5 13.8Z" fill="#DD3131"/>
</svg>
