<svg width="16" height="16" viewBox="0 0 16 16" fill="none" xmlns="http://www.w3.org/2000/svg">
<path d="M1.35 5.1776C1.35 4.32552 1.39611 3.6647 1.51063 3.14943C1.62426 2.63813 1.80054 2.29185 2.04619 2.04619C2.29185 1.80054 2.63813 1.62426 3.14943 1.51063C3.6647 1.39611 4.32552 1.35 5.1776 1.35H10.8224C11.6745 1.35 12.3353 1.39611 12.8506 1.51063C13.3619 1.62426 13.7082 1.80054 13.9538 2.04619C14.1995 2.29185 14.3757 2.63813 14.4894 3.14943C14.6039 3.6647 14.65 4.32552 14.65 5.1776V10.8224C14.65 11.6745 14.6039 12.3353 14.4894 12.8506C14.3757 13.3619 14.1995 13.7082 13.9538 13.9538C13.7082 14.1995 13.3619 14.3757 12.8506 14.4894C12.3353 14.6039 11.6745 14.65 10.8224 14.65H5.1776C4.32552 14.65 3.6647 14.6039 3.14943 14.4894C2.63813 14.3757 2.29185 14.1995 2.04619 13.9538C1.80054 13.7082 1.62426 13.3619 1.51063 12.8506C1.39611 12.3353 1.35 11.6745 1.35 10.8224V5.1776Z" fill="url(#paint0_linear_281_545)" stroke="#EBEBEB" stroke-width="0.7"/>
<path d="M3.33398 4L4.66732 5L3.33398 6M5.33398 6H7.00065" stroke="#EBEBEB" stroke-width="0.533333" stroke-linecap="round" stroke-linejoin="round"/>
<defs>
<linearGradient id="paint0_linear_281_545" x1="8" y1="15.6667" x2="8" y2="0.333333" gradientUnits="userSpaceOnUse">
<stop offset="0.112128" stop-color="#1D1D1D"/>
</linearGradient>
</defs>
</svg>
