<svg width="32" height="32" viewBox="0 0 32 32" fill="none" xmlns="http://www.w3.org/2000/svg">
<rect x="2" y="2" width="28" height="28" fill="#5284C3"/>
<rect x="4" y="4" width="24" height="24" fill="#F5F5F5"/>
<rect x="6" y="6" width="20" height="4" fill="#355783"/>
<rect x="6" y="12" width="20" height="2" fill="#4474B1"/>
<rect x="6" y="16" width="20" height="2" fill="#4474B1"/>
<rect x="6" y="20" width="20" height="2" fill="#4474B1"/>
<rect x="6" y="24" width="20" height="2" fill="#4474B1"/>
<rect x="8" y="12" width="14" height="2" transform="rotate(90 8 12)" fill="#4474B1"/>
<rect x="8" y="12" width="18" height="2" transform="rotate(90 8 12)" fill="#3ADD31"/>
<rect x="8" y="12" width="18" height="2" transform="rotate(90 8 12)" fill="#3ADD31"/>
<rect x="8" y="12" width="18" height="2" transform="rotate(90 8 12)" fill="#3ADD31"/>
<rect x="8" y="12" width="18" height="2" transform="rotate(90 8 12)" fill="#3ADD31"/>
<rect x="8" y="12" width="18" height="2" transform="rotate(90 8 12)" fill="#3ADD31"/>
<rect x="8" y="12" width="18" height="2" transform="rotate(90 8 12)" fill="#3ADD31"/>
<rect x="26" y="12" width="14" height="2" transform="rotate(90 26 12)" fill="#4474B1"/>
<rect x="20" y="12" width="14" height="2" transform="rotate(90 20 12)" fill="#4474B1"/>
<rect x="16" y="12" width="18" height="2" transform="rotate(90 16 12)" fill="#3ADD31"/>
<rect x="16" y="12" width="18" height="2" transform="rotate(90 16 12)" fill="#3ADD31"/>
<rect x="16" y="12" width="18" height="2" transform="rotate(90 16 12)" fill="#3ADD31"/>
<rect x="6" y="12" width="10" height="2" fill="#3ADD31"/>
<rect x="6" y="12" width="10" height="2" fill="#3ADD31"/>
<rect x="6" y="12" width="10" height="2" fill="#3ADD31"/>
<rect x="6" y="16" width="10" height="2" fill="#3ADD31"/>
<rect x="6" y="16" width="10" height="2" fill="#3ADD31"/>
<rect x="6" y="16" width="10" height="2" fill="#3ADD31"/>
<rect x="6" y="20" width="10" height="2" fill="#3ADD31"/>
<rect x="6" y="20" width="10" height="2" fill="#3ADD31"/>
<rect x="6" y="20" width="10" height="2" fill="#3ADD31"/>
<rect x="6" y="24" width="10" height="2" fill="#3ADD31"/>
<rect x="6" y="24" width="10" height="2" fill="#3ADD31"/>
<rect x="6" y="24" width="10" height="2" fill="#3ADD31"/>
<rect x="6" y="28" width="10" height="2" fill="#3ADD31"/>
<rect x="6" y="28" width="10" height="2" fill="#3ADD31"/>
<rect x="6" y="28" width="10" height="2" fill="#3ADD31"/>
</svg>
