<svg width="16" height="16" viewBox="0 0 16 16" fill="none" xmlns="http://www.w3.org/2000/svg">
<rect x="1" y="1" width="14" height="14" fill="#5284C3"/>
<rect x="2" y="2" width="12" height="12" fill="#F5F5F5"/>
<rect x="3" y="3" width="10" height="2" fill="#355783"/>
<rect x="3" y="6" width="10" height="1" fill="#4474B1"/>
<rect x="3" y="8" width="10" height="1" fill="#4474B1"/>
<rect x="3" y="10" width="10" height="1" fill="#4474B1"/>
<rect x="3" y="12" width="10" height="1" fill="#4474B1"/>
<rect x="4" y="6" width="7" height="1" transform="rotate(90 4 6)" fill="#4474B1"/>
<rect x="7" y="6" width="7" height="1" transform="rotate(90 7 6)" fill="#4474B1"/>
<rect x="13" y="6" width="7" height="1" transform="rotate(90 13 6)" fill="#4474B1"/>
<rect x="10" y="6" width="7" height="1" transform="rotate(90 10 6)" fill="#4474B1"/>
<path d="M10.6 7V8.125C8.61178 8.125 7 9.63604 7 11.5C7 12.9749 8.01025 14.2259 9.41641 14.6849V13.4457C8.69335 13.0581 8.2 12.3368 8.2 11.5C8.2 10.2574 9.27454 9.25 10.6 9.25V10.375L13 8.6875L10.6 7ZM13.6 8.32056V9.56201C14.3146 9.95177 14.8 10.6693 14.8 11.5C14.8 12.7426 13.7254 13.75 12.4 13.75V12.625L10 14.3125L12.4 16V14.875C14.3884 14.875 16 13.3641 16 11.5C16 10.031 14.9974 8.78417 13.6 8.32056Z" fill="#3ADD31"/>
</svg>
