<svg width="32" height="32" viewBox="0 0 32 32" fill="none" xmlns="http://www.w3.org/2000/svg">
<g clip-path="url(#clip0_311_2083)">
<rect x="2" y="2" width="28" height="28" fill="#5284C3"/>
<rect x="4" y="4" width="24" height="24" fill="#F5F5F5"/>
<rect x="6" y="6" width="20" height="4" fill="#355783"/>
<rect x="6" y="12" width="20" height="2" fill="#4474B1"/>
<rect x="6" y="16" width="20" height="2" fill="#4474B1"/>
<rect x="6" y="20" width="20" height="2" fill="#4474B1"/>
<rect x="6" y="24" width="20" height="2" fill="#4474B1"/>
<rect x="8" y="12" width="14" height="2" transform="rotate(90 8 12)" fill="#4474B1"/>
<rect x="14" y="12" width="14" height="2" transform="rotate(90 14 12)" fill="#4474B1"/>
<rect x="26" y="12" width="14" height="2" transform="rotate(90 26 12)" fill="#4474B1"/>
<rect x="20" y="12" width="14" height="2" transform="rotate(90 20 12)" fill="#4474B1"/>
<path d="M21.2 14V16.25C17.2236 16.25 14 19.2721 14 23C14 25.9497 16.0205 28.4519 18.8328 29.3699V26.8914C17.3867 26.1162 16.4 24.6737 16.4 23C16.4 20.5148 18.5491 18.5 21.2 18.5V20.75L26 17.375L21.2 14ZM27.2 16.6411V19.124C28.6292 19.9035 29.6 21.3386 29.6 23C29.6 25.4851 27.4508 27.5 24.8 27.5V25.25L20 28.625L24.8 32V29.75C28.7768 29.75 32 26.7282 32 23C32 20.062 29.9948 17.5683 27.2 16.6411Z" fill="#3ADD31"/>
</g>
<defs>
<clipPath id="clip0_311_2083">
<rect width="32" height="32" fill="white"/>
</clipPath>
</defs>
</svg>
