<svg width="24" height="24" viewBox="0 0 24 24" fill="none" xmlns="http://www.w3.org/2000/svg">
<rect x="1.5" y="1.5" width="21" height="21" fill="#5284C3"/>
<rect x="3" y="3" width="18" height="18" fill="#F5F5F5"/>
<rect x="4.5" y="4.5" width="15" height="3" fill="#355783"/>
<rect x="4.5" y="9" width="15" height="1.5" fill="#4474B1"/>
<rect x="4.5" y="12" width="15" height="1.5" fill="#4474B1"/>
<rect x="4.5" y="15" width="15" height="1.5" fill="#4474B1"/>
<rect x="4.5" y="18" width="15" height="1.5" fill="#4474B1"/>
<rect x="6" y="9" width="10.5" height="1.5" transform="rotate(90 6 9)" fill="#4474B1"/>
<rect x="6" y="9" width="13.5" height="1.5" transform="rotate(90 6 9)" fill="#3ADD31"/>
<rect x="6" y="9" width="13.5" height="1.5" transform="rotate(90 6 9)" fill="#3ADD31"/>
<rect x="6" y="9" width="13.5" height="1.5" transform="rotate(90 6 9)" fill="#3ADD31"/>
<rect x="6" y="9" width="13.5" height="1.5" transform="rotate(90 6 9)" fill="#3ADD31"/>
<rect x="6" y="9" width="13.5" height="1.5" transform="rotate(90 6 9)" fill="#3ADD31"/>
<rect x="6" y="9" width="13.5" height="1.5" transform="rotate(90 6 9)" fill="#3ADD31"/>
<rect x="19.5" y="9" width="10.5" height="1.5" transform="rotate(90 19.5 9)" fill="#4474B1"/>
<rect x="15" y="9" width="10.5" height="1.5" transform="rotate(90 15 9)" fill="#4474B1"/>
<rect x="12" y="9" width="13.5" height="1.5" transform="rotate(90 12 9)" fill="#3ADD31"/>
<rect x="12" y="9" width="13.5" height="1.5" transform="rotate(90 12 9)" fill="#3ADD31"/>
<rect x="12" y="9" width="13.5" height="1.5" transform="rotate(90 12 9)" fill="#3ADD31"/>
<rect x="4.5" y="9" width="7.5" height="1.5" fill="#3ADD31"/>
<rect x="4.5" y="9" width="7.5" height="1.5" fill="#3ADD31"/>
<rect x="4.5" y="9" width="7.5" height="1.5" fill="#3ADD31"/>
<rect x="4.5" y="12" width="7.5" height="1.5" fill="#3ADD31"/>
<rect x="4.5" y="12" width="7.5" height="1.5" fill="#3ADD31"/>
<rect x="4.5" y="12" width="7.5" height="1.5" fill="#3ADD31"/>
<rect x="4.5" y="15" width="7.5" height="1.5" fill="#3ADD31"/>
<rect x="4.5" y="15" width="7.5" height="1.5" fill="#3ADD31"/>
<rect x="4.5" y="15" width="7.5" height="1.5" fill="#3ADD31"/>
<rect x="4.5" y="18" width="7.5" height="1.5" fill="#3ADD31"/>
<rect x="4.5" y="18" width="7.5" height="1.5" fill="#3ADD31"/>
<rect x="4.5" y="18" width="7.5" height="1.5" fill="#3ADD31"/>
<rect x="4.5" y="21" width="7.5" height="1.5" fill="#3ADD31"/>
<rect x="4.5" y="21" width="7.5" height="1.5" fill="#3ADD31"/>
<rect x="4.5" y="21" width="7.5" height="1.5" fill="#3ADD31"/>
</svg>
