<svg width="16" height="16" viewBox="0 0 16 16" fill="none" xmlns="http://www.w3.org/2000/svg">
<g clip-path="url(#clip0_276_1337)">
<rect x="10" y="1" width="14" height="14" fill="#5284C3"/>
<rect x="11" y="2" width="12" height="12" fill="#F5F5F5"/>
<rect x="12" y="3" width="10" height="2" fill="#355783"/>
<rect x="12" y="6" width="10" height="1" fill="#4474B1"/>
<rect x="12" y="8" width="10" height="1" fill="#4474B1"/>
<rect x="12" y="10" width="10" height="1" fill="#4474B1"/>
<rect x="12" y="12" width="10" height="1" fill="#4474B1"/>
<rect x="13" y="6" width="7" height="1" transform="rotate(90 13 6)" fill="#4474B1"/>
<rect x="16" y="6" width="7" height="1" transform="rotate(90 16 6)" fill="#4474B1"/>
<rect x="-8" y="1" width="14" height="14" fill="#5284C3"/>
<rect x="-7" y="2" width="12" height="12" fill="#F5F5F5"/>
<rect x="-6" y="3" width="10" height="2" fill="#355783"/>
<rect x="-6" y="6" width="10" height="1" fill="#4474B1"/>
<rect x="-6" y="8" width="10" height="1" fill="#4474B1"/>
<rect x="-6" y="10" width="10" height="1" fill="#4474B1"/>
<rect x="-6" y="12" width="10" height="1" fill="#4474B1"/>
<rect x="4" y="6" width="7" height="1" transform="rotate(90 4 6)" fill="#4474B1"/>
<rect x="1" y="6" width="7" height="1" transform="rotate(90 1 6)" fill="#4474B1"/>
<path d="M3 9.5H6L10 6.5H13" stroke="#3ADD31" stroke-width="2" stroke-linecap="round" stroke-linejoin="bevel"/>
</g>
<defs>
<clipPath id="clip0_276_1337">
<rect width="16" height="16" fill="white"/>
</clipPath>
</defs>
</svg>
