<svg width="24" height="24" viewBox="0 0 24 24" fill="none" xmlns="http://www.w3.org/2000/svg">
<rect x="1.5" y="1.5" width="21" height="21" fill="#5284C3"/>
<rect x="3" y="3" width="18" height="18" fill="#F5F5F5"/>
<rect x="4.5" y="4.5" width="15" height="3" fill="#355783"/>
<rect x="4.5" y="9" width="15" height="1.5" fill="#4474B1"/>
<rect x="4.5" y="12" width="15" height="1.5" fill="#4474B1"/>
<rect x="4.5" y="15" width="15" height="1.5" fill="#4474B1"/>
<rect x="4.5" y="18" width="15" height="1.5" fill="#4474B1"/>
<rect x="6" y="9" width="10.5" height="1.5" transform="rotate(90 6 9)" fill="#4474B1"/>
<rect x="10.5" y="9" width="10.5" height="1.5" transform="rotate(90 10.5 9)" fill="#4474B1"/>
<rect x="19.5" y="9" width="10.5" height="1.5" transform="rotate(90 19.5 9)" fill="#4474B1"/>
<rect x="15" y="9" width="10.5" height="1.5" transform="rotate(90 15 9)" fill="#4474B1"/>
<rect x="15.45" y="15.45" width="3.6" height="2.1" fill="#6D859E" stroke="#404A56" stroke-width="0.9"/>
<mask id="path-13-inside-1_276_1264" fill="white">
<path d="M13.5 10.5H16.5V15H13.5V10.5Z"/>
</mask>
<path d="M13.5 10.5H16.5V15H13.5V10.5Z" fill="#6D859E"/>
<path d="M13.5 10.5V9.6H12.6V10.5H13.5ZM16.5 10.5H17.4V9.6H16.5V10.5ZM16.5 15V15.9H17.4V15H16.5ZM13.5 15H12.6V15.9H13.5V15ZM13.5 11.4H16.5V9.6H13.5V11.4ZM15.6 10.5V15H17.4V10.5H15.6ZM16.5 14.1H13.5V15.9H16.5V14.1ZM14.4 15V10.5H12.6V15H14.4Z" fill="#404A56" mask="url(#path-13-inside-1_276_1264)"/>
<mask id="path-15-inside-2_276_1264" fill="white">
<path fill-rule="evenodd" clip-rule="evenodd" d="M21 10.5H18V15H21V10.5ZM16.5 13.5H12V18H16.5V13.5Z"/>
</mask>
<path fill-rule="evenodd" clip-rule="evenodd" d="M21 10.5H18V15H21V10.5ZM16.5 13.5H12V18H16.5V13.5Z" fill="#6D859E"/>
<path d="M18 10.5V9.6H17.1V10.5H18ZM21 10.5H21.9V9.6H21V10.5ZM18 15H17.1V15.9H18V15ZM21 15V15.9H21.9V15H21ZM12 13.5V12.6H11.1V13.5H12ZM16.5 13.5H17.4V12.6H16.5V13.5ZM12 18H11.1V18.9H12V18ZM16.5 18V18.9H17.4V18H16.5ZM18 11.4H21V9.6H18V11.4ZM18.9 15V10.5H17.1V15H18.9ZM21 14.1H18V15.9H21V14.1ZM20.1 10.5V15H21.9V10.5H20.1ZM12 14.4H16.5V12.6H12V14.4ZM12.9 18V13.5H11.1V18H12.9ZM16.5 17.1H12V18.9H16.5V17.1ZM15.6 13.5V18H17.4V13.5H15.6Z" fill="#404A56" mask="url(#path-15-inside-2_276_1264)"/>
<rect x="18.375" y="13.875" width="3.75" height="3.75" fill="#6D859E" stroke="#404A56" stroke-width="0.75"/>
<rect x="18.45" y="16.95" width="5.1" height="6.6" fill="#6D859E" stroke="#404A56" stroke-width="0.9"/>
<rect x="10.95" y="16.95" width="5.1" height="6.6" fill="#6D859E" stroke="#404A56" stroke-width="0.9"/>
</svg>
