<svg width="16" height="16" viewBox="0 0 16 16" fill="none" xmlns="http://www.w3.org/2000/svg">
<path d="M12.7754 5.7866C12.7754 2.9489 10.3431 0.700854 7.43171 1.03253C5.22051 1.29051 3.45156 3.05946 3.23044 5.27065C3.04617 6.9659 3.74638 8.47688 4.92569 9.43507C5.44163 9.87731 5.77331 10.5038 5.77331 11.204V11.3146H10.1957V11.2777C10.1957 10.6144 10.4905 9.95101 11.0065 9.50877C12.0752 8.6243 12.7754 7.29758 12.7754 5.7866Z" fill="#FBC02D"/>
<path d="M10.4166 5.12315L9.311 4.38609C9.20044 4.31238 9.01617 4.31238 8.90561 4.38609L8.53449 4.6236C8.20019 4.83756 7.77099 4.83355 7.44074 4.61338L7.0998 4.38609C6.98924 4.31238 6.80498 4.31238 6.69442 4.38609L5.67121 5.06823C5.61642 5.10476 5.56342 5.14487 5.52064 5.19493C5.47557 5.24767 5.44141 5.30586 5.44141 5.38113C5.44141 5.49169 5.44141 5.60225 5.51511 5.67595L6.69317 7.13302C6.83704 7.31097 6.91554 7.5329 6.91554 7.76174V10.946C6.91554 11.1495 7.08053 11.3145 7.28407 11.3145C7.4876 11.3145 7.6526 11.1495 7.6526 10.946V7.26064C7.6526 7.21937 7.64104 7.17809 7.6244 7.13682C7.59769 7.07058 7.55631 7.01146 7.51153 6.95582L6.62158 5.85013C6.48254 5.67738 6.52171 5.42256 6.70622 5.29955C6.83297 5.21505 6.9981 5.21505 7.12485 5.29955L7.80001 5.74966C7.91057 5.82337 8.09484 5.82337 8.2054 5.74966L8.88056 5.29955C9.00731 5.21505 9.17244 5.21505 9.29919 5.29955C9.4837 5.42256 9.52288 5.67738 9.38384 5.85013L8.49388 6.95582C8.4491 7.01146 8.40772 7.07058 8.38101 7.13682C8.36437 7.17809 8.35281 7.21937 8.35281 7.26064V10.946C8.35281 11.1495 8.51781 11.3145 8.72134 11.3145C8.92488 11.3145 9.08988 11.1495 9.08988 10.946V7.76174C9.08988 7.5329 9.16837 7.31097 9.31225 7.13302L10.4903 5.67595C10.564 5.60225 10.6009 5.49169 10.564 5.38113C10.5272 5.27057 10.4903 5.16001 10.4166 5.12315Z" fill="#FFF59D"/>
<path d="M7.9845 12.7886C7.69128 12.7886 7.41007 12.9051 7.20273 13.1124C6.99539 13.3197 6.87891 13.6009 6.87891 13.8942C6.87891 14.1874 6.99539 14.4686 7.20273 14.6759C7.41007 14.8833 7.69128 14.9998 7.9845 14.9998C8.27773 14.9998 8.55894 14.8833 8.76628 14.6759C8.97362 14.4686 9.0901 14.1874 9.0901 13.8942C9.0901 13.6009 8.97362 13.3197 8.76628 13.1124C8.55894 12.9051 8.27773 12.7886 7.9845 12.7886Z" fill="#5C6BC0"/>
<path d="M8.7217 14.2628H7.24757C6.4368 14.2628 5.77344 13.5995 5.77344 12.7887V10.946H10.1958V12.7887C10.1958 13.5995 9.53247 14.2628 8.7217 14.2628Z" fill="#9FA8DA"/>
<path d="M10.1958 12.7888L5.92085 13.3785C6.03141 13.6365 6.25253 13.8944 6.5105 14.0418L9.97471 13.5627C10.1221 13.3416 10.1958 13.0837 10.1958 12.7888ZM5.77344 11.9412V12.6783L10.1958 12.0518V11.3147L5.77344 11.9412Z" fill="#5C6BC0"/>
</svg>
