<svg width="16" height="16" viewBox="0 0 16 16" fill="none" xmlns="http://www.w3.org/2000/svg">
<rect x="6.83398" y="1" width="2.33333" height="2.91667" rx="0.7" fill="#F8F8F8"/>
<rect x="12.125" y="2.2251" width="2.33333" height="2.91667" rx="0.7" transform="rotate(45 12.125 2.2251)" fill="#F8F8F8"/>
<rect x="13.7754" y="12.1248" width="2.33333" height="2.91667" rx="0.7" transform="rotate(135 13.7754 12.1248)" fill="#F8F8F8"/>
<rect x="5.93359" y="4.2876" width="2.33333" height="2.91667" rx="0.7" transform="rotate(135 5.93359 4.2876)" fill="#F8F8F8"/>
<rect x="4.28711" y="10.0623" width="2.33333" height="2.91667" rx="0.7" transform="rotate(45 4.28711 10.0623)" fill="#F8F8F8"/>
<rect x="4.5" y="6.83325" width="2.33333" height="3.5" rx="0.7" transform="rotate(90 4.5 6.83325)" fill="#F8F8F8"/>
<rect x="15" y="6.83325" width="2.33333" height="3.5" rx="0.7" transform="rotate(90 15 6.83325)" fill="#F8F8F8"/>
<rect x="6.83398" y="12.0833" width="2.33333" height="2.91667" rx="0.7" fill="#F8F8F8"/>
<path fill-rule="evenodd" clip-rule="evenodd" d="M8 13.25C10.8995 13.25 13.25 10.8995 13.25 8C13.25 5.10051 10.8995 2.75 8 2.75C5.10051 2.75 2.75 5.10051 2.75 8C2.75 10.8995 5.10051 13.25 8 13.25ZM7.9986 10.3335C9.28726 10.3335 10.3319 9.28884 10.3319 8.00018C10.3319 6.71151 9.28726 5.66684 7.9986 5.66684C6.70993 5.66684 5.66526 6.71151 5.66526 8.00018C5.66526 9.28884 6.70993 10.3335 7.9986 10.3335Z" fill="#F8F8F8"/>
<path d="M8.24716 15H6.44247V9.90909H8.26207C8.77415 9.90909 9.21496 10.011 9.58452 10.2148C9.95407 10.417 10.2383 10.7079 10.4371 11.0874C10.6377 11.4669 10.7379 11.9209 10.7379 12.4496C10.7379 12.9799 10.6377 13.4356 10.4371 13.8168C10.2383 14.1979 9.95241 14.4904 9.57955 14.6942C9.20833 14.8981 8.7642 15 8.24716 15ZM7.51882 14.0778H8.20241C8.5206 14.0778 8.78823 14.0214 9.00533 13.9087C9.22408 13.7944 9.38814 13.6179 9.49751 13.3793C9.60855 13.139 9.66406 12.8291 9.66406 12.4496C9.66406 12.0734 9.60855 11.766 9.49751 11.5273C9.38814 11.2887 9.22491 11.113 9.00781 11.0004C8.79072 10.8877 8.52308 10.8313 8.2049 10.8313H7.51882V14.0778ZM11.5352 15V9.90909H13.5736C13.9481 9.90909 14.2605 9.96461 14.5107 10.0756C14.761 10.1867 14.9491 10.3408 15.075 10.538C15.201 10.7335 15.2639 10.9589 15.2639 11.2141C15.2639 11.413 15.2242 11.5878 15.1446 11.7386C15.0651 11.8878 14.9557 12.0104 14.8165 12.1065C14.6789 12.201 14.5215 12.2681 14.3442 12.3079V12.3576C14.5381 12.3659 14.7195 12.4206 14.8886 12.5217C15.0593 12.6228 15.1977 12.7644 15.3037 12.9467C15.4098 13.1274 15.4628 13.3428 15.4628 13.593C15.4628 13.8632 15.3957 14.1043 15.2615 14.3164C15.1289 14.5269 14.9325 14.6934 14.6723 14.8161C14.4121 14.9387 14.0915 15 13.7103 15H11.5352ZM12.6116 14.12H13.4891C13.789 14.12 14.0078 14.0629 14.1453 13.9485C14.2829 13.8325 14.3517 13.6784 14.3517 13.4862C14.3517 13.3453 14.3177 13.221 14.2497 13.1133C14.1818 13.0056 14.0848 12.921 13.9589 12.8597C13.8346 12.7984 13.6863 12.7678 13.5139 12.7678H12.6116V14.12ZM12.6116 12.0394H13.4095C13.557 12.0394 13.6879 12.0137 13.8023 11.9624C13.9183 11.9093 14.0094 11.8348 14.0757 11.7386C14.1437 11.6425 14.1776 11.5273 14.1776 11.3931C14.1776 11.2092 14.1122 11.0608 13.9813 10.9482C13.852 10.8355 13.6681 10.7791 13.4294 10.7791H12.6116V12.0394Z" fill="#4B3CE7"/>
</svg>
