<svg width="16" height="16" viewBox="0 0 16 16" fill="none" xmlns="http://www.w3.org/2000/svg">
<rect x="6.83398" y="1" width="2.33333" height="2.91667" rx="0.7" fill="#F8F8F8"/>
<rect x="12.125" y="2.2251" width="2.33333" height="2.91667" rx="0.7" transform="rotate(45 12.125 2.2251)" fill="#F8F8F8"/>
<rect x="13.7754" y="12.1248" width="2.33333" height="2.91667" rx="0.7" transform="rotate(135 13.7754 12.1248)" fill="#F8F8F8"/>
<rect x="5.93359" y="4.2876" width="2.33333" height="2.91667" rx="0.7" transform="rotate(135 5.93359 4.2876)" fill="#F8F8F8"/>
<rect x="4.28711" y="10.0623" width="2.33333" height="2.91667" rx="0.7" transform="rotate(45 4.28711 10.0623)" fill="#F8F8F8"/>
<rect x="4.5" y="6.83325" width="2.33333" height="3.5" rx="0.7" transform="rotate(90 4.5 6.83325)" fill="#F8F8F8"/>
<rect x="15" y="6.83325" width="2.33333" height="3.5" rx="0.7" transform="rotate(90 15 6.83325)" fill="#F8F8F8"/>
<rect x="6.83398" y="12.0833" width="2.33333" height="2.91667" rx="0.7" fill="#F8F8F8"/>
<path fill-rule="evenodd" clip-rule="evenodd" d="M8 13.25C10.8995 13.25 13.25 10.8995 13.25 8C13.25 5.10051 10.8995 2.75 8 2.75C5.10051 2.75 2.75 5.10051 2.75 8C2.75 10.8995 5.10051 13.25 8 13.25ZM7.9986 10.3335C9.28726 10.3335 10.3319 9.28884 10.3319 8.00018C10.3319 6.71151 9.28726 5.66684 7.9986 5.66684C6.70993 5.66684 5.66526 6.71151 5.66526 8.00018C5.66526 9.28884 6.70993 10.3335 7.9986 10.3335Z" fill="#F8F8F8"/>
</svg>
