<svg width="16" height="16" viewBox="0 0 16 16" fill="none" xmlns="http://www.w3.org/2000/svg">
<g clip-path="url(#clip0_266_1064)">
<rect x="6.83398" y="1" width="2.33333" height="2.91667" rx="0.7" fill="#F8F8F8"/>
<rect x="12.125" y="2.2251" width="2.33333" height="2.91667" rx="0.7" transform="rotate(45 12.125 2.2251)" fill="#F8F8F8"/>
<rect x="13.7754" y="12.1248" width="2.33333" height="2.91667" rx="0.7" transform="rotate(135 13.7754 12.1248)" fill="#F8F8F8"/>
<rect x="5.93359" y="4.2876" width="2.33333" height="2.91667" rx="0.7" transform="rotate(135 5.93359 4.2876)" fill="#F8F8F8"/>
<rect x="4.28711" y="10.0623" width="2.33333" height="2.91667" rx="0.7" transform="rotate(45 4.28711 10.0623)" fill="#F8F8F8"/>
<rect x="4.5" y="6.83325" width="2.33333" height="3.5" rx="0.7" transform="rotate(90 4.5 6.83325)" fill="#F8F8F8"/>
<rect x="15" y="6.83325" width="2.33333" height="3.5" rx="0.7" transform="rotate(90 15 6.83325)" fill="#F8F8F8"/>
<rect x="6.83398" y="12.0833" width="2.33333" height="2.91667" rx="0.7" fill="#F8F8F8"/>
<path fill-rule="evenodd" clip-rule="evenodd" d="M8 13.25C10.8995 13.25 13.25 10.8995 13.25 8C13.25 5.10051 10.8995 2.75 8 2.75C5.10051 2.75 2.75 5.10051 2.75 8C2.75 10.8995 5.10051 13.25 8 13.25ZM7.9986 10.3335C9.28726 10.3335 10.3319 9.28884 10.3319 8.00018C10.3319 6.71151 9.28726 5.66684 7.9986 5.66684C6.70993 5.66684 5.66526 6.71151 5.66526 8.00018C5.66526 9.28884 6.70993 10.3335 7.9986 10.3335Z" fill="#F8F8F8"/>
<path d="M6.24716 15H4.44247V9.90909H6.26207C6.77415 9.90909 7.21496 10.011 7.58452 10.2148C7.95407 10.417 8.23828 10.7079 8.43715 11.0874C8.63767 11.4669 8.73793 11.9209 8.73793 12.4496C8.73793 12.9799 8.63767 13.4356 8.43715 13.8168C8.23828 14.1979 7.95241 14.4904 7.57955 14.6942C7.20833 14.8981 6.7642 15 6.24716 15ZM5.51882 14.0778H6.20241C6.5206 14.0778 6.78823 14.0214 7.00533 13.9087C7.22408 13.7944 7.38814 13.6179 7.49751 13.3793C7.60855 13.139 7.66406 12.8291 7.66406 12.4496C7.66406 12.0734 7.60855 11.766 7.49751 11.5273C7.38814 11.2887 7.22491 11.113 7.00781 11.0004C6.79072 10.8877 6.52308 10.8313 6.2049 10.8313H5.51882V14.0778ZM10.6749 15H8.87025V9.90909H10.6898C11.2019 9.90909 11.6427 10.011 12.0123 10.2148C12.3818 10.417 12.6661 10.7079 12.8649 11.0874C13.0654 11.4669 13.1657 11.9209 13.1657 12.4496C13.1657 12.9799 13.0654 13.4356 12.8649 13.8168C12.6661 14.1979 12.3802 14.4904 12.0073 14.6942C11.6361 14.8981 11.192 15 10.6749 15ZM9.94659 14.0778H10.6302C10.9484 14.0778 11.216 14.0214 11.4331 13.9087C11.6519 13.7944 11.8159 13.6179 11.9253 13.3793C12.0363 13.139 12.0918 12.8291 12.0918 12.4496C12.0918 12.0734 12.0363 11.766 11.9253 11.5273C11.8159 11.2887 11.6527 11.113 11.4356 11.0004C11.2185 10.8877 10.9509 10.8313 10.6327 10.8313H9.94659V14.0778ZM13.298 15V9.90909H14.3744V14.1126H16.5569V15H13.298Z" fill="#4B3CE7"/>
</g>
<defs>
<clipPath id="clip0_266_1064">
<rect width="16" height="16" fill="white"/>
</clipPath>
</defs>
</svg>
