<svg width="16" height="16" viewBox="0 0 16 16" fill="none" xmlns="http://www.w3.org/2000/svg">
<g clip-path="url(#clip0_266_1045)">
<path d="M6.33474 1.7V2.49483C5.9678 2.60568 5.61635 2.75221 5.28442 2.93038L4.72063 2.36659C4.252 1.89796 3.4922 1.89796 3.02357 2.36659L2.36361 3.02655C1.89498 3.49518 1.89498 4.25498 2.36361 4.72361L2.9283 5.2883C2.75132 5.61861 2.60567 5.96822 2.49531 6.33316H1.7C1.03726 6.33316 0.5 6.87042 0.5 7.53316L0.5 8.46649C0.5 9.12923 1.03726 9.66649 1.7 9.66649H2.4952C2.60578 10.0322 2.7518 10.3826 2.92928 10.7135L2.36659 11.2762C1.89796 11.7448 1.89796 12.5046 2.36659 12.9733L3.02655 13.6332C3.49518 14.1019 4.25498 14.1019 4.72361 13.6332L5.28625 13.0706C5.61764 13.2483 5.96847 13.3945 6.33474 13.5052V14.2998C6.33474 14.9626 6.87199 15.4998 7.53474 15.4998H8.46807C9.13081 15.4998 9.66807 14.9626 9.66807 14.2998V13.5043C10.0336 13.3937 10.3837 13.2477 10.7144 13.0702L11.2774 13.6332C11.746 14.1018 12.5058 14.1018 12.9745 13.6332L13.6344 12.9732C14.103 12.5046 14.103 11.7448 13.6344 11.2762L13.0711 10.7128C13.2484 10.3821 13.3943 10.032 13.5048 9.66649H14.3C14.9627 9.66649 15.5 9.12923 15.5 8.46649V7.53316C15.5 6.87042 14.9627 6.33316 14.3 6.33316H13.5047C13.3941 5.96747 13.2481 5.61716 13.0706 5.28625L13.6332 4.72365C14.1018 4.25503 14.1018 3.49523 13.6332 3.0266L12.9732 2.36663C12.5046 1.898 11.7448 1.898 11.2762 2.36663L10.7135 2.92928C10.383 2.75206 10.0332 2.6062 9.66807 2.49568V1.7C9.66807 1.03726 9.13081 0.5 8.46807 0.5H7.53474C6.87199 0.5 6.33474 1.03726 6.33474 1.7ZM9.83193 8.00018C9.83193 9.0127 9.01112 9.83351 7.9986 9.83351C6.98608 9.83351 6.16526 9.0127 6.16526 8.00018C6.16526 6.98765 6.98608 6.16684 7.9986 6.16684C9.01112 6.16684 9.83193 6.98765 9.83193 8.00018Z" fill="white" stroke="#474747"/>
<path d="M8.24716 15H6.44247V9.90909H8.26207C8.77415 9.90909 9.21496 10.011 9.58452 10.2148C9.95407 10.417 10.2383 10.7079 10.4371 11.0874C10.6377 11.4669 10.7379 11.9209 10.7379 12.4496C10.7379 12.9799 10.6377 13.4356 10.4371 13.8168C10.2383 14.1979 9.95241 14.4904 9.57955 14.6942C9.20833 14.8981 8.7642 15 8.24716 15ZM7.51882 14.0778H8.20241C8.5206 14.0778 8.78823 14.0214 9.00533 13.9087C9.22408 13.7944 9.38814 13.6179 9.49751 13.3793C9.60855 13.139 9.66406 12.8291 9.66406 12.4496C9.66406 12.0734 9.60855 11.766 9.49751 11.5273C9.38814 11.2887 9.22491 11.113 9.00781 11.0004C8.79072 10.8877 8.52308 10.8313 8.2049 10.8313H7.51882V14.0778ZM11.5352 15V9.90909H13.5736C13.9481 9.90909 14.2605 9.96461 14.5107 10.0756C14.761 10.1867 14.9491 10.3408 15.075 10.538C15.201 10.7335 15.2639 10.9589 15.2639 11.2141C15.2639 11.413 15.2242 11.5878 15.1446 11.7386C15.0651 11.8878 14.9557 12.0104 14.8165 12.1065C14.6789 12.201 14.5215 12.2681 14.3442 12.3079V12.3576C14.5381 12.3659 14.7195 12.4206 14.8886 12.5217C15.0593 12.6228 15.1977 12.7644 15.3037 12.9467C15.4098 13.1274 15.4628 13.3428 15.4628 13.593C15.4628 13.8632 15.3957 14.1043 15.2615 14.3164C15.1289 14.5269 14.9325 14.6934 14.6723 14.8161C14.4121 14.9387 14.0915 15 13.7103 15H11.5352ZM12.6116 14.12H13.4891C13.789 14.12 14.0078 14.0629 14.1453 13.9485C14.2829 13.8325 14.3517 13.6784 14.3517 13.4862C14.3517 13.3453 14.3177 13.221 14.2497 13.1133C14.1818 13.0056 14.0848 12.921 13.9589 12.8597C13.8346 12.7984 13.6863 12.7678 13.5139 12.7678H12.6116V14.12ZM12.6116 12.0394H13.4095C13.557 12.0394 13.6879 12.0137 13.8023 11.9624C13.9183 11.9093 14.0094 11.8348 14.0757 11.7386C14.1437 11.6425 14.1776 11.5273 14.1776 11.3931C14.1776 11.2092 14.1122 11.0608 13.9813 10.9482C13.852 10.8355 13.6681 10.7791 13.4294 10.7791H12.6116V12.0394Z" fill="#4B3CE7"/>
</g>
<defs>
<clipPath id="clip0_266_1045">
<rect width="16" height="16" fill="white"/>
</clipPath>
</defs>
</svg>
