<svg width="16" height="16" viewBox="0 0 16 16" fill="none" xmlns="http://www.w3.org/2000/svg">
<g clip-path="url(#clip0_223_283)">
<path d="M9 2.5V4.10157C11.8 5.12376 12 6.97606 12 8.38229C12 10.4857 9.8299 12.1912 7.4 12.1912V10.2867L3 13.1434L7.4 16V14.0956C11.0454 14.0956 14 11.5379 14 8.38229C14 5.89548 13 3.5 9 2.5Z" fill="#7DCD17"/>
<path fill-rule="evenodd" clip-rule="evenodd" d="M2.50931 10.4229C2.18186 9.68191 2 8.86219 2 8C2 4.68629 4.68629 2 8 2C11.3137 2 14 4.68629 14 8C14 9.6433 13.3394 11.1323 12.2692 12.2159L12.0005 5.00005L11.1236 5.50109C10.3905 4.586 9.26369 4 8 4C5.79086 4 4 5.79086 4 8C4 8.501 4.09211 8.98048 4.26031 9.42244L2.50931 10.4229Z" fill="#7DCD17"/>
</g>
<defs>
<clipPath id="clip0_223_283">
<rect width="16" height="16" fill="white"/>
</clipPath>
</defs>
</svg>
