<svg width="16" height="8" viewBox="0 0 16 8" fill="none" xmlns="http://www.w3.org/2000/svg">
<mask id="path-1-outside-1_238_338" maskUnits="userSpaceOnUse" x="0" y="0.5" width="16" height="8" fill="black">
<rect fill="white" y="0.5" width="16" height="8"/>
<path fill-rule="evenodd" clip-rule="evenodd" d="M5.94999 4.5C5.71836 5.64112 4.70948 6.5 3.5 6.5C2.11929 6.5 1 5.38071 1 4C1 2.61929 2.11929 1.5 3.5 1.5C4.70948 1.5 5.71836 2.35888 5.94999 3.5H15V4.5H14V7H13V4.5H12V7H11V4.5H5.94999Z"/>
</mask>
<path fill-rule="evenodd" clip-rule="evenodd" d="M5.94999 4.5C5.71836 5.64112 4.70948 6.5 3.5 6.5C2.11929 6.5 1 5.38071 1 4C1 2.61929 2.11929 1.5 3.5 1.5C4.70948 1.5 5.71836 2.35888 5.94999 3.5H15V4.5H14V7H13V4.5H12V7H11V4.5H5.94999Z" fill="#FFF12E"/>
<path d="M5.94999 4.5V3.5H5.13259L4.96998 4.30107L5.94999 4.5ZM5.94999 3.5L4.96998 3.69893L5.13259 4.5H5.94999V3.5ZM15 3.5H16V2.5H15V3.5ZM15 4.5V5.5H16V4.5H15ZM14 4.5V3.5H13V4.5H14ZM14 7V8H15V7H14ZM13 7H12V8H13V7ZM13 4.5H14V3.5H13V4.5ZM12 4.5V3.5H11V4.5H12ZM12 7V8H13V7H12ZM11 7H10V8H11V7ZM11 4.5H12V3.5H11V4.5ZM3.5 7.5C5.19443 7.5 6.60563 6.29692 6.93 4.69893L4.96998 4.30107C4.83108 4.98532 4.22452 5.5 3.5 5.5V7.5ZM0 4C0 5.933 1.567 7.5 3.5 7.5V5.5C2.67157 5.5 2 4.82843 2 4H0ZM3.5 0.5C1.567 0.5 0 2.067 0 4H2C2 3.17157 2.67157 2.5 3.5 2.5V0.5ZM6.93 3.30107C6.60563 1.70308 5.19443 0.5 3.5 0.5V2.5C4.22452 2.5 4.83108 3.01468 4.96998 3.69893L6.93 3.30107ZM15 2.5H5.94999V4.5H15V2.5ZM16 4.5V3.5H14V4.5H16ZM14 5.5H15V3.5H14V5.5ZM15 7V4.5H13V7H15ZM13 8H14V6H13V8ZM12 4.5V7H14V4.5H12ZM12 5.5H13V3.5H12V5.5ZM11 4.5V7H13V4.5H11ZM12 6H11V8H12V6ZM12 7V4.5H10V7H12ZM5.94999 5.5H11V3.5H5.94999V5.5Z" fill="#2B2B2B" mask="url(#path-1-outside-1_238_338)"/>
</svg>
