<svg width="32" height="32" viewBox="0 0 32 32" fill="none" xmlns="http://www.w3.org/2000/svg">
<circle cx="12" cy="8" r="6" fill="#CACACA"/>
<path d="M2 23.6C2 18.2981 6.29807 14 11.6 14H12.4C17.7019 14 22 18.2981 22 23.6C22 24.9255 20.9255 26 19.6 26H4.4C3.07452 26 2 24.9255 2 23.6Z" fill="#CACACA"/>
<circle cx="20" cy="12" r="6" fill="white"/>
<path d="M10 27.6C10 22.2981 14.2981 18 19.6 18H20.4C25.7019 18 30 22.2981 30 27.6C30 28.9255 28.9255 30 27.6 30H12.4C11.0745 30 10 28.9255 10 27.6Z" fill="white"/>
</svg>
