<svg width="16" height="16" viewBox="0 0 16 16" fill="none" xmlns="http://www.w3.org/2000/svg">
<g clip-path="url(#clip0_311_1862)">
<path d="M2.66667 4C2.66667 5.22998 3.33284 6.30436 4.32407 6.88201C2.20841 7.51604 0.666667 9.47797 0.666667 11.8C0.666667 12.6468 1.35316 13.3333 2.2 13.3333H9.8C10.6468 13.3333 11.3333 12.6468 11.3333 11.8C11.3333 9.47797 9.79159 7.51604 7.67593 6.88201C8.66716 6.30436 9.33333 5.22998 9.33333 4C9.33333 2.15905 7.84095 0.666667 6 0.666667C4.15905 0.666667 2.66667 2.15905 2.66667 4Z" fill="#CACACA" stroke="#474747" stroke-width="0.666667"/>
<path d="M6.66667 6C6.66667 7.22998 7.33284 8.30436 8.32407 8.88201C6.20841 9.51604 4.66667 11.478 4.66667 13.8C4.66667 14.6468 5.35316 15.3333 6.2 15.3333H13.8C14.6468 15.3333 15.3333 14.6468 15.3333 13.8C15.3333 11.478 13.7916 9.51604 11.6759 8.88201C12.6672 8.30436 13.3333 7.22998 13.3333 6C13.3333 4.15905 11.8409 2.66667 10 2.66667C8.15905 2.66667 6.66667 4.15905 6.66667 6Z" fill="white" stroke="#474747" stroke-width="0.666667"/>
</g>
<defs>
<clipPath id="clip0_311_1862">
<rect width="16" height="16" fill="white"/>
</clipPath>
</defs>
</svg>
