<svg width="32" height="32" viewBox="0 0 32 32" fill="none" xmlns="http://www.w3.org/2000/svg">
<g clip-path="url(#clip0_311_1870)">
<path d="M5.33333 8C5.33333 10.46 6.66569 12.6087 8.64813 13.764C4.41681 15.0321 1.33333 18.9559 1.33333 23.6C1.33333 25.2937 2.70633 26.6667 4.4 26.6667H19.6C21.2937 26.6667 22.6667 25.2937 22.6667 23.6C22.6667 18.9559 19.5832 15.0321 15.3519 13.764C17.3343 12.6087 18.6667 10.46 18.6667 8C18.6667 4.3181 15.6819 1.33333 12 1.33333C8.3181 1.33333 5.33333 4.3181 5.33333 8Z" fill="#CACACA" stroke="#474747" stroke-width="1.33333"/>
<path d="M13.3333 12C13.3333 14.46 14.6657 16.6087 16.6481 17.764C12.4168 19.0321 9.33333 22.9559 9.33333 27.6C9.33333 29.2937 10.7063 30.6667 12.4 30.6667H27.6C29.2937 30.6667 30.6667 29.2937 30.6667 27.6C30.6667 22.9559 27.5832 19.0321 23.3519 17.764C25.3343 16.6087 26.6667 14.46 26.6667 12C26.6667 8.3181 23.6819 5.33333 20 5.33333C16.3181 5.33333 13.3333 8.3181 13.3333 12Z" fill="white" stroke="#474747" stroke-width="1.33333"/>
</g>
<defs>
<clipPath id="clip0_311_1870">
<rect width="32" height="32" fill="white"/>
</clipPath>
</defs>
</svg>
