<svg width="16" height="16" viewBox="0 0 16 16" fill="none" xmlns="http://www.w3.org/2000/svg">
<g clip-path="url(#clip0_138_259)">
<path d="M3.03 11L0.478 5.17H1.578L3.844 10.45H3.316L5.626 5.17H6.66L4.108 11H3.03ZM10.3669 11V9.768L10.3119 9.537V7.436C10.3119 6.98867 10.1799 6.644 9.91591 6.402C9.65925 6.15267 9.27058 6.028 8.74991 6.028C8.40525 6.028 8.06791 6.08667 7.73791 6.204C7.40791 6.314 7.12925 6.46433 6.90191 6.655L6.46191 5.863C6.76258 5.621 7.12191 5.43767 7.53991 5.313C7.96525 5.181 8.40891 5.115 8.87091 5.115C9.67025 5.115 10.2862 5.30933 10.7189 5.698C11.1516 6.08667 11.3679 6.68067 11.3679 7.48V11H10.3669ZM8.45291 11.066C8.02025 11.066 7.63891 10.9927 7.30891 10.846C6.98625 10.6993 6.73691 10.4977 6.56091 10.241C6.38491 9.977 6.29691 9.68 6.29691 9.35C6.29691 9.03467 6.37025 8.74867 6.51691 8.492C6.67091 8.23533 6.91658 8.03 7.25391 7.876C7.59858 7.722 8.06058 7.645 8.63991 7.645H10.4879V8.404H8.68391C8.15591 8.404 7.80025 8.492 7.61691 8.668C7.43358 8.844 7.34191 9.05667 7.34191 9.306C7.34191 9.592 7.45558 9.823 7.68291 9.999C7.91025 10.1677 8.22558 10.252 8.62891 10.252C9.02491 10.252 9.36958 10.164 9.66291 9.988C9.96358 9.812 10.1799 9.55533 10.3119 9.218L10.5209 9.944C10.3816 10.2887 10.1359 10.5637 9.78391 10.769C9.43191 10.967 8.98825 11.066 8.45291 11.066ZM12.6071 11V5.17H13.6191V6.754L13.5201 6.358C13.6815 5.95467 13.9528 5.64667 14.3341 5.434C14.7155 5.22133 15.1848 5.115 15.7421 5.115V6.138C15.6981 6.13067 15.6541 6.127 15.6101 6.127C15.5735 6.127 15.5368 6.127 15.5001 6.127C14.9355 6.127 14.4881 6.29567 14.1581 6.633C13.8281 6.97033 13.6631 7.458 13.6631 8.096V11H12.6071Z" fill="#2B2B2B"/>
</g>
<defs>
<clipPath id="clip0_138_259">
<rect width="16" height="16" fill="white"/>
</clipPath>
</defs>
</svg>
