<svg width="16" height="16" viewBox="0 0 16 16" fill="none" xmlns="http://www.w3.org/2000/svg">
<circle cx="8" cy="8" r="7" fill="#DEDEDE"/>
<path fill-rule="evenodd" clip-rule="evenodd" d="M8.02 1C6.61881 1.0002 5.25007 1.42181 4.09161 2.21004C2.93315 2.99828 2.03854 4.1167 1.524 5.42C1.47051 5.55243 1.42115 5.6865 1.376 5.822C1.367 5.85 1.356 5.877 1.348 5.905C1.11899 6.59702 1.00152 7.32107 1 8.05C1 11.883 4.13 15 7.98 15C9.3682 14.9998 10.7249 14.5862 11.8772 13.8121C13.0294 13.0379 13.9251 11.9381 14.45 10.653C14.525 10.478 14.588 10.297 14.649 10.115C14.8809 9.41671 14.9994 8.68578 15 7.95C15 4.117 11.87 1 8.02 1ZM7.517 2.085V4.425C6.88176 4.40414 6.24898 4.33562 5.624 4.22C5.712 4.013 5.804 3.814 5.906 3.633C6.372 2.797 6.936 2.276 7.516 2.085H7.517ZM8.514 2.124C8.566 2.132 8.62 2.138 8.672 2.148C9.197 2.377 9.702 2.873 10.125 3.633C10.225 3.811 10.315 4.006 10.403 4.208C9.817 4.322 9.18 4.396 8.513 4.422V2.124H8.514ZM5.389 2.603C5.26057 2.77872 5.14238 2.96169 5.035 3.151C4.88677 3.4207 4.75519 3.69922 4.641 3.985C4.3647 3.90443 4.09297 3.80895 3.827 3.699C4.2856 3.25236 4.81299 2.88231 5.389 2.603ZM10.751 2.752C11.023 2.861 11.231 2.962 11.441 3.064C11.707 3.249 11.957 3.454 12.189 3.678C11.939 3.783 11.672 3.881 11.382 3.968C11.2701 3.68821 11.1416 3.41539 10.997 3.151C10.9198 3.01456 10.8374 2.88113 10.75 2.751L10.751 2.752ZM12.841 4.427C13.4949 5.31133 13.8887 6.36079 13.978 7.457H12.1C12.0688 6.5955 11.9366 5.74065 11.706 4.91C12.104 4.788 12.478 4.649 12.82 4.49C12.829 4.468 12.834 4.448 12.84 4.427H12.841ZM3.149 4.493C3.507 4.659 3.902 4.803 4.321 4.927C4.09316 5.75232 3.96228 6.60138 3.931 7.457H2.061C2.14776 6.38853 2.52389 5.36386 3.149 4.493ZM10.738 5.155C10.936 5.85 11.065 6.629 11.102 7.457H8.514V5.415C9.26127 5.39026 10.0052 5.30329 10.738 5.155ZM5.289 5.17C5.983 5.31 6.733 5.392 7.516 5.417V7.457H4.93C4.967 6.634 5.094 5.861 5.29 5.17H5.289ZM2.06 8.45H3.93C3.968 9.375 4.11 10.25 4.338 11.044C3.928 11.165 3.544 11.305 3.192 11.465C2.54251 10.5843 2.15059 9.54049 2.06 8.45ZM4.929 8.45H7.516V10.559C6.739 10.583 5.996 10.665 5.306 10.802C5.08757 10.0354 4.96102 9.2455 4.929 8.449V8.45ZM8.513 8.45H11.102C11.0695 9.25141 10.9413 10.0461 10.72 10.817C9.99264 10.671 9.25446 10.5854 8.513 10.561V8.449V8.45ZM12.1 8.45H13.977C13.8854 9.55312 13.4856 10.6083 12.823 11.495L12.819 11.485C12.4523 11.3175 12.0744 11.1758 11.688 11.061C11.919 10.264 12.062 9.381 12.1 8.449V8.45ZM7.516 11.552V13.82C6.936 13.629 6.372 13.11 5.906 12.274C5.81257 12.1037 5.72714 11.9292 5.65 11.751C6.232 11.643 6.86 11.575 7.516 11.551V11.552ZM8.513 11.554C9.17 11.58 9.797 11.651 10.376 11.762C10.296 11.942 10.214 12.114 10.125 12.274C9.659 13.11 9.095 13.629 8.513 13.82V11.554ZM4.667 11.984C4.779 12.254 4.9 12.514 5.034 12.756C5.14 12.946 5.256 13.122 5.377 13.292C4.83011 13.0247 4.3273 12.6753 3.886 12.256C4.13 12.157 4.387 12.064 4.666 11.983L4.667 11.984ZM11.357 12.001C11.634 12.083 11.888 12.177 12.129 12.276C11.694 12.686 11.197 13.03 10.652 13.296C10.9403 12.8952 11.1771 12.4598 11.357 12V12.001Z" fill="#474747"/>
</svg>
