<svg width="16" height="16" viewBox="0 0 16 16" fill="none" xmlns="http://www.w3.org/2000/svg">
<mask id="mask0_283_488" style="mask-type:alpha" maskUnits="userSpaceOnUse" x="1" y="1" width="14" height="14">
<path d="M1 5.1776C1 1.73735 1.73735 1 5.1776 1H10.8224C14.2627 1 15 1.73735 15 5.1776V10.8224C15 14.2627 14.2627 15 10.8224 15H5.1776C1.73735 15 1 14.2627 1 10.8224V5.1776Z" fill="url(#paint0_linear_283_488)"/>
</mask>
<g mask="url(#mask0_283_488)">
<rect x="0.666016" y="0.666748" width="14.6667" height="14.6667" rx="1.33333" fill="url(#paint1_linear_283_488)"/>
</g>
<path d="M7 1.33325L9 1.84607L7 2.87171L9 3.89735L7 4.923L9 5.94864L7 6.97428L9 7.99992L7 9.02556L9 10.0512L7 11.0768L9 12.1025L7 13.1281L9 14.1538L7 14.6666" stroke="#937A49" stroke-width="0.5" stroke-linecap="round" stroke-linejoin="round"/>
<path d="M6 3.33325L7 1.33325L8 3.33325H6Z" stroke="url(#paint2_linear_283_488)" stroke-width="0.4" stroke-linecap="round" stroke-linejoin="round"/>
<defs>
<linearGradient id="paint0_linear_283_488" x1="8" y1="15.6667" x2="8" y2="0.333333" gradientUnits="userSpaceOnUse">
<stop offset="0.112128" stop-color="white"/>
<stop offset="0.544425" stop-color="white"/>
<stop offset="0.835662" stop-color="white"/>
</linearGradient>
<linearGradient id="paint1_linear_283_488" x1="0.666015" y1="0.142939" x2="14.8089" y2="16.381" gradientUnits="userSpaceOnUse">
<stop offset="0.126759" stop-color="#FFAE36"/>
<stop offset="0.764336" stop-color="#FFA43A"/>
</linearGradient>
<linearGradient id="paint2_linear_283_488" x1="6.5" y1="1.33325" x2="7.17344" y2="3.43775" gradientUnits="userSpaceOnUse">
<stop stop-color="white"/>
<stop offset="1" stop-color="#C1C1C1"/>
</linearGradient>
</defs>
</svg>
