<svg width="16" height="16" viewBox="0 0 16 16" fill="none" xmlns="http://www.w3.org/2000/svg">
<circle cx="6.5" cy="6.5" r="4.5" fill="#98AFD2"/>
<path fill-rule="evenodd" clip-rule="evenodd" d="M6.42303 11.8461C9.41809 11.8461 11.8461 9.41809 11.8461 6.42303C11.8461 3.42797 9.41809 1 6.42303 1C3.42797 1 1 3.42797 1 6.42303C1 9.41809 3.42797 11.8461 6.42303 11.8461ZM6.42303 10.2966C8.56236 10.2966 10.2966 8.56236 10.2966 6.42303C10.2966 4.28371 8.56236 2.54944 6.42303 2.54944C4.28371 2.54944 2.54944 4.28371 2.54944 6.42303C2.54944 8.56236 4.28371 10.2966 6.42303 10.2966Z" fill="#2B2B2B"/>
<path d="M9.295 10.3907C8.99245 10.0881 8.99245 9.59762 9.295 9.29507C9.59755 8.99252 10.0881 8.99252 10.3906 9.29507L14.7731 13.6775C15.0756 13.9801 15.0756 14.4706 14.7731 14.7732C14.4705 15.0757 13.98 15.0757 13.6775 14.7732L9.295 10.3907Z" fill="#2B2B2B"/>
<circle cx="11.5" cy="11.5" r="3.5" fill="#E74848"/>
<rect x="13.25" y="11.0625" width="0.875" height="3.5" transform="rotate(90 13.25 11.0625)" fill="white"/>
</svg>
