<svg width="16" height="16" viewBox="0 0 16 16" fill="none" xmlns="http://www.w3.org/2000/svg">
<path d="M15 8C15 11.866 11.866 15 8 15C4.13401 15 1 11.866 1 8C1 4.13401 4.13401 1 8 1C11.866 1 15 4.13401 15 8Z" fill="#12D025"/>
<path fill-rule="evenodd" clip-rule="evenodd" d="M8 14.5C11.5899 14.5 14.5 11.5899 14.5 8C14.5 4.41015 11.5899 1.5 8 1.5C4.41015 1.5 1.5 4.41015 1.5 8C1.5 11.5899 4.41015 14.5 8 14.5ZM8 15C11.866 15 15 11.866 15 8C15 4.13401 11.866 1 8 1C4.13401 1 1 4.13401 1 8C1 11.866 4.13401 15 8 15Z" fill="#212121"/>
<path fill-rule="evenodd" clip-rule="evenodd" d="M6.85815 11.1038C6.85815 11.751 7.3828 12.2756 8.02998 12.2756C8.67717 12.2756 9.20181 11.751 9.20181 11.1038V9.17189H11.104C11.7512 9.17189 12.2758 8.64724 12.2758 8.00006C12.2758 7.35287 11.7512 6.82823 11.104 6.82823H9.20181V4.89626C9.20181 4.24907 8.67717 3.72443 8.02998 3.72443C7.3828 3.72443 6.85815 4.24907 6.85815 4.89626V6.82823H4.89644C4.24926 6.82823 3.72461 7.35287 3.72461 8.00006C3.72461 8.64724 4.24926 9.17189 4.89644 9.17189H6.85815V11.1038Z" fill="white"/>
<path fill-rule="evenodd" clip-rule="evenodd" d="M9.10181 9.07189H11.104C11.6959 9.07189 12.1758 8.59201 12.1758 8.00006C12.1758 7.4081 11.6959 6.92823 11.104 6.92823H9.10181V4.89626C9.10181 4.3043 8.62194 3.82443 8.02998 3.82443C7.43803 3.82443 6.95815 4.3043 6.95815 4.89626V6.92823H4.89644C4.30448 6.92823 3.82461 7.4081 3.82461 8.00006C3.82461 8.59201 4.30448 9.07189 4.89644 9.07189H6.95815V11.1038C6.95815 11.6957 7.43803 12.1756 8.02998 12.1756C8.62194 12.1756 9.10181 11.6957 9.10181 11.1038V9.07189ZM9.20181 9.17189H11.104C11.7512 9.17189 12.2758 8.64724 12.2758 8.00006C12.2758 7.35287 11.7512 6.82823 11.104 6.82823H9.20181V4.89626C9.20181 4.24907 8.67717 3.72443 8.02998 3.72443C7.3828 3.72443 6.85815 4.24907 6.85815 4.89626V6.82823H4.89644C4.24926 6.82823 3.72461 7.35287 3.72461 8.00006C3.72461 8.64724 4.24926 9.17189 4.89644 9.17189H6.85815V11.1038C6.85815 11.751 7.3828 12.2756 8.02998 12.2756C8.67717 12.2756 9.20181 11.751 9.20181 11.1038V9.17189Z" fill="#072E0B"/>
</svg>
