<svg width="16" height="16" viewBox="0 0 16 16" fill="none" xmlns="http://www.w3.org/2000/svg">
<path d="M3.5 13.2649C2.94772 13.2641 2.50064 12.8157 2.50143 12.2634L2.50229 11.6655L2.50343 10.8665L2.50686 8.46966L2.508 7.6707L2.51372 3.6759L2.51486 2.87694C2.51612 1.99808 3.08166 1.27983 3.77807 1.28082L12.6045 1.29345C13.3012 1.29445 13.8644 2.01432 13.8632 2.89317L13.862 3.69213L13.8563 7.68694L13.8518 10.8828L13.8498 12.2797C13.849 12.8319 13.4006 13.279 12.8483 13.2782L3.5 13.2649Z" fill="#EA9618"/>
<path d="M2.50342 11.9113L2.50518 10.5765L2.50606 9.90913L2.5087 7.90695L2.50958 7.23956L2.51399 3.90259L2.51487 3.23519C2.51584 2.50106 3.0747 1.90127 3.76316 1.90234L12.4888 1.91587C13.1775 1.91693 13.7346 2.51845 13.7336 3.25259L13.7327 3.91998L13.7283 7.25695L13.7248 9.92653L13.7222 11.9287L2.50342 11.9113Z" fill="#ECF0F1"/>
<path d="M2.50244 12.5867L2.50422 11.2357L2.50512 10.5602L2.50779 8.53375L2.50868 7.85826L2.51314 4.48077L2.51403 3.80528C2.51501 3.06223 3.07389 2.45515 3.76234 2.45622L12.488 2.46974C13.1767 2.47081 13.7337 3.07962 13.7328 3.82267L13.7319 4.49817L13.7274 7.87565L13.7239 10.5776L13.7212 12.6041L2.50244 12.5867Z" fill="#BDC3C7"/>
<path d="M2.50146 13.2623L2.50325 11.9113L2.50414 11.2358L2.50681 9.20935L2.50771 8.53385L2.51216 5.15637L2.51306 4.48087C2.51404 3.73783 3.07291 3.13075 3.76137 3.13181L12.487 3.14534C13.1758 3.14641 13.7328 3.75522 13.7318 4.49827L13.7309 5.17376L13.7264 8.55125L13.7229 11.2532L13.7202 13.2797L2.50146 13.2623Z" fill="#ECF0F1"/>
<path d="M3.71862 14.7071C3.0445 14.7061 2.49883 14.1561 2.49979 13.4847L2.50067 12.8745L2.50416 10.4333L2.5059 9.21274L2.50678 8.60246L2.5094 6.7716L2.51027 6.16131L2.51464 3.10988L2.51551 2.49959C2.51647 1.82828 3.06371 1.2798 3.73783 1.28077L4.9584 1.28251L4.95753 1.8928L4.0421 1.89149C3.53654 1.89077 3.12606 2.31738 3.12536 2.80561C3.12457 3.35487 3.53392 3.72162 4.03948 3.72235L11.6681 3.73326L12.2783 3.73413C12.9527 3.7351 13.4981 4.28514 13.4972 4.95645L13.4963 5.56674L13.4919 8.61817L13.4884 11.0593L13.4858 12.8902L13.485 13.5005C13.484 14.1718 12.937 14.7203 12.2626 14.7193L9.82148 14.7158L3.71862 14.7071Z" fill="#EA9618"/>
<path d="M5.55029 14.7097L5.56601 3.72456L6.17629 3.72543L11.6689 3.73329L12.2792 3.73416C12.9535 3.73513 13.4989 4.28517 13.498 4.95648L13.4971 5.56677L13.4927 8.6182L13.4893 11.0593L13.4866 12.8902L13.4858 13.5005C13.4848 14.1718 12.9378 14.7203 12.2634 14.7193L9.8223 14.7158L6.16058 14.7106L5.55029 14.7097Z" fill="#FFA724"/>
<path d="M4.767 7.69458L6.18121 6.99984L7.59527 7.69489L7.5957 3.71796L4.76743 3.71765L4.767 7.69458Z" fill="#CD3D3C"/>
<path d="M16 13C16 14.6569 14.6569 16 13 16C11.3431 16 10 14.6569 10 13C10 11.3431 11.3431 10 13 10C14.6569 10 16 11.3431 16 13Z" fill="#12D025"/>
<path fill-rule="evenodd" clip-rule="evenodd" d="M13 15.5C14.3807 15.5 15.5 14.3807 15.5 13C15.5 11.6193 14.3807 10.5 13 10.5C11.6193 10.5 10.5 11.6193 10.5 13C10.5 14.3807 11.6193 15.5 13 15.5ZM13 16C14.6569 16 16 14.6569 16 13C16 11.3431 14.6569 10 13 10C11.3431 10 10 11.3431 10 13C10 14.6569 11.3431 16 13 16Z" fill="#212121"/>
<path fill-rule="evenodd" clip-rule="evenodd" d="M12.5104 14.3302C12.5104 14.6075 12.7353 14.8324 13.0126 14.8324C13.29 14.8324 13.5149 14.6075 13.5149 14.3302V13.5022H14.3301C14.6074 13.5022 14.8323 13.2774 14.8323 13C14.8323 12.7227 14.6074 12.4978 14.3301 12.4978H13.5149V11.6698C13.5149 11.3925 13.29 11.1676 13.0126 11.1676C12.7353 11.1676 12.5104 11.3925 12.5104 11.6698V12.4978H11.6697C11.3923 12.4978 11.1675 12.7227 11.1675 13C11.1675 13.2774 11.3923 13.5022 11.6697 13.5022H12.5104V14.3302Z" fill="white"/>
<path fill-rule="evenodd" clip-rule="evenodd" d="M13.4149 13.4022H14.3301C14.5522 13.4022 14.7323 13.2222 14.7323 13C14.7323 12.7779 14.5522 12.5978 14.3301 12.5978H13.4149V11.6698C13.4149 11.4477 13.2348 11.2676 13.0126 11.2676C12.7905 11.2676 12.6104 11.4477 12.6104 11.6698V12.5978H11.6697C11.4476 12.5978 11.2675 12.7779 11.2675 13C11.2675 13.2222 11.4476 13.4022 11.6697 13.4022H12.6104V14.3302C12.6104 14.5523 12.7905 14.7324 13.0126 14.7324C13.2348 14.7324 13.4149 14.5523 13.4149 14.3302V13.4022ZM13.5149 14.3302C13.5149 14.6075 13.29 14.8324 13.0126 14.8324C12.7353 14.8324 12.5104 14.6075 12.5104 14.3302V13.5022H11.6697C11.3923 13.5022 11.1675 13.2774 11.1675 13C11.1675 12.7227 11.3923 12.4978 11.6697 12.4978H12.5104V11.6698C12.5104 11.3925 12.7353 11.1676 13.0126 11.1676C13.29 11.1676 13.5149 11.3925 13.5149 11.6698V12.4978H14.3301C14.6074 12.4978 14.8323 12.7227 14.8323 13C14.8323 13.2774 14.6074 13.5022 14.3301 13.5022H13.5149V14.3302Z" fill="#072E0B"/>
</svg>
