<svg width="16" height="16" viewBox="0 0 16 16" fill="none" xmlns="http://www.w3.org/2000/svg">
    <path fill-rule="evenodd" clip-rule="evenodd"
          d="M13.9005 6.12668C14.6007 5.37599 14.5598 4.19978 13.8091 3.49955C13.0584 2.79932 11.8823 2.84022 11.1821 3.59088L7.25854 7.79698L5.0946 5.8524C4.3327 5.1676 3.15997 5.23021 2.47526 5.99215C1.79054 6.75392 1.8531 7.92679 2.61502 8.61136L6.03226 11.6824C6.03697 11.6866 6.04153 11.6909 6.04625 11.6949C6.06629 11.7155 6.08697 11.7355 6.10815 11.7552C6.85868 12.4556 8.03497 12.4147 8.73518 11.664L13.9005 6.12668Z"
          fill="#28EA3C"/>
    <path d="M12.0023 7.36511C12.0418 7.26369 12.1081 7.1785 12.2014 7.10953C12.2982 7.03651 12.3969 7 12.4973 7C12.5942 7 12.691 7.03651 12.7879 7.10953C12.8883 7.1785 12.9564 7.26369 12.9923 7.36511L15.9516 15.1298C15.9839 15.211 16 15.2941 16 15.3793C16 15.5456 15.9462 15.6897 15.8386 15.8114C15.7346 15.929 15.609 15.9878 15.462 15.9878C15.3615 15.9878 15.2629 15.9513 15.166 15.8783C15.0692 15.8053 15.001 15.7181 14.9616 15.6166L14.0415 13.2008L10.9746 13.1521L10.0331 15.6227C9.99718 15.7241 9.93082 15.8114 9.83397 15.8844C9.73713 15.9615 9.63848 16 9.53805 16C9.39098 16 9.26364 15.9412 9.15603 15.8235C9.05201 15.7018 9 15.5578 9 15.3915C9 15.3063 9.01614 15.2231 9.04842 15.142L12.0023 7.36511ZM12.4973 9.14807L11.4374 11.9412L13.5734 11.9716L12.4973 9.14807Z"
          fill="#212121"/>
</svg>
