<svg width="16" height="16" viewBox="0 0 16 16" fill="none" xmlns="http://www.w3.org/2000/svg">
<path d="M15.875 2.03302H0.125V13.9673H15.875V2.03302Z" fill="#333333"/>
<path d="M15.875 2.0332H0.125V13.9675H15.875V2.0332Z" fill="#333333"/>
<path d="M15.75 2.15778V13.8423H0.25V2.15778H15.75ZM16 1.90778H0V14.0923H16V1.90778Z" fill="#AEAEAE"/>
<path d="M15.9012 3.96375H0.09375V4.21375H15.9012V3.96375Z" fill="#AEAEAE"/>
<path d="M14.3933 3.47205C14.6104 3.47205 14.7865 3.29598 14.7865 3.0788C14.7865 2.86161 14.6104 2.68555 14.3933 2.68555C14.1761 2.68555 14 2.86161 14 3.0788C14 3.29598 14.1761 3.47205 14.3933 3.47205Z" fill="#E04F5F"/>
<path d="M13.3932 3.47205C13.6104 3.47205 13.7865 3.29598 13.7865 3.0788C13.7865 2.86161 13.6104 2.68555 13.3932 2.68555C13.1761 2.68555 13 2.86161 13 3.0788C13 3.29598 13.1761 3.47205 13.3932 3.47205Z" fill="#25B6D2"/>
<path d="M12.3932 3.47205C12.6104 3.47205 12.7865 3.29598 12.7865 3.0788C12.7865 2.86161 12.6104 2.68555 12.3932 2.68555C12.1761 2.68555 12 2.86161 12 3.0788C12 3.29598 12.1761 3.47205 12.3932 3.47205Z" fill="#32BEA6"/>
<path d="M16 13C16 14.6569 14.6569 16 13 16C11.3431 16 10 14.6569 10 13C10 11.3431 11.3431 10 13 10C14.6569 10 16 11.3431 16 13Z" fill="#E23B3A"/>
<path fill-rule="evenodd" clip-rule="evenodd" d="M13 15.5C14.3807 15.5 15.5 14.3807 15.5 13C15.5 11.6193 14.3807 10.5 13 10.5C11.6193 10.5 10.5 11.6193 10.5 13C10.5 14.3807 11.6193 15.5 13 15.5ZM13 16C14.6569 16 16 14.6569 16 13C16 11.3431 14.6569 10 13 10C11.3431 10 10 11.3431 10 13C10 14.6569 11.3431 16 13 16Z" fill="#212121"/>
<path d="M11.1675 13C11.1675 12.7227 11.3923 12.4978 11.6697 12.4978H14.3301C14.6074 12.4978 14.8323 12.7227 14.8323 13V13C14.8323 13.2774 14.6074 13.5022 14.3301 13.5022H11.6697C11.3923 13.5022 11.1675 13.2774 11.1675 13V13Z" fill="white"/>
<path fill-rule="evenodd" clip-rule="evenodd" d="M14.3301 12.5978H11.6697C11.4476 12.5978 11.2675 12.7779 11.2675 13C11.2675 13.2222 11.4476 13.4022 11.6697 13.4022H14.3301C14.5522 13.4022 14.7323 13.2222 14.7323 13C14.7323 12.7779 14.5522 12.5978 14.3301 12.5978ZM11.6697 12.4978C11.3923 12.4978 11.1675 12.7227 11.1675 13C11.1675 13.2774 11.3923 13.5022 11.6697 13.5022H14.3301C14.6074 13.5022 14.8323 13.2774 14.8323 13C14.8323 12.7227 14.6074 12.4978 14.3301 12.4978H11.6697Z" fill="#072E0B"/>
</svg>
