<svg width="16" height="16" viewBox="0 0 16 16" fill="none" xmlns="http://www.w3.org/2000/svg">
<path d="M5.98633 7.38672H10.0134V11.4138H5.98633V7.38672Z" fill="#554646"/>
<path d="M13.4545 1H2.54546C2.24422 1 2 1.34824 2 1.77779V4.88889V8V11.1111V14.2222C2 14.6518 2.24422 15 2.54546 15H6.18182H9.81818H13.4545C13.7558 15 14 14.6518 14 14.2222V11.1111V8V4.88889V1.77779C14 1.34824 13.7557 1 13.4545 1ZM5.63635 12.6667C5.63636 13.0962 5.28813 13.4444 4.85858 13.4444H3.86866C3.43911 13.4444 3.09089 13.0962 3.09089 12.6667V12.6667C3.09089 12.2371 3.43911 11.8889 3.86866 11.8889H4.85858C5.28813 11.8889 5.63634 12.2371 5.63635 12.6667V12.6667ZM5.63635 9.55554C5.63636 9.9851 5.28813 10.3333 4.85858 10.3333H3.86866C3.43911 10.3333 3.09089 9.98511 3.09089 9.55556V9.55556C3.09089 9.12601 3.43911 8.77779 3.86866 8.77779H4.85858C5.28813 8.77779 5.63634 9.126 5.63635 9.55554V9.55554ZM5.63635 6.44444C5.63636 6.87399 5.28813 7.22222 4.85858 7.22222H3.86866C3.43911 7.22222 3.09089 6.874 3.09089 6.44445V6.44445C3.09089 6.0149 3.43911 5.66668 3.86866 5.66668H4.85858C5.28813 5.66668 5.63634 6.01489 5.63635 6.44444V6.44444ZM9.2727 12.6667C9.2727 13.0962 8.92448 13.4444 8.49493 13.4444H7.50502C7.07547 13.4444 6.72726 13.0962 6.72726 12.6667V12.6667C6.72726 12.2371 7.07547 11.8889 7.50502 11.8889H8.49493C8.92448 11.8889 9.2727 12.2371 9.2727 12.6667V12.6667ZM9.2727 9.55556C9.2727 9.98511 8.92448 10.3333 8.49493 10.3333H7.50502C7.07547 10.3333 6.72726 9.98511 6.72726 9.55556V9.55556C6.72726 9.12601 7.07547 8.77779 7.50502 8.77779H8.49493C8.92448 8.77779 9.2727 9.12601 9.2727 9.55556V9.55556ZM9.2727 6.44445C9.2727 6.874 8.92448 7.22222 8.49493 7.22222H7.50502C7.07547 7.22222 6.72726 6.874 6.72726 6.44445V6.44445C6.72726 6.0149 7.07547 5.66668 7.50502 5.66668H8.49493C8.92448 5.66668 9.2727 6.0149 9.2727 6.44445V6.44445ZM12.909 12.6667C12.9091 13.0962 12.5608 13.4444 12.1313 13.4444H11.1414C10.7118 13.4444 10.3636 13.0962 10.3636 12.6667V12.6667C10.3636 12.2371 10.7118 11.8889 11.1414 11.8889H12.1313C12.5608 11.8889 12.909 12.2371 12.909 12.6667V12.6667ZM12.909 9.55554C12.9091 9.9851 12.5608 10.3333 12.1313 10.3333H11.1414C10.7118 10.3333 10.3636 9.98511 10.3636 9.55556V9.55556C10.3636 9.12601 10.7118 8.77779 11.1414 8.77779H12.1313C12.5608 8.77779 12.909 9.126 12.909 9.55554V9.55554ZM12.909 6.44444C12.9091 6.87399 12.5608 7.22222 12.1313 7.22222H11.1414C10.7118 7.22222 10.3636 6.874 10.3636 6.44445V6.44445C10.3636 6.0149 10.7118 5.66668 11.1414 5.66668H12.1313C12.5608 5.66668 12.909 6.01489 12.909 6.44444V6.44444Z" fill="#554646"/>
<path d="M13.4545 1H2.54546C2.24422 1 2 1.29849 2 1.66667V4.33333C2 4.70151 2.24422 5 2.54546 5H3.09092H5.63637H6.72727H9.27273H10.3636H12.9091H13.4545C13.7558 5 14 4.70151 14 4.33333V1.66667C14 1.29849 13.7558 1 13.4545 1Z" fill="#CD3D3C"/>
<path d="M8.5471 4.5007L10.3214 6.17511C10.3906 6.28925 10.4309 6.41852 10.4389 6.55171C10.4468 6.68491 10.4221 6.818 10.367 6.93944C10.3118 7.06088 10.2278 7.16701 10.1223 7.2486C10.0168 7.33019 9.893 7.38478 9.76157 7.40764L8.83389 7.41315L8.82335 9.74417C8.82419 9.96079 8.73927 10.1689 8.58714 10.3229C8.43501 10.477 8.22804 10.5646 8.01143 10.5665C7.7948 10.5672 7.58665 10.4821 7.43243 10.3298C7.27821 10.1775 7.19045 9.97048 7.18832 9.75386L7.18727 7.42291L6.25959 7.42841C6.12786 7.40711 6.00328 7.35399 5.89668 7.27366C5.79007 7.19332 5.70466 7.08821 5.64785 6.96743C5.59103 6.84666 5.56454 6.71387 5.57066 6.58059C5.57679 6.44731 5.61535 6.31757 5.68299 6.20262L7.42229 4.50737C7.48281 4.41366 7.56572 4.33651 7.66354 4.28288C7.76136 4.22924 7.87102 4.20081 7.98261 4.20015C8.09421 4.19949 8.20425 4.22662 8.30279 4.27909C8.40134 4.33155 8.4853 4.40772 8.5471 4.5007Z" fill="#28EA3C"/>
<path fill-rule="evenodd" clip-rule="evenodd" d="M8.31624 4.69533L10.0825 6.36218C10.1156 6.42651 10.1351 6.49714 10.1394 6.56958C10.1444 6.65405 10.1288 6.73842 10.0938 6.81538C10.0589 6.89235 10.0057 6.95959 9.93881 7.01129C9.87782 7.05846 9.80713 7.0914 9.73193 7.10781L8.53524 7.11491L8.52336 9.74281L8.52336 9.74532C8.52389 9.88268 8.47004 10.0145 8.37366 10.1122C8.27748 10.2096 8.14666 10.2651 8.00963 10.2665C7.87258 10.2667 7.74087 10.2127 7.6432 10.1163C7.54561 10.02 7.48999 9.88907 7.48832 9.75215L7.48713 7.12113L6.28567 7.12825C6.21018 7.11272 6.13896 7.08059 6.07722 7.03407C6.00957 6.98308 5.95536 6.91637 5.91931 6.83974C5.88326 6.7631 5.86646 6.67887 5.87035 6.59436C5.87368 6.52177 5.89219 6.45087 5.9245 6.38615L7.65593 4.69857L7.6743 4.67013C7.70778 4.61829 7.75365 4.57561 7.80777 4.54593C7.86189 4.51626 7.92259 4.50051 7.98439 4.50015C8.0462 4.49978 8.10717 4.5148 8.1618 4.54389C8.21643 4.57298 8.26298 4.6152 8.29724 4.66675L8.31624 4.69533ZM5.68299 6.20262C5.61535 6.31757 5.57679 6.44731 5.57066 6.58059C5.56454 6.71387 5.59103 6.84666 5.64785 6.96743C5.70466 7.08821 5.79007 7.19332 5.89668 7.27366C6.00328 7.35399 6.12786 7.40711 6.25959 7.42841L7.18727 7.42291L7.18832 9.75386C7.19045 9.97048 7.27821 10.1775 7.43243 10.3298C7.58665 10.4821 7.7948 10.5672 8.01143 10.5665C8.22804 10.5646 8.43501 10.477 8.58714 10.3229C8.73927 10.1689 8.82419 9.96079 8.82335 9.74417L8.83389 7.41315L9.76157 7.40764C9.893 7.38478 10.0168 7.33019 10.1223 7.2486C10.2278 7.16701 10.3118 7.06088 10.367 6.93944C10.4221 6.818 10.4468 6.68491 10.4389 6.55171C10.4309 6.41852 10.3906 6.28925 10.3214 6.17511L8.5471 4.5007C8.4853 4.40772 8.40134 4.33155 8.30279 4.27909C8.20425 4.22662 8.09421 4.19949 7.98261 4.20015C7.87102 4.20081 7.76136 4.22924 7.66354 4.28288C7.56572 4.33651 7.48281 4.41366 7.42229 4.50737L5.68299 6.20262Z" fill="#050505"/>
<path d="M5.84961 12.0138C5.84961 11.6824 6.11824 11.4138 6.44961 11.4138H9.5778C9.90917 11.4138 10.1778 11.6824 10.1778 12.0138V14.377C10.1778 14.7083 9.90917 14.977 9.5778 14.977H6.44961C6.11824 14.977 5.84961 14.7083 5.84961 14.377V12.0138Z" fill="#28EA3C"/>
<path fill-rule="evenodd" clip-rule="evenodd" d="M9.5778 11.7138H6.44961C6.28392 11.7138 6.14961 11.8481 6.14961 12.0138V14.377C6.14961 14.5426 6.28392 14.677 6.44961 14.677H9.5778C9.74348 14.677 9.8778 14.5426 9.8778 14.377V12.0138C9.8778 11.8481 9.74348 11.7138 9.5778 11.7138ZM6.44961 11.4138C6.11824 11.4138 5.84961 11.6824 5.84961 12.0138V14.377C5.84961 14.7083 6.11824 14.977 6.44961 14.977H9.5778C9.90917 14.977 10.1778 14.7083 10.1778 14.377V12.0138C10.1778 11.6824 9.90917 11.4138 9.5778 11.4138H6.44961Z" fill="black"/>
</svg>
