<svg width="16" height="16" viewBox="0 0 16 16" fill="none" xmlns="http://www.w3.org/2000/svg">
<path d="M5.98633 5H10.0134V13.8418H5.98633V5Z" fill="#554646"/>
<path d="M13.4545 1H2.54546C2.24422 1 2 1.34824 2 1.77779V4.88889V8V11.1111V14.2222C2 14.6518 2.24422 15 2.54546 15H6.18182H9.81818H13.4545C13.7558 15 14 14.6518 14 14.2222V11.1111V8V4.88889V1.77779C14 1.34824 13.7557 1 13.4545 1ZM5.63635 12.6667C5.63636 13.0962 5.28813 13.4444 4.85858 13.4444H3.86866C3.43911 13.4444 3.09089 13.0962 3.09089 12.6667V12.6667C3.09089 12.2371 3.43911 11.8889 3.86866 11.8889H4.85858C5.28813 11.8889 5.63634 12.2371 5.63635 12.6667V12.6667ZM5.63635 9.55554C5.63636 9.9851 5.28813 10.3333 4.85858 10.3333H3.86866C3.43911 10.3333 3.09089 9.9851 3.09089 9.55555V9.55555C3.09089 9.12601 3.43911 8.77779 3.86866 8.77779H4.85858C5.28813 8.77779 5.63634 9.126 5.63635 9.55554V9.55554ZM5.63635 6.44444C5.63636 6.87399 5.28813 7.22222 4.85858 7.22222H3.86866C3.43911 7.22222 3.09089 6.874 3.09089 6.44445V6.44445C3.09089 6.0149 3.43911 5.66668 3.86866 5.66668H4.85858C5.28813 5.66668 5.63634 6.01489 5.63635 6.44444V6.44444ZM9.2727 12.6667C9.2727 13.0962 8.92448 13.4444 8.49493 13.4444H7.50502C7.07547 13.4444 6.72726 13.0962 6.72726 12.6667V12.6667C6.72726 12.2371 7.07547 11.8889 7.50502 11.8889H8.49493C8.92448 11.8889 9.2727 12.2371 9.2727 12.6667V12.6667ZM9.2727 9.55555C9.2727 9.9851 8.92448 10.3333 8.49493 10.3333H7.50502C7.07547 10.3333 6.72726 9.9851 6.72726 9.55555V9.55555C6.72726 9.12601 7.07547 8.77779 7.50502 8.77779H8.49493C8.92448 8.77779 9.2727 9.12601 9.2727 9.55555V9.55555ZM9.2727 6.44445C9.2727 6.874 8.92448 7.22222 8.49493 7.22222H7.50502C7.07547 7.22222 6.72726 6.874 6.72726 6.44445V6.44445C6.72726 6.0149 7.07547 5.66668 7.50502 5.66668H8.49493C8.92448 5.66668 9.2727 6.0149 9.2727 6.44445V6.44445ZM12.909 12.6667C12.9091 13.0962 12.5608 13.4444 12.1313 13.4444H11.1414C10.7118 13.4444 10.3636 13.0962 10.3636 12.6667V12.6667C10.3636 12.2371 10.7118 11.8889 11.1414 11.8889H12.1313C12.5608 11.8889 12.909 12.2371 12.909 12.6667V12.6667ZM12.909 9.55554C12.9091 9.9851 12.5608 10.3333 12.1313 10.3333H11.1414C10.7118 10.3333 10.3636 9.9851 10.3636 9.55555V9.55555C10.3636 9.12601 10.7118 8.77779 11.1414 8.77779H12.1313C12.5608 8.77779 12.909 9.126 12.909 9.55554V9.55554ZM12.909 6.44444C12.9091 6.87399 12.5608 7.22222 12.1313 7.22222H11.1414C10.7118 7.22222 10.3636 6.874 10.3636 6.44445V6.44445C10.3636 6.0149 10.7118 5.66668 11.1414 5.66668H12.1313C12.5608 5.66668 12.909 6.01489 12.909 6.44444V6.44444Z" fill="#554646"/>
<path d="M13.4545 1H2.54546C2.24422 1 2 1.29849 2 1.66667V4.33333C2 4.70151 2.24422 5 2.54546 5H3.09092H5.63637H6.72727H9.27273H10.3636H12.9091H13.4545C13.7558 5 14 4.70151 14 4.33333V1.66667C14 1.29849 13.7558 1 13.4545 1Z" fill="#CD3D3C"/>
<path d="M8.53342 15.369L10.3077 13.6946C10.3769 13.5804 10.4172 13.4512 10.4252 13.318C10.4331 13.1848 10.4085 13.0517 10.3533 12.9302C10.2981 12.8088 10.2142 12.7027 10.1087 12.6211C10.0032 12.5395 9.87933 12.4849 9.7479 12.462L8.82022 12.4565L8.80968 10.1255C8.81052 9.9089 8.7256 9.70083 8.57347 9.54675C8.42134 9.39266 8.21437 9.30509 7.99775 9.30317C7.78113 9.30253 7.57298 9.38763 7.41876 9.5399C7.26453 9.69216 7.17678 9.89921 7.17465 10.1158L7.1736 12.4468L6.24592 12.4413C6.11419 12.4626 5.98961 12.5157 5.88301 12.596C5.7764 12.6764 5.69099 12.7815 5.63417 12.9023C5.57736 13.023 5.55087 13.1558 5.55699 13.2891C5.56312 13.4224 5.60167 13.5521 5.66932 13.6671L7.40862 15.3623C7.46914 15.456 7.55205 15.5332 7.64987 15.5868C7.74769 15.6404 7.85734 15.6689 7.96894 15.6695C8.08054 15.6702 8.19058 15.6431 8.28912 15.5906C8.38767 15.5381 8.47163 15.462 8.53342 15.369Z" fill="#FF5353"/>
<path fill-rule="evenodd" clip-rule="evenodd" d="M8.30256 15.1744L10.0688 13.5075C10.102 13.4432 10.1214 13.3726 10.1257 13.3001C10.1308 13.2156 10.1151 13.1313 10.0801 13.0543C10.0452 12.9773 9.99198 12.9101 9.92514 12.8584C9.86414 12.8112 9.79346 12.7783 9.71826 12.7619L8.52157 12.7548L8.50968 10.1269L8.50968 10.1244C8.51021 9.98701 8.45637 9.85514 8.35999 9.75752C8.26381 9.6601 8.13299 9.60461 7.99595 9.60316C7.85891 9.603 7.7272 9.65695 7.62953 9.75338C7.53194 9.84973 7.47632 9.98062 7.47465 10.1175L7.47346 12.7486L6.27199 12.7414C6.19651 12.757 6.12529 12.7891 6.06355 12.8356C5.99589 12.8866 5.94169 12.9533 5.90564 13.03C5.86959 13.1066 5.85279 13.1908 5.85668 13.2753C5.86001 13.3479 5.87852 13.4188 5.91083 13.4835L7.64226 15.1711L7.66063 15.1996C7.69411 15.2514 7.73998 15.2941 7.7941 15.3238C7.84822 15.3534 7.90892 15.3692 7.97072 15.3695C8.03253 15.3699 8.0935 15.3549 8.14813 15.3258C8.20276 15.2967 8.24931 15.2545 8.28357 15.2029L8.30256 15.1744ZM5.66932 13.6671C5.60167 13.5521 5.56312 13.4224 5.55699 13.2891C5.55087 13.1558 5.57736 13.023 5.63417 12.9023C5.69099 12.7815 5.7764 12.6764 5.88301 12.596C5.98961 12.5157 6.11419 12.4626 6.24592 12.4413L7.1736 12.4468L7.17465 10.1158C7.17678 9.89921 7.26453 9.69216 7.41876 9.5399C7.57298 9.38763 7.78113 9.30253 7.99775 9.30317C8.21437 9.30509 8.42134 9.39266 8.57347 9.54675C8.7256 9.70083 8.81052 9.9089 8.80968 10.1255L8.82022 12.4565L9.7479 12.462C9.87933 12.4849 10.0032 12.5395 10.1087 12.6211C10.2142 12.7027 10.2981 12.8088 10.3533 12.9302C10.4085 13.0517 10.4331 13.1848 10.4252 13.318C10.4172 13.4512 10.3769 13.5804 10.3077 13.6946L8.53342 15.369C8.47163 15.462 8.38767 15.5381 8.28912 15.5906C8.19058 15.6431 8.08054 15.6702 7.96894 15.6695C7.85734 15.6689 7.74769 15.6404 7.64987 15.5868C7.55205 15.5332 7.46914 15.456 7.40862 15.3623L5.66932 13.6671Z" fill="black"/>
<path d="M5.83594 8.36594C5.83594 8.69731 6.10457 8.96594 6.43594 8.96594H9.56412C9.89549 8.96594 10.1641 8.69731 10.1641 8.36594V6.00594C10.1641 5.67457 9.89549 5.40594 9.56412 5.40594H6.43594C6.10457 5.40594 5.83594 5.67457 5.83594 6.00594V8.36594Z" fill="#FF5353"/>
<path fill-rule="evenodd" clip-rule="evenodd" d="M9.56412 8.66594H6.43594C6.27025 8.66594 6.13594 8.53163 6.13594 8.36594V6.00594C6.13594 5.84026 6.27025 5.70594 6.43594 5.70594H9.56412C9.72981 5.70594 9.86412 5.84026 9.86412 6.00594V8.36594C9.86412 8.53163 9.72981 8.66594 9.56412 8.66594ZM6.43594 8.96594C6.10457 8.96594 5.83594 8.69731 5.83594 8.36594V6.00594C5.83594 5.67457 6.10457 5.40594 6.43594 5.40594H9.56412C9.89549 5.40594 10.1641 5.67457 10.1641 6.00594V8.36594C10.1641 8.69731 9.89549 8.96594 9.56412 8.96594H6.43594Z" fill="black"/>
</svg>
