<svg width="17" height="16" viewBox="0 0 17 16" fill="none" xmlns="http://www.w3.org/2000/svg">
<g clip-path="url(#clip0_312_2809)">
<path fill-rule="evenodd" clip-rule="evenodd" d="M1.46638 10.3975C1.79157 10.7574 2.66397 11.1965 3.73024 11.327C5.2968 11.5195 6.78019 11.1582 7.78517 10.437L7.78955 9.12121C7.14979 9.51675 5.97221 9.78176 4.62452 9.78176C3.28247 9.78176 2.10864 9.51807 1.46825 9.12583C1.46741 9.54949 1.46679 9.97315 1.46638 10.3968V10.3975ZM7.02757 10.3213C7.06919 10.3643 7.12528 10.3881 7.18356 10.3876H7.18418C7.30676 10.3876 7.40682 10.2854 7.40682 10.1582C7.40682 10.0316 7.30676 9.92943 7.18418 9.92943C7.06161 9.92943 6.96155 10.0316 6.96155 10.1582C6.96221 10.2196 6.98595 10.2783 7.02757 10.3213Z" fill="#DD726D"/>
<path fill-rule="evenodd" clip-rule="evenodd" d="M1.46638 11.1226V12.2835C1.79095 12.6441 2.66397 13.0832 3.73024 13.2144C5.29367 13.4062 6.77394 13.0463 7.77892 12.3284L7.78267 11.1417C6.71203 11.8056 5.20487 12.0844 3.68083 11.8966C2.73756 11.7813 1.93425 11.481 1.46638 11.1226ZM7.02757 12.2086C7.06919 12.2516 7.12528 12.2755 7.18356 12.275H7.18418C7.30676 12.275 7.40682 12.1721 7.40682 12.0456C7.40682 11.919 7.30676 11.8161 7.18418 11.8161C7.06161 11.8161 6.96155 11.919 6.96155 12.0456C6.96221 12.107 6.98595 12.1656 7.02757 12.2086Z" fill="#CD3D3C"/>
<path fill-rule="evenodd" clip-rule="evenodd" d="M1.46763 13.01L1.47003 13.947C1.68883 14.6002 2.90134 15.1202 4.69394 15.1202C5.68516 15.1202 6.46188 14.962 7.05911 14.6508C7.22671 14.5632 7.35429 14.4893 7.47936 14.3931C7.4919 14.3834 7.50378 14.3744 7.51523 14.3656C7.57973 14.3164 7.63042 14.2777 7.70637 14.2072C7.73206 14.1833 7.7564 14.1598 7.77949 14.1373L7.77579 13.0324C6.7064 13.6923 5.20174 13.9705 3.68083 13.7839C2.73881 13.668 1.9355 13.3684 1.46763 13.01ZM7.09917 14.1698C7.12598 14.1812 7.15465 14.187 7.18356 14.1867L7.18418 14.1861C7.30676 14.1861 7.40682 14.0832 7.40682 13.9567C7.40682 13.8301 7.30676 13.7272 7.18418 13.7272C7.06161 13.7272 6.96155 13.8301 6.96155 13.9567C6.9618 13.9871 6.96773 14.0173 6.97902 14.0453C6.99031 14.0734 7.00673 14.0988 7.02735 14.1202C7.04797 14.1415 7.07237 14.1584 7.09917 14.1698Z" fill="#C62D25"/>
<path d="M6.879 8.90301C7.14479 8.80544 7.34928 8.69469 7.47686 8.5846C7.56441 8.50945 7.59193 8.46 7.59193 8.44023C7.59193 8.42045 7.56441 8.37101 7.47686 8.2952C7.34928 8.18576 7.14541 8.07501 6.879 7.97745C6.29615 7.76452 5.48942 7.63992 4.62452 7.63992C3.75963 7.63992 2.9529 7.76518 2.37005 7.97745C2.10426 8.07501 1.89976 8.18576 1.77219 8.29586C1.68463 8.37101 1.65712 8.41979 1.65712 8.44023C1.65712 8.46 1.68463 8.50945 1.77219 8.58526C1.89976 8.69469 2.10364 8.80544 2.37005 8.90301C2.9529 9.11594 3.75963 9.24053 4.62452 9.24053C5.48942 9.24053 6.29615 9.11528 6.879 8.90301Z" fill="#E54141"/>
<path fill-rule="evenodd" clip-rule="evenodd" d="M7.47686 8.5846C7.34928 8.69469 7.14479 8.80544 6.879 8.90301C6.29615 9.11528 5.48942 9.24053 4.62452 9.24053C3.75963 9.24053 2.9529 9.11594 2.37005 8.90301C2.10364 8.80544 1.89976 8.69469 1.77219 8.58526C1.68463 8.50945 1.65712 8.46 1.65712 8.44023C1.65712 8.41979 1.68463 8.37101 1.77219 8.29586C1.89976 8.18576 2.10426 8.07501 2.37005 7.97745C2.9529 7.76518 3.75963 7.63992 4.62452 7.63992C5.48942 7.63992 6.29615 7.76452 6.879 7.97745C7.14541 8.07501 7.34928 8.18576 7.47686 8.2952C7.56441 8.37101 7.59193 8.42045 7.59193 8.44023C7.59193 8.46 7.56441 8.50945 7.47686 8.5846ZM1.46638 11.1226V12.2835C1.79095 12.6441 2.66397 13.0832 3.73024 13.2144C5.29367 13.4062 6.77394 13.0463 7.77892 12.3284L7.78267 11.1417C6.71203 11.8056 5.20487 12.0844 3.68083 11.8966C2.73756 11.7813 1.93425 11.481 1.46638 11.1226ZM3.73024 11.327C2.66397 11.1965 1.79157 10.7574 1.46638 10.3975V10.3968C1.46679 9.97315 1.46741 9.54949 1.46825 9.12583C2.10864 9.51807 3.28247 9.78176 4.62452 9.78176C5.97221 9.78176 7.14979 9.51675 7.78955 9.12121L7.78517 10.437C6.78019 11.1582 5.2968 11.5195 3.73024 11.327ZM1.46763 13.01L1.47003 13.947C1.68883 14.6002 2.90134 15.1202 4.69394 15.1202C5.68516 15.1202 6.46188 14.962 7.05911 14.6508C7.22671 14.5632 7.35429 14.4893 7.47936 14.3931C7.4919 14.3834 7.50378 14.3744 7.51523 14.3656C7.57973 14.3164 7.63042 14.2777 7.70637 14.2072C7.73206 14.1833 7.7564 14.1598 7.77949 14.1373L7.77954 14.1536C7.77923 14.2192 7.77923 14.2192 7.80514 14.2377C7.83105 14.2563 7.88288 14.2933 7.98622 14.4329C8.1263 14.4336 8.25982 14.4329 8.25982 14.4329C8.25982 14.4329 7.8771 14.7161 7.77954 14.7912C7.63383 14.9033 7.4681 15.02 7.27674 15.1202C6.61759 15.4637 5.94594 15.6687 4.69394 15.6687C2.60831 15.6687 1.22936 14.9732 0.965453 14.0536L0.956072 14.0206V13.9863L0.95232 12.5947C0.950826 11.2257 0.951869 9.85669 0.955447 8.48769C0.953861 8.47192 0.953027 8.45608 0.952945 8.44023C0.953571 7.69925 2.59706 7.09869 4.62452 7.09869C6.65199 7.09869 8.29548 7.69925 8.29548 8.44023C8.29567 8.46917 8.29337 8.49808 8.2886 8.52659C8.29461 8.5473 8.29757 8.56887 8.29735 8.59053L8.25982 14.4329C7.98622 14.1445 8.10805 13.9567 8.10805 13.9567C8.04219 13.8783 7.95336 13.9659 7.81829 14.0991C7.80576 14.1115 7.79283 14.1242 7.77949 14.1373L7.77579 13.0324C6.7064 13.6923 5.20174 13.9705 3.68083 13.7839C2.73881 13.668 1.9355 13.3684 1.46763 13.01ZM7.02757 10.3213C7.06919 10.3643 7.12528 10.3881 7.18356 10.3876H7.18418C7.30676 10.3876 7.40682 10.2854 7.40682 10.1582C7.40682 10.0316 7.30676 9.92943 7.18418 9.92943C7.06161 9.92943 6.96155 10.0316 6.96155 10.1582C6.96221 10.2196 6.98595 10.2783 7.02757 10.3213ZM7.02757 12.2086C7.06919 12.2516 7.12528 12.2755 7.18356 12.275H7.18418C7.30676 12.275 7.40682 12.1721 7.40682 12.0456C7.40682 11.919 7.30676 11.8161 7.18418 11.8161C7.06161 11.8161 6.96155 11.919 6.96155 12.0456C6.96221 12.107 6.98595 12.1656 7.02757 12.2086ZM7.09917 14.1698C7.12598 14.1812 7.15465 14.187 7.18356 14.1867L7.18418 14.1861C7.30676 14.1861 7.40682 14.0832 7.40682 13.9567C7.40682 13.8301 7.30676 13.7272 7.18418 13.7272C7.06161 13.7272 6.96155 13.8301 6.96155 13.9567C6.9618 13.9871 6.96773 14.0173 6.97902 14.0453C6.99031 14.0734 7.00673 14.0988 7.02735 14.1202C7.04797 14.1415 7.07237 14.1584 7.09917 14.1698Z" fill="#212121"/>
<path d="M8.25982 14.4329C7.98622 14.1445 8.10805 13.9567 8.10805 13.9567C8.04219 13.8783 7.95336 13.9659 7.81829 14.0991L7.77949 14.1373L7.77954 14.1536C7.77923 14.2192 7.77923 14.2192 7.80514 14.2377C7.83105 14.2563 7.88288 14.2933 7.98622 14.4329C8.1263 14.4336 8.25982 14.4329 8.25982 14.4329Z" fill="#212121"/>
<path fill-rule="evenodd" clip-rule="evenodd" d="M8.81208 3.47267C9.13728 3.83261 10.0097 4.27166 11.0759 4.40219C12.6425 4.59468 14.1259 4.23343 15.1309 3.51223L15.1353 2.19641C14.4955 2.59194 13.3179 2.85695 11.9702 2.85695C10.6282 2.85695 9.45434 2.59326 8.81396 2.20102C8.81312 2.62469 8.81249 3.04835 8.81208 3.47202V3.47267ZM14.3733 3.39646C14.4149 3.43946 14.471 3.46331 14.5293 3.46279H14.5299C14.6525 3.46279 14.7525 3.36061 14.7525 3.23337C14.7525 3.1068 14.6525 3.00462 14.5299 3.00462C14.4073 3.00462 14.3073 3.1068 14.3073 3.23337C14.3079 3.2948 14.3317 3.35345 14.3733 3.39646Z" fill="#DD726D"/>
<path fill-rule="evenodd" clip-rule="evenodd" d="M8.81208 4.19783V5.35873C9.13665 5.71933 10.0097 6.15838 11.0759 6.28956C12.6394 6.4814 14.1196 6.12146 15.1246 5.40356L15.1284 4.21695C14.0577 4.88079 12.5506 5.15964 11.0265 4.97176C10.0833 4.85645 9.27995 4.55624 8.81208 4.19783ZM14.3733 5.28383C14.4149 5.32684 14.471 5.35069 14.5293 5.35016H14.5299C14.6525 5.35016 14.7525 5.24732 14.7525 5.12075C14.7525 4.99418 14.6525 4.89134 14.5299 4.89134C14.4073 4.89134 14.3073 4.99418 14.3073 5.12075C14.3079 5.18218 14.3317 5.24083 14.3733 5.28383Z" fill="#CD3D3C"/>
<path fill-rule="evenodd" clip-rule="evenodd" d="M8.81333 6.0852L8.81574 7.02217C9.03453 7.67537 10.247 8.1954 12.0396 8.1954C13.0309 8.1954 13.8076 8.03718 14.4048 7.72603C14.5724 7.63835 14.7 7.56451 14.8251 7.46827C14.8376 7.45863 14.8495 7.44956 14.8609 7.44082C14.9254 7.39159 14.9761 7.35291 15.0521 7.28236C15.0778 7.25851 15.1021 7.23504 15.1252 7.21247L15.1215 6.10762C14.0521 6.76751 12.5474 7.0457 11.0265 6.85914C10.0845 6.74317 9.2812 6.44361 8.81333 6.0852ZM14.4449 7.24502C14.4717 7.25644 14.5004 7.26219 14.5293 7.26193L14.5299 7.26127C14.6525 7.26127 14.7525 7.15843 14.7525 7.03186C14.7525 6.90528 14.6525 6.80244 14.5299 6.80244C14.4073 6.80244 14.3073 6.90528 14.3073 7.03186C14.3075 7.06233 14.3134 7.09245 14.3247 7.12051C14.336 7.14856 14.3524 7.174 14.3731 7.19536C14.3937 7.21673 14.4181 7.2336 14.4449 7.24502Z" fill="#C62D25"/>
<path d="M14.2247 1.9782C14.4905 1.88063 14.695 1.76988 14.8226 1.65979C14.9101 1.58464 14.9376 1.5352 14.9376 1.51542C14.9376 1.49564 14.9101 1.4462 14.8226 1.37039C14.695 1.26096 14.4911 1.15021 14.2247 1.05264C13.6419 0.839711 12.8351 0.715117 11.9702 0.715117C11.1053 0.715117 10.2986 0.84037 9.71575 1.05264C9.44996 1.15021 9.24547 1.26096 9.11789 1.37105C9.03034 1.4462 9.00282 1.49499 9.00282 1.51542C9.00282 1.5352 9.03034 1.58464 9.11789 1.66045C9.24547 1.76988 9.44934 1.88063 9.71575 1.9782C10.2986 2.19113 11.1053 2.31573 11.9702 2.31573C12.8351 2.31573 13.6419 2.19047 14.2247 1.9782Z" fill="#E54141"/>
<path fill-rule="evenodd" clip-rule="evenodd" d="M14.8226 1.65979C14.695 1.76988 14.4905 1.88063 14.2247 1.9782C13.6419 2.19047 12.8351 2.31573 11.9702 2.31573C11.1053 2.31573 10.2986 2.19113 9.71575 1.9782C9.44934 1.88063 9.24547 1.76988 9.11789 1.66045C9.03034 1.58464 9.00282 1.5352 9.00282 1.51542C9.00282 1.49499 9.03034 1.4462 9.11789 1.37105C9.24547 1.26096 9.44996 1.15021 9.71575 1.05264C10.2986 0.84037 11.1053 0.715117 11.9702 0.715117C12.8351 0.715117 13.6419 0.839711 14.2247 1.05264C14.4911 1.15021 14.695 1.26096 14.8226 1.37039C14.9101 1.4462 14.9376 1.49564 14.9376 1.51542C14.9376 1.5352 14.9101 1.58464 14.8226 1.65979ZM8.81208 4.19783V5.35873C9.13665 5.71933 10.0097 6.15838 11.0759 6.28956C12.6394 6.4814 14.1196 6.12146 15.1246 5.40356L15.1284 4.21695C14.0577 4.88079 12.5506 5.15964 11.0265 4.97176C10.0833 4.85645 9.27995 4.55624 8.81208 4.19783ZM11.0759 4.40219C10.0097 4.27166 9.13728 3.83261 8.81208 3.47267V3.47202C8.81249 3.04835 8.81312 2.62469 8.81396 2.20102C9.45434 2.59326 10.6282 2.85695 11.9702 2.85695C13.3179 2.85695 14.4955 2.59194 15.1353 2.19641L15.1309 3.51223C14.1259 4.23343 12.6425 4.59468 11.0759 4.40219ZM8.81333 6.0852L8.81574 7.02217C9.03453 7.67537 10.247 8.1954 12.0396 8.1954C13.0309 8.1954 13.8076 8.03718 14.4048 7.72603C14.5724 7.63835 14.7 7.56451 14.8251 7.46827C14.8376 7.45863 14.8495 7.44956 14.8609 7.44082C14.9254 7.39159 14.9761 7.35291 15.0521 7.28236C15.0778 7.25851 15.1021 7.23504 15.1252 7.21247L15.1252 7.22882C15.1249 7.29441 15.1249 7.29441 15.1508 7.31293C15.1768 7.33145 15.2286 7.36848 15.3319 7.50814C15.472 7.5088 15.6055 7.50814 15.6055 7.50814C15.6055 7.50814 15.2228 7.79129 15.1252 7.86644C14.9795 7.97851 14.8138 8.09519 14.6224 8.1954C13.9633 8.53886 13.2916 8.74388 12.0396 8.74388C9.95402 8.74388 8.57506 8.04839 8.31116 7.12876L8.30178 7.0958V7.06152L8.29802 5.66989C8.29653 4.30089 8.29757 2.93188 8.30115 1.56289C8.29956 1.54712 8.29873 1.53128 8.29865 1.51542C8.29927 0.774447 9.94276 0.173889 11.9702 0.173889C13.9977 0.173889 15.6412 0.774447 15.6412 1.51542C15.6414 1.54437 15.6391 1.57327 15.6343 1.60178C15.6403 1.6225 15.6433 1.64406 15.6431 1.66573L15.6055 7.50814C15.3319 7.21973 15.4538 7.03186 15.4538 7.03186C15.3879 6.95348 15.2991 7.04109 15.164 7.17431C15.1515 7.18667 15.1385 7.19942 15.1252 7.21247L15.1215 6.10762C14.0521 6.76751 12.5474 7.0457 11.0265 6.85914C10.0845 6.74317 9.2812 6.44361 8.81333 6.0852ZM14.3733 3.39646C14.4149 3.43946 14.471 3.46331 14.5293 3.46279H14.5299C14.6525 3.46279 14.7525 3.36061 14.7525 3.23337C14.7525 3.1068 14.6525 3.00462 14.5299 3.00462C14.4073 3.00462 14.3073 3.1068 14.3073 3.23337C14.3079 3.2948 14.3317 3.35345 14.3733 3.39646ZM14.3733 5.28383C14.4149 5.32684 14.471 5.35069 14.5293 5.35016H14.5299C14.6525 5.35016 14.7525 5.24732 14.7525 5.12075C14.7525 4.99418 14.6525 4.89134 14.5299 4.89134C14.4073 4.89134 14.3073 4.99418 14.3073 5.12075C14.3079 5.18218 14.3317 5.24083 14.3733 5.28383ZM14.4449 7.24502C14.4717 7.25644 14.5004 7.26219 14.5293 7.26193L14.5299 7.26127C14.6525 7.26127 14.7525 7.15843 14.7525 7.03186C14.7525 6.90528 14.6525 6.80244 14.5299 6.80244C14.4073 6.80244 14.3073 6.90528 14.3073 7.03186C14.3075 7.06233 14.3134 7.09245 14.3247 7.12051C14.336 7.14856 14.3524 7.174 14.3731 7.19536C14.3937 7.21673 14.4181 7.2336 14.4449 7.24502Z" fill="#212121"/>
<path d="M15.6055 7.50814C15.3319 7.21973 15.4538 7.03186 15.4538 7.03186C15.3879 6.95348 15.2991 7.04109 15.164 7.17431L15.1252 7.21247L15.1252 7.22882C15.1249 7.29441 15.1249 7.29441 15.1508 7.31293C15.1768 7.33145 15.2286 7.36848 15.3319 7.50814C15.472 7.5088 15.6055 7.50814 15.6055 7.50814Z" fill="#212121"/>
<path fill-rule="evenodd" clip-rule="evenodd" d="M3.24704 7.95703C3.32744 8.08972 3.50423 8.11727 3.60133 8.01224L6.71569 4.64345C6.83624 4.51305 6.7468 4.2856 6.56375 4.25708L4.83795 3.98815C4.8635 3.91382 4.892 3.8403 4.92343 3.7677C5.11505 3.32508 5.41175 2.92547 5.79659 2.5917C6.18143 2.25793 6.64686 1.99652 7.16633 1.82241C7.29576 1.77903 7.39468 1.74099 7.47917 1.70849C7.61215 1.65735 7.70934 1.61996 7.83339 1.59721C8.0773 1.55248 8.27083 1.36491 8.24887 1.11322L8.19693 0.517876C8.1757 0.274469 7.96345 0.0727065 7.7209 0.0811292C7.2257 0.098324 6.95837 0.181399 6.37201 0.37793C5.63447 0.625131 4.97364 0.996275 4.42724 1.47017C3.88085 1.94406 3.45959 2.51142 3.18753 3.13986C3.10833 3.32279 3.04223 3.50985 2.98939 3.70009L0.870696 3.36994C0.687648 3.34142 0.568532 3.53636 0.66835 3.7011L3.24704 7.95703Z" fill="#28EA3C"/>
<path fill-rule="evenodd" clip-rule="evenodd" d="M7.16633 1.82241C7.29575 1.77904 7.39467 1.74099 7.47915 1.7085C7.61213 1.65735 7.70934 1.61996 7.83339 1.59721C8.0773 1.55248 8.27083 1.36491 8.24887 1.11322L8.19693 0.517876C8.1757 0.274469 7.96345 0.0727065 7.7209 0.0811292C7.2257 0.098324 6.95837 0.181399 6.37201 0.37793C5.63447 0.625131 4.97364 0.996275 4.42724 1.47017C3.88085 1.94406 3.45959 2.51142 3.18753 3.13986C3.10833 3.32279 3.04223 3.50985 2.98939 3.70009L0.870696 3.36994C0.687648 3.34142 0.568532 3.53636 0.66835 3.7011L3.24704 7.95703C3.32744 8.08972 3.50423 8.11727 3.60133 8.01224L6.71569 4.64345C6.83624 4.51305 6.7468 4.2856 6.56375 4.25708L4.83795 3.98815C4.8635 3.91382 4.892 3.8403 4.92343 3.7677C4.93276 3.74616 4.94233 3.72473 4.95215 3.70341C5.14413 3.28635 5.43048 2.90923 5.79659 2.5917C6.18143 2.25793 6.64686 1.99652 7.16633 1.82241ZM4.43279 4.22755L4.55654 3.86759C4.58447 3.78635 4.61559 3.70608 4.64987 3.62691C4.85886 3.14417 5.18065 2.71244 5.59345 2.35441C6.00617 1.99646 6.50255 1.71844 7.05299 1.53394C7.17638 1.49259 7.27058 1.45638 7.3547 1.42403L7.36388 1.4205C7.49049 1.37178 7.60836 1.32643 7.75777 1.29903C7.8269 1.28635 7.88187 1.25428 7.91506 1.21768C7.94616 1.18339 7.95584 1.14923 7.95288 1.11524L7.90094 0.519898C7.89404 0.440805 7.82582 0.381315 7.75535 0.383762C7.30365 0.399446 7.06854 0.47093 6.48535 0.666399C5.77879 0.903216 5.1489 1.25774 4.63038 1.70745C4.11195 2.1571 3.71579 2.69233 3.46109 3.28065C3.38695 3.45192 3.32518 3.62677 3.27587 3.8043L3.21118 4.03719L0.999308 3.69252L3.44245 7.72472L6.39309 4.53302L4.43279 4.22755Z" fill="black"/>
<path fill-rule="evenodd" clip-rule="evenodd" d="M14.0731 7.86842C14.0054 7.72883 13.8319 7.68498 13.7255 7.78053L10.3116 10.8454C10.1795 10.9641 10.2474 11.1988 10.427 11.2442L12.1204 11.6723C12.088 11.744 12.0528 11.8145 12.0148 11.8839C11.7828 12.3068 11.4503 12.6771 11.0361 12.9737C10.6219 13.2703 10.1342 13.4873 9.60084 13.6124C9.46794 13.6435 9.36591 13.6722 9.27877 13.6967C9.14161 13.7353 9.04137 13.7635 8.91574 13.7746C8.66873 13.7965 8.45862 13.9653 8.4571 14.2179L8.4535 14.8155C8.45203 15.0599 8.64461 15.2805 8.8869 15.2946C9.38155 15.3235 9.65544 15.2656 10.2575 15.1244C11.0148 14.9468 11.7073 14.6387 12.2954 14.2176C12.8834 13.7965 13.3556 13.2707 13.6848 12.6703C13.7807 12.4955 13.8639 12.3154 13.9342 12.1309L16.013 12.6564C16.1926 12.7019 16.3293 12.5188 16.2453 12.3455L14.0731 7.86842Z" fill="#28EA3C"/>
<path fill-rule="evenodd" clip-rule="evenodd" d="M9.60084 13.6124C9.46795 13.6435 9.36592 13.6722 9.27879 13.6967C9.14163 13.7353 9.04137 13.7635 8.91574 13.7746C8.66873 13.7965 8.45862 13.9653 8.4571 14.2179L8.4535 14.8155C8.45203 15.0599 8.64461 15.2805 8.8869 15.2946C9.38155 15.3235 9.65544 15.2656 10.2575 15.1244C11.0148 14.9468 11.7073 14.6387 12.2954 14.2176C12.8834 13.7965 13.3556 13.2707 13.6848 12.6703C13.7807 12.4955 13.8639 12.3154 13.9342 12.1309L16.013 12.6564C16.1926 12.7019 16.3293 12.5188 16.2453 12.3455L14.0731 7.86842C14.0054 7.72883 13.8319 7.68498 13.7255 7.78053L10.3116 10.8454C10.1795 10.9641 10.2474 11.1988 10.427 11.2442L12.1204 11.6723C12.088 11.744 12.0528 11.8145 12.0148 11.8839C12.0035 11.9045 11.992 11.9249 11.9802 11.9452C11.7503 12.3426 11.4302 12.6915 11.0361 12.9737C10.6219 13.2703 10.1342 13.4873 9.60084 13.6124ZM12.546 11.4716L12.3893 11.8185C12.354 11.8968 12.3155 11.9738 12.2741 12.0495C12.0211 12.5107 11.6606 12.9107 11.2163 13.2288C10.7722 13.5469 10.2521 13.7776 9.68688 13.9101C9.56019 13.9398 9.46304 13.9671 9.37627 13.9915L9.36681 13.9942C9.23621 14.0309 9.11464 14.0651 8.96333 14.0786C8.89332 14.0848 8.83561 14.1116 8.79916 14.1449C8.76502 14.1762 8.7522 14.2093 8.75199 14.2434L8.7484 14.841C8.74792 14.9204 8.81032 14.986 8.88071 14.9901C9.33191 15.0164 9.57265 14.9671 10.1715 14.8267C10.897 14.6565 11.5571 14.362 12.1151 13.9624C12.6731 13.5629 13.1173 13.0668 13.4255 12.5047C13.5153 12.341 13.593 12.1727 13.6586 12.0005L13.7446 11.7746L15.9149 12.3233L13.857 8.08157L10.6226 10.9853L12.546 11.4716Z" fill="black"/>
</g>
<defs>
<clipPath id="clip0_312_2809">
<rect width="16" height="16" fill="white" transform="translate(0.349121)"/>
</clipPath>
</defs>
</svg>
