<svg width="16" height="16" viewBox="0 0 16 16" fill="none" xmlns="http://www.w3.org/2000/svg">
<path d="M6.25338 4.01575L5.3801 2.81067H2.06132L1.01318 4.01575V7.0322H14.9872V4.01575H6.25338Z" fill="#BF8122"/>
<path d="M1.47314 4.55707H14.6046V9.78341H1.47314V4.55707Z" fill="#EFEFEF"/>
<path d="M14.9872 13.1894V5.1886H5.53852V6.95719H1.01318V13.1894H14.9872Z" fill="#FFA724"/>
<path d="M1.01318 6.71771H5.5492V7.62474H1.01318V6.71771Z" fill="#F7C780"/>
<path fill-rule="evenodd" clip-rule="evenodd" d="M10.4204 11.6945C10.686 11.9885 11.3986 12.3471 12.2696 12.4537C13.5491 12.6109 14.7608 12.3158 15.5816 11.7268L15.5852 10.652C15.0627 10.9751 14.1008 11.1915 13 11.1915C11.9038 11.1915 10.945 10.9762 10.422 10.6558C10.4213 11.0018 10.4208 11.3479 10.4204 11.6939V11.6945ZM14.9628 11.6322C14.9968 11.6673 15.0426 11.6868 15.0902 11.6864H15.0908C15.1909 11.6864 15.2726 11.6029 15.2726 11.499C15.2726 11.3956 15.1909 11.3122 15.0908 11.3122C14.9906 11.3122 14.9089 11.3956 14.9089 11.499C14.9094 11.5492 14.9288 11.5971 14.9628 11.6322Z" fill="#DD726D"/>
<path fill-rule="evenodd" clip-rule="evenodd" d="M10.4204 12.2868V13.235C10.6855 13.5295 11.3986 13.8882 12.2696 13.9953C13.5466 14.152 14.7557 13.858 15.5765 13.2716L15.5796 12.3024C14.7051 12.8446 13.474 13.0724 12.2292 12.9189C11.4587 12.8247 10.8026 12.5795 10.4204 12.2868ZM14.9628 13.1738C14.9968 13.2089 15.0426 13.2284 15.0902 13.228H15.0908C15.1909 13.228 15.2726 13.144 15.2726 13.0406C15.2726 12.9372 15.1909 12.8532 15.0908 12.8532C14.9906 12.8532 14.9089 12.9372 14.9089 13.0406C14.9094 13.0908 14.9288 13.1387 14.9628 13.1738Z" fill="#CD3D3C"/>
<path fill-rule="evenodd" clip-rule="evenodd" d="M10.4214 13.8284L10.4234 14.5937C10.6021 15.1272 11.5925 15.552 13.0567 15.552C13.8663 15.552 14.5008 15.4228 14.9886 15.1686C15.1255 15.097 15.2297 15.0367 15.3319 14.9581C15.3421 14.9502 15.3518 14.9428 15.3612 14.9357C15.4138 14.8954 15.4552 14.8638 15.5173 14.8062C15.5383 14.7867 15.5581 14.7676 15.577 14.7491L15.574 13.8467C14.7005 14.3857 13.4715 14.6129 12.2292 14.4605C11.4598 14.3658 10.8036 14.1211 10.4214 13.8284ZM15.0213 14.7757C15.0432 14.7851 15.0666 14.7898 15.0902 14.7895L15.0908 14.789C15.1909 14.789 15.2726 14.705 15.2726 14.6016C15.2726 14.4982 15.1909 14.4142 15.0908 14.4142C14.9906 14.4142 14.9089 14.4982 14.9089 14.6016C14.9091 14.6265 14.914 14.6511 14.9232 14.674C14.9324 14.6969 14.9458 14.7177 14.9626 14.7352C14.9795 14.7526 14.9994 14.7664 15.0213 14.7757Z" fill="#C62D25"/>
<path d="M14.8415 10.4738C15.0586 10.3941 15.2256 10.3036 15.3298 10.2137C15.4013 10.1523 15.4238 10.1119 15.4238 10.0958C15.4238 10.0796 15.4013 10.0392 15.3298 9.97731C15.2256 9.88792 15.0591 9.79746 14.8415 9.71777C14.3654 9.54385 13.7065 9.44208 13 9.44208C12.2936 9.44208 11.6346 9.54438 11.1585 9.71777C10.9414 9.79746 10.7744 9.88792 10.6702 9.97785C10.5987 10.0392 10.5762 10.0791 10.5762 10.0958C10.5762 10.1119 10.5987 10.1523 10.6702 10.2142C10.7744 10.3036 10.9409 10.3941 11.1585 10.4738C11.6346 10.6477 12.2936 10.7495 13 10.7495C13.7065 10.7495 14.3654 10.6472 14.8415 10.4738Z" fill="#E54141"/>
<path fill-rule="evenodd" clip-rule="evenodd" d="M15.3298 10.2137C15.2256 10.3036 15.0586 10.3941 14.8415 10.4738C14.3654 10.6472 13.7065 10.7495 13 10.7495C12.2936 10.7495 11.6346 10.6477 11.1585 10.4738C10.9409 10.3941 10.7744 10.3036 10.6702 10.2142C10.5987 10.1523 10.5762 10.1119 10.5762 10.0958C10.5762 10.0791 10.5987 10.0392 10.6702 9.97785C10.7744 9.88792 10.9414 9.79746 11.1585 9.71777C11.6346 9.54438 12.2936 9.44208 13 9.44208C13.7065 9.44208 14.3654 9.54385 14.8415 9.71777C15.0591 9.79746 15.2256 9.88792 15.3298 9.97731C15.4013 10.0392 15.4238 10.0796 15.4238 10.0958C15.4238 10.1119 15.4013 10.1523 15.3298 10.2137ZM10.4204 12.2868V13.235C10.6855 13.5295 11.3986 13.8882 12.2696 13.9953C13.5466 14.152 14.7557 13.858 15.5765 13.2716L15.5796 12.3024C14.7051 12.8446 13.474 13.0724 12.2292 12.9189C11.4587 12.8247 10.8026 12.5795 10.4204 12.2868ZM12.2696 12.4537C11.3986 12.3471 10.686 11.9885 10.4204 11.6945V11.6939C10.4208 11.3479 10.4213 11.0018 10.422 10.6558C10.945 10.9762 11.9038 11.1915 13 11.1915C14.1008 11.1915 15.0627 10.9751 15.5852 10.652L15.5816 11.7268C14.7608 12.3158 13.5491 12.6109 12.2696 12.4537ZM10.4214 13.8284L10.4234 14.5937C10.6021 15.1272 11.5925 15.552 13.0567 15.552C13.8663 15.552 14.5008 15.4228 14.9886 15.1686C15.1255 15.097 15.2297 15.0367 15.3319 14.9581C15.3421 14.9502 15.3518 14.9428 15.3612 14.9357C15.4138 14.8954 15.4552 14.8638 15.5173 14.8062C15.5383 14.7867 15.5581 14.7676 15.577 14.7491L15.577 14.7625C15.5768 14.8161 15.5768 14.8161 15.598 14.8312C15.6191 14.8463 15.6614 14.8766 15.7459 14.9906C15.8603 14.9912 15.9693 14.9906 15.9693 14.9906C15.9693 14.9906 15.6567 15.2219 15.577 15.2833C15.458 15.3748 15.3227 15.4702 15.1664 15.552C14.628 15.8325 14.0793 16 13.0567 16C11.3532 16 10.2268 15.4319 10.0113 14.6808L10.0036 14.6538V14.6258L10.0005 13.4892C9.99932 12.3709 10.0002 11.2527 10.0031 10.1345C10.0018 10.1217 10.0011 10.1087 10.001 10.0958C10.0016 9.49054 11.344 9 13 9C14.6561 9 15.9985 9.49054 15.9985 10.0958C15.9986 10.1194 15.9967 10.143 15.9928 10.1663C15.9978 10.1832 16.0002 10.2008 16 10.2185L15.9693 14.9906C15.7459 14.7551 15.8454 14.6016 15.8454 14.6016C15.7916 14.5376 15.719 14.6092 15.6087 14.718C15.5985 14.7281 15.5879 14.7385 15.577 14.7491L15.574 13.8467C14.7005 14.3857 13.4715 14.6129 12.2292 14.4605C11.4598 14.3658 10.8036 14.1211 10.4214 13.8284ZM14.9628 11.6322C14.9968 11.6673 15.0426 11.6868 15.0902 11.6864H15.0908C15.1909 11.6864 15.2726 11.6029 15.2726 11.499C15.2726 11.3956 15.1909 11.3122 15.0908 11.3122C14.9906 11.3122 14.9089 11.3956 14.9089 11.499C14.9094 11.5492 14.9288 11.5971 14.9628 11.6322ZM14.9628 13.1738C14.9968 13.2089 15.0426 13.2284 15.0902 13.228H15.0908C15.1909 13.228 15.2726 13.144 15.2726 13.0406C15.2726 12.9372 15.1909 12.8532 15.0908 12.8532C14.9906 12.8532 14.9089 12.9372 14.9089 13.0406C14.9094 13.0908 14.9288 13.1387 14.9628 13.1738ZM15.0213 14.7757C15.0432 14.7851 15.0666 14.7898 15.0902 14.7895L15.0908 14.789C15.1909 14.789 15.2726 14.705 15.2726 14.6016C15.2726 14.4982 15.1909 14.4142 15.0908 14.4142C14.9906 14.4142 14.9089 14.4982 14.9089 14.6016C14.9091 14.6265 14.914 14.6511 14.9232 14.674C14.9324 14.6969 14.9458 14.7177 14.9626 14.7352C14.9795 14.7526 14.9994 14.7664 15.0213 14.7757Z" fill="#212121"/>
<path d="M15.9693 14.9906C15.7459 14.7551 15.8454 14.6016 15.8454 14.6016C15.7916 14.5376 15.719 14.6092 15.6087 14.718L15.577 14.7491L15.577 14.7625C15.5768 14.8161 15.5768 14.8161 15.598 14.8312C15.6191 14.8463 15.6614 14.8766 15.7459 14.9906C15.8603 14.9912 15.9693 14.9906 15.9693 14.9906Z" fill="#212121"/>
</svg>
