<svg width="16" height="16" viewBox="0 0 16 16" fill="none" xmlns="http://www.w3.org/2000/svg">
<g clip-path="url(#clip0_312_1513)">
<path fill-rule="evenodd" clip-rule="evenodd" d="M3.95071 2.94857L3.9507 2.94856L3.93068 2.96826L3.93069 2.96827L3.92841 2.97051L1.14157 5.75736C0.659552 6.23937 0.472725 6.81378 0.517239 7.37101C0.56087 7.91719 0.823784 8.42132 1.19511 8.79662C1.56644 9.17193 2.06778 9.44014 2.61531 9.48501C3.17423 9.53082 3.75004 9.34049 4.23737 8.85315C4.88372 8.2068 5.2273 7.87423 5.50073 7.60957C5.90899 7.2144 6.16085 6.97062 7.03062 6.05975C7.47749 5.59176 7.6271 5.0347 7.55663 4.49985C7.48785 3.97786 7.21367 3.49753 6.84882 3.13547C6.48404 2.77347 6.00291 2.50412 5.48664 2.43496C4.95814 2.36417 4.40674 2.50697 3.953 2.94632L3.95071 2.94857ZM4.50689 3.5162C4.77415 3.258 5.07775 3.18199 5.38112 3.22263C5.69712 3.26496 6.02513 3.43766 6.28904 3.69956C6.5529 3.9614 6.72699 4.28681 6.76874 4.60367C6.8088 4.90768 6.73121 5.22257 6.45586 5.51093C5.59362 6.41392 5.35615 6.64362 4.95892 7.02786C4.68815 7.28978 4.34315 7.6235 3.67543 8.29122C3.34808 8.61856 2.99952 8.71913 2.68022 8.69296C2.34953 8.66586 2.0188 8.49922 1.76003 8.23768C1.50127 7.97615 1.33608 7.64145 1.30942 7.30773C1.28364 6.98505 1.38434 6.63846 1.70351 6.3193L4.48922 3.53358L4.50689 3.5162Z" fill="#525252"/>
<path fill-rule="evenodd" clip-rule="evenodd" d="M4.31301 3.40115L4.313 3.40114L4.29298 3.42084L4.29299 3.42085L4.29072 3.42309L1.50387 6.20993C1.02186 6.69195 0.83503 7.26635 0.879544 7.82358C0.923174 8.36977 1.18609 8.87389 1.55742 9.2492C1.92874 9.6245 2.43009 9.89271 2.97761 9.93759C3.53653 9.98339 4.11234 9.79306 4.59967 9.30573C5.24602 8.65938 5.58961 8.32681 5.86304 8.06215C6.2713 7.66698 6.52316 7.42319 7.39292 6.51233C7.8398 6.04434 7.98941 5.48727 7.91893 4.95243C7.85015 4.43044 7.57597 3.95011 7.21113 3.58805C6.84634 3.22605 6.36522 2.9567 5.84894 2.88754C5.32045 2.81674 4.76904 2.95955 4.3153 3.39889L4.31301 3.40115ZM4.86919 3.96877C5.13645 3.71058 5.44006 3.63456 5.74343 3.6752C6.05943 3.71753 6.38743 3.89024 6.65135 4.15214C6.9152 4.41398 7.08929 4.73939 7.13104 5.05625C7.1711 5.36025 7.09351 5.67515 6.81817 5.96351C5.95592 6.8665 5.71845 7.0962 5.32123 7.48044C5.05045 7.74235 4.70545 8.07607 4.03773 8.74379C3.71039 9.07114 3.36183 9.17171 3.04253 9.14554C2.71183 9.11844 2.3811 8.95179 2.12234 8.69026C1.86357 8.42872 1.69838 8.09403 1.67172 7.7603C1.64594 7.43763 1.74665 7.09104 2.06581 6.77187L4.85153 3.98616L4.86919 3.96877Z" fill="#AEAEAE"/>
<path fill-rule="evenodd" clip-rule="evenodd" d="M7.77297 8.69662L7.77297 8.69661L7.75295 8.71631L7.75295 8.71632L7.75068 8.71856L4.96383 11.5054C4.48182 11.9874 4.29499 12.5618 4.3395 13.1191C4.38314 13.6652 4.64605 14.1694 5.01738 14.5447C5.3887 14.92 5.89005 15.1882 6.43757 15.2331C6.99649 15.2789 7.5723 15.0885 8.05963 14.6012C8.70598 13.9548 9.04957 13.6223 9.323 13.3576C9.73126 12.9624 9.98312 12.7187 10.8529 11.8078C11.2998 11.3398 11.4494 10.7827 11.3789 10.2479C11.3101 9.72591 11.0359 9.24558 10.6711 8.88352C10.3063 8.52152 9.82518 8.25217 9.3089 8.18301C8.78041 8.11221 8.22901 8.25502 7.77526 8.69437L7.77297 8.69662ZM8.32915 9.26424C8.59641 9.00605 8.90002 8.93004 9.20339 8.97067C9.51939 9.013 9.84739 9.18571 10.1113 9.44761C10.3752 9.70945 10.5493 10.0349 10.591 10.3517C10.6311 10.6557 10.5535 10.9706 10.2781 11.259C9.41588 12.162 9.17841 12.3917 8.78119 12.7759C8.51042 13.0378 8.16541 13.3715 7.49769 14.0393C7.17035 14.3666 6.82179 14.4672 6.50249 14.441C6.17179 14.4139 5.84106 14.2473 5.5823 13.9857C5.32354 13.7242 5.15834 13.3895 5.13168 13.0558C5.10591 12.7331 5.20661 12.3865 5.52577 12.0673L8.31149 9.28163L8.32915 9.26424Z" fill="#525252"/>
<path fill-rule="evenodd" clip-rule="evenodd" d="M8.13528 9.14926L8.13527 9.14925L8.11525 9.16895L8.11526 9.16896L8.11298 9.1712L5.32614 11.958C4.84412 12.4401 4.6573 13.0145 4.70181 13.5717C4.74544 14.1179 5.00835 14.622 5.37968 14.9973C5.75101 15.3726 6.25235 15.6408 6.79988 15.6857C7.3588 15.7315 7.93461 15.5412 8.42194 15.0538C9.06829 14.4075 9.41187 14.0749 9.6853 13.8103C10.0936 13.4151 10.3454 13.1713 11.2152 12.2604C11.6621 11.7924 11.8117 11.2354 11.7412 10.7005C11.6724 10.1785 11.3982 9.69821 11.0334 9.33616C10.6686 8.97416 10.1875 8.7048 9.67121 8.63565C9.14271 8.56485 8.59131 8.70766 8.13757 9.147L8.13528 9.14926ZM8.69146 9.71688C8.95872 9.45869 9.26232 9.38267 9.56569 9.42331C9.88169 9.46564 10.2097 9.63835 10.4736 9.90024C10.7375 10.1621 10.9116 10.4875 10.9533 10.8044C10.9934 11.1084 10.9158 11.4233 10.6404 11.7116C9.77819 12.6146 9.54072 12.8443 9.14349 13.2285C8.87272 13.4905 8.52772 13.8242 7.86 14.4919C7.53265 14.8192 7.1841 14.9198 6.86479 14.8936C6.5341 14.8665 6.20337 14.6999 5.9446 14.4384C5.68584 14.1768 5.52065 13.8421 5.49399 13.5084C5.46821 13.1857 5.56891 12.8391 5.88808 12.52L8.67379 9.73426L8.69146 9.71688Z" fill="#AEAEAE"/>
<path fill-rule="evenodd" clip-rule="evenodd" d="M13.3077 7.19486C13.0043 7.15425 12.7006 7.23031 12.4332 7.48862L12.4135 7.50809L11.2652 8.63027C11.1082 8.78365 10.8567 8.78076 10.7033 8.62381C10.5499 8.46686 10.5528 8.21529 10.7097 8.06191L11.857 6.94069L11.8771 6.92099L11.8794 6.91874C12.3332 6.47934 12.8846 6.33644 13.4131 6.40718C13.9295 6.47628 14.4106 6.74562 14.7754 7.10763C15.1403 7.4697 15.4145 7.95007 15.4832 8.47212C15.5536 9.00702 15.4039 9.56413 14.957 10.0322C14.087 10.9433 13.8351 11.1871 13.4267 11.5824C13.1532 11.8471 12.8096 12.1798 12.163 12.8263C11.6756 13.3137 11.0998 13.5041 10.5408 13.4583C9.99322 13.4135 9.49183 13.1454 9.12048 12.77C8.74914 12.3947 8.48625 11.8905 8.44268 11.3443C8.39823 10.787 8.58515 10.2126 9.06724 9.73047C9.22242 9.57529 9.474 9.57529 9.62918 9.73047C9.78435 9.88564 9.78435 10.1372 9.62918 10.2924C9.30989 10.6117 9.20913 10.9584 9.23487 11.2811C9.26149 11.6149 9.42666 11.9496 9.68541 12.2111C9.94415 12.4726 10.2749 12.6392 10.6056 12.6663C10.925 12.6924 11.2736 12.5918 11.6011 12.2643C12.269 11.5964 12.6141 11.2626 12.8849 11.0007C13.2822 10.6163 13.5198 10.3866 14.3822 9.48335C14.6577 9.19488 14.7353 8.87989 14.6953 8.57585C14.6536 8.25896 14.4795 7.93354 14.2157 7.67172C13.9518 7.40983 13.6238 7.23715 13.3077 7.19486Z" fill="#CD3D3C"/>
</g>
<defs>
<clipPath id="clip0_312_1513">
<rect width="16" height="16" fill="white"/>
</clipPath>
</defs>
</svg>
