<svg width="16" height="16" viewBox="0 0 16 16" fill="none" xmlns="http://www.w3.org/2000/svg">
<g clip-path="url(#clip0_312_1507)">
<path fill-rule="evenodd" clip-rule="evenodd" d="M6.10254 5.71984L6.07954 5.74247L2.45294 9.36907C2.03743 9.78458 1.90633 10.2358 1.93989 10.6559C1.9746 11.0903 2.18965 11.5261 2.52653 11.8665C2.8634 12.207 3.29397 12.424 3.72448 12.4592C4.14017 12.4933 4.59394 12.3624 5.0201 11.9362C5.88937 11.067 6.33852 10.6325 6.69102 10.2915C7.20815 9.7913 7.5173 9.49226 8.63983 8.3167C8.99829 7.9413 9.09929 7.53135 9.04714 7.13558C8.99279 6.72307 8.76615 6.29944 8.42265 5.95856C8.07907 5.6176 7.65205 5.39276 7.24067 5.33766C6.84572 5.28475 6.45047 5.38371 6.10254 5.71984ZM10.0729 7.00042C10.1646 7.69671 9.96984 8.42193 9.38808 9.03119C8.25576 10.217 7.92788 10.5344 7.39638 11.0488C7.04041 11.3934 6.59312 11.8263 5.75166 12.6678C5.11723 13.3022 4.3676 13.55 3.63997 13.4904C2.92717 13.432 2.2745 13.0828 1.79108 12.5942C1.30767 12.1056 0.965389 11.4493 0.908587 10.7383C0.850637 10.0128 1.09386 9.26503 1.72138 8.63751L5.34945 5.00944C5.36006 4.99883 5.37073 4.98833 5.38145 4.97794C5.97216 4.40598 6.69001 4.22006 7.37803 4.31223C8.05015 4.40226 8.67651 4.75292 9.1514 5.22419C9.62638 5.69554 9.98332 6.32086 10.0729 7.00042Z" fill="#525252"/>
<path fill-rule="evenodd" clip-rule="evenodd" d="M10.858 3.15453C11.206 2.81825 11.6014 2.71924 11.9964 2.7721C12.4078 2.82716 12.8349 3.05197 13.1784 3.39291C13.5219 3.73377 13.7485 4.1574 13.8028 4.56995C13.8549 4.96577 13.7538 5.37584 13.3952 5.7514C12.2724 6.92724 11.9632 7.22636 11.4459 7.72671C11.0934 8.06778 10.6441 8.50234 9.77462 9.37182C9.3483 9.79814 8.89439 9.92915 8.47865 9.89513C8.04808 9.85989 7.61751 9.64297 7.28066 9.30252C6.94381 8.96206 6.72878 8.52632 6.69412 8.09181C6.66061 7.67167 6.79179 7.22033 7.20746 6.80466C7.40947 6.60265 7.40947 6.27512 7.20746 6.0731C7.00544 5.87109 6.67791 5.87109 6.47589 6.0731C5.84828 6.70071 5.60494 7.44857 5.66281 8.17407C5.71953 8.8852 6.06178 9.54156 6.54521 10.0302C7.02865 10.5188 7.68138 10.8679 8.39426 10.9263C9.12196 10.9858 9.87165 10.7379 10.5062 10.1034C11.3479 9.26172 11.7953 8.82865 12.1513 8.48401C12.6829 7.96943 13.0109 7.65198 14.1435 6.46589C14.7253 5.85655 14.9202 5.13128 14.8285 4.43492C14.7391 3.75528 14.3822 3.12991 13.9072 2.65854C13.4322 2.18725 12.8058 1.83662 12.1336 1.74666C11.4455 1.65456 10.7277 1.84059 10.1369 2.41264C10.1269 2.4223 10.117 2.43207 10.1071 2.44193L8.61419 3.90087C8.40986 4.10055 8.4061 4.42807 8.60578 4.63239C8.80546 4.83671 9.13297 4.84048 9.33729 4.6408L10.8322 3.17988L10.858 3.15453Z" fill="#525252"/>
<path fill-rule="evenodd" clip-rule="evenodd" d="M11.336 3.46441C11.6841 3.12813 12.0794 3.02911 12.4744 3.08198C12.8859 3.13704 13.3129 3.36185 13.6564 3.70278C13.9999 4.04364 14.2265 4.46728 14.2808 4.87983C14.3329 5.27565 14.2319 5.68572 13.8733 6.06127C12.7505 7.23712 12.4412 7.53624 11.924 8.03659C11.5714 8.37765 11.1221 8.81221 10.2526 9.6817C9.82632 10.108 9.37242 10.239 8.95667 10.205C8.52611 10.1698 8.09554 9.95285 7.75869 9.61239C7.42184 9.27193 7.20681 8.8362 7.17215 8.40169C7.13864 7.98155 7.26982 7.53021 7.68549 7.11454C7.8875 6.91252 7.8875 6.58499 7.68549 6.38298C7.48347 6.18096 7.15594 6.18096 6.95392 6.38298C6.32631 7.01059 6.08297 7.75844 6.14084 8.48395C6.19756 9.19508 6.5398 9.85143 7.02324 10.34C7.50668 10.8287 8.15941 11.1778 8.87229 11.2361C9.59999 11.2957 10.3497 11.0478 10.9842 10.4133C11.8259 9.57159 12.2733 9.13853 12.6293 8.79389C13.161 8.27931 13.4889 7.96186 14.6215 6.77576C15.2034 6.16643 15.3982 5.44115 15.3066 4.74479C15.2171 4.06516 14.8602 3.43978 14.3852 2.96842C13.9103 2.49713 13.2839 2.1465 12.6117 2.05653C11.9236 1.96444 11.2057 2.15047 10.6149 2.72251C10.6049 2.73218 10.595 2.74194 10.5851 2.75181L9.09222 4.21075C8.88789 4.41043 8.88413 4.73794 9.08381 4.94227C9.28349 5.14659 9.611 5.15035 9.81532 4.95067L11.3102 3.48976L11.336 3.46441Z" fill="#CD3D3C"/>
<path fill-rule="evenodd" clip-rule="evenodd" d="M6.58056 6.28863L6.55757 6.31126L2.93097 9.93786C2.51546 10.3534 2.38436 10.8046 2.41792 11.2247C2.45262 11.6591 2.66768 12.0948 3.00456 12.4353C3.34143 12.7758 3.77199 12.9928 4.20251 13.028C4.6182 13.0621 5.07197 12.9312 5.49813 12.505C6.3674 11.6357 6.81654 11.2013 7.16905 10.8603C7.68618 10.3601 7.99533 10.061 9.11785 8.88548C9.47631 8.51009 9.57732 8.10014 9.52517 7.70436C9.47081 7.29186 9.24418 6.86822 8.90068 6.52734C8.5571 6.18639 8.13008 5.96155 7.7187 5.90644C7.32375 5.85354 6.9285 5.9525 6.58056 6.28863ZM10.5509 7.56921C10.6426 8.2655 10.4479 8.99072 9.8661 9.59997C8.73379 10.7858 8.40591 11.1032 7.87441 11.6176C7.51844 11.9622 7.07114 12.3951 6.22969 13.2366C5.59525 13.871 4.84563 14.1188 4.118 14.0592C3.4052 14.0007 2.75252 13.6516 2.26911 13.163C1.78569 12.6744 1.44342 12.0181 1.38662 11.307C1.32867 10.5816 1.57189 9.83381 2.1994 9.2063L5.82747 5.57823C5.83809 5.56761 5.84876 5.55711 5.85948 5.54673C6.45019 4.97476 7.16803 4.78885 7.85606 4.88101C8.52817 4.97105 9.15453 5.32171 9.62943 5.79298C10.1044 6.26433 10.4613 6.88965 10.5509 7.56921Z" fill="#AEAEAE"/>
</g>
<defs>
<clipPath id="clip0_312_1507">
<rect width="16" height="16" fill="white"/>
</clipPath>
</defs>
</svg>
