<svg width="17" height="16" viewBox="0 0 17 16" fill="none" xmlns="http://www.w3.org/2000/svg">
<g clip-path="url(#clip0_312_1614)">
<path d="M16.1981 4.95749C16.0859 5.12424 15.9211 5.28414 15.7056 5.43826L11.206 8.38487L10.6913 8.72179C10.6913 8.72179 10.3626 8.57161 9.88211 8.51029C9.58389 8.46952 9.22517 8.46391 8.85383 8.5493C8.66581 8.5918 8.47199 8.66041 8.28255 8.75871C8.19163 8.80768 8.10796 8.84868 8.02718 8.88894L7.67806 7.95069C7.77333 7.91912 7.86534 7.88067 7.94612 7.84041L8.40326 7.62418L9.80837 6.95629L10.7375 6.51552L13.1366 5.37675L16.2555 3.89584C16.4376 4.27835 16.4182 4.63127 16.1981 4.95749Z" fill="#B2B1B1"/>
<path d="M9.4924 9.42593L8.515 9.20948C8.54374 9.12392 8.57282 9.0354 8.60879 8.9386C8.68005 8.73742 8.72127 8.536 8.73747 8.34391C8.77084 7.96436 8.71586 7.60982 8.63438 7.32006C8.50742 6.8526 8.31336 6.54772 8.31336 6.54772L8.44607 6.2645L10.8744 1.12871C11.157 0.58366 11.5092 0.313551 11.9378 0.310133C12.0612 0.308388 12.1912 0.328417 12.3263 0.37153L11.7256 2.27972L10.4037 6.47532L10.1837 7.17889L9.71584 8.66265L9.5647 9.14525C9.53596 9.23081 9.51054 9.32721 9.4924 9.42593Z" fill="#AFAFAF"/>
<path d="M7.00438 9.36705C7.47928 9.14177 7.73609 9.02966 8.02734 8.88889L7.67822 7.95064C7.35145 8.06026 6.9616 8.09019 6.61066 7.74691C6.43442 7.51077 6.21619 7.31596 5.97225 7.17226C5.85519 7.10456 5.7316 7.04776 5.60621 7.00216C5.08868 6.81767 4.49737 6.83032 3.96344 7.08429L2.67133 7.69921C2.42463 7.81494 2.21168 7.97306 2.03642 8.15866C1.82638 8.37763 1.6682 8.63754 1.56909 8.91803C1.56077 8.94017 1.55426 8.96332 1.54774 8.98654C1.38644 9.48592 1.40885 10.0486 1.65229 10.559C1.76584 10.797 1.91668 11.0057 2.09689 11.1776C2.31914 11.3945 2.58518 11.5589 2.87113 11.6613C3.38684 11.8446 3.97817 11.832 4.5121 11.578L5.80603 10.9642C6.33994 10.7103 6.72487 10.2611 6.90645 9.74431C6.94982 9.62253 6.98307 9.49716 7.00438 9.36705ZM5.37499 10.0557L4.08111 10.6695C3.79495 10.8059 3.4855 10.8127 3.20863 10.7157C2.93103 10.6159 2.69719 10.4142 2.5608 10.128C2.4244 9.84185 2.4177 9.53241 2.51464 9.25554C2.61449 8.97794 2.81436 8.74301 3.10234 8.6077L4.39443 7.99279C4.68241 7.85748 4.99186 7.85076 5.26764 7.94952C5.54345 8.0483 5.78017 8.24924 5.91657 8.5354C6.05296 8.82158 6.05787 9.12991 5.95984 9.40861C5.86103 9.68442 5.66005 9.92116 5.37499 10.0557Z" fill="#CD3D3C"/>
<path d="M10.4226 14.3765C10.4265 14.3679 10.4275 14.359 10.4314 14.3504L10.8624 12.9859C11.0338 12.4409 10.9761 11.8742 10.7432 11.3998C10.7359 11.384 10.7273 11.3666 10.7186 11.3491C10.5257 10.9782 10.223 10.6631 9.84125 10.4552C9.45286 10.1549 9.42879 9.76466 9.49233 9.4259L8.51493 9.20945C8.41434 9.51565 8.34 9.78714 8.18232 10.2886C8.05641 10.3276 7.9368 10.3778 7.82216 10.4376C7.33532 10.6887 6.9435 11.1318 6.76557 11.6956L6.33593 13.0618C6.15802 13.6257 6.22697 14.2131 6.4797 14.6986C6.73242 15.1841 7.17556 15.5759 7.7394 15.7539C8.30322 15.9318 8.89065 15.8628 9.37618 15.6101C9.85377 15.361 10.2413 14.9295 10.4226 14.3765ZM8.91156 14.7201C8.65069 14.8543 8.34328 14.8903 8.04106 14.7947C7.73882 14.699 7.50682 14.4952 7.36966 14.234C7.23547 13.9731 7.19949 13.6657 7.29515 13.3635L7.72475 11.9973C7.81878 11.6964 8.02553 11.4647 8.28511 11.3289C8.54763 11.1934 8.85371 11.1557 9.15595 11.2514C9.45819 11.347 9.68987 11.5538 9.82567 11.8134C9.9615 12.0729 9.99752 12.3803 9.90317 12.6842L9.47222 14.0487C9.37788 14.3526 9.17275 14.583 8.91156 14.7201Z" fill="#CD3D3C"/>
<path d="M9.14646 8.02773C9.29059 8.11409 9.47744 8.06727 9.5638 7.92314C9.65016 7.77901 9.60334 7.59216 9.45921 7.5058C9.31508 7.41944 9.12823 7.46627 9.04187 7.61039C8.95551 7.75452 9.00233 7.94137 9.14646 8.02773Z" fill="#8A8B8A"/>
</g>
<defs>
<clipPath id="clip0_312_1614">
<rect width="16" height="16" fill="white" transform="translate(0.989258)"/>
</clipPath>
</defs>
</svg>
