<svg width="16" height="16" viewBox="0 0 16 16" fill="none" xmlns="http://www.w3.org/2000/svg">
<g clip-path="url(#clip0_312_1462)">
<path fill-rule="evenodd" clip-rule="evenodd" d="M2.84085 6.38892C3.37209 6.97692 4.79725 7.69415 6.5391 7.90738C9.09826 8.22185 11.5215 7.63169 13.1633 6.45354L13.1704 4.304C12.1253 4.95015 10.2016 5.38308 8.00002 5.38308C5.80763 5.38308 3.89005 4.95231 2.84391 4.31154C2.84254 5.00364 2.84152 5.69574 2.84085 6.38785V6.38892ZM11.9257 6.26441C11.9936 6.33466 12.0853 6.37363 12.1805 6.37277H12.1815C12.3817 6.37277 12.5452 6.20585 12.5452 5.998C12.5452 5.79123 12.3817 5.62431 12.1815 5.62431C11.9813 5.62431 11.8178 5.79123 11.8178 5.998C11.8189 6.09835 11.8577 6.19416 11.9257 6.26441Z" fill="#DD726D"/>
<path fill-rule="evenodd" clip-rule="evenodd" d="M2.84085 7.57354V9.47C3.37107 10.0591 4.79725 10.7763 6.5391 10.9906C9.09315 11.304 11.5113 10.716 13.1531 9.54323L13.1592 7.60477C11.4102 8.68923 8.94808 9.14477 6.4584 8.83785C4.91746 8.64947 3.60517 8.15904 2.84085 7.57354ZM11.9257 9.34764C11.9936 9.41789 12.0853 9.45686 12.1805 9.456H12.1815C12.3817 9.456 12.5452 9.288 12.5452 9.08123C12.5452 8.87446 12.3817 8.70646 12.1815 8.70646C11.9813 8.70646 11.8178 8.87446 11.8178 9.08123C11.8189 9.18158 11.8577 9.27739 11.9257 9.34764Z" fill="#CD3D3C"/>
<path fill-rule="evenodd" clip-rule="evenodd" d="M2.84289 10.6568L2.84682 12.1874C3.20425 13.2545 5.18501 14.104 8.11342 14.104C9.73268 14.104 11.0015 13.8455 11.9772 13.3372C12.251 13.194 12.4594 13.0734 12.6637 12.9162C12.6842 12.9004 12.7036 12.8856 12.7223 12.8713C12.8277 12.7909 12.9105 12.7277 13.0346 12.6125C13.0765 12.5735 13.1163 12.5352 13.154 12.4983L13.148 10.6934C11.401 11.7714 8.94297 12.2258 6.4584 11.9211C4.91951 11.7316 3.60721 11.2423 2.84289 10.6568ZM12.0426 12.5515C12.0864 12.5701 12.1333 12.5795 12.1805 12.5791L12.1815 12.578C12.3817 12.578 12.5452 12.41 12.5452 12.2032C12.5452 11.9965 12.3817 11.8285 12.1815 11.8285C11.9813 11.8285 11.8178 11.9965 11.8178 12.2032C11.8182 12.253 11.8279 12.3022 11.8463 12.3481C11.8648 12.3939 11.8916 12.4354 11.9253 12.4703C11.959 12.5052 11.9988 12.5328 12.0426 12.5515Z" fill="#C62D25"/>
<path d="M11.683 3.94754C12.1171 3.78815 12.4512 3.60723 12.6596 3.42738C12.8026 3.30462 12.8476 3.22385 12.8476 3.19154C12.8476 3.15923 12.8026 3.07846 12.6596 2.95462C12.4512 2.77585 12.1182 2.59492 11.683 2.43554C10.7308 2.08769 9.41292 1.88415 8.00002 1.88415C6.58712 1.88415 5.26923 2.08877 4.31709 2.43554C3.8829 2.59492 3.54883 2.77585 3.34042 2.95569C3.19739 3.07846 3.15244 3.15815 3.15244 3.19154C3.15244 3.22385 3.19739 3.30462 3.34042 3.42846C3.54883 3.60723 3.88188 3.78815 4.31709 3.94754C5.26923 4.29538 6.58712 4.49892 8.00002 4.49892C9.41292 4.49892 10.7308 4.29431 11.683 3.94754Z" fill="#E54141"/>
<path fill-rule="evenodd" clip-rule="evenodd" d="M12.6596 3.42738C12.4512 3.60723 12.1171 3.78815 11.683 3.94754C10.7308 4.29431 9.41292 4.49892 8.00002 4.49892C6.58712 4.49892 5.26923 4.29538 4.31709 3.94754C3.88188 3.78815 3.54883 3.60723 3.34042 3.42846C3.19739 3.30462 3.15244 3.22385 3.15244 3.19154C3.15244 3.15815 3.19739 3.07846 3.34042 2.95569C3.54883 2.77585 3.8829 2.59492 4.31709 2.43554C5.26923 2.08877 6.58712 1.88415 8.00002 1.88415C9.41292 1.88415 10.7308 2.08769 11.683 2.43554C12.1182 2.59492 12.4512 2.77585 12.6596 2.95462C12.8026 3.07846 12.8476 3.15923 12.8476 3.19154C12.8476 3.22385 12.8026 3.30462 12.6596 3.42738ZM2.84085 7.57354V9.47C3.37107 10.0591 4.79725 10.7763 6.5391 10.9906C9.09315 11.304 11.5113 10.716 13.1531 9.54323L13.1592 7.60477C11.4102 8.68923 8.94808 9.14477 6.4584 8.83785C4.91746 8.64947 3.60517 8.15904 2.84085 7.57354ZM6.5391 7.90738C4.79725 7.69415 3.37209 6.97692 2.84085 6.38892V6.38785C2.84152 5.69574 2.84254 5.00364 2.84391 4.31154C3.89005 4.95231 5.80763 5.38308 8.00002 5.38308C10.2016 5.38308 12.1253 4.95015 13.1704 4.304L13.1633 6.45354C11.5215 7.63169 9.09826 8.22185 6.5391 7.90738ZM2.84289 10.6568L2.84682 12.1874C3.20425 13.2545 5.18501 14.104 8.11342 14.104C9.73268 14.104 11.0015 13.8455 11.9772 13.3372C12.251 13.194 12.4594 13.0734 12.6637 12.9162C12.6842 12.9004 12.7036 12.8856 12.7223 12.8713C12.8277 12.7909 12.9105 12.7277 13.0346 12.6125C13.0765 12.5735 13.1163 12.5352 13.154 12.4983L13.1541 12.525C13.1536 12.6321 13.1536 12.6321 13.1959 12.6624C13.2382 12.6926 13.3229 12.7531 13.4917 12.9813C13.7205 12.9824 13.9387 12.9813 13.9387 12.9813C13.9387 12.9813 13.3135 13.4438 13.1541 13.5666C12.916 13.7497 12.6453 13.9403 12.3327 14.104C11.2559 14.6651 10.1587 15 8.11342 15C4.70632 15 2.45365 13.8638 2.02253 12.3615L2.00721 12.3077V12.2517L2.00108 9.97831C1.99864 7.7419 2.00034 5.50548 2.00619 3.26908C2.0036 3.24332 2.00223 3.21744 2.0021 3.19154C2.00312 1.98108 4.68793 1 8.00002 1C11.3121 1 13.9969 1.98108 13.9969 3.19154C13.9972 3.23883 13.9935 3.28605 13.9857 3.33262C13.9955 3.36646 14.0003 3.40169 14 3.43708L13.9387 12.9813C13.4917 12.5101 13.6907 12.2032 13.6907 12.2032C13.5831 12.0752 13.438 12.2183 13.2174 12.436C13.1969 12.4561 13.1758 12.477 13.154 12.4983L13.148 10.6934C11.401 11.7714 8.94297 12.2258 6.4584 11.9211C4.91951 11.7316 3.60721 11.2423 2.84289 10.6568ZM11.9257 6.26441C11.9936 6.33466 12.0853 6.37363 12.1805 6.37277H12.1815C12.3817 6.37277 12.5452 6.20585 12.5452 5.998C12.5452 5.79123 12.3817 5.62431 12.1815 5.62431C11.9813 5.62431 11.8178 5.79123 11.8178 5.998C11.8189 6.09835 11.8577 6.19416 11.9257 6.26441ZM11.9257 9.34764C11.9936 9.41789 12.0853 9.45686 12.1805 9.456H12.1815C12.3817 9.456 12.5452 9.288 12.5452 9.08123C12.5452 8.87446 12.3817 8.70646 12.1815 8.70646C11.9813 8.70646 11.8178 8.87446 11.8178 9.08123C11.8189 9.18158 11.8577 9.27739 11.9257 9.34764ZM12.0426 12.5515C12.0864 12.5701 12.1333 12.5795 12.1805 12.5791L12.1815 12.578C12.3817 12.578 12.5452 12.41 12.5452 12.2032C12.5452 11.9965 12.3817 11.8285 12.1815 11.8285C11.9813 11.8285 11.8178 11.9965 11.8178 12.2032C11.8182 12.253 11.8279 12.3022 11.8463 12.3481C11.8648 12.3939 11.8916 12.4354 11.9253 12.4703C11.959 12.5052 11.9988 12.5328 12.0426 12.5515Z" fill="#212121"/>
<path d="M13.9387 12.9813C13.4917 12.5101 13.6907 12.2032 13.6907 12.2032C13.5831 12.0752 13.438 12.2183 13.2174 12.436L13.154 12.4983L13.1541 12.525C13.1536 12.6321 13.1536 12.6321 13.1959 12.6624C13.2382 12.6926 13.3229 12.7531 13.4917 12.9813C13.7205 12.9824 13.9387 12.9813 13.9387 12.9813Z" fill="#212121"/>
<path fill-rule="evenodd" clip-rule="evenodd" d="M8.73298 12.5765C8.41457 12.5765 8.15644 12.3184 8.15644 12C8.15644 11.6816 8.41457 11.4235 8.73298 11.4234H8.97937C9.05913 11.003 9.22436 10.6129 9.45652 10.2718L9.2822 10.0975C9.05705 9.87239 9.05705 9.50734 9.2822 9.28219C9.50736 9.05704 9.8724 9.05704 10.0976 9.28219L10.2719 9.4565C10.6129 9.22435 11.003 9.05912 11.4235 8.97936V8.73298C11.4235 8.41458 11.6816 8.15645 12 8.15645C12.3184 8.15645 12.5765 8.41458 12.5765 8.73298V8.97936C12.997 9.05912 13.3871 9.22437 13.7282 9.45652L13.9025 9.28221C14.1276 9.05706 14.4927 9.05706 14.7178 9.28221C14.943 9.50736 14.943 9.8724 14.7178 10.0976L14.5435 10.2719C14.7757 10.6129 14.9409 11.003 15.0206 11.4235H15.267C15.5854 11.4235 15.8436 11.6816 15.8436 12C15.8436 12.3184 15.5854 12.5765 15.267 12.5765H15.0206C14.9409 12.997 14.7757 13.3871 14.5435 13.7282L14.7178 13.9025C14.943 14.1276 14.943 14.4927 14.7178 14.7178C14.4926 14.943 14.1276 14.943 13.9025 14.7178L13.7281 14.5435C13.3871 14.7757 12.997 14.9409 12.5765 15.0206V15.267C12.5765 15.5854 12.3184 15.8436 12 15.8436C11.6816 15.8436 11.4234 15.5854 11.4234 15.267V15.0206C11.003 14.9409 10.6129 14.7756 10.2718 14.5435L10.0975 14.7178C9.87238 14.9429 9.50734 14.9429 9.28218 14.7178C9.05703 14.4926 9.05703 14.1276 9.28218 13.9024L9.4565 13.7281C9.22434 13.3871 9.05912 12.997 8.97935 12.5765H8.73298ZM12 12.9729C12.5373 12.9729 12.9729 12.5373 12.9729 12C12.9729 11.4627 12.5373 11.0271 12 11.0271C11.4627 11.0271 11.0271 11.4627 11.0271 12C11.0271 12.5373 11.4627 12.9729 12 12.9729Z" fill="#6A5F5F"/>
<path d="M12 14.3798C13.3122 14.3798 14.3798 13.3122 14.3798 12C14.3798 10.6878 13.3122 9.62024 12 9.62024C10.6878 9.62024 9.62023 10.6878 9.62023 12C9.62023 13.3122 10.6878 14.3798 12 14.3798ZM12 14.0759C10.8553 14.0759 9.92404 13.1447 9.92404 12C9.92404 10.8553 10.8553 9.92405 12 9.92405C13.1447 9.92405 14.0759 10.8553 14.0759 12C14.0759 13.1447 13.1447 14.0759 12 14.0759ZM12 16C12.402 16 12.7291 15.6729 12.7291 15.2709V15.1475C13.0775 15.0674 13.4064 14.9311 13.71 14.7411L13.7973 14.8285C14.0816 15.1127 14.5441 15.1127 14.8284 14.8285C15.1127 14.5442 15.1127 14.0816 14.8284 13.7973L14.7411 13.71C14.9311 13.4065 15.0674 13.0775 15.1475 12.7291H15.2709C15.6729 12.7291 16 12.4021 16 12C16 11.598 15.6729 11.2709 15.2709 11.2709H15.1475C15.0674 10.9225 14.9311 10.5936 14.7411 10.2901L14.8285 10.2027C15.1127 9.91843 15.1127 9.45587 14.8285 9.17157C14.5442 8.88736 14.0816 8.88732 13.7973 9.17157L13.71 9.25892C13.4065 9.06896 13.0775 8.93266 12.7291 8.8525V8.72911C12.7291 8.32707 12.4021 8 12 8C11.598 8 11.2709 8.32707 11.2709 8.72911V8.85246C10.9225 8.93262 10.5936 9.06894 10.29 9.25888L10.2027 9.17153C9.91838 8.88728 9.45582 8.88732 9.17155 9.17153C8.88728 9.45582 8.88728 9.91838 9.17155 10.2027L9.2589 10.29C9.06898 10.5935 8.93266 10.9225 8.8525 11.2709H8.72911C8.32707 11.2709 8 11.5979 8 12C8 12.402 8.32707 12.7291 8.72911 12.7291H8.8525C8.93266 13.0775 9.06898 13.4064 9.2589 13.7099L9.17155 13.7973C8.88728 14.0816 8.88728 14.5441 9.17155 14.8284C9.45582 15.1127 9.91838 15.1127 10.2027 14.8284L10.29 14.7411C10.5935 14.931 10.9225 15.0673 11.2709 15.1475V15.2709C11.2709 15.6729 11.5979 16 12 16ZM12 15.6962C11.7655 15.6962 11.5747 15.5054 11.5747 15.2709V15.0242C11.5747 14.9512 11.5228 14.8886 11.4511 14.875C11.0566 14.8001 10.6879 14.6474 10.3553 14.4209C10.295 14.3799 10.214 14.3875 10.1624 14.4391L9.98788 14.6136C9.82205 14.7795 9.55221 14.7795 9.38641 14.6136C9.22057 14.4478 9.22057 14.1779 9.38641 14.0121L9.56093 13.8376C9.61251 13.786 9.62014 13.705 9.57908 13.6447C9.35263 13.3121 9.19989 12.9434 9.12503 12.5489C9.11144 12.4773 9.04876 12.4254 8.9758 12.4254H8.72911C8.4946 12.4254 8.30379 12.2346 8.30379 12C8.30379 11.7655 8.4946 11.5747 8.72911 11.5747H8.9758C9.04878 11.5747 9.11144 11.5228 9.12503 11.4511C9.19989 11.0566 9.35263 10.6879 9.57908 10.3553C9.62012 10.295 9.61251 10.2141 9.56093 10.1625L9.38641 9.98794C9.22057 9.8221 9.22057 9.55226 9.38641 9.38646C9.55225 9.22059 9.8221 9.22063 9.98788 9.38646L10.1624 9.56098C10.214 9.61256 10.295 9.62021 10.3553 9.57913C10.6879 9.3527 11.0566 9.19994 11.4511 9.1251C11.5228 9.11152 11.5747 9.04885 11.5747 8.97587V8.72911C11.5747 8.4946 11.7655 8.30379 12 8.30379C12.2345 8.30379 12.4253 8.4946 12.4253 8.72911V8.9758C12.4253 9.0488 12.4772 9.11144 12.5489 9.12503C12.9434 9.19986 13.3121 9.35261 13.6447 9.57908C13.705 9.62013 13.786 9.6125 13.8376 9.56091L14.0121 9.38639C14.1779 9.22057 14.4478 9.22055 14.6136 9.38641C14.7794 9.55224 14.7794 9.82208 14.6136 9.98788L14.4391 10.1624C14.3875 10.214 14.3798 10.295 14.4209 10.3553C14.6474 10.6879 14.8001 11.0566 14.8749 11.4511C14.8885 11.5228 14.9512 11.5747 15.0242 11.5747H15.2709C15.5054 11.5747 15.6962 11.7655 15.6962 12C15.6962 12.2345 15.5054 12.4253 15.2709 12.4253H15.0242C14.9512 12.4253 14.8886 12.4772 14.875 12.5489C14.8001 12.9434 14.6474 13.3121 14.4209 13.6447C14.3799 13.705 14.3875 13.786 14.4391 13.8376L14.6136 14.0121C14.7794 14.1779 14.7794 14.4478 14.6136 14.6136C14.4478 14.7794 14.1779 14.7794 14.0121 14.6136L13.8376 14.4391C13.8083 14.4097 13.7694 14.3946 13.7302 14.3946C13.7005 14.3946 13.6707 14.4032 13.6447 14.4209C13.3121 14.6474 12.9434 14.8001 12.5489 14.8749C12.4772 14.8885 12.4253 14.9512 12.4253 15.0242V15.2709C12.4253 15.5054 12.2345 15.6962 12 15.6962Z" fill="#CECECE"/>
</g>
<defs>
<clipPath id="clip0_312_1462">
<rect width="16" height="16" fill="white"/>
</clipPath>
</defs>
</svg>
