<svg width="16" height="16" viewBox="0 0 16 16" fill="none" xmlns="http://www.w3.org/2000/svg">
<path d="M5.3667 1.8493L11.0655 1.954L11.1452 14.1509H5.3667V1.8493Z" fill="#BBBBBB"/>
<path d="M8.15186 1.90045L11.0654 1.95398L11.145 14.1508H8.15186L8.15186 1.90045Z" fill="#A8A6A6"/>
<path d="M1.41992 1.84918L5.36641 1.84918V14.1509L1.41992 12.6149V1.84918Z" fill="#564F4F"/>
<path d="M6.05908 3.9494H10.5185V4.71635H6.05908V3.9494Z" fill="#564F4F"/>
<path d="M6.05908 5.45612H10.5185V6.22306H6.05908V5.45612Z" fill="#564F4F"/>
<path d="M6.05908 6.96283H10.5185V7.72978H6.05908V6.96283Z" fill="#564F4F"/>
<path d="M8.06885 3.9494H10.5182V4.71635H8.06885V3.9494Z" fill="#4C4646"/>
<path d="M8.06885 5.45612H10.5182V6.22306H8.06885V5.45612Z" fill="#4C4646"/>
<path d="M8.06885 6.96283H10.5182V7.72978H8.06885V6.96283Z" fill="#4C4646"/>
<path d="M8.97594 10.0137C8.97594 10.4688 8.60707 10.8376 8.15203 10.8376C7.697 10.8376 7.32812 10.4688 7.32812 10.0137C7.32812 9.5587 7.697 9.18982 8.15203 9.18982C8.60707 9.18982 8.97594 9.5587 8.97594 10.0137Z" fill="#5CAE36"/>
<path d="M8.15186 9.18983C8.37037 9.18983 8.57993 9.27663 8.73445 9.43114C8.88896 9.58566 8.97577 9.79522 8.97577 10.0137C8.97577 10.2323 8.88896 10.4418 8.73445 10.5963C8.57993 10.7508 8.37037 10.8376 8.15186 10.8376L8.15186 10.0137V9.18983Z" fill="#459321"/>
<path fill-rule="evenodd" clip-rule="evenodd" d="M9.2715 10.4243C9.53712 10.7183 10.2497 11.0769 11.1206 11.1835C12.4002 11.3407 13.6118 11.0456 14.4327 10.4566L14.4363 9.3818C13.9137 9.70487 12.9519 9.92134 11.8511 9.92134C10.7549 9.92134 9.7961 9.70595 9.27303 9.38557C9.27234 9.73162 9.27183 10.0777 9.2715 10.4237V10.4243ZM13.8139 10.362C13.8479 10.3971 13.8937 10.4166 13.9413 10.4162H13.9418C14.0419 10.4162 14.1237 10.3327 14.1237 10.2288C14.1237 10.1254 14.0419 10.042 13.9418 10.042C13.8417 10.042 13.76 10.1254 13.76 10.2288C13.7605 10.279 13.7799 10.3269 13.8139 10.362Z" fill="#DD726D"/>
<path fill-rule="evenodd" clip-rule="evenodd" d="M9.2715 11.0166V11.9648C9.53661 12.2593 10.2497 12.618 11.1206 12.7251C12.3976 12.8818 13.6067 12.5878 14.4276 12.0014L14.4307 11.0322C13.5562 11.5744 12.3251 11.8022 11.0803 11.6487C10.3098 11.5545 9.65366 11.3093 9.2715 11.0166ZM13.8139 11.9036C13.8479 11.9387 13.8937 11.9582 13.9413 11.9578H13.9418C14.0419 11.9578 14.1237 11.8738 14.1237 11.7704C14.1237 11.667 14.0419 11.583 13.9418 11.583C13.8417 11.583 13.76 11.667 13.76 11.7704C13.7605 11.8206 13.7799 11.8685 13.8139 11.9036Z" fill="#CD3D3C"/>
<path fill-rule="evenodd" clip-rule="evenodd" d="M9.27252 12.5582L9.27448 13.3235C9.4532 13.857 10.4436 14.2818 11.9078 14.2818C12.7174 14.2818 13.3518 14.1526 13.8397 13.8984C13.9766 13.8268 14.0808 13.7665 14.1829 13.6879C14.1932 13.68 14.2029 13.6726 14.2122 13.6655C14.2649 13.6252 14.3063 13.5936 14.3684 13.536C14.3893 13.5165 14.4092 13.4974 14.4281 13.4789L14.4251 12.5765C13.5516 13.1155 12.3226 13.3427 11.0803 13.1903C10.3108 13.0956 9.65468 12.8509 9.27252 12.5582ZM13.8724 13.5055C13.8943 13.5149 13.9177 13.5195 13.9413 13.5193L13.9418 13.5188C14.0419 13.5188 14.1237 13.4348 14.1237 13.3314C14.1237 13.228 14.0419 13.144 13.9418 13.144C13.8417 13.144 13.76 13.228 13.76 13.3314C13.7602 13.3563 13.765 13.3809 13.7742 13.4038C13.7835 13.4267 13.7969 13.4475 13.8137 13.465C13.8306 13.4824 13.8505 13.4962 13.8724 13.5055Z" fill="#C62D25"/>
<path d="M13.6926 9.20357C13.9096 9.12387 14.0767 9.03341 14.1809 8.94349C14.2524 8.88211 14.2749 8.84172 14.2749 8.82557C14.2749 8.80941 14.2524 8.76903 14.1809 8.7071C14.0767 8.61772 13.9102 8.52726 13.6926 8.44757C13.2165 8.27364 12.5575 8.17187 11.8511 8.17187C11.1446 8.17187 10.4857 8.27418 10.0096 8.44757C9.79252 8.52726 9.62549 8.61772 9.52128 8.70764C9.44977 8.76903 9.42729 8.80887 9.42729 8.82557C9.42729 8.84172 9.44977 8.8821 9.52128 8.94403C9.62549 9.03341 9.79201 9.12387 10.0096 9.20357C10.4857 9.37749 11.1446 9.47926 11.8511 9.47926C12.5575 9.47926 13.2165 9.37695 13.6926 9.20357Z" fill="#E54141"/>
<path fill-rule="evenodd" clip-rule="evenodd" d="M14.1809 8.94349C14.0767 9.03341 13.9096 9.12387 13.6926 9.20357C13.2165 9.37695 12.5575 9.47926 11.8511 9.47926C11.1446 9.47926 10.4857 9.37749 10.0096 9.20357C9.79201 9.12387 9.62549 9.03341 9.52128 8.94403C9.44977 8.8821 9.42729 8.84172 9.42729 8.82557C9.42729 8.80887 9.44977 8.76903 9.52128 8.70764C9.62549 8.61772 9.79252 8.52726 10.0096 8.44757C10.4857 8.27418 11.1446 8.17187 11.8511 8.17187C12.5575 8.17187 13.2165 8.27364 13.6926 8.44757C13.9102 8.52726 14.0767 8.61772 14.1809 8.7071C14.2524 8.76903 14.2749 8.80941 14.2749 8.82557C14.2749 8.84172 14.2524 8.88211 14.1809 8.94349ZM9.2715 11.0166V11.9648C9.53661 12.2593 10.2497 12.618 11.1206 12.7251C12.3976 12.8818 13.6067 12.5878 14.4276 12.0014L14.4307 11.0322C13.5562 11.5744 12.3251 11.8022 11.0803 11.6487C10.3098 11.5545 9.65366 11.3093 9.2715 11.0166ZM11.1206 11.1835C10.2497 11.0769 9.53712 10.7183 9.2715 10.4243V10.4237C9.27183 10.0777 9.27234 9.73162 9.27303 9.38557C9.7961 9.70595 10.7549 9.92134 11.8511 9.92134C12.9519 9.92134 13.9137 9.70487 14.4363 9.3818L14.4327 10.4566C13.6118 11.0456 12.4002 11.3407 11.1206 11.1835ZM9.27252 12.5582L9.27448 13.3235C9.4532 13.857 10.4436 14.2818 11.9078 14.2818C12.7174 14.2818 13.3518 14.1526 13.8397 13.8984C13.9766 13.8268 14.0808 13.7665 14.1829 13.6879C14.1932 13.68 14.2029 13.6726 14.2122 13.6655C14.2649 13.6252 14.3063 13.5936 14.3684 13.536C14.3893 13.5165 14.4092 13.4974 14.4281 13.4789L14.4281 13.4923C14.4279 13.5459 14.4279 13.5459 14.449 13.561C14.4702 13.5761 14.5125 13.6064 14.5969 13.7204C14.7113 13.721 14.8204 13.7204 14.8204 13.7204C14.8204 13.7204 14.5078 13.9517 14.4281 14.0131C14.3091 14.1046 14.1737 14.2 14.0174 14.2818C13.479 14.5623 12.9304 14.7298 11.9078 14.7298C10.2042 14.7298 9.0779 14.1617 8.86234 13.4106L8.85468 13.3836V13.3556L8.85161 12.219C8.85039 11.1007 8.85124 9.98254 8.85417 8.86434C8.85287 8.85146 8.85219 8.83852 8.85212 8.82557C8.85263 8.22034 10.195 7.7298 11.8511 7.7298C13.5071 7.7298 14.8495 8.22034 14.8495 8.82557C14.8497 8.84921 14.8478 8.87282 14.8439 8.89611C14.8488 8.91302 14.8512 8.93064 14.8511 8.94834L14.8204 13.7204C14.5969 13.4849 14.6964 13.3314 14.6964 13.3314C14.6426 13.2674 14.5701 13.339 14.4598 13.4478C14.4495 13.4579 14.439 13.4683 14.4281 13.4789L14.4251 12.5765C13.5516 13.1155 12.3226 13.3427 11.0803 13.1903C10.3108 13.0956 9.65468 12.8509 9.27252 12.5582ZM13.8139 10.362C13.8479 10.3971 13.8937 10.4166 13.9413 10.4162H13.9418C14.0419 10.4162 14.1237 10.3327 14.1237 10.2288C14.1237 10.1254 14.0419 10.042 13.9418 10.042C13.8417 10.042 13.76 10.1254 13.76 10.2288C13.7605 10.279 13.7799 10.3269 13.8139 10.362ZM13.8139 11.9036C13.8479 11.9387 13.8937 11.9582 13.9413 11.9578H13.9418C14.0419 11.9578 14.1237 11.8738 14.1237 11.7704C14.1237 11.667 14.0419 11.583 13.9418 11.583C13.8417 11.583 13.76 11.667 13.76 11.7704C13.7605 11.8206 13.7799 11.8685 13.8139 11.9036ZM13.8724 13.5055C13.8943 13.5149 13.9177 13.5195 13.9413 13.5193L13.9418 13.5188C14.0419 13.5188 14.1237 13.4348 14.1237 13.3314C14.1237 13.228 14.0419 13.144 13.9418 13.144C13.8417 13.144 13.76 13.228 13.76 13.3314C13.7602 13.3563 13.765 13.3809 13.7742 13.4038C13.7835 13.4267 13.7969 13.4475 13.8137 13.465C13.8306 13.4824 13.8505 13.4962 13.8724 13.5055Z" fill="#212121"/>
<path d="M14.8204 13.7204C14.5969 13.4849 14.6964 13.3314 14.6964 13.3314C14.6426 13.2674 14.5701 13.339 14.4598 13.4478L14.4281 13.4789L14.4281 13.4923C14.4279 13.5459 14.4279 13.5459 14.449 13.561C14.4702 13.5761 14.5125 13.6064 14.5969 13.7204C14.7113 13.721 14.8204 13.7204 14.8204 13.7204Z" fill="#212121"/>
<path d="M13.1021 15.8098C14.7026 15.8098 16.0001 14.5123 16.0001 12.9117C16.0001 11.3112 14.7026 10.0137 13.1021 10.0137C11.5016 10.0137 10.2041 11.3112 10.2041 12.9117C10.2041 14.5123 11.5016 15.8098 13.1021 15.8098Z" fill="#554646"/>
<path fill-rule="evenodd" clip-rule="evenodd" d="M15.2737 12.3952C15.5404 12.1093 15.5249 11.6612 15.2389 11.3945C14.9529 11.1277 14.5049 11.1433 14.2381 11.4293L12.7435 13.0315L11.9191 12.2907C11.6289 12.0299 11.1821 12.0537 10.9213 12.344C10.6604 12.6342 10.6843 13.081 10.9745 13.3418L12.2763 14.5117C12.278 14.5132 12.2796 14.5147 12.2813 14.5161C12.289 14.5241 12.297 14.5318 12.3052 14.5395C12.5911 14.8062 13.0392 14.7907 13.306 14.5047L15.2737 12.3952Z" fill="#28EA3C"/>
<path fill-rule="evenodd" clip-rule="evenodd" d="M12.762 13.4515L11.7186 12.5139C11.5516 12.3638 11.2945 12.3775 11.1444 12.5445C10.9943 12.7115 11.008 12.9686 11.1751 13.1187L12.4769 14.2886L12.4798 14.2912L12.4881 14.2985L12.4959 14.3065C12.5004 14.3111 12.505 14.3156 12.5098 14.3201C12.6746 14.4738 12.9329 14.4649 13.0866 14.3001L15.0543 12.1906C15.2081 12.0258 15.1991 11.7676 15.0343 11.6138C14.8695 11.4601 14.6112 11.4691 14.4575 11.6339L12.762 13.4515ZM12.2763 14.5117L10.9745 13.3418C10.6843 13.081 10.6604 12.6342 10.9213 12.344C11.1821 12.0537 11.6289 12.0299 11.9191 12.2907L12.7435 13.0315L14.2381 11.4293C14.5049 11.1433 14.9529 11.1277 15.2389 11.3945C15.5249 11.6612 15.5404 12.1093 15.2737 12.3952L13.306 14.5047C13.0392 14.7907 12.5911 14.8062 12.3052 14.5395C12.297 14.5318 12.289 14.5241 12.2813 14.5161L12.2763 14.5117Z" fill="#1C7E26"/>
</svg>
