<svg width="16" height="16" viewBox="0 0 16 16" fill="none" xmlns="http://www.w3.org/2000/svg">
<path fill-rule="evenodd" clip-rule="evenodd" d="M2.84085 6.38892C3.37209 6.97692 4.79725 7.69415 6.5391 7.90738C9.09826 8.22185 11.5215 7.63169 13.1633 6.45354L13.1704 4.304C12.1253 4.95015 10.2016 5.38308 8.00002 5.38308C5.80763 5.38308 3.89005 4.95231 2.84391 4.31154C2.84254 5.00364 2.84152 5.69574 2.84085 6.38785V6.38892ZM11.9257 6.26441C11.9936 6.33466 12.0853 6.37363 12.1805 6.37277H12.1815C12.3817 6.37277 12.5452 6.20585 12.5452 5.998C12.5452 5.79123 12.3817 5.62431 12.1815 5.62431C11.9813 5.62431 11.8178 5.79123 11.8178 5.998C11.8189 6.09835 11.8577 6.19416 11.9257 6.26441Z" fill="#DD726D"/>
<path fill-rule="evenodd" clip-rule="evenodd" d="M2.84085 7.57354V9.47C3.37107 10.0591 4.79725 10.7763 6.5391 10.9906C9.09315 11.304 11.5113 10.716 13.1531 9.54323L13.1592 7.60477C11.4102 8.68923 8.94808 9.14477 6.4584 8.83785C4.91746 8.64947 3.60517 8.15904 2.84085 7.57354ZM11.9257 9.34764C11.9936 9.41789 12.0853 9.45686 12.1805 9.456H12.1815C12.3817 9.456 12.5452 9.288 12.5452 9.08123C12.5452 8.87446 12.3817 8.70646 12.1815 8.70646C11.9813 8.70646 11.8178 8.87446 11.8178 9.08123C11.8189 9.18158 11.8577 9.27739 11.9257 9.34764Z" fill="#CD3D3C"/>
<path fill-rule="evenodd" clip-rule="evenodd" d="M2.84289 10.6568L2.84682 12.1874C3.20425 13.2545 5.18501 14.104 8.11342 14.104C9.73268 14.104 11.0015 13.8455 11.9772 13.3372C12.251 13.194 12.4594 13.0734 12.6637 12.9162C12.6842 12.9004 12.7036 12.8856 12.7223 12.8713C12.8277 12.7909 12.9105 12.7277 13.0346 12.6125C13.0765 12.5735 13.1163 12.5352 13.154 12.4983L13.148 10.6934C11.401 11.7714 8.94297 12.2258 6.4584 11.9211C4.91951 11.7316 3.60721 11.2423 2.84289 10.6568ZM12.0426 12.5515C12.0864 12.5701 12.1333 12.5795 12.1805 12.5791L12.1815 12.578C12.3817 12.578 12.5452 12.41 12.5452 12.2032C12.5452 11.9965 12.3817 11.8285 12.1815 11.8285C11.9813 11.8285 11.8178 11.9965 11.8178 12.2032C11.8182 12.253 11.8279 12.3022 11.8463 12.3481C11.8648 12.3939 11.8916 12.4354 11.9253 12.4703C11.959 12.5052 11.9988 12.5328 12.0426 12.5515Z" fill="#C62D25"/>
<path d="M11.683 3.94754C12.1171 3.78815 12.4512 3.60723 12.6596 3.42738C12.8026 3.30462 12.8476 3.22385 12.8476 3.19154C12.8476 3.15923 12.8026 3.07846 12.6596 2.95462C12.4512 2.77585 12.1182 2.59492 11.683 2.43554C10.7308 2.08769 9.41292 1.88415 8.00002 1.88415C6.58712 1.88415 5.26923 2.08877 4.31709 2.43554C3.8829 2.59492 3.54883 2.77585 3.34042 2.95569C3.19739 3.07846 3.15244 3.15815 3.15244 3.19154C3.15244 3.22385 3.19739 3.30462 3.34042 3.42846C3.54883 3.60723 3.88188 3.78815 4.31709 3.94754C5.26923 4.29538 6.58712 4.49892 8.00002 4.49892C9.41292 4.49892 10.7308 4.29431 11.683 3.94754Z" fill="#E54141"/>
<path fill-rule="evenodd" clip-rule="evenodd" d="M12.6596 3.42738C12.4512 3.60723 12.1171 3.78815 11.683 3.94754C10.7308 4.29431 9.41292 4.49892 8.00002 4.49892C6.58712 4.49892 5.26923 4.29538 4.31709 3.94754C3.88188 3.78815 3.54883 3.60723 3.34042 3.42846C3.19739 3.30462 3.15244 3.22385 3.15244 3.19154C3.15244 3.15815 3.19739 3.07846 3.34042 2.95569C3.54883 2.77585 3.8829 2.59492 4.31709 2.43554C5.26923 2.08877 6.58712 1.88415 8.00002 1.88415C9.41292 1.88415 10.7308 2.08769 11.683 2.43554C12.1182 2.59492 12.4512 2.77585 12.6596 2.95462C12.8026 3.07846 12.8476 3.15923 12.8476 3.19154C12.8476 3.22385 12.8026 3.30462 12.6596 3.42738ZM2.84085 7.57354V9.47C3.37107 10.0591 4.79725 10.7763 6.5391 10.9906C9.09315 11.304 11.5113 10.716 13.1531 9.54323L13.1592 7.60477C11.4102 8.68923 8.94808 9.14477 6.4584 8.83785C4.91746 8.64947 3.60517 8.15904 2.84085 7.57354ZM6.5391 7.90738C4.79725 7.69415 3.37209 6.97692 2.84085 6.38892V6.38785C2.84152 5.69574 2.84254 5.00364 2.84391 4.31154C3.89005 4.95231 5.80763 5.38308 8.00002 5.38308C10.2016 5.38308 12.1253 4.95015 13.1704 4.304L13.1633 6.45354C11.5215 7.63169 9.09826 8.22185 6.5391 7.90738ZM2.84289 10.6568L2.84682 12.1874C3.20425 13.2545 5.18501 14.104 8.11342 14.104C9.73268 14.104 11.0015 13.8455 11.9772 13.3372C12.251 13.194 12.4594 13.0734 12.6637 12.9162C12.6842 12.9004 12.7036 12.8856 12.7223 12.8713C12.8277 12.7909 12.9105 12.7277 13.0346 12.6125C13.0765 12.5735 13.1163 12.5352 13.154 12.4983L13.1541 12.525C13.1536 12.6321 13.1536 12.6321 13.1959 12.6624C13.2382 12.6926 13.3229 12.7531 13.4917 12.9813C13.7205 12.9824 13.9387 12.9813 13.9387 12.9813C13.9387 12.9813 13.3135 13.4438 13.1541 13.5666C12.916 13.7497 12.6453 13.9403 12.3327 14.104C11.2559 14.6651 10.1587 15 8.11342 15C4.70632 15 2.45365 13.8638 2.02253 12.3615L2.00721 12.3077V12.2517L2.00108 9.97831C1.99864 7.7419 2.00034 5.50548 2.00619 3.26908C2.0036 3.24332 2.00223 3.21744 2.0021 3.19154C2.00312 1.98108 4.68793 1 8.00002 1C11.3121 1 13.9969 1.98108 13.9969 3.19154C13.9972 3.23883 13.9935 3.28605 13.9857 3.33262C13.9955 3.36646 14.0003 3.40169 14 3.43708L13.9387 12.9813C13.4917 12.5101 13.6907 12.2032 13.6907 12.2032C13.5831 12.0752 13.438 12.2183 13.2174 12.436C13.1969 12.4561 13.1758 12.477 13.154 12.4983L13.148 10.6934C11.401 11.7714 8.94297 12.2258 6.4584 11.9211C4.91951 11.7316 3.60721 11.2423 2.84289 10.6568ZM11.9257 6.26441C11.9936 6.33466 12.0853 6.37363 12.1805 6.37277H12.1815C12.3817 6.37277 12.5452 6.20585 12.5452 5.998C12.5452 5.79123 12.3817 5.62431 12.1815 5.62431C11.9813 5.62431 11.8178 5.79123 11.8178 5.998C11.8189 6.09835 11.8577 6.19416 11.9257 6.26441ZM11.9257 9.34764C11.9936 9.41789 12.0853 9.45686 12.1805 9.456H12.1815C12.3817 9.456 12.5452 9.288 12.5452 9.08123C12.5452 8.87446 12.3817 8.70646 12.1815 8.70646C11.9813 8.70646 11.8178 8.87446 11.8178 9.08123C11.8189 9.18158 11.8577 9.27739 11.9257 9.34764ZM12.0426 12.5515C12.0864 12.5701 12.1333 12.5795 12.1805 12.5791L12.1815 12.578C12.3817 12.578 12.5452 12.41 12.5452 12.2032C12.5452 11.9965 12.3817 11.8285 12.1815 11.8285C11.9813 11.8285 11.8178 11.9965 11.8178 12.2032C11.8182 12.253 11.8279 12.3022 11.8463 12.3481C11.8648 12.3939 11.8916 12.4354 11.9253 12.4703C11.959 12.5052 11.9988 12.5328 12.0426 12.5515Z" fill="#212121"/>
<path d="M13.9387 12.9813C13.4917 12.5101 13.6907 12.2032 13.6907 12.2032C13.5831 12.0752 13.438 12.2183 13.2174 12.436L13.154 12.4983L13.1541 12.525C13.1536 12.6321 13.1536 12.6321 13.1959 12.6624C13.2382 12.6926 13.3229 12.7531 13.4917 12.9813C13.7205 12.9824 13.9387 12.9813 13.9387 12.9813Z" fill="#212121"/>
</svg>
