<svg width="17" height="16" viewBox="0 0 17 16" fill="none" xmlns="http://www.w3.org/2000/svg">
<path fill-rule="evenodd" clip-rule="evenodd" d="M3.59085 6.38892C4.12209 6.97692 5.54725 7.69415 7.2891 7.90738C9.84826 8.22185 12.2715 7.63169 13.9133 6.45354L13.9204 4.304C12.8753 4.95015 10.9516 5.38308 8.75002 5.38308C6.55763 5.38308 4.64005 4.95231 3.59391 4.31154C3.59254 5.00364 3.59152 5.69574 3.59085 6.38785V6.38892ZM12.6757 6.26441C12.7436 6.33466 12.8353 6.37363 12.9305 6.37277H12.9315C13.1317 6.37277 13.2952 6.20585 13.2952 5.998C13.2952 5.79123 13.1317 5.62431 12.9315 5.62431C12.7313 5.62431 12.5678 5.79123 12.5678 5.998C12.5689 6.09835 12.6077 6.19416 12.6757 6.26441Z" fill="#DD726D"/>
<path fill-rule="evenodd" clip-rule="evenodd" d="M3.59085 7.57354V9.47C4.12107 10.0591 5.54725 10.7763 7.2891 10.9906C9.84315 11.304 12.2613 10.716 13.9031 9.54323L13.9092 7.60477C12.1602 8.68923 9.69808 9.14477 7.2084 8.83785C5.66746 8.64947 4.35517 8.15904 3.59085 7.57354ZM12.6757 9.34764C12.7436 9.41789 12.8353 9.45686 12.9305 9.456H12.9315C13.1317 9.456 13.2952 9.288 13.2952 9.08123C13.2952 8.87446 13.1317 8.70646 12.9315 8.70646C12.7313 8.70646 12.5678 8.87446 12.5678 9.08123C12.5689 9.18158 12.6077 9.27739 12.6757 9.34764Z" fill="#CD3D3C"/>
<path fill-rule="evenodd" clip-rule="evenodd" d="M3.59289 10.6568L3.59682 12.1874C3.95425 13.2545 5.93501 14.104 8.86342 14.104C10.4827 14.104 11.7515 13.8455 12.7272 13.3372C13.001 13.194 13.2094 13.0734 13.4137 12.9162C13.4342 12.9004 13.4536 12.8856 13.4723 12.8713C13.5777 12.7909 13.6605 12.7277 13.7846 12.6125C13.8265 12.5735 13.8663 12.5352 13.904 12.4983L13.898 10.6934C12.151 11.7714 9.69297 12.2258 7.2084 11.9211C5.66951 11.7316 4.35721 11.2423 3.59289 10.6568ZM12.7926 12.5515C12.8364 12.5701 12.8833 12.5795 12.9305 12.5791L12.9315 12.578C13.1317 12.578 13.2952 12.41 13.2952 12.2032C13.2952 11.9965 13.1317 11.8285 12.9315 11.8285C12.7313 11.8285 12.5678 11.9965 12.5678 12.2032C12.5682 12.253 12.5779 12.3022 12.5963 12.3481C12.6148 12.3939 12.6416 12.4354 12.6753 12.4703C12.709 12.5052 12.7488 12.5328 12.7926 12.5515Z" fill="#C62D25"/>
<path d="M12.433 3.94754C12.8671 3.78815 13.2012 3.60723 13.4096 3.42738C13.5526 3.30462 13.5976 3.22385 13.5976 3.19154C13.5976 3.15923 13.5526 3.07846 13.4096 2.95462C13.2012 2.77585 12.8682 2.59492 12.433 2.43554C11.4808 2.08769 10.1629 1.88415 8.75002 1.88415C7.33712 1.88415 6.01923 2.08877 5.06709 2.43554C4.6329 2.59492 4.29883 2.77585 4.09042 2.95569C3.94739 3.07846 3.90244 3.15815 3.90244 3.19154C3.90244 3.22385 3.94739 3.30462 4.09042 3.42846C4.29883 3.60723 4.63188 3.78815 5.06709 3.94754C6.01923 4.29538 7.33712 4.49892 8.75002 4.49892C10.1629 4.49892 11.4808 4.29431 12.433 3.94754Z" fill="#E54141"/>
<path fill-rule="evenodd" clip-rule="evenodd" d="M13.4096 3.42738C13.2012 3.60723 12.8671 3.78815 12.433 3.94754C11.4808 4.29431 10.1629 4.49892 8.75002 4.49892C7.33712 4.49892 6.01923 4.29538 5.06709 3.94754C4.63188 3.78815 4.29883 3.60723 4.09042 3.42846C3.94739 3.30462 3.90244 3.22385 3.90244 3.19154C3.90244 3.15815 3.94739 3.07846 4.09042 2.95569C4.29883 2.77585 4.6329 2.59492 5.06709 2.43554C6.01923 2.08877 7.33712 1.88415 8.75002 1.88415C10.1629 1.88415 11.4808 2.08769 12.433 2.43554C12.8682 2.59492 13.2012 2.77585 13.4096 2.95462C13.5526 3.07846 13.5976 3.15923 13.5976 3.19154C13.5976 3.22385 13.5526 3.30462 13.4096 3.42738ZM3.59085 7.57354V9.47C4.12107 10.0591 5.54725 10.7763 7.2891 10.9906C9.84315 11.304 12.2613 10.716 13.9031 9.54323L13.9092 7.60477C12.1602 8.68923 9.69808 9.14477 7.2084 8.83785C5.66746 8.64947 4.35517 8.15904 3.59085 7.57354ZM7.2891 7.90738C5.54725 7.69415 4.12209 6.97692 3.59085 6.38892V6.38785C3.59152 5.69574 3.59254 5.00364 3.59391 4.31154C4.64005 4.95231 6.55763 5.38308 8.75002 5.38308C10.9516 5.38308 12.8753 4.95015 13.9204 4.304L13.9133 6.45354C12.2715 7.63169 9.84826 8.22185 7.2891 7.90738ZM3.59289 10.6568L3.59682 12.1874C3.95425 13.2545 5.93501 14.104 8.86342 14.104C10.4827 14.104 11.7515 13.8455 12.7272 13.3372C13.001 13.194 13.2094 13.0734 13.4137 12.9162C13.4342 12.9004 13.4536 12.8856 13.4723 12.8713C13.5777 12.7909 13.6605 12.7277 13.7846 12.6125C13.8265 12.5735 13.8663 12.5352 13.904 12.4983L13.9041 12.525C13.9036 12.6321 13.9036 12.6321 13.9459 12.6624C13.9882 12.6926 14.0729 12.7531 14.2417 12.9813C14.4705 12.9824 14.6887 12.9813 14.6887 12.9813C14.6887 12.9813 14.0635 13.4438 13.9041 13.5666C13.666 13.7497 13.3953 13.9403 13.0827 14.104C12.0059 14.6651 10.9087 15 8.86342 15C5.45632 15 3.20365 13.8638 2.77253 12.3615L2.75721 12.3077V12.2517L2.75108 9.97831C2.74864 7.7419 2.75034 5.50548 2.75619 3.26908C2.7536 3.24332 2.75223 3.21744 2.7521 3.19154C2.75312 1.98108 5.43793 1 8.75002 1C12.0621 1 14.7469 1.98108 14.7469 3.19154C14.7472 3.23883 14.7435 3.28605 14.7357 3.33262C14.7455 3.36646 14.7503 3.40169 14.75 3.43708L14.6887 12.9813C14.2417 12.5101 14.4407 12.2032 14.4407 12.2032C14.3331 12.0752 14.188 12.2183 13.9674 12.436C13.9469 12.4561 13.9258 12.477 13.904 12.4983L13.898 10.6934C12.151 11.7714 9.69297 12.2258 7.2084 11.9211C5.66951 11.7316 4.35721 11.2423 3.59289 10.6568ZM12.6757 6.26441C12.7436 6.33466 12.8353 6.37363 12.9305 6.37277H12.9315C13.1317 6.37277 13.2952 6.20585 13.2952 5.998C13.2952 5.79123 13.1317 5.62431 12.9315 5.62431C12.7313 5.62431 12.5678 5.79123 12.5678 5.998C12.5689 6.09835 12.6077 6.19416 12.6757 6.26441ZM12.6757 9.34764C12.7436 9.41789 12.8353 9.45686 12.9305 9.456H12.9315C13.1317 9.456 13.2952 9.288 13.2952 9.08123C13.2952 8.87446 13.1317 8.70646 12.9315 8.70646C12.7313 8.70646 12.5678 8.87446 12.5678 9.08123C12.5689 9.18158 12.6077 9.27739 12.6757 9.34764ZM12.7926 12.5515C12.8364 12.5701 12.8833 12.5795 12.9305 12.5791L12.9315 12.578C13.1317 12.578 13.2952 12.41 13.2952 12.2032C13.2952 11.9965 13.1317 11.8285 12.9315 11.8285C12.7313 11.8285 12.5678 11.9965 12.5678 12.2032C12.5682 12.253 12.5779 12.3022 12.5963 12.3481C12.6148 12.3939 12.6416 12.4354 12.6753 12.4703C12.709 12.5052 12.7488 12.5328 12.7926 12.5515Z" fill="#212121"/>
<path d="M14.6887 12.9813C14.2417 12.5101 14.4407 12.2032 14.4407 12.2032C14.3331 12.0752 14.188 12.2183 13.9674 12.436L13.904 12.4983L13.9041 12.525C13.9036 12.6321 13.9036 12.6321 13.9459 12.6624C13.9882 12.6926 14.0729 12.7531 14.2417 12.9813C14.4705 12.9824 14.6887 12.9813 14.6887 12.9813Z" fill="#212121"/>
</svg>
