<svg width="16" height="16" viewBox="0 0 16 16" fill="none" xmlns="http://www.w3.org/2000/svg">
<path d="M12.6954 14.6701H3.45282L3.42391 14.2659C3.39794 13.903 2.78772 5.36891 2.74705 4.48182L2.72656 4.03522H13.4217L13.4012 4.48182C13.3605 5.36891 12.7502 13.903 12.7243 14.2659L12.6954 14.6701Z" fill="#8B8B8B"/>
<path d="M12.695 14.6701H8.07373L8.07422 4.03522H13.4213L13.4008 4.48182C13.3601 5.36891 12.7499 13.903 12.7239 14.2659L12.695 14.6701Z" fill="#6F6F6F"/>
<path d="M8.58508 5.80823H7.5625V13.0211H8.58508V5.80823Z" fill="#6F6F6F"/>
<path d="M8.58552 5.80823H8.07422V13.0211H8.58552V5.80823Z" fill="#444444"/>
<path d="M4.92003 5.84219L5.3667 13.0429L6.38781 12.9981L5.94114 5.79738L4.92003 5.84219Z" fill="#6F6F6F"/>
<path d="M9.76062 12.998L10.7817 13.0428L11.2284 5.84207L10.2073 5.79726L9.76062 12.998Z" fill="#444444"/>
<path d="M7.24917 2.87479L6.22656 2.8747L6.22672 1H9.92139V2.87473H8.89878V2.02258H7.24923L7.24917 2.87479Z" fill="#8B8B8B"/>
<path d="M8.07471 1H9.92163V2.87473H8.89902V2.02258H8.07422L8.07471 1Z" fill="#6F6F6F"/>
<path d="M14.0391 5.05782H2.10889V2.36346H14.0391L14.0391 5.05782Z" fill="#6F6F6F"/>
<path d="M14.0393 5.05782H8.07471V2.36346H14.0393V5.05782Z" fill="#444444"/>
</svg>
