<svg width="16" height="16" viewBox="0 0 16 16" fill="none" xmlns="http://www.w3.org/2000/svg">
<path d="M15 8C15 11.866 11.866 15 8 15C4.13401 15 1 11.866 1 8C1 4.13401 4.13401 1 8 1C11.866 1 15 4.13401 15 8Z" fill="#E23B3A"/>
<path fill-rule="evenodd" clip-rule="evenodd" d="M8 14.5C11.5899 14.5 14.5 11.5899 14.5 8C14.5 4.41015 11.5899 1.5 8 1.5C4.41015 1.5 1.5 4.41015 1.5 8C1.5 11.5899 4.41015 14.5 8 14.5ZM8 15C11.866 15 15 11.866 15 8C15 4.13401 11.866 1 8 1C4.13401 1 1 4.13401 1 8C1 11.866 4.13401 15 8 15Z" fill="#212121"/>
<path d="M3.72461 8.00002C3.72461 7.35283 4.24926 6.82819 4.89644 6.82819H11.104C11.7512 6.82819 12.2758 7.35283 12.2758 8.00002V8.00002C12.2758 8.6472 11.7512 9.17184 11.104 9.17184H4.89644C4.24926 9.17184 3.72461 8.6472 3.72461 8.00002V8.00002Z" fill="white"/>
<path fill-rule="evenodd" clip-rule="evenodd" d="M11.104 6.92819H4.89644C4.30448 6.92819 3.82461 7.40806 3.82461 8.00002C3.82461 8.59197 4.30448 9.07184 4.89644 9.07184H11.104C11.6959 9.07184 12.1758 8.59197 12.1758 8.00002C12.1758 7.40806 11.6959 6.92819 11.104 6.92819ZM4.89644 6.82819C4.24926 6.82819 3.72461 7.35283 3.72461 8.00002C3.72461 8.6472 4.24926 9.17184 4.89644 9.17184H11.104C11.7512 9.17184 12.2758 8.6472 12.2758 8.00002C12.2758 7.35283 11.7512 6.82819 11.104 6.82819H4.89644Z" fill="#072E0B"/>
</svg>
