<svg width="16" height="16" viewBox="0 0 16 16" fill="none" xmlns="http://www.w3.org/2000/svg">
<path fill-rule="evenodd" clip-rule="evenodd" d="M9.73204 3.13724C9.21628 3.06821 8.69707 3.19889 8.24415 3.63665L8.21238 3.66791L6.37338 5.46511C6.16357 5.67015 5.82726 5.66628 5.62222 5.45647C5.41718 5.24666 5.42104 4.91036 5.63085 4.70532L7.46777 2.91016C7.47968 2.89826 7.49166 2.88649 7.50368 2.87485C8.20582 2.19499 9.05622 1.97495 9.87296 2.08426C10.6734 2.19138 11.4237 2.60993 11.9946 3.17645C12.5655 3.74305 12.9914 4.49187 13.0979 5.30079C13.2066 6.12689 12.9764 6.98706 12.2833 7.71289C10.891 9.17097 10.4895 9.5596 9.83695 10.1912C9.39928 10.6148 8.84868 11.1477 7.81046 12.186C7.05104 12.9454 6.15886 13.2385 5.29537 13.1678C4.4471 13.0984 3.6667 12.6823 3.08688 12.0963C2.50707 11.5103 2.09898 10.7252 2.03145 9.87855C1.96274 9.01709 2.25069 8.12724 3.00122 7.37671C3.20866 7.16927 3.54498 7.16927 3.75242 7.37671C3.95986 7.58415 3.95986 7.92047 3.75242 8.12791C3.21953 8.66081 3.04675 9.24619 3.09045 9.79408C3.13533 10.3567 3.41279 10.9152 3.84208 11.3491C4.27137 11.783 4.82364 12.0633 5.38202 12.109C5.92518 12.1534 6.51363 11.9804 7.05925 11.4347C8.12603 10.368 8.67853 9.8335 9.11265 9.41355C9.75044 8.79658 10.1327 8.42677 11.515 6.97921C11.9788 6.49345 12.1127 5.95694 12.0446 5.43945C11.9742 4.90479 11.6822 4.36312 11.2463 3.93053C10.8103 3.49787 10.2647 3.20852 9.73204 3.13724Z" fill="#525252"/>
<path fill-rule="evenodd" clip-rule="evenodd" d="M10.3561 3.60849C9.84031 3.53946 9.3211 3.67014 8.86818 4.1079L8.8364 4.13917L6.9974 5.93636C6.78759 6.1414 6.45128 6.13754 6.24624 5.92773C6.0412 5.71792 6.04507 5.38161 6.25488 5.17657L8.09179 3.38141C8.10371 3.36952 8.11568 3.35775 8.12771 3.3461C8.82984 2.66624 9.68025 2.4462 10.497 2.55551C11.2974 2.66263 12.0477 3.08118 12.6186 3.64771C13.1896 4.2143 13.6154 4.96312 13.7219 5.77204C13.8306 6.59814 13.6004 7.45831 12.9073 8.18414C11.515 9.64222 11.1135 10.0308 10.461 10.6624C10.0233 11.0861 9.4727 11.619 8.43449 12.6572C7.67506 13.4166 6.78288 13.7097 5.91939 13.639C5.07112 13.5696 4.29072 13.1536 3.71091 12.5675C3.13109 11.9815 2.72301 11.1965 2.65547 10.3498C2.58676 9.48834 2.87471 8.59849 3.62524 7.84796C3.83268 7.64052 4.16901 7.64052 4.37645 7.84796C4.58389 8.0554 4.58389 8.39173 4.37645 8.59917C3.84355 9.13206 3.67078 9.71744 3.71448 10.2653C3.75935 10.828 4.03681 11.3864 4.46611 11.8203C4.89539 12.2542 5.44766 12.5345 6.00604 12.5802C6.5492 12.6247 7.13766 12.4516 7.68328 11.906C8.75006 10.8392 9.30255 10.3048 9.73667 9.88481C10.3745 9.26783 10.7568 8.89802 12.139 7.45047C12.6029 6.9647 12.7367 6.42819 12.6686 5.9107C12.5982 5.37604 12.3062 4.83438 11.8703 4.40179C11.4343 3.96912 10.8887 3.67978 10.3561 3.60849Z" fill="#AEAEAE"/>
<path fill-rule="evenodd" clip-rule="evenodd" d="M2.63867 4.16459C2.83202 3.96744 3.14859 3.96436 3.34574 4.15772L11.8507 12.499C12.0479 12.6923 12.051 13.0089 11.8576 13.206C11.6643 13.4032 11.3477 13.4063 11.1505 13.2129L2.64554 4.87166C2.44839 4.67831 2.44531 4.36174 2.63867 4.16459Z" fill="black"/>
</svg>
