<svg width="16" height="16" viewBox="0 0 16 16" fill="none" xmlns="http://www.w3.org/2000/svg">
<path d="M9.00148 14.034L12.1298 9.46022C12.2517 9.25625 12.3219 9.02564 12.3344 8.78838C12.3469 8.55112 12.3014 8.31439 12.2017 8.09873C12.102 7.88307 11.9512 7.69499 11.7623 7.55082C11.5735 7.40665 11.3523 7.31074 11.118 7.27142L9.46608 7.27142L9.45576 2.98513C9.45461 2.59939 9.30087 2.22978 9.02811 1.95702C8.75535 1.68426 8.38574 1.53051 8 1.52937C7.61426 1.53052 7.24465 1.68426 6.97189 1.95702C6.69913 2.22978 6.54539 2.59939 6.54424 2.98512L6.53392 7.27142L4.88199 7.27142C4.64768 7.31074 4.4265 7.40665 4.23766 7.55082C4.04881 7.69499 3.898 7.88306 3.7983 8.09873C3.69861 8.31439 3.65305 8.55112 3.66558 8.78838C3.67811 9.02564 3.74834 9.25625 3.87019 9.46022L6.99852 14.034C7.10743 14.2002 7.256 14.3367 7.43084 14.4312C7.60567 14.5256 7.80127 14.5751 8 14.5751C8.19873 14.5751 8.39433 14.5256 8.56916 14.4312C8.744 14.3367 8.89257 14.2002 9.00148 14.034Z" fill="#28EA3C"/>
</svg>
