<svg width="16" height="16" viewBox="0 0 16 16" fill="none" xmlns="http://www.w3.org/2000/svg">
<path d="M13.8857 3.8907C13.8887 3.89347 13.8904 3.89736 13.8904 3.90143V14.0406C13.8904 14.5928 13.4427 15.0406 12.8904 15.0406H3.10986C2.55758 15.0406 2.10986 14.5928 2.10986 14.0406V1.95947C2.10986 1.40719 2.55758 0.959473 3.10986 0.959473H10.3517C10.605 0.959473 10.8489 1.05562 11.0341 1.2285L13.8857 3.8907V3.8907Z" fill="#FC7B24"/>
<path d="M3.22217 3.09345C3.22217 2.61903 3.60676 2.23444 4.08118 2.23444L10.3889 2.23444C10.7551 2.23444 11.0139 2.5927 10.8989 2.94032V2.94032C10.7688 3.33361 11.1141 3.71992 11.5194 3.63471L11.8768 3.55959C12.3412 3.46197 12.7778 3.81632 12.7778 4.29087V12.9066C12.7778 13.381 12.3932 13.7656 11.9188 13.7656H4.08118C3.60676 13.7656 3.22217 13.381 3.22217 12.9066V3.09345Z" fill="#F7B78D"/>
<path d="M13.697 3.71753C13.7634 3.77946 13.7195 3.89063 13.6288 3.89063H10.8427C10.7874 3.89063 10.7427 3.84585 10.7427 3.79063V1.18961C10.7427 1.10217 10.847 1.05685 10.9109 1.11652L13.697 3.71753Z" fill="#FC7B24"/>
<path d="M13.697 3.71753C13.7634 3.77946 13.7195 3.89063 13.6288 3.89063H10.8427C10.7874 3.89063 10.7427 3.84585 10.7427 3.79063V1.18961C10.7427 1.10217 10.847 1.05685 10.9109 1.11652L13.697 3.71753Z" fill="#FC7B24"/>
<path d="M13.697 3.71753C13.7634 3.77946 13.7195 3.89063 13.6288 3.89063H10.8427C10.7874 3.89063 10.7427 3.84585 10.7427 3.79063V1.18961C10.7427 1.10217 10.847 1.05685 10.9109 1.11652L13.697 3.71753Z" fill="white" fill-opacity="0.7"/>
<path d="M12.5537 1.02639L4.43652 9.50787L7.08552 12.0031L15.2027 3.52165L12.5537 1.02639Z" fill="#FFC834"/>
<path fill-rule="evenodd" clip-rule="evenodd" d="M12.5573 1.1672L4.57846 9.5042L7.08187 11.8623L15.0607 3.52533L12.5573 1.1672ZM12.5537 1.02639L15.2027 3.52165L7.08552 12.0031L4.43652 9.50787L12.5537 1.02639Z" fill="#C2A350"/>
<path d="M4.43668 9.5079L3.82264 12.7811L7.08566 12.0031L4.43668 9.5079Z" fill="#EEDBA9"/>
<path fill-rule="evenodd" clip-rule="evenodd" d="M3.82264 12.7811L7.08566 12.0031L4.43668 9.5079L3.82264 12.7811ZM4.50124 9.7061L3.94934 12.6481L6.88218 11.9488L4.50124 9.7061Z" fill="#C6A140"/>
<path d="M3.82253 12.7804L4.02348 11.7092L4.89041 12.5258L3.82253 12.7804Z" fill="#5B4E2C"/>
<path opacity="0.3" d="M7.08561 12.0031L4.89135 12.5249L4.56169 12.2123L13.8785 2.27388L15.203 3.52153L7.08561 12.0031Z" fill="#8A6607"/>
</svg>
