<svg width="16" height="16" viewBox="0 0 16 16" fill="none" xmlns="http://www.w3.org/2000/svg">
<path d="M15.0854 13.2316C15.0854 13.7839 14.6377 14.2316 14.0854 14.2316H6.61467C6.06239 14.2316 5.61467 13.7839 5.61467 13.2316V8.49918C5.61467 7.94689 6.06239 7.49918 6.61467 7.49918H14.0854C14.6377 7.49918 15.0854 7.9469 15.0854 8.49918V13.2316Z" fill="#F3F3F3"/>
<path fill-rule="evenodd" clip-rule="evenodd" d="M6.61467 13.8316H14.0854C14.4168 13.8316 14.6854 13.5629 14.6854 13.2316V8.49918C14.6854 8.16781 14.4168 7.89918 14.0854 7.89918H6.61467C6.2833 7.89918 6.01467 8.16781 6.01467 8.49918V13.2316C6.01467 13.5629 6.2833 13.8316 6.61467 13.8316ZM14.0854 14.2316C14.6377 14.2316 15.0854 13.7839 15.0854 13.2316V8.49918C15.0854 7.9469 14.6377 7.49918 14.0854 7.49918H6.61467C6.06238 7.49918 5.61467 7.94689 5.61467 8.49918V13.2316C5.61467 13.7839 6.06239 14.2316 6.61467 14.2316H14.0854Z" fill="#AF8C8C"/>
<path d="M11.9878 9.86536C11.9878 10.4176 11.5401 10.8654 10.9878 10.8654H1.9145C1.36222 10.8654 0.914502 10.4176 0.914502 9.86536V2.76848C0.914502 2.21619 1.36222 1.76848 1.9145 1.76848H10.9878C11.5401 1.76848 11.9878 2.21619 11.9878 2.76848V9.86536Z" fill="#CD3D3C"/>
<path fill-rule="evenodd" clip-rule="evenodd" d="M1.9145 10.4654H10.9878C11.3192 10.4654 11.5878 10.1967 11.5878 9.86536V2.76848C11.5878 2.43711 11.3192 2.16848 10.9878 2.16848H1.9145C1.58313 2.16848 1.3145 2.43711 1.3145 2.76848V9.86536C1.3145 10.1967 1.58313 10.4654 1.9145 10.4654ZM10.9878 10.8654C11.5401 10.8654 11.9878 10.4176 11.9878 9.86536V2.76848C11.9878 2.21619 11.5401 1.76848 10.9878 1.76848H1.9145C1.36222 1.76848 0.914502 2.21619 0.914502 2.76848V9.86536C0.914502 10.4176 1.36222 10.8654 1.9145 10.8654H10.9878Z" fill="#554646"/>
</svg>
