<svg width="16" height="16" viewBox="0 0 16 16" fill="none" xmlns="http://www.w3.org/2000/svg">
<g clip-path="url(#clip0_312_2698)">
<path d="M0.493652 1.59627C0.493652 1.18201 0.829474 0.846191 1.24373 0.846191H9.34863C9.76289 0.846191 10.0987 1.18201 10.0987 1.59627V11.4102C10.0987 11.8244 9.76289 12.1602 9.34863 12.1602H1.24373C0.829473 12.1602 0.493652 11.8244 0.493652 11.4102V1.59627Z" fill="#F5F5F5"/>
<path d="M9.70521 0.739075H0.919748C0.677147 0.739075 0.480469 1.02317 0.480469 1.37359V3.91162V6.44965V8.98769V11.5257C0.480469 11.8761 0.677147 12.1602 0.919748 12.1602H3.84825H6.77675H9.70525C9.94785 12.1602 10.1445 11.8761 10.1445 11.5257V8.98769V6.44965V3.91162V1.37359C10.1445 1.02317 9.94781 0.739075 9.70521 0.739075ZM3.40896 10.2567C3.40897 10.6071 3.12489 10.8912 2.77446 10.8912H1.99351C1.64308 10.8912 1.35901 10.6071 1.35901 10.2567V10.2567C1.35901 9.90628 1.64308 9.6222 1.99351 9.6222H2.77446C3.12488 9.6222 3.40896 9.90627 3.40896 10.2567V10.2567ZM3.40896 7.71866C3.40897 8.06909 3.12489 8.35317 2.77446 8.35317H1.99351C1.64308 8.35317 1.35901 8.06909 1.35901 7.71867V7.71867C1.35901 7.36824 1.64308 7.08417 1.99351 7.08417H2.77446C3.12488 7.08417 3.40896 7.36824 3.40896 7.71866V7.71866ZM3.40896 5.18063C3.40897 5.53106 3.12489 5.81514 2.77446 5.81514H1.99351C1.64308 5.81514 1.35901 5.53106 1.35901 5.18064V5.18064C1.35901 4.83021 1.64308 4.54614 1.99351 4.54614H2.77446C3.12488 4.54614 3.40896 4.83021 3.40896 5.18063V5.18063ZM6.33745 10.2567C6.33745 10.6071 6.05338 10.8912 5.70295 10.8912H4.92201C4.57158 10.8912 4.28751 10.6071 4.28751 10.2567V10.2567C4.28751 9.90628 4.57158 9.6222 4.92201 9.6222H5.70295C6.05338 9.6222 6.33745 9.90628 6.33745 10.2567V10.2567ZM6.33745 7.71867C6.33745 8.06909 6.05338 8.35317 5.70295 8.35317H4.92201C4.57159 8.35317 4.28751 8.06909 4.28751 7.71867V7.71867C4.28751 7.36824 4.57158 7.08417 4.92201 7.08417H5.70295C6.05338 7.08417 6.33745 7.36824 6.33745 7.71867V7.71867ZM6.33745 5.18064C6.33745 5.53106 6.05338 5.81514 5.70295 5.81514H4.92201C4.57159 5.81514 4.28751 5.53106 4.28751 5.18064V5.18064C4.28751 4.83021 4.57158 4.54614 4.92201 4.54614H5.70295C6.05338 4.54614 6.33745 4.83021 6.33745 5.18064V5.18064ZM9.26594 10.2567C9.26595 10.6071 8.98187 10.8912 8.63144 10.8912H7.85049C7.50007 10.8912 7.21599 10.6071 7.21599 10.2567V10.2567C7.21599 9.90628 7.50007 9.6222 7.85049 9.6222H8.63144C8.98186 9.6222 9.26594 9.90627 9.26594 10.2567V10.2567ZM9.26594 7.71866C9.26595 8.06909 8.98187 8.35317 8.63144 8.35317H7.85049C7.50007 8.35317 7.21599 8.06909 7.21599 7.71867V7.71867C7.21599 7.36824 7.50007 7.08417 7.85049 7.08417H8.63144C8.98186 7.08417 9.26594 7.36824 9.26594 7.71866V7.71866ZM9.26594 5.18063C9.26595 5.53106 8.98187 5.81514 8.63144 5.81514H7.85049C7.50007 5.81514 7.21599 5.53106 7.21599 5.18064V5.18064C7.21599 4.83021 7.50007 4.54614 7.85049 4.54614H8.63144C8.98186 4.54614 9.26594 4.83021 9.26594 5.18063V5.18063Z" fill="#554646"/>
<path d="M9.70525 0.739075H0.919749C0.677148 0.739075 0.480469 0.982581 0.480469 1.28294V3.45839C0.480469 3.75876 0.677148 4.00226 0.919749 4.00226H1.35903H3.40898H4.28752H6.33748H7.21602H9.26597H9.70525C9.94785 4.00226 10.1445 3.75876 10.1445 3.45839V1.28294C10.1445 0.982581 9.94785 0.739075 9.70525 0.739075Z" fill="#CD3D3C"/>
<g filter="url(#filter0_f_312_2698)">
<path d="M2.32031 2.43961C2.32031 1.98132 2.69183 1.6098 3.15011 1.6098H9.2716C9.72989 1.6098 10.1014 1.98132 10.1014 2.4396V11.687C10.1014 12.1453 9.72989 12.5168 9.2716 12.5168H3.15011C2.69183 12.5168 2.32031 12.1453 2.32031 11.687V2.43961Z" fill="#440D0D" fill-opacity="0.35"/>
</g>
<path d="M2.86279 3.02269C2.86279 2.60589 3.20068 2.26801 3.61748 2.26801H11.7722C12.189 2.26801 12.5269 2.60589 12.5269 3.02269V12.8969C12.5269 13.3137 12.189 13.6516 11.7722 13.6516H3.61748C3.20068 13.6516 2.86279 13.3137 2.86279 12.8969V3.02269Z" fill="#F5F5F5"/>
<path d="M12.0875 2.24921H3.30207C3.05947 2.24921 2.86279 2.5333 2.86279 2.88372V5.42176V7.95979V10.4978V13.0359C2.86279 13.3863 3.05947 13.6704 3.30207 13.6704H6.23057H9.15906H12.0876C12.3302 13.6704 12.5268 13.3863 12.5268 13.0359V10.4978V7.95979V5.42176V2.88372C12.5268 2.5333 12.3301 2.24921 12.0875 2.24921ZM5.79128 11.7668C5.79129 12.1173 5.50721 12.4013 5.15678 12.4013H4.37583C4.02541 12.4013 3.74133 12.1173 3.74133 11.7668V11.7668C3.74133 11.4164 4.02541 11.1323 4.37583 11.1323H5.15678C5.5072 11.1323 5.79128 11.4164 5.79128 11.7668V11.7668ZM5.79128 9.2288C5.79129 9.57923 5.50721 9.86331 5.15678 9.86331H4.37583C4.02541 9.86331 3.74133 9.57923 3.74133 9.22881V9.22881C3.74133 8.87838 4.02541 8.5943 4.37583 8.5943H5.15678C5.5072 8.5943 5.79128 8.87837 5.79128 9.2288V9.2288ZM5.79128 6.69076C5.79129 7.04119 5.50721 7.32527 5.15678 7.32527H4.37583C4.02541 7.32527 3.74133 7.0412 3.74133 6.69077V6.69077C3.74133 6.34035 4.02541 6.05627 4.37583 6.05627H5.15678C5.5072 6.05627 5.79128 6.34034 5.79128 6.69076V6.69076ZM8.71977 11.7668C8.71977 12.1173 8.43569 12.4013 8.08527 12.4013H7.30433C6.9539 12.4013 6.66983 12.1173 6.66983 11.7668V11.7668C6.66983 11.4164 6.9539 11.1323 7.30433 11.1323H8.08527C8.43569 11.1323 8.71977 11.4164 8.71977 11.7668V11.7668ZM8.71977 9.22881C8.71977 9.57923 8.43569 9.86331 8.08527 9.86331H7.30433C6.9539 9.86331 6.66983 9.57923 6.66983 9.22881V9.22881C6.66983 8.87838 6.9539 8.5943 7.30433 8.5943H8.08527C8.43569 8.5943 8.71977 8.87838 8.71977 9.22881V9.22881ZM8.71977 6.69077C8.71977 7.0412 8.43569 7.32527 8.08527 7.32527H7.30433C6.9539 7.32527 6.66983 7.0412 6.66983 6.69077V6.69077C6.66983 6.34035 6.9539 6.05627 7.30433 6.05627H8.08527C8.43569 6.05627 8.71977 6.34035 8.71977 6.69077V6.69077ZM11.6483 11.7668C11.6483 12.1173 11.3642 12.4013 11.0138 12.4013H10.2328C9.88238 12.4013 9.59831 12.1173 9.59831 11.7668V11.7668C9.59831 11.4164 9.88238 11.1323 10.2328 11.1323H11.0138C11.3642 11.1323 11.6483 11.4164 11.6483 11.7668V11.7668ZM11.6483 9.2288C11.6483 9.57923 11.3642 9.86331 11.0138 9.86331H10.2328C9.88238 9.86331 9.59831 9.57923 9.59831 9.22881V9.22881C9.59831 8.87838 9.88238 8.5943 10.2328 8.5943H11.0138C11.3642 8.5943 11.6483 8.87837 11.6483 9.2288V9.2288ZM11.6483 6.69076C11.6483 7.04119 11.3642 7.32527 11.0138 7.32527H10.2328C9.88238 7.32527 9.59831 7.0412 9.59831 6.69077V6.69077C9.59831 6.34035 9.88238 6.05627 10.2328 6.05627H11.0138C11.3642 6.05627 11.6483 6.34034 11.6483 6.69076V6.69076Z" fill="#554646"/>
<path d="M12.0876 2.24921H3.30207C3.05947 2.24921 2.86279 2.49271 2.86279 2.79308V4.96853C2.86279 5.26889 3.05947 5.5124 3.30207 5.5124H3.74135H5.7913H6.66984H8.71979H9.59833H11.6483H12.0876C12.3302 5.5124 12.5268 5.26889 12.5268 4.96853V2.79308C12.5268 2.49271 12.3302 2.24921 12.0876 2.24921Z" fill="#CD3D3C"/>
<g filter="url(#filter1_f_312_2698)">
<path d="M5.3125 4.03012C5.3125 3.57183 5.68402 3.20032 6.1423 3.20032H12.2638C12.7221 3.20032 13.0936 3.57183 13.0936 4.03012V13.2775C13.0936 13.7358 12.7221 14.1073 12.2638 14.1073H6.1423C5.68401 14.1073 5.3125 13.7358 5.3125 13.2775V4.03012Z" fill="#440D0D" fill-opacity="0.35"/>
</g>
<path d="M5.85547 4.61321C5.85547 4.19641 6.19335 3.85852 6.61016 3.85852H14.7648C15.1816 3.85852 15.5195 4.19641 15.5195 4.61321V14.4874C15.5195 14.9042 15.1816 15.2421 14.7648 15.2421H6.61016C6.19335 15.2421 5.85547 14.9042 5.85547 14.4874V4.61321Z" fill="#F5F5F5"/>
<path d="M15.0802 3.83972H6.29475C6.05215 3.83972 5.85547 4.12381 5.85547 4.47424V7.01227V9.5503V12.0883V14.6264C5.85547 14.9768 6.05215 15.2609 6.29475 15.2609H9.22324H12.1517H15.0802C15.3228 15.2609 15.5195 14.9768 15.5195 14.6264V12.0883V9.5503V7.01227V4.47424C15.5195 4.12381 15.3228 3.83972 15.0802 3.83972ZM8.78396 13.3573C8.78396 13.7078 8.49988 13.9919 8.14945 13.9919H7.36851C7.01808 13.9919 6.73401 13.7078 6.73401 13.3574V13.3574C6.73401 13.0069 7.01808 12.7229 7.36851 12.7229H8.14946C8.49988 12.7229 8.78395 13.0069 8.78396 13.3573V13.3573ZM8.78396 10.8193C8.78396 11.1697 8.49988 11.4538 8.14945 11.4538H7.36851C7.01808 11.4538 6.73401 11.1697 6.73401 10.8193V10.8193C6.73401 10.4689 7.01808 10.1848 7.36851 10.1848H8.14945C8.49988 10.1848 8.78395 10.4689 8.78396 10.8193V10.8193ZM8.78396 8.28128C8.78396 8.63171 8.49988 8.91579 8.14945 8.91579H7.36851C7.01808 8.91579 6.73401 8.63171 6.73401 8.28129V8.28129C6.73401 7.93086 7.01808 7.64679 7.36851 7.64679H8.14945C8.49988 7.64679 8.78395 7.93086 8.78396 8.28128V8.28128ZM11.7124 13.3574C11.7124 13.7078 11.4284 13.9919 11.0779 13.9919H10.297C9.94658 13.9919 9.6625 13.7078 9.6625 13.3574V13.3574C9.6625 13.0069 9.94658 12.7229 10.297 12.7229H11.0779C11.4284 12.7229 11.7124 13.0069 11.7124 13.3574V13.3574ZM11.7124 10.8193C11.7124 11.1697 11.4284 11.4538 11.0779 11.4538H10.297C9.94658 11.4538 9.6625 11.1697 9.6625 10.8193V10.8193C9.6625 10.4689 9.94658 10.1848 10.297 10.1848H11.0779C11.4284 10.1848 11.7124 10.4689 11.7124 10.8193V10.8193ZM11.7124 8.28129C11.7124 8.63171 11.4284 8.91579 11.0779 8.91579H10.297C9.94658 8.91579 9.6625 8.63171 9.6625 8.28129V8.28129C9.6625 7.93086 9.94658 7.64679 10.297 7.64679H11.0779C11.4284 7.64679 11.7124 7.93086 11.7124 8.28129V8.28129ZM14.6409 13.3573C14.6409 13.7078 14.3569 13.9919 14.0064 13.9919H13.2255C12.8751 13.9919 12.591 13.7078 12.591 13.3574V13.3574C12.591 13.0069 12.8751 12.7229 13.2255 12.7229H14.0064C14.3569 12.7229 14.6409 13.0069 14.6409 13.3573V13.3573ZM14.6409 10.8193C14.6409 11.1697 14.3569 11.4538 14.0064 11.4538H13.2255C12.8751 11.4538 12.591 11.1697 12.591 10.8193V10.8193C12.591 10.4689 12.8751 10.1848 13.2255 10.1848H14.0064C14.3569 10.1848 14.6409 10.4689 14.6409 10.8193V10.8193ZM14.6409 8.28128C14.6409 8.63171 14.3569 8.91579 14.0064 8.91579H13.2255C12.8751 8.91579 12.591 8.63171 12.591 8.28129V8.28129C12.591 7.93086 12.8751 7.64679 13.2255 7.64679H14.0064C14.3569 7.64679 14.6409 7.93086 14.6409 8.28128V8.28128Z" fill="#554646"/>
<path d="M15.0802 3.83972H6.29475C6.05215 3.83972 5.85547 4.08323 5.85547 4.38359V6.55904C5.85547 6.85941 6.05215 7.10291 6.29475 7.10291H6.73403H8.78398H9.66252H11.7125H12.591H14.641H15.0802C15.3228 7.10291 15.5195 6.85941 15.5195 6.55904V4.38359C15.5195 4.08323 15.3228 3.83972 15.0802 3.83972Z" fill="#CD3D3C"/>
</g>
<defs>
<filter id="filter0_f_312_2698" x="1.49051" y="0.78" width="9.44085" height="12.5666" filterUnits="userSpaceOnUse" color-interpolation-filters="sRGB">
<feFlood flood-opacity="0" result="BackgroundImageFix"/>
<feBlend mode="normal" in="SourceGraphic" in2="BackgroundImageFix" result="shape"/>
<feGaussianBlur stdDeviation="0.414901" result="effect1_foregroundBlur_312_2698"/>
</filter>
<filter id="filter1_f_312_2698" x="4.4827" y="2.37052" width="9.44085" height="12.5666" filterUnits="userSpaceOnUse" color-interpolation-filters="sRGB">
<feFlood flood-opacity="0" result="BackgroundImageFix"/>
<feBlend mode="normal" in="SourceGraphic" in2="BackgroundImageFix" result="shape"/>
<feGaussianBlur stdDeviation="0.414901" result="effect1_foregroundBlur_312_2698"/>
</filter>
<clipPath id="clip0_312_2698">
<rect width="16" height="16" fill="white"/>
</clipPath>
</defs>
</svg>
