<svg width="16" height="16" viewBox="0 0 16 16" fill="none" xmlns="http://www.w3.org/2000/svg">
<g clip-path="url(#clip0_312_2900)">
<path d="M0.525391 2.8371C0.525391 2.28481 0.973106 1.8371 1.52539 1.8371H14.4749C15.0272 1.8371 15.4749 2.28481 15.4749 2.8371V13.1629C15.4749 13.7152 15.0272 14.1629 14.4749 14.1629H1.52539C0.973106 14.1629 0.525391 13.7152 0.525391 13.1629V2.8371Z" fill="#CD3D3C"/>
<path fill-rule="evenodd" clip-rule="evenodd" d="M14.4749 2.4371H1.52539C1.30448 2.4371 1.12539 2.61618 1.12539 2.8371V13.1629C1.12539 13.3838 1.30448 13.5629 1.52539 13.5629H14.4749C14.6958 13.5629 14.8749 13.3838 14.8749 13.1629V2.8371C14.8749 2.61618 14.6958 2.4371 14.4749 2.4371ZM1.52539 1.8371C0.973106 1.8371 0.525391 2.28481 0.525391 2.8371V13.1629C0.525391 13.7152 0.973106 14.1629 1.52539 14.1629H14.4749C15.0272 14.1629 15.4749 13.7152 15.4749 13.1629V2.8371C15.4749 2.28481 15.0272 1.8371 14.4749 1.8371H1.52539Z" fill="black"/>
<path fill-rule="evenodd" clip-rule="evenodd" d="M5.88798 2.4371H1.52539C1.30448 2.4371 1.12539 2.61618 1.12539 2.8371V5.33998H5.88798V2.4371ZM1.52539 1.8371C0.973106 1.8371 0.525391 2.28481 0.525391 2.8371V5.93998H6.48798V1.8371H1.52539Z" fill="#0D0D0D"/>
<path fill-rule="evenodd" clip-rule="evenodd" d="M5.41463 10.66H1.34902V13.1629C1.34902 13.3838 1.52811 13.5629 1.74902 13.5629H5.41463V10.66ZM0.749023 10.06V13.1629C0.749023 13.7152 1.19674 14.1629 1.74902 14.1629H6.01463V10.06H0.749023Z" fill="#0D0D0D"/>
<path fill-rule="evenodd" clip-rule="evenodd" d="M10.9814 10.66H5.71582V10.06H10.9814V10.66ZM10.9814 13.5629H5.71582V14.1629H10.9814V13.5629Z" fill="#0D0D0D"/>
<path fill-rule="evenodd" clip-rule="evenodd" d="M14.8751 10.66H10.8095V13.5629H14.4751C14.696 13.5629 14.8751 13.3838 14.8751 13.1629V10.66ZM10.2095 10.06V14.1629H14.4751C15.0274 14.1629 15.4751 13.7152 15.4751 13.1629V10.06H10.2095Z" fill="#0D0D0D"/>
<g filter="url(#filter0_d_312_2900)">
<path fill-rule="evenodd" clip-rule="evenodd" d="M15.4747 2.8371C15.4747 2.28481 15.027 1.8371 14.4747 1.8371H6.48779V2.4371H14.4747C14.6956 2.4371 14.8747 2.61618 14.8747 2.8371V5.33998H6.48779V5.93998H15.4747V2.8371Z" fill="#0D0D0D"/>
</g>
</g>
<defs>
<filter id="filter0_d_312_2900" x="2.48779" y="1.8371" width="16.9868" height="12.1029" filterUnits="userSpaceOnUse" color-interpolation-filters="sRGB">
<feFlood flood-opacity="0" result="BackgroundImageFix"/>
<feColorMatrix in="SourceAlpha" type="matrix" values="0 0 0 0 0 0 0 0 0 0 0 0 0 0 0 0 0 0 127 0" result="hardAlpha"/>
<feOffset dy="4"/>
<feGaussianBlur stdDeviation="2"/>
<feComposite in2="hardAlpha" operator="out"/>
<feColorMatrix type="matrix" values="0 0 0 0 0 0 0 0 0 0 0 0 0 0 0 0 0 0 0.25 0"/>
<feBlend mode="normal" in2="BackgroundImageFix" result="effect1_dropShadow_312_2900"/>
<feBlend mode="normal" in="SourceGraphic" in2="effect1_dropShadow_312_2900" result="shape"/>
</filter>
<clipPath id="clip0_312_2900">
<rect width="16" height="16" fill="white"/>
</clipPath>
</defs>
</svg>
