<svg width="16" height="16" viewBox="3 2.5 10 10" fill="none" xmlns="http://www.w3.org/2000/svg">
<g clip-path="url(#clip0_364_1818)">
<path d="M7.91064 3.44124L3.2495 11.3756C3.18912 11.4784 3.26324 11.6078 3.38242 11.6078H12.6177C12.7369 11.6078 12.811 11.4784 12.7506 11.3756L8.08942 3.44124C8.04934 3.37302 7.95072 3.37302 7.91064 3.44124Z" fill="#4B4949"/>
<path d="M8.00066 10.5709C8.2297 10.5709 8.41538 10.3852 8.41538 10.1562C8.41538 9.92713 8.2297 9.74146 8.00066 9.74146C7.77161 9.74146 7.58594 9.92713 7.58594 10.1562C7.58594 10.3852 7.77161 10.5709 8.00066 10.5709Z" fill="#ffffff"/>
<path d="M7.6021 6.24704L7.77985 8.91312C7.7876 9.02936 7.87791 9.11948 7.9867 9.11948H8.01527C8.12406 9.11948 8.21437 9.02941 8.22212 8.91312L8.39987 6.24704C8.40844 6.11842 8.31337 6.00903 8.19302 6.00903H7.80898C7.6886 6.00903 7.59353 6.11844 7.6021 6.24704Z" fill="#ffffff"/>
<path d="M12.6177 11.8152H3.3823C3.25311 11.8152 3.1328 11.7455 3.0686 11.6333C3.00439 11.521 3.00521 11.382 3.07062 11.2706L7.73187 3.33597C7.78837 3.23998 7.88862 3.18268 8.00021 3.18268C8.11159 3.18268 8.21183 3.23998 8.26833 3.33597L12.9293 11.2705C12.9947 11.3821 12.9956 11.5211 12.9314 11.6333C12.8671 11.7455 12.7468 11.8152 12.6177 11.8152ZM3.47526 11.4005H12.5247L7.99995 3.69837L3.47526 11.4005Z" fill="#4B4949"/>
<path d="M12.5249 11.4005H6.59229C6.63065 11.5406 6.67345 11.6787 6.72011 11.8152H12.6179C12.7471 11.8152 12.8674 11.7455 12.9316 11.6333C12.9958 11.5212 12.995 11.3821 12.9296 11.2706L8.77867 4.20441C8.67171 4.29706 8.56723 4.39247 8.46605 4.4913L12.5249 11.4005Z" fill="#4B4949"/>
</g>
<defs>
<clipPath id="clip0_364_1818">
<rect width="16" height="16" fill="white"/>
</clipPath>
</defs>
</svg>
