<svg width="16" height="16" viewBox="0 0 16 16" fill="none" xmlns="http://www.w3.org/2000/svg">
<path d="M13.4545 1H2.54546C2.24422 1 2 1.34824 2 1.77779V4.88889V8V11.1111V14.2222C2 14.6518 2.24422 15 2.54546 15H6.18182H9.81818H13.4545C13.7558 15 14 14.6518 14 14.2222V11.1111V8V4.88889V1.77779C14 1.34824 13.7557 1 13.4545 1ZM5.63635 12.6667C5.63636 13.0962 5.28813 13.4444 4.85858 13.4444H3.86866C3.43911 13.4444 3.09089 13.0962 3.09089 12.6667V12.6667C3.09089 12.2371 3.43911 11.8889 3.86866 11.8889H4.85858C5.28813 11.8889 5.63634 12.2371 5.63635 12.6667V12.6667ZM5.63635 9.55554C5.63636 9.9851 5.28813 10.3333 4.85858 10.3333H3.86866C3.43911 10.3333 3.09089 9.98511 3.09089 9.55556V9.55556C3.09089 9.12601 3.43911 8.77779 3.86866 8.77779H4.85858C5.28813 8.77779 5.63634 9.126 5.63635 9.55554V9.55554ZM5.63635 6.44444C5.63636 6.87399 5.28813 7.22222 4.85858 7.22222H3.86866C3.43911 7.22222 3.09089 6.874 3.09089 6.44445V6.44445C3.09089 6.0149 3.43911 5.66668 3.86866 5.66668H4.85858C5.28813 5.66668 5.63634 6.01489 5.63635 6.44444V6.44444ZM9.2727 12.6667C9.2727 13.0962 8.92448 13.4444 8.49493 13.4444H7.50502C7.07547 13.4444 6.72726 13.0962 6.72726 12.6667V12.6667C6.72726 12.2371 7.07547 11.8889 7.50502 11.8889H8.49493C8.92448 11.8889 9.2727 12.2371 9.2727 12.6667V12.6667ZM9.2727 9.55556C9.2727 9.98511 8.92448 10.3333 8.49493 10.3333H7.50502C7.07547 10.3333 6.72726 9.98511 6.72726 9.55556V9.55556C6.72726 9.12601 7.07547 8.77779 7.50502 8.77779H8.49493C8.92448 8.77779 9.2727 9.12601 9.2727 9.55556V9.55556ZM9.2727 6.44445C9.2727 6.874 8.92448 7.22222 8.49493 7.22222H7.50502C7.07547 7.22222 6.72726 6.874 6.72726 6.44445V6.44445C6.72726 6.0149 7.07547 5.66668 7.50502 5.66668H8.49493C8.92448 5.66668 9.2727 6.0149 9.2727 6.44445V6.44445ZM12.909 12.6667C12.9091 13.0962 12.5608 13.4444 12.1313 13.4444H11.1414C10.7118 13.4444 10.3636 13.0962 10.3636 12.6667V12.6667C10.3636 12.2371 10.7118 11.8889 11.1414 11.8889H12.1313C12.5608 11.8889 12.909 12.2371 12.909 12.6667V12.6667ZM12.909 9.55554C12.9091 9.9851 12.5608 10.3333 12.1313 10.3333H11.1414C10.7118 10.3333 10.3636 9.98511 10.3636 9.55556V9.55556C10.3636 9.12601 10.7118 8.77779 11.1414 8.77779H12.1313C12.5608 8.77779 12.909 9.126 12.909 9.55554V9.55554ZM12.909 6.44444C12.9091 6.87399 12.5608 7.22222 12.1313 7.22222H11.1414C10.7118 7.22222 10.3636 6.874 10.3636 6.44445V6.44445C10.3636 6.0149 10.7118 5.66668 11.1414 5.66668H12.1313C12.5608 5.66668 12.909 6.01489 12.909 6.44444V6.44444Z" fill="#554646"/>
<path d="M13.4545 1H2.54546C2.24422 1 2 1.29849 2 1.66667V4.33333C2 4.70151 2.24422 5 2.54546 5H3.09092H5.63637H6.72727H9.27273H10.3636H12.9091H13.4545C13.7558 5 14 4.70151 14 4.33333V1.66667C14 1.29849 13.7558 1 13.4545 1Z" fill="#CD3D3C"/>
<path d="M4.16667 8.33333C6.46785 8.33333 8.33333 6.46785 8.33333 4.16667C8.33333 1.86548 6.46785 0 4.16667 0C1.86548 0 0 1.86548 0 4.16667C0 6.46785 1.86548 8.33333 4.16667 8.33333Z" fill="#554646"/>
<path d="M6.48742 5.77927L5.97638 3.05617C5.94735 2.94097 5.89065 2.83461 5.81119 2.74629C5.73174 2.65798 5.63193 2.59039 5.52044 2.54939C5.40894 2.50839 5.28913 2.49521 5.17139 2.51101C5.05365 2.52681 4.94154 2.5711 4.8448 2.64003L4.26075 3.22408L2.74167 1.71229C2.60489 1.57632 2.41985 1.5 2.22698 1.5C2.03411 1.5 1.84908 1.57632 1.71229 1.71229C1.57632 1.84908 1.5 2.03411 1.5 2.22698C1.5 2.41985 1.57632 2.60488 1.71229 2.74167L3.22408 4.26075L2.64003 4.8448C2.5711 4.94154 2.52681 5.05365 2.51101 5.17139C2.49521 5.28913 2.50839 5.40894 2.54939 5.52044C2.59039 5.63193 2.65798 5.73174 2.74629 5.81119C2.8346 5.89064 2.94097 5.94735 3.05617 5.97638L5.77927 6.48742C5.87654 6.50768 5.97733 6.50342 6.07254 6.475C6.16776 6.44659 6.2544 6.39492 6.32466 6.32466C6.39492 6.2544 6.44659 6.16776 6.475 6.07254C6.50342 5.97733 6.50768 5.87654 6.48742 5.77927Z" fill="#28EA3C"/>
</svg>
