<svg width="16" height="16" viewBox="0 0 16 16" fill="none" xmlns="http://www.w3.org/2000/svg">
<path d="M12.6089 5.2396C13.2756 5.6245 13.2756 6.58675 12.6089 6.97165L7.23396 10.0749C6.5673 10.4598 5.73396 9.97864 5.73396 9.20883V3.00241C5.73396 2.23261 6.5673 1.75148 7.23396 2.13638L12.6089 5.2396Z" fill="#28EA3C"/>
<path fill-rule="evenodd" clip-rule="evenodd" d="M7.08396 9.81505L12.4589 6.71184C12.9256 6.44241 12.9256 5.76883 12.4589 5.4994L7.08396 2.39619C6.6173 2.12676 6.03396 2.46355 6.03396 3.00241V9.20883C6.03396 9.74769 6.6173 10.0845 7.08396 9.81505ZM12.6089 6.97165C13.2756 6.58675 13.2756 5.6245 12.6089 5.2396L7.23396 2.13638C6.5673 1.75148 5.73396 2.23261 5.73396 3.00241V9.20883C5.73396 9.97863 6.5673 10.4598 7.23396 10.0749L12.6089 6.97165Z" fill="#1C7E26"/>
<path d="M10.9854 9.02835C11.652 9.41325 11.652 10.3755 10.9854 10.7604L5.61043 13.8636C4.94376 14.2485 4.11043 13.7674 4.11043 12.9976V6.79116C4.11043 6.02136 4.94376 5.54024 5.61043 5.92514L10.9854 9.02835Z" fill="#28EA3C"/>
<path fill-rule="evenodd" clip-rule="evenodd" d="M5.46043 13.6038L10.8354 10.5006C11.302 10.2312 11.302 9.55759 10.8354 9.28816L5.46043 6.18495C4.99376 5.91552 4.41043 6.2523 4.41043 6.79116V12.9976C4.41043 13.5365 4.99376 13.8732 5.46043 13.6038ZM10.9854 10.7604C11.652 10.3755 11.652 9.41325 10.9854 9.02835L5.61043 5.92514C4.94376 5.54024 4.11043 6.02136 4.11043 6.79116V12.9976C4.11043 13.7674 4.94376 14.2485 5.61043 13.8636L10.9854 10.7604Z" fill="#1C7E26"/>
</svg>
