<svg width="16" height="16" viewBox="0 0 16 16" fill="none" xmlns="http://www.w3.org/2000/svg">
<path d="M14.2028 1H1.70033C1.35509 1 1.0752 1.34824 1.0752 1.77779V4.88889V8V11.1111V14.2222C1.0752 14.6518 1.35509 15 1.70033 15H5.86784H10.0354H14.2029C14.5481 15 14.828 14.6518 14.828 14.2222V11.1111V8V4.88889V1.77779C14.8279 1.34824 14.5481 1 14.2028 1Z" fill="#554646"/>
<path d="M14.5484 1H1.71678C1.36245 1 1.0752 1.29849 1.0752 1.66667V4.33333C1.0752 4.70151 1.36245 5 1.71678 5H2.35837H5.3524H6.63555H9.62959H10.9127H13.9068H14.5484C14.9027 5 15.1899 4.70151 15.1899 4.33333V1.66667C15.1899 1.29849 14.9027 1 14.5484 1Z" fill="#CD3D3C"/>
<path fill-rule="evenodd" clip-rule="evenodd" d="M1.35547 2V14H14.6445V2H1.35547ZM1.05043 1H14.9495C15.3333 1 15.6445 1.34824 15.6445 1.77779V14.2222C15.6445 14.6518 15.3334 15 14.9496 15H1.05043C0.666624 15 0.355469 14.6518 0.355469 14.2222V1.77779C0.355469 1.34824 0.666624 1 1.05043 1Z" fill="#E23B3A"/>
<path d="M3.17529 9.71088H5.78599V12.3216H3.17529V9.71088Z" fill="#74B3FF"/>
<path d="M3.17529 6.22992H5.78599V8.84062H3.17529V6.22992Z" fill="#F8F8F8"/>
<path d="M6.65625 6.22992H9.26695V8.84062H6.65625V6.22992Z" fill="#F8F8F8"/>
<path d="M6.65625 9.71088H9.26695V12.3216H6.65625V9.71088Z" fill="#28EA3C"/>
<path d="M10.1372 6.22992H12.7479V8.84062H10.1372V6.22992Z" fill="#F2AD48"/>
<path d="M10.1372 9.71088H12.7479V12.3216H10.1372V9.71088Z" fill="#F8F8F8"/>
</svg>
