<svg width="16" height="16" viewBox="0 0 16 16" fill="none" xmlns="http://www.w3.org/2000/svg">
<path d="M7.37877 13.5836C10.7614 13.5836 13.5036 10.8414 13.5036 7.45873C13.5036 4.07606 10.7614 1.33386 7.37877 1.33386C3.9961 1.33386 1.25391 4.07606 1.25391 7.45873C1.25391 10.8414 3.9961 13.5836 7.37877 13.5836Z" fill="#EDE4E4"/>
<path fill-rule="evenodd" clip-rule="evenodd" d="M14.0036 7.45873C14.0036 11.1175 11.0376 14.0836 7.37877 14.0836C3.71996 14.0836 0.753906 11.1175 0.753906 7.45873C0.753906 3.79992 3.71996 0.833862 7.37877 0.833862C11.0376 0.833862 14.0036 3.79992 14.0036 7.45873ZM13.5036 7.45873C13.5036 10.8414 10.7614 13.5836 7.37877 13.5836C3.9961 13.5836 1.25391 10.8414 1.25391 7.45873C1.25391 4.07606 3.9961 1.33386 7.37877 1.33386C10.7614 1.33386 13.5036 4.07606 13.5036 7.45873Z" fill="#868686"/>
<path fill-rule="evenodd" clip-rule="evenodd" d="M2.7145 9.12082C2.45248 9.12082 2.24007 8.9084 2.24007 8.64638C2.24007 8.38436 2.45248 8.17195 2.7145 8.17193H2.91726C2.9829 7.82594 3.11887 7.5049 3.30991 7.22427L3.16647 7.08082C2.98119 6.89554 2.98119 6.59514 3.16647 6.40987C3.35175 6.22459 3.65214 6.22459 3.83742 6.40987L3.98087 6.55331C4.2615 6.36227 4.58254 6.2263 4.92853 6.16066V5.95792C4.92853 5.6959 5.14095 5.48348 5.40297 5.48348C5.66499 5.48348 5.8774 5.6959 5.8774 5.95792V6.16066C6.22339 6.2263 6.54444 6.36228 6.82508 6.55332L6.96852 6.40988C7.1538 6.2246 7.4542 6.2246 7.63948 6.40988C7.82476 6.59516 7.82476 6.89556 7.63948 7.08084L7.49604 7.22428C7.68708 7.50491 7.82305 7.82596 7.88868 8.17195H8.09143C8.35345 8.17195 8.56587 8.38436 8.56587 8.64638C8.56587 8.9084 8.35345 9.12082 8.09143 9.12082H7.88868C7.82305 9.46679 7.68708 9.78785 7.49602 10.0685L7.63947 10.2119C7.82475 10.3972 7.82475 10.6976 7.63947 10.8829C7.45419 11.0682 7.15379 11.0682 6.96851 10.8829L6.82507 10.7395C6.54444 10.9305 6.22339 11.0665 5.8774 11.1321V11.3348C5.8774 11.5969 5.66497 11.8093 5.40295 11.8093C5.14093 11.8093 4.92851 11.5969 4.92851 11.3348V11.1321C4.58253 11.0664 4.26148 10.9305 3.98085 10.7394L3.83741 10.8829C3.65213 11.0682 3.35173 11.0682 3.16645 10.8829C2.98117 10.6976 2.98117 10.3972 3.16645 10.2119L3.30989 10.0685C3.11885 9.78785 2.98288 9.4668 2.91725 9.12082H2.7145ZM5.40297 9.44699C5.84513 9.44699 6.20358 9.08855 6.20358 8.64638C6.20358 8.20422 5.84513 7.84577 5.40297 7.84577C4.9608 7.84577 4.60235 8.20422 4.60235 8.64638C4.60235 9.08855 4.9608 9.44699 5.40297 9.44699Z" fill="#CD3D3C"/>
<path d="M5.40296 10.6047C6.48279 10.6047 7.36128 9.72621 7.36128 8.64638C7.36128 7.56655 6.48279 6.68805 5.40296 6.68805C4.32313 6.68805 3.44463 7.56655 3.44463 8.64638C3.44463 9.72621 4.32313 10.6047 5.40296 10.6047ZM5.40296 10.3547C4.46097 10.3547 3.69464 9.58835 3.69464 8.64638C3.69464 7.70441 4.46097 6.93806 5.40296 6.93806C6.34494 6.93806 7.11128 7.7044 7.11128 8.64638C7.11128 9.58837 6.34494 10.3547 5.40296 10.3547ZM5.40296 11.938C5.7338 11.938 6.00295 11.6689 6.00295 11.338V11.2365C6.28963 11.1706 6.56033 11.0584 6.8101 10.9021L6.88197 10.9739C7.1159 11.2079 7.49655 11.2079 7.73052 10.974C7.96445 10.74 7.96445 10.3594 7.73052 10.1254L7.65864 10.0535C7.81496 9.80378 7.92712 9.53306 7.99308 9.24639H8.09461C8.42545 9.24639 8.6946 8.97724 8.6946 8.6464C8.6946 8.31555 8.42545 8.0464 8.09461 8.0464H7.9931C7.92714 7.75972 7.81496 7.48902 7.65865 7.23925L7.73054 7.16738C7.96446 6.93344 7.96446 6.55279 7.73054 6.31883C7.49661 6.08495 7.11596 6.08492 6.88199 6.31883L6.81012 6.39072C6.56036 6.23439 6.28963 6.12223 6.00296 6.05627V5.95473C6.00296 5.62389 5.73382 5.35474 5.40297 5.35474C5.07213 5.35474 4.80298 5.62389 4.80298 5.95473V6.05624C4.51629 6.1222 4.24558 6.23438 3.99582 6.39068L3.92396 6.3188C3.68998 6.08489 3.30933 6.08492 3.07541 6.3188C2.84148 6.55274 2.84148 6.93339 3.07541 7.16735L3.14729 7.23923C2.991 7.48898 2.87882 7.75969 2.81286 8.04637H2.71132C2.38048 8.04637 2.11133 8.31552 2.11133 8.64636C2.11133 8.97721 2.38048 9.24636 2.71132 9.24636H2.81286C2.87882 9.53304 2.991 9.80374 3.14729 10.0535L3.07541 10.1254C2.84148 10.3593 2.84148 10.74 3.07541 10.9739C3.30933 11.2078 3.68998 11.2079 3.92396 10.9739L3.99582 10.902C4.24557 11.0584 4.51631 11.1705 4.80298 11.2365V11.338C4.80296 11.6689 5.07211 11.938 5.40296 11.938ZM5.40296 11.688C5.20997 11.688 5.05295 11.531 5.05295 11.338V11.135C5.05295 11.075 5.01023 11.0234 4.95125 11.0122C4.6266 10.9506 4.32322 10.8249 4.04952 10.6386C3.99989 10.6048 3.93325 10.6111 3.89079 10.6535L3.74718 10.7971C3.61071 10.9336 3.38866 10.9336 3.25222 10.7971C3.11575 10.6607 3.11575 10.4386 3.25222 10.3022L3.39583 10.1586C3.43827 10.1161 3.44455 10.0495 3.41077 9.99984C3.22442 9.72613 3.09873 9.42274 3.03712 9.09811C3.02595 9.03912 2.97436 8.99641 2.91432 8.99641H2.71132C2.51834 8.99641 2.36132 8.83939 2.36132 8.64641C2.36132 8.45343 2.51834 8.29641 2.71132 8.29641H2.91432C2.97438 8.29641 3.02595 8.25369 3.03712 8.19472C3.09873 7.87007 3.22442 7.56667 3.41077 7.29298C3.44454 7.24333 3.43827 7.1767 3.39583 7.13424L3.25222 6.99063C3.11575 6.85416 3.11575 6.63211 3.25222 6.49567C3.38869 6.35917 3.61075 6.3592 3.74718 6.49567L3.89079 6.63929C3.93325 6.68173 3.99992 6.68802 4.04952 6.65422C4.32323 6.46789 4.62662 6.34218 4.95125 6.28059C5.01025 6.26942 5.05295 6.21785 5.05295 6.15779V5.95473C5.05295 5.76175 5.20997 5.60473 5.40296 5.60473C5.59594 5.60473 5.75296 5.76175 5.75296 5.95473V6.15773C5.75296 6.2178 5.79568 6.26935 5.85467 6.28053C6.17929 6.34212 6.48269 6.46781 6.7564 6.65418C6.80605 6.68796 6.87271 6.68168 6.91514 6.63922L7.05874 6.49561C7.1952 6.35916 7.41727 6.35914 7.55369 6.49563C7.69016 6.6321 7.69016 6.85415 7.55369 6.99059L7.41008 7.1342C7.36764 7.17666 7.36136 7.24331 7.39515 7.29293C7.5815 7.56664 7.70719 7.87003 7.76877 8.19465C7.77995 8.25366 7.83152 8.29636 7.89157 8.29636H8.09461C8.28759 8.29636 8.44461 8.45338 8.44461 8.64636C8.44461 8.83935 8.28759 8.99637 8.09461 8.99637H7.8916C7.83153 8.99637 7.77998 9.03909 7.7688 9.09808C7.70722 9.42272 7.58153 9.7261 7.39518 9.9998C7.36139 10.0494 7.36765 10.1161 7.41011 10.1585L7.55372 10.3021C7.69019 10.4386 7.69019 10.6607 7.55372 10.7971C7.41726 10.9336 7.19519 10.9336 7.05877 10.7971L6.91517 10.6535C6.891 10.6293 6.85898 10.6169 6.82673 10.6169C6.80234 10.6169 6.77779 10.624 6.75642 10.6386C6.48269 10.8249 6.17929 10.9506 5.85468 11.0122C5.79568 11.0234 5.75297 11.0749 5.75297 11.135V11.338C5.75296 11.531 5.59594 11.688 5.40296 11.688Z" fill="#CECECE"/>
<path fill-rule="evenodd" clip-rule="evenodd" d="M7.58056 4.51713C7.43331 4.49932 7.32838 4.36552 7.34619 4.21828C7.364 4.07104 7.4978 3.96611 7.64504 3.98391L7.75899 3.99769C7.81938 3.80772 7.91761 3.63655 8.04404 3.49184L7.97318 3.40148C7.88165 3.28477 7.90207 3.11596 8.01878 3.02444C8.13549 2.93291 8.3043 2.95333 8.39582 3.07004L8.46668 3.16039C8.63736 3.07211 8.82701 3.01753 9.0259 3.00416L9.03968 2.89022C9.05749 2.74298 9.19129 2.63805 9.33853 2.65586C9.48577 2.67367 9.5907 2.80747 9.57289 2.95471L9.55912 3.06864C9.74908 3.12904 9.92025 3.22728 10.065 3.3537L10.1553 3.28285C10.272 3.19132 10.4408 3.21174 10.5324 3.32845C10.6239 3.44516 10.6035 3.61396 10.4868 3.70549L10.3964 3.77635C10.4847 3.94703 10.5393 4.13668 10.5527 4.33557L10.6666 4.34935C10.8138 4.36716 10.9188 4.50096 10.901 4.6482C10.8831 4.79544 10.7493 4.90037 10.6021 4.88256L10.4882 4.86878C10.4278 5.05874 10.3295 5.22992 10.2031 5.37464L10.274 5.465C10.3655 5.58171 10.3451 5.75052 10.2284 5.84204C10.1117 5.93357 9.94285 5.91315 9.85132 5.79644L9.78046 5.70608C9.60978 5.79437 9.42013 5.84895 9.22124 5.86232L9.20746 5.97626C9.18965 6.1235 9.05584 6.22843 8.9086 6.21062C8.76136 6.19281 8.65643 6.05901 8.67424 5.91177L8.68802 5.79783C8.49805 5.73743 8.32688 5.6392 8.18217 5.51277L8.09181 5.58363C7.9751 5.67516 7.8063 5.65474 7.71477 5.53803C7.62325 5.42132 7.64366 5.25251 7.76037 5.16099L7.85073 5.09013C7.76244 4.91945 7.70786 4.7298 7.69449 4.53091L7.58056 4.51713ZM9.06916 4.88314C9.31763 4.91319 9.54342 4.73612 9.57347 4.48765C9.60352 4.23918 9.42646 4.01339 9.17798 3.98334C8.92951 3.95329 8.70372 4.13035 8.67367 4.37883C8.64362 4.6273 8.82069 4.85309 9.06916 4.88314Z" fill="#6A5F5F"/>
<path d="M8.99047 5.53371C9.59728 5.6071 10.1507 5.17314 10.224 4.56633C10.2974 3.95953 9.86347 3.40615 9.25666 3.33276C8.64985 3.25938 8.09648 3.69334 8.02309 4.30014C7.9497 4.90695 8.38367 5.46032 8.99047 5.53371ZM9.00746 5.39322C8.47812 5.3292 8.09956 4.84647 8.16358 4.31714C8.2276 3.7878 8.71032 3.40923 9.23967 3.47325C9.76901 3.53727 10.1476 4.02 10.0835 4.54934C10.0195 5.07869 9.53681 5.45724 9.00746 5.39322ZM8.89986 6.28297C9.08577 6.30545 9.25531 6.17249 9.2778 5.98658L9.2847 5.92954C9.45028 5.91195 9.61002 5.86731 9.761 5.79645L9.79651 5.84172C9.91206 5.98908 10.126 6.01495 10.2733 5.8994C10.4207 5.78384 10.4466 5.56993 10.331 5.42256L10.2955 5.37729C10.4003 5.24756 10.4817 5.10305 10.5383 4.94644L10.5954 4.95334C10.7813 4.97583 10.9508 4.84287 10.9733 4.65696C10.9958 4.47104 10.8628 4.3015 10.6769 4.27902L10.6199 4.27212C10.6023 4.10653 10.5576 3.94679 10.4868 3.79581L10.5321 3.76031C10.6794 3.64474 10.7053 3.43084 10.5897 3.28347C10.4742 3.13614 10.2603 3.11026 10.1129 3.2258L10.0676 3.26131C9.93789 3.15649 9.79338 3.07506 9.63677 3.01851L9.64367 2.96145C9.66616 2.77554 9.5332 2.606 9.34729 2.58351C9.16137 2.56103 8.99183 2.69398 8.96934 2.8799L8.96245 2.93694C8.79686 2.95452 8.63711 2.99916 8.48614 3.07003L8.45064 3.02475C8.33505 2.8774 8.12115 2.85155 7.9738 2.96708C7.82645 3.08264 7.80058 3.29654 7.91613 3.44391L7.95164 3.48919C7.84684 3.61892 7.7654 3.76342 7.70885 3.92003L7.65179 3.91313C7.46587 3.89065 7.29633 4.0236 7.27385 4.20952C7.25136 4.39544 7.38432 4.56498 7.57024 4.58746L7.6273 4.59436C7.64488 4.75995 7.68952 4.91969 7.76037 5.07066L7.71509 5.10617C7.56774 5.22173 7.54187 5.43564 7.65742 5.58301C7.77298 5.73035 7.98688 5.75623 8.13426 5.64068L8.17953 5.60517C8.30925 5.70999 8.45377 5.79142 8.61038 5.84797L8.60348 5.90501C8.58098 6.09094 8.71394 6.26048 8.89986 6.28297ZM8.91685 6.14248C8.8084 6.12937 8.73084 6.03046 8.74395 5.92201L8.75775 5.80794C8.76183 5.77418 8.74133 5.74231 8.70894 5.73202C8.53069 5.67535 8.36875 5.58409 8.22761 5.46078C8.20202 5.43843 8.16414 5.43741 8.1374 5.45838L8.04693 5.52932C7.96097 5.59675 7.83619 5.58166 7.76879 5.49568C7.70138 5.40972 7.71647 5.28494 7.80243 5.21754L7.8929 5.1466C7.91963 5.12563 7.92769 5.0886 7.91208 5.05842C7.82596 4.89194 7.77595 4.71291 7.7634 4.5263C7.76112 4.49239 7.73504 4.46488 7.7013 4.4608L7.58722 4.44701C7.47878 4.43389 7.40121 4.33498 7.41433 4.22654C7.42744 4.11809 7.52635 4.04053 7.6348 4.05364L7.74887 4.06744C7.78262 4.07152 7.8145 4.05102 7.82479 4.01864C7.88147 3.84039 7.97272 3.67844 8.09604 3.5373C8.1184 3.5117 8.1194 3.47383 8.09844 3.44709L8.0275 3.35663C7.96008 3.27066 7.97517 3.14588 8.06114 3.07849C8.1471 3.01105 8.27189 3.02616 8.33928 3.11212L8.41022 3.20259C8.43119 3.22932 8.46823 3.23739 8.4984 3.22177C8.66488 3.13566 8.84391 3.08564 9.03052 3.07309C9.06443 3.07082 9.09193 3.04475 9.09602 3.011L9.10982 2.89689C9.12293 2.78844 9.22184 2.71088 9.33029 2.72399C9.43873 2.73711 9.5163 2.83602 9.50318 2.94446L9.48938 3.05854C9.4853 3.0923 9.50581 3.12417 9.53819 3.13446C9.71643 3.19113 9.87838 3.28238 10.0195 3.40571C10.0451 3.42807 10.083 3.42907 10.1097 3.4081L10.2002 3.33715C10.2862 3.26975 10.411 3.28483 10.4783 3.3708C10.5458 3.45676 10.5307 3.58155 10.4447 3.64894L10.3542 3.71988C10.3275 3.74086 10.3194 3.77789 10.3351 3.80807C10.4212 3.97454 10.4712 4.15357 10.4837 4.34018C10.486 4.3741 10.5121 4.4016 10.5458 4.40568L10.6599 4.41948C10.7684 4.4326 10.8459 4.5315 10.8328 4.63995C10.8197 4.7484 10.7208 4.82596 10.6123 4.81284L10.4983 4.79905C10.4645 4.79497 10.4326 4.81547 10.4223 4.84786C10.3657 5.0261 10.2744 5.18805 10.1511 5.32918C10.1287 5.35478 10.1277 5.39265 10.1487 5.4194L10.2197 5.50986C10.2871 5.59582 10.272 5.72061 10.186 5.788C10.1 5.85543 9.97526 5.84032 9.90787 5.75436L9.83694 5.66391C9.825 5.64868 9.80785 5.63952 9.78973 5.63732C9.77602 5.63567 9.76174 5.63799 9.74875 5.64472C9.58226 5.73084 9.40322 5.78085 9.21662 5.7934C9.18271 5.79567 9.1552 5.82175 9.15112 5.8555L9.13733 5.96957C9.1242 6.07803 9.02529 6.1556 8.91685 6.14248Z" fill="#CECECE"/>
<path d="M13.0645 11.5155C13.8516 12.5816 14.4532 12.3652 15.0258 13.2086C15.5985 14.052 15.1046 14.4162 15.1046 14.4162C15.1046 14.4162 14.7073 14.8825 13.8947 14.2627C13.0821 13.6429 13.3375 13.0607 12.3143 12.2146L13.0645 11.5155Z" fill="#CD3D3C"/>
<path opacity="0.1" d="M14.47 13.7266C13.6574 13.1068 13.917 12.5292 12.8938 11.683L12.3186 12.2191C13.3418 13.0652 13.0822 13.6428 13.8947 14.2626C14.7073 14.8825 15.1046 14.4162 15.1046 14.4162C15.1046 14.4162 15.2622 14.2999 15.2961 14.0466C15.0983 14.0603 14.8235 13.9962 14.47 13.7266Z" fill="#302310"/>
<path d="M13.0374 10.8992C12.7821 10.6296 12.2891 10.6776 11.9363 11.0064C11.5834 11.3353 11.5043 11.8204 11.7595 12.09C12.0148 12.3597 12.5077 12.3117 12.8606 11.9828C13.2135 11.654 13.2926 11.1688 13.0374 10.8992Z" fill="#C7AEAE"/>
<path opacity="0.1" d="M12.1913 11.6879C11.9908 11.4761 11.9967 11.1314 12.1794 10.8339C12.0945 10.8783 12.0123 10.9358 11.9366 11.0064C11.5837 11.3352 11.5046 11.8203 11.7599 12.0899C12.0151 12.3596 12.5081 12.3116 12.861 11.9828C12.9367 11.9122 12.9997 11.8344 13.0496 11.7531C12.7389 11.9154 12.3918 11.8997 12.1913 11.6879Z" fill="black"/>
<path d="M10.3816 12.3201C11.9745 12.37 13.3059 11.1293 13.3554 9.54893C13.4049 7.96854 12.1537 6.64693 10.5609 6.59705C8.96802 6.54716 7.63663 7.78787 7.58713 9.36826C7.53763 10.9487 8.78877 12.2703 10.3816 12.3201Z" fill="#F2AD48"/>
<path fill-rule="evenodd" clip-rule="evenodd" d="M13.6552 9.5583C13.6004 11.3065 12.1284 12.675 10.3722 12.62C8.61594 12.565 7.23246 11.1071 7.28721 9.35885C7.34197 7.61064 8.81397 6.24217 10.5702 6.29717C12.3264 6.35218 13.7099 7.81009 13.6552 9.5583ZM13.3553 9.54891C13.3058 11.1293 11.9744 12.37 10.3816 12.3201C8.78871 12.2702 7.53757 10.9486 7.58707 9.36824C7.63657 7.78785 8.96796 6.54714 10.5608 6.59703C12.1537 6.64691 13.4048 7.96852 13.3553 9.54891Z" fill="#E7A443"/>
<path d="M10.4077 11.482C11.534 11.5172 12.4754 10.6399 12.5104 9.52245C12.5454 8.40498 11.6607 7.47049 10.5344 7.43521C9.40816 7.39993 8.46674 8.27723 8.43174 9.39471C8.39674 10.5122 9.28141 11.4467 10.4077 11.482Z" fill="#EDE4E4"/>
<path opacity="0.1" d="M9.54216 10.8618C8.77048 10.0466 8.81061 8.76553 9.63178 8.00028C9.96902 7.68601 10.3856 7.50775 10.8128 7.46311C10.205 7.3608 9.55781 7.53185 9.07387 7.98281C8.25269 8.74805 8.2126 10.0292 8.98424 10.8443C9.43899 11.3247 10.0742 11.5359 10.6872 11.4718C10.2637 11.4005 9.85909 11.1965 9.54216 10.8618Z" fill="#5C4545"/>
</svg>
