<svg width="16" height="16" viewBox="0 0 16 16" fill="none" xmlns="http://www.w3.org/2000/svg">
<g clip-path="url(#clip0_312_1239)">
<path d="M13.9944 3.91435C13.9974 3.9171 13.9992 3.921 13.9992 3.9251V14C13.9992 14.5523 13.5514 15 12.9992 15H3C2.44772 15 2 14.5523 2 14V2C2 1.44772 2.44772 1 3 1H10.409C10.6582 1 10.8984 1.09303 11.0826 1.26087L13.9944 3.91435V3.91435Z" fill="#FC7B24"/>
<path d="M7.98272 9.75208H4.40889C4.15286 9.75208 3.94531 9.95963 3.94531 10.2157C3.94531 10.4717 4.15286 10.6792 4.40889 10.6792H7.98272C8.23875 10.6792 8.4463 10.4717 8.4463 10.2157C8.4463 9.95963 8.23874 9.75208 7.98272 9.75208Z" fill="white"/>
<path d="M7.95147 6.00012H4.37764C4.12161 6.00012 3.91406 6.20767 3.91406 6.4637C3.91406 6.71973 4.12161 6.92728 4.37764 6.92728H7.95147C8.2075 6.92728 8.41505 6.71973 8.41505 6.4637C8.41505 6.20767 8.20749 6.00012 7.95147 6.00012Z" fill="white"/>
<path d="M11.6341 7.88489H4.37764C4.12161 7.88489 3.91406 8.09244 3.91406 8.34846C3.91406 8.60449 4.12161 8.81204 4.37764 8.81204H11.6341C11.8901 8.81204 12.0977 8.60449 12.0977 8.34846C12.0977 8.09244 11.8901 7.88489 11.6341 7.88489Z" fill="white"/>
<path d="M8.41431 6.72012V6.20728C8.41431 6.09287 8.32156 6.00012 8.20715 6.00012C8.09275 6.00012 8 6.09287 8 6.20728V6.72012C8 6.83453 8.09275 6.92728 8.20715 6.92728C8.32156 6.92728 8.41431 6.83453 8.41431 6.72012Z" fill="white"/>
<path d="M8.44668 10.4559V9.97542C8.44668 9.85207 8.34669 9.75208 8.22334 9.75208C8.09999 9.75208 8 9.85207 8 9.97542V10.4559C8 10.5792 8.09999 10.6792 8.22334 10.6792C8.34669 10.6792 8.44668 10.5792 8.44668 10.4559Z" fill="white"/>
<path d="M11.6333 7.88489H8.46358C8.20755 7.88489 8 8.09244 8 8.34846C8 8.60449 8.20755 8.81204 8.46358 8.81204H11.6333C11.8893 8.81204 12.0969 8.60449 12.0969 8.34846C12.0969 8.09244 11.8893 7.88489 11.6333 7.88489Z" fill="white"/>
<path d="M13.8002 3.74038C13.8677 3.8019 13.8242 3.91429 13.7328 3.91429H10.893C10.8377 3.91429 10.793 3.86952 10.793 3.81429V1.22642C10.793 1.13955 10.8961 1.09399 10.9603 1.1525L13.8002 3.74038Z" fill="white" fill-opacity="0.7"/>
<path d="M12.0106 7.75928L10.0137 10.6789C9.93594 10.809 9.89111 10.9563 9.88311 11.1077C9.87511 11.2592 9.9042 11.4103 9.96783 11.5479C10.0315 11.6856 10.1277 11.8056 10.2483 11.8977C10.3688 11.9897 10.51 12.0509 10.6596 12.076L11.7141 12.076L11.7376 14.6874C11.7384 14.9337 11.8365 15.1696 12.0106 15.3437C12.1847 15.5178 12.4207 15.616 12.6669 15.6167C12.9131 15.616 13.1491 15.5178 13.3232 15.3437C13.4973 15.1696 13.5954 14.9337 13.5962 14.6874L13.5857 12.076L14.6402 12.076C14.7898 12.0509 14.931 11.9897 15.0515 11.8977C15.1721 11.8056 15.2683 11.6856 15.332 11.5479C15.3956 11.4103 15.4247 11.2592 15.4167 11.1077C15.4087 10.9563 15.3639 10.809 15.2861 10.6789L13.2892 7.75928C13.2197 7.65317 13.1248 7.56604 13.0132 7.50574C12.9016 7.44543 12.7768 7.41386 12.6499 7.41386C12.523 7.41386 12.3982 7.44543 12.2866 7.50574C12.175 7.56604 12.0801 7.65317 12.0106 7.75928Z" fill="#28EA3C"/>
<path fill-rule="evenodd" clip-rule="evenodd" d="M12.2582 7.92865L10.267 10.8399C10.2169 10.9264 10.188 11.0236 10.1827 11.1235C10.1773 11.2262 10.197 11.3287 10.2401 11.4221C10.2833 11.5154 10.3486 11.5968 10.4303 11.6592C10.5061 11.7171 10.5938 11.7569 10.687 11.776L12.0114 11.776L12.0376 14.6847L12.0376 14.6866C12.0381 14.8535 12.1047 15.0135 12.2228 15.1316C12.3406 15.2494 12.5003 15.316 12.6669 15.3167C12.8335 15.316 12.9932 15.2494 13.111 15.1316C13.2289 15.0137 13.2954 14.8541 13.2962 14.6875C13.2962 14.6872 13.2962 14.6878 13.2962 14.6875L13.2845 11.776L14.6128 11.776C14.706 11.7569 14.7937 11.7171 14.8695 11.6592C14.9512 11.5968 15.0165 11.5154 15.0597 11.4221C15.1028 11.3287 15.1225 11.2262 15.1171 11.1235C15.1118 11.0236 15.0829 10.9264 15.0328 10.8399L13.0382 7.92372C12.996 7.85927 12.9384 7.8063 12.8706 7.76967C12.8028 7.73304 12.727 7.71386 12.6499 7.71386C12.5728 7.71386 12.497 7.73304 12.4292 7.76967C12.3614 7.8063 12.3038 7.85923 12.2616 7.92369L12.2582 7.92865ZM15.2861 10.6789C15.3639 10.809 15.4087 10.9563 15.4167 11.1077C15.4247 11.2592 15.3956 11.4103 15.332 11.5479C15.2683 11.6856 15.1721 11.8056 15.0515 11.8977C14.931 11.9897 14.7898 12.0509 14.6402 12.076L13.5857 12.076L13.5962 14.6874C13.5954 14.9337 13.4973 15.1696 13.3232 15.3437C13.1491 15.5178 12.9131 15.616 12.6669 15.6167C12.4207 15.616 12.1847 15.5178 12.0106 15.3437C11.8365 15.1696 11.7384 14.9337 11.7376 14.6874L11.7141 12.076L10.6596 12.076C10.51 12.0509 10.3688 11.9897 10.2483 11.8977C10.1277 11.8056 10.0315 11.6856 9.96783 11.5479C9.9042 11.4103 9.87511 11.2592 9.88311 11.1077C9.89111 10.9563 9.93594 10.809 10.0137 10.6789L12.0106 7.75928C12.0801 7.65317 12.175 7.56604 12.2866 7.50574C12.3982 7.44543 12.523 7.41386 12.6499 7.41386C12.7768 7.41386 12.9016 7.44543 13.0132 7.50574C13.1248 7.56604 13.2197 7.65317 13.2892 7.75928L15.2861 10.6789Z" fill="#1C7E26"/>
</g>
<defs>
<clipPath id="clip0_312_1239">
<rect width="16" height="16" fill="white"/>
</clipPath>
</defs>
</svg>
