<svg width="16" height="16" viewBox="0 0 16 16" fill="none" xmlns="http://www.w3.org/2000/svg">
<g clip-path="url(#clip0_312_2450)">
<path d="M6.83011 5.70923H2.84575L3.77333 2.43445H6.42954L6.83011 5.70923Z" fill="#5E5E5E"/>
<path d="M9.17021 5.70923H13.1546L12.227 2.43445H9.57078L9.17021 5.70923Z" fill="#5E5E5E"/>
<path d="M6.95659 4.61741H2.78244V13.3501H6.95659V4.61741Z" fill="#CD3D3C"/>
<path d="M13.2178 4.61741H9.04366V8.2979V9.40618V13.3501H13.2178V4.61741Z" fill="#CD3D3C"/>
<path d="M6.95659 6.80058H2.78244V11.1669H6.95659V6.80058Z" fill="#CD3D3C"/>
<path d="M13.2178 6.80058H9.04366L9.04366 8.2979V9.40618L9.04366 11.1669H13.2178V6.80058Z" fill="#CD3D3C"/>
<path d="M7.30441 4.46894H2.43457V5.56055H7.30441V4.46894Z" fill="#5E5E5E"/>
<path d="M13.5657 4.46894H8.69583V5.56055H13.5657V4.46894Z" fill="#5E5E5E"/>
<path d="M7.30441 12.4739H2.43457V13.5656H7.30441V12.4739Z" fill="#5E5E5E"/>
<path d="M13.5657 12.4739H8.69583V13.5656H13.5657V12.4739Z" fill="#5E5E5E"/>
<path d="M8.00014 7.76048H5.91307V9.94365H8.00014V7.76048Z" fill="#5E5E5E"/>
<path fill-rule="evenodd" clip-rule="evenodd" d="M8.00014 10.0759C8.19078 10.0759 8.37078 10.0283 8.52981 9.94365H10.0872V7.76048H8.52989C8.37084 7.67585 8.19082 7.62814 8.00014 7.62814C7.35395 7.62814 6.83011 8.1761 6.83011 8.85204C6.83011 9.52799 7.35395 10.0759 8.00014 10.0759ZM8.52989 7.76048H8.00014V9.94365H8.52981C8.75077 9.8261 8.93127 9.63731 9.04366 9.40618V8.2979C8.93128 8.06681 8.75081 7.87803 8.52989 7.76048Z" fill="#5E5E5E"/>
<path d="M8.00014 7.76048V9.94365H8.52981C8.75077 9.8261 8.93127 9.63731 9.04366 9.40618V8.2979C8.93128 8.06681 8.75081 7.87803 8.52989 7.76048H8.00014Z" fill="#5D5D5D"/>
<path d="M15.338 13.6242L12.4184 15.6211C12.2882 15.6989 12.141 15.7437 11.9896 15.7517C11.8381 15.7597 11.687 15.7306 11.5494 15.667C11.4117 15.6034 11.2916 15.5071 11.1996 15.3865C11.1076 15.266 11.0464 15.1248 11.0213 14.9752L11.0213 13.9208L8.40984 13.8972C8.16361 13.8964 7.92768 13.7983 7.75357 13.6242C7.57946 13.4501 7.48132 13.2142 7.48059 12.9679C7.48132 12.7217 7.57946 12.4858 7.75357 12.3117C7.92768 12.1375 8.16361 12.0394 8.40984 12.0387L11.0213 12.0491L11.0213 10.9946C11.0464 10.845 11.1076 10.7039 11.1996 10.5833C11.2916 10.4628 11.4117 10.3665 11.5494 10.3029C11.687 10.2392 11.8381 10.2101 11.9896 10.2181C12.141 10.2261 12.2882 10.271 12.4184 10.3487L15.338 12.3457C15.4441 12.4152 15.5313 12.51 15.5916 12.6216C15.6519 12.7332 15.6834 12.8581 15.6834 12.9849C15.6834 13.1118 15.6519 13.2366 15.5916 13.3482C15.5313 13.4598 15.4441 13.5547 15.338 13.6242Z" fill="#28EA3C"/>
<path fill-rule="evenodd" clip-rule="evenodd" d="M15.1686 13.3766L12.2574 15.3678C12.1709 15.4179 12.0737 15.4469 11.9738 15.4521C11.8711 15.4576 11.7686 15.4378 11.6752 15.3947C11.5819 15.3515 11.5005 15.2862 11.4381 15.2045C11.3802 15.1287 11.3403 15.041 11.3213 14.9478L11.3213 13.6235L8.41255 13.5972L8.41073 13.5972C8.24376 13.5967 8.08377 13.5301 7.9657 13.4121C7.84784 13.2942 7.78132 13.1346 7.78059 12.9679C7.78132 12.8013 7.84784 12.6416 7.9657 12.5238C8.08355 12.4059 8.24315 12.3394 8.40979 12.3387C8.4101 12.3387 8.40947 12.3387 8.40979 12.3387L11.3213 12.3503L11.3213 11.022C11.3403 10.9289 11.3802 10.8411 11.4381 10.7653C11.5005 10.6836 11.5819 10.6183 11.6752 10.5752C11.7686 10.532 11.8711 10.5123 11.9738 10.5177C12.0737 10.523 12.1709 10.5519 12.2574 10.6021L15.1736 12.5966C15.238 12.6389 15.291 12.6964 15.3276 12.7642C15.3642 12.832 15.3834 12.9079 15.3834 12.9849C15.3834 13.062 15.3642 13.1378 15.3276 13.2056C15.291 13.2734 15.2381 13.331 15.1736 13.3733L15.1686 13.3766ZM12.4184 10.3487C12.2882 10.271 12.141 10.2261 11.9896 10.2181C11.8381 10.2101 11.687 10.2392 11.5494 10.3029C11.4117 10.3665 11.2916 10.4628 11.1996 10.5833C11.1076 10.7039 11.0464 10.845 11.0213 10.9946L11.0213 12.0491L8.40984 12.0387C8.16361 12.0394 7.92768 12.1375 7.75357 12.3117C7.57946 12.4858 7.48132 12.7217 7.48059 12.9679C7.48132 13.2142 7.57946 13.4501 7.75357 13.6242C7.92768 13.7983 8.16361 13.8964 8.40984 13.8972L11.0213 13.9208L11.0213 14.9752C11.0464 15.1248 11.1076 15.266 11.1996 15.3865C11.2916 15.5071 11.4117 15.6034 11.5494 15.667C11.687 15.7306 11.8381 15.7597 11.9896 15.7517C12.141 15.7437 12.2882 15.6989 12.4184 15.6211L15.338 13.6242C15.4441 13.5547 15.5313 13.4598 15.5916 13.3482C15.6519 13.2366 15.6834 13.1118 15.6834 12.9849C15.6834 12.8581 15.6519 12.7332 15.5916 12.6216C15.5313 12.51 15.4441 12.4152 15.338 12.3457L12.4184 10.3487Z" fill="#1C7E26"/>
</g>
<defs>
<clipPath id="clip0_312_2450">
<rect width="16" height="16" fill="white"/>
</clipPath>
</defs>
</svg>
