<svg width="16" height="16" viewBox="0 0 16 16" fill="none" xmlns="http://www.w3.org/2000/svg">
<path d="M6.25338 4.01575L5.3801 2.81067H2.06132L1.01318 4.01575V7.0322H14.9872V4.01575H6.25338Z" fill="#BF8122"/>
<path d="M1.47314 4.55707H14.6046V9.78341H1.47314V4.55707Z" fill="#EFEFEF"/>
<path d="M14.9872 13.1894V5.1886H5.53852V6.95719H1.01318V13.1894H14.9872Z" fill="#FFA724"/>
<path d="M1.01318 6.71771H5.5492V7.62474H1.01318V6.71771Z" fill="#F7C780"/>
<path d="M12.3693 2.93537H10.2216L10.7216 1.17017H12.1534L12.3693 2.93537Z" fill="#5E5E5E"/>
<path d="M13.6307 2.93537H15.7784L15.2784 1.17017H13.8466L13.6307 2.93537Z" fill="#5E5E5E"/>
<path d="M12.4375 2.34685H10.1875V7.05405H12.4375V2.34685Z" fill="#CD3D3C"/>
<path d="M15.8125 2.34685H13.5625V4.33075V4.92814V7.05405H15.8125V2.34685Z" fill="#CD3D3C"/>
<path d="M12.4375 3.52364H10.1875V5.87723H12.4375V3.52364Z" fill="#CD3D3C"/>
<path d="M15.8125 3.52364H13.5625L13.5625 4.33075V4.92814L13.5625 5.87723H15.8125V3.52364Z" fill="#CD3D3C"/>
<path d="M12.625 2.26682H10V2.85523H12.625V2.26682Z" fill="#5E5E5E"/>
<path d="M16 2.26682H13.375V2.85523H16V2.26682Z" fill="#5E5E5E"/>
<path d="M12.625 6.58176H10V7.17017H12.625V6.58176Z" fill="#5E5E5E"/>
<path d="M16 6.58176H13.375V7.17017H16V6.58176Z" fill="#5E5E5E"/>
<path d="M13 4.04106H11.875V5.21785H13V4.04106Z" fill="#5E5E5E"/>
<path fill-rule="evenodd" clip-rule="evenodd" d="M13 5.28916C13.1028 5.28916 13.1998 5.26346 13.2855 5.21785H14.125V4.04106H13.2856C13.1998 3.99544 13.1028 3.96972 13 3.96972C12.6517 3.96972 12.3693 4.26509 12.3693 4.62944C12.3693 4.9938 12.6517 5.28916 13 5.28916ZM13.2856 4.04106H13V5.21785H13.2855C13.4046 5.15449 13.5019 5.05272 13.5625 4.92814V4.33075C13.5019 4.20618 13.4046 4.10442 13.2856 4.04106Z" fill="#5E5E5E"/>
<path d="M13 4.04106V5.21785H13.2855C13.4046 5.15449 13.5019 5.05272 13.5625 4.92814V4.33075C13.5019 4.20618 13.4046 4.10442 13.2856 4.04106H13Z" fill="#5D5D5D"/>
</svg>
