<svg width="16" height="16" viewBox="0 0 16 16" fill="none" xmlns="http://www.w3.org/2000/svg">
<path d="M14.2028 1H1.70033C1.35509 1 1.0752 1.34824 1.0752 1.77779V4.88889V8V11.1111V14.2222C1.0752 14.6518 1.35509 15 1.70033 15H5.86784H10.0354H14.2029C14.5481 15 14.828 14.6518 14.828 14.2222V11.1111V8V4.88889V1.77779C14.8279 1.34824 14.5481 1 14.2028 1Z" fill="#554646"/>
<path d="M14.5484 1H1.71678C1.36245 1 1.0752 1.29849 1.0752 1.66667V4.33333C1.0752 4.70151 1.36245 5 1.71678 5H2.35837H5.3524H6.63555H9.62959H10.9127H13.9068H14.5484C14.9027 5 15.1899 4.70151 15.1899 4.33333V1.66667C15.1899 1.29849 14.9027 1 14.5484 1Z" fill="#CD3D3C"/>
<path fill-rule="evenodd" clip-rule="evenodd" d="M1.35547 2V14H14.6445V2H1.35547ZM1.05043 1H14.9495C15.3333 1 15.6445 1.34824 15.6445 1.77779V14.2222C15.6445 14.6518 15.3334 15 14.9496 15H1.05043C0.666624 15 0.355469 14.6518 0.355469 14.2222V1.77779C0.355469 1.34824 0.666624 1 1.05043 1Z" fill="#E23B3A"/>
<path d="M3.16553 10.1931H5.77623V12.0331H3.16553V10.1931Z" fill="#F8F8F8"/>
<path d="M3.16553 6.71216H5.77623V8.55348H3.16553V6.71216Z" fill="#F8F8F8"/>
<path d="M6.64648 6.71216H9.25718V8.55348H6.64648V6.71216Z" fill="#F8F8F8"/>
<path d="M6.64648 10.1931H9.25718V12.0331H6.64648V10.1931Z" fill="#F8F8F8"/>
<path d="M10.127 6.71216H12.7377V8.55348H10.127V6.71216Z" fill="#F8F8F8"/>
<path d="M10.127 10.1931H12.7377V12.0331H10.127V10.1931Z" fill="#F8F8F8"/>
</svg>
