<svg width="17" height="17" viewBox="0 0 17 17" fill="none" xmlns="http://www.w3.org/2000/svg">
<g clip-path="url(#clip0_363_1548)">
<path fill-rule="evenodd" clip-rule="evenodd" d="M4.89063 0.448975C5.71763 0.448975 6.39062 1.12197 6.39062 1.94897V14.949C6.39062 15.776 5.71763 16.449 4.89063 16.449H-8.10937C-8.93637 16.449 -9.60938 15.776 -9.60938 14.949V1.94897C-9.60938 1.12197 -8.93637 0.448975 -8.10937 0.448975H4.89063ZM1.39063 10.449H5.39063V6.44898H1.39063V10.449ZM5.39063 14.949V11.449H1.39063V15.449H4.89063C5.16563 15.449 5.39063 15.224 5.39063 14.949ZM-3.60937 10.449H0.390626V6.44898H-3.60937V10.449ZM-3.60937 15.449H0.390626V11.449H-3.60937V15.449ZM-8.60938 10.449H-4.60937V6.44898H-8.60938V10.449ZM-4.60937 15.449V11.449H-8.60938V14.949C-8.60938 15.224 -8.38437 15.449 -8.10937 15.449H-4.60937Z" fill="#4B4949"/>
<path d="M13.5493 10.0707L11.86 13.9353C11.6482 14.4212 11.4488 14.7701 11.262 14.9819C11.0776 15.1937 10.8583 15.3519 10.6042 15.4565C10.35 15.5587 10.041 15.6098 9.67724 15.6098C9.36578 15.6098 9.0755 15.5724 8.8064 15.4976V14.5035C9.02567 14.5932 9.29851 14.638 9.62492 14.638C9.83173 14.638 9.99867 14.5907 10.1257 14.496C10.2528 14.3988 10.3587 14.2319 10.4434 13.9951L8.55225 10.0707H9.77816L11.1237 13.1168H11.161L11.2283 12.93L12.3571 10.0707H13.5493Z" fill="#4B4949"/>
<path d="M13.6055 7.88053H12.2824L11.0116 5.81368L9.74086 7.88053H8.5L10.3127 5.06243L8.61586 2.41626H9.8941L11.0714 4.3822L12.2263 2.41626H13.4747L11.7591 5.12597L13.6055 7.88053Z" fill="#4B4949"/>
</g>
<defs>
<clipPath id="clip0_363_1548">
<rect width="16" height="16" fill="white" transform="translate(0.5 0.448975)"/>
</clipPath>
</defs>
</svg>
