<svg width="16" height="16" viewBox="0 0 16 16" fill="none" xmlns="http://www.w3.org/2000/svg">
<path d="M14.6564 16H5.41376L5.38485 15.5958C5.35888 15.2329 4.74866 6.6988 4.70799 5.81172L4.6875 5.36511H15.3826L15.3621 5.81172C15.3214 6.6988 14.7112 15.2329 14.6852 15.5958L14.6564 16Z" fill="#8B8B8B"/>
<path d="M14.656 16H10.0347L10.0352 5.36511H15.3822L15.3617 5.81172C15.3211 6.6988 14.7108 15.2329 14.6849 15.5958L14.656 16Z" fill="#6F6F6F"/>
<path d="M10.546 7.13812H9.52344V14.351H10.546V7.13812Z" fill="#6F6F6F"/>
<path d="M10.5465 7.13812H10.0352V14.351H10.5465V7.13812Z" fill="#444444"/>
<path d="M6.88097 7.17208L7.32764 14.3728L8.34875 14.328L7.90208 7.12727L6.88097 7.17208Z" fill="#6F6F6F"/>
<path d="M11.7216 14.3279L12.7427 14.3727L13.1893 7.17196L12.1682 7.12715L11.7216 14.3279Z" fill="#444444"/>
<path d="M9.21011 4.20469L8.1875 4.20459L8.18765 2.3299H11.8823V4.20463H10.8597V3.35247H9.21017L9.21011 4.20469Z" fill="#8B8B8B"/>
<path d="M10.0356 2.3299H11.8826V4.20463H10.86V3.35247H10.0352L10.0356 2.3299Z" fill="#6F6F6F"/>
<path d="M16 6.38772H4.06982V3.69336H16L16 6.38772Z" fill="#6F6F6F"/>
<path d="M16.0003 6.38772H10.0356V3.69336H16.0003V6.38772Z" fill="#444444"/>
</svg>
