<svg width="16" height="16" viewBox="0 0 16 16" fill="none" xmlns="http://www.w3.org/2000/svg">
<path d="M11.5733 5.16573C11.5759 5.16817 11.5774 5.1716 11.5774 5.17518V13.9846C11.5774 14.5369 11.1297 14.9846 10.5774 14.9846H2.20313C1.65084 14.9846 1.20312 14.5369 1.20312 13.9846V3.58441C1.20312 3.03213 1.65084 2.58441 2.20312 2.58441H8.41402C8.66735 2.58441 8.91125 2.68056 9.09643 2.85344L11.5733 5.16573V5.16573Z" fill="#FC7B24"/>
<path d="M11.3847 4.99257C11.4511 5.0545 11.4072 5.16566 11.3165 5.16566H8.90518C8.84995 5.16566 8.80518 5.12089 8.80518 5.06566V2.81455C8.80518 2.72711 8.9095 2.68178 8.97342 2.74146L11.3847 4.99257Z" fill="#FC7B24"/>
<path d="M11.3847 4.99263C11.4511 5.05456 11.4072 5.16572 11.3165 5.16572H8.90518C8.84995 5.16572 8.80518 5.12095 8.80518 5.06572V2.81461C8.80518 2.72717 8.9095 2.68185 8.97342 2.74152L11.3847 4.99263Z" fill="#FC7B24"/>
<path d="M11.3847 4.99257C11.4511 5.0545 11.4072 5.16566 11.3165 5.16566H8.90518C8.84995 5.16566 8.80518 5.12089 8.80518 5.06566V2.81455C8.80518 2.72711 8.9095 2.68178 8.97342 2.74146L11.3847 4.99257Z" fill="white" fill-opacity="0.7"/>
<path d="M4.42139 1.60773C4.42139 1.13331 4.80598 0.748718 5.2804 0.748718H14.5624C15.0368 0.748718 15.4214 1.13331 15.4214 1.60773V12.8469C15.4214 13.3213 15.0368 13.7059 14.5624 13.7059H5.2804C4.80598 13.7059 4.42139 13.3213 4.42139 12.8469V1.60773Z" fill="#F5F5F5"/>
<path d="M14.9213 0.727295H4.92139C4.64525 0.727295 4.42139 1.05066 4.42139 1.44952V4.33841V7.2273V10.1162V13.0051C4.42139 13.4039 4.64525 13.7273 4.92139 13.7273H8.25472H11.588H14.9214C15.1975 13.7273 15.4214 13.4039 15.4214 13.0051V10.1162V7.2273V4.33841V1.44952C15.4213 1.05066 15.1975 0.727295 14.9213 0.727295ZM7.7547 11.5606C7.75471 11.9595 7.43136 12.2828 7.03249 12.2828H6.14358C5.74472 12.2828 5.42137 11.9595 5.42137 11.5606V11.5606C5.42137 11.1618 5.74472 10.8384 6.14359 10.8384H7.03249C7.43135 10.8384 7.7547 11.1618 7.7547 11.5606V11.5606ZM7.7547 8.67173C7.75471 9.0706 7.43136 9.39395 7.03249 9.39395H6.14358C5.74472 9.39395 5.42137 9.07061 5.42137 8.67174V8.67174C5.42137 8.27287 5.74472 7.94952 6.14359 7.94952H7.03249C7.43135 7.94952 7.7547 8.27286 7.7547 8.67173V8.67173ZM7.7547 5.78284C7.75471 6.18171 7.43136 6.50507 7.03249 6.50507H6.14358C5.74472 6.50507 5.42137 6.18172 5.42137 5.78285V5.78285C5.42137 5.38399 5.74472 5.06064 6.14359 5.06064H7.03249C7.43135 5.06064 7.7547 5.38398 7.7547 5.78284V5.78284ZM11.088 11.5606C11.088 11.9595 10.7647 12.2828 10.3658 12.2828H9.47691C9.07804 12.2828 8.7547 11.9595 8.7547 11.5606V11.5606C8.7547 11.1618 9.07804 10.8384 9.47691 10.8384H10.3658C10.7647 10.8384 11.088 11.1618 11.088 11.5606V11.5606ZM11.088 8.67174C11.088 9.07061 10.7647 9.39395 10.3658 9.39395H9.47691C9.07804 9.39395 8.7547 9.07061 8.7547 8.67174V8.67174C8.7547 8.27287 9.07804 7.94952 9.47691 7.94952H10.3658C10.7647 7.94952 11.088 8.27287 11.088 8.67174V8.67174ZM11.088 5.78285C11.088 6.18172 10.7647 6.50507 10.3658 6.50507H9.47691C9.07804 6.50507 8.7547 6.18172 8.7547 5.78285V5.78285C8.7547 5.38399 9.07804 5.06064 9.47691 5.06064H10.3658C10.7647 5.06064 11.088 5.38399 11.088 5.78285V5.78285ZM14.4213 11.5606C14.4213 11.9595 14.098 12.2828 13.6991 12.2828H12.8102C12.4113 12.2828 12.088 11.9595 12.088 11.5606V11.5606C12.088 11.1618 12.4113 10.8384 12.8102 10.8384H13.6991C14.098 10.8384 14.4213 11.1618 14.4213 11.5606V11.5606ZM14.4213 8.67173C14.4213 9.0706 14.098 9.39395 13.6991 9.39395H12.8102C12.4113 9.39395 12.088 9.07061 12.088 8.67174V8.67174C12.088 8.27287 12.4113 7.94952 12.8102 7.94952H13.6991C14.098 7.94952 14.4213 8.27286 14.4213 8.67173V8.67173ZM14.4213 5.78284C14.4213 6.18171 14.098 6.50507 13.6991 6.50507H12.8102C12.4113 6.50507 12.088 6.18172 12.088 5.78285V5.78285C12.088 5.38399 12.4113 5.06064 12.8102 5.06064H13.6991C14.098 5.06064 14.4213 5.38398 14.4213 5.78284V5.78284Z" fill="#554646"/>
<path d="M14.9214 0.727295H4.92139C4.64525 0.727295 4.42139 1.00446 4.42139 1.34635V3.82253C4.42139 4.16441 4.64525 4.44158 4.92139 4.44158H5.4214H7.75473H8.75471H11.088H12.088H14.4214H14.9214C15.1975 4.44158 15.4214 4.16441 15.4214 3.82253V1.34635C15.4214 1.00446 15.1975 0.727295 14.9214 0.727295Z" fill="#CD3D3C"/>
<path d="M7.75679 9.65503L4.22064 9.5704C4.06909 9.57608 3.92121 9.61865 3.78984 9.69443C3.65846 9.77021 3.54757 9.8769 3.46677 10.0052C3.38598 10.1336 3.33772 10.2797 3.3262 10.4309C3.31467 10.5822 3.34022 10.7339 3.40063 10.873L3.97494 11.7574L1.79766 13.1994C1.59156 13.3342 1.44714 13.545 1.39594 13.7858C1.34475 14.0267 1.39094 14.278 1.52443 14.4849C1.65915 14.691 1.86996 14.8354 2.11081 14.8866C2.35165 14.9378 2.60298 14.8916 2.80988 14.7581L4.99433 13.3271L5.56864 14.2115C5.67115 14.3232 5.79939 14.4083 5.94223 14.4593C6.08506 14.5102 6.23818 14.5256 6.38829 14.504C6.53841 14.4824 6.68098 14.4245 6.80364 14.3353C6.9263 14.2461 7.02534 14.1283 7.09217 13.9922L8.45314 10.7273C8.50426 10.6112 8.52569 10.4842 8.51548 10.3578C8.50527 10.2313 8.46375 10.1094 8.39466 10.003C8.32557 9.89666 8.23109 9.80914 8.11973 9.74838C8.00837 9.68763 7.88364 9.65555 7.75679 9.65503Z" fill="#28EA3C"/>
<path fill-rule="evenodd" clip-rule="evenodd" d="M7.74961 9.95495L4.22356 9.87055C4.1237 9.87561 4.02642 9.9043 3.93973 9.9543C3.85065 10.0057 3.77545 10.078 3.72066 10.1651C3.66587 10.2521 3.63315 10.3512 3.62533 10.4537C3.61809 10.5488 3.63244 10.6441 3.66718 10.7326L4.38846 11.8433L1.96332 13.4496L1.9618 13.4506C1.82204 13.5419 1.7241 13.6849 1.68939 13.8482C1.65473 14.0112 1.68588 14.1813 1.77604 14.3215C1.86741 14.4609 2.01015 14.5585 2.17318 14.5932C2.33619 14.6278 2.50628 14.5967 2.64644 14.5065C2.64671 14.5064 2.64617 14.5067 2.64644 14.5065L5.08189 12.9111L5.8053 14.0251C5.87205 14.0928 5.95331 14.1447 6.04307 14.1767C6.13993 14.2113 6.24376 14.2217 6.34555 14.2071C6.44735 14.1924 6.54403 14.1531 6.62721 14.0926C6.70815 14.0338 6.77392 13.9566 6.81916 13.8674L8.17853 10.6064C8.20958 10.5359 8.22265 10.4587 8.21645 10.3819C8.21025 10.3051 8.18503 10.2311 8.14306 10.1664C8.10109 10.1018 8.04369 10.0486 7.97605 10.0117C7.9084 9.97483 7.83263 9.95534 7.75557 9.95503L7.74961 9.95495ZM7.09217 13.9922C7.02534 14.1283 6.9263 14.2461 6.80364 14.3353C6.68098 14.4245 6.53841 14.4824 6.38829 14.504C6.23818 14.5256 6.08506 14.5102 5.94223 14.4593C5.79939 14.4083 5.67115 14.3232 5.56864 14.2115L4.99433 13.3271L2.80988 14.7581C2.60297 14.8916 2.35165 14.9378 2.11081 14.8866C1.86996 14.8354 1.65915 14.691 1.52443 14.4849C1.39094 14.278 1.34475 14.0267 1.39594 13.7858C1.44714 13.545 1.59156 13.3342 1.79766 13.1994L3.97494 11.7574L3.40063 10.873C3.34022 10.7339 3.31467 10.5822 3.3262 10.4309C3.33772 10.2797 3.38598 10.1336 3.46677 10.0052C3.54757 9.8769 3.65846 9.77021 3.78984 9.69443C3.92121 9.61865 4.06909 9.57608 4.22064 9.5704L7.75679 9.65503C7.88364 9.65555 8.00837 9.68763 8.11973 9.74838C8.23109 9.80914 8.32557 9.89666 8.39466 10.003C8.46375 10.1094 8.50527 10.2313 8.51548 10.3578C8.52569 10.4842 8.50426 10.6112 8.45314 10.7273L7.09217 13.9922Z" fill="#1C7E26"/>
</svg>
