<svg width="16" height="16" viewBox="0 0 16 16" fill="none" xmlns="http://www.w3.org/2000/svg">
<path d="M4.80105 3.31763C6.16537 2.50727 7.90226 2.92387 8.72713 4.3278C9.52773 5.69044 9.07666 7.46231 7.71234 8.27267C6.34776 9.08318 4.58674 8.62521 3.78613 7.26257C2.96127 5.85865 3.43647 4.12814 4.80105 3.31763ZM5.28626 4.14347C4.83127 4.41372 4.68109 5.00424 4.94796 5.45845C5.21482 5.91266 5.8017 6.0654 6.25669 5.79515C6.71136 5.5251 6.86174 4.93445 6.59487 4.48024C6.32801 4.02603 5.74093 3.87342 5.28626 4.14347Z" fill="#B67C20"/>
<path d="M4.90249 2.97884C6.26694 2.1684 8.02476 2.62064 8.82869 3.98893C9.63262 5.35723 9.17823 7.12344 7.81378 7.93388C6.4492 8.74438 4.6915 8.29207 3.88757 6.92378C3.08364 5.55549 3.53791 3.78934 4.90249 2.97884ZM5.3877 3.80468C4.93271 4.07493 4.78141 4.66355 5.0494 5.11966C5.31738 5.57577 5.90314 5.72661 6.35813 5.45636C6.81296 5.1862 6.96442 4.59749 6.69644 4.14138C6.42845 3.68526 5.84253 3.53452 5.3877 3.80468Z" fill="#FFA724"/>
<path d="M6.33608 8.25472L8.80664 6.78729L9.29186 7.61313L6.82129 9.08056L6.33608 8.25472Z" fill="#FFA724"/>
<path d="M8.87988 7.8576L11.0634 11.5739L10.725 12.8889L9.41631 12.5522L9.1737 12.1392L9.75462 11.2372L8.68849 11.3134L8.44588 10.9005L8.61503 10.243L7.96066 10.0746L7.23284 8.83589L8.87988 7.8576Z" fill="#FFA724"/>
<path d="M7.64453 8.59137L8.61496 10.243L7.96059 10.0747L7.23277 8.83594L7.64453 8.59137ZM8.61496 10.243L9.22148 11.2753L8.68842 11.3135L8.44581 10.9005L8.61496 10.243ZM9.46409 11.6883L10.0706 12.7206L9.41624 12.5522L9.17363 12.1393L9.46409 11.6883Z" fill="#B67C20"/>
</svg>
