<svg width="16" height="16" viewBox="0 0 16 16" fill="none" xmlns="http://www.w3.org/2000/svg">
<path d="M15.1845 3.18774H0.815047C0.632709 3.18774 0.484863 3.33559 0.484863 3.51787V12.7301C0.484863 12.9125 0.632709 13.0603 0.815047 13.0603H7.16933C7.27266 13.4236 7.60333 13.6913 7.99981 13.6913C8.39626 13.6913 8.72687 13.4236 8.83016 13.0603H15.1845C15.3669 13.0603 15.5147 12.9124 15.5147 12.7301V3.51787C15.5147 3.33559 15.3668 3.18774 15.1845 3.18774Z" fill="#DC8744"/>
<path d="M8.86041 2.30878C8.42078 2.30878 8.06445 2.66511 8.06445 3.10467V12.8148H8.07592C8.13148 12.4296 8.45977 12.1326 8.86041 12.1326H14.932V2.30878H8.86041Z" fill="#BFBFBF"/>
<path d="M7.26843 2.30878C7.70802 2.30878 8.06435 2.66511 8.06435 3.10467V12.8148H8.05285C7.99732 12.4296 7.669 12.1326 7.26843 12.1326H1.19678V2.30878H7.26843Z" fill="#BFBFBF"/>
<path d="M8.86041 2.30878C8.42078 2.30878 8.06445 2.66511 8.06445 3.10467V12.8148H8.07592C8.13148 12.4296 8.45977 12.1326 8.86041 12.1326H14.3855V2.30878H8.86041Z" fill="#ECECEC"/>
<path d="M7.26875 2.30878C7.70834 2.30878 8.06467 2.66511 8.06467 3.10467V12.8148H8.05317C7.99764 12.4296 7.66932 12.1326 7.26875 12.1326H1.74365V2.30878H7.26875Z" fill="#F8F8F8"/>
<path d="M7.43467 6.31384H2.37305V6.58061H7.43467V6.31384Z" fill="#D5D6DB"/>
<path d="M7.43467 7.62598H2.37305V7.89274H7.43467V7.62598Z" fill="#D5D6DB"/>
<path d="M7.43467 8.93738H2.37305V9.20414H7.43467V8.93738Z" fill="#D5D6DB"/>
<path d="M7.43467 10.2482H2.37305V10.515H7.43467V10.2482Z" fill="#D5D6DB"/>
<path d="M13.7564 3.69165H8.69482V3.95842H13.7564V3.69165Z" fill="#D5D6DB"/>
<path d="M7.43467 5.00226H2.37305V5.26902H7.43467V5.00226Z" fill="#D5D6DB"/>
<path d="M7.43467 3.65594H2.37305V3.92271H7.43467V3.65594Z" fill="#D5D6DB"/>
<path d="M7.93115 3.69166L7.93115 11.7299H8.19792V3.69166H7.93115Z" fill="#D5D6DB"/>
<path d="M13.7564 5.00299H8.69482V5.26976H13.7564V5.00299Z" fill="#D5D6DB"/>
<path d="M13.7564 6.31384H8.69482V6.58061H13.7564V6.31384Z" fill="#D5D6DB"/>
<path d="M13.7564 7.62598H8.69482V7.89274H13.7564V7.62598Z" fill="#D5D6DB"/>
<path d="M13.7564 8.93738H8.69482V9.20414H13.7564V8.93738Z" fill="#D5D6DB"/>
<path d="M13.7564 10.2482H8.69482V10.515H13.7564V10.2482Z" fill="#D5D6DB"/>
</svg>
