<svg width="16" height="16" viewBox="0 0 16 16" fill="none" xmlns="http://www.w3.org/2000/svg">
<path fill-rule="evenodd" clip-rule="evenodd" d="M11.683 3.94754C12.1171 3.78815 12.4512 3.60723 12.6596 3.42738C12.8026 3.30462 12.8476 3.22385 12.8476 3.19154C12.8476 3.15923 12.8026 3.07846 12.6596 2.95462C12.4512 2.77585 12.1182 2.59492 11.683 2.43554C10.7308 2.08769 9.41292 1.88415 8.00002 1.88415C6.58712 1.88415 5.26923 2.08877 4.31709 2.43554C3.8829 2.59492 3.54883 2.77585 3.34042 2.95569C3.19739 3.07846 3.15244 3.15815 3.15244 3.19154C3.15244 3.22385 3.19739 3.30462 3.34042 3.42846C3.54883 3.60723 3.88188 3.78815 4.31709 3.94754C5.26923 4.29538 6.58712 4.49892 8.00002 4.49892C9.41292 4.49892 10.7308 4.29431 11.683 3.94754ZM13.9387 12.9813C13.9387 12.9813 13.3135 13.4438 13.1541 13.5666C12.916 13.7497 12.6453 13.9403 12.3327 14.104C11.2559 14.6651 10.1587 15 8.11342 15C4.70632 15 2.45365 13.8638 2.02253 12.3615L2.00721 12.3077V12.2517L2.00108 9.97831C1.99864 7.7419 2.00034 5.50548 2.00619 3.26908C2.0036 3.24332 2.00223 3.21744 2.0021 3.19154C2.00312 1.98108 4.68793 1 8.00002 1C11.3121 1 13.9969 1.98108 13.9969 3.19154C13.9972 3.23883 13.9935 3.28605 13.9857 3.33262C13.9955 3.36646 14.0003 3.40169 14 3.43708L13.9387 12.9813Z" fill="white"/>
</svg>
