<svg width="16" height="16" viewBox="0 0 16 16" fill="none" xmlns="http://www.w3.org/2000/svg">
<path d="M12.0835 7.13394C12.7502 7.51884 12.7502 8.48109 12.0835 8.86599L6.70857 11.9692C6.04191 12.3541 5.20857 11.873 5.20857 11.1032V4.89675C5.20857 4.12695 6.04191 3.64583 6.70857 4.03073L12.0835 7.13394Z" fill="#28EA3C"/>
<path fill-rule="evenodd" clip-rule="evenodd" d="M6.55857 11.7094L11.9335 8.60619C12.4002 8.33676 12.4002 7.66318 11.9335 7.39375L6.55857 4.29054C6.09191 4.02111 5.50857 4.3579 5.50857 4.89675V11.1032C5.50857 11.642 6.09191 11.9788 6.55857 11.7094ZM12.0835 8.86599C12.7502 8.48109 12.7502 7.51884 12.0835 7.13394L6.70857 4.03073C6.04191 3.64583 5.20857 4.12695 5.20857 4.89675V11.1032C5.20857 11.873 6.04191 12.3541 6.70857 11.9692L12.0835 8.86599Z" fill="#1C7E26"/>
<path d="M14.1282 11.3471C14.1282 11.9128 13.9345 12.3485 13.5472 12.6543C13.1624 12.9575 12.6107 13.1091 11.8922 13.1091H11.2347V15.0336H10.585V9.71881H12.0336C13.43 9.71881 14.1282 10.2616 14.1282 11.3471ZM11.2347 12.5511H11.8195C12.3954 12.5511 12.812 12.4581 13.0694 12.2721C13.3268 12.086 13.4555 11.7879 13.4555 11.3777C13.4555 11.0082 13.3344 10.733 13.0923 10.5521C12.8503 10.3711 12.4731 10.2807 11.961 10.2807H11.2347V12.5511Z" fill="#554646"/>
</svg>
