<svg width="16" height="16" viewBox="0 0 16 16" fill="none" xmlns="http://www.w3.org/2000/svg">
<path d="M10.7616 16C10.5908 16 10.4428 15.9417 10.3178 15.825C10.1969 15.7041 10.1365 15.5604 10.1365 15.3937V15.3874L10.124 7.55511C10.124 7.4426 10.1761 7.3155 10.2803 7.17381C10.3886 7.02796 10.5428 6.95295 10.7429 6.94878L12.7119 6.93628C13.3203 6.93628 13.8724 7.03629 14.3683 7.23632C14.8684 7.43218 15.2643 7.73014 15.556 8.13019C15.8519 8.53024 15.9998 9.03865 15.9998 9.6554C15.9998 10.3597 15.8456 10.9264 15.5373 11.3556C15.2289 11.7848 14.8059 12.0995 14.2683 12.2995C13.7349 12.4995 13.1265 12.61 12.4431 12.6308L11.3804 12.6558L11.3867 15.3999V15.4062C11.3867 15.5729 11.3242 15.7145 11.1992 15.8312C11.0783 15.9437 10.9325 16 10.7616 16ZM14.7496 9.66165C14.7496 9.14074 14.5642 8.76569 14.1933 8.53649C13.8266 8.3073 13.3182 8.1927 12.6681 8.1927H11.3742L11.3804 11.3931L12.4243 11.3681C13.1578 11.3515 13.7287 11.2264 14.1371 10.9931C14.5455 10.7597 14.7496 10.3159 14.7496 9.66165Z" fill="#4B4949"/>
<path fill-rule="evenodd" clip-rule="evenodd" d="M11.5709 6.94357L10.7433 6.94883C10.5433 6.95299 10.3891 7.028 10.2807 7.17386C10.2183 7.25878 10.1746 7.33846 10.1495 7.41291L10.5665 7.65361C10.8331 7.80757 10.8331 8.19247 10.5664 8.34643L10.1261 8.60065L10.1283 9.98501L11.1664 9.38566C11.2419 9.34212 11.3119 9.29397 11.3767 9.24186L11.3746 8.19275H11.955C12.0074 7.75217 11.8794 7.29292 11.5709 6.94357ZM9.32686 9.0621L9.32907 10.4465L4.8917 13.0084C3.82503 13.6242 2.4917 12.8544 2.4917 11.6227V4.37729C2.4917 3.14561 3.82503 2.37581 4.8917 2.99165L10.4237 6.18554C10.1205 6.25425 9.8438 6.42046 9.63853 6.69679L9.63621 6.69995C9.57142 6.78806 9.50528 6.89186 9.45068 7.00942L4.2917 4.03088C4.02503 3.87692 3.6917 4.06937 3.6917 4.37729V11.6227C3.6917 11.9307 4.02503 12.1231 4.2917 11.9692L9.32686 9.0621Z" fill="#4B4949"/>
</svg>
