<svg width="17" height="17" viewBox="0 0 17 17" fill="none" xmlns="http://www.w3.org/2000/svg">
<path d="M13.3115 13.1864L8.83984 15.5805V9.79577L13.2849 7.46344L13.3115 13.1864Z" fill="#4B4949"/>
<path d="M3.43261 13.1864L7.9043 15.5805V9.79577L3.45928 7.46344L3.43261 13.1864Z" fill="#4B4949"/>
<path d="M5.57125 11.205L7.89844 9.78882L3.43448 7.3255L1.02539 8.72842L5.57125 11.205Z" fill="#7D7D7D"/>
<path d="M3.66243 7.2034L8.16883 4.72063L5.73257 3.33826L1.1499 5.84475L3.66243 7.2034Z" fill="#262626"/>
<path d="M13.0231 7.18399L15.6845 5.84296L11.1492 3.33826L8.51416 4.70302L13.0231 7.18399Z" fill="#7D7D7D"/>
<path d="M11.5287 11.1133L15.9747 8.74983L13.312 7.3255L8.84766 9.79663L11.5287 11.1133Z" fill="#262626"/>
</svg>
