<svg width="16" height="16" viewBox="0 0 16 16" fill="none" xmlns="http://www.w3.org/2000/svg">
<path d="M13.8857 3.8907C13.8887 3.89347 13.8904 3.89736 13.8904 3.90143V14.0406C13.8904 14.5928 13.4427 15.0406 12.8904 15.0406H3.10986C2.55758 15.0406 2.10986 14.5928 2.10986 14.0406V1.95947C2.10986 1.40719 2.55758 0.959473 3.10986 0.959473H10.3517C10.605 0.959473 10.8489 1.05562 11.0341 1.2285L13.8857 3.8907V3.8907Z" fill="#FC7B24"/>
<path d="M13.697 3.71753C13.7634 3.77946 13.7195 3.89063 13.6288 3.89063H10.8427C10.7874 3.89063 10.7427 3.84585 10.7427 3.79063V1.18961C10.7427 1.10217 10.847 1.05685 10.9109 1.11652L13.697 3.71753Z" fill="#FC7B24"/>
<path d="M13.697 3.71753C13.7634 3.77946 13.7195 3.89063 13.6288 3.89063H10.8427C10.7874 3.89063 10.7427 3.84585 10.7427 3.79063V1.18961C10.7427 1.10217 10.847 1.05685 10.9109 1.11652L13.697 3.71753Z" fill="#FC7B24"/>
<path d="M13.697 3.71753C13.7634 3.77946 13.7195 3.89063 13.6288 3.89063H10.8427C10.7874 3.89063 10.7427 3.84585 10.7427 3.79063V1.18961C10.7427 1.10217 10.847 1.05685 10.9109 1.11652L13.697 3.71753Z" fill="white" fill-opacity="0.7"/>
</svg>
