<svg width="16" height="16" viewBox="0 0 16 16" fill="none" xmlns="http://www.w3.org/2000/svg">
<path fill-rule="evenodd" clip-rule="evenodd" d="M10.8918 6.05978C11.2597 6.05978 11.5591 6.35917 11.5591 6.72707V12.5102C11.5591 12.8781 11.2597 13.1775 10.8918 13.1775H5.10869C4.74079 13.1775 4.44141 12.8781 4.44141 12.5102V6.72707C4.44141 6.35917 4.74079 6.05978 5.10869 6.05978H10.8918ZM9.33482 10.5083H11.1142V8.72892H9.33482V10.5083ZM11.1142 12.5102V10.9532H9.33482V12.7326H10.8918C11.0141 12.7326 11.1142 12.6325 11.1142 12.5102ZM7.11054 10.5083H8.88996V8.72892H7.11054V10.5083ZM7.11054 12.7326H8.88996V10.9532H7.11054V12.7326ZM4.88626 10.5083H6.66568V8.72892H4.88626V10.5083ZM6.66568 12.7326V10.9532H4.88626V12.5102C4.88626 12.6325 4.98635 12.7326 5.10869 12.7326H6.66568Z" fill="white"/>
<path d="M8.77789 0.5H5.04455C4.17336 0.5 3.73776 0.5 3.40501 0.669548C3.11231 0.818679 2.87434 1.05665 2.72521 1.34935C2.55566 1.6821 2.55566 2.1177 2.55566 2.98889V12.0111C2.55566 12.8823 2.55566 13.3179 2.72521 13.6507C2.87434 13.9433 3.11231 14.1813 3.40501 14.3304C3.73776 14.5 4.17336 14.5 5.04455 14.5H10.9557C11.8269 14.5 12.2625 14.5 12.5952 14.3304C12.8879 14.1813 13.1259 13.9433 13.275 13.6507C13.4446 13.3179 13.4446 12.8823 13.4446 12.0111V5.16667M8.77789 0.5L13.4446 5.16667M8.77789 0.5V3.92222C8.77789 4.35782 8.77789 4.57562 8.86266 4.74199C8.93725 4.88834 9.05618 5.00732 9.20255 5.0819C9.36892 5.16667 9.5867 5.16667 10.0223 5.16667H13.4446" stroke="white" stroke-width="0.8" stroke-linecap="round" stroke-linejoin="round"/>
</svg>
