<svg width="16" height="16" viewBox="0 0 16 16" fill="none" xmlns="http://www.w3.org/2000/svg">
<path d="M13.5489 11.042C13.5489 12.98 10.7929 14.551 7.39332 14.551C3.99372 14.551 1.23779 12.98 1.23779 11.042C1.23779 9.10409 3.99372 7.53308 7.39332 7.53308C10.7929 7.53308 13.5489 9.10409 13.5489 11.042Z" fill="#BEBEBE"/>
<path d="M13.549 10.7297C13.549 12.4952 10.7989 13.9264 7.40635 13.9264C4.01384 13.9264 1.26367 12.4952 1.26367 10.7297C1.26367 8.96427 4.01384 7.53308 7.40635 7.53308C10.7989 7.53308 13.549 8.96427 13.549 10.7297Z" fill="#D9D9D9"/>
<path d="M11.0725 9.92989C11.3898 10.0735 11.7496 10.1431 12.12 10.1328C12.4904 10.1224 12.86 10.0322 13.196 9.87036C13.5319 9.70848 13.8239 9.47984 14.0461 9.20468C14.2683 8.92953 14.4138 8.61636 14.4698 8.29291C14.5257 7.96947 14.4904 7.64573 14.3669 7.35038C14.2433 7.05503 14.0355 6.79718 13.7617 6.59967C13.4879 6.40216 13.1566 6.27109 12.7971 6.21807C12.4377 6.16504 12.0612 6.1917 11.701 6.29569L11.9323 7.09686C12.138 7.0375 12.3529 7.02228 12.5581 7.05255C12.7633 7.08282 12.9524 7.15765 13.1087 7.2704C13.265 7.38315 13.3837 7.53035 13.4542 7.69895C13.5247 7.86756 13.5449 8.05237 13.5129 8.23701C13.481 8.42165 13.3979 8.60043 13.2711 8.7575C13.1442 8.91458 12.9775 9.0451 12.7857 9.13752C12.5939 9.22993 12.383 9.28138 12.1715 9.28731C11.9601 9.29323 11.7547 9.25346 11.5735 9.1715L11.0725 9.92989Z" fill="#D9D9D9"/>
<path d="M11.1911 10.4057C11.5085 10.5493 11.8683 10.619 12.2387 10.6086C12.6091 10.5982 12.9786 10.5081 13.3146 10.3462C13.6506 10.1843 13.9426 9.95567 14.1648 9.68051C14.387 9.40536 14.5325 9.09219 14.5884 8.76874C14.6444 8.4453 14.609 8.12156 14.4855 7.82621C14.362 7.53086 14.1541 7.27301 13.8803 7.0755C13.6065 6.87799 13.2752 6.74692 12.9158 6.6939C12.5564 6.64087 12.1799 6.66753 11.8197 6.77152L12.051 7.57269C12.2566 7.51333 12.4715 7.49811 12.6767 7.52838C12.8819 7.55865 13.071 7.63348 13.2273 7.74623C13.3836 7.85898 13.5023 8.00618 13.5728 8.17478C13.6433 8.34339 13.6635 8.5282 13.6316 8.71284C13.5996 8.89748 13.5166 9.07626 13.3897 9.23333C13.2629 9.39041 13.0962 9.52093 12.9044 9.61335C12.7126 9.70576 12.5016 9.75721 12.2902 9.76314C12.0787 9.76906 11.8733 9.72929 11.6922 9.64733L11.1911 10.4057Z" fill="white"/>
<path d="M2.16583 6.28787C1.68861 4.1019 3.32822 2.02493 5.56526 1.98166L8.75465 1.91996C11.09 1.87479 12.8718 3.99526 12.4251 6.28788L11.9665 8.77682C11.62 10.6577 10.2562 12.2942 8.36599 12.5855C7.41654 12.7318 6.66452 12.7032 5.78835 12.48C4.22814 12.0826 3.16896 10.6736 2.80997 9.10411L2.16583 6.28787Z" fill="white"/>
<path d="M3.05058 10.0962C2.72435 9.47266 2.35462 7.49799 2.10156 5.79053C3.22886 7.68041 4.26851 8.34748 7.08389 8.61151C7.08389 8.61151 7.20218 12.5952 7.01821 12.6651C6.83423 12.7351 4.86858 12.3872 4.20082 11.7743C3.53305 11.1613 3.37681 10.7198 3.05058 10.0962Z" fill="#EEEEEE"/>
<path d="M12.6629 5.12815C12.6629 7.06609 10.2797 8.6371 7.33999 8.6371C4.40023 8.6371 2.01709 7.06609 2.01709 5.12815C2.01709 3.19021 4.40023 1.6192 7.33999 1.6192C10.2797 1.6192 12.6629 3.19021 12.6629 5.12815Z" fill="#E0E0E0"/>
<path d="M11.2656 5.25832C11.2656 6.51465 9.43477 7.53311 7.17636 7.53311C4.91795 7.53311 3.08715 6.51465 3.08715 5.25832C3.08715 4.00199 4.91795 2.98353 7.17636 2.98353C9.43477 2.98353 11.2656 4.00199 11.2656 5.25832Z" fill="#8F4B3B"/>
<path d="M3.06009 4.4459C2.80476 5.04168 3.22258 5.85411 3.22258 5.85411C2.43723 4.22926 4.98871 2.91492 7.31178 2.98353C8.1513 2.95645 10.0157 3.34306 10.9094 4.31797C10.9094 4.31797 10.449 3.45138 9.82618 3.04517C9.20332 2.63896 7.1493 2.25235 5.74109 2.60439C4.33288 2.95644 3.31542 3.85011 3.06009 4.4459Z" fill="#C8C8C8"/>
<path d="M6.28273 6.58429C5.22657 6.20617 5.55154 6.58429 4.84743 6.50304C4.14331 6.42179 3.97576 5.89742 3.79128 5.47397C3.67787 5.08499 3.87253 4.25533 4.84743 5.41981C7.4472 5.79894 6.79726 6.72071 6.28273 6.58429Z" fill="#A08984" fill-opacity="0.46"/>
<path d="M6.24068 5.2403C5.72873 4.96807 5.86671 5.18572 5.51266 5.09161C5.1586 4.9975 5.11204 4.71679 5.04929 4.48645C5.02032 4.27904 5.18181 3.86924 5.59351 4.53758C6.89488 4.92554 6.49366 5.34847 6.24068 5.2403Z" fill="#A08984" fill-opacity="0.46"/>
<path fill-rule="evenodd" clip-rule="evenodd" d="M2.16551 6.31802C2.12231 6.12014 2.09645 5.92316 2.08682 5.7285C2.04082 5.54292 2.01689 5.35245 2.01689 5.15829C2.01689 4.24054 2.55136 3.40507 3.42631 2.77978C3.7247 2.54214 4.06329 2.35091 4.43218 2.21862C5.26804 1.85862 6.26684 1.64934 7.33979 1.64934C10.2796 1.64934 12.6627 3.22035 12.6627 5.15829C12.6627 5.45653 12.6063 5.74607 12.5 6.02253C12.4864 6.05799 12.472 6.09324 12.4567 6.12827C12.4523 6.15937 12.4475 6.19052 12.4422 6.22171C12.5096 6.22198 12.5767 6.22492 12.6435 6.23052C12.6948 6.23484 12.746 6.24074 12.7968 6.24823C13.1562 6.30126 13.4875 6.43233 13.7613 6.62984C14.0351 6.82735 14.243 7.0852 14.3665 7.38055C14.4307 7.5342 14.4711 7.69553 14.4872 7.86051C14.6094 8.15474 14.6441 8.47696 14.5884 8.7989C14.5325 9.12234 14.387 9.43551 14.1648 9.71066C13.9426 9.98582 13.6506 10.2145 13.3146 10.3763C12.9786 10.5382 12.6091 10.6284 12.2387 10.6387C11.9251 10.6475 11.619 10.5989 11.3399 10.4966C10.696 11.595 9.65286 12.4173 8.36567 12.6156C7.41622 12.762 6.6642 12.7334 5.78803 12.5102C4.22782 12.1127 3.16863 10.7038 2.80965 9.13425L2.16551 6.31802ZM11.4284 10.7361C10.754 11.8083 9.69732 12.6128 8.39613 12.8133C7.42228 12.9634 6.64298 12.9343 5.73866 12.704C4.08523 12.2828 2.98506 10.7982 2.61468 9.17885L1.9701 6.36068C1.92596 6.15852 1.89897 5.95704 1.88807 5.75765C1.84126 5.56263 1.81689 5.36238 1.81689 5.15829C1.81689 4.15827 2.39863 3.26986 3.3058 2.62009C3.61838 2.37185 3.97276 2.17165 4.35877 2.03249C5.22006 1.66252 6.24389 1.44934 7.33979 1.44934C8.8432 1.44934 10.2134 1.85068 11.2137 2.51011C12.2124 3.16847 12.8627 4.10059 12.8627 5.15829C12.8627 5.46119 12.809 5.75513 12.7085 6.03572C12.7478 6.03974 12.7869 6.04462 12.826 6.05037C13.2146 6.10771 13.5766 6.24996 13.8783 6.46763C14.1803 6.68549 14.4125 6.97211 14.551 7.30339C14.6192 7.46635 14.6634 7.63704 14.6832 7.81146C14.811 8.13406 14.8457 8.48467 14.7855 8.83298C14.7233 9.19256 14.5623 9.53678 14.3204 9.83631C14.0786 10.1358 13.7626 10.3825 13.4014 10.5565C13.0402 10.7305 12.643 10.8275 12.2443 10.8387C11.964 10.8465 11.688 10.8118 11.4284 10.7361ZM12.3647 7.7476L12.1629 8.8432C12.1459 8.93534 12.1266 9.02692 12.1049 9.1178C12.125 9.1182 12.1453 9.11812 12.1656 9.11755C12.3487 9.11242 12.532 9.06778 12.6986 8.98751C12.8652 8.90724 13.0079 8.7948 13.1151 8.66202C13.2223 8.52932 13.2898 8.3816 13.3155 8.23309C13.3196 8.20915 13.3227 8.1853 13.3246 8.16157C13.2702 8.07762 13.1982 8.00199 13.1103 7.93858C12.982 7.84599 12.8235 7.78235 12.6475 7.75639C12.5553 7.74278 12.4602 7.73984 12.3647 7.7476ZM12.1943 7.56888L11.9662 8.80697C11.9482 8.90442 11.9275 9.00121 11.9042 9.09719C11.8884 9.16218 11.8713 9.22681 11.8531 9.29101C11.9186 9.30408 11.9857 9.31247 12.0538 9.31605C12.0926 9.3181 12.1318 9.31858 12.1712 9.31747C12.3826 9.31155 12.5936 9.2601 12.7854 9.16768C12.9772 9.07527 13.1439 8.94475 13.2707 8.78767C13.3975 8.6306 13.4806 8.45182 13.5125 8.26718C13.5216 8.21491 13.5265 8.16262 13.5272 8.1107C13.4556 7.98132 13.3538 7.86758 13.2273 7.77638C13.071 7.66363 12.8819 7.5888 12.6767 7.55853C12.5188 7.53523 12.3551 7.53889 12.1943 7.56888Z" fill="#CDCBCB"/>
<path d="M6.62012 8.63773L7.00014 8.63141L7.39328 8.63672V12.6679C7.40173 12.6872 6.92616 12.6887 6.62012 12.6422V8.63773Z" fill="#EEEEEE"/>
</svg>
