<svg width="17" height="16" viewBox="0 0 17 16" fill="none" xmlns="http://www.w3.org/2000/svg">
<g clip-path="url(#clip0_312_2088)">
<path d="M16.375 2.03296H0.625V13.9672H16.375V2.03296Z" fill="#333333"/>
<path d="M16.25 2H0.5V13.9342H16.25V2Z" fill="#232627"/>
<path d="M16.25 2.15771V13.8422H0.75V2.15771H16.25ZM16.5 1.90771H0.5V14.0922H16.5V1.90771Z" fill="#AEAEAE"/>
<path d="M16.4012 3.96375H0.59375V4.21375H16.4012V3.96375Z" fill="#AEAEAE"/>
<path d="M14.8933 3.47205C15.1104 3.47205 15.2865 3.29598 15.2865 3.0788C15.2865 2.86161 15.1104 2.68555 14.8933 2.68555C14.6761 2.68555 14.5 2.86161 14.5 3.0788C14.5 3.29598 14.6761 3.47205 14.8933 3.47205Z" fill="#E04F5F"/>
<path d="M13.8932 3.47205C14.1104 3.47205 14.2865 3.29598 14.2865 3.0788C14.2865 2.86161 14.1104 2.68555 13.8932 2.68555C13.6761 2.68555 13.5 2.86161 13.5 3.0788C13.5 3.29598 13.6761 3.47205 13.8932 3.47205Z" fill="#25B6D2"/>
<path d="M12.8932 3.47205C13.1104 3.47205 13.2865 3.29598 13.2865 3.0788C13.2865 2.86161 13.1104 2.68555 12.8932 2.68555C12.6761 2.68555 12.5 2.86161 12.5 3.0788C12.5 3.29598 12.6761 3.47205 12.8932 3.47205Z" fill="#32BEA6"/>
<path fill-rule="evenodd" clip-rule="evenodd" d="M2.66036 5.88096C2.75663 5.74611 2.94399 5.71484 3.07883 5.81111L5.03511 7.20778C5.27361 7.37805 5.27361 7.73249 5.03511 7.90277L3.07883 9.29943C2.94399 9.3957 2.75663 9.36443 2.66036 9.22959C2.56408 9.09474 2.59535 8.90738 2.7302 8.81111L4.48922 7.55527L2.7302 6.29943C2.59535 6.20316 2.56408 6.0158 2.66036 5.88096Z" fill="white"/>
</g>
<defs>
<clipPath id="clip0_312_2088">
<rect width="16" height="16" fill="white" transform="translate(0.5)"/>
</clipPath>
</defs>
</svg>
