<svg width="17" height="16" viewBox="0 0 17 16" fill="none" xmlns="http://www.w3.org/2000/svg">
<g clip-path="url(#clip0_312_1578)">
<path fill-rule="evenodd" clip-rule="evenodd" d="M3.71585 6.38892C4.24709 6.97692 5.67225 7.69415 7.4141 7.90738C9.97326 8.22185 12.3965 7.63169 14.0383 6.45354L14.0454 4.304C13.0003 4.95015 11.0766 5.38308 8.87502 5.38308C6.68263 5.38308 4.76505 4.95231 3.71891 4.31154C3.71754 5.00364 3.71652 5.69574 3.71585 6.38785V6.38892ZM12.8007 6.26441C12.8686 6.33466 12.9603 6.37363 13.0555 6.37277H13.0565C13.2567 6.37277 13.4202 6.20585 13.4202 5.998C13.4202 5.79123 13.2567 5.62431 13.0565 5.62431C12.8563 5.62431 12.6928 5.79123 12.6928 5.998C12.6939 6.09835 12.7327 6.19416 12.8007 6.26441Z" fill="#DD726D"/>
<path fill-rule="evenodd" clip-rule="evenodd" d="M3.71585 7.57354V9.47C4.24607 10.0591 5.67225 10.7763 7.4141 10.9906C9.96815 11.304 12.3863 10.716 14.0281 9.54323L14.0342 7.60477C12.2852 8.68923 9.82308 9.14477 7.3334 8.83785C5.79246 8.64947 4.48017 8.15904 3.71585 7.57354ZM12.8007 9.34764C12.8686 9.41789 12.9603 9.45686 13.0555 9.456H13.0565C13.2567 9.456 13.4202 9.288 13.4202 9.08123C13.4202 8.87446 13.2567 8.70646 13.0565 8.70646C12.8563 8.70646 12.6928 8.87446 12.6928 9.08123C12.6939 9.18158 12.7327 9.27739 12.8007 9.34764Z" fill="#CD3D3C"/>
<path fill-rule="evenodd" clip-rule="evenodd" d="M3.71789 10.6568L3.72182 12.1874C4.07925 13.2545 6.06001 14.104 8.98842 14.104C10.6077 14.104 11.8765 13.8455 12.8522 13.3372C13.126 13.194 13.3344 13.0734 13.5387 12.9162C13.5592 12.9004 13.5786 12.8856 13.5973 12.8713C13.7027 12.7909 13.7855 12.7277 13.9096 12.6125C13.9515 12.5735 13.9913 12.5352 14.029 12.4983L14.023 10.6934C12.276 11.7714 9.81797 12.2258 7.3334 11.9211C5.79451 11.7316 4.48221 11.2423 3.71789 10.6568ZM12.9176 12.5515C12.9614 12.5701 13.0083 12.5795 13.0555 12.5791L13.0565 12.578C13.2567 12.578 13.4202 12.41 13.4202 12.2032C13.4202 11.9965 13.2567 11.8285 13.0565 11.8285C12.8563 11.8285 12.6928 11.9965 12.6928 12.2032C12.6932 12.253 12.7029 12.3022 12.7213 12.3481C12.7398 12.3939 12.7666 12.4354 12.8003 12.4703C12.834 12.5052 12.8738 12.5328 12.9176 12.5515Z" fill="#C62D25"/>
<path d="M12.558 3.94754C12.9921 3.78815 13.3262 3.60723 13.5346 3.42738C13.6776 3.30462 13.7226 3.22385 13.7226 3.19154C13.7226 3.15923 13.6776 3.07846 13.5346 2.95462C13.3262 2.77585 12.9932 2.59492 12.558 2.43554C11.6058 2.08769 10.2879 1.88415 8.87502 1.88415C7.46212 1.88415 6.14423 2.08877 5.19209 2.43554C4.7579 2.59492 4.42383 2.77585 4.21542 2.95569C4.07239 3.07846 4.02744 3.15815 4.02744 3.19154C4.02744 3.22385 4.07239 3.30462 4.21542 3.42846C4.42383 3.60723 4.75688 3.78815 5.19209 3.94754C6.14423 4.29538 7.46212 4.49892 8.87502 4.49892C10.2879 4.49892 11.6058 4.29431 12.558 3.94754Z" fill="#E54141"/>
<path fill-rule="evenodd" clip-rule="evenodd" d="M13.5346 3.42738C13.3262 3.60723 12.9921 3.78815 12.558 3.94754C11.6058 4.29431 10.2879 4.49892 8.87502 4.49892C7.46212 4.49892 6.14423 4.29538 5.19209 3.94754C4.75688 3.78815 4.42383 3.60723 4.21542 3.42846C4.07239 3.30462 4.02744 3.22385 4.02744 3.19154C4.02744 3.15815 4.07239 3.07846 4.21542 2.95569C4.42383 2.77585 4.7579 2.59492 5.19209 2.43554C6.14423 2.08877 7.46212 1.88415 8.87502 1.88415C10.2879 1.88415 11.6058 2.08769 12.558 2.43554C12.9932 2.59492 13.3262 2.77585 13.5346 2.95462C13.6776 3.07846 13.7226 3.15923 13.7226 3.19154C13.7226 3.22385 13.6776 3.30462 13.5346 3.42738ZM3.71585 7.57354V9.47C4.24607 10.0591 5.67225 10.7763 7.4141 10.9906C9.96815 11.304 12.3863 10.716 14.0281 9.54323L14.0342 7.60477C12.2852 8.68923 9.82308 9.14477 7.3334 8.83785C5.79246 8.64947 4.48017 8.15904 3.71585 7.57354ZM7.4141 7.90738C5.67225 7.69415 4.24709 6.97692 3.71585 6.38892V6.38785C3.71652 5.69574 3.71754 5.00364 3.71891 4.31154C4.76505 4.95231 6.68263 5.38308 8.87502 5.38308C11.0766 5.38308 13.0003 4.95015 14.0454 4.304L14.0383 6.45354C12.3965 7.63169 9.97326 8.22185 7.4141 7.90738ZM3.71789 10.6568L3.72182 12.1874C4.07925 13.2545 6.06001 14.104 8.98842 14.104C10.6077 14.104 11.8765 13.8455 12.8522 13.3372C13.126 13.194 13.3344 13.0734 13.5387 12.9162C13.5592 12.9004 13.5786 12.8856 13.5973 12.8713C13.7027 12.7909 13.7855 12.7277 13.9096 12.6125C13.9515 12.5735 13.9913 12.5352 14.029 12.4983L14.0291 12.525C14.0286 12.6321 14.0286 12.6321 14.0709 12.6624C14.1132 12.6926 14.1979 12.7531 14.3667 12.9813C14.5955 12.9824 14.8137 12.9813 14.8137 12.9813C14.8137 12.9813 14.1885 13.4438 14.0291 13.5666C13.791 13.7497 13.5203 13.9403 13.2077 14.104C12.1309 14.6651 11.0337 15 8.98842 15C5.58132 15 3.32865 13.8638 2.89753 12.3615L2.88221 12.3077V12.2517L2.87608 9.97831C2.87364 7.7419 2.87534 5.50548 2.88119 3.26908C2.8786 3.24332 2.87723 3.21744 2.8771 3.19154C2.87812 1.98108 5.56293 1 8.87502 1C12.1871 1 14.8719 1.98108 14.8719 3.19154C14.8722 3.23883 14.8685 3.28605 14.8607 3.33262C14.8705 3.36646 14.8753 3.40169 14.875 3.43708L14.8137 12.9813C14.3667 12.5101 14.5657 12.2032 14.5657 12.2032C14.4581 12.0752 14.313 12.2183 14.0924 12.436C14.0719 12.4561 14.0508 12.477 14.029 12.4983L14.023 10.6934C12.276 11.7714 9.81797 12.2258 7.3334 11.9211C5.79451 11.7316 4.48221 11.2423 3.71789 10.6568ZM12.8007 6.26441C12.8686 6.33466 12.9603 6.37363 13.0555 6.37277H13.0565C13.2567 6.37277 13.4202 6.20585 13.4202 5.998C13.4202 5.79123 13.2567 5.62431 13.0565 5.62431C12.8563 5.62431 12.6928 5.79123 12.6928 5.998C12.6939 6.09835 12.7327 6.19416 12.8007 6.26441ZM12.8007 9.34764C12.8686 9.41789 12.9603 9.45686 13.0555 9.456H13.0565C13.2567 9.456 13.4202 9.288 13.4202 9.08123C13.4202 8.87446 13.2567 8.70646 13.0565 8.70646C12.8563 8.70646 12.6928 8.87446 12.6928 9.08123C12.6939 9.18158 12.7327 9.27739 12.8007 9.34764ZM12.9176 12.5515C12.9614 12.5701 13.0083 12.5795 13.0555 12.5791L13.0565 12.578C13.2567 12.578 13.4202 12.41 13.4202 12.2032C13.4202 11.9965 13.2567 11.8285 13.0565 11.8285C12.8563 11.8285 12.6928 11.9965 12.6928 12.2032C12.6932 12.253 12.7029 12.3022 12.7213 12.3481C12.7398 12.3939 12.7666 12.4354 12.8003 12.4703C12.834 12.5052 12.8738 12.5328 12.9176 12.5515Z" fill="#212121"/>
<path d="M14.8137 12.9813C14.3667 12.5101 14.5657 12.2032 14.5657 12.2032C14.4581 12.0752 14.313 12.2183 14.0924 12.436L14.029 12.4983L14.0291 12.525C14.0286 12.6321 14.0286 12.6321 14.0709 12.6624C14.1132 12.6926 14.1979 12.7531 14.3667 12.9813C14.5955 12.9824 14.8137 12.9813 14.8137 12.9813Z" fill="#212121"/>
<path d="M16.875 13C16.875 14.6569 15.5319 16 13.875 16C12.2181 16 10.875 14.6569 10.875 13C10.875 11.3431 12.2181 10 13.875 10C15.5319 10 16.875 11.3431 16.875 13Z" fill="#12D025"/>
<path fill-rule="evenodd" clip-rule="evenodd" d="M13.875 15.5C15.2557 15.5 16.375 14.3807 16.375 13C16.375 11.6193 15.2557 10.5 13.875 10.5C12.4943 10.5 11.375 11.6193 11.375 13C11.375 14.3807 12.4943 15.5 13.875 15.5ZM13.875 16C15.5319 16 16.875 14.6569 16.875 13C16.875 11.3431 15.5319 10 13.875 10C12.2181 10 10.875 11.3431 10.875 13C10.875 14.6569 12.2181 16 13.875 16Z" fill="#212121"/>
<path fill-rule="evenodd" clip-rule="evenodd" d="M13.3854 14.3302C13.3854 14.6075 13.6103 14.8324 13.8876 14.8324C14.165 14.8324 14.3899 14.6075 14.3899 14.3302V13.5022H15.2051C15.4824 13.5022 15.7073 13.2774 15.7073 13C15.7073 12.7227 15.4824 12.4978 15.2051 12.4978H14.3899V11.6698C14.3899 11.3925 14.165 11.1676 13.8876 11.1676C13.6103 11.1676 13.3854 11.3925 13.3854 11.6698V12.4978H12.5447C12.2673 12.4978 12.0425 12.7227 12.0425 13C12.0425 13.2774 12.2673 13.5022 12.5447 13.5022H13.3854V14.3302Z" fill="white"/>
<path fill-rule="evenodd" clip-rule="evenodd" d="M14.2899 13.4022H15.2051C15.4272 13.4022 15.6073 13.2222 15.6073 13C15.6073 12.7779 15.4272 12.5978 15.2051 12.5978H14.2899V11.6698C14.2899 11.4477 14.1098 11.2676 13.8876 11.2676C13.6655 11.2676 13.4854 11.4477 13.4854 11.6698V12.5978H12.5447C12.3226 12.5978 12.1425 12.7779 12.1425 13C12.1425 13.2222 12.3226 13.4022 12.5447 13.4022H13.4854V14.3302C13.4854 14.5523 13.6655 14.7324 13.8876 14.7324C14.1098 14.7324 14.2899 14.5523 14.2899 14.3302V13.4022ZM14.3899 14.3302C14.3899 14.6075 14.165 14.8324 13.8876 14.8324C13.6103 14.8324 13.3854 14.6075 13.3854 14.3302V13.5022H12.5447C12.2673 13.5022 12.0425 13.2774 12.0425 13C12.0425 12.7227 12.2673 12.4978 12.5447 12.4978H13.3854V11.6698C13.3854 11.3925 13.6103 11.1676 13.8876 11.1676C14.165 11.1676 14.3899 11.3925 14.3899 11.6698V12.4978H15.2051C15.4824 12.4978 15.7073 12.7227 15.7073 13C15.7073 13.2774 15.4824 13.5022 15.2051 13.5022H14.3899V14.3302Z" fill="#072E0B"/>
</g>
<defs>
<clipPath id="clip0_312_1578">
<rect width="16" height="16" fill="white" transform="translate(0.875)"/>
</clipPath>
</defs>
</svg>
