<svg width="16" height="16" viewBox="0 0 16 16" fill="none" xmlns="http://www.w3.org/2000/svg">
<path d="M0.958984 2.91373C0.958984 2.69282 1.13807 2.51373 1.35898 2.51373H14.6407C14.8616 2.51373 15.0407 2.69282 15.0407 2.91373V3.19694C15.0407 3.41785 14.8616 3.59694 14.6407 3.59694H1.35898C1.13807 3.59694 0.958984 3.41785 0.958984 3.19694V2.91373Z" fill="#554646"/>
<path d="M0.958984 7.40311C0.958984 7.1822 1.13807 7.00311 1.35898 7.00311H14.6407C14.8616 7.00311 15.0407 7.1822 15.0407 7.40311V7.68632C15.0407 7.90723 14.8616 8.08632 14.6407 8.08632H1.35898C1.13807 8.08632 0.958984 7.90723 0.958984 7.68632V7.40311Z" fill="#554646"/>
<path d="M0.958984 11.5639C0.958984 11.343 1.13807 11.1639 1.35898 11.1639H14.6407C14.8616 11.1639 15.0407 11.343 15.0407 11.5639V11.8471C15.0407 12.068 14.8616 12.2471 14.6407 12.2471H1.35898C1.13807 12.2471 0.958984 12.068 0.958984 11.8471V11.5639Z" fill="#554646"/>
<path d="M2.84229 5.15842C2.84229 4.93751 3.02137 4.75842 3.24229 4.75842H12.7573C12.9782 4.75842 13.1573 4.93751 13.1573 5.15842V5.44163C13.1573 5.66254 12.9782 5.84163 12.7573 5.84163H3.24228C3.02137 5.84163 2.84229 5.66254 2.84229 5.44163V5.15842Z" fill="#554646"/>
<path d="M2.84229 9.43082C2.84229 9.20991 3.02137 9.03082 3.24229 9.03082H12.7573C12.9782 9.03082 13.1573 9.20991 13.1573 9.43082V9.71403C13.1573 9.93494 12.9782 10.114 12.7573 10.114H3.24228C3.02137 10.114 2.84229 9.93494 2.84229 9.71403V9.43082Z" fill="#554646"/>
<path d="M2.84229 13.8081C2.84229 13.5872 3.02137 13.4081 3.24229 13.4081H12.7573C12.9782 13.4081 13.1573 13.5872 13.1573 13.8081V14.0913C13.1573 14.3122 12.9782 14.4913 12.7573 14.4913H3.24228C3.02137 14.4913 2.84229 14.3122 2.84229 14.0913V13.8081Z" fill="#554646"/>
</svg>
