<svg width="16" height="16" viewBox="0 0 16 16" fill="none" xmlns="http://www.w3.org/2000/svg">
<path fill-rule="evenodd" clip-rule="evenodd" d="M2.03745 9.75185C1.45633 9.75185 0.985228 9.28075 0.985228 8.69963C0.985228 8.11851 1.45633 7.64741 2.03745 7.64738H2.48714C2.63271 6.88003 2.93427 6.168 3.35796 5.54561L3.03983 5.22748C2.62891 4.81655 2.62891 4.15032 3.03983 3.7394C3.45075 3.32848 4.11699 3.32848 4.52791 3.7394L4.84604 4.05753C5.46843 3.63383 6.18046 3.33228 6.94781 3.18671V2.73705C6.94781 2.15593 7.41891 1.68483 8.00003 1.68483C8.58115 1.68483 9.05225 2.15593 9.05225 2.73705V3.18671C9.8196 3.33228 10.5316 3.63387 11.1541 4.05756L11.4722 3.73943C11.8831 3.32851 12.5493 3.32851 12.9603 3.73943C13.3712 4.15035 13.3712 4.81659 12.9603 5.22751L12.6421 5.54564C13.0658 6.16803 13.3674 6.88006 13.513 7.64741H13.9626C14.5437 7.64741 15.0148 8.11851 15.0148 8.69963C15.0148 9.28075 14.5437 9.75185 13.9626 9.75185H13.513C13.3674 10.5192 13.0658 11.2312 12.6421 11.8537L12.9602 12.1718C13.3712 12.5827 13.3712 13.2489 12.9602 13.6599C12.5493 14.0708 11.8831 14.0708 11.4722 13.6599L11.154 13.3417C10.5316 13.7654 9.8196 14.067 9.05225 14.2126V14.6622C9.05225 15.2433 8.58112 15.7144 8 15.7144C7.41888 15.7144 6.94778 15.2433 6.94778 14.6622V14.2125C6.18043 14.067 5.4684 13.7654 4.84601 13.3417L4.52787 13.6598C4.11695 14.0708 3.45072 14.0708 3.0398 13.6598C2.62888 13.2489 2.62888 12.5827 3.0398 12.1718L3.35793 11.8536C2.93423 11.2312 2.63268 10.5192 2.48711 9.75185H2.03745ZM8.00003 10.4753C8.98068 10.4753 9.77566 9.68029 9.77566 8.69963C9.77566 7.71898 8.98068 6.92401 8.00003 6.92401C7.01938 6.92401 6.2244 7.71898 6.2244 8.69963C6.2244 9.68029 7.01938 10.4753 8.00003 10.4753Z" fill="#6A5F5F"/>
<path d="M8.00001 13.0429C10.3949 13.0429 12.3433 11.0945 12.3433 8.69963C12.3433 6.30474 10.3949 4.35637 8.00001 4.35637C5.60512 4.35637 3.65675 6.30474 3.65675 8.69963C3.65675 11.0945 5.60512 13.0429 8.00001 13.0429ZM8.00001 12.4884C5.91084 12.4884 4.21123 10.7888 4.21123 8.69963C4.21123 6.61049 5.91084 4.91085 8.00001 4.91085C10.0892 4.91085 11.7888 6.61046 11.7888 8.69963C11.7888 10.7888 10.0892 12.4884 8.00001 12.4884ZM8.00001 16C8.73377 16 9.3307 15.403 9.3307 14.6693V14.4442C9.96652 14.2979 10.5669 14.0491 11.1208 13.7024L11.2802 13.8618C11.799 14.3806 12.6433 14.3806 13.1622 13.8618C13.681 13.343 13.681 12.4988 13.1622 11.9799L13.0027 11.8205C13.3494 11.2666 13.5982 10.6661 13.7445 10.0304H13.9697C14.7034 10.0304 15.3003 9.43342 15.3003 8.69967C15.3003 7.96591 14.7034 7.36898 13.9697 7.36898H13.7445C13.5982 6.73316 13.3494 6.1328 13.0028 5.57884L13.1622 5.41944C13.681 4.9006 13.681 4.05638 13.1622 3.5375C12.6434 3.01879 11.7992 3.01872 11.2803 3.5375L11.1209 3.69693C10.5669 3.35023 9.96652 3.10147 9.33073 2.95518V2.72998C9.33073 1.99622 8.7338 1.39929 8.00005 1.39929C7.26629 1.39929 6.66936 1.99622 6.66936 2.72998V2.95511C6.03354 3.1014 5.43314 3.3502 4.87922 3.69686L4.71982 3.53743C4.20091 3.01866 3.35669 3.01872 2.83788 3.53743C2.31907 4.05628 2.31907 4.90049 2.83788 5.41938L2.99731 5.5788C2.65068 6.13269 2.40189 6.73309 2.25559 7.36891H2.0304C1.29664 7.36891 0.699707 7.96584 0.699707 8.6996C0.699707 9.43335 1.29664 10.0303 2.0304 10.0303H2.25559C2.40189 10.6661 2.65068 11.2665 2.99731 11.8204L2.83788 11.9798C2.31907 12.4987 2.31907 13.3429 2.83788 13.8618C3.35669 14.3805 4.20091 14.3806 4.71982 13.8618L4.87922 13.7023C5.43311 14.049 6.03357 14.2978 6.66936 14.4441V14.6692C6.66932 15.403 7.26625 16 8.00001 16ZM8.00001 15.4455C7.57201 15.4455 7.22376 15.0973 7.22376 14.6693V14.2191C7.22376 14.0858 7.12901 13.9715 6.99819 13.9467C6.27818 13.8101 5.60533 13.5313 4.99831 13.1181C4.88823 13.0432 4.74043 13.057 4.64627 13.1512L4.32776 13.4697C4.02509 13.7724 3.53262 13.7724 3.23002 13.4697C2.92735 13.167 2.92735 12.6746 3.23002 12.372L3.54853 12.0534C3.64266 11.9593 3.65658 11.8115 3.58165 11.7014C3.16836 11.0943 2.8896 10.4215 2.75297 9.70149C2.72818 9.57066 2.61378 9.47595 2.48062 9.47595H2.0304C1.60239 9.47595 1.25415 9.12771 1.25415 8.6997C1.25415 8.27169 1.60239 7.92345 2.0304 7.92345H2.48062C2.61381 7.92345 2.72818 7.8287 2.75297 7.69791C2.8896 6.9779 3.16836 6.30502 3.58165 5.698C3.65655 5.58789 3.64266 5.44012 3.54853 5.34595L3.23002 5.02745C2.92735 4.72478 2.92735 4.2323 3.23002 3.92971C3.53268 3.62697 4.02519 3.62704 4.32776 3.92971L4.64627 4.24822C4.74043 4.34235 4.8883 4.35631 4.99831 4.28134C5.60536 3.86808 6.27822 3.58928 6.99819 3.4527C7.12905 3.4279 7.22376 3.31354 7.22376 3.18035V2.72998C7.22376 2.30198 7.57201 1.95373 8.00001 1.95373C8.42802 1.95373 8.77626 2.30198 8.77626 2.72998V3.18021C8.77626 3.31343 8.87101 3.42777 9.00183 3.45256C9.72181 3.58915 10.3947 3.86791 11.0017 4.28124C11.1119 4.35617 11.2597 4.34225 11.3538 4.24808L11.6723 3.92957C11.9749 3.62694 12.4674 3.6269 12.77 3.9296C13.0727 4.23227 13.0727 4.72474 12.77 5.02734L12.4515 5.34585C12.3574 5.44002 12.3434 5.58785 12.4184 5.6979C12.8317 6.30495 13.1104 6.9778 13.247 7.69777C13.2718 7.82863 13.3862 7.92335 13.5194 7.92335H13.9697C14.3977 7.92335 14.7459 8.27159 14.7459 8.6996C14.7459 9.1276 14.3977 9.47584 13.9697 9.47584H13.5194C13.3862 9.47584 13.2719 9.57059 13.2471 9.70142C13.1105 10.4214 12.8317 11.0943 12.4184 11.7013C12.3435 11.8114 12.3574 11.9592 12.4516 12.0533L12.7701 12.3719C13.0727 12.6745 13.0727 13.167 12.7701 13.4696C12.4674 13.7723 11.9749 13.7723 11.6723 13.4696L11.3539 13.1511C11.3003 13.0975 11.2292 13.0699 11.1577 13.0699C11.1036 13.0699 11.0492 13.0857 11.0018 13.118C10.3947 13.5313 9.72181 13.81 9.00187 13.9466C8.87101 13.9714 8.77629 14.0858 8.77629 14.219V14.6692C8.77626 15.0973 8.42802 15.4455 8.00001 15.4455Z" fill="#CECECE"/>
</svg>
