<svg width="16" height="16" viewBox="0 0 16 16" fill="none" xmlns="http://www.w3.org/2000/svg">
<path d="M13.9944 3.91435C13.9974 3.9171 13.9992 3.921 13.9992 3.9251V14C13.9992 14.5523 13.5514 15 12.9992 15H3C2.44772 15 2 14.5523 2 14V2C2 1.44772 2.44772 1 3 1H10.409C10.6582 1 10.8984 1.09303 11.0826 1.26087L13.9944 3.91435V3.91435Z" fill="#FC7B24"/>
<path d="M13.8002 3.74038C13.8677 3.8019 13.8242 3.91429 13.7328 3.91429H10.893C10.8377 3.91429 10.793 3.86952 10.793 3.81429V1.22642C10.793 1.13955 10.8961 1.09399 10.9603 1.1525L13.8002 3.74038Z" fill="white" fill-opacity="0.7"/>
<path d="M4.16667 8.33333C6.46785 8.33333 8.33333 6.46785 8.33333 4.16667C8.33333 1.86548 6.46785 0 4.16667 0C1.86548 0 0 1.86548 0 4.16667C0 6.46785 1.86548 8.33333 4.16667 8.33333Z" fill="#554646"/>
<path d="M6.48742 5.77927L5.97638 3.05617C5.94735 2.94097 5.89065 2.83461 5.81119 2.74629C5.73174 2.65798 5.63193 2.59039 5.52044 2.54939C5.40894 2.50839 5.28913 2.49521 5.17139 2.51101C5.05365 2.52681 4.94154 2.5711 4.8448 2.64003L4.26075 3.22408L2.74167 1.71229C2.60489 1.57632 2.41985 1.5 2.22698 1.5C2.03411 1.5 1.84908 1.57632 1.71229 1.71229C1.57632 1.84908 1.5 2.03411 1.5 2.22698C1.5 2.41985 1.57632 2.60488 1.71229 2.74167L3.22408 4.26075L2.64003 4.8448C2.5711 4.94154 2.52681 5.05365 2.51101 5.17139C2.49521 5.28913 2.50839 5.40894 2.54939 5.52044C2.59039 5.63193 2.65798 5.73174 2.74629 5.81119C2.8346 5.89064 2.94097 5.94735 3.05617 5.97638L5.77927 6.48742C5.87654 6.50768 5.97733 6.50342 6.07254 6.475C6.16776 6.44659 6.2544 6.39492 6.32466 6.32466C6.39492 6.2544 6.44659 6.16776 6.475 6.07254C6.50342 5.97733 6.50768 5.87654 6.48742 5.77927Z" fill="#28EA3C"/>
</svg>
