<svg width="16" height="16" viewBox="0 0 16 16" fill="none" xmlns="http://www.w3.org/2000/svg">
<path d="M14.5596 9.15398L12.8702 13.2328C12.6584 13.7456 12.4591 14.1138 12.2722 14.3373C12.0878 14.5608 11.8686 14.7278 11.6144 14.8383C11.3603 14.9461 11.0513 15 10.6875 15C10.376 15 10.0858 14.9606 9.81665 14.8817V13.8324C10.0359 13.927 10.3088 13.9744 10.6352 13.9744C10.842 13.9744 11.0089 13.9244 11.136 13.8245C11.2631 13.7219 11.369 13.5457 11.4537 13.2959L9.5625 9.15398H10.7884L12.1339 12.3689H12.1713L12.2386 12.1717L13.3673 9.15398H14.5596Z" fill="#E4E4E4"/>
<path d="M14.6157 6.84241H13.2926L12.0219 4.661L10.7511 6.84241H9.51025L11.323 3.86812L9.62612 1.07528H10.9044L12.0817 3.15019L13.2366 1.07528H14.4849L12.7694 3.93518L14.6157 6.84241Z" fill="#E4E4E4"/>
<path fill-rule="evenodd" clip-rule="evenodd" d="M5.83206 1C6.55568 1 7.14456 1.58888 7.14456 2.3125V13.6875C7.14456 14.4111 6.55568 15 5.83206 15L3.10244 15C2.37881 15 1.78994 14.4111 1.78994 13.6875V2.3125C1.78994 1.58888 2.37881 1 3.10244 1H5.83206ZM2.76956 9.75H6.26956V6.25H2.76956V9.75ZM6.26956 13.6875V10.625H2.76956C2.76956 10.625 2.76956 13.3278 2.76956 13.6875C2.76956 14.0472 3.0287 14.125 3.21915 14.125C3.40961 14.125 5.83206 14.125 5.83206 14.125C6.07268 14.125 6.26956 13.9281 6.26956 13.6875Z" fill="#E4E4E4"/>
</svg>
