<svg width="16" height="16" viewBox="0 0 16 16" fill="none" xmlns="http://www.w3.org/2000/svg">
<g clip-path="url(#clip0_389_1322)">
<path d="M16.0493 9.65395L14.36 13.7327C14.1482 14.2456 13.9488 14.6137 13.762 14.8373C13.5776 15.0608 13.3583 15.2278 13.1042 15.3382C12.85 15.4461 12.541 15.5 12.1772 15.5C11.8658 15.5 11.5755 15.4605 11.3064 15.3816V14.3323C11.5257 14.427 11.7985 14.4743 12.1249 14.4743C12.3317 14.4743 12.4987 14.4244 12.6257 14.3245C12.7528 14.2219 12.8587 14.0457 12.9434 13.7959L11.0522 9.65395H12.2782L13.6237 12.8689H13.661L13.7283 12.6716L14.8571 9.65395H16.0493Z" fill="#4B4949"/>
<path d="M16.1055 7.34238H14.7824L13.5116 5.16097L12.2409 7.34238H11L12.8127 4.36809L11.1159 1.57526H12.3941L13.5714 3.65016L14.7263 1.57526H15.9747L14.2591 4.43515L16.1055 7.34238Z" fill="#4B4949"/>
<mask id="path-3-inside-1_389_1322" fill="white">
<path d="M9.19875 8.00001C9.19875 11.5402 6.32882 14.4102 2.78858 14.4102C-0.751654 14.4102 -3.62158 11.5402 -3.62158 8.00001C-3.62158 4.45977 -0.751654 1.58984 2.78858 1.58984C6.32882 1.58984 9.19875 4.45977 9.19875 8.00001ZM-0.45544 8.00001C-0.45544 9.79163 0.996958 11.244 2.78858 11.244C4.58021 11.244 6.0326 9.79163 6.0326 8.00001C6.0326 6.20838 4.58021 4.75599 2.78858 4.75599C0.996958 4.75599 -0.45544 6.20838 -0.45544 8.00001Z"/>
</mask>
<path d="M9.19875 8.00001C9.19875 11.5402 6.32882 14.4102 2.78858 14.4102C-0.751654 14.4102 -3.62158 11.5402 -3.62158 8.00001C-3.62158 4.45977 -0.751654 1.58984 2.78858 1.58984C6.32882 1.58984 9.19875 4.45977 9.19875 8.00001ZM-0.45544 8.00001C-0.45544 9.79163 0.996958 11.244 2.78858 11.244C4.58021 11.244 6.0326 9.79163 6.0326 8.00001C6.0326 6.20838 4.58021 4.75599 2.78858 4.75599C0.996958 4.75599 -0.45544 6.20838 -0.45544 8.00001Z" stroke="#4B4949" stroke-width="2" mask="url(#path-3-inside-1_389_1322)"/>
<circle cx="2.78834" cy="7.99998" r="1.91089" fill="#4B4949"/>
</g>
<defs>
<clipPath id="clip0_389_1322">
<rect width="16" height="16" fill="white"/>
</clipPath>
</defs>
</svg>
