<svg width="16" height="16" viewBox="0 0 16 16" fill="none" xmlns="http://www.w3.org/2000/svg">
<path fill-rule="evenodd" clip-rule="evenodd" d="M5.04202 1C5.76564 1 6.35452 1.58888 6.35452 2.3125V13.6875C6.35452 14.4111 5.76564 15 5.04202 15L2.3124 15C1.58877 15 0.999898 14.4111 0.999898 13.6875V2.3125C0.999898 1.58888 1.58877 1 2.3124 1H5.04202ZM1.97952 9.75H5.47952V6.25H1.97952V9.75ZM5.47952 13.6875V10.625H1.97952C1.97952 10.625 1.97952 13.3278 1.97952 13.6875C1.97952 14.0472 2.23866 14.125 2.42911 14.125C2.61957 14.125 5.04202 14.125 5.04202 14.125C5.28264 14.125 5.47952 13.9281 5.47952 13.6875Z" fill="#ffffff"/>
<path d="M1.98242 2.42499C1.98242 2.14885 2.20628 1.92499 2.48242 1.92499H4.97363C5.24978 1.92499 5.47363 2.14885 5.47363 2.42499V5.42325H1.98242V2.42499Z" fill="#ffffff"/>
<path d="M2.4 1.5H13.6C14.0971 1.5 14.5 1.90294 14.5 2.4V6.04693V11.0939V13.6C14.5 14.0971 14.0971 14.5 13.6 14.5H2.4C1.90294 14.5 1.5 14.0971 1.5 13.6V2.4C1.5 1.90294 1.90294 1.5 2.4 1.5Z" stroke="#ffffff"/>
<path d="M8.75104 7.45071C8.28797 6.98885 7.99928 6.34264 7.99976 5.63694C7.9995 4.93107 8.28807 4.28488 8.75101 3.82321C9.2127 3.36018 9.8591 3.07147 10.5649 3.07195C11.2708 3.07152 11.917 3.36028 12.3787 3.82335C12.8416 4.28506 13.1303 4.93127 13.1298 5.63714C13.1302 6.34284 12.8415 6.98903 12.3785 7.45085C12.0531 7.77702 11.6349 8.0141 11.1698 8.12692L11.1696 12.4569L11.0119 12.4569L9.95954 12.4568L8.85457 12.4568L8.85462 11.2993L9.95958 11.2993L9.9596 10.6677L8.80024 10.6677L8.80024 9.64665L9.9596 9.6467L9.9597 8.12687C9.49464 8.01402 9.07643 7.7769 8.75104 7.45071ZM10.5648 6.6233C10.8398 6.62301 11.0814 6.51418 11.2624 6.33444C11.4421 6.1535 11.5508 5.91193 11.5513 5.63708C11.5508 5.36207 11.4422 5.12035 11.2624 4.93937C11.0813 4.75962 10.8397 4.65077 10.5649 4.65047C10.2899 4.65075 10.0483 4.75959 9.86718 4.93932C9.68743 5.12027 9.57876 5.362 9.57828 5.637C9.57874 5.91184 9.68741 6.15341 9.86713 6.33439C10.0481 6.51414 10.2898 6.62297 10.5648 6.6233Z" fill="#ffffff" stroke="#ffffff" stroke-width="0.2"/>
</svg>
