<svg width="16" height="16" viewBox="0 0 16 16" fill="none" xmlns="http://www.w3.org/2000/svg">
<g clip-path="url(#clip0_438_2696)">
<path fill-rule="evenodd" clip-rule="evenodd" d="M12.6604 4.07958C14.2824 4.05633 15.6099 5.35244 15.6254 6.97451C15.6358 8.06161 15.0543 9.01923 14.1814 9.53964L14.1898 10.4222L13.7005 10.4292L13.7427 14.8346L12.7731 15.8276L11.7848 14.8627L11.7801 14.3732L12.7544 13.8696L11.7707 13.3942L11.766 12.9047L12.2508 12.4081L11.7567 11.9256L11.7426 10.4573L11.2529 10.4643L11.2445 9.5818C10.3618 9.08657 9.7621 8.14584 9.7517 7.0587C9.73617 5.43663 11.0383 4.10283 12.6604 4.07958ZM12.6698 5.05859C12.1289 5.06634 11.6951 5.51092 11.7002 6.05163C11.7054 6.59233 12.1477 7.02436 12.6885 7.0166C13.2292 7.00885 13.6633 6.56427 13.6581 6.02356C13.653 5.48286 13.2105 5.05084 12.6698 5.05859Z" fill="#F4B231"/>
<path d="M7.73305 7.50709C7.73305 9.11248 6.43163 10.4139 4.82624 10.4139C3.22086 10.4139 1.91943 9.11248 1.91943 7.50709C1.91943 5.9017 3.22086 4.60028 4.82624 4.60028C6.43163 4.60028 7.73305 5.9017 7.73305 7.50709Z" fill="white"/>
<path fill-rule="evenodd" clip-rule="evenodd" d="M7.18024 11.9583L4.93342 15.9379L2.44092 11.9551C2.9681 11.7016 3.55677 11.561 4.17294 11.561H5.44142C6.06034 11.561 6.65139 11.7028 7.18024 11.9583Z" fill="#575757"/>
<path d="M2.44758 11.9407C1.35296 12.4671 0.52343 13.4803 0.263209 14.733L0 16H9.62126L9.61997 15.9913L9.36812 14.7507C9.11276 13.4929 8.28358 12.4739 7.1869 11.9439L4.94007 15.9234L2.44758 11.9407Z" fill="white"/>
</g>
<defs>
<clipPath id="clip0_438_2696">
<rect width="16" height="16" fill="white"/>
</clipPath>
</defs>
</svg>
