<svg width="16" height="16" viewBox="0 0 16 16" fill="none" xmlns="http://www.w3.org/2000/svg">
<path fill-rule="evenodd" clip-rule="evenodd" d="M11.3584 6.47424C11.7482 6.47424 12.0654 6.79141 12.0654 7.18116V13.3078C12.0654 13.6975 11.7482 14.0147 11.3584 14.0147H5.23182C4.84207 14.0147 4.5249 13.6975 4.5249 13.3078V7.18116C4.5249 6.79141 4.84207 6.47424 5.23182 6.47424H11.3584ZM9.70896 11.187H11.5941V9.30191H9.70896V11.187ZM11.5941 13.3078V11.6583H9.70896V13.5434H11.3584C11.488 13.5434 11.5941 13.4374 11.5941 13.3078ZM7.35257 11.187H9.23768V9.30191H7.35257V11.187ZM7.35257 13.5434H9.23768V11.6583H7.35257V13.5434ZM4.99618 11.187H6.88129V9.30191H4.99618V11.187ZM6.88129 13.5434V11.6583H4.99618V13.3078C4.99618 13.4374 5.10222 13.5434 5.23182 13.5434H6.88129Z" fill="#4B4949"/>
<path d="M9.11914 0.584229H5.16406C4.24113 0.584229 3.77965 0.584228 3.42714 0.763847C3.11705 0.921836 2.86495 1.17394 2.70696 1.48403C2.52734 1.83654 2.52734 2.29801 2.52734 3.22095V12.7791C2.52734 13.702 2.52734 14.1635 2.70696 14.516C2.86495 14.8261 3.11705 15.0782 3.42714 15.2361C3.77965 15.4158 4.24113 15.4158 5.16406 15.4158H11.4263C12.3492 15.4158 12.8107 15.4158 13.1632 15.2361C13.4733 15.0782 13.7254 14.8261 13.8834 14.516C14.063 14.1635 14.063 13.702 14.063 12.7791V5.52808M9.11914 0.584229L14.063 5.52808M9.11914 0.584229V4.20972C9.11914 4.67118 9.11914 4.90192 9.20895 5.07818C9.28797 5.23322 9.41396 5.35927 9.56903 5.43827C9.74528 5.52808 9.97599 5.52808 10.4375 5.52808H14.063" stroke="#4B4949" stroke-width="0.8" stroke-linecap="round" stroke-linejoin="round"/>
</svg>
