<svg width="16" height="16" viewBox="0 0 16 16" fill="none" xmlns="http://www.w3.org/2000/svg">
<g clip-path="url(#clip0_438_1916)">
<path fill-rule="evenodd" clip-rule="evenodd" d="M13.8895 5.58833C13.9113 7.35026 12.5006 8.78946 10.7386 8.80287C9.55768 8.81186 8.5187 8.17815 7.95526 7.22879L6.99661 7.23609L6.95715 4.04582L7.91572 4.03853C8.45555 3.0807 9.4787 2.43133 10.6596 2.42234C12.4217 2.40893 13.8677 3.82624 13.8895 5.58833ZM12.826 5.59642C12.8188 5.00888 12.3368 4.53662 11.7494 4.54109C11.1621 4.54556 10.6918 5.02507 10.6991 5.61261C10.7064 6.19993 11.1884 6.67241 11.7757 6.66794C12.3631 6.66347 12.8333 6.18375 12.826 5.59642ZM2.20403 6.74102L6.98966 6.70461L6.96335 4.57776L5.36814 4.5899L4.84298 5.12566L4.30466 4.59799L3.77293 4.60204L3.25435 5.66951L2.70946 4.61013L2.17772 4.61418L1.1274 5.68569L2.20403 6.74102Z" fill="#F4B231"/>
<path d="M13.8152 10.4959C13.6082 10.4082 13.3672 10.3569 13.115 10.3569C12.8318 10.3569 12.5632 10.4212 12.3228 10.5362L12.3341 10.5312L9.49295 11.8241C9.49443 11.8007 9.50573 11.7803 9.50573 11.7569C9.49885 11.0741 8.95059 10.5233 8.27545 10.5233C8.24153 10.5233 8.20858 10.5247 8.17514 10.5272L8.17958 10.5267H6.3194L3.97882 9.83249C3.94834 9.82303 3.91293 9.81755 3.87606 9.81755H2.80853V9.44005C2.80853 9.23386 2.64332 9.06653 2.43975 9.06653H0.53041C0.326838 9.06653 0.161621 9.23386 0.161621 9.44005V15.5199C0.161621 15.7262 0.326838 15.8935 0.53041 15.8935H2.43975C2.64332 15.8935 2.80853 15.7262 2.80853 15.5199V15.0199C3.70248 15.1614 4.50299 15.3895 5.26122 15.7003L5.18747 15.6733C5.75737 15.8805 6.41529 16 7.10075 16C7.89093 16 8.64424 15.8412 9.33118 15.5529L9.29233 15.5672C9.90354 15.2919 10.4223 15.0015 10.9135 14.6713L10.8732 14.6967C11.0394 14.5927 11.2046 14.4886 11.3718 14.3884C12.1787 13.9049 12.8229 13.4825 13.4022 13.0582C13.6874 12.8525 13.9361 12.6488 14.1727 12.4322L14.1653 12.4387C14.3472 12.2887 14.4927 12.1005 14.5906 11.8859L14.5945 11.8764C14.6102 11.8365 14.6191 11.7907 14.6191 11.7424C14.6191 11.7145 14.6161 11.6871 14.6102 11.6607L14.6107 11.6632C14.5385 11.1572 14.239 10.7339 13.8226 10.4988L13.8152 10.4959ZM2.07146 15.1474H0.899686V9.81456H2.07146V15.1474ZM13.6455 11.9098C13.443 12.094 13.2221 12.2733 12.9925 12.4392L12.9695 12.4551C12.4103 12.8645 11.7834 13.2753 10.9956 13.748C10.8245 13.8501 10.6559 13.9561 10.4857 14.0622C10.0653 14.348 9.58196 14.6206 9.07647 14.852L9.01255 14.8779C8.44609 15.1135 7.78817 15.2505 7.09927 15.2505C6.50774 15.2505 5.93979 15.1499 5.41022 14.9641L5.44661 14.9752C4.68198 14.6504 3.79247 14.4024 2.86509 14.2729L2.80853 14.2664V10.5651H3.82197L6.16255 11.2593C6.19304 11.2688 6.22844 11.2743 6.26531 11.2743H8.17908C8.61327 11.2743 8.76767 11.5342 8.76767 11.7574C8.76767 11.9805 8.61327 12.2404 8.17908 12.2404H4.83098C4.62741 12.2404 4.46219 12.4078 4.46219 12.614C4.46219 12.8201 4.62741 12.9875 4.83098 12.9875H8.65703C8.71161 12.9875 8.76324 12.9755 8.80996 12.9541L8.80749 12.9551L12.6405 11.211C12.7816 11.1453 12.9468 11.1064 13.1209 11.1064C13.2516 11.1064 13.377 11.1279 13.4946 11.1682L13.4862 11.1657C13.674 11.2798 13.8097 11.4665 13.8549 11.6861L13.856 11.6911C13.7896 11.7703 13.7203 11.8415 13.6461 11.9073L13.6436 11.9093L13.6455 11.9098Z" fill="#4B4949"/>
</g>
<defs>
<clipPath id="clip0_438_1916">
<rect width="16" height="16" fill="white"/>
</clipPath>
</defs>
</svg>
