<svg width="16" height="16" viewBox="0 0 16 16" fill="none" xmlns="http://www.w3.org/2000/svg">
<path d="M13.9861 3.91435C13.9891 3.9171 13.9909 3.921 13.9909 3.9251V14C13.9909 14.5523 13.5431 15 12.9909 15H2.9917C2.43942 15 1.9917 14.5523 1.9917 14V2C1.9917 1.44772 2.43941 1 2.9917 1H10.4007C10.6499 1 10.8901 1.09303 11.0743 1.26087L13.9861 3.91435V3.91435Z" fill="#554646"/>
<path d="M13.8002 3.74038C13.8677 3.8019 13.8242 3.91429 13.7328 3.91429H10.893C10.8377 3.91429 10.793 3.86952 10.793 3.81429V1.22642C10.793 1.13955 10.8961 1.09399 10.9603 1.1525L13.8002 3.74038Z" fill="white" fill-opacity="0.7"/>
<path d="M10.6616 10H9.90723V8.45947H8.49365V10H7.73682V6.43066H8.49365V7.82959H9.90723V6.43066H10.6616V10Z" fill="white"/>
<path d="M7.43994 9.00879C7.43994 9.33105 7.32357 9.58496 7.09082 9.77051C6.8597 9.95605 6.53743 10.0488 6.12402 10.0488C5.74316 10.0488 5.40625 9.97721 5.11328 9.83398V9.13086C5.35417 9.23828 5.55762 9.31396 5.72363 9.35791C5.89128 9.40186 6.04427 9.42383 6.18262 9.42383C6.34863 9.42383 6.47559 9.39209 6.56348 9.32861C6.65299 9.26514 6.69775 9.17074 6.69775 9.04541C6.69775 8.97542 6.67822 8.91357 6.63916 8.85986C6.6001 8.80452 6.54232 8.75163 6.46582 8.70117C6.39095 8.65072 6.23714 8.57015 6.00439 8.45947C5.7863 8.35693 5.62272 8.25846 5.51367 8.16406C5.40462 8.06966 5.31755 7.9598 5.25244 7.83447C5.18734 7.70915 5.15479 7.56266 5.15479 7.39502C5.15479 7.07926 5.26139 6.83105 5.47461 6.65039C5.68945 6.46973 5.98568 6.37939 6.36328 6.37939C6.54883 6.37939 6.72542 6.40137 6.89307 6.44531C7.06234 6.48926 7.23893 6.55111 7.42285 6.63086L7.17871 7.21924C6.98828 7.14111 6.8304 7.08659 6.70508 7.05566C6.58138 7.02474 6.45931 7.00928 6.33887 7.00928C6.19564 7.00928 6.08577 7.04264 6.00928 7.10938C5.93278 7.17611 5.89453 7.26318 5.89453 7.37061C5.89453 7.43734 5.90999 7.49593 5.94092 7.54639C5.97184 7.59521 6.02067 7.64323 6.0874 7.69043C6.15576 7.736 6.31608 7.81901 6.56836 7.93945C6.90202 8.09896 7.1307 8.25928 7.25439 8.42041C7.37809 8.57992 7.43994 8.77604 7.43994 9.00879Z" fill="white"/>
</svg>
