<svg width="16" height="16" viewBox="0 0 16 16" fill="none" xmlns="http://www.w3.org/2000/svg">
<path d="M8.96826 0.5V6.63032H7.32917C5.63633 6.63032 4.26401 5.258 4.26401 3.56516C4.26401 1.87232 5.63633 0.5 7.32917 0.5L8.96826 0.5Z" stroke="#4B4949"/>
<path d="M4.23291 2.71252V4.41737H1.25908C0.788296 4.41737 0.406651 4.03573 0.406651 3.56495C0.406651 3.09417 0.788295 2.71252 1.25908 2.71252H4.23291Z" fill="#4B4949"/>
<rect width="1.08783" height="3.65276" rx="0.543913" transform="matrix(0 1 1 0 8.76465 4.50836)" fill="#4B4949"/>
<rect width="1.08783" height="3.58711" rx="0.543913" transform="matrix(0 1 1 0 8.82959 1.53436)" fill="#4B4949"/>
<path d="M8.96729 8.77393V14.9042H7.32819C5.63535 14.9042 4.26303 13.5319 4.26303 11.8391C4.26303 10.1462 5.63535 8.77393 7.32819 8.77393H8.96729Z" stroke="#4B4949"/>
<path d="M4.23193 10.9865V12.6913H1.2581C0.787319 12.6913 0.405675 12.3097 0.405675 11.8389C0.405675 11.3681 0.787318 10.9865 1.2581 10.9865H4.23193Z" fill="#4B4949"/>
<rect width="1.08783" height="3.65276" rx="0.543913" transform="matrix(0 1 1 0 8.76367 12.7823)" fill="#4B4949"/>
<rect width="1.08783" height="3.58711" rx="0.543913" transform="matrix(0 1 1 0 8.82861 9.80823)" fill="#4B4949"/>
</svg>
