<svg width="17" height="17" viewBox="0 0 17 17" fill="none" xmlns="http://www.w3.org/2000/svg">
<g clip-path="url(#clip0_358_1355)">
<path fill-rule="evenodd" clip-rule="evenodd" d="M15 0.448975C15.827 0.448975 16.5 1.12197 16.5 1.94897V14.949C16.5 15.776 15.827 16.449 15 16.449H2C1.173 16.449 0.5 15.776 0.5 14.949V1.94897C0.5 1.12197 1.173 0.448975 2 0.448975H15ZM11.5 10.449H15.5V6.44897H11.5V10.449ZM15.5 14.949V11.449H11.5V15.449H15C15.275 15.449 15.5 15.224 15.5 14.949ZM6.5 10.449H10.5V6.44897H6.5V10.449ZM6.5 15.449H10.5V11.449H6.5V15.449ZM1.5 10.449H5.5V6.44897H1.5V10.449ZM5.5 15.449V11.449H1.5V14.949C1.5 15.224 1.725 15.449 2 15.449H5.5Z" fill="#4B4949"/>
</g>
<defs>
<clipPath id="clip0_358_1355">
<rect width="16" height="16" fill="white" transform="translate(0.5 0.448975)"/>
</clipPath>
</defs>
</svg>
