<svg width="16" height="16" viewBox="0 0 16 16" fill="none" xmlns="http://www.w3.org/2000/svg">
<path fill-rule="evenodd" clip-rule="evenodd" d="M13.6875 1C14.4111 1 15 1.58887 15 2.3125V13.6875C15 14.4111 14.4111 15 13.6875 15H2.3125C1.58887 15 1 14.4111 1 13.6875V2.3125C1 1.58887 1.58887 1 2.3125 1H13.6875ZM10.625 9.75H14.125V6.25H10.625V9.75ZM14.125 13.6875V10.625H10.625V14.125H13.6875C13.9281 14.125 14.125 13.9281 14.125 13.6875ZM6.25 9.75H9.75V6.25H6.25V9.75ZM6.25 14.125H9.75V10.625H6.25V14.125ZM1.875 9.75H5.375V6.25H1.875V9.75ZM5.375 14.125V10.625H1.875V13.6875C1.875 13.9281 2.07187 14.125 2.3125 14.125H5.375Z" fill="#E4E4E4"/>
</svg>
