<svg width="16" height="16" viewBox="0 0 16 16" fill="none" xmlns="http://www.w3.org/2000/svg">
<path d="M9.39375 1.01524H5.38348C4.44766 1.01524 3.97975 1.01524 3.62232 1.18072C3.3079 1.32627 3.05228 1.55852 2.89209 1.84419C2.70996 2.16895 2.70996 2.59409 2.70996 3.44435V8.90566M9.39375 1.01524L14.4066 5.56982M9.39375 1.01524V4.35526C9.39375 4.7804 9.39375 4.99297 9.48482 5.15534C9.56494 5.29817 9.69269 5.4143 9.84992 5.48708C10.0286 5.56982 10.2626 5.56982 10.7305 5.56982H14.4066M7.36026 14.679H11.7331C12.6689 14.679 13.1368 14.679 13.4943 14.5135C13.8087 14.368 14.0643 14.1357 14.2245 13.85C14.4066 13.5253 14.4066 13.1001 14.4066 12.2499V5.56982" stroke="white" stroke-linecap="round" stroke-linejoin="round"/>
<path d="M9.52481 8.75707L4.90117 13.1637C4.85948 13.2034 4.79294 13.1998 4.75578 13.1558L4.12721 12.4116L3.48755 11.7452C3.44921 11.7053 3.45062 11.6418 3.4907 11.6036L8.07427 7.23509C8.50321 6.82627 9.18511 6.85258 9.58129 7.29323C9.96151 7.71613 9.93648 8.36472 9.52481 8.75707Z" fill="white" stroke="white" stroke-width="0.79"/>
<path d="M1.78726 14.8156C1.63282 14.819 1.60861 14.7921 1.60561 14.6143L2.15254 12.3325C2.18943 12.1786 2.38198 12.1265 2.49146 12.2408L4.21666 14.0419C4.32648 14.1565 4.26537 14.3473 4.10937 14.3767L1.78726 14.8156Z" fill="white"/>
</svg>
