<svg width="16" height="16" viewBox="0 0 16 16" fill="none" xmlns="http://www.w3.org/2000/svg">
<path d="M14.5845 9.15398L12.8951 13.2328C12.6833 13.7456 12.484 14.1138 12.2971 14.3373C12.1127 14.5608 11.8935 14.7278 11.6393 14.8383C11.3852 14.9461 11.0762 15 10.7124 15C10.4009 15 10.1107 14.9606 9.84155 14.8817V13.8324C10.0608 13.927 10.3337 13.9744 10.6601 13.9744C10.8669 13.9744 11.0338 13.9244 11.1609 13.8245C11.288 13.7219 11.3939 13.5457 11.4786 13.2959L9.5874 9.15398H10.8133L12.1588 12.3689H12.1962L12.2635 12.1717L13.3922 9.15398H14.5845Z" fill="white"/>
<path d="M14.6406 6.84241H13.3175L12.0468 4.661L10.776 6.84241H9.53516L11.3479 3.86812L9.65102 1.07528H10.9293L12.1066 3.15019L13.2615 1.07528H14.5098L12.7943 3.93518L14.6406 6.84241Z" fill="white"/>
<path fill-rule="evenodd" clip-rule="evenodd" d="M5.85647 1C6.5801 1 7.16897 1.58888 7.16897 2.3125V13.6875C7.16897 14.4111 6.5801 15 5.85647 15L3.12685 15C2.40323 15 1.81435 14.4111 1.81435 13.6875V2.3125C1.81435 1.58888 2.40323 1 3.12685 1H5.85647ZM2.79397 9.75H6.29397V6.25H2.79397V9.75ZM6.29397 13.6875V10.625H2.79397C2.79397 10.625 2.79397 13.3278 2.79397 13.6875C2.79397 14.0472 3.05311 14.125 3.24357 14.125C3.43402 14.125 5.85647 14.125 5.85647 14.125C6.0971 14.125 6.29397 13.9281 6.29397 13.6875Z" fill="white"/>
</svg>
