<svg width="16" height="16" viewBox="0 0 16 16" fill="none" xmlns="http://www.w3.org/2000/svg">
<g clip-path="url(#clip0_312_1398)">
<path d="M9.181 7.16782C8.60571 6.67527 8.07412 6.44891 7.99784 5.75786C7.60023 6.59982 7.70261 6.46101 6.99651 7.08117L2.07518 11.4035C1.47607 11.9297 1.41877 12.8139 1.94496 13.413C2.47115 14.0121 3.35535 14.0694 3.95446 13.5432L8.89716 9.20211C9.60326 8.58195 9.37593 8.55421 10.2622 8.26859C9.58676 8.10374 9.49287 7.43483 9.181 7.16782Z" fill="#C43736"/>
<path d="M4.21996 11.0406L3.46826 10.1847L3.04032 10.5605L3.79203 11.4164C3.90479 11.5448 4.06555 11.5552 4.19394 11.4425C4.32229 11.3297 4.33271 11.1689 4.21996 11.0406Z" fill="#E0E0E0"/>
<path d="M3.33796 12.1942C3.46636 12.0814 3.47677 11.9207 3.36401 11.7923L2.6123 10.9364L2.18437 11.3123L2.93607 12.1681C3.04881 12.2965 3.20957 12.307 3.33796 12.1942Z" fill="#E0E0E0"/>
<path d="M9.65278 9.15122C10.2334 8.58921 10.117 7.5175 9.39284 6.75749C8.66867 5.99749 7.61092 5.83699 7.03031 6.39901C6.44969 6.96102 6.56606 8.03273 7.29024 8.79273C8.01442 9.55274 9.07216 9.71324 9.65278 9.15122Z" fill="#6C6B6B"/>
<path d="M14.8724 4.39663L12.2953 6.51091C12.2097 6.58608 12.0463 6.61586 11.9497 6.54907C11.0968 6.0095 10.4015 5.21781 9.95773 4.28099C9.92536 4.15781 9.95458 4.01845 10.0402 3.94328L12.6173 1.829C11.4914 1.45337 10.1417 1.72911 9.17886 2.57478C7.76665 3.8151 7.62601 5.98536 8.86633 7.39756C10.1066 8.80977 12.2769 8.95038 13.6891 7.71007C14.652 6.8644 15.0996 5.56157 14.8724 4.39663Z" fill="#939393"/>
<path d="M14.4452 4.74417L11.868 6.85844C11.7824 6.93361 11.6191 6.9634 11.5225 6.89661C10.6696 6.35704 9.97424 5.56534 9.53048 4.62852C9.49812 4.50534 9.52733 4.36598 9.61292 4.29081L12.1901 2.17654C11.0642 1.8009 9.71448 2.07665 8.75161 2.92232C7.3394 4.16264 7.19876 6.33289 8.43908 7.7451C9.6794 9.15731 11.8496 9.29792 13.2618 8.0576C14.2247 7.21193 14.6724 5.90911 14.4452 4.74417Z" fill="#AEBDCB"/>
</g>
<defs>
<clipPath id="clip0_312_1398">
<rect width="16" height="16" fill="white"/>
</clipPath>
</defs>
</svg>
