<svg width="16" height="16" viewBox="0 0 16 16" fill="none" xmlns="http://www.w3.org/2000/svg">
<path d="M8.96826 0.5V6.63032H7.32917C5.63633 6.63032 4.26401 5.258 4.26401 3.56516C4.26401 1.87232 5.63633 0.5 7.32917 0.5L8.96826 0.5Z" stroke="white"/>
<path d="M4.23291 2.71251V4.41736H1.25908C0.788295 4.41736 0.406651 4.03572 0.406651 3.56494V3.56494C0.406651 3.09416 0.788295 2.71251 1.25908 2.71251H4.23291Z" fill="white"/>
<rect width="1.08783" height="3.65276" rx="0.543913" transform="matrix(0 1 1 0 8.76465 4.50836)" fill="white"/>
<rect width="1.08783" height="3.58711" rx="0.543913" transform="matrix(0 1 1 0 8.82959 1.53434)" fill="white"/>
<path d="M8.96729 8.77392V14.9042H7.32819C5.63535 14.9042 4.26303 13.5319 4.26303 11.8391C4.26303 10.1462 5.63535 8.77392 7.32819 8.77392H8.96729Z" stroke="white"/>
<path d="M4.23193 10.9864V12.6913H1.2581C0.787319 12.6913 0.405675 12.3096 0.405675 11.8389V11.8389C0.405675 11.3681 0.787318 10.9864 1.2581 10.9864H4.23193Z" fill="white"/>
<rect width="1.08783" height="3.65276" rx="0.543913" transform="matrix(0 1 1 0 8.76367 12.7823)" fill="white"/>
<rect width="1.08783" height="3.58711" rx="0.543913" transform="matrix(0 1 1 0 8.82861 9.80826)" fill="white"/>
</svg>
