<svg width="16" height="16" viewBox="0 0 16 16" fill="none" xmlns="http://www.w3.org/2000/svg">
<path fill-rule="evenodd" clip-rule="evenodd" d="M2.66371 10.7082C2.28631 10.7082 1.98035 10.4022 1.98035 10.0248C1.98035 9.64744 2.28631 9.34148 2.66371 9.34146H2.95576C3.0503 8.84311 3.24614 8.38069 3.52131 7.97648L3.3147 7.76988C3.04783 7.50301 3.04783 7.07032 3.3147 6.80346C3.58157 6.53659 4.01425 6.53659 4.28112 6.80346L4.48773 7.01006C4.89194 6.7349 5.35436 6.53905 5.8527 6.44451V6.15249C5.8527 5.77508 6.15866 5.46913 6.53606 5.46913C6.91346 5.46913 7.21942 5.77508 7.21942 6.15249V6.44451C7.71776 6.53905 8.18019 6.73492 8.58442 7.01009L8.79103 6.80348C9.0579 6.53661 9.49058 6.53661 9.75745 6.80348C10.0243 7.07035 10.0243 7.50303 9.75745 7.7699L9.55084 7.97651C9.826 8.38071 10.0218 8.84314 10.1164 9.34148H10.4084C10.7858 9.34148 11.0918 9.64744 11.0918 10.0248C11.0918 10.4022 10.7858 10.7082 10.4084 10.7082H10.1164C10.0218 11.2065 9.826 11.669 9.55082 12.0732L9.75742 12.2798C10.0243 12.5467 10.0243 12.9794 9.75742 13.2462C9.49056 13.5131 9.05787 13.5131 8.791 13.2462L8.5844 13.0396C8.18019 13.3148 7.71776 13.5106 7.21942 13.6052V13.8972C7.21942 14.2746 6.91344 14.5806 6.53604 14.5806C6.15864 14.5806 5.85268 14.2746 5.85268 13.8972V13.6051C5.35433 13.5106 4.89191 13.3148 4.4877 13.0396L4.2811 13.2462C4.01423 13.5131 3.58154 13.5131 3.31468 13.2462C3.04781 12.9793 3.04781 12.5467 3.31468 12.2798L3.52128 12.0732C3.24612 11.669 3.05028 11.2065 2.95574 10.7082H2.66371ZM6.53606 11.178C7.17294 11.178 7.68923 10.6617 7.68923 10.0248C7.68923 9.38796 7.17294 8.87167 6.53606 8.87167C5.89918 8.87167 5.38289 9.38796 5.38289 10.0248C5.38289 10.6617 5.89918 11.178 6.53606 11.178Z" fill="#105EBB"/>
<path d="M6.53605 12.8455C8.09139 12.8455 9.35674 11.5802 9.35674 10.0248C9.35674 8.4695 8.09139 7.20415 6.53605 7.20415C4.9807 7.20415 3.71535 8.4695 3.71535 10.0248C3.71535 11.5802 4.9807 12.8455 6.53605 12.8455ZM6.53605 12.4854C5.17925 12.4854 4.07545 11.3816 4.07545 10.0248C4.07545 8.66807 5.17925 7.56425 6.53605 7.56425C7.89284 7.56425 8.99664 8.66804 8.99664 10.0248C8.99664 11.3816 7.89284 12.4854 6.53605 12.4854ZM6.53605 14.766C7.01258 14.766 7.40025 14.3783 7.40025 13.9018V13.7556C7.81318 13.6606 8.20308 13.499 8.56285 13.2739L8.66636 13.3774C9.0033 13.7143 9.55157 13.7143 9.88857 13.3774C10.2255 13.0404 10.2255 12.4922 9.88857 12.1552L9.78504 12.0517C10.0102 11.6919 10.1718 11.302 10.2668 10.8891H10.413C10.8895 10.8891 11.2772 10.5014 11.2772 10.0249C11.2772 9.54833 10.8895 9.16066 10.413 9.16066H10.2668C10.1718 8.74773 10.0102 8.35783 9.78506 7.99806L9.8886 7.89455C10.2255 7.55759 10.2255 7.00932 9.8886 6.67234C9.55166 6.33546 9.00339 6.33542 8.66638 6.67234L8.56287 6.77587C8.20312 6.55071 7.81318 6.38916 7.40027 6.29415V6.1479C7.40027 5.67136 7.0126 5.28369 6.53607 5.28369C6.05954 5.28369 5.67186 5.67136 5.67186 6.1479V6.29411C5.25894 6.38911 4.86902 6.55069 4.50927 6.77583L4.40576 6.67229C4.06875 6.33537 3.52048 6.33542 3.18354 6.67229C2.8466 7.00925 2.8466 7.55752 3.18354 7.8945L3.28708 7.99804C3.06197 8.35776 2.90039 8.74768 2.80538 9.16061H2.65913C2.18259 9.16061 1.79492 9.54828 1.79492 10.0248C1.79492 10.5014 2.18259 10.889 2.65913 10.889H2.80538C2.90039 11.302 3.06197 11.6919 3.28708 12.0516L3.18354 12.1551C2.8466 12.4921 2.8466 13.0404 3.18354 13.3773C3.52048 13.7143 4.06875 13.7143 4.40576 13.3773L4.50927 13.2738C4.86899 13.499 5.25896 13.6605 5.67186 13.7555V13.9017C5.67184 14.3783 6.05951 14.766 6.53605 14.766ZM6.53605 14.4059C6.25808 14.4059 6.03192 14.1797 6.03192 13.9018V13.6094C6.03192 13.5229 5.97039 13.4486 5.88542 13.4325C5.41782 13.3438 4.98084 13.1627 4.58662 12.8944C4.51513 12.8457 4.41914 12.8547 4.35798 12.9159L4.15113 13.1227C3.95457 13.3193 3.63473 13.3193 3.43821 13.1227C3.24165 12.9262 3.24165 12.6063 3.43821 12.4098L3.64507 12.2029C3.7062 12.1418 3.71524 12.0458 3.66658 11.9743C3.39817 11.5801 3.21713 11.1431 3.1284 10.6755C3.1123 10.5905 3.038 10.529 2.95152 10.529H2.65913C2.38116 10.529 2.155 10.3028 2.155 10.0249C2.155 9.74692 2.38116 9.52076 2.65913 9.52076H2.95152C3.03802 9.52076 3.1123 9.45922 3.1284 9.37428C3.21713 8.90668 3.39817 8.46968 3.66658 8.07546C3.71522 8.00394 3.7062 7.90798 3.64507 7.84682L3.43821 7.63997C3.24165 7.4434 3.24165 7.12357 3.43821 6.92705C3.63478 6.73044 3.95463 6.73048 4.15113 6.92705L4.35798 7.1339C4.41914 7.19504 4.51517 7.2041 4.58662 7.15542C4.98086 6.88703 5.41784 6.70596 5.88542 6.61726C5.97041 6.60116 6.03192 6.52688 6.03192 6.44038V6.1479C6.03192 5.86993 6.25808 5.64377 6.53605 5.64377C6.81401 5.64377 7.04017 5.86993 7.04017 6.1479V6.44029C7.04017 6.52682 7.10171 6.60107 7.18667 6.61717C7.65425 6.70588 8.09126 6.88692 8.4855 7.15535C8.55701 7.20401 8.65302 7.19497 8.71413 7.13381L8.92096 6.92696C9.11753 6.73042 9.43739 6.7304 9.63388 6.92698C9.83045 7.12355 9.83045 7.44338 9.63388 7.6399L9.42703 7.84675C9.3659 7.90791 9.35685 8.00392 9.40552 8.07539C9.67393 8.46963 9.85497 8.90661 9.94367 9.37419C9.95978 9.45918 10.034 9.52069 10.1205 9.52069H10.413C10.691 9.52069 10.9171 9.74685 10.9171 10.0248C10.9171 10.3028 10.691 10.5289 10.413 10.5289H10.1206C10.0341 10.5289 9.95982 10.5905 9.94372 10.6754C9.85501 11.143 9.67397 11.58 9.40556 11.9742C9.3569 12.0457 9.36592 12.1417 9.42707 12.2029L9.63393 12.4097C9.83049 12.6063 9.83049 12.9261 9.63393 13.1227C9.43736 13.3193 9.11751 13.3192 8.92101 13.1227L8.71418 12.9158C8.67937 12.881 8.63324 12.8631 8.58679 12.8631C8.55167 12.8631 8.5163 12.8733 8.48552 12.8943C8.09126 13.1627 7.65425 13.3438 7.1867 13.4325C7.10171 13.4486 7.0402 13.5228 7.0402 13.6093V13.9017C7.04017 14.1797 6.81401 14.4059 6.53605 14.4059Z" fill="#CECECE"/>
<path fill-rule="evenodd" clip-rule="evenodd" d="M8.76408 4.61673C8.552 4.59108 8.40086 4.39835 8.42651 4.18627C8.45216 3.97419 8.64488 3.82306 8.85696 3.84869L9.02108 3.86854C9.10808 3.59492 9.24956 3.34838 9.43166 3.13993L9.32959 3.00979C9.19777 2.84169 9.22717 2.59854 9.39528 2.46671C9.56338 2.33488 9.80652 2.36429 9.93835 2.53239L10.0404 2.66254C10.2863 2.53538 10.5594 2.45676 10.8459 2.4375L10.8657 2.2734C10.8914 2.06132 11.0841 1.91018 11.2962 1.93583C11.5083 1.96148 11.6594 2.1542 11.6338 2.36628L11.6139 2.53039C11.8875 2.61738 12.1341 2.75887 12.3425 2.94098L12.4727 2.83891C12.6408 2.70709 12.8839 2.73649 13.0158 2.9046C13.1476 3.0727 13.1182 3.31584 12.9501 3.44767L12.8199 3.54973C12.9471 3.79558 13.0257 4.06874 13.045 4.35521L13.2091 4.37506C13.4212 4.40071 13.5723 4.59343 13.5466 4.80551C13.521 5.01759 13.3283 5.16873 13.1162 5.14308L12.9521 5.12323C12.8651 5.39684 12.7236 5.6434 12.5415 5.85185L12.6436 5.982C12.7754 6.1501 12.746 6.39324 12.5779 6.52507C12.4098 6.6569 12.1666 6.6275 12.0348 6.45939L11.9327 6.32925C11.6869 6.45641 11.4137 6.53503 11.1273 6.55429L11.1074 6.71839C11.0818 6.93047 10.889 7.08161 10.6769 7.05596C10.4649 7.03031 10.3137 6.83758 10.3394 6.6255L10.3592 6.46139C10.0856 6.37439 9.83906 6.23291 9.63061 6.05081L9.50047 6.15287C9.33237 6.2847 9.08922 6.25529 8.95739 6.08719C8.82557 5.91909 8.85497 5.67594 9.02307 5.54411L9.15322 5.44205C9.02606 5.19621 8.94744 4.92304 8.92818 4.63657L8.76408 4.61673ZM10.9082 5.14391C11.2661 5.1872 11.5913 4.93216 11.6346 4.57427C11.6779 4.21638 11.4228 3.89116 11.0649 3.84788C10.7071 3.80459 10.3818 4.05963 10.3386 4.41752C10.2953 4.77541 10.5503 5.10063 10.9082 5.14391Z" fill="#6A5F5F"/>
<path d="M10.7949 6.08097C11.6689 6.18668 12.4659 5.56161 12.5716 4.6876C12.6774 3.81358 12.0523 3.01652 11.1783 2.91081C10.3043 2.80511 9.50719 3.43017 9.40149 4.30419C9.29578 5.17821 9.92084 5.97526 10.7949 6.08097ZM10.8193 5.87861C10.0569 5.7864 9.51163 5.0911 9.60384 4.32866C9.69606 3.56623 10.3913 3.02096 11.1538 3.11317C11.9162 3.20538 12.4615 3.90067 12.3693 4.66312C12.2771 5.42557 11.5818 5.97083 10.8193 5.87861ZM10.6643 7.16016C10.9321 7.19255 11.1763 7.00105 11.2087 6.73326L11.2187 6.6511C11.4572 6.62577 11.6872 6.56147 11.9047 6.45941L11.9558 6.52461C12.1223 6.73687 12.4304 6.77413 12.6427 6.60769C12.8549 6.44124 12.8922 6.13314 12.7257 5.92087L12.6746 5.85567C12.8256 5.66881 12.9428 5.46067 13.0243 5.23509L13.1065 5.24503C13.3743 5.27742 13.6184 5.08591 13.6508 4.81813C13.6832 4.55034 13.4917 4.30614 13.2239 4.27376L13.1418 4.26382C13.1164 4.02532 13.0521 3.79524 12.9501 3.57777L13.0153 3.52663C13.2275 3.36018 13.2648 3.05208 13.0984 2.83981C12.9319 2.62761 12.6238 2.59032 12.4115 2.75675L12.3463 2.8079C12.1595 2.65692 11.9513 2.53963 11.7258 2.45818L11.7357 2.37599C11.7681 2.10821 11.5766 1.86401 11.3088 1.83162C11.041 1.79924 10.7968 1.99074 10.7644 2.25853L10.7545 2.34069C10.516 2.36601 10.2859 2.43031 10.0684 2.53238L10.0173 2.46716C9.85082 2.25493 9.54272 2.21769 9.33049 2.38409C9.11825 2.55055 9.08098 2.85864 9.24742 3.07091L9.29857 3.13613C9.14762 3.32297 9.03032 3.53111 8.94887 3.75669L8.86668 3.74675C8.59889 3.71437 8.3547 3.90587 8.32231 4.17366C8.28992 4.44144 8.48143 4.68564 8.74921 4.71803L8.8314 4.72797C8.85672 4.96647 8.92102 5.19655 9.02308 5.41401L8.95786 5.46515C8.74561 5.63161 8.70835 5.93971 8.87479 6.15197C9.04124 6.3642 9.34933 6.40148 9.56161 6.23504L9.62682 6.18389C9.81366 6.33487 10.0218 6.45215 10.2474 6.53361L10.2375 6.61577C10.2051 6.88358 10.3966 7.12778 10.6643 7.16016ZM10.6888 6.95782C10.5326 6.93893 10.4209 6.79646 10.4398 6.64026L10.4597 6.47595C10.4655 6.42733 10.436 6.38142 10.3894 6.3666C10.1326 6.28497 9.89936 6.15353 9.69607 5.97591C9.6592 5.94372 9.60465 5.94226 9.56613 5.97247L9.43583 6.07465C9.31201 6.17176 9.13228 6.15003 9.03521 6.0262C8.93811 5.90238 8.95985 5.72265 9.08366 5.62557L9.21396 5.52339C9.25247 5.49318 9.26407 5.43985 9.24159 5.39637C9.11755 5.15659 9.04551 4.89871 9.02743 4.62993C9.02416 4.58109 8.98659 4.54147 8.93799 4.53559L8.77368 4.51572C8.61748 4.49683 8.50576 4.35437 8.52465 4.19817C8.54354 4.04197 8.686 3.93025 8.8422 3.94914L9.00651 3.96901C9.05512 3.97489 9.10104 3.94536 9.11587 3.89872C9.19751 3.64198 9.32894 3.40871 9.50657 3.20542C9.53876 3.16854 9.54021 3.114 9.51001 3.07548L9.40783 2.94518C9.31073 2.82137 9.33247 2.64164 9.45628 2.54456C9.58011 2.44744 9.75984 2.4692 9.85691 2.59301L9.95909 2.72331C9.9893 2.76182 10.0426 2.77344 10.0861 2.75094C10.3259 2.62691 10.5838 2.55487 10.8525 2.5368C10.9014 2.53352 10.941 2.49597 10.9469 2.44736L10.9668 2.283C10.9857 2.12679 11.1281 2.01507 11.2843 2.03397C11.4405 2.05286 11.5522 2.19532 11.5333 2.35152L11.5135 2.51583C11.5076 2.56445 11.5371 2.61036 11.5838 2.62518C11.8405 2.70681 12.0738 2.83824 12.2771 3.01588C12.314 3.04809 12.3685 3.04953 12.407 3.01932L12.5373 2.91714C12.6611 2.82005 12.8409 2.84178 12.9379 2.9656C13.035 3.08942 13.0133 3.26915 12.8895 3.36622L12.7592 3.4684C12.7207 3.49862 12.7091 3.55195 12.7315 3.59542C12.8556 3.83521 12.9276 4.09307 12.9457 4.36186C12.949 4.41071 12.9865 4.45032 13.0351 4.4562L13.1995 4.47608C13.3557 4.49497 13.4674 4.63743 13.4485 4.79363C13.4296 4.94983 13.2871 5.06155 13.1309 5.04266L12.9666 5.02279C12.918 5.01691 12.8721 5.04644 12.8573 5.09309C12.7756 5.34983 12.6442 5.58309 12.4666 5.78637C12.4344 5.82324 12.4329 5.87779 12.4631 5.91632L12.5653 6.04662C12.6624 6.17043 12.6407 6.35016 12.5169 6.44724C12.393 6.54436 12.2133 6.5226 12.1162 6.39879L12.0141 6.2685C11.9969 6.24656 11.9722 6.23336 11.9461 6.23021C11.9263 6.22782 11.9058 6.23117 11.887 6.24086C11.6472 6.36491 11.3894 6.43694 11.1206 6.45501C11.0718 6.45829 11.0321 6.49584 11.0263 6.54445L11.0064 6.70876C10.9875 6.86499 10.845 6.97671 10.6888 6.95782Z" fill="#CECECE"/>
</svg>
