<svg width="16" height="16" viewBox="0 0 16 16" fill="none" xmlns="http://www.w3.org/2000/svg">
<path d="M6.83011 5.70923H2.84575L3.77333 2.43445H6.42954L6.83011 5.70923Z" fill="#5E5E5E"/>
<path d="M9.17021 5.70923H13.1546L12.227 2.43445H9.57078L9.17021 5.70923Z" fill="#5E5E5E"/>
<path d="M6.95659 4.61741H2.78244V13.3501H6.95659V4.61741Z" fill="#CD3D3C"/>
<path d="M13.2178 4.61741H9.04366V8.2979V9.40618V13.3501H13.2178V4.61741Z" fill="#CD3D3C"/>
<path d="M6.95659 6.80058H2.78244V11.1669H6.95659V6.80058Z" fill="#CD3D3C"/>
<path d="M13.2178 6.80058H9.04366L9.04366 8.2979V9.40618L9.04366 11.1669H13.2178V6.80058Z" fill="#CD3D3C"/>
<path d="M7.30441 4.46894H2.43457V5.56055H7.30441V4.46894Z" fill="#5E5E5E"/>
<path d="M13.5657 4.46894H8.69583V5.56055H13.5657V4.46894Z" fill="#5E5E5E"/>
<path d="M7.30441 12.4739H2.43457V13.5656H7.30441V12.4739Z" fill="#5E5E5E"/>
<path d="M13.5657 12.4739H8.69583V13.5656H13.5657V12.4739Z" fill="#5E5E5E"/>
<path d="M8.00014 7.76048H5.91307V9.94365H8.00014V7.76048Z" fill="#5E5E5E"/>
<path fill-rule="evenodd" clip-rule="evenodd" d="M8.00014 10.0759C8.19078 10.0759 8.37078 10.0283 8.52981 9.94365H10.0872V7.76048H8.52989C8.37084 7.67585 8.19082 7.62814 8.00014 7.62814C7.35395 7.62814 6.83011 8.1761 6.83011 8.85204C6.83011 9.52799 7.35395 10.0759 8.00014 10.0759ZM8.52989 7.76048H8.00014V9.94365H8.52981C8.75077 9.8261 8.93127 9.63731 9.04366 9.40618V8.2979C8.93128 8.06681 8.75081 7.87803 8.52989 7.76048Z" fill="#5E5E5E"/>
<path d="M8.00014 7.76048V9.94365H8.52981C8.75077 9.8261 8.93127 9.63731 9.04366 9.40618V8.2979C8.93128 8.06681 8.75081 7.87803 8.52989 7.76048H8.00014Z" fill="#5D5D5D"/>
</svg>
