<svg width="16" height="16" viewBox="0 0 16 16" fill="none" xmlns="http://www.w3.org/2000/svg">
<g clip-path="url(#clip0_312_1669)">
<path d="M13.8857 3.8907C13.8887 3.89347 13.8904 3.89736 13.8904 3.90143V14.0406C13.8904 14.5928 13.4427 15.0406 12.8904 15.0406H3.10986C2.55758 15.0406 2.10986 14.5928 2.10986 14.0406V1.95947C2.10986 1.40719 2.55758 0.959473 3.10986 0.959473H10.3517C10.605 0.959473 10.8489 1.05562 11.0341 1.2285L13.8857 3.8907V3.8907Z" fill="#FC7B24"/>
<path d="M13.697 3.71753C13.7634 3.77946 13.7195 3.89063 13.6288 3.89063H10.8427C10.7874 3.89063 10.7427 3.84585 10.7427 3.79063V1.18961C10.7427 1.10217 10.847 1.05685 10.9109 1.11652L13.697 3.71753Z" fill="#FC7B24"/>
<path d="M13.697 3.71753C13.7634 3.77946 13.7195 3.89063 13.6288 3.89063H10.8427C10.7874 3.89063 10.7427 3.84585 10.7427 3.79063V1.18961C10.7427 1.10217 10.847 1.05685 10.9109 1.11652L13.697 3.71753Z" fill="#FC7B24"/>
<path d="M13.697 3.71753C13.7634 3.77946 13.7195 3.89063 13.6288 3.89063H10.8427C10.7874 3.89063 10.7427 3.84585 10.7427 3.79063V1.18961C10.7427 1.10217 10.847 1.05685 10.9109 1.11652L13.697 3.71753Z" fill="white" fill-opacity="0.7"/>
<path d="M6.09043 8.62961C5.6455 8.23701 5.2317 8.05345 5.18002 7.51119C4.85868 8.16613 4.94051 8.05859 4.38009 8.53617L0.474086 11.8648C-0.00142327 12.27 -0.0566567 12.962 0.34856 13.4375C0.753776 13.913 1.44579 13.9682 1.9213 13.563L5.84427 10.22C6.4047 9.7424 6.22692 9.71801 6.92455 9.50462C6.39736 9.36757 6.33163 8.84244 6.09043 8.62961Z" fill="#C43736"/>
<path d="M2.15896 11.6055L1.58008 10.9262L1.24043 11.2156L1.81931 11.8949C1.90615 11.9969 2.03197 12.0069 2.13387 11.9201C2.23574 11.8332 2.24578 11.7074 2.15896 11.6055Z" fill="#E0E0E0"/>
<path d="M1.45417 12.4989C1.55607 12.4121 1.56611 12.2863 1.47927 12.1844L0.900391 11.5051L0.560741 11.7945L1.13962 12.4738C1.22644 12.5757 1.35226 12.5858 1.45417 12.4989Z" fill="#E0E0E0"/>
<path d="M6.43738 10.1889C6.89882 9.75544 6.82019 8.91449 6.26175 8.31062C5.70331 7.70675 4.87654 7.56863 4.4151 8.00213C3.95366 8.43563 4.03229 9.27658 4.59073 9.88045C5.14917 10.4843 5.97594 10.6224 6.43738 10.1889Z" fill="#6C6B6B"/>
<path d="M10.582 6.52537L8.53832 8.15157C8.47039 8.20946 8.34206 8.23088 8.26718 8.17743C7.60529 7.74474 7.06982 7.11639 6.73314 6.37728C6.70923 6.28039 6.73375 6.17156 6.80168 6.11367L8.84539 4.48747C7.96776 4.18002 6.90714 4.38025 6.14292 5.0315C5.02207 5.98666 4.8865 7.68522 5.84166 8.80607C6.79682 9.92693 8.49537 10.0625 9.61622 9.10731C10.3804 8.45607 10.7464 7.44066 10.582 6.52537Z" fill="#939393"/>
<path d="M10.2432 6.79252L8.19945 8.41872C8.13152 8.47661 8.00319 8.49803 7.92831 8.44458C7.26642 8.01189 6.73096 7.38354 6.39427 6.64443C6.37036 6.54754 6.39488 6.43871 6.46281 6.38083L8.50652 4.75462C7.62889 4.44717 6.56827 4.64741 5.80406 5.29865C4.6832 6.25381 4.54764 7.95237 5.5028 9.07322C6.45796 10.1941 8.1565 10.3296 9.27735 9.37447C10.0416 8.72322 10.4075 7.70781 10.2432 6.79252Z" fill="#AEBDCB"/>
</g>
<defs>
<clipPath id="clip0_312_1669">
<rect width="16" height="16" fill="white"/>
</clipPath>
</defs>
</svg>
