<svg width="16" height="16" viewBox="0 0 16 16" fill="none" xmlns="http://www.w3.org/2000/svg">
<path d="M5.27363 11.1639H5.31758C5.66133 11.1639 5.96309 11.2244 6.22285 11.3455C6.48262 11.4647 6.69941 11.6268 6.87324 11.8318C7.04902 12.035 7.18086 12.2635 7.26875 12.5174C7.35859 12.7693 7.40352 13.0272 7.40352 13.2908C7.40352 13.6932 7.3127 14.0516 7.13105 14.366C6.95137 14.6805 6.68477 14.9276 6.33125 15.1072C5.97969 15.2869 5.54609 15.3768 5.03047 15.3768H4.89277L4.2248 15.3709C4.14668 15.369 4.07832 15.3387 4.01973 15.2801C3.96309 15.2215 3.93477 15.1512 3.93477 15.0692L3.95527 11.4744C3.95527 11.3963 3.98359 11.3289 4.04023 11.2723C4.09688 11.2137 4.16426 11.1834 4.24238 11.1815L5.27363 11.1639ZM6.88203 13.2733C6.88203 12.91 6.80488 12.617 6.65059 12.3943C6.49629 12.1717 6.27949 12.0096 6.0002 11.908C5.7209 11.8045 5.39277 11.7527 5.01582 11.7527C4.93574 11.7527 4.85566 11.7537 4.77559 11.7557C4.69746 11.7576 4.61836 11.7606 4.53828 11.7645L4.5207 14.7791L4.89863 14.785C5.29121 14.785 5.63594 14.7381 5.93281 14.6443C6.23164 14.5486 6.46406 14.3904 6.63008 14.1697C6.79805 13.949 6.88203 13.6502 6.88203 13.2733ZM8.89238 13.2059V13.1678L8.88945 11.4774C8.88945 11.3973 8.91777 11.3289 8.97441 11.2723C9.03105 11.2156 9.09844 11.1863 9.17656 11.1844L9.94707 11.1697C9.99004 11.1678 10.032 11.1668 10.073 11.1668C10.1141 11.1668 10.1541 11.1668 10.1932 11.1668C10.408 11.1668 10.617 11.1902 10.8201 11.2371C11.0232 11.284 11.2049 11.3563 11.365 11.4539C11.5271 11.5516 11.6551 11.6785 11.7488 11.8348C11.8445 11.9891 11.8924 12.1746 11.8924 12.3914C11.8924 12.6727 11.7957 12.9149 11.6023 13.118C11.7391 13.2176 11.8504 13.3494 11.9363 13.5135C12.0223 13.6756 12.0652 13.8641 12.0652 14.0789C12.0652 14.3563 12.0057 14.5906 11.8865 14.782C11.7674 14.9715 11.6033 15.116 11.3943 15.2156C11.1854 15.3152 10.9451 15.368 10.6736 15.3738L9.19414 15.3768H9.18828C9.1082 15.3768 9.03887 15.3484 8.98027 15.2918C8.92363 15.2332 8.89531 15.1639 8.89531 15.0838L8.89238 13.2059ZM11.3064 12.409C11.3064 12.2313 11.2459 12.0955 11.1248 12.0018C11.0057 11.9061 10.8553 11.8406 10.6736 11.8055C10.4939 11.7703 10.3123 11.7527 10.1287 11.7527C10.1014 11.7527 10.073 11.7537 10.0438 11.7557C10.0145 11.7557 9.98613 11.7557 9.95879 11.7557L9.47539 11.7645L9.47832 12.8924L10.6063 12.8748C10.7254 12.8729 10.8377 12.8592 10.9432 12.8338C11.0506 12.8065 11.1375 12.7596 11.2039 12.6932C11.2723 12.6248 11.3064 12.5301 11.3064 12.409ZM10.6619 14.7879C10.9236 14.784 11.1248 14.7283 11.2654 14.6209C11.408 14.5115 11.4793 14.326 11.4793 14.0643C11.4793 13.8318 11.4021 13.6736 11.2479 13.5897C11.0936 13.5037 10.8963 13.4608 10.6561 13.4608H10.618L9.47832 13.4783L9.48125 14.785L10.6619 14.7879Z" fill="#E4E4E4"/>
<path d="M10.2756 6.97795L8.86918 5.99314L12.0736 2.71508L5.72449 5.17848L7.13098 6.16331L3.92656 9.44137L10.2756 6.97795Z" fill="#E4E4E4"/>
</svg>
