<svg width="16" height="16" viewBox="0 0 16 16" fill="none" xmlns="http://www.w3.org/2000/svg">
<path d="M10.2756 6.97795L8.86918 5.99314L12.0736 2.71508L5.72449 5.17848L7.13098 6.16331L3.92656 9.44137L10.2756 6.97795Z" fill="#DC3D3C"/>
<path d="M0 12.0159C0 11.9406 0.0266066 11.8764 0.0798199 11.8232C0.134868 11.7682 0.200008 11.7406 0.275241 11.7406H0.277993L2.8738 11.7406H2.8793C2.95453 11.7406 3.01876 11.7682 3.07197 11.8232C3.12702 11.8764 3.15454 11.9406 3.15454 12.0159C3.15454 12.0911 3.12702 12.1562 3.07197 12.2113C3.01876 12.2645 2.95453 12.2911 2.8793 12.2911H2.87655L1.78109 12.2966L1.76733 15.4564V15.4591C1.76733 15.5325 1.7398 15.5958 1.68476 15.6491C1.63154 15.7023 1.56732 15.7289 1.49209 15.7289C1.41686 15.7289 1.35171 15.7023 1.29667 15.6491C1.24345 15.5958 1.21685 15.5325 1.21685 15.4591V15.4536L1.23061 12.2994L0.277993 12.2911H0.275241C0.200008 12.2911 0.134868 12.2645 0.0798199 12.2113C0.0266066 12.1562 0 12.0911 0 12.0159Z" fill="#DC3D3C"/>
<path d="M4.00976 11.7874C4.02995 11.7415 4.06389 11.703 4.1116 11.6718C4.16115 11.6388 4.21161 11.6223 4.26299 11.6223C4.31253 11.6223 4.36207 11.6388 4.41162 11.6718C4.463 11.703 4.49786 11.7415 4.51621 11.7874L6.03003 15.2995C6.04655 15.3362 6.05481 15.3738 6.05481 15.4123C6.05481 15.4876 6.02728 15.5527 5.97223 15.6078C5.91902 15.661 5.8548 15.6876 5.77956 15.6876C5.72819 15.6876 5.67772 15.6711 5.62818 15.638C5.57864 15.605 5.54377 15.5656 5.52359 15.5197L5.05293 14.427L3.48405 14.405L3.00238 15.5224C2.98403 15.5683 2.95009 15.6078 2.90054 15.6408C2.851 15.6757 2.80054 15.6931 2.74916 15.6931C2.67393 15.6931 2.60879 15.6665 2.55374 15.6133C2.50053 15.5582 2.47392 15.4931 2.47392 15.4179C2.47392 15.3793 2.48218 15.3417 2.49869 15.305L4.00976 11.7874ZM4.26299 12.5939L3.72076 13.8572L4.81347 13.871L4.26299 12.5939Z" fill="#DC3D3C"/>
<path d="M6.4113 13.5903V13.5545L6.40854 11.9663C6.40854 11.8911 6.43515 11.8269 6.48836 11.7737C6.54158 11.7204 6.60488 11.6929 6.67828 11.6911L7.40216 11.6773C7.44253 11.6755 7.48199 11.6746 7.52052 11.6746C7.55905 11.6746 7.59667 11.6746 7.63337 11.6746C7.83521 11.6746 8.03155 11.6966 8.22238 11.7406C8.41322 11.7847 8.58387 11.8526 8.73433 11.9443C8.88663 12.0361 9.00682 12.1553 9.0949 12.3021C9.18481 12.4471 9.22976 12.6214 9.22976 12.8251C9.22976 13.0893 9.13894 13.3168 8.95728 13.5077C9.08572 13.6013 9.19031 13.7251 9.27105 13.8793C9.35179 14.0316 9.39216 14.2086 9.39216 14.4105C9.39216 14.671 9.33619 14.8912 9.22426 15.071C9.11233 15.249 8.95819 15.3848 8.76186 15.4784C8.56552 15.572 8.33982 15.6215 8.08476 15.627L6.6948 15.6298H6.68929C6.61406 15.6298 6.54892 15.6032 6.49387 15.55C6.44066 15.4949 6.41405 15.4298 6.41405 15.3545L6.4113 13.5903ZM8.67928 12.8416C8.67928 12.6746 8.6224 12.5471 8.50863 12.459C8.3967 12.3691 8.25541 12.3076 8.08476 12.2746C7.91595 12.2416 7.7453 12.2251 7.57281 12.2251C7.54713 12.2251 7.52052 12.226 7.49299 12.2278C7.46547 12.2278 7.43886 12.2278 7.41318 12.2278L6.95903 12.2361L6.96178 13.2957L8.02146 13.2792C8.13339 13.2774 8.2389 13.2645 8.33798 13.2407C8.4389 13.215 8.52056 13.171 8.58295 13.1086C8.64717 13.0444 8.67928 12.9554 8.67928 12.8416ZM8.07375 15.0766C8.31963 15.0729 8.50863 15.0206 8.64075 14.9197C8.7747 14.8169 8.84168 14.6426 8.84168 14.3967C8.84168 14.1783 8.76919 14.0297 8.62423 13.9508C8.47927 13.8701 8.29395 13.8297 8.06825 13.8297H8.03247L6.96178 13.8462L6.96453 15.0738L8.07375 15.0766Z" fill="#DC3D3C"/>
<path d="M10.156 15.6491C10.0808 15.6491 10.0156 15.6224 9.96059 15.5692C9.90737 15.5142 9.88076 15.45 9.88076 15.3766L9.87251 11.8838V11.881C9.87251 11.8076 9.89912 11.7452 9.95233 11.6938C10.0074 11.6406 10.0725 11.614 10.1477 11.614C10.223 11.614 10.2872 11.6406 10.3404 11.6938C10.3955 11.7452 10.423 11.8076 10.423 11.881L10.4312 15.0986L12.5148 15.0931H12.5176C12.5928 15.0931 12.657 15.1206 12.7102 15.1756C12.7653 15.2289 12.7928 15.2931 12.7928 15.3683C12.7928 15.4435 12.7653 15.5087 12.7102 15.5637C12.657 15.6169 12.5928 15.6435 12.5176 15.6435H12.5148L10.156 15.6491Z" fill="#DC3D3C"/>
<path d="M13.0144 11.9498C13.0144 11.8764 13.041 11.814 13.0943 11.7627C13.1493 11.7094 13.2144 11.6828 13.2897 11.6828L15.6485 11.6856H15.6512C15.7265 11.6856 15.7907 11.7131 15.8439 11.7682C15.899 11.8214 15.9265 11.8856 15.9265 11.9608C15.9265 12.0361 15.899 12.1012 15.8439 12.1562C15.7907 12.2095 15.7265 12.2361 15.6512 12.2361H15.6485L13.5649 12.2333L13.5677 13.3618L15.4228 13.3756C15.5017 13.3756 15.5668 13.4031 15.6182 13.4581C15.6714 13.5132 15.698 13.5838 15.698 13.6701C15.698 13.7435 15.6696 13.8059 15.6127 13.8572C15.5558 13.9068 15.4925 13.9316 15.4228 13.9316H15.42L13.5704 13.9178L13.5732 15.0821L15.6485 15.0793H15.6512C15.7265 15.0793 15.7907 15.1068 15.8439 15.1619C15.899 15.2151 15.9265 15.2793 15.9265 15.3545C15.9265 15.4298 15.899 15.4949 15.8439 15.55C15.7907 15.6032 15.7265 15.6298 15.6512 15.6298H15.6485L13.2979 15.6325C13.2227 15.6325 13.1576 15.6059 13.1025 15.5527C13.0493 15.4977 13.0227 15.4334 13.0227 15.3601L13.0144 11.9498Z" fill="#DC3D3C"/>
</svg>
