<svg width="16" height="16" viewBox="0 0 16 16" fill="none" xmlns="http://www.w3.org/2000/svg">
<path d="M8 15C11.866 15 15 11.866 15 8C15 4.13401 11.866 1 8 1C4.13401 1 1 4.13401 1 8C1 11.866 4.13401 15 8 15Z" fill="#554646"/>
<path d="M7.01394 8.02988C7.64343 8.00597 8.16536 7.81075 8.57971 7.44421C8.99407 7.07766 9.20124 6.55574 9.20124 5.87843C9.20124 5.36846 9.07773 4.94614 8.83072 4.61147C8.59167 4.26883 8.22512 4.09751 7.73109 4.09751C7.24502 4.09751 6.90636 4.2768 6.71513 4.63537C6.52389 4.99395 6.42428 5.4322 6.41631 5.95014C5.93821 5.95014 5.60753 5.87843 5.42426 5.735C5.24098 5.5836 5.14935 5.38838 5.14935 5.14933C5.14935 4.84653 5.25692 4.57561 5.47207 4.33656C5.69518 4.08954 6.00993 3.89432 6.41631 3.75089C6.8227 3.60746 7.3008 3.53574 7.85061 3.53574C8.75103 3.53574 9.47615 3.73097 10.026 4.12141C10.5758 4.50389 10.8507 5.11347 10.8507 5.95014C10.8507 6.52386 10.7112 7.00993 10.4323 7.40835C10.1535 7.7988 9.80684 8.09362 9.39248 8.29283C8.97813 8.48407 8.56378 8.59164 8.14942 8.61555V9.93032H7.01394V8.02988ZM7.48008 12.4642C7.23307 12.4642 7.02191 12.3806 6.8466 12.2132C6.6713 12.0379 6.58365 11.8268 6.58365 11.5798C6.58365 11.3327 6.66732 11.1256 6.83465 10.9582C7.00995 10.7829 7.2251 10.6953 7.48008 10.6953C7.7271 10.6953 7.93428 10.7829 8.10161 10.9582C8.27692 11.1256 8.36457 11.3327 8.36457 11.5798C8.36457 11.8268 8.27692 12.0379 8.10161 12.2132C7.93428 12.3806 7.7271 12.4642 7.48008 12.4642Z" fill="white"/>
</svg>
