<svg width="16" height="16" viewBox="0 0 16 16" fill="none" xmlns="http://www.w3.org/2000/svg">
<path d="M10.2756 6.97795L8.86918 5.99314L12.0736 2.71508L5.72449 5.17848L7.13098 6.16331L3.92656 9.44137L10.2756 6.97795Z" fill="#E4E4E4"/>
<path d="M3.16006 11.1639H3.204C3.54775 11.1639 3.84951 11.2244 4.10928 11.3455C4.36904 11.4647 4.58584 11.6268 4.75967 11.8318C4.93545 12.035 5.06729 12.2635 5.15518 12.5174C5.24502 12.7693 5.28994 13.0272 5.28994 13.2908C5.28994 13.6932 5.19912 14.0516 5.01748 14.366C4.83779 14.6805 4.57119 14.9276 4.21768 15.1072C3.86611 15.2869 3.43252 15.3768 2.91689 15.3768H2.7792L2.11123 15.3709C2.03311 15.369 1.96475 15.3387 1.90615 15.2801C1.84951 15.2215 1.82119 15.1512 1.82119 15.0692L1.8417 11.4744C1.8417 11.3963 1.87002 11.3289 1.92666 11.2723C1.9833 11.2137 2.05068 11.1834 2.12881 11.1815L3.16006 11.1639ZM4.76846 13.2733C4.76846 12.91 4.69131 12.617 4.53701 12.3943C4.38271 12.1717 4.16592 12.0096 3.88662 11.908C3.60732 11.8045 3.2792 11.7527 2.90225 11.7527C2.82217 11.7527 2.74209 11.7537 2.66201 11.7557C2.58389 11.7576 2.50479 11.7606 2.42471 11.7645L2.40713 14.7791L2.78506 14.785C3.17764 14.785 3.52236 14.7381 3.81924 14.6443C4.11807 14.5486 4.35049 14.3904 4.5165 14.1697C4.68447 13.949 4.76846 13.6502 4.76846 13.2733ZM8.11475 11.1639H8.15869C8.50244 11.1639 8.8042 11.2244 9.06396 11.3455C9.32373 11.4647 9.54053 11.6268 9.71436 11.8318C9.89014 12.035 10.022 12.2635 10.1099 12.5174C10.1997 12.7693 10.2446 13.0272 10.2446 13.2908C10.2446 13.6932 10.1538 14.0516 9.97217 14.366C9.79248 14.6805 9.52588 14.9276 9.17236 15.1072C8.8208 15.2869 8.38721 15.3768 7.87158 15.3768H7.73389L7.06592 15.3709C6.98779 15.369 6.91943 15.3387 6.86084 15.2801C6.8042 15.2215 6.77588 15.1512 6.77588 15.0692L6.79639 11.4744C6.79639 11.3963 6.82471 11.3289 6.88135 11.2723C6.93799 11.2137 7.00537 11.1834 7.0835 11.1815L8.11475 11.1639ZM9.72314 13.2733C9.72314 12.91 9.646 12.617 9.4917 12.3943C9.3374 12.1717 9.12061 12.0096 8.84131 11.908C8.56201 11.8045 8.23389 11.7527 7.85693 11.7527C7.77686 11.7527 7.69678 11.7537 7.6167 11.7557C7.53857 11.7576 7.45947 11.7606 7.37939 11.7645L7.36182 14.7791L7.73975 14.785C8.13232 14.785 8.47705 14.7381 8.77393 14.6443C9.07275 14.5486 9.30518 14.3904 9.47119 14.1697C9.63916 13.949 9.72314 13.6502 9.72314 13.2733ZM12.0177 15.3973C11.9376 15.3973 11.8683 15.369 11.8097 15.3123C11.753 15.2537 11.7247 15.1854 11.7247 15.1072L11.7159 11.3895V11.3865C11.7159 11.3084 11.7442 11.242 11.8009 11.1873C11.8595 11.1307 11.9288 11.1024 12.0089 11.1024C12.089 11.1024 12.1573 11.1307 12.214 11.1873C12.2726 11.242 12.3019 11.3084 12.3019 11.3865L12.3106 14.8113L14.5284 14.8055H14.5313C14.6114 14.8055 14.6798 14.8348 14.7364 14.8934C14.795 14.95 14.8243 15.0184 14.8243 15.0984C14.8243 15.1785 14.795 15.2479 14.7364 15.3065C14.6798 15.3631 14.6114 15.3914 14.5313 15.3914H14.5284L12.0177 15.3973Z" fill="#E4E4E4"/>
</svg>
