<svg width="16" height="16" viewBox="0 0 16 16" fill="none" xmlns="http://www.w3.org/2000/svg">
<path d="M12.8115 13.3163L8.33984 15.7104V9.92565L12.7849 7.59332L12.8115 13.3163Z" fill="#CD3D3C"/>
<path d="M2.93261 13.3163L7.4043 15.7104V9.92565L2.95928 7.59332L2.93261 13.3163Z" fill="#CD3D3C"/>
<path d="M5.07125 11.3349L7.39844 9.91867L2.93448 7.45535L0.525391 8.85827L5.07125 11.3349Z" fill="#D37878"/>
<path d="M3.16243 7.33325L7.66883 4.85048L5.23257 3.46811L0.649902 5.9746L3.16243 7.33325Z" fill="#9E2827"/>
<path d="M12.5231 7.31385L15.1845 5.97281L10.6492 3.46811L8.01416 4.83287L12.5231 7.31385Z" fill="#D37878"/>
<path d="M11.0287 11.2432L15.4747 8.87968L12.812 7.45535L8.34766 9.92648L11.0287 11.2432Z" fill="#9E2827"/>
</svg>
