<svg width="16" height="16" viewBox="0 0 16 16" fill="none" xmlns="http://www.w3.org/2000/svg">
<g clip-path="url(#clip0_312_2306)">
<path d="M0.364746 5.45593L0.364746 9.08332L5.45418 12.538V8.91058L0.364746 5.45593Z" fill="#B62B24"/>
<path d="M10.5435 5.45593V9.08332L5.4541 12.538V8.91058L10.5435 5.45593Z" fill="#CD3D3C"/>
<path d="M5.45418 2.17407L0.364746 5.45597L5.45418 8.91062L10.5436 5.45597L5.45418 2.17407Z" fill="#E54141"/>
<path d="M3.96973 3.12415V3.77189C3.96973 4.33327 4.63432 4.76512 5.45414 4.76512C6.27397 4.76512 6.93856 4.33327 6.93856 3.77189V3.12415H3.96973Z" fill="#AF3130"/>
<path d="M3.96973 3.12415V3.77189C3.96973 4.33327 4.63432 4.76512 5.45414 4.76512V3.12415H3.96973Z" fill="#AF3130"/>
<path d="M6.93856 3.14569C6.93856 3.40338 6.78217 3.65052 6.50379 3.83273C6.2254 4.01494 5.84784 4.11731 5.45414 4.11731C5.06045 4.11731 4.68288 4.01494 4.4045 3.83273C4.12612 3.65052 3.96973 3.40338 3.96973 3.14569C3.96973 2.888 4.12612 2.64087 4.4045 2.45865C4.68288 2.27644 5.06045 2.17407 5.45414 2.17407C5.84784 2.17407 6.2254 2.27644 6.50379 2.45865C6.78217 2.64087 6.93856 2.888 6.93856 3.14569Z" fill="#EC403F"/>
<path d="M6.72656 4.85144V5.49919C6.72656 6.06057 7.39116 6.49242 8.21098 6.49242C9.0308 6.49242 9.6954 6.06057 9.6954 5.49919V4.85144H6.72656Z" fill="#AF3130"/>
<path d="M6.72656 4.85144V5.49919C6.72656 6.06057 7.39116 6.49242 8.21098 6.49242V4.85144H6.72656Z" fill="#AF3130"/>
<path d="M9.6954 4.87299C9.6954 5.13068 9.539 5.37781 9.26062 5.56002C8.98224 5.74224 8.60467 5.8446 8.21098 5.8446C7.81729 5.8446 7.43972 5.74224 7.16134 5.56002C6.88296 5.37781 6.72656 5.13068 6.72656 4.87299C6.72656 4.6153 6.88296 4.36816 7.16134 4.18595C7.43972 4.00373 7.81729 3.90137 8.21098 3.90137C8.60467 3.90137 8.98224 4.00373 9.26062 4.18595C9.539 4.36816 9.6954 4.6153 9.6954 4.87299Z" fill="#EC403F"/>
<path d="M1.21289 4.6355V5.28324C1.21289 5.84462 1.87749 6.27647 2.69731 6.27647C3.51713 6.27647 4.18173 5.84462 4.18173 5.28324V4.6355H1.21289Z" fill="#AF3130"/>
<path d="M1.21289 4.6355V5.28324C1.21289 5.84462 1.87749 6.27647 2.69731 6.27647V4.6355H1.21289Z" fill="#AF3130"/>
<path d="M4.18173 4.65717C4.18173 4.91485 4.02533 5.16199 3.74695 5.3442C3.46857 5.52642 3.091 5.62878 2.69731 5.62878C2.30362 5.62878 1.92605 5.52642 1.64767 5.3442C1.36928 5.16199 1.21289 4.91485 1.21289 4.65717C1.21289 4.39948 1.36928 4.15234 1.64767 3.97013C1.92605 3.78791 2.30362 3.68555 2.69731 3.68555C3.091 3.68555 3.46857 3.78791 3.74695 3.97013C4.02533 4.15234 4.18173 4.39948 4.18173 4.65717Z" fill="#EC403F"/>
<path d="M3.96973 6.36279V7.01054C3.96973 7.57192 4.63432 8.00377 5.45414 8.00377C6.27397 8.00377 6.93856 7.57192 6.93856 7.01054V6.36279H3.96973Z" fill="#AF3130"/>
<path d="M3.96973 6.36279V7.01054C3.96973 7.57192 4.63432 8.00377 5.45414 8.00377V6.36279H3.96973Z" fill="#AF3130"/>
<path d="M6.93856 6.38446C6.93856 6.64215 6.78217 6.88928 6.50379 7.0715C6.2254 7.25371 5.84784 7.35608 5.45414 7.35608C5.06045 7.35608 4.68288 7.25371 4.4045 7.0715C4.12612 6.88928 3.96973 6.64215 3.96973 6.38446C3.96973 6.12677 4.12612 5.87964 4.4045 5.69742C4.68288 5.51521 5.06045 5.41284 5.45414 5.41284C5.84784 5.41284 6.2254 5.51521 6.50379 5.69742C6.78217 5.87964 6.93856 6.12677 6.93856 6.38446Z" fill="#EC403F"/>
<path d="M5.4541 8.91785L5.4541 12.5453L10.5448 16V12.3726L5.4541 8.91785Z" fill="#338F31"/>
<path d="M15.6357 8.91785V12.5453L10.5449 16V12.3726L15.6357 8.91785Z" fill="#3BA53A"/>
<path d="M10.5448 5.63586L5.4541 8.91783L10.5448 12.3725L15.6356 8.91783L10.5448 5.63586Z" fill="#6CC754"/>
<path d="M9.06006 6.58582V7.23357C9.06006 7.79496 9.72483 8.22682 10.5449 8.22682C11.3649 8.22682 12.0297 7.79496 12.0297 7.23357V6.58582H9.06006Z" fill="#3BA53A"/>
<path d="M9.06006 6.58582V7.23357C9.06006 7.79496 9.72483 8.22682 10.5449 8.22682V6.58582H9.06006Z" fill="#3BA53A"/>
<path d="M12.0297 6.6075C12.0297 6.86519 11.8732 7.11233 11.5948 7.29455C11.3163 7.47677 10.9387 7.57914 10.5449 7.57914C10.1511 7.57914 9.7734 7.47677 9.49495 7.29455C9.21649 7.11233 9.06006 6.86519 9.06006 6.6075C9.06006 6.34981 9.21649 6.10267 9.49495 5.92045C9.7734 5.73823 10.1511 5.63586 10.5449 5.63586C10.9387 5.63586 11.3163 5.73823 11.5948 5.92045C11.8732 6.10267 12.0297 6.34981 12.0297 6.6075Z" fill="#6CC754"/>
<path d="M6.30273 8.09729V8.74505C6.30273 9.30644 6.9675 9.7383 7.78754 9.7383C8.60757 9.7383 9.27234 9.30644 9.27234 8.74505V8.09729H6.30273Z" fill="#3BA53A"/>
<path d="M6.30273 8.09729V8.74505C6.30273 9.30644 6.9675 9.7383 7.78754 9.7383V8.09729H6.30273Z" fill="#3BA53A"/>
<path d="M9.27234 8.11898C9.27234 8.37667 9.1159 8.62381 8.83745 8.80603C8.55899 8.98824 8.18133 9.09061 7.78754 9.09061C7.39374 9.09061 7.01608 8.98824 6.73762 8.80603C6.45917 8.62381 6.30273 8.37667 6.30273 8.11898C6.30273 7.86128 6.45917 7.61414 6.73762 7.43192C7.01608 7.24971 7.39374 7.14734 7.78754 7.14734C8.18133 7.14734 8.55899 7.24971 8.83745 7.43192C9.1159 7.61414 9.27234 7.86128 9.27234 8.11898Z" fill="#6CC754"/>
<path d="M2.90967 3.56299L2.90967 7.19044L8.00042 10.6451V7.01769L2.90967 3.56299Z" fill="#E67E22"/>
<path d="M13.0912 3.56299V7.19044L8.00049 10.6451V7.01769L13.0912 3.56299Z" fill="#F39C12"/>
<path d="M8.00042 0.281006L2.90967 3.56296L8.00042 7.01767L13.0912 3.56296L8.00042 0.281006Z" fill="#F1C40F"/>
<path d="M6.51562 1.23108V1.87884C6.51562 2.44023 7.18039 2.87208 8.00043 2.87208C8.82046 2.87208 9.48523 2.44023 9.48523 1.87884V1.23108H6.51562Z" fill="#E67E22"/>
<path d="M6.51562 1.23108V1.87884C6.51562 2.44023 7.18039 2.87208 8.00043 2.87208V1.23108H6.51562Z" fill="#E67E22"/>
<path d="M9.48523 1.25264C9.48523 1.51033 9.3288 1.75747 9.05034 1.93969C8.77189 2.12191 8.39422 2.22428 8.00043 2.22428C7.60663 2.22428 7.22897 2.12191 6.95051 1.93969C6.67206 1.75747 6.51562 1.51033 6.51562 1.25264C6.51562 0.994948 6.67206 0.747808 6.95051 0.565591C7.22897 0.383374 7.60663 0.281006 8.00043 0.281006C8.39422 0.281006 8.77189 0.383374 9.05034 0.565591C9.3288 0.747808 9.48523 0.994948 9.48523 1.25264Z" fill="#F1C40F"/>
<path d="M9.27295 2.95837V3.60613C9.27295 4.16752 9.93772 4.59938 10.7578 4.59938C11.5778 4.59938 12.2426 4.16752 12.2426 3.60613V2.95837H9.27295Z" fill="#E67E22"/>
<path d="M9.27295 2.95837V3.60613C9.27295 4.16752 9.93772 4.59938 10.7578 4.59938V2.95837H9.27295Z" fill="#E67E22"/>
<path d="M12.2426 2.98006C12.2426 3.23775 12.0861 3.48489 11.8077 3.66711C11.5292 3.84933 11.1515 3.95169 10.7578 3.95169C10.364 3.95169 9.98629 3.84933 9.70784 3.66711C9.42938 3.48489 9.27295 3.23775 9.27295 2.98006C9.27295 2.72236 9.42938 2.47523 9.70784 2.29301C9.98629 2.11079 10.364 2.00842 10.7578 2.00842C11.1515 2.00842 11.5292 2.11079 11.8077 2.29301C12.0861 2.47523 12.2426 2.72236 12.2426 2.98006Z" fill="#F1C40F"/>
<path d="M3.75781 2.74255V3.39031C3.75781 3.9517 4.42258 4.38356 5.24261 4.38356C6.06265 4.38356 6.72742 3.9517 6.72742 3.39031V2.74255H3.75781Z" fill="#E67E22"/>
<path d="M3.75781 2.74255V3.39031C3.75781 3.9517 4.42258 4.38356 5.24261 4.38356V2.74255H3.75781Z" fill="#E67E22"/>
<path d="M6.72742 2.76412C6.72742 3.02181 6.57098 3.26895 6.29253 3.45117C6.01407 3.63338 5.63641 3.73575 5.24261 3.73575C4.84882 3.73575 4.47116 3.63338 4.1927 3.45117C3.91425 3.26895 3.75781 3.02181 3.75781 2.76412C3.75781 2.50642 3.91425 2.25928 4.1927 2.07707C4.47116 1.89485 4.84882 1.79248 5.24261 1.79248C5.63641 1.79248 6.01407 1.89485 6.29253 2.07707C6.57098 2.25928 6.72742 2.50642 6.72742 2.76412Z" fill="#F1C40F"/>
<path d="M6.51562 4.46985V5.11761C6.51562 5.679 7.18039 6.11085 8.00043 6.11085C8.82046 6.11085 9.48523 5.679 9.48523 5.11761V4.46985H6.51562Z" fill="#E67E22"/>
<path d="M6.51562 4.46985V5.11761C6.51562 5.679 7.18039 6.11085 8.00043 6.11085V4.46985H6.51562Z" fill="#E67E22"/>
<path d="M9.48523 4.49141C9.48523 4.7491 9.3288 4.99624 9.05034 5.17846C8.77189 5.36068 8.39422 5.46305 8.00043 5.46305C7.60663 5.46305 7.22897 5.36068 6.95051 5.17846C6.67206 4.99624 6.51562 4.7491 6.51562 4.49141C6.51562 4.23372 6.67206 3.98658 6.95051 3.80436C7.22897 3.62214 7.60663 3.51978 8.00043 3.51978C8.39422 3.51978 8.77189 3.62214 9.05034 3.80436C9.3288 3.98658 9.48523 4.23372 9.48523 4.49141Z" fill="#F1C40F"/>
<path d="M11.5361 8.13342V8.78118C11.5361 9.34257 12.2009 9.77443 13.0209 9.77443C13.841 9.77443 14.5057 9.34257 14.5057 8.78118V8.13342H11.5361Z" fill="#3BA53A"/>
<path d="M11.5361 8.13342V8.78118C11.5361 9.34257 12.2009 9.77443 13.0209 9.77443V8.13342H11.5361Z" fill="#3BA53A"/>
<path d="M14.5057 8.15499C14.5057 8.41268 14.3493 8.65982 14.0708 8.84204C13.7924 9.02425 13.4147 9.12662 13.0209 9.12662C12.6271 9.12662 12.2495 9.02425 11.971 8.84204C11.6926 8.65982 11.5361 8.41268 11.5361 8.15499C11.5361 7.89729 11.6926 7.65015 11.971 7.46794C12.2495 7.28572 12.6271 7.18335 13.0209 7.18335C13.4147 7.18335 13.7924 7.28572 14.0708 7.46794C14.3493 7.65015 14.5057 7.89729 14.5057 8.15499Z" fill="#6CC754"/>
<path d="M8.77881 9.64478V10.2925C8.77881 10.8539 9.44358 11.2858 10.2636 11.2858C11.0836 11.2858 11.7484 10.8539 11.7484 10.2925V9.64478H8.77881Z" fill="#3BA53A"/>
<path d="M8.77881 9.64478V10.2925C8.77881 10.8539 9.44358 11.2858 10.2636 11.2858V9.64478H8.77881Z" fill="#3BA53A"/>
<path d="M11.7484 9.66646C11.7484 9.92415 11.592 10.1713 11.3135 10.3535C11.0351 10.5357 10.6574 10.6381 10.2636 10.6381C9.86982 10.6381 9.49215 10.5357 9.2137 10.3535C8.93524 10.1713 8.77881 9.92415 8.77881 9.66646C8.77881 9.40877 8.93524 9.16163 9.2137 8.97941C9.49215 8.79719 9.86982 8.69482 10.2636 8.69482C10.6574 8.69482 11.0351 8.79719 11.3135 8.97941C11.592 9.16163 11.7484 9.40877 11.7484 9.66646Z" fill="#6CC754"/>
</g>
<defs>
<clipPath id="clip0_312_2306">
<rect width="16" height="16" fill="white"/>
</clipPath>
</defs>
</svg>
