<svg width="16" height="16" viewBox="0 0 16 16" fill="none" xmlns="http://www.w3.org/2000/svg">
<g clip-path="url(#clip0_438_2587)">
<rect x="0.427734" y="0.404749" width="7.99696" height="7.99696" rx="1.3" fill="#464646"/>
<path fill-rule="evenodd" clip-rule="evenodd" d="M7.67498 0.404749C8.08832 0.404749 8.42469 0.741121 8.42469 1.15446V7.65199C8.42469 8.06533 8.08832 8.40171 7.67498 8.40171H1.17745C0.764106 8.40171 0.427734 8.06533 0.427734 7.65199V1.15446C0.427734 0.741121 0.764106 0.404749 1.17745 0.404749H7.67498ZM5.92564 5.40285H7.92488V3.40361H5.92564V5.40285ZM7.92488 7.65199V5.90266H5.92564V7.9019H7.67498C7.81242 7.9019 7.92488 7.78944 7.92488 7.65199ZM3.42659 5.40285H5.42583V3.40361H3.42659V5.40285ZM3.42659 7.9019H5.42583V5.90266H3.42659V7.9019ZM0.927544 5.40285H2.92678V3.40361H0.927544V5.40285ZM2.92678 7.9019V5.90266H0.927544V7.65199C0.927544 7.78944 1.04 7.9019 1.17745 7.9019H2.92678Z" fill="white"/>
<g filter="url(#filter0_f_438_2587)">
<path d="M5.89648 4.50227C5.89648 3.97788 6.32159 3.55277 6.84598 3.55277H12.6886C13.213 3.55277 13.6381 3.97788 13.6381 4.50227V9.69691C13.6381 10.2213 13.213 10.6464 12.6886 10.6464H6.84598C6.32159 10.6464 5.89648 10.2213 5.89648 9.69691V4.50227Z" fill="#4F4D4D" fill-opacity="0.24"/>
</g>
<rect x="7.32666" y="3.55279" width="7.99696" height="7.99696" rx="1.3" fill="#464646"/>
<path fill-rule="evenodd" clip-rule="evenodd" d="M14.5739 3.55279C14.9872 3.55279 15.3236 3.88916 15.3236 4.30251V10.8C15.3236 11.2134 14.9872 11.5497 14.5739 11.5497H8.07637C7.66303 11.5497 7.32666 11.2134 7.32666 10.8V4.30251C7.32666 3.88916 7.66303 3.55279 8.07637 3.55279H14.5739ZM12.8246 8.55089H14.8238V6.55165H12.8246V8.55089ZM14.8238 10.8V9.0507H12.8246V11.0499H14.5739C14.7114 11.0499 14.8238 10.9375 14.8238 10.8ZM10.3255 8.55089H12.3248V6.55165H10.3255V8.55089ZM10.3255 11.0499H12.3248V9.0507H10.3255V11.0499ZM7.82647 8.55089H9.82571V6.55165H7.82647V8.55089ZM9.82571 11.0499V9.0507H7.82647V10.8C7.82647 10.9375 7.93893 11.0499 8.07637 11.0499H9.82571Z" fill="white"/>
<g filter="url(#filter1_f_438_2587)">
<path d="M2.61279 8.30476C2.61279 7.78037 3.0379 7.35526 3.56229 7.35526H9.40487C9.92926 7.35526 10.3544 7.78037 10.3544 8.30476V13.4994C10.3544 14.0238 9.92926 14.4489 9.40487 14.4489H3.56229C3.0379 14.4489 2.61279 14.0238 2.61279 13.4994V8.30476Z" fill="#4F4D4D" fill-opacity="0.24"/>
</g>
<rect x="2.61279" y="7.74735" width="7.99696" height="7.99696" rx="1.3" fill="#464646"/>
<path fill-rule="evenodd" clip-rule="evenodd" d="M9.86004 7.74735C10.2734 7.74735 10.6097 8.08372 10.6097 8.49706V14.9946C10.6097 15.4079 10.2734 15.7443 9.86004 15.7443H3.36251C2.94916 15.7443 2.61279 15.4079 2.61279 14.9946V8.49706C2.61279 8.08372 2.94916 7.74735 3.36251 7.74735H9.86004ZM8.1107 12.7454H10.1099V10.7462H8.1107V12.7454ZM10.1099 14.9946V13.2453H8.1107V15.2445H9.86004C9.99748 15.2445 10.1099 15.132 10.1099 14.9946ZM5.61165 12.7454H7.61089V10.7462H5.61165V12.7454ZM5.61165 15.2445H7.61089V13.2453H5.61165V15.2445ZM3.1126 12.7454H5.11184V10.7462H3.1126V12.7454ZM5.11184 15.2445V13.2453H3.1126V14.9946C3.1126 15.132 3.22506 15.2445 3.36251 15.2445H5.11184Z" fill="white"/>
</g>
<defs>
<filter id="filter0_f_438_2587" x="5.03463" y="2.69092" width="9.4654" height="8.81733" filterUnits="userSpaceOnUse" color-interpolation-filters="sRGB">
<feFlood flood-opacity="0" result="BackgroundImageFix"/>
<feBlend mode="normal" in="SourceGraphic" in2="BackgroundImageFix" result="shape"/>
<feGaussianBlur stdDeviation="0.430925" result="effect1_foregroundBlur_438_2587"/>
</filter>
<filter id="filter1_f_438_2587" x="1.75094" y="6.49341" width="9.4654" height="8.81733" filterUnits="userSpaceOnUse" color-interpolation-filters="sRGB">
<feFlood flood-opacity="0" result="BackgroundImageFix"/>
<feBlend mode="normal" in="SourceGraphic" in2="BackgroundImageFix" result="shape"/>
<feGaussianBlur stdDeviation="0.430925" result="effect1_foregroundBlur_438_2587"/>
</filter>
<clipPath id="clip0_438_2587">
<rect width="16" height="16" fill="white"/>
</clipPath>
</defs>
</svg>
