<svg width="16" height="16" viewBox="0 0 16 16" fill="none" xmlns="http://www.w3.org/2000/svg">
<g clip-path="url(#clip0_379_1080)">
<g clip-path="url(#clip1_379_1080)">
<path d="M10.2756 6.97793L8.86918 5.99312L12.0736 2.71506L5.72449 5.17846L7.13098 6.1633L3.92656 9.44136L10.2756 6.97793Z" fill="#4B4949"/>
</g>
<path d="M0 11.662C0 11.5868 0.0266066 11.5225 0.0798199 11.4693C0.134868 11.4143 0.200008 11.3867 0.275241 11.3867H0.277993L2.8738 11.3867H2.8793C2.95453 11.3867 3.01876 11.4143 3.07197 11.4693C3.12702 11.5225 3.15454 11.5868 3.15454 11.662C3.15454 11.7372 3.12702 11.8024 3.07197 11.8574C3.01876 11.9106 2.95453 11.9372 2.8793 11.9372H2.87655L1.78109 11.9427L1.76733 15.1025V15.1052C1.76733 15.1786 1.7398 15.242 1.68476 15.2952C1.63154 15.3484 1.56732 15.375 1.49209 15.375C1.41686 15.375 1.35171 15.3484 1.29667 15.2952C1.24345 15.242 1.21685 15.1786 1.21685 15.1052V15.0997L1.23061 11.9455L0.277993 11.9372H0.275241C0.200008 11.9372 0.134868 11.9106 0.0798199 11.8574C0.0266066 11.8024 0 11.7372 0 11.662Z" fill="black"/>
<path d="M4.00976 11.4335C4.02995 11.3877 4.06389 11.3491 4.1116 11.3179C4.16115 11.2849 4.21161 11.2684 4.26299 11.2684C4.31253 11.2684 4.36207 11.2849 4.41162 11.3179C4.463 11.3491 4.49786 11.3877 4.51621 11.4335L6.03003 14.9456C6.04655 14.9823 6.05481 15.0199 6.05481 15.0585C6.05481 15.1337 6.02728 15.1988 5.97223 15.2539C5.91902 15.3071 5.8548 15.3337 5.77956 15.3337C5.72819 15.3337 5.67772 15.3172 5.62818 15.2842C5.57864 15.2511 5.54377 15.2117 5.52359 15.1658L5.05293 14.0731L3.48405 14.0511L3.00238 15.1686C2.98403 15.2144 2.95009 15.2539 2.90054 15.2869C2.851 15.3218 2.80054 15.3392 2.74916 15.3392C2.67393 15.3392 2.60879 15.3126 2.55374 15.2594C2.50053 15.2043 2.47392 15.1392 2.47392 15.064C2.47392 15.0254 2.48218 14.9878 2.49869 14.9511L4.00976 11.4335ZM4.26299 12.24L3.72076 13.5033L4.81347 13.5171L4.26299 12.24Z" fill="black"/>
<path d="M6.4113 13.2364V13.2006L6.40854 11.6124C6.40854 11.5372 6.43515 11.473 6.48836 11.4198C6.54158 11.3666 6.60488 11.339 6.67828 11.3372L7.40216 11.3234C7.44253 11.3216 7.48199 11.3207 7.52052 11.3207C7.55905 11.3207 7.59667 11.3207 7.63337 11.3207C7.83521 11.3207 8.03155 11.3427 8.22238 11.3867C8.41322 11.4308 8.58387 11.4987 8.73433 11.5904C8.88663 11.6822 9.00682 11.8014 9.0949 11.9482C9.18481 12.0932 9.22976 12.2675 9.22976 12.4712C9.22976 12.7354 9.13894 12.963 8.95728 13.1538C9.08572 13.2474 9.19031 13.3712 9.27105 13.5254C9.35179 13.6777 9.39216 13.8547 9.39216 14.0566C9.39216 14.3171 9.33619 14.5373 9.22426 14.7172C9.11233 14.8951 8.95819 15.0309 8.76186 15.1245C8.56552 15.2181 8.33982 15.2676 8.08476 15.2731L6.6948 15.2759H6.68929C6.61406 15.2759 6.54892 15.2493 6.49387 15.1961C6.44066 15.141 6.41405 15.0759 6.41405 15.0007L6.4113 13.2364ZM8.67928 12.4877C8.67928 12.3207 8.6224 12.1932 8.50863 12.1051C8.3967 12.0152 8.25541 11.9537 8.08476 11.9207C7.91595 11.8877 7.7453 11.8712 7.57281 11.8712C7.54713 11.8712 7.52052 11.8721 7.49299 11.8739C7.46547 11.8739 7.43886 11.8739 7.41318 11.8739L6.95903 11.8822L6.96178 12.9419L8.02146 12.9253C8.13339 12.9235 8.2389 12.9107 8.33798 12.8868C8.4389 12.8611 8.52056 12.8171 8.58295 12.7547C8.64717 12.6905 8.67928 12.6015 8.67928 12.4877ZM8.07375 14.7227C8.31963 14.719 8.50863 14.6667 8.64075 14.5658C8.7747 14.463 8.84168 14.2887 8.84168 14.0428C8.84168 13.8245 8.76919 13.6758 8.62423 13.5969C8.47927 13.5162 8.29395 13.4758 8.06825 13.4758H8.03247L6.96178 13.4923L6.96453 14.7199L8.07375 14.7227Z" fill="black"/>
<path d="M10.156 15.2952C10.0808 15.2952 10.0156 15.2686 9.96059 15.2153C9.90737 15.1603 9.88076 15.0961 9.88076 15.0227L9.87251 11.5299V11.5271C9.87251 11.4537 9.89912 11.3913 9.95233 11.34C10.0074 11.2867 10.0725 11.2601 10.1477 11.2601C10.223 11.2601 10.2872 11.2867 10.3404 11.34C10.3955 11.3913 10.423 11.4537 10.423 11.5271L10.4312 14.7447L12.5148 14.7392H12.5176C12.5928 14.7392 12.657 14.7667 12.7102 14.8217C12.7653 14.875 12.7928 14.9392 12.7928 15.0144C12.7928 15.0897 12.7653 15.1548 12.7102 15.2098C12.657 15.2631 12.5928 15.2897 12.5176 15.2897H12.5148L10.156 15.2952Z" fill="black"/>
<path d="M13.0144 11.5959C13.0144 11.5225 13.041 11.4601 13.0943 11.4088C13.1493 11.3555 13.2144 11.3289 13.2897 11.3289L15.6485 11.3317H15.6512C15.7265 11.3317 15.7907 11.3592 15.8439 11.4143C15.899 11.4675 15.9265 11.5317 15.9265 11.6069C15.9265 11.6822 15.899 11.7473 15.8439 11.8024C15.7907 11.8556 15.7265 11.8822 15.6512 11.8822H15.6485L13.5649 11.8794L13.5677 13.0079L15.4228 13.0217C15.5017 13.0217 15.5668 13.0492 15.6182 13.1042C15.6714 13.1593 15.698 13.2299 15.698 13.3162C15.698 13.3896 15.6696 13.452 15.6127 13.5033C15.5558 13.5529 15.4925 13.5777 15.4228 13.5777H15.42L13.5704 13.5639L13.5732 14.7282L15.6485 14.7254H15.6512C15.7265 14.7254 15.7907 14.7529 15.8439 14.808C15.899 14.8612 15.9265 14.9254 15.9265 15.0007C15.9265 15.0759 15.899 15.141 15.8439 15.1961C15.7907 15.2493 15.7265 15.2759 15.6512 15.2759H15.6485L13.2979 15.2786C13.2227 15.2786 13.1576 15.252 13.1025 15.1988C13.0493 15.1438 13.0227 15.0796 13.0227 15.0062L13.0144 11.5959Z" fill="black"/>
</g>
<defs>
<clipPath id="clip0_379_1080">
<rect width="16" height="16" fill="white"/>
</clipPath>
<clipPath id="clip1_379_1080">
<rect width="9.64125" height="10.6054" fill="white" transform="translate(7.09277 -1.03049) rotate(35)"/>
</clipPath>
</defs>
</svg>
