<svg width="16" height="16" viewBox="0 0 16 16" fill="none" xmlns="http://www.w3.org/2000/svg">
<g clip-path="url(#clip0_312_1450)">
<path fill-rule="evenodd" clip-rule="evenodd" d="M2.84085 6.38892C3.37209 6.97692 4.79725 7.69415 6.5391 7.90738C9.09826 8.22185 11.5215 7.63169 13.1633 6.45354L13.1704 4.304C12.1253 4.95015 10.2016 5.38308 8.00002 5.38308C5.80763 5.38308 3.89005 4.95231 2.84391 4.31154C2.84254 5.00364 2.84152 5.69574 2.84085 6.38785V6.38892ZM11.9257 6.26441C11.9936 6.33466 12.0853 6.37363 12.1805 6.37277H12.1815C12.3817 6.37277 12.5452 6.20585 12.5452 5.998C12.5452 5.79123 12.3817 5.62431 12.1815 5.62431C11.9813 5.62431 11.8178 5.79123 11.8178 5.998C11.8189 6.09835 11.8577 6.19416 11.9257 6.26441Z" fill="#DD726D"/>
<path fill-rule="evenodd" clip-rule="evenodd" d="M2.84085 7.57354V9.47C3.37107 10.0591 4.79725 10.7763 6.5391 10.9906C9.09315 11.304 11.5113 10.716 13.1531 9.54323L13.1592 7.60477C11.4102 8.68923 8.94808 9.14477 6.4584 8.83785C4.91746 8.64947 3.60517 8.15904 2.84085 7.57354ZM11.9257 9.34764C11.9936 9.41789 12.0853 9.45686 12.1805 9.456H12.1815C12.3817 9.456 12.5452 9.288 12.5452 9.08123C12.5452 8.87446 12.3817 8.70646 12.1815 8.70646C11.9813 8.70646 11.8178 8.87446 11.8178 9.08123C11.8189 9.18158 11.8577 9.27739 11.9257 9.34764Z" fill="#CD3D3C"/>
<path fill-rule="evenodd" clip-rule="evenodd" d="M2.84289 10.6568L2.84682 12.1874C3.20425 13.2545 5.18501 14.104 8.11342 14.104C9.73268 14.104 11.0015 13.8455 11.9772 13.3372C12.251 13.194 12.4594 13.0734 12.6637 12.9162C12.6842 12.9004 12.7036 12.8856 12.7223 12.8713C12.8277 12.7909 12.9105 12.7277 13.0346 12.6125C13.0765 12.5735 13.1163 12.5352 13.154 12.4983L13.148 10.6934C11.401 11.7714 8.94297 12.2258 6.4584 11.9211C4.91951 11.7316 3.60721 11.2423 2.84289 10.6568ZM12.0426 12.5515C12.0864 12.5701 12.1333 12.5795 12.1805 12.5791L12.1815 12.578C12.3817 12.578 12.5452 12.41 12.5452 12.2032C12.5452 11.9965 12.3817 11.8285 12.1815 11.8285C11.9813 11.8285 11.8178 11.9965 11.8178 12.2032C11.8182 12.253 11.8279 12.3022 11.8463 12.3481C11.8648 12.3939 11.8916 12.4354 11.9253 12.4703C11.959 12.5052 11.9988 12.5328 12.0426 12.5515Z" fill="#C62D25"/>
<path d="M11.683 3.94754C12.1171 3.78815 12.4512 3.60723 12.6596 3.42738C12.8026 3.30462 12.8476 3.22385 12.8476 3.19154C12.8476 3.15923 12.8026 3.07846 12.6596 2.95462C12.4512 2.77585 12.1182 2.59492 11.683 2.43554C10.7308 2.08769 9.41292 1.88415 8.00002 1.88415C6.58712 1.88415 5.26923 2.08877 4.31709 2.43554C3.8829 2.59492 3.54883 2.77585 3.34042 2.95569C3.19739 3.07846 3.15244 3.15815 3.15244 3.19154C3.15244 3.22385 3.19739 3.30462 3.34042 3.42846C3.54883 3.60723 3.88188 3.78815 4.31709 3.94754C5.26923 4.29538 6.58712 4.49892 8.00002 4.49892C9.41292 4.49892 10.7308 4.29431 11.683 3.94754Z" fill="#E54141"/>
<path fill-rule="evenodd" clip-rule="evenodd" d="M12.6596 3.42738C12.4512 3.60723 12.1171 3.78815 11.683 3.94754C10.7308 4.29431 9.41292 4.49892 8.00002 4.49892C6.58712 4.49892 5.26923 4.29538 4.31709 3.94754C3.88188 3.78815 3.54883 3.60723 3.34042 3.42846C3.19739 3.30462 3.15244 3.22385 3.15244 3.19154C3.15244 3.15815 3.19739 3.07846 3.34042 2.95569C3.54883 2.77585 3.8829 2.59492 4.31709 2.43554C5.26923 2.08877 6.58712 1.88415 8.00002 1.88415C9.41292 1.88415 10.7308 2.08769 11.683 2.43554C12.1182 2.59492 12.4512 2.77585 12.6596 2.95462C12.8026 3.07846 12.8476 3.15923 12.8476 3.19154C12.8476 3.22385 12.8026 3.30462 12.6596 3.42738ZM2.84085 7.57354V9.47C3.37107 10.0591 4.79725 10.7763 6.5391 10.9906C9.09315 11.304 11.5113 10.716 13.1531 9.54323L13.1592 7.60477C11.4102 8.68923 8.94808 9.14477 6.4584 8.83785C4.91746 8.64947 3.60517 8.15904 2.84085 7.57354ZM6.5391 7.90738C4.79725 7.69415 3.37209 6.97692 2.84085 6.38892V6.38785C2.84152 5.69574 2.84254 5.00364 2.84391 4.31154C3.89005 4.95231 5.80763 5.38308 8.00002 5.38308C10.2016 5.38308 12.1253 4.95015 13.1704 4.304L13.1633 6.45354C11.5215 7.63169 9.09826 8.22185 6.5391 7.90738ZM2.84289 10.6568L2.84682 12.1874C3.20425 13.2545 5.18501 14.104 8.11342 14.104C9.73268 14.104 11.0015 13.8455 11.9772 13.3372C12.251 13.194 12.4594 13.0734 12.6637 12.9162C12.6842 12.9004 12.7036 12.8856 12.7223 12.8713C12.8277 12.7909 12.9105 12.7277 13.0346 12.6125C13.0765 12.5735 13.1163 12.5352 13.154 12.4983L13.1541 12.525C13.1536 12.6321 13.1536 12.6321 13.1959 12.6624C13.2382 12.6926 13.3229 12.7531 13.4917 12.9813C13.7205 12.9824 13.9387 12.9813 13.9387 12.9813C13.9387 12.9813 13.3135 13.4438 13.1541 13.5666C12.916 13.7497 12.6453 13.9403 12.3327 14.104C11.2559 14.6651 10.1587 15 8.11342 15C4.70632 15 2.45365 13.8638 2.02253 12.3615L2.00721 12.3077V12.2517L2.00108 9.97831C1.99864 7.7419 2.00034 5.50548 2.00619 3.26908C2.0036 3.24332 2.00223 3.21744 2.0021 3.19154C2.00312 1.98108 4.68793 1 8.00002 1C11.3121 1 13.9969 1.98108 13.9969 3.19154C13.9972 3.23883 13.9935 3.28605 13.9857 3.33262C13.9955 3.36646 14.0003 3.40169 14 3.43708L13.9387 12.9813C13.4917 12.5101 13.6907 12.2032 13.6907 12.2032C13.5831 12.0752 13.438 12.2183 13.2174 12.436C13.1969 12.4561 13.1758 12.477 13.154 12.4983L13.148 10.6934C11.401 11.7714 8.94297 12.2258 6.4584 11.9211C4.91951 11.7316 3.60721 11.2423 2.84289 10.6568ZM11.9257 6.26441C11.9936 6.33466 12.0853 6.37363 12.1805 6.37277H12.1815C12.3817 6.37277 12.5452 6.20585 12.5452 5.998C12.5452 5.79123 12.3817 5.62431 12.1815 5.62431C11.9813 5.62431 11.8178 5.79123 11.8178 5.998C11.8189 6.09835 11.8577 6.19416 11.9257 6.26441ZM11.9257 9.34764C11.9936 9.41789 12.0853 9.45686 12.1805 9.456H12.1815C12.3817 9.456 12.5452 9.288 12.5452 9.08123C12.5452 8.87446 12.3817 8.70646 12.1815 8.70646C11.9813 8.70646 11.8178 8.87446 11.8178 9.08123C11.8189 9.18158 11.8577 9.27739 11.9257 9.34764ZM12.0426 12.5515C12.0864 12.5701 12.1333 12.5795 12.1805 12.5791L12.1815 12.578C12.3817 12.578 12.5452 12.41 12.5452 12.2032C12.5452 11.9965 12.3817 11.8285 12.1815 11.8285C11.9813 11.8285 11.8178 11.9965 11.8178 12.2032C11.8182 12.253 11.8279 12.3022 11.8463 12.3481C11.8648 12.3939 11.8916 12.4354 11.9253 12.4703C11.959 12.5052 11.9988 12.5328 12.0426 12.5515Z" fill="#212121"/>
<path d="M13.9387 12.9813C13.4917 12.5101 13.6907 12.2032 13.6907 12.2032C13.5831 12.0752 13.438 12.2183 13.2174 12.436L13.154 12.4983L13.1541 12.525C13.1536 12.6321 13.1536 12.6321 13.1959 12.6624C13.2382 12.6926 13.3229 12.7531 13.4917 12.9813C13.7205 12.9824 13.9387 12.9813 13.9387 12.9813Z" fill="#212121"/>
<path d="M12.9796 12.5441C14.0474 13.6799 14.72 13.3434 15.5063 14.2489C16.2926 15.1544 15.7663 15.6486 15.7663 15.6486C15.7663 15.6486 15.3671 16.2486 14.3317 15.6376C13.2962 15.0267 13.5135 14.3111 12.2005 13.4651L12.9796 12.5441Z" fill="#CD3D3C"/>
<path opacity="0.1" d="M14.9291 14.9314C13.8936 14.3205 14.1165 13.6096 12.8035 12.7636L12.2062 13.4698C13.5192 14.3158 13.2963 15.0267 14.3317 15.6376C15.3672 16.2486 15.7664 15.6486 15.7664 15.6486C15.7664 15.6486 15.9343 15.4908 15.9386 15.1903C15.7095 15.2338 15.3795 15.1972 14.9291 14.9314Z" fill="#302310"/>
<path d="M12.8622 11.828C12.5265 11.5486 11.9574 11.6732 11.5909 12.1065C11.2245 12.5397 11.1996 13.1174 11.5352 13.3969C11.8709 13.6763 12.4401 13.5516 12.8066 13.1184C13.173 12.6852 13.1979 12.1074 12.8622 11.828Z" fill="#C7AEAE"/>
<path opacity="0.1" d="M11.9838 12.867C11.7201 12.6475 11.679 12.2441 11.851 11.8711C11.758 11.9348 11.67 12.0134 11.5914 12.1063C11.225 12.5395 11.2001 13.1173 11.5358 13.3967C11.8715 13.6761 12.4406 13.5515 12.8071 13.1183C12.8857 13.0253 12.9485 12.9257 12.9955 12.8238C12.6551 13.0566 12.2474 13.0865 11.9838 12.867Z" fill="black"/>
<path d="M9.95793 13.8574C11.8255 13.694 13.2081 12.0594 13.046 10.2064C12.8839 8.35343 11.2385 6.98375 9.37086 7.14714C7.50325 7.31054 6.12068 8.94514 6.28279 10.7981C6.44491 12.6511 8.09032 14.0208 9.95793 13.8574Z" fill="#F2AD48"/>
<path fill-rule="evenodd" clip-rule="evenodd" d="M13.3447 10.1803C13.5214 12.2005 12.0143 13.9786 9.98388 14.1563C7.95344 14.3339 6.16049 12.8445 5.98375 10.8243C5.807 8.80403 7.31408 7.02593 9.34452 6.84829C11.375 6.67065 13.1679 8.16003 13.3447 10.1803ZM13.0458 10.2064C13.2079 12.0594 11.8253 13.694 9.95774 13.8574C8.09013 14.0208 6.44472 12.6511 6.2826 10.7981C6.12049 8.94514 7.50306 7.31054 9.37067 7.14715C11.2383 6.98375 12.8837 8.35344 13.0458 10.2064Z" fill="#E7A443"/>
<path d="M9.87163 12.8747C11.1922 12.7591 12.1698 11.6033 12.0552 10.2931C11.9405 8.98287 10.7771 8.01438 9.45652 8.12992C8.13596 8.24545 7.15836 9.40126 7.27299 10.7115C7.38762 12.0217 8.55107 12.9902 9.87163 12.8747Z" fill="#EDE4E4"/>
<path opacity="0.1" d="M8.77471 12.2706C7.75986 11.4259 7.62844 9.92376 8.48118 8.91557C8.83139 8.50152 9.29317 8.23533 9.78605 8.12373C9.06173 8.08881 8.32959 8.37868 7.82703 8.9728C6.97429 9.98099 7.10575 11.4831 8.12056 12.3279C8.71861 12.8257 9.48998 12.984 10.1972 12.8239C9.69248 12.7996 9.19151 12.6176 8.77471 12.2706Z" fill="#5C4545"/>
</g>
<defs>
<clipPath id="clip0_312_1450">
<rect width="16" height="16" fill="white"/>
</clipPath>
</defs>
</svg>
