<svg width="16" height="16" viewBox="0 0 16 16" fill="none" xmlns="http://www.w3.org/2000/svg">
<path d="M4.01025 11.0713C3.99368 10.889 3.91994 10.7473 3.78902 10.6462C3.65976 10.5435 3.47498 10.4921 3.23469 10.4921C3.0756 10.4921 2.94302 10.5128 2.83696 10.5543C2.7309 10.5957 2.65135 10.6529 2.59832 10.7258C2.54529 10.7971 2.51795 10.8791 2.51629 10.9719C2.51298 11.0481 2.52789 11.1152 2.56104 11.1732C2.59584 11.2312 2.64555 11.2826 2.71018 11.3274C2.77647 11.3704 2.85602 11.4086 2.94882 11.4417C3.04162 11.4748 3.14603 11.5038 3.26203 11.5287L3.69953 11.6281C3.95142 11.6828 4.17349 11.7557 4.36572 11.8469C4.55962 11.938 4.72202 12.0466 4.85294 12.1725C4.98551 12.2985 5.08577 12.4435 5.15372 12.6075C5.22167 12.7716 5.25647 12.9556 5.25812 13.1594C5.25647 13.4809 5.17526 13.7568 5.01452 13.9872C4.85377 14.2175 4.62259 14.394 4.32098 14.5166C4.02103 14.6393 3.65893 14.7006 3.23469 14.7006C2.80879 14.7006 2.43757 14.6368 2.12105 14.5092C1.80452 14.3816 1.55843 14.1877 1.38277 13.9275C1.20711 13.6673 1.11679 13.3384 1.11182 12.9406H2.29008C2.30003 13.1047 2.34394 13.2414 2.42183 13.3508C2.49972 13.4602 2.60661 13.543 2.7425 13.5994C2.88005 13.6557 3.03914 13.6839 3.21977 13.6839C3.38549 13.6839 3.52635 13.6615 3.64236 13.6168C3.76002 13.572 3.85033 13.5099 3.91331 13.4303C3.97628 13.3508 4.0086 13.2596 4.01025 13.1569C4.0086 13.0608 3.97877 12.9788 3.92077 12.9108C3.86276 12.8412 3.77327 12.7815 3.6523 12.7318C3.53298 12.6805 3.38052 12.6332 3.19491 12.5901L2.66295 12.4659C2.22214 12.3648 1.87496 12.2015 1.6214 11.9761C1.36785 11.7491 1.24191 11.4425 1.24356 11.0564C1.24191 10.7415 1.32642 10.4656 1.49711 10.2286C1.66781 9.99166 1.90396 9.80688 2.20557 9.6743C2.50718 9.54173 2.85104 9.47544 3.23717 9.47544C3.63158 9.47544 3.9738 9.54255 4.26381 9.67679C4.55547 9.80936 4.78168 9.9958 4.94243 10.2361C5.10318 10.4764 5.18521 10.7548 5.18852 11.0713H4.01025Z" fill="white"/>
<path d="M7.82595 12.8064H8.82027L9.24285 13.3458L9.79719 13.9822L10.6498 15.0337H9.53618L8.93959 14.3203L8.5866 13.8132L7.82595 12.8064ZM10.6846 12.0905C10.6846 12.6506 10.5769 13.1254 10.3615 13.5149C10.146 13.9043 9.85436 14.2001 9.48646 14.4023C9.12022 14.6045 8.70924 14.7056 8.25351 14.7056C7.79612 14.7056 7.38431 14.6036 7.01807 14.3998C6.65183 14.196 6.36099 13.9002 6.14555 13.5124C5.93177 13.1229 5.82488 12.649 5.82488 12.0905C5.82488 11.5304 5.93177 11.0556 6.14555 10.6661C6.36099 10.2767 6.65183 9.98088 7.01807 9.77871C7.38431 9.57653 7.79612 9.47544 8.25351 9.47544C8.70924 9.47544 9.12022 9.57653 9.48646 9.77871C9.85436 9.98088 10.146 10.2767 10.3615 10.6661C10.5769 11.0556 10.6846 11.5304 10.6846 12.0905ZM9.4268 12.0905C9.4268 11.7591 9.37957 11.479 9.28511 11.2503C9.19231 11.0216 9.05808 10.8484 8.88241 10.7308C8.70841 10.6131 8.49877 10.5543 8.25351 10.5543C8.0099 10.5543 7.80026 10.6131 7.6246 10.7308C7.44894 10.8484 7.31388 11.0216 7.21942 11.2503C7.12661 11.479 7.08021 11.7591 7.08021 12.0905C7.08021 12.4219 7.12661 12.702 7.21942 12.9307C7.31388 13.1594 7.44894 13.3326 7.6246 13.4502C7.80026 13.5679 8.0099 13.6267 8.25351 13.6267C8.49877 13.6267 8.70841 13.5679 8.88241 13.4502C9.05808 13.3326 9.19231 13.1594 9.28511 12.9307C9.37957 12.702 9.4268 12.4219 9.4268 12.0905Z" fill="white"/>
<path d="M11.4098 14.6359V9.54504H12.6403V13.6367H14.7582V14.6359H11.4098Z" fill="white"/>
<path fill-rule="evenodd" clip-rule="evenodd" d="M10.5782 6.37119C10.5782 6.88602 10.9956 7.30338 11.5104 7.30338C12.0252 7.30338 12.4426 6.88602 12.4426 6.37119V4.83436H13.9557C14.4706 4.83436 14.8879 4.417 14.8879 3.90216C14.8879 3.38733 14.4706 2.96997 13.9557 2.96997H12.4426V1.43308C12.4426 0.918247 12.0252 0.50089 11.5104 0.50089C10.9956 0.50089 10.5782 0.918247 10.5782 1.43308V2.96997H9.01764C8.50281 2.96997 8.08545 3.38733 8.08545 3.90216C8.08545 4.417 8.50281 4.83436 9.01764 4.83436H10.5782V6.37119Z" fill="white"/>
<path d="M12.8617 8.39372L12.8617 8.49771L13.7773 8.48005L13.7773 7.25424C13.5952 7.7215 13.2727 8.11859 12.8617 8.39372Z" fill="white"/>
<path d="M10.5782 2.61519L12.9494 4.83433L12.4426 4.83436V6.21511L10.5782 6.21511V5.3582H12.2143L9.66237 2.96994L10.5782 2.96997V2.61519Z" fill="white"/>
<path d="M9.08741 1.22L9.0224 1.15916C8.93655 1.07881 8.8201 1.03367 8.69868 1.03367H4.09411C2.9816 1.03367 2.07974 1.8777 2.07974 2.91887L2.07976 8.6525C2.37362 8.55509 2.6805 8.50045 2.99535 8.4823L2.99536 2.91887C2.99536 2.35096 3.48729 1.89057 4.09411 1.89057H7.65003C8.03973 1.62512 8.51056 1.46994 9.01764 1.46994H9.07821V1.43305C9.07821 1.36126 9.08132 1.2902 9.08741 1.22Z" fill="white"/>
<path d="M8.24087 4.41768V3.38658C8.40788 3.13545 8.69343 2.96997 9.01764 2.96997L9.15649 2.96994V4.63345C9.15649 4.71017 9.15654 4.77637 9.15703 4.83433L9.01764 4.83436C8.69343 4.83436 8.40788 4.66882 8.24087 4.41768Z" fill="white"/>
<path d="M9.26294 14.7071H10.3849L9.8989 14.1078C9.92523 14.0838 9.95099 14.0591 9.97619 14.0337L9.99089 14.0187C10.0427 13.9655 10.092 13.9093 10.1389 13.8501H6.37044C6.55076 14.0767 6.7666 14.2599 7.01795 14.3998C7.30985 14.5622 7.63069 14.66 7.98049 14.6929C8.06958 14.7013 8.16054 14.7055 8.25339 14.7055C8.29952 14.7055 8.34519 14.7045 8.3904 14.7024C8.42384 14.7009 8.45703 14.6988 8.48996 14.6961C8.67084 14.6815 8.84415 14.6498 9.0099 14.601C9.02275 14.5972 9.03556 14.5933 9.04832 14.5893C9.07647 14.5805 9.1044 14.5712 9.13211 14.5614L9.13908 14.5589L9.26294 14.7071Z" fill="white"/>
<path d="M13.7772 14.2787L13.7772 13.6366H12.8617L12.8617 13.8501H11.4097V14.6359H13.5721C13.6956 14.5592 13.7771 14.4279 13.7772 14.2787Z" fill="white"/>
<path d="M2.83684 10.5543C2.88436 10.5357 2.93719 10.5213 2.99535 10.511L2.99535 9.4845C2.70592 9.50677 2.44262 9.57004 2.20545 9.67429C2.16221 9.69329 2.12031 9.71337 2.07977 9.73453L2.07978 12.2713C2.14642 12.3023 2.21648 12.3311 2.28997 12.3576C2.40576 12.3993 2.53005 12.4354 2.66284 12.4658L2.99535 12.5435L2.99535 11.4577C2.97949 11.4525 2.96394 11.4471 2.9487 11.4417C2.8559 11.4085 2.77635 11.3704 2.71007 11.3273C2.64544 11.2826 2.59572 11.2312 2.56092 11.1732C2.52777 11.1152 2.51286 11.0481 2.51617 10.9719C2.51783 10.8791 2.54517 10.797 2.59821 10.7258C2.65124 10.6529 2.73078 10.5957 2.83684 10.5543Z" fill="white"/>
<path d="M2.07959 14.2785C2.07956 14.3676 2.10923 14.4539 2.16347 14.5258C2.47057 14.6423 2.8276 14.7006 3.23457 14.7006C3.65881 14.7006 4.02091 14.6392 4.32086 14.5166C4.62247 14.394 4.85365 14.2175 5.0144 13.9871C5.04511 13.9431 5.07291 13.8975 5.09781 13.8501H2.99535L2.99535 13.6678C2.90419 13.6539 2.81987 13.6311 2.74238 13.5994C2.6555 13.5633 2.58047 13.5165 2.51729 13.4588C2.49356 13.4371 2.47149 13.4139 2.4511 13.3891L2.448 13.3853C2.4389 13.3741 2.43014 13.3626 2.42171 13.3508C2.34383 13.2414 2.29991 13.1047 2.28997 12.9406H2.07978L2.07959 14.2785Z" fill="white"/>
<path d="M5.75503 14.6666C5.74431 14.6802 5.73347 14.6937 5.7225 14.7071H5.79346C5.78053 14.6937 5.76773 14.6802 5.75503 14.6666Z" fill="white"/>
</svg>
