<svg width="16" height="16" viewBox="0 0 16 16" fill="none" xmlns="http://www.w3.org/2000/svg">
<path d="M13.9944 3.91435C13.9974 3.9171 13.9992 3.921 13.9992 3.9251V14C13.9992 14.5523 13.5514 15 12.9992 15H3C2.44772 15 2 14.5523 2 14V2C2 1.44772 2.44772 1 3 1H10.409C10.6582 1 10.8984 1.09303 11.0826 1.26087L13.9944 3.91435V3.91435Z" fill="#74B3FF"/>
<path d="M13.8002 3.74038C13.8677 3.8019 13.8242 3.91429 13.7328 3.91429H10.893C10.8377 3.91429 10.793 3.86952 10.793 3.81429V1.22642C10.793 1.13955 10.8961 1.09399 10.9603 1.1525L13.8002 3.74038Z" fill="white" fill-opacity="0.7"/>
<path d="M16 13C16 14.6569 14.6569 16 13 16C11.3431 16 10 14.6569 10 13C10 11.3431 11.3431 10 13 10C14.6569 10 16 11.3431 16 13Z" fill="#12D025"/>
<path fill-rule="evenodd" clip-rule="evenodd" d="M13 15.5C14.3807 15.5 15.5 14.3807 15.5 13C15.5 11.6193 14.3807 10.5 13 10.5C11.6193 10.5 10.5 11.6193 10.5 13C10.5 14.3807 11.6193 15.5 13 15.5ZM13 16C14.6569 16 16 14.6569 16 13C16 11.3431 14.6569 10 13 10C11.3431 10 10 11.3431 10 13C10 14.6569 11.3431 16 13 16Z" fill="#212121"/>
<path fill-rule="evenodd" clip-rule="evenodd" d="M12.5104 14.3302C12.5104 14.6075 12.7353 14.8324 13.0126 14.8324C13.29 14.8324 13.5149 14.6075 13.5149 14.3302V13.5022H14.3301C14.6074 13.5022 14.8323 13.2774 14.8323 13C14.8323 12.7227 14.6074 12.4978 14.3301 12.4978H13.5149V11.6698C13.5149 11.3925 13.29 11.1676 13.0126 11.1676C12.7353 11.1676 12.5104 11.3925 12.5104 11.6698V12.4978H11.6697C11.3923 12.4978 11.1675 12.7227 11.1675 13C11.1675 13.2774 11.3923 13.5022 11.6697 13.5022H12.5104V14.3302Z" fill="white"/>
<path fill-rule="evenodd" clip-rule="evenodd" d="M13.4149 13.4022H14.3301C14.5522 13.4022 14.7323 13.2222 14.7323 13C14.7323 12.7779 14.5522 12.5978 14.3301 12.5978H13.4149V11.6698C13.4149 11.4477 13.2348 11.2676 13.0126 11.2676C12.7905 11.2676 12.6104 11.4477 12.6104 11.6698V12.5978H11.6697C11.4476 12.5978 11.2675 12.7779 11.2675 13C11.2675 13.2222 11.4476 13.4022 11.6697 13.4022H12.6104V14.3302C12.6104 14.5523 12.7905 14.7324 13.0126 14.7324C13.2348 14.7324 13.4149 14.5523 13.4149 14.3302V13.4022ZM13.5149 14.3302C13.5149 14.6075 13.29 14.8324 13.0126 14.8324C12.7353 14.8324 12.5104 14.6075 12.5104 14.3302V13.5022H11.6697C11.3923 13.5022 11.1675 13.2774 11.1675 13C11.1675 12.7227 11.3923 12.4978 11.6697 12.4978H12.5104V11.6698C12.5104 11.3925 12.7353 11.1676 13.0126 11.1676C13.29 11.1676 13.5149 11.3925 13.5149 11.6698V12.4978H14.3301C14.6074 12.4978 14.8323 12.7227 14.8323 13C14.8323 13.2774 14.6074 13.5022 14.3301 13.5022H13.5149V14.3302Z" fill="#072E0B"/>
</svg>
