<svg width="16" height="16" viewBox="0 0 16 16" fill="none" xmlns="http://www.w3.org/2000/svg">
<path d="M2.24095 6.77034H1.28584V4.15538L1.29512 3.72574L1.31057 3.25591C1.1519 3.41458 1.04166 3.51864 0.979838 3.5681L0.460555 3.98538L0 3.41046L1.45585 2.25134H2.24095V6.77034Z" fill="#EB4342"/>
<path d="M7.25874 11.3543H4.09977V10.6897L5.23415 9.54299C5.57004 9.19886 5.7895 8.96085 5.89253 8.82897C5.99556 8.69503 6.06975 8.57139 6.11508 8.45806C6.16041 8.34472 6.18308 8.22726 6.18308 8.10569C6.18308 7.92435 6.1326 7.78938 6.03162 7.70077C5.93271 7.61216 5.7998 7.56786 5.63289 7.56786C5.45773 7.56786 5.28773 7.60804 5.12288 7.6884C4.95803 7.76877 4.78596 7.88314 4.60669 8.0315L4.0874 7.4164C4.30995 7.22682 4.49438 7.09288 4.64069 7.01457C4.78699 6.93627 4.94669 6.87651 5.11979 6.8353C5.29288 6.79202 5.48658 6.77039 5.70089 6.77039C5.9832 6.77039 6.23254 6.8219 6.4489 6.92493C6.66527 7.02797 6.83322 7.17221 6.95273 7.35767C7.07225 7.54313 7.13201 7.75538 7.13201 7.99441C7.13201 8.20254 7.09492 8.3983 7.02073 8.5817C6.94861 8.76303 6.83528 8.94952 6.68073 9.14116C6.52824 9.3328 6.25829 9.60584 5.87089 9.96027L5.28979 10.5074V10.5506H7.25874V11.3543Z" fill="#EB4342"/>
<path d="M11.6831 12.4299C11.6831 12.7122 11.5976 12.9523 11.4266 13.1501C11.2556 13.3479 11.0155 13.4839 10.7064 13.5581V13.5767C11.0711 13.622 11.3473 13.7333 11.5348 13.9105C11.7223 14.0856 11.8161 14.3226 11.8161 14.6214C11.8161 15.0562 11.6584 15.3952 11.3431 15.6383C11.0279 15.8794 10.5776 16 9.99238 16C9.50194 16 9.06715 15.9186 8.68799 15.7558V14.9429C8.86314 15.0315 9.05581 15.1036 9.266 15.1592C9.47619 15.2149 9.68431 15.2427 9.89038 15.2427C10.2057 15.2427 10.4385 15.1891 10.5889 15.082C10.7394 14.9748 10.8146 14.8027 10.8146 14.5658C10.8146 14.3535 10.728 14.2031 10.5549 14.1145C10.3818 14.0259 10.1057 13.9816 9.72655 13.9816H9.38346V13.249H9.73274C10.083 13.249 10.3386 13.2037 10.4993 13.113C10.6621 13.0203 10.7435 12.8626 10.7435 12.6401C10.7435 12.298 10.5292 12.127 10.1006 12.127C9.9522 12.127 9.80074 12.1517 9.64619 12.2012C9.4937 12.2506 9.3237 12.3361 9.13618 12.4577L8.69417 11.7993C9.1063 11.5026 9.59776 11.3542 10.1686 11.3542C10.6363 11.3542 11.0052 11.449 11.2751 11.6386C11.5471 11.8282 11.6831 12.092 11.6831 12.4299Z" fill="#EB4342"/>
<path d="M12.8557 9.02303L9.37714 8.38181C9.22996 8.34522 9.09393 8.27327 8.98086 8.1722C8.86779 8.07112 8.78109 7.94399 8.72829 7.80182C8.67549 7.65964 8.65817 7.50673 8.67786 7.35636C8.69754 7.20598 8.75362 7.06268 8.84123 6.93888L9.58445 6.19086L5.92356 2.55348C5.74941 2.37941 5.65121 2.1435 5.65042 1.89727C5.64963 1.65104 5.7463 1.41451 5.91933 1.23932C6.0934 1.06517 6.32931 0.96697 6.57553 0.966177C6.82176 0.965384 7.0583 1.06206 7.23348 1.23509L10.9037 4.86312L11.6469 4.1151C11.7701 4.02669 11.9131 3.96969 12.0633 3.94904C12.2135 3.92839 12.3666 3.94471 12.5091 3.9966C12.6516 4.04848 12.7793 4.13436 12.8811 4.24678C12.9829 4.3592 13.0557 4.49476 13.0932 4.6417L13.7569 8.11606C13.7831 8.24016 13.7781 8.36885 13.7422 8.49052C13.7063 8.61219 13.6407 8.72302 13.5513 8.81301C13.4619 8.90299 13.3515 8.96931 13.2301 9.00598C13.1086 9.04264 12.98 9.0485 12.8557 9.02303Z" fill="#28EA3C"/>
<path fill-rule="evenodd" clip-rule="evenodd" d="M12.9101 8.728L9.44146 8.08861C9.34475 8.06322 9.2554 8.01522 9.18079 7.94853C9.10412 7.87999 9.04533 7.79377 9.00952 7.69737C8.97371 7.60096 8.96197 7.49726 8.97532 7.39529C8.98769 7.30079 9.02125 7.21042 9.07339 7.13087L10.0087 6.18949L6.13564 2.34129C6.13554 2.3412 6.13574 2.34139 6.13564 2.34129C6.01773 2.22328 5.95096 2.06314 5.95042 1.8963C5.94988 1.72963 6.0152 1.5695 6.13214 1.45077C6.25012 1.33306 6.40982 1.26671 6.5765 1.26618C6.74343 1.26564 6.90379 1.33116 7.02258 1.44844L10.9056 5.28684L11.8404 4.34601C11.9196 4.29337 12.0097 4.25922 12.1041 4.24624C12.206 4.23224 12.3098 4.24331 12.4064 4.2785C12.5031 4.31368 12.5897 4.37192 12.6587 4.44815C12.7259 4.52233 12.7744 4.61136 12.8005 4.70791L13.4633 8.1782C13.4793 8.25359 13.4763 8.33175 13.4545 8.40566C13.4327 8.47957 13.3928 8.54689 13.3385 8.60156C13.2842 8.65622 13.2171 8.69651 13.1433 8.71878C13.0696 8.74105 12.9914 8.74462 12.9159 8.72914L12.9101 8.728ZM13.0932 4.6417C13.0557 4.49476 12.9829 4.3592 12.8811 4.24678C12.7793 4.13436 12.6516 4.04848 12.5091 3.9966C12.3666 3.94471 12.2135 3.92839 12.0633 3.94904C11.9131 3.96969 11.7701 4.02669 11.6469 4.1151L10.9037 4.86312L7.23348 1.23509C7.0583 1.06206 6.82176 0.965384 6.57553 0.966177C6.32931 0.96697 6.0934 1.06517 5.91933 1.23932C5.7463 1.41451 5.64963 1.65104 5.65042 1.89727C5.65121 2.1435 5.74941 2.37941 5.92356 2.55348L9.58445 6.19086L8.84123 6.93888C8.75362 7.06268 8.69754 7.20598 8.67786 7.35636C8.65817 7.50673 8.67549 7.65964 8.72829 7.80182C8.78109 7.94399 8.86779 8.07112 8.98086 8.1722C9.09393 8.27327 9.22996 8.34522 9.37714 8.38181L12.8557 9.02303C12.98 9.0485 13.1086 9.04264 13.2301 9.00598C13.3515 8.96931 13.4619 8.90299 13.5513 8.81301C13.6407 8.72302 13.7063 8.61219 13.7422 8.49052C13.7781 8.36885 13.7831 8.24016 13.7569 8.11606L13.0932 4.6417Z" fill="#1C7E26"/>
</svg>
