<svg width="16" height="16" viewBox="0 0 16 16" fill="none" xmlns="http://www.w3.org/2000/svg">
<path fill-rule="evenodd" clip-rule="evenodd" d="M11.69 6.92877C11.69 7.4436 12.1074 7.86096 12.6222 7.86096C13.1371 7.86096 13.5544 7.4436 13.5544 6.92877V5.39194H15.0676C15.5824 5.39194 15.9998 4.97458 15.9998 4.45974C15.9998 3.94491 15.5824 3.52755 15.0676 3.52755H13.5544V1.99066C13.5544 1.47583 13.1371 1.05847 12.6222 1.05847C12.1074 1.05847 11.69 1.47583 11.69 1.99066V3.52755H10.1295C9.61462 3.52755 9.19727 3.94491 9.19727 4.45974C9.19727 4.97458 9.61462 5.39194 10.1295 5.39194H11.69V6.92877Z" fill="#4B4949"/>
<path d="M7.7545 3.93281C6.28777 4.41356 5.15272 5.62643 4.78141 7.13939H1.48413C0.888834 7.13939 0.40625 7.62197 0.40625 8.21727C0.40625 8.81257 0.888834 9.29515 1.48413 9.29515H4.78126C5.2643 11.2646 7.0414 12.7257 9.15976 12.7257H11.8646V10.7857H14.9061C15.2859 10.7857 15.5938 10.4778 15.5938 10.098C15.5938 9.71813 15.2859 9.4102 14.9061 9.4102H11.8646V8.3672C11.4861 8.34016 11.1435 8.2816 10.8646 8.15925V11.7257H9.15976C7.22229 11.7257 5.65166 10.155 5.65166 8.21757C5.65166 6.7797 6.51672 5.54387 7.75479 5.00214C7.71708 4.82773 7.69727 4.64619 7.69727 4.45974C7.69727 4.27881 7.71702 4.10248 7.7545 3.93281Z" fill="#4B4949"/>
<path d="M10.8646 5.39194V4.70947H9.23109C9.20905 4.62999 9.19727 4.54624 9.19727 4.45974C9.19727 4.15209 9.3463 3.87925 9.57612 3.70947H11.8646V5.64964H13.5544V6.92877C13.5544 6.96132 13.5527 6.99349 13.5495 7.02518H11.8646V7.47206C11.7547 7.3191 11.69 7.13149 11.69 6.92877V5.39194H10.8646Z" fill="#4B4949"/>
</svg>
