<svg width="16" height="16" viewBox="0 0 16 16" fill="none" xmlns="http://www.w3.org/2000/svg">
<path d="M7.86509 2.41402L0.883724 14.3144C0.793293 14.4686 0.904308 14.6627 1.08281 14.6627H14.9152C15.0937 14.6627 15.2047 14.4686 15.1143 14.3144L8.13287 2.41402C8.07284 2.3117 7.92512 2.3117 7.86509 2.41402Z" fill="#E4E4E4"/>
<path d="M8.00104 13.1076C8.3441 13.1076 8.6222 12.8291 8.6222 12.4855C8.6222 12.142 8.3441 11.8635 8.00104 11.8635C7.65799 11.8635 7.37988 12.142 7.37988 12.4855C7.37988 12.8291 7.65799 13.1076 8.00104 13.1076Z" fill="#4B4949"/>
<path d="M7.40315 6.62223L7.66938 10.621C7.68099 10.7953 7.81625 10.9305 7.9792 10.9305H8.02198C8.18494 10.9305 8.3202 10.7954 8.33181 10.621L8.59803 6.62223C8.61088 6.42932 8.46847 6.26526 8.28821 6.26526H7.71301C7.53271 6.26526 7.39031 6.42935 7.40315 6.62223Z" fill="#4B4949"/>
<path d="M14.9157 14.9738H1.08314C0.889645 14.9738 0.709452 14.8692 0.613286 14.701C0.517119 14.5326 0.518351 14.3241 0.616312 14.1569L7.59786 2.25616C7.68248 2.11219 7.83262 2.02625 7.99976 2.02625C8.16658 2.02625 8.31673 2.11219 8.40135 2.25616L15.3825 14.1568C15.4805 14.3242 15.4817 14.5327 15.3855 14.701C15.2894 14.8692 15.1092 14.9738 14.9157 14.9738ZM1.22237 14.3517H14.7765L7.99938 2.79971L1.22237 14.3517Z" fill="#E4E4E4"/>
<path d="M14.7769 14.3517H5.89111C5.94857 14.5619 6.01268 14.769 6.08257 14.9737H14.9162C15.1097 14.9737 15.2899 14.8692 15.3861 14.701C15.4822 14.5327 15.481 14.3242 15.383 14.1569L9.16584 3.55865C9.00563 3.69762 8.84915 3.84072 8.6976 3.98895L14.7769 14.3517Z" fill="#E4E4E4"/>
</svg>
