<svg width="16" height="16" viewBox="0 0 16 16" fill="none" xmlns="http://www.w3.org/2000/svg">
<g clip-path="url(#clip0_438_2582)">
<path d="M4.40458 6.10777L1.74469 3.31329C1.69408 3.26012 1.60559 3.27789 1.58237 3.34753C1.18345 4.54425 1.43523 5.97428 2.28558 7.037C3.22335 8.20903 4.73026 8.67345 6.10672 8.35254C6.3536 8.51312 6.42731 8.62232 6.57155 8.83601C6.65759 8.96349 6.76874 9.12816 6.95672 9.36309L11.4298 14.9536C11.972 15.6312 12.9304 15.7376 13.6081 15.1954C14.2857 14.6533 14.3921 13.6948 13.8499 13.0172L9.39619 7.45086C9.07536 7.04988 8.93663 6.89262 8.84431 6.71168C8.78228 6.5901 8.74121 6.45783 8.67993 6.23375C9.24384 4.97875 9.10458 3.4555 8.19012 2.31262C7.34239 1.25309 6.00792 0.693896 4.75608 0.816081C4.68033 0.823475 4.64449 0.91086 4.69059 0.971418L7.01236 4.02117L4.40458 6.10777Z" fill="white"/>
</g>
<defs>
<clipPath id="clip0_438_2582">
<rect width="16" height="16" fill="white"/>
</clipPath>
</defs>
</svg>
