<svg width="16" height="16" viewBox="0 0 16 16" fill="none" xmlns="http://www.w3.org/2000/svg">
<g clip-path="url(#clip0_389_2498)">
<rect x="5.01953" y="2.25867" width="10.9805" height="1.35455" rx="0.677277" fill="white"/>
<rect x="8" y="7.32272" width="8" height="1.35455" rx="0.677277" fill="white"/>
<rect x="10.6548" y="13.1369" width="5.34521" height="1.35455" rx="0.677277" fill="white"/>
<path d="M1.8125 1.66611C1.74609 1.66611 1.68652 1.63681 1.63379 1.57822C1.58105 1.51767 1.55469 1.45615 1.55469 1.39365C1.55469 1.33115 1.57129 1.26865 1.60449 1.20615C1.63965 1.14169 1.69336 1.10263 1.76562 1.08896C1.83984 1.07333 1.91602 1.03036 1.99414 0.960052C2.07422 0.887787 2.15137 0.783295 2.22559 0.646576C2.28418 0.537201 2.36523 0.482513 2.46875 0.482513C2.55273 0.482513 2.62598 0.507904 2.68848 0.558685C2.75293 0.607513 2.78516 0.674896 2.78516 0.760834L2.78223 4.00107H3.13086C3.19922 4.00107 3.25586 4.03329 3.30078 4.09775C3.3457 4.16025 3.36816 4.22079 3.36816 4.27939C3.36816 4.35556 3.34082 4.42099 3.28613 4.47568C3.23145 4.53036 3.16602 4.55771 3.08984 4.55771H1.82422C1.74805 4.55771 1.68262 4.53036 1.62793 4.47568C1.57324 4.42099 1.5459 4.35556 1.5459 4.27939C1.5459 4.22079 1.56836 4.16025 1.61328 4.09775C1.6582 4.03329 1.71484 4.00107 1.7832 4.00107H2.19629V1.54306C2.1416 1.57431 2.08496 1.60263 2.02637 1.62802C1.96777 1.65341 1.89648 1.66611 1.8125 1.66611Z" fill="white"/>
<path d="M3.47607 10.2961C3.396 10.2961 3.32666 10.2678 3.26807 10.2112C3.21143 10.1526 3.18311 10.0832 3.18311 10.0031C3.18311 9.90353 3.21338 9.80099 3.27393 9.69553C3.33447 9.5881 3.40967 9.48459 3.49951 9.38498C3.58936 9.28342 3.68018 9.19064 3.77197 9.10666C3.86377 9.02267 3.94092 8.95334 4.00342 8.89865C4.12646 8.79123 4.25928 8.69162 4.40186 8.59982C4.54443 8.50607 4.6792 8.40842 4.80615 8.30685C4.93506 8.20334 5.03955 8.08615 5.11963 7.95529C5.20166 7.82248 5.24268 7.66525 5.24268 7.48361C5.24268 7.34103 5.21045 7.2131 5.146 7.09982C5.08154 6.98654 4.99463 6.8967 4.88525 6.83029C4.77588 6.76193 4.65283 6.72775 4.51611 6.72775C4.34619 6.72775 4.19971 6.78146 4.07666 6.88889C3.95557 6.99631 3.88037 7.11838 3.85107 7.2551C3.8374 7.3176 3.80225 7.37228 3.74561 7.41916C3.69092 7.46603 3.62939 7.48947 3.56104 7.48947C3.48096 7.48947 3.41162 7.46115 3.35303 7.40451C3.29639 7.34787 3.26807 7.28049 3.26807 7.20236C3.26807 7.05783 3.3042 6.92209 3.37646 6.79514C3.44873 6.66623 3.54443 6.55295 3.66357 6.45529C3.78467 6.35764 3.91943 6.28146 4.06787 6.22678C4.21631 6.17014 4.36768 6.14182 4.52197 6.14182C4.77588 6.14182 5.00049 6.20139 5.1958 6.32053C5.39307 6.43771 5.54736 6.59689 5.65869 6.79807C5.77197 6.99924 5.82861 7.22385 5.82861 7.47189C5.82861 7.72971 5.77881 7.95139 5.6792 8.13693C5.57959 8.32248 5.45361 8.48459 5.30127 8.62326C5.14893 8.75998 4.9917 8.884 4.82959 8.99533C4.66748 9.10666 4.52295 9.21701 4.396 9.32639C4.25537 9.45139 4.13135 9.57932 4.02393 9.71017H5.73779C5.81787 9.71017 5.88623 9.73947 5.94287 9.79807C6.00146 9.85471 6.03076 9.92307 6.03076 10.0031C6.03076 10.0832 6.00146 10.1526 5.94287 10.2112C5.88623 10.2678 5.81787 10.2961 5.73779 10.2961H3.47607Z" fill="white"/>
<path d="M8.97754 12.8784C8.97754 12.7319 8.91602 12.604 8.79297 12.4946C8.67188 12.3853 8.52832 12.3306 8.3623 12.3306C8.23145 12.3306 8.11133 12.3667 8.00195 12.439C7.89258 12.5112 7.82227 12.5884 7.79102 12.6704C7.76367 12.7427 7.72559 12.8003 7.67676 12.8433C7.62793 12.8862 7.55859 12.9077 7.46875 12.9077C7.4043 12.9077 7.34375 12.8804 7.28711 12.8257C7.23047 12.769 7.20215 12.7095 7.20215 12.647C7.20215 12.6196 7.2041 12.5962 7.20801 12.5767C7.21387 12.5552 7.21875 12.5376 7.22266 12.5239C7.30273 12.313 7.44141 12.1313 7.63867 11.979C7.83789 11.8247 8.0791 11.7476 8.3623 11.7476C8.5791 11.7476 8.77832 11.7974 8.95996 11.897C9.14355 11.9966 9.29004 12.1333 9.39941 12.3071C9.51074 12.481 9.56641 12.6792 9.56641 12.9019C9.56641 13.0718 9.53027 13.2231 9.45801 13.356C9.3877 13.4888 9.30566 13.6011 9.21191 13.6929C9.34863 13.7866 9.45703 13.9058 9.53711 14.0503C9.61719 14.1948 9.65723 14.3618 9.65723 14.5513C9.65723 14.7993 9.59375 15.02 9.4668 15.2134C9.33984 15.4048 9.17285 15.5552 8.96582 15.6646C8.75879 15.7739 8.53418 15.8286 8.29199 15.8286C8.03027 15.8286 7.79688 15.7661 7.5918 15.6411C7.38672 15.5161 7.22461 15.3716 7.10547 15.2075C7.06836 15.1548 7.0498 15.0972 7.0498 15.0347C7.0498 14.9546 7.08105 14.8901 7.14355 14.8413C7.20801 14.7925 7.2793 14.7681 7.35742 14.7681C7.44922 14.7681 7.52441 14.8071 7.58301 14.8853C7.65137 14.9731 7.74707 15.0542 7.87012 15.1284C7.99316 15.2026 8.12793 15.2397 8.27441 15.2397C8.41895 15.2397 8.55078 15.2095 8.66992 15.1489C8.79102 15.0884 8.8877 15.0073 8.95996 14.9058C9.03418 14.8022 9.07129 14.688 9.07129 14.563C9.07129 14.3657 9.00488 14.231 8.87207 14.1587C8.73926 14.0845 8.55078 14.0464 8.30664 14.0444C8.23047 14.0444 8.16406 14.0171 8.10742 13.9624C8.05273 13.9077 8.02539 13.8384 8.02539 13.7544C8.02539 13.647 8.06152 13.5688 8.13379 13.52C8.20605 13.4692 8.28027 13.4438 8.35645 13.4438C8.53613 13.4438 8.68457 13.3989 8.80176 13.3091C8.91895 13.2173 8.97754 13.0737 8.97754 12.8784Z" fill="white"/>
</g>
<defs>
<clipPath id="clip0_389_2498">
<rect width="16" height="16" fill="white"/>
</clipPath>
</defs>
</svg>
