<svg width="16" height="16" viewBox="0 0 16 16" fill="none" xmlns="http://www.w3.org/2000/svg">
<path fill-rule="evenodd" clip-rule="evenodd" d="M5.83206 1C6.55568 1 7.14456 1.58888 7.14456 2.3125V13.6875C7.14456 14.4111 6.55568 15 5.83206 15L3.10244 15C2.37881 15 1.78994 14.4111 1.78994 13.6875V2.3125C1.78994 1.58888 2.37881 1 3.10244 1H5.83206ZM2.76956 9.75H6.26956V6.25H2.76956V9.75ZM6.26956 13.6875V10.625H2.76956C2.76956 10.625 2.76956 13.3278 2.76956 13.6875C2.76956 14.0472 3.0287 14.125 3.21915 14.125C3.40961 14.125 5.83206 14.125 5.83206 14.125C6.07268 14.125 6.26956 13.9281 6.26956 13.6875Z" fill="#E4E4E4"/>
<path d="M9.52881 11.9922V10.8847H11.3523V4.63506H9.52881V3.64386H14.5856V4.63506H12.8161V10.8847H14.5856V11.9922H9.52881Z" fill="#E4E4E4"/>
</svg>
