<svg width="16" height="16" viewBox="0 0 16 16" fill="none" xmlns="http://www.w3.org/2000/svg">
<path d="M2.54443 3.43567C2.54443 2.88338 2.99215 2.43567 3.54443 2.43567H12.4552C13.0075 2.43567 13.4552 2.88338 13.4552 3.43567V12.7389C13.4552 13.2912 13.0075 13.7389 12.4552 13.7389H3.54443C2.99215 13.7389 2.54443 13.2912 2.54443 12.7389V3.43567Z" fill="#FFF0C8"/>
<path d="M9.98983 7.38324L13.2494 12.838H6.74707L9.98983 7.38324Z" fill="#28EA3C"/>
<path d="M6.5469 5.05731L10.0132 13.0371H3.08057L6.5469 5.05731Z" fill="#4D9F55"/>
<path d="M10.0132 5.7225C10.0132 6.18459 9.63863 6.55919 9.17654 6.55919C8.71444 6.55919 8.33984 6.18459 8.33984 5.7225C8.33984 5.2604 8.71444 4.8858 9.17654 4.8858C9.63863 4.8858 10.0132 5.2604 10.0132 5.7225Z" fill="#CD3D3C"/>
<path fill-rule="evenodd" clip-rule="evenodd" d="M12.4552 3.43567L3.54443 3.43567V12.7389L12.4552 12.7389V3.43567ZM3.54443 2.43567C2.99215 2.43567 2.54443 2.88338 2.54443 3.43567V12.7389C2.54443 13.2912 2.99215 13.7389 3.54443 13.7389H12.4552C13.0075 13.7389 13.4552 13.2912 13.4552 12.7389V3.43567C13.4552 2.88338 13.0075 2.43567 12.4552 2.43567H3.54443Z" fill="#FFD155"/>
<path fill-rule="evenodd" clip-rule="evenodd" d="M12.4552 2.47249H3.54443C3.15783 2.47249 2.84443 2.78589 2.84443 3.17249V12.8275C2.84443 13.2141 3.15783 13.5275 3.54443 13.5275H12.4552C12.8418 13.5275 13.1552 13.2141 13.1552 12.8275V3.17249C13.1552 2.78589 12.8418 2.47249 12.4552 2.47249ZM3.54443 2.17249C2.99215 2.17249 2.54443 2.6202 2.54443 3.17249V12.8275C2.54443 13.3798 2.99215 13.8275 3.54443 13.8275H12.4552C13.0075 13.8275 13.4552 13.3798 13.4552 12.8275V3.17249C13.4552 2.6202 13.0075 2.17249 12.4552 2.17249H3.54443Z" fill="#EAB62A"/>
</svg>
