<svg width="16" height="16" viewBox="0 0 16 16" fill="none" xmlns="http://www.w3.org/2000/svg">
<path d="M4.01221 6.13464C4.01221 5.58236 4.45992 5.13464 5.01221 5.13464H14.0855C14.6378 5.13464 15.0855 5.58236 15.0855 6.13464V13.2315C15.0855 13.7838 14.6378 14.2315 14.0855 14.2315H5.01221C4.45992 14.2315 4.01221 13.7838 4.01221 13.2315V6.13464Z" fill="#CD3D3C"/>
<path fill-rule="evenodd" clip-rule="evenodd" d="M14.0855 5.53464H5.01221C4.68084 5.53464 4.41221 5.80327 4.41221 6.13464V13.2315C4.41221 13.5629 4.68084 13.8315 5.01221 13.8315H14.0855C14.4169 13.8315 14.6855 13.5629 14.6855 13.2315V6.13464C14.6855 5.80327 14.4169 5.53464 14.0855 5.53464ZM5.01221 5.13464C4.45992 5.13464 4.01221 5.58236 4.01221 6.13464V13.2315C4.01221 13.7838 4.45992 14.2315 5.01221 14.2315H14.0855C14.6378 14.2315 15.0855 13.7838 15.0855 13.2315V6.13464C15.0855 5.58236 14.6378 5.13464 14.0855 5.13464H5.01221Z" fill="#554646"/>
<path d="M0.914551 2.76843C0.914551 2.21615 1.36227 1.76843 1.91455 1.76843H9.38533C9.93761 1.76843 10.3853 2.21615 10.3853 2.76843V7.50082C10.3853 8.05311 9.93761 8.50082 9.38533 8.50082H1.91455C1.36227 8.50082 0.914551 8.0531 0.914551 7.50082V2.76843Z" fill="#F3F3F3"/>
<path fill-rule="evenodd" clip-rule="evenodd" d="M9.38533 2.16843H1.91455C1.58318 2.16843 1.31455 2.43706 1.31455 2.76843V7.50082C1.31455 7.83219 1.58318 8.10082 1.91455 8.10082H9.38533C9.7167 8.10082 9.98533 7.83219 9.98533 7.50082V2.76843C9.98533 2.43706 9.7167 2.16843 9.38533 2.16843ZM1.91455 1.76843C1.36227 1.76843 0.914551 2.21615 0.914551 2.76843V7.50082C0.914551 8.0531 1.36227 8.50082 1.91455 8.50082H9.38533C9.93762 8.50082 10.3853 8.05311 10.3853 7.50082V2.76843C10.3853 2.21615 9.93761 1.76843 9.38533 1.76843H1.91455Z" fill="#AF8C8C"/>
</svg>
