<svg width="17" height="16" viewBox="0 0 17 16" fill="none" xmlns="http://www.w3.org/2000/svg">
<path fill-rule="evenodd" clip-rule="evenodd" d="M1.3335 1.33337C1.3335 1.05723 1.55735 0.833374 1.8335 0.833374H3.83243C4.10857 0.833374 4.33243 1.05723 4.33243 1.33337V3.33231C4.33243 3.60845 4.10857 3.83231 3.83243 3.83231H1.8335C1.55735 3.83231 1.3335 3.60845 1.3335 3.33231V1.33337ZM2.3335 1.83337V2.83231H3.33243V1.83337H2.3335Z" fill="#554646"/>
<path fill-rule="evenodd" clip-rule="evenodd" d="M3.33252 2.33398C3.33252 2.05784 3.55638 1.83398 3.83252 1.83398H13.166C13.4421 1.83398 13.666 2.05784 13.666 2.33398C13.666 2.61013 13.4421 2.83398 13.166 2.83398H3.83252C3.55638 2.83398 3.33252 2.61013 3.33252 2.33398Z" fill="#554646"/>
<path fill-rule="evenodd" clip-rule="evenodd" d="M2.8335 2.8324C3.10964 2.8324 3.3335 3.05626 3.3335 3.3324V12.667C3.3335 12.9432 3.10964 13.167 2.8335 13.167C2.55735 13.167 2.3335 12.9432 2.3335 12.667V3.3324C2.3335 3.05626 2.55735 2.8324 2.8335 2.8324Z" fill="#554646"/>
<path fill-rule="evenodd" clip-rule="evenodd" d="M14.165 2.83337C14.4412 2.83337 14.665 3.05723 14.665 3.33337V12.668C14.665 12.9442 14.4412 13.168 14.165 13.168C13.8889 13.168 13.665 12.9442 13.665 12.668V3.33337C13.665 3.05723 13.8889 2.83337 14.165 2.83337Z" fill="#554646"/>
<path fill-rule="evenodd" clip-rule="evenodd" d="M3.33252 13.6674C3.33252 13.3912 3.55638 13.1674 3.83252 13.1674H13.166C13.4421 13.1674 13.666 13.3912 13.666 13.6674C13.666 13.9435 13.4421 14.1674 13.166 14.1674H3.83252C3.55638 14.1674 3.33252 13.9435 3.33252 13.6674Z" fill="#554646"/>
<path fill-rule="evenodd" clip-rule="evenodd" d="M1.3335 12.6666C1.3335 12.3905 1.55735 12.1666 1.8335 12.1666H3.83243C4.10857 12.1666 4.33243 12.3905 4.33243 12.6666V14.6656C4.33243 14.9417 4.10857 15.1656 3.83243 15.1656H1.8335C1.55735 15.1656 1.3335 14.9417 1.3335 14.6656V12.6666ZM2.3335 13.1666V14.1656H3.33243V13.1666H2.3335Z" fill="#554646"/>
<path fill-rule="evenodd" clip-rule="evenodd" d="M12.666 1.33459C12.666 1.05845 12.8899 0.834595 13.166 0.834595H15.1649C15.4411 0.834595 15.6649 1.05845 15.6649 1.33459V3.33353C15.6649 3.60967 15.4411 3.83353 15.1649 3.83353H13.166C12.8899 3.83353 12.666 3.60967 12.666 3.33353V1.33459ZM13.666 1.83459V2.83353H14.6649V1.83459H13.666Z" fill="#554646"/>
<path fill-rule="evenodd" clip-rule="evenodd" d="M12.666 12.668C12.666 12.3918 12.8899 12.168 13.166 12.168H15.1649C15.4411 12.168 15.6649 12.3918 15.6649 12.668V14.6669C15.6649 14.943 15.4411 15.1669 15.1649 15.1669H13.166C12.8899 15.1669 12.666 14.943 12.666 14.6669V12.668ZM13.666 13.168V14.1669H14.6649V13.168H13.666Z" fill="#554646"/>
<path fill-rule="evenodd" clip-rule="evenodd" d="M7.79072 9.54682C7.89936 9.8003 8.26369 9.78524 8.35103 9.52365L8.59213 8.80151L10.1443 10.3547C10.3395 10.55 10.6561 10.5502 10.8514 10.355C11.0467 10.1598 11.0468 9.84318 10.8516 9.64785L9.29912 8.09429L10.0192 7.85435C10.281 7.76714 10.2962 7.40266 10.0426 7.29399L6.79067 5.90029C6.54175 5.79361 6.29007 6.04529 6.39675 6.29421L7.79072 9.54682Z" fill="#28EA3C"/>
<path fill-rule="evenodd" clip-rule="evenodd" d="M6.77083 5.94635C6.5634 5.85745 6.35367 6.06718 6.44256 6.27461L7.83654 9.52722C7.92707 9.73846 8.23068 9.72591 8.30346 9.50792L8.54456 8.78578C8.55005 8.76935 8.56366 8.75692 8.58052 8.75295C8.59739 8.74897 8.61511 8.75402 8.62736 8.76627L10.1795 10.3195C10.3552 10.4953 10.6401 10.4954 10.8159 10.3197C10.9917 10.144 10.9918 9.85909 10.8161 9.6833L9.26361 8.12973C9.25136 8.11748 9.24633 8.09975 9.25032 8.08289C9.2543 8.06603 9.26674 8.05243 9.28317 8.04695L10.0033 7.80702C10.2214 7.73435 10.2341 7.43061 10.0228 7.34005L6.77083 5.94635ZM6.35065 6.31401C6.22619 6.0236 6.51982 5.72998 6.81022 5.85444L10.0621 7.24814C10.358 7.37492 10.3403 7.80015 10.0349 7.90189L9.39152 8.11626L10.8869 9.61261C11.1016 9.82747 11.1015 10.1757 10.8866 10.3904C10.6718 10.6051 10.3235 10.605 10.1088 10.3902L8.6138 8.89417L8.39831 9.53959C8.29642 9.84477 7.87137 9.86235 7.74463 9.56662L6.35065 6.31401Z" fill="black"/>
</svg>
