<svg width="17" height="17" viewBox="0 0 17 17" fill="none" xmlns="http://www.w3.org/2000/svg">
<path d="M14.4387 13.4303C13.9917 12.9591 14.1907 12.6522 14.1907 12.6522C14.0831 12.5242 13.938 12.6673 13.7174 12.8849L13.654 12.9473L13.6541 12.974C13.6538 13.0431 13.6536 13.0676 13.665 13.0845C13.6712 13.0937 13.6809 13.1006 13.6959 13.1114C13.7382 13.1416 13.8229 13.2021 13.9917 13.4303C14.2205 13.4313 14.4387 13.4303 14.4387 13.4303Z" fill="#4B4949"/>
<path d="M12.6805 6.82174C12.5853 6.82261 12.4936 6.78364 12.4257 6.71338C12.3577 6.64313 12.3189 6.54733 12.3178 6.44697C12.3178 6.24021 12.4813 6.07328 12.6815 6.07328C12.8817 6.07328 13.0452 6.24021 13.0452 6.44697C13.0452 6.65482 12.8817 6.82174 12.6815 6.82174H12.6805Z" fill="#4B4949"/>
<path fill-rule="evenodd" clip-rule="evenodd" d="M12.183 4.39651C12.6171 4.23713 12.9512 4.05621 13.1596 3.87636C13.3026 3.75359 13.3476 3.67282 13.3476 3.64051C13.3476 3.60821 13.3026 3.52744 13.1596 3.40359C12.9512 3.22482 12.6182 3.0439 12.183 2.88451C11.2308 2.53667 9.91292 2.33313 8.50002 2.33313C7.08712 2.33313 5.76923 2.53774 4.81709 2.88451C4.3829 3.0439 4.04883 3.22482 3.84042 3.40467C3.69739 3.52744 3.65244 3.60713 3.65244 3.64051C3.65244 3.67282 3.69739 3.75359 3.84042 3.87744C4.04883 4.05621 4.38188 4.23713 4.81709 4.39651C5.76923 4.74436 7.08712 4.9479 8.50002 4.9479C9.91292 4.9479 11.2308 4.74328 12.183 4.39651ZM3.34085 9.91897V8.02251C4.10517 8.60801 5.41746 9.09844 6.9584 9.28682C9.44808 9.59374 11.9102 9.1382 13.6592 8.05374L13.6531 9.99221C12.0113 11.165 9.59315 11.753 7.0391 11.4396C5.29725 11.2253 3.87107 10.5081 3.34085 9.91897ZM3.34085 6.8379C3.87209 7.4259 5.29725 8.14313 7.0391 8.35636C9.59826 8.67082 12.0215 8.08067 13.6633 6.90251L13.6704 4.75297C12.6253 5.39913 10.7016 5.83205 8.50002 5.83205C6.30763 5.83205 4.39005 5.40128 3.34391 4.76051C3.34254 5.45261 3.34152 6.14472 3.34085 6.83682V6.8379ZM3.34682 12.6364L3.34289 11.1057C4.10721 11.6912 5.41951 12.1806 6.9584 12.3701C9.44297 12.6748 11.901 12.2204 13.648 11.1424L13.654 12.9473C13.6163 12.9841 13.5765 13.0225 13.5346 13.0614C13.4105 13.1767 13.3277 13.2399 13.2223 13.3203L13.1637 13.3651C12.9594 13.5224 12.751 13.643 12.4772 13.7862C11.5015 14.2945 10.2327 14.553 8.61342 14.553C5.68501 14.553 3.70425 13.7035 3.34682 12.6364ZM14.4387 13.4303C14.4387 13.4303 14.2205 13.4313 13.9917 13.4303C13.8229 13.2021 13.7382 13.1416 13.6959 13.1114C13.6809 13.1006 13.6712 13.0937 13.665 13.0845C13.6536 13.0676 13.6538 13.0431 13.6541 12.974L13.654 12.9473L13.7174 12.8849C13.938 12.6673 14.0831 12.5242 14.1907 12.6522C14.1907 12.6522 13.9917 12.9591 14.4387 13.4303ZM14.4387 13.4303C14.4387 13.4303 13.8135 13.8928 13.6541 14.0156C13.416 14.1987 13.1453 14.3893 12.8327 14.553C11.7559 15.1141 10.6587 15.449 8.61342 15.449C5.20632 15.449 2.95365 14.3128 2.52253 12.8105L2.50721 12.7567V12.7007L2.50108 10.4273C2.49864 8.19087 2.50034 5.95446 2.50619 3.71805C2.5036 3.69229 2.50223 3.66641 2.5021 3.64051C2.50312 2.43005 5.18793 1.44897 8.50002 1.44897C11.8121 1.44897 14.4969 2.43005 14.4969 3.64051C14.4972 3.6878 14.4935 3.73502 14.4857 3.78159C14.4955 3.81543 14.5003 3.85066 14.5 3.88605L14.4387 13.4303Z" fill="#4B4949"/>
<path d="M12.6805 9.90497C12.5853 9.90584 12.4936 9.86687 12.4257 9.79661C12.3577 9.72636 12.3189 9.63056 12.3178 9.5302C12.3178 9.32344 12.4813 9.15544 12.6815 9.15544C12.8817 9.15544 13.0452 9.32344 13.0452 9.5302C13.0452 9.73697 12.8817 9.90497 12.6815 9.90497H12.6805Z" fill="#4B4949"/>
<path d="M12.6805 13.0281C12.6333 13.0285 12.5864 13.0191 12.5426 13.0004C12.4988 12.9818 12.459 12.9542 12.4253 12.9193C12.3916 12.8844 12.3648 12.8429 12.3463 12.797C12.3279 12.7512 12.3182 12.702 12.3178 12.6522C12.3178 12.4454 12.4813 12.2774 12.6815 12.2774C12.8817 12.2774 13.0452 12.4454 13.0452 12.6522C13.0452 12.859 12.8817 13.027 12.6815 13.027L12.6805 13.0281Z" fill="#4B4949"/>
</svg>
