<svg width="17" height="16" viewBox="0 0 17 16" fill="none" xmlns="http://www.w3.org/2000/svg">
<g clip-path="url(#clip0_312_2750)">
<path d="M0.825684 6.68021H1.8023V5.82568C1.8023 5.09322 1.95041 4.54469 2.24665 4.18009C2.54615 3.81223 2.95958 3.6283 3.48695 3.6283C3.67902 3.6283 3.86783 3.65923 4.05339 3.72108C4.23894 3.77968 4.40822 3.86269 4.56122 3.97011L4.34149 4.7514C4.21778 4.66025 4.07943 4.58864 3.92643 4.53655C3.77668 4.48446 3.63019 4.45842 3.48695 4.45842C3.23303 4.45842 3.03934 4.54957 2.90587 4.73187C2.7724 4.91417 2.70566 5.21367 2.70566 5.63035V6.68021H4.02409V7.38826H2.70566V9.12662C2.70566 9.36427 2.70729 9.60028 2.71054 9.83467C2.71705 10.0658 2.72519 10.2872 2.73496 10.4988C2.74798 10.7071 2.76426 10.9008 2.78379 11.0798C2.80332 11.2589 2.82611 11.4119 2.85215 11.5389H1.8023V7.38826H0.825684V6.68021Z" fill="black"/>
<path d="M6.62539 8.48694C6.62539 7.95306 6.67585 7.44034 6.77676 6.94878C6.88094 6.45396 7.0258 5.99333 7.21136 5.56687C7.40017 5.14042 7.62642 4.75466 7.8901 4.40959C8.15704 4.06452 8.45165 3.77154 8.77393 3.53064L9.14016 4.28751C8.85369 4.53818 8.60954 4.81651 8.40771 5.12252C8.20587 5.42527 8.04148 5.75406 7.91452 6.10889C7.78756 6.46373 7.69478 6.83973 7.63618 7.23688C7.58084 7.63404 7.55317 8.05072 7.55317 8.48694C7.55317 8.91014 7.58084 9.31706 7.63618 9.70771C7.69478 10.0951 7.78756 10.4678 7.91452 10.8259C8.04148 11.184 8.20587 11.5291 8.40771 11.8611C8.60954 12.1964 8.85369 12.5203 9.14016 12.8329L8.67627 13.5409C8.00567 12.8443 7.4962 12.076 7.14788 11.2361C6.79955 10.3962 6.62539 9.47983 6.62539 8.48694Z" fill="black"/>
<path d="M11.3562 9.13548L10.0817 10.9715H8.98299C9.11646 10.7957 9.22877 10.6492 9.31992 10.532C9.41107 10.4116 9.49083 10.3042 9.55919 10.2097C9.63081 10.1153 9.69592 10.0258 9.75452 9.94118C9.81637 9.85654 9.88473 9.76051 9.95961 9.65308L10.8288 8.39325L10.0573 7.30921C9.97588 7.19527 9.90101 7.09273 9.83265 7.00158C9.76428 6.91043 9.69266 6.81765 9.61779 6.72324C9.54292 6.62884 9.45828 6.52467 9.36387 6.41073C9.27272 6.29354 9.16204 6.15355 9.03182 5.99079H10.1549L11.4245 7.75357L12.6209 5.99079H13.7196C13.5926 6.15355 13.4852 6.29354 13.3973 6.41073C13.3094 6.52467 13.2296 6.63047 13.158 6.72813C13.0864 6.82253 13.018 6.91531 12.9529 7.00646C12.8911 7.09761 12.8211 7.19853 12.7429 7.30921L11.947 8.48114L12.7918 9.65308C12.8797 9.77678 12.9562 9.88258 13.0213 9.97048C13.0864 10.0551 13.1548 10.143 13.2264 10.2342C13.298 10.3253 13.3761 10.4279 13.4608 10.5418C13.5487 10.6557 13.6593 10.799 13.7928 10.9715H12.6697L11.3562 9.13548Z" fill="black"/>
<path d="M16.1741 8.48694C16.1741 9.47983 15.9999 10.3962 15.6516 11.2361C15.3033 12.076 14.7938 12.8443 14.1232 13.5409L13.6593 12.8329C13.9328 12.5203 14.1688 12.1964 14.3674 11.8611C14.5692 11.5291 14.7352 11.184 14.8655 10.8259C14.9957 10.4678 15.0917 10.0951 15.1536 9.70771C15.2154 9.31706 15.2463 8.91014 15.2463 8.48694C15.2463 8.07677 15.2154 7.67473 15.1536 7.28083C15.0917 6.88367 14.9957 6.50605 14.8655 6.14796C14.7352 5.78661 14.5692 5.44968 14.3674 5.13717C14.1688 4.82139 13.9328 4.53818 13.6593 4.28751L14.0256 3.53064C14.3478 3.77154 14.6408 4.06452 14.9045 4.40959C15.1715 4.75466 15.3977 5.14042 15.5833 5.56687C15.7721 5.99333 15.9169 6.45396 16.0179 6.94878C16.122 7.44034 16.1741 7.95306 16.1741 8.48694Z" fill="black"/>
</g>
<defs>
<clipPath id="clip0_312_2750">
<rect width="16" height="16" fill="white" transform="translate(0.5)"/>
</clipPath>
</defs>
</svg>
