<svg width="17" height="17" viewBox="0 0 17 17" fill="none" xmlns="http://www.w3.org/2000/svg">
<g clip-path="url(#clip0_358_1352)">
<path fill-rule="evenodd" clip-rule="evenodd" d="M4.89063 0.448975C5.71763 0.448975 6.39062 1.12197 6.39062 1.94897V14.949C6.39062 15.776 5.71763 16.449 4.89063 16.449H-8.10937C-8.93637 16.449 -9.60938 15.776 -9.60938 14.949V1.94897C-9.60938 1.12197 -8.93637 0.448975 -8.10937 0.448975H4.89063ZM1.39063 10.449H5.39063V6.44898H1.39063V10.449ZM5.39063 14.949V11.449H1.39063V15.449H4.89063C5.16563 15.449 5.39063 15.224 5.39063 14.949ZM-3.60937 10.449H0.390626V6.44898H-3.60937V10.449ZM-3.60937 15.449H0.390626V11.449H-3.60937V15.449ZM-8.60938 10.449H-4.60937V6.44898H-8.60938V10.449ZM-4.60937 15.449V11.449H-8.60938V14.949C-8.60938 15.224 -8.38437 15.449 -8.10937 15.449H-4.60937Z" fill="#4B4949"/>
<path d="M14.4086 8.02752C14.3395 7.80346 14.244 7.60291 14.1223 7.42587C14.0034 7.24607 13.8595 7.09254 13.6908 6.9653C13.5248 6.83805 13.3339 6.74262 13.1182 6.679C12.9024 6.61261 12.6673 6.57941 12.4128 6.57941C11.9564 6.57941 11.5497 6.69421 11.1929 6.9238C10.8361 7.1534 10.5553 7.49088 10.3506 7.93624C10.1487 8.37883 10.0477 8.91824 10.0477 9.55447C10.0477 10.1962 10.1487 10.7398 10.3506 11.1851C10.5525 11.6305 10.8333 11.9694 11.1929 12.2017C11.5525 12.4313 11.9702 12.5461 12.446 12.5461C12.8775 12.5461 13.251 12.4631 13.5663 12.2972C13.8844 12.1312 13.9551 12.0895 14.2302 11.7992C14.4017 11.4922 14.4875 11.1326 14.4875 10.7204L14.836 10.7744H12.936V9.57106H15.9771V10.5918C15.9771 11.3193 15.8927 11.7411 15.5829 12.2723C15.2731 12.8034 14.8471 13.2128 14.3049 13.5005C13.7627 13.7854 13.1403 13.9278 12.4377 13.9278C11.6549 13.9278 10.9675 13.7522 10.3755 13.4009C9.78629 13.0468 9.32571 12.5447 8.99377 11.8947C8.66459 11.2419 8.5 10.4673 8.5 9.57106C8.5 8.88504 8.59682 8.27233 8.79045 7.73292C8.98685 7.19351 9.26071 6.7357 9.61201 6.3595C9.96332 5.98053 10.3755 5.69284 10.8485 5.49644C11.3215 5.29728 11.836 5.19769 12.3921 5.19769C12.8623 5.19769 13.3007 5.26685 13.7074 5.40516C14.114 5.5407 14.475 5.73434 14.7903 5.98606C15.1085 6.23779 15.3699 6.53654 15.5746 6.88231C15.7793 7.22809 15.9134 7.60982 15.9771 8.02752H14.4086Z" fill="#4B4949"/>
</g>
<defs>
<clipPath id="clip0_358_1352">
<rect width="16" height="16" fill="white" transform="translate(0.5 0.448975)"/>
</clipPath>
</defs>
</svg>
