<svg width="16" height="16" viewBox="0 0 16 16" fill="none" xmlns="http://www.w3.org/2000/svg">
<path fill-rule="evenodd" clip-rule="evenodd" d="M5.76553 1.55739C5.44068 1.51391 5.11365 1.59622 4.82838 1.87194L4.80837 1.89163L3.65008 3.02359C3.51794 3.15274 3.30612 3.1503 3.17697 3.01815C3.04783 2.886 3.05026 2.67418 3.18241 2.54504L4.33987 1.41389L4.36007 1.39401L4.362 1.39213C4.80424 0.963917 5.33987 0.825327 5.85429 0.894175C6.35842 0.961646 6.83102 1.22527 7.19058 1.58209C7.5502 1.93896 7.8184 2.4106 7.88548 2.9201C7.95398 3.44041 7.80898 3.98219 7.37244 4.43935C6.4955 5.35771 6.24261 5.60249 5.8316 6.0003C5.55594 6.26711 5.20915 6.60277 4.55523 7.25669C4.07691 7.73501 3.51497 7.91961 2.9711 7.8751C2.43682 7.83138 1.94529 7.56932 1.5801 7.20021C1.21491 6.83111 0.957873 6.33667 0.915337 5.80338C0.872059 5.2608 1.05342 4.70032 1.52614 4.2276C1.6568 4.09695 1.86863 4.09695 1.99929 4.2276C2.12994 4.35826 2.12994 4.57009 1.99929 4.70075C1.66364 5.03639 1.55482 5.40509 1.58235 5.75018C1.61061 6.10457 1.78537 6.45631 2.05576 6.7296C2.32614 7.00288 2.67399 7.17942 3.02568 7.2082C3.36779 7.2362 3.73842 7.1272 4.08208 6.78355C4.75399 6.11164 5.10198 5.77501 5.37541 5.5105C5.77712 5.12191 6.0179 4.88898 6.88851 3.97725C7.18067 3.67129 7.26498 3.33337 7.22207 3.00743C7.17774 2.67068 6.99382 2.32951 6.71926 2.05705C6.44465 1.78453 6.10101 1.60229 5.76553 1.55739Z" fill="#525252"/>
<path fill-rule="evenodd" clip-rule="evenodd" d="M6.17617 1.92934C5.85132 1.88586 5.5243 1.96817 5.23903 2.24389L5.21902 2.26358L4.06073 3.39554C3.92858 3.52469 3.71676 3.52225 3.58762 3.3901C3.45847 3.25795 3.46091 3.04613 3.59305 2.91699L4.75051 1.78584L4.77071 1.76596L4.77265 1.76407C5.21488 1.33586 5.75051 1.19727 6.26493 1.26612C6.76907 1.33359 7.24166 1.59722 7.60123 1.95404C7.96084 2.31091 8.22905 2.78255 8.29612 3.29204C8.36462 3.81236 8.21963 4.35414 7.78309 4.8113C6.90615 5.72966 6.65325 5.97444 6.24225 6.37225C5.96658 6.63906 5.61979 6.97472 4.96587 7.62864C4.48755 8.10696 3.92561 8.29155 3.38175 8.24705C2.84747 8.20332 2.35594 7.94127 1.99074 7.57216C1.62555 7.20306 1.36852 6.70862 1.32598 6.17533C1.2827 5.63274 1.46407 5.07227 1.93679 4.59955C2.06744 4.4689 2.27928 4.4689 2.40993 4.59955C2.54059 4.73021 2.54059 4.94204 2.40993 5.0727C2.07429 5.40834 1.96547 5.77704 1.99299 6.12213C2.02126 6.47651 2.19601 6.82826 2.4664 7.10154C2.73679 7.37483 3.08463 7.55137 3.43632 7.58015C3.77843 7.60814 4.14907 7.49915 4.49273 7.15549C5.16463 6.48359 5.51262 6.14696 5.78605 5.88245C6.18776 5.49385 6.42854 5.26093 7.29915 4.34919C7.59131 4.04324 7.67563 3.70532 7.63272 3.37938C7.58838 3.04262 7.40446 2.70146 7.1299 2.42899C6.85529 2.15648 6.51165 1.97424 6.17617 1.92934Z" fill="#AEAEAE"/>
<path fill-rule="evenodd" clip-rule="evenodd" d="M1.31514 2.27959C1.43692 2.15541 1.63631 2.15347 1.76048 2.27526L7.11733 7.52896C7.24151 7.65075 7.24344 7.85014 7.12166 7.97431C6.99988 8.09849 6.80049 8.10042 6.67631 7.97864L1.31946 2.72493C1.19529 2.60315 1.19335 2.40376 1.31514 2.27959Z" fill="black"/>
<path fill-rule="evenodd" clip-rule="evenodd" d="M12.3881 8.32869C12.0632 8.28521 11.7362 8.36752 11.4509 8.64324L11.4309 8.66294L10.2726 9.79489C10.1405 9.92404 9.92867 9.9216 9.79953 9.78945C9.67038 9.65731 9.67282 9.44549 9.80497 9.31634L10.9624 8.18519L10.9826 8.16532L10.9846 8.16343C11.4268 7.73522 11.9624 7.59663 12.4768 7.66548C12.981 7.73295 13.4536 7.99657 13.8131 8.35339C14.1728 8.71026 14.441 9.1819 14.508 9.6914C14.5765 10.2117 14.4315 10.7535 13.995 11.2107C13.1181 12.129 12.8652 12.3738 12.4542 12.7716C12.1785 13.0384 11.8317 13.3741 11.1778 14.028C10.6995 14.5063 10.1375 14.6909 9.59366 14.6464C9.05938 14.6027 8.56785 14.3406 8.20266 13.9715C7.83746 13.6024 7.58043 13.108 7.5379 12.5747C7.49462 12.0321 7.67598 11.4716 8.1487 10.9989C8.27936 10.8683 8.49119 10.8683 8.62184 10.9989C8.7525 11.1296 8.7525 11.3414 8.62184 11.4721C8.2862 11.8077 8.17738 12.1764 8.2049 12.5215C8.23317 12.8759 8.40793 13.2276 8.67832 13.5009C8.9487 13.7742 9.29655 13.9507 9.64824 13.9795C9.99035 14.0075 10.361 13.8985 10.7046 13.5548C11.3765 12.8829 11.7245 12.5463 11.998 12.2818C12.3997 11.8932 12.6405 11.6603 13.5111 10.7485C13.8032 10.4426 13.8875 10.1047 13.8446 9.77873C13.8003 9.44198 13.6164 9.10081 13.3418 8.82835C13.0672 8.55583 12.7236 8.37359 12.3881 8.32869Z" fill="#525252"/>
<path fill-rule="evenodd" clip-rule="evenodd" d="M12.7924 8.53871C12.4675 8.49524 12.1405 8.57755 11.8552 8.85327L11.8352 8.87296L10.6769 10.0049C10.5448 10.1341 10.333 10.1316 10.2038 9.99948C10.0747 9.86733 10.0771 9.65551 10.2093 9.52636L11.3667 8.39522L11.3869 8.37534L11.3889 8.37345C11.8311 7.94524 12.3667 7.80665 12.8811 7.8755C13.3853 7.94297 13.8579 8.20659 14.2174 8.56341C14.5771 8.92028 14.8453 9.39192 14.9123 9.90142C14.9808 10.4217 14.8358 10.9635 14.3993 11.4207C13.5224 12.339 13.2695 12.5838 12.8585 12.9816C12.5828 13.2484 12.236 13.5841 11.5821 14.238C11.1038 14.7163 10.5418 14.9009 9.99796 14.8564C9.46368 14.8127 8.97215 14.5506 8.60695 14.1815C8.24176 13.8124 7.98473 13.318 7.94219 12.7847C7.89891 12.2421 8.08028 11.6816 8.553 11.2089C8.68365 11.0783 8.89549 11.0783 9.02614 11.2089C9.1568 11.3396 9.1568 11.5514 9.02614 11.6821C8.6905 12.0177 8.58168 12.3864 8.6092 12.7315C8.63747 13.0859 8.81222 13.4376 9.08261 13.7109C9.353 13.9842 9.70084 14.1607 10.0525 14.1895C10.3946 14.2175 10.7653 14.1085 11.1089 13.7649C11.7808 13.093 12.1288 12.7563 12.4023 12.4918C12.804 12.1032 13.0448 11.8703 13.9154 10.9586C14.2075 10.6526 14.2918 10.3147 14.2489 9.98876C14.2046 9.652 14.0207 9.31083 13.7461 9.03837C13.4715 8.76586 13.1279 8.58361 12.7924 8.53871Z" fill="#AEAEAE"/>
<path fill-rule="evenodd" clip-rule="evenodd" d="M7.93135 8.88896C8.05313 8.76479 8.25252 8.76285 8.37669 8.88463L13.7335 14.1383C13.8577 14.2601 13.8597 14.4595 13.7379 14.5837C13.6161 14.7079 13.4167 14.7098 13.2925 14.588L7.93568 9.33431C7.8115 9.21253 7.80956 9.01314 7.93135 8.88896Z" fill="black"/>
</svg>
