<svg width="16" height="16" viewBox="0 0 16 16" fill="none" xmlns="http://www.w3.org/2000/svg">
<g clip-path="url(#clip0_312_1225)">
<path d="M13.9944 3.91435C13.9974 3.9171 13.9992 3.921 13.9992 3.9251V14C13.9992 14.5523 13.5514 15 12.9992 15H3C2.44772 15 2 14.5523 2 14V2C2 1.44772 2.44772 1 3 1H10.409C10.6582 1 10.8984 1.09303 11.0826 1.26087L13.9944 3.91435V3.91435Z" fill="#FC7B24"/>
<path d="M7.98272 9.75208H4.40889C4.15286 9.75208 3.94531 9.95963 3.94531 10.2157C3.94531 10.4717 4.15286 10.6792 4.40889 10.6792H7.98272C8.23875 10.6792 8.4463 10.4717 8.4463 10.2157C8.4463 9.95963 8.23874 9.75208 7.98272 9.75208Z" fill="white"/>
<path d="M7.95147 6.00012H4.37764C4.12161 6.00012 3.91406 6.20767 3.91406 6.4637C3.91406 6.71973 4.12161 6.92728 4.37764 6.92728H7.95147C8.2075 6.92728 8.41505 6.71973 8.41505 6.4637C8.41505 6.20767 8.20749 6.00012 7.95147 6.00012Z" fill="white"/>
<path d="M11.6341 7.88489H4.37764C4.12161 7.88489 3.91406 8.09244 3.91406 8.34846C3.91406 8.60449 4.12161 8.81204 4.37764 8.81204H11.6341C11.8901 8.81204 12.0977 8.60449 12.0977 8.34846C12.0977 8.09244 11.8901 7.88489 11.6341 7.88489Z" fill="white"/>
<path d="M8.41431 6.72012V6.20728C8.41431 6.09287 8.32156 6.00012 8.20715 6.00012C8.09275 6.00012 8 6.09287 8 6.20728V6.72012C8 6.83453 8.09275 6.92728 8.20715 6.92728C8.32156 6.92728 8.41431 6.83453 8.41431 6.72012Z" fill="white"/>
<path d="M8.44668 10.4559V9.97542C8.44668 9.85207 8.34669 9.75208 8.22334 9.75208C8.09999 9.75208 8 9.85207 8 9.97542V10.4559C8 10.5792 8.09999 10.6792 8.22334 10.6792C8.34669 10.6792 8.44668 10.5792 8.44668 10.4559Z" fill="white"/>
<path d="M11.6333 7.88489H8.46358C8.20755 7.88489 8 8.09244 8 8.34846C8 8.60449 8.20755 8.81204 8.46358 8.81204H11.6333C11.8893 8.81204 12.0969 8.60449 12.0969 8.34846C12.0969 8.09244 11.8893 7.88489 11.6333 7.88489Z" fill="white"/>
<path d="M13.8002 3.74038C13.8677 3.8019 13.8242 3.91429 13.7328 3.91429H10.893C10.8377 3.91429 10.793 3.86952 10.793 3.81429V1.22642C10.793 1.13955 10.8961 1.09399 10.9603 1.1525L13.8002 3.74038Z" fill="white" fill-opacity="0.7"/>
<path d="M13.3063 15.338L15.3032 12.4184C15.381 12.2882 15.4258 12.141 15.4338 11.9896C15.4418 11.8381 15.4127 11.687 15.3491 11.5494C15.2854 11.4117 15.1892 11.2916 15.0686 11.1996C14.9481 11.1076 14.8069 11.0464 14.6573 11.0213L13.6028 11.0213L13.5792 8.40984C13.5785 8.16361 13.4804 7.92768 13.3063 7.75357C13.1322 7.57946 12.8962 7.48132 12.65 7.48059C12.4038 7.48132 12.1678 7.57946 11.9937 7.75357C11.8196 7.92768 11.7215 8.16361 11.7207 8.40984L11.7311 11.0213L10.6767 11.0213C10.5271 11.0464 10.3859 11.1076 10.2654 11.1996C10.1448 11.2916 10.0486 11.4117 9.98492 11.5494C9.92128 11.687 9.8922 11.8381 9.9002 11.9896C9.9082 12.141 9.95303 12.2882 10.0308 12.4184L12.0277 15.338C12.0972 15.4441 12.1921 15.5313 12.3037 15.5916C12.4153 15.6519 12.5401 15.6834 12.667 15.6834C12.7938 15.6834 12.9187 15.6519 13.0303 15.5916C13.1419 15.5313 13.2367 15.4441 13.3063 15.338Z" fill="#28EA3C"/>
<path fill-rule="evenodd" clip-rule="evenodd" d="M13.0586 15.1686L15.0498 12.2574C15.1 12.1709 15.1289 12.0737 15.1342 11.9738C15.1396 11.8711 15.1199 11.7686 15.0767 11.6752C15.0336 11.5819 14.9683 11.5005 14.8866 11.4381C14.8108 11.3802 14.723 11.3403 14.6299 11.3213L13.3055 11.3213L13.2793 8.41255L13.2793 8.41073C13.2788 8.24376 13.2122 8.08377 13.0941 7.9657C12.9763 7.84784 12.8166 7.78132 12.65 7.78059C12.4833 7.78132 12.3237 7.84784 12.2059 7.9657C12.088 8.08355 12.0215 8.24315 12.0207 8.40979V8.40979L12.0323 11.3213L10.7041 11.3213C10.6109 11.3403 10.5232 11.3802 10.4474 11.4381C10.3657 11.5005 10.3004 11.5819 10.2572 11.6752C10.2141 11.7686 10.1944 11.8711 10.1998 11.9738C10.2051 12.0737 10.234 12.1709 10.2841 12.2574L12.2787 15.1736C12.3209 15.238 12.3785 15.291 12.4463 15.3276C12.5141 15.3642 12.5899 15.3834 12.667 15.3834C12.7441 15.3834 12.8199 15.3642 12.8877 15.3276C12.9555 15.291 13.0131 15.2381 13.0553 15.1736L13.0586 15.1686ZM10.0308 12.4184C9.95303 12.2882 9.9082 12.141 9.9002 11.9896C9.8922 11.8381 9.92128 11.687 9.98492 11.5494C10.0486 11.4117 10.1448 11.2916 10.2654 11.1996C10.3859 11.1076 10.5271 11.0464 10.6767 11.0213L11.7311 11.0213L11.7207 8.40984C11.7215 8.16361 11.8196 7.92768 11.9937 7.75357C12.1678 7.57946 12.4038 7.48132 12.65 7.48059C12.8962 7.48132 13.1322 7.57946 13.3063 7.75357C13.4804 7.92768 13.5785 8.16361 13.5792 8.40984L13.6028 11.0213L14.6573 11.0213C14.8069 11.0464 14.9481 11.1076 15.0686 11.1996C15.1892 11.2916 15.2854 11.4117 15.3491 11.5494C15.4127 11.687 15.4418 11.8381 15.4338 11.9896C15.4258 12.141 15.381 12.2882 15.3032 12.4184L13.3063 15.338C13.2367 15.4441 13.1419 15.5313 13.0303 15.5916C12.9187 15.6519 12.7938 15.6834 12.667 15.6834C12.5401 15.6834 12.4153 15.6519 12.3037 15.5916C12.1921 15.5313 12.0972 15.4441 12.0277 15.338L10.0308 12.4184Z" fill="#1C7E26"/>
</g>
<defs>
<clipPath id="clip0_312_1225">
<rect width="16" height="16" fill="white"/>
</clipPath>
</defs>
</svg>
