<svg width="16" height="16" viewBox="0 0 16 16" fill="none" xmlns="http://www.w3.org/2000/svg">
<path d="M2.04688 3.36798C2.04688 2.87125 2.44955 2.46857 2.94628 2.46857H13.0536C13.5504 2.46857 13.953 2.87125 13.953 3.36798V14.51C13.953 15.0067 13.5504 15.4094 13.0536 15.4094H2.94628C2.44955 15.4094 2.04688 15.0067 2.04688 14.51V3.36798Z" fill="#FFA724"/>
<path d="M3.12988 3.51459H12.8842V14.2957H3.12988V3.51459Z" fill="#EFD8B5"/>
<path d="M6.50382 2.01014H5.51503C5.23854 2.01014 4.991 2.13088 4.81991 2.32164C4.67159 2.48703 4.58057 2.70494 4.58057 2.94461C4.58057 3.05398 4.60032 3.15854 4.63489 3.25611C4.76334 3.6188 5.10837 3.87907 5.51503 3.87907H10.4988C10.9055 3.87907 11.2505 3.6188 11.3789 3.25611C11.4135 3.15854 11.4333 3.05402 11.4333 2.94461C11.4333 2.70494 11.3422 2.48703 11.1939 2.32164C11.0229 2.13088 10.7752 2.01014 10.4988 2.01014H9.51001C9.54458 1.91257 9.56434 1.80806 9.56434 1.69864C9.56434 1.58923 9.54458 1.48471 9.51001 1.38714C9.38156 1.02449 9.03654 0.764221 8.62987 0.764221H7.38395C6.97729 0.764221 6.63226 1.02449 6.50382 1.38718C6.46924 1.48475 6.44949 1.58927 6.44949 1.69868C6.44949 1.8081 6.46933 1.91261 6.50382 2.01014Z" fill="#737373"/>
<path d="M7.00684 5.73896C7.00684 5.57328 7.14115 5.43896 7.30684 5.43896H11.7068C11.8725 5.43896 12.0068 5.57328 12.0068 5.73896V6.13896C12.0068 6.30465 11.8725 6.43896 11.7068 6.43896H7.30684C7.14115 6.43896 7.00684 6.30465 7.00684 6.13896V5.73896Z" fill="#D38510"/>
<path d="M4.00684 5.73896C4.00684 5.57328 4.14115 5.43896 4.30684 5.43896H5.70684C5.87252 5.43896 6.00684 5.57328 6.00684 5.73896V6.13896C6.00684 6.30465 5.87252 6.43896 5.70684 6.43896H4.30684C4.14115 6.43896 4.00684 6.30465 4.00684 6.13896V5.73896Z" fill="#D38510"/>
<path fill-rule="evenodd" clip-rule="evenodd" d="M5.70684 5.53896H4.30684C4.19638 5.53896 4.10684 5.62851 4.10684 5.73896V6.13896C4.10684 6.24942 4.19638 6.33896 4.30684 6.33896H5.70684C5.81729 6.33896 5.90684 6.24942 5.90684 6.13896V5.73896C5.90684 5.62851 5.81729 5.53896 5.70684 5.53896ZM4.30684 5.43896C4.14115 5.43896 4.00684 5.57328 4.00684 5.73896V6.13896C4.00684 6.30465 4.14115 6.43896 4.30684 6.43896H5.70684C5.87252 6.43896 6.00684 6.30465 6.00684 6.13896V5.73896C6.00684 5.57328 5.87252 5.43896 5.70684 5.43896H4.30684Z" fill="#96600F"/>
<path d="M4.00684 7.73896C4.00684 7.57328 4.14115 7.43896 4.30684 7.43896H5.70684C5.87252 7.43896 6.00684 7.57328 6.00684 7.73896V8.13896C6.00684 8.30465 5.87252 8.43896 5.70684 8.43896H4.30684C4.14115 8.43896 4.00684 8.30465 4.00684 8.13896V7.73896Z" fill="#D38510"/>
<path fill-rule="evenodd" clip-rule="evenodd" d="M5.70684 7.53896H4.30684C4.19638 7.53896 4.10684 7.62851 4.10684 7.73896V8.13896C4.10684 8.24942 4.19638 8.33896 4.30684 8.33896H5.70684C5.81729 8.33896 5.90684 8.24942 5.90684 8.13896V7.73896C5.90684 7.62851 5.81729 7.53896 5.70684 7.53896ZM4.30684 7.43896C4.14115 7.43896 4.00684 7.57328 4.00684 7.73896V8.13896C4.00684 8.30465 4.14115 8.43896 4.30684 8.43896H5.70684C5.87252 8.43896 6.00684 8.30465 6.00684 8.13896V7.73896C6.00684 7.57328 5.87252 7.43896 5.70684 7.43896H4.30684Z" fill="#96600F"/>
<path d="M4.00684 9.73896C4.00684 9.57328 4.14115 9.43896 4.30684 9.43896H5.70684C5.87252 9.43896 6.00684 9.57328 6.00684 9.73896V10.139C6.00684 10.3047 5.87252 10.439 5.70684 10.439H4.30684C4.14115 10.439 4.00684 10.3047 4.00684 10.139V9.73896Z" fill="#D38510"/>
<path fill-rule="evenodd" clip-rule="evenodd" d="M5.70684 9.53896H4.30684C4.19638 9.53896 4.10684 9.62851 4.10684 9.73896V10.139C4.10684 10.2494 4.19638 10.339 4.30684 10.339H5.70684C5.81729 10.339 5.90684 10.2494 5.90684 10.139V9.73896C5.90684 9.62851 5.81729 9.53896 5.70684 9.53896ZM4.30684 9.43896C4.14115 9.43896 4.00684 9.57328 4.00684 9.73896V10.139C4.00684 10.3047 4.14115 10.439 4.30684 10.439H5.70684C5.87252 10.439 6.00684 10.3047 6.00684 10.139V9.73896C6.00684 9.57328 5.87252 9.43896 5.70684 9.43896H4.30684Z" fill="#96600F"/>
<path d="M4.00684 11.739C4.00684 11.5733 4.14115 11.439 4.30684 11.439H5.70684C5.87252 11.439 6.00684 11.5733 6.00684 11.739V12.139C6.00684 12.3047 5.87252 12.439 5.70684 12.439H4.30684C4.14115 12.439 4.00684 12.3047 4.00684 12.139V11.739Z" fill="#D38510"/>
<path fill-rule="evenodd" clip-rule="evenodd" d="M5.70684 11.539H4.30684C4.19638 11.539 4.10684 11.6285 4.10684 11.739V12.139C4.10684 12.2494 4.19638 12.339 4.30684 12.339H5.70684C5.81729 12.339 5.90684 12.2494 5.90684 12.139V11.739C5.90684 11.6285 5.81729 11.539 5.70684 11.539ZM4.30684 11.439C4.14115 11.439 4.00684 11.5733 4.00684 11.739V12.139C4.00684 12.3047 4.14115 12.439 4.30684 12.439H5.70684C5.87252 12.439 6.00684 12.3047 6.00684 12.139V11.739C6.00684 11.5733 5.87252 11.439 5.70684 11.439H4.30684Z" fill="#96600F"/>
<path d="M7.00684 7.73896C7.00684 7.57328 7.14115 7.43896 7.30684 7.43896H11.7068C11.8725 7.43896 12.0068 7.57328 12.0068 7.73896V8.13896C12.0068 8.30465 11.8725 8.43896 11.7068 8.43896H7.30684C7.14115 8.43896 7.00684 8.30465 7.00684 8.13896V7.73896Z" fill="#D38510"/>
<path d="M7.00684 9.73896C7.00684 9.57328 7.14115 9.43896 7.30684 9.43896H11.7068C11.8725 9.43896 12.0068 9.57328 12.0068 9.73896V10.139C12.0068 10.3047 11.8725 10.439 11.7068 10.439H7.30684C7.14115 10.439 7.00684 10.3047 7.00684 10.139V9.73896Z" fill="#D38510"/>
<path d="M7.00684 11.739C7.00684 11.5733 7.14115 11.439 7.30684 11.439H11.7068C11.8725 11.439 12.0068 11.5733 12.0068 11.739V12.139C12.0068 12.3047 11.8725 12.439 11.7068 12.439H7.30684C7.14115 12.439 7.00684 12.3047 7.00684 12.139V11.739Z" fill="#D38510"/>
<path d="M13.1456 3.932L6.72363 10.6957L8.82029 12.6865L15.2423 5.92273L13.1456 3.932Z" fill="#FFC834"/>
<path fill-rule="evenodd" clip-rule="evenodd" d="M13.1493 4.07338L6.86501 10.6921L8.81663 12.5451L15.1009 5.92639L13.1493 4.07338ZM13.1456 3.932L15.2423 5.92273L8.82029 12.6865L6.72363 10.6957L13.1456 3.932Z" fill="#C2A350"/>
<path d="M6.72356 10.6957L6.23819 13.3064L8.82021 12.6864L6.72356 10.6957Z" fill="#EEDBA9"/>
<path fill-rule="evenodd" clip-rule="evenodd" d="M6.23819 13.3064L8.82021 12.6864L6.72356 10.6957L6.23819 13.3064ZM6.78822 10.895L6.36467 13.1732L8.61784 12.6321L6.78822 10.895Z" fill="#C6A140"/>
<path d="M6.23833 13.3058L6.39717 12.4514L7.08334 13.1029L6.23833 13.3058Z" fill="#5B4E2C"/>
<path opacity="0.3" d="M8.82011 12.6864L7.0838 13.1023L6.82288 12.8529L14.194 4.92725L15.2423 5.92262L8.82011 12.6864Z" fill="#8A6607"/>
</svg>
