<svg width="16" height="16" viewBox="0 0 16 16" fill="none" xmlns="http://www.w3.org/2000/svg">
<g clip-path="url(#clip0_312_2357)">
<path d="M-1.39014 5.45605L-1.39014 9.08344L3.69929 12.5381V8.9107L-1.39014 5.45605Z" fill="#B62B24"/>
<path d="M8.78865 5.45605V9.08344L3.69922 12.5381V8.9107L8.78865 5.45605Z" fill="#CD3D3C"/>
<path d="M3.69929 2.17419L-1.39014 5.4561L3.69929 8.91074L8.78872 5.4561L3.69929 2.17419Z" fill="#E54141"/>
<path d="M2.21484 3.12421V3.77195C2.21484 4.33333 2.87944 4.76518 3.69926 4.76518C4.51908 4.76518 5.18368 4.33333 5.18368 3.77195V3.12421H2.21484Z" fill="#AF3130"/>
<path d="M2.21484 3.12421V3.77195C2.21484 4.33333 2.87944 4.76518 3.69926 4.76518V3.12421H2.21484Z" fill="#AF3130"/>
<path d="M5.18368 3.14581C5.18368 3.4035 5.02728 3.65064 4.7489 3.83285C4.47052 4.01506 4.09295 4.11743 3.69926 4.11743C3.30557 4.11743 2.928 4.01506 2.64962 3.83285C2.37124 3.65064 2.21484 3.4035 2.21484 3.14581C2.21484 2.88812 2.37124 2.64099 2.64962 2.45877C2.928 2.27656 3.30557 2.17419 3.69926 2.17419C4.09295 2.17419 4.47052 2.27656 4.7489 2.45877C5.02728 2.64099 5.18368 2.88812 5.18368 3.14581Z" fill="#EC403F"/>
<path d="M4.97168 4.8515V5.49925C4.97168 6.06063 5.63627 6.49248 6.4561 6.49248C7.27592 6.49248 7.94051 6.06063 7.94051 5.49925V4.8515H4.97168Z" fill="#AF3130"/>
<path d="M4.97168 4.8515V5.49925C4.97168 6.06063 5.63627 6.49248 6.4561 6.49248V4.8515H4.97168Z" fill="#AF3130"/>
<path d="M7.94051 4.87311C7.94051 5.1308 7.78412 5.37793 7.50574 5.56015C7.22736 5.74236 6.84979 5.84473 6.4561 5.84473C6.0624 5.84473 5.68484 5.74236 5.40646 5.56015C5.12807 5.37793 4.97168 5.1308 4.97168 4.87311C4.97168 4.61542 5.12807 4.36828 5.40646 4.18607C5.68484 4.00386 6.0624 3.90149 6.4561 3.90149C6.84979 3.90149 7.22736 4.00386 7.50574 4.18607C7.78412 4.36828 7.94051 4.61542 7.94051 4.87311Z" fill="#EC403F"/>
<path d="M-0.541992 4.63562V5.28337C-0.541992 5.84475 0.122603 6.2766 0.942425 6.2766C1.76225 6.2766 2.42684 5.84475 2.42684 5.28337V4.63562H-0.541992Z" fill="#AF3130"/>
<path d="M-0.541992 4.63562V5.28337C-0.541992 5.84475 0.122603 6.2766 0.942425 6.2766V4.63562H-0.541992Z" fill="#AF3130"/>
<path d="M2.42684 4.65723C2.42684 4.91492 2.27045 5.16205 1.99207 5.34426C1.71368 5.52648 1.33612 5.62885 0.942425 5.62885C0.548733 5.62885 0.171166 5.52648 -0.107216 5.34426C-0.385599 5.16205 -0.541992 4.91492 -0.541992 4.65723C-0.541992 4.39954 -0.385599 4.1524 -0.107216 3.97019C0.171166 3.78797 0.548733 3.68561 0.942425 3.68561C1.33612 3.68561 1.71368 3.78797 1.99207 3.97019C2.27045 4.1524 2.42684 4.39954 2.42684 4.65723Z" fill="#EC403F"/>
<path d="M2.21484 6.36298V7.01072C2.21484 7.5721 2.87944 8.00395 3.69926 8.00395C4.51908 8.00395 5.18368 7.5721 5.18368 7.01072V6.36298H2.21484Z" fill="#AF3130"/>
<path d="M2.21484 6.36298V7.01072C2.21484 7.5721 2.87944 8.00395 3.69926 8.00395V6.36298H2.21484Z" fill="#AF3130"/>
<path d="M5.18368 6.38452C5.18368 6.64221 5.02728 6.88935 4.7489 7.07156C4.47052 7.25377 4.09295 7.35614 3.69926 7.35614C3.30557 7.35614 2.928 7.25377 2.64962 7.07156C2.37124 6.88935 2.21484 6.64221 2.21484 6.38452C2.21484 6.12683 2.37124 5.8797 2.64962 5.69748C2.928 5.51527 3.30557 5.4129 3.69926 5.4129C4.09295 5.4129 4.47052 5.51527 4.7489 5.69748C5.02728 5.8797 5.18368 6.12683 5.18368 6.38452Z" fill="#EC403F"/>
<path d="M3.69922 8.91791L3.69922 12.5454L8.78997 16.0001V12.3726L3.69922 8.91791Z" fill="#338F31"/>
<path d="M13.8808 8.91791V12.5454L8.79004 16.0001V12.3726L13.8808 8.91791Z" fill="#3BA53A"/>
<path d="M8.78997 5.63593L3.69922 8.91789L8.78997 12.3726L13.8807 8.91789L8.78997 5.63593Z" fill="#6CC754"/>
<path d="M7.30518 6.58594V7.2337C7.30518 7.79509 7.96994 8.22694 8.78998 8.22694C9.61001 8.22694 10.2748 7.79509 10.2748 7.2337V6.58594H7.30518Z" fill="#3BA53A"/>
<path d="M7.30518 6.58594V7.2337C7.30518 7.79509 7.96994 8.22694 8.78998 8.22694V6.58594H7.30518Z" fill="#3BA53A"/>
<path d="M10.2748 6.60756C10.2748 6.86526 10.1183 7.1124 9.83989 7.29461C9.56144 7.47683 9.18377 7.5792 8.78998 7.5792C8.39618 7.5792 8.01852 7.47683 7.74006 7.29461C7.46161 7.1124 7.30518 6.86526 7.30518 6.60756C7.30518 6.34987 7.46161 6.10273 7.74006 5.92051C8.01852 5.73829 8.39618 5.63593 8.78998 5.63593C9.18377 5.63593 9.56144 5.73829 9.83989 5.92051C10.1183 6.10273 10.2748 6.34987 10.2748 6.60756Z" fill="#6CC754"/>
<path d="M4.54785 8.09735V8.74511C4.54785 9.3065 5.21262 9.73836 6.03265 9.73836C6.85269 9.73836 7.51745 9.3065 7.51745 8.74511V8.09735H4.54785Z" fill="#3BA53A"/>
<path d="M4.54785 8.09735V8.74511C4.54785 9.3065 5.21262 9.73836 6.03265 9.73836V8.09735H4.54785Z" fill="#3BA53A"/>
<path d="M7.51745 8.11898C7.51745 8.37667 7.36102 8.62381 7.08257 8.80603C6.80411 8.98824 6.42645 9.09061 6.03265 9.09061C5.63886 9.09061 5.26119 8.98824 4.98274 8.80603C4.70429 8.62381 4.54785 8.37667 4.54785 8.11898C4.54785 7.86128 4.70429 7.61414 4.98274 7.43192C5.26119 7.24971 5.63886 7.14734 6.03265 7.14734C6.42645 7.14734 6.80411 7.24971 7.08257 7.43192C7.36102 7.61414 7.51745 7.86128 7.51745 8.11898Z" fill="#6CC754"/>
<path d="M1.15479 3.56299L1.15479 7.19044L6.24554 10.6451V7.01769L1.15479 3.56299Z" fill="#E67E22"/>
<path d="M11.3364 3.56299V7.19044L6.24561 10.6451V7.01769L11.3364 3.56299Z" fill="#F39C12"/>
<path d="M6.24554 0.281067L1.15479 3.56302L6.24554 7.01773L11.3363 3.56302L6.24554 0.281067Z" fill="#F1C40F"/>
<path d="M4.76074 1.23108V1.87884C4.76074 2.44023 5.42551 2.87208 6.24554 2.87208C7.06558 2.87208 7.73035 2.44023 7.73035 1.87884V1.23108H4.76074Z" fill="#E67E22"/>
<path d="M4.76074 1.23108V1.87884C4.76074 2.44023 5.42551 2.87208 6.24554 2.87208V1.23108H4.76074Z" fill="#E67E22"/>
<path d="M7.73035 1.2527C7.73035 1.5104 7.57391 1.75754 7.29546 1.93975C7.017 2.12197 6.63934 2.22434 6.24554 2.22434C5.85175 2.22434 5.47409 2.12197 5.19563 1.93975C4.91718 1.75754 4.76074 1.5104 4.76074 1.2527C4.76074 0.995009 4.91718 0.747869 5.19563 0.565652C5.47409 0.383435 5.85175 0.281067 6.24554 0.281067C6.63934 0.281067 7.017 0.383435 7.29546 0.565652C7.57391 0.747869 7.73035 0.995009 7.73035 1.2527Z" fill="#F1C40F"/>
<path d="M7.51807 2.95844V3.60619C7.51807 4.16758 8.18283 4.59944 9.00287 4.59944C9.8229 4.59944 10.4877 4.16758 10.4877 3.60619V2.95844H7.51807Z" fill="#E67E22"/>
<path d="M7.51807 2.95844V3.60619C7.51807 4.16758 8.18283 4.59944 9.00287 4.59944V2.95844H7.51807Z" fill="#E67E22"/>
<path d="M10.4877 2.98006C10.4877 3.23775 10.3312 3.48489 10.0528 3.66711C9.77433 3.84933 9.39666 3.95169 9.00287 3.95169C8.60907 3.95169 8.23141 3.84933 7.95295 3.66711C7.6745 3.48489 7.51807 3.23775 7.51807 2.98006C7.51807 2.72236 7.6745 2.47523 7.95295 2.29301C8.23141 2.11079 8.60907 2.00842 9.00287 2.00842C9.39666 2.00842 9.77433 2.11079 10.0528 2.29301C10.3312 2.47523 10.4877 2.72236 10.4877 2.98006Z" fill="#F1C40F"/>
<path d="M2.00293 2.74255V3.39031C2.00293 3.9517 2.6677 4.38356 3.48773 4.38356C4.30777 4.38356 4.97253 3.9517 4.97253 3.39031V2.74255H2.00293Z" fill="#E67E22"/>
<path d="M2.00293 2.74255V3.39031C2.00293 3.9517 2.6677 4.38356 3.48773 4.38356V2.74255H2.00293Z" fill="#E67E22"/>
<path d="M4.97253 2.76418C4.97253 3.02187 4.8161 3.26901 4.53765 3.45123C4.25919 3.63344 3.88153 3.73581 3.48773 3.73581C3.09394 3.73581 2.71627 3.63344 2.43782 3.45123C2.15936 3.26901 2.00293 3.02187 2.00293 2.76418C2.00293 2.50648 2.15936 2.25934 2.43782 2.07713C2.71627 1.89491 3.09394 1.79254 3.48773 1.79254C3.88153 1.79254 4.25919 1.89491 4.53765 2.07713C4.8161 2.25934 4.97253 2.50648 4.97253 2.76418Z" fill="#F1C40F"/>
<path d="M4.76074 4.46985V5.11761C4.76074 5.679 5.42551 6.11085 6.24554 6.11085C7.06558 6.11085 7.73035 5.679 7.73035 5.11761V4.46985H4.76074Z" fill="#E67E22"/>
<path d="M4.76074 4.46985V5.11761C4.76074 5.679 5.42551 6.11085 6.24554 6.11085V4.46985H4.76074Z" fill="#E67E22"/>
<path d="M7.73035 4.49147C7.73035 4.74917 7.57391 4.99631 7.29546 5.17852C7.017 5.36074 6.63934 5.46311 6.24554 5.46311C5.85175 5.46311 5.47409 5.36074 5.19563 5.17852C4.91718 4.99631 4.76074 4.74917 4.76074 4.49147C4.76074 4.23378 4.91718 3.98664 5.19563 3.80442C5.47409 3.6222 5.85175 3.51984 6.24554 3.51984C6.63934 3.51984 7.017 3.6222 7.29546 3.80442C7.57391 3.98664 7.73035 4.23378 7.73035 4.49147Z" fill="#F1C40F"/>
<path d="M9.78125 8.13354V8.7813C9.78125 9.34269 10.446 9.77455 11.2661 9.77455C12.0861 9.77455 12.7509 9.34269 12.7509 8.7813V8.13354H9.78125Z" fill="#3BA53A"/>
<path d="M9.78125 8.13354V8.7813C9.78125 9.34269 10.446 9.77455 11.2661 9.77455V8.13354H9.78125Z" fill="#3BA53A"/>
<path d="M12.7509 8.15511C12.7509 8.4128 12.5944 8.65994 12.316 8.84216C12.0375 9.02438 11.6598 9.12674 11.2661 9.12674C10.8723 9.12674 10.4946 9.02438 10.2161 8.84216C9.93768 8.65994 9.78125 8.4128 9.78125 8.15511C9.78125 7.89741 9.93768 7.65027 10.2161 7.46806C10.4946 7.28584 10.8723 7.18347 11.2661 7.18347C11.6598 7.18347 12.0375 7.28584 12.316 7.46806C12.5944 7.65027 12.7509 7.89741 12.7509 8.15511Z" fill="#6CC754"/>
<path d="M7.02393 9.64496V10.2927C7.02393 10.8541 7.68869 11.286 8.50873 11.286C9.32876 11.286 9.99353 10.8541 9.99353 10.2927V9.64496H7.02393Z" fill="#3BA53A"/>
<path d="M7.02393 9.64496V10.2927C7.02393 10.8541 7.68869 11.286 8.50873 11.286V9.64496H7.02393Z" fill="#3BA53A"/>
<path d="M9.99353 9.66652C9.99353 9.92422 9.83709 10.1714 9.55864 10.3536C9.28019 10.5358 8.90252 10.6382 8.50873 10.6382C8.11493 10.6382 7.73727 10.5358 7.45881 10.3536C7.18036 10.1714 7.02393 9.92422 7.02393 9.66652C7.02393 9.40883 7.18036 9.16169 7.45881 8.97947C7.73727 8.79725 8.11493 8.69489 8.50873 8.69489C8.90252 8.69489 9.28019 8.79725 9.55864 8.97947C9.83709 9.16169 9.99353 9.40883 9.99353 9.66652Z" fill="#6CC754"/>
<path d="M15.4417 4.99561L13.2421 7.08032C13.1694 7.15405 13.0232 7.19167 12.9312 7.13738C12.1227 6.7035 11.4407 6.03075 10.9775 5.21005C10.9401 5.10044 10.9576 4.97217 11.0303 4.89845L13.2299 2.81374C12.1846 2.54624 10.9785 2.88399 10.1603 3.71342C8.96028 4.92992 8.97375 6.9071 10.1902 8.10714C11.4068 9.30718 13.3839 9.29369 14.5839 8.07719C15.4022 7.24776 15.7235 6.03724 15.4417 4.99561Z" fill="#939393"/>
<path d="M10.5653 7.76626C10.0116 7.35699 9.51488 7.18625 9.40081 6.56455C9.09494 7.35389 9.17877 7.22136 8.57875 7.82961L4.3968 12.0689C3.88769 12.585 3.89318 13.3906 4.40927 13.8997C4.92536 14.4088 5.73089 14.4033 6.23999 13.8872L10.4401 9.62945C11.0401 9.0212 10.8322 9.01081 11.6173 8.69423C10.9941 8.58861 10.8655 7.98814 10.5653 7.76626Z" fill="#C43736"/>
<path d="M6.31783 11.6005L5.58057 10.8732L5.21692 11.2418L5.95419 11.9691C6.06479 12.0782 6.21125 12.0772 6.32035 11.9666C6.42941 11.856 6.42841 11.7095 6.31783 11.6005Z" fill="#E0E0E0"/>
<path d="M5.59328 12.7039C5.70238 12.5933 5.70138 12.4468 5.59078 12.3377L4.85352 11.6104L4.48987 11.979L5.22714 12.7063C5.33772 12.8155 5.48417 12.8145 5.59328 12.7039Z" fill="#E0E0E0"/>
<path d="M11.1219 9.53418C11.6119 8.98681 11.4367 8.02252 10.7307 7.38038C10.0246 6.73824 9.05497 6.66141 8.56496 7.20878C8.07496 7.75616 8.25012 8.72045 8.9562 9.36259C9.66228 10.0047 10.6319 10.0816 11.1219 9.53418Z" fill="#6C6B6B"/>
<path d="M15.1815 5.22644L12.9818 7.31116C12.9091 7.38488 12.7629 7.4225 12.671 7.36821C11.8625 6.93433 11.1805 6.26158 10.7172 5.44088C10.6799 5.33128 10.6973 5.20301 10.77 5.12928L12.9697 3.04457C11.9243 2.77708 10.7183 3.11483 9.90006 3.94426C8.70002 5.16076 8.71349 7.13793 9.92999 8.33797C11.1465 9.53801 13.1237 9.52453 14.3237 8.30802C15.1419 7.47859 15.4632 6.26808 15.1815 5.22644Z" fill="#AEBDCB"/>
</g>
<defs>
<clipPath id="clip0_312_2357">
<rect width="16" height="16" fill="white"/>
</clipPath>
</defs>
</svg>
