<svg width="17" height="16" viewBox="0 0 17 16" fill="none" xmlns="http://www.w3.org/2000/svg">
<path d="M3.5 12.1872C3.5 11.9663 3.67909 11.7872 3.9 11.7872H15.1C15.3209 11.7872 15.5 11.9663 15.5 12.1872V12.3872C15.5 12.6081 15.3209 12.7872 15.1 12.7872H3.9C3.67909 12.7872 3.5 12.6081 3.5 12.3872V12.1872Z" fill="#554646"/>
<path d="M5.5 10.1872C5.5 9.96632 5.67909 9.78723 5.9 9.78723H15.1C15.3209 9.78723 15.5 9.96632 15.5 10.1872V10.3872C15.5 10.6081 15.3209 10.7872 15.1 10.7872H5.9C5.67909 10.7872 5.5 10.6081 5.5 10.3872V10.1872Z" fill="#554646"/>
<path d="M5.5 14.4C5.5 14.1791 5.67909 14 5.9 14H15.1C15.3209 14 15.5 14.1791 15.5 14.4V14.6C15.5 14.8209 15.3209 15 15.1 15H5.9C5.67909 15 5.5 14.8209 5.5 14.6V14.4Z" fill="#554646"/>
<path d="M9.5 7.18723C9.5 6.96632 9.67909 6.78723 9.9 6.78723H15.1C15.3209 6.78723 15.5 6.96632 15.5 7.18723V8.38723C15.5 8.60815 15.3209 8.78723 15.1 8.78723H9.9C9.67909 8.78723 9.5 8.60815 9.5 8.38723V7.18723Z" fill="#554646"/>
<path d="M5.5 5.18723C5.5 4.96632 5.67909 4.78723 5.9 4.78723H15.1C15.3209 4.78723 15.5 4.96632 15.5 5.18723V5.38723C15.5 5.60815 15.3209 5.78723 15.1 5.78723H5.9C5.67909 5.78723 5.5 5.60815 5.5 5.38723V5.18723Z" fill="#554646"/>
<path d="M2.5 3.18723C2.5 2.96632 2.67909 2.78723 2.9 2.78723H15.1C15.3209 2.78723 15.5 2.96632 15.5 3.18723V3.38723C15.5 3.60815 15.3209 3.78723 15.1 3.78723H2.9C2.67909 3.78723 2.5 3.60815 2.5 3.38723V3.18723Z" fill="#554646"/>
<path d="M1.5 1.4C1.5 1.17909 1.67909 1 1.9 1H15.1C15.3209 1 15.5 1.17909 15.5 1.4V1.6C15.5 1.82091 15.3209 2 15.1 2H1.9C1.67909 2 1.5 1.82091 1.5 1.6V1.4Z" fill="#554646"/>
</svg>
