<svg width="16" height="16" viewBox="0 0 16 16" fill="none" xmlns="http://www.w3.org/2000/svg">
<path opacity="0.1" d="M3.95553 5.47177L4.04359 6.07665L6.82635 3.88033C5.69239 4.03931 4.67382 4.61851 3.95553 5.47177Z" fill="black"/>
<path opacity="0.1" d="M3.62011 5.9242C3.24786 6.49656 2.99801 7.16102 2.91273 7.88502C2.87919 8.16981 2.87278 8.45153 2.89096 8.72776L3.84256 9.4375L4.29032 5.63579L3.62011 5.9242Z" fill="black"/>
<path opacity="0.1" d="M3.70471 8.95146L3.22304 10.1608C3.549 10.9538 4.09255 11.6425 4.78814 12.1438L6.07631 11.9563L3.70471 8.95146Z" fill="black"/>
<path opacity="0.1" d="M5.63574 11.7097L6.10498 12.8002C6.36939 12.882 6.64492 12.9413 6.92971 12.9748C7.65371 13.0601 8.35804 12.9714 9.00122 12.7423L9.43743 12.1575L5.63574 11.7097L5.63574 11.7097Z" fill="black"/>
<path opacity="0.1" d="M8.95142 12.2949L9.51926 12.5211C10.516 12.0207 11.3161 11.1646 11.7341 10.0986L8.95142 12.2949Z" fill="black"/>
<path fill-rule="evenodd" clip-rule="evenodd" d="M6.7519 3.5869C6.75236 3.58678 6.75281 3.58665 6.75327 3.58652L8.49433 1.25216C8.65287 1.03964 8.98201 1.0784 9.0868 1.32194L10.2379 3.99707C10.2383 3.99728 10.2387 3.99749 10.239 3.99769L13.121 3.57817C13.3834 3.53996 13.5887 3.8001 13.4906 4.04643L12.4129 6.75218C12.413 6.75251 12.4131 6.75285 12.4132 6.75318L14.7477 8.49438C14.9603 8.65293 14.9215 8.98207 14.6779 9.08686L12.0027 10.238C12.0025 10.2383 12.0024 10.2386 12.0022 10.2388L12.4218 13.121C12.46 13.3834 12.1999 13.5887 11.9535 13.4906L9.24789 12.4129C9.24747 12.413 9.24705 12.4132 9.24663 12.4133L7.50546 14.7478C7.34695 14.9603 7.01781 14.9216 6.91299 14.678L5.76189 12.0029C5.7615 12.0027 5.76111 12.0025 5.76072 12.0023L2.87894 12.4218C2.61656 12.46 2.41123 12.1998 2.50936 11.9535L3.58686 9.2482C3.58671 9.24766 3.58656 9.24712 3.58641 9.24659L1.2521 7.50557C1.03958 7.34706 1.07834 7.01792 1.32188 6.91309L3.99679 5.76207C3.99708 5.76155 3.99737 5.76103 3.99766 5.76051L3.57819 2.87893C3.53998 2.61655 3.80013 2.41122 4.04646 2.50935L6.7519 3.5869Z" fill="#FFA724"/>
<path d="M7.57524 11.6064C9.56699 11.8409 11.3718 10.4165 11.6064 8.42472C11.841 6.43297 10.4165 4.62816 8.42475 4.39357C6.433 4.15898 4.62819 5.58345 4.3936 7.57521C4.15901 9.56696 5.58348 11.3718 7.57524 11.6064Z" fill="#F7D64C"/>
<path opacity="0.3" d="M9.10988 4.54191C8.97461 4.74606 8.88355 4.98391 8.85294 5.24373C8.74864 6.12931 9.38201 6.93177 10.2676 7.03607C10.6877 7.08556 11.089 6.9688 11.4061 6.73804C11.0242 5.70988 10.186 4.88593 9.10988 4.54191Z" fill="white"/>
</svg>
