<svg width="16" height="16" viewBox="0 0 16 16" fill="none" xmlns="http://www.w3.org/2000/svg">
<g clip-path="url(#clip0_312_2159)">
<path fill-rule="evenodd" clip-rule="evenodd" d="M5.01522 2.63735C4.42943 2.05157 3.47968 2.05157 2.8939 2.63735C2.30811 3.22314 2.30811 4.17289 2.8939 4.75867L5.88023 7.74501L2.6389 10.9863C2.05312 11.5721 2.05312 12.5219 2.6389 13.1077C3.22469 13.6934 4.17444 13.6934 4.76022 13.1077L8.00155 9.86633L11.2415 13.1063C11.8273 13.6921 12.7771 13.6921 13.3628 13.1063C13.9486 12.5205 13.9486 11.5708 13.3628 10.985L10.1229 7.74501L13.1078 4.76003C13.6936 4.17425 13.6936 3.2245 13.1078 2.63871C12.5221 2.05293 11.5723 2.05293 10.9865 2.63871L8.00155 5.62369L5.01522 2.63735Z" fill="#CD3D3C"/>
<path fill-rule="evenodd" clip-rule="evenodd" d="M6.29707 7.74501L2.84732 11.1948C2.37665 11.6654 2.37664 12.4286 2.84732 12.8992C3.318 13.3699 4.08113 13.3699 4.5518 12.8992L8.00155 9.44949L11.4499 12.8979C11.9206 13.3686 12.6837 13.3686 13.1544 12.8979C13.6251 12.4272 13.6251 11.6641 13.1544 11.1934L9.70603 7.74501L12.8994 4.55161C13.3701 4.08094 13.3701 3.31781 12.8994 2.84713C12.4287 2.37645 11.6656 2.37645 11.1949 2.84713L8.00155 6.04053L4.8068 2.84577C4.33612 2.37509 3.573 2.37509 3.10232 2.84577C2.63164 3.31645 2.63164 4.07957 3.10232 4.55025L6.29707 7.74501ZM2.8939 4.75867C2.30811 4.17289 2.30811 3.22314 2.8939 2.63735C3.47968 2.05157 4.42943 2.05157 5.01522 2.63735L8.00155 5.62369L10.9865 2.63871C11.5723 2.05293 12.5221 2.05293 13.1078 2.63871C13.6936 3.2245 13.6936 4.17425 13.1078 4.76003L10.1229 7.74501L13.3628 10.985C13.9486 11.5708 13.9486 12.5205 13.3628 13.1063C12.7771 13.6921 11.8273 13.6921 11.2415 13.1063L8.00155 9.86633L4.76022 13.1077C4.17444 13.6934 3.22469 13.6934 2.6389 13.1077C2.05312 12.5219 2.05312 11.5721 2.6389 10.9863L5.88023 7.74501L2.8939 4.75867Z" fill="#8A2120"/>
</g>
<defs>
<clipPath id="clip0_312_2159">
<rect width="16" height="16" fill="white"/>
</clipPath>
</defs>
</svg>
