<svg width="16" height="16" viewBox="0 0 16 16" fill="none" xmlns="http://www.w3.org/2000/svg">
<g clip-path="url(#clip0_312_1623)">
<path d="M13.8857 3.8907C13.8887 3.89347 13.8904 3.89736 13.8904 3.90143V14.0406C13.8904 14.5928 13.4427 15.0406 12.8904 15.0406H3.10986C2.55758 15.0406 2.10986 14.5928 2.10986 14.0406V1.95947C2.10986 1.40719 2.55758 0.959473 3.10986 0.959473H10.3517C10.605 0.959473 10.8489 1.05562 11.0341 1.2285L13.8857 3.8907V3.8907Z" fill="#FC7B24"/>
<path d="M3.22217 3.09345C3.22217 2.61903 3.60676 2.23444 4.08118 2.23444L10.3889 2.23444C10.7551 2.23444 11.0139 2.5927 10.8989 2.94032V2.94032C10.7688 3.33361 11.1141 3.71992 11.5194 3.63471L11.8768 3.55959C12.3412 3.46197 12.7778 3.81632 12.7778 4.29087V12.9066C12.7778 13.381 12.3932 13.7656 11.9188 13.7656H4.08118C3.60676 13.7656 3.22217 13.381 3.22217 12.9066V3.09345Z" fill="#F7B78D"/>
<path d="M13.697 3.71753C13.7634 3.77946 13.7195 3.89063 13.6288 3.89063H10.8427C10.7874 3.89063 10.7427 3.84585 10.7427 3.79063V1.18961C10.7427 1.10217 10.847 1.05685 10.9109 1.11652L13.697 3.71753Z" fill="#FC7B24"/>
<path d="M13.697 3.71753C13.7634 3.77946 13.7195 3.89063 13.6288 3.89063H10.8427C10.7874 3.89063 10.7427 3.84585 10.7427 3.79063V1.18961C10.7427 1.10217 10.847 1.05685 10.9109 1.11652L13.697 3.71753Z" fill="#FC7B24"/>
<path d="M13.697 3.71753C13.7634 3.77946 13.7195 3.89063 13.6288 3.89063H10.8427C10.7874 3.89063 10.7427 3.84585 10.7427 3.79063V1.18961C10.7427 1.10217 10.847 1.05685 10.9109 1.11652L13.697 3.71753Z" fill="white" fill-opacity="0.7"/>
<path opacity="0.1" d="M8.84403 9.60585L8.90147 10.0004L10.7165 8.56782C9.9769 8.67152 9.31253 9.04931 8.84403 9.60585Z" fill="black"/>
<path opacity="0.1" d="M8.62486 9.90097C8.38206 10.2743 8.21909 10.7077 8.16347 11.1799C8.14159 11.3657 8.13741 11.5494 8.14927 11.7296L8.76995 12.1925L9.06201 9.71285L8.62486 9.90097Z" fill="black"/>
<path opacity="0.1" d="M8.68016 11.8755L8.36598 12.6643C8.57859 13.1816 8.93312 13.6307 9.38682 13.9577L10.227 13.8354L8.68016 11.8755Z" fill="black"/>
<path opacity="0.1" d="M9.93945 13.6746L10.2455 14.3858C10.418 14.4392 10.5977 14.4778 10.7835 14.4997C11.2557 14.5553 11.7151 14.4975 12.1346 14.3481L12.4191 13.9666L9.93945 13.6746L9.93945 13.6746Z" fill="black"/>
<path opacity="0.1" d="M12.1022 14.0562L12.4726 14.2038C13.1227 13.8774 13.6446 13.319 13.9173 12.6237L12.1022 14.0562Z" fill="black"/>
<path fill-rule="evenodd" clip-rule="evenodd" d="M10.6678 8.37645C10.668 8.37637 10.6683 8.37628 10.6686 8.3762L11.8043 6.8536C11.9077 6.71498 12.1223 6.74026 12.1907 6.89911L12.9415 8.64398C12.9418 8.64412 12.942 8.64425 12.9422 8.64438L14.822 8.37075C14.9931 8.34582 15.1271 8.51551 15.0631 8.67617L14.3601 10.441C14.3602 10.4412 14.3603 10.4414 14.3603 10.4417L15.883 11.5774C16.0217 11.6808 15.9964 11.8955 15.8375 11.9638L14.0926 12.7146C14.0925 12.7148 14.0924 12.715 14.0923 12.7152L14.3659 14.5951C14.3909 14.7662 14.2212 14.9001 14.0605 14.8361L12.2958 14.1333C12.2955 14.1333 12.2952 14.1334 12.2949 14.1335L11.1592 15.6562C11.0558 15.7948 10.8412 15.7695 10.7728 15.6107L10.022 13.8658C10.0217 13.8657 10.0215 13.8655 10.0212 13.8654L8.14156 14.139C7.97041 14.1639 7.83649 13.9943 7.90049 13.8336L8.60333 12.069C8.60324 12.0687 8.60315 12.0683 8.60306 12.068L7.08046 10.9324C6.94184 10.829 6.96713 10.6143 7.12598 10.546L8.87074 9.79518C8.87092 9.79486 8.8711 9.79455 8.87128 9.79423L8.59767 7.91467C8.57275 7.74353 8.74243 7.6096 8.9031 7.6736L10.6678 8.37645Z" fill="#FFA724"/>
<path d="M11.2044 13.6072C12.5036 13.7602 13.6808 12.8311 13.8338 11.5319C13.9868 10.2328 13.0577 9.05561 11.7585 8.9026C10.4594 8.74959 9.28221 9.6787 9.1292 10.9778C8.97619 12.277 9.9053 13.4542 11.2044 13.6072Z" fill="#F7D64C"/>
<path opacity="0.3" d="M12.2059 8.99935C12.1176 9.13251 12.0582 9.28765 12.0383 9.45711C11.9702 10.0347 12.3834 10.5581 12.961 10.6262C13.235 10.6585 13.4968 10.5823 13.7036 10.4318C13.4545 9.76116 12.9078 9.22374 12.2059 8.99935Z" fill="white"/>
</g>
<defs>
<clipPath id="clip0_312_1623">
<rect width="16" height="16" fill="white"/>
</clipPath>
</defs>
</svg>
