<svg width="16" height="16" viewBox="0 0 16 16" fill="none" xmlns="http://www.w3.org/2000/svg">
<g clip-path="url(#clip0_312_1849)">
<path d="M13.4545 1H2.54546C2.24422 1 2 1.34824 2 1.77779V4.88889V8V11.1111V14.2222C2 14.6518 2.24422 15 2.54546 15H6.18182H9.81818H13.4545C13.7558 15 14 14.6518 14 14.2222V11.1111V8V4.88889V1.77779C14 1.34824 13.7557 1 13.4545 1ZM5.63635 12.6667C5.63636 13.0962 5.28813 13.4444 4.85858 13.4444H3.86866C3.43911 13.4444 3.09089 13.0962 3.09089 12.6667V12.6667C3.09089 12.2371 3.43911 11.8889 3.86866 11.8889H4.85858C5.28813 11.8889 5.63634 12.2371 5.63635 12.6667V12.6667ZM5.63635 9.55554C5.63636 9.9851 5.28813 10.3333 4.85858 10.3333H3.86866C3.43911 10.3333 3.09089 9.98511 3.09089 9.55556V9.55556C3.09089 9.12601 3.43911 8.77779 3.86866 8.77779H4.85858C5.28813 8.77779 5.63634 9.126 5.63635 9.55554V9.55554ZM5.63635 6.44444C5.63636 6.87399 5.28813 7.22222 4.85858 7.22222H3.86866C3.43911 7.22222 3.09089 6.874 3.09089 6.44445V6.44445C3.09089 6.0149 3.43911 5.66668 3.86866 5.66668H4.85858C5.28813 5.66668 5.63634 6.01489 5.63635 6.44444V6.44444ZM9.2727 12.6667C9.2727 13.0962 8.92448 13.4444 8.49493 13.4444H7.50502C7.07547 13.4444 6.72726 13.0962 6.72726 12.6667V12.6667C6.72726 12.2371 7.07547 11.8889 7.50502 11.8889H8.49493C8.92448 11.8889 9.2727 12.2371 9.2727 12.6667V12.6667ZM9.2727 9.55556C9.2727 9.98511 8.92448 10.3333 8.49493 10.3333H7.50502C7.07547 10.3333 6.72726 9.98511 6.72726 9.55556V9.55556C6.72726 9.12601 7.07547 8.77779 7.50502 8.77779H8.49493C8.92448 8.77779 9.2727 9.12601 9.2727 9.55556V9.55556ZM9.2727 6.44445C9.2727 6.874 8.92448 7.22222 8.49493 7.22222H7.50502C7.07547 7.22222 6.72726 6.874 6.72726 6.44445V6.44445C6.72726 6.0149 7.07547 5.66668 7.50502 5.66668H8.49493C8.92448 5.66668 9.2727 6.0149 9.2727 6.44445V6.44445ZM12.909 12.6667C12.9091 13.0962 12.5608 13.4444 12.1313 13.4444H11.1414C10.7118 13.4444 10.3636 13.0962 10.3636 12.6667V12.6667C10.3636 12.2371 10.7118 11.8889 11.1414 11.8889H12.1313C12.5608 11.8889 12.909 12.2371 12.909 12.6667V12.6667ZM12.909 9.55554C12.9091 9.9851 12.5608 10.3333 12.1313 10.3333H11.1414C10.7118 10.3333 10.3636 9.98511 10.3636 9.55556V9.55556C10.3636 9.12601 10.7118 8.77779 11.1414 8.77779H12.1313C12.5608 8.77779 12.909 9.126 12.909 9.55554V9.55554ZM12.909 6.44444C12.9091 6.87399 12.5608 7.22222 12.1313 7.22222H11.1414C10.7118 7.22222 10.3636 6.874 10.3636 6.44445V6.44445C10.3636 6.0149 10.7118 5.66668 11.1414 5.66668H12.1313C12.5608 5.66668 12.909 6.01489 12.909 6.44444V6.44444Z" fill="#554646"/>
<path d="M13.4545 1H2.54546C2.24422 1 2 1.29849 2 1.66667V4.33333C2 4.70151 2.24422 5 2.54546 5H3.09092H5.63637H6.72727H9.27273H10.3636H12.9091H13.4545C13.7558 5 14 4.70151 14 4.33333V1.66667C14 1.29849 13.7558 1 13.4545 1Z" fill="#CD3D3C"/>
<path fill-rule="evenodd" clip-rule="evenodd" d="M5 4.9978H4V14.0001H5V4.9978ZM3 3.9978V15.0001H6V3.9978H3Z" fill="#FF4847"/>
<path d="M2 9H3V11H2V9Z" fill="#FF4847"/>
<path opacity="0.1" d="M8.84403 9.60585L8.90147 10.0004L10.7165 8.56782C9.9769 8.67152 9.31253 9.04931 8.84403 9.60585Z" fill="black"/>
<path opacity="0.1" d="M8.62486 9.90097C8.38206 10.2743 8.21909 10.7077 8.16347 11.1799C8.14159 11.3657 8.13741 11.5494 8.14927 11.7296L8.76995 12.1925L9.06201 9.71285L8.62486 9.90097Z" fill="black"/>
<path opacity="0.1" d="M8.68016 11.8754L8.36598 12.6642C8.57859 13.1815 8.93312 13.6307 9.38682 13.9577L10.227 13.8353L8.68016 11.8754Z" fill="black"/>
<path opacity="0.1" d="M9.93945 13.6746L10.2455 14.3858C10.418 14.4392 10.5977 14.4778 10.7835 14.4997C11.2557 14.5553 11.7151 14.4975 12.1346 14.3481L12.4191 13.9666L9.93945 13.6746L9.93945 13.6746Z" fill="black"/>
<path opacity="0.1" d="M12.1022 14.0563L12.4726 14.2038C13.1227 13.8775 13.6446 13.319 13.9173 12.6237L12.1022 14.0563Z" fill="black"/>
<path fill-rule="evenodd" clip-rule="evenodd" d="M10.6678 8.37645C10.668 8.37637 10.6683 8.37628 10.6686 8.3762L11.8043 6.8536C11.9077 6.71498 12.1223 6.74026 12.1907 6.89911L12.9415 8.64398C12.9418 8.64412 12.942 8.64425 12.9422 8.64438L14.822 8.37075C14.9931 8.34582 15.1271 8.51551 15.0631 8.67617L14.3601 10.441C14.3602 10.4412 14.3603 10.4414 14.3603 10.4417L15.883 11.5774C16.0217 11.6808 15.9964 11.8955 15.8375 11.9638L14.0926 12.7146C14.0925 12.7148 14.0924 12.715 14.0923 12.7152L14.3659 14.5951C14.3909 14.7662 14.2212 14.9001 14.0605 14.8361L12.2958 14.1333C12.2955 14.1333 12.2952 14.1334 12.2949 14.1335L11.1592 15.6562C11.0558 15.7948 10.8412 15.7695 10.7728 15.6107L10.022 13.8658C10.0217 13.8657 10.0215 13.8655 10.0212 13.8654L8.14156 14.139C7.97041 14.1639 7.83649 13.9943 7.90049 13.8336L8.60333 12.069C8.60324 12.0687 8.60315 12.0683 8.60306 12.068L7.08046 10.9324C6.94184 10.829 6.96713 10.6143 7.12598 10.546L8.87074 9.79518C8.87092 9.79486 8.8711 9.79455 8.87128 9.79423L8.59767 7.91467C8.57275 7.74353 8.74243 7.6096 8.9031 7.6736L10.6678 8.37645Z" fill="#FFA724"/>
<path d="M11.2044 13.6072C12.5036 13.7602 13.6808 12.8311 13.8338 11.532C13.9868 10.2329 13.0577 9.05567 11.7585 8.90266C10.4594 8.74965 9.28221 9.67876 9.1292 10.9779C8.97619 12.277 9.9053 13.4542 11.2044 13.6072Z" fill="#F7D64C"/>
<path opacity="0.3" d="M12.2059 8.99929C12.1176 9.13244 12.0582 9.28759 12.0383 9.45705C11.9702 10.0347 12.3834 10.5581 12.961 10.6261C13.235 10.6584 13.4968 10.5822 13.7036 10.4317C13.4545 9.7611 12.9078 9.22368 12.2059 8.99929Z" fill="white"/>
</g>
<defs>
<clipPath id="clip0_312_1849">
<rect width="16" height="16" fill="white"/>
</clipPath>
</defs>
</svg>
