<svg width="16" height="16" viewBox="0 0 16 16" fill="none" xmlns="http://www.w3.org/2000/svg">
<g clip-path="url(#clip0_312_2163)">
<path fill-rule="evenodd" clip-rule="evenodd" d="M2.03745 9.05227C1.45633 9.05227 0.985228 8.58117 0.985228 8.00005C0.985228 7.41893 1.45633 6.94783 2.03745 6.94779H2.48714C2.63271 6.18045 2.93427 5.46842 3.35796 4.84602L3.03983 4.52789C2.62891 4.11697 2.62891 3.45073 3.03983 3.03981C3.45075 2.62889 4.11699 2.62889 4.52791 3.03981L4.84604 3.35795C5.46843 2.93425 6.18046 2.63269 6.94781 2.48712V2.03746C6.94781 1.45634 7.41891 0.985244 8.00003 0.985244C8.58115 0.985244 9.05225 1.45634 9.05225 2.03746V2.48712C9.8196 2.63269 10.5316 2.93428 11.1541 3.35798L11.4722 3.03985C11.8831 2.62893 12.5493 2.62893 12.9603 3.03985C13.3712 3.45077 13.3712 4.117 12.9603 4.52793L12.6421 4.84606C13.0658 5.46845 13.3674 6.18048 13.513 6.94783H13.9626C14.5437 6.94783 15.0148 7.41893 15.0148 8.00005C15.0148 8.58117 14.5437 9.05227 13.9626 9.05227H13.513C13.3674 9.81958 13.0658 10.5316 12.6421 11.1541L12.9602 11.4722C13.3712 11.8831 13.3712 12.5494 12.9602 12.9603C12.5493 13.3712 11.8831 13.3712 11.4722 12.9603L11.154 12.6421C10.5316 13.0658 9.8196 13.3674 9.05225 13.513V13.9626C9.05225 14.5437 8.58112 15.0148 8 15.0148C7.41888 15.0148 6.94778 14.5437 6.94778 13.9626V13.5129C6.18043 13.3674 5.4684 13.0658 4.84601 12.6421L4.52787 12.9602C4.11695 13.3712 3.45072 13.3712 3.0398 12.9602C2.62888 12.5493 2.62888 11.8831 3.0398 11.4722L3.35793 11.154C2.93423 10.5316 2.63268 9.81961 2.48711 9.05227H2.03745ZM8.00003 9.77568C8.98068 9.77568 9.77566 8.9807 9.77566 8.00005C9.77566 7.0194 8.98068 6.22442 8.00003 6.22442C7.01938 6.22442 6.2244 7.0194 6.2244 8.00005C6.2244 8.9807 7.01938 9.77568 8.00003 9.77568Z" fill="#6A5F5F"/>
<path d="M8.00001 12.3433C10.3949 12.3433 12.3433 10.3949 12.3433 8.00005C12.3433 5.60516 10.3949 3.65679 8.00001 3.65679C5.60512 3.65679 3.65675 5.60516 3.65675 8.00005C3.65675 10.3949 5.60512 12.3433 8.00001 12.3433ZM8.00001 11.7888C5.91084 11.7888 4.21123 10.0892 4.21123 8.00005C4.21123 5.91091 5.91084 4.21127 8.00001 4.21127C10.0892 4.21127 11.7888 5.91087 11.7888 8.00005C11.7888 10.0892 10.0892 11.7888 8.00001 11.7888ZM8.00001 15.3004C8.73377 15.3004 9.3307 14.7035 9.3307 13.9697V13.7446C9.96652 13.5983 10.5669 13.3495 11.1208 13.0028L11.2802 13.1622C11.799 13.6811 12.6433 13.6811 13.1622 13.1622C13.681 12.6434 13.681 11.7992 13.1622 11.2803L13.0027 11.1209C13.3494 10.567 13.5982 9.96655 13.7445 9.33077H13.9697C14.7034 9.33077 15.3003 8.73384 15.3003 8.00008C15.3003 7.26632 14.7034 6.66939 13.9697 6.66939H13.7445C13.5982 6.03357 13.3494 5.43321 13.0028 4.87925L13.1622 4.71986C13.681 4.20101 13.681 3.3568 13.1622 2.83792C12.6434 2.31921 11.7992 2.31914 11.2803 2.83792L11.1209 2.99734C10.5669 2.65065 9.96652 2.40189 9.33073 2.2556V2.0304C9.33073 1.29664 8.7338 0.699707 8.00005 0.699707C7.26629 0.699707 6.66936 1.29664 6.66936 2.0304V2.25553C6.03354 2.40182 5.43314 2.65061 4.87922 2.99727L4.71982 2.83785C4.20091 2.31907 3.35669 2.31914 2.83788 2.83785C2.31907 3.3567 2.31907 4.20091 2.83788 4.71979L2.99731 4.87922C2.65068 5.43311 2.40189 6.0335 2.25559 6.66932H2.0304C1.29664 6.66932 0.699707 7.26625 0.699707 8.00001C0.699707 8.73377 1.29664 9.3307 2.0304 9.3307H2.25559C2.40189 9.96652 2.65068 10.5669 2.99731 11.1208L2.83788 11.2802C2.31907 11.7991 2.31907 12.6433 2.83788 13.1622C3.35669 13.681 4.20091 13.681 4.71982 13.1622L4.87922 13.0027C5.43311 13.3494 6.03357 13.5982 6.66936 13.7445V13.9696C6.66932 14.7035 7.26625 15.3004 8.00001 15.3004ZM8.00001 14.7459C7.57201 14.7459 7.22376 14.3977 7.22376 13.9697V13.5195C7.22376 13.3862 7.12901 13.2719 6.99819 13.2471C6.27818 13.1105 5.60533 12.8317 4.99831 12.4185C4.88823 12.3436 4.74043 12.3574 4.64627 12.4516L4.32776 12.7701C4.02509 13.0728 3.53262 13.0728 3.23002 12.7701C2.92735 12.4674 2.92735 11.975 3.23002 11.6724L3.54853 11.3539C3.64266 11.2597 3.65658 11.1119 3.58165 11.0018C3.16836 10.3948 2.8896 9.72188 2.75297 9.0019C2.72818 8.87108 2.61378 8.77636 2.48062 8.77636H2.0304C1.60239 8.77636 1.25415 8.42812 1.25415 8.00011C1.25415 7.57211 1.60239 7.22387 2.0304 7.22387H2.48062C2.61381 7.22387 2.72818 7.12912 2.75297 6.99833C2.8896 6.27832 3.16836 5.60543 3.58165 4.99842C3.65655 4.8883 3.64266 4.74054 3.54853 4.64637L3.23002 4.32786C2.92735 4.02519 2.92735 3.53272 3.23002 3.23012C3.53268 2.92739 4.02519 2.92745 4.32776 3.23012L4.64627 3.54863C4.74043 3.64276 4.8883 3.65672 4.99831 3.58176C5.60536 3.1685 6.27822 2.8897 6.99819 2.75311C7.12905 2.72832 7.22376 2.61395 7.22376 2.48076V2.0304C7.22376 1.60239 7.57201 1.25415 8.00001 1.25415C8.42802 1.25415 8.77626 1.60239 8.77626 2.0304V2.48062C8.77626 2.61385 8.87101 2.72818 9.00183 2.75297C9.72181 2.88956 10.3947 3.16833 11.0017 3.58165C11.1119 3.65658 11.2597 3.64266 11.3538 3.54849L11.6723 3.22998C11.9749 2.92735 12.4674 2.92732 12.77 3.23002C13.0727 3.53268 13.0727 4.02516 12.77 4.32776L12.4515 4.64627C12.3574 4.74043 12.3434 4.88827 12.4184 4.99831C12.8317 5.60536 13.1104 6.27822 13.247 6.99819C13.2718 7.12905 13.3862 7.22377 13.5194 7.22377H13.9697C14.3977 7.22377 14.7459 7.57201 14.7459 8.00001C14.7459 8.42802 14.3977 8.77626 13.9697 8.77626H13.5194C13.3862 8.77626 13.2719 8.87101 13.2471 9.00184C13.1105 9.72184 12.8317 10.3947 12.4184 11.0017C12.3435 11.1118 12.3574 11.2596 12.4516 11.3538L12.7701 11.6723C13.0727 11.9749 13.0727 12.4674 12.7701 12.77C12.4674 13.0727 11.9749 13.0727 11.6723 12.77L11.3539 12.4515C11.3003 12.3979 11.2292 12.3703 11.1577 12.3703C11.1036 12.3703 11.0492 12.3861 11.0018 12.4184C10.3947 12.8317 9.72181 13.1105 9.00187 13.247C8.87101 13.2718 8.77629 13.3862 8.77629 13.5194V13.9696C8.77626 14.3977 8.42802 14.7459 8.00001 14.7459Z" fill="#CECECE"/>
<path d="M16 13C16 14.6569 14.6569 16 13 16C11.3431 16 10 14.6569 10 13C10 11.3431 11.3431 10 13 10C14.6569 10 16 11.3431 16 13Z" fill="#12D025"/>
<path fill-rule="evenodd" clip-rule="evenodd" d="M13 15.5C14.3807 15.5 15.5 14.3807 15.5 13C15.5 11.6193 14.3807 10.5 13 10.5C11.6193 10.5 10.5 11.6193 10.5 13C10.5 14.3807 11.6193 15.5 13 15.5ZM13 16C14.6569 16 16 14.6569 16 13C16 11.3431 14.6569 10 13 10C11.3431 10 10 11.3431 10 13C10 14.6569 11.3431 16 13 16Z" fill="#212121"/>
<path fill-rule="evenodd" clip-rule="evenodd" d="M12.5104 14.3302C12.5104 14.6075 12.7353 14.8324 13.0126 14.8324C13.29 14.8324 13.5149 14.6075 13.5149 14.3302V13.5022H14.3301C14.6074 13.5022 14.8323 13.2774 14.8323 13C14.8323 12.7227 14.6074 12.4978 14.3301 12.4978H13.5149V11.6698C13.5149 11.3925 13.29 11.1676 13.0126 11.1676C12.7353 11.1676 12.5104 11.3925 12.5104 11.6698V12.4978H11.6697C11.3923 12.4978 11.1675 12.7227 11.1675 13C11.1675 13.2774 11.3923 13.5022 11.6697 13.5022H12.5104V14.3302Z" fill="white"/>
<path fill-rule="evenodd" clip-rule="evenodd" d="M13.4149 13.4022H14.3301C14.5522 13.4022 14.7323 13.2222 14.7323 13C14.7323 12.7779 14.5522 12.5978 14.3301 12.5978H13.4149V11.6698C13.4149 11.4477 13.2348 11.2676 13.0126 11.2676C12.7905 11.2676 12.6104 11.4477 12.6104 11.6698V12.5978H11.6697C11.4476 12.5978 11.2675 12.7779 11.2675 13C11.2675 13.2222 11.4476 13.4022 11.6697 13.4022H12.6104V14.3302C12.6104 14.5523 12.7905 14.7324 13.0126 14.7324C13.2348 14.7324 13.4149 14.5523 13.4149 14.3302V13.4022ZM13.5149 14.3302C13.5149 14.6075 13.29 14.8324 13.0126 14.8324C12.7353 14.8324 12.5104 14.6075 12.5104 14.3302V13.5022H11.6697C11.3923 13.5022 11.1675 13.2774 11.1675 13C11.1675 12.7227 11.3923 12.4978 11.6697 12.4978H12.5104V11.6698C12.5104 11.3925 12.7353 11.1676 13.0126 11.1676C13.29 11.1676 13.5149 11.3925 13.5149 11.6698V12.4978H14.3301C14.6074 12.4978 14.8323 12.7227 14.8323 13C14.8323 13.2774 14.6074 13.5022 14.3301 13.5022H13.5149V14.3302Z" fill="#072E0B"/>
</g>
<defs>
<clipPath id="clip0_312_2163">
<rect width="16" height="16" fill="white"/>
</clipPath>
</defs>
</svg>
