<svg width="16" height="16" viewBox="0 0 16 16" fill="none" xmlns="http://www.w3.org/2000/svg">
<g clip-path="url(#clip0_312_2114)">
<path d="M6.2992 13.5386H13.1345C13.3644 13.5386 13.5508 13.3522 13.5508 13.1224V2.57668C13.5508 2.34677 13.3644 2.1604 13.1345 2.1604H2.58918C2.35928 2.1604 2.17292 2.34677 2.17292 2.57668V9.41222C2.17292 9.5226 2.21676 9.62848 2.29486 9.70657L6.00485 13.4167C6.0829 13.4948 6.18877 13.5386 6.2992 13.5386Z" fill="#FFD155"/>
<path fill-rule="evenodd" clip-rule="evenodd" d="M13.1345 13.2386H6.2992C6.26835 13.2386 6.23878 13.2264 6.21699 13.2046L2.50699 9.49444C2.48515 9.4726 2.47292 9.44303 2.47292 9.41222V2.57668C2.47292 2.51245 2.52497 2.4604 2.58918 2.4604H13.1345C13.1987 2.4604 13.2508 2.51245 13.2508 2.57668V13.1224C13.2508 13.1866 13.1987 13.2386 13.1345 13.2386ZM13.1345 13.5386H6.2992C6.18877 13.5386 6.0829 13.4948 6.00485 13.4167L2.29486 9.70657C2.21676 9.62848 2.17292 9.5226 2.17292 9.41222V2.57668C2.17292 2.34677 2.35928 2.1604 2.58918 2.1604H13.1345C13.3644 2.1604 13.5508 2.34677 13.5508 2.57668V13.1224C13.5508 13.3522 13.3644 13.5386 13.1345 13.5386Z" fill="#EAB62A"/>
<path d="M10.9279 5.65018H4.79566C4.56578 5.65018 4.37939 5.46381 4.37939 5.2339C4.37939 5.00402 4.56576 4.81763 4.79566 4.81763H10.9279C11.1578 4.81763 11.3442 5.004 11.3442 5.2339C11.3442 5.46381 11.1578 5.65018 10.9279 5.65018Z" fill="#FFC72D"/>
<path fill-rule="evenodd" clip-rule="evenodd" d="M4.79566 5.35018H10.9279C10.9921 5.35018 11.0442 5.29811 11.0442 5.2339C11.0442 5.16968 10.9921 5.11763 10.9279 5.11763H4.79566C4.73146 5.11763 4.67939 5.16969 4.67939 5.2339C4.67939 5.29812 4.73147 5.35018 4.79566 5.35018ZM4.79566 5.65018H10.9279C11.1578 5.65018 11.3442 5.46381 11.3442 5.2339C11.3442 5.004 11.1578 4.81763 10.9279 4.81763H4.79566C4.56576 4.81763 4.37939 5.00402 4.37939 5.2339C4.37939 5.46381 4.56578 5.65018 4.79566 5.65018Z" fill="#EAB62A"/>
<path d="M10.9279 7.86222H4.79566C4.56578 7.86222 4.37939 7.67585 4.37939 7.44594C4.37939 7.21606 4.56576 7.02966 4.79566 7.02966H10.9279C11.1578 7.02966 11.3442 7.21603 11.3442 7.44594C11.3442 7.67585 11.1578 7.86222 10.9279 7.86222Z" fill="#FFC72D"/>
<path fill-rule="evenodd" clip-rule="evenodd" d="M4.79566 7.56222H10.9279C10.9921 7.56222 11.0442 7.51015 11.0442 7.44594C11.0442 7.38172 10.9921 7.32966 10.9279 7.32966H4.79566C4.73146 7.32966 4.67939 7.38172 4.67939 7.44594C4.67939 7.51016 4.73147 7.56222 4.79566 7.56222ZM4.79566 7.86222H10.9279C11.1578 7.86222 11.3442 7.67585 11.3442 7.44594C11.3442 7.21603 11.1578 7.02966 10.9279 7.02966H4.79566C4.56576 7.02966 4.37939 7.21606 4.37939 7.44594C4.37939 7.67585 4.56578 7.86222 4.79566 7.86222Z" fill="#EAB62A"/>
<path d="M6.29965 13.5387C6.52881 13.5387 6.71582 13.3526 6.71582 13.1224V9.41225C6.71582 9.18234 6.52946 8.99597 6.29956 8.99597H2.58956C2.22019 8.99597 2.03316 9.44452 2.29524 9.70661L6.00525 13.4167C6.08486 13.4964 6.19135 13.5387 6.29965 13.5387Z" fill="#FFC72D"/>
<path fill-rule="evenodd" clip-rule="evenodd" d="M6.21742 13.2046L6.21739 13.2046L2.50737 9.49448C2.43493 9.42203 2.48654 9.29597 2.58956 9.29597H6.29956C6.36376 9.29597 6.41582 9.34802 6.41582 9.41225V13.1224C6.41582 13.1865 6.36355 13.2387 6.29965 13.2387C6.26919 13.2387 6.23954 13.2268 6.21742 13.2046ZM6.00525 13.4167L2.29524 9.70661C2.03316 9.44452 2.22019 8.99597 2.58956 8.99597H6.29956C6.52946 8.99597 6.71582 9.18234 6.71582 9.41225V13.1224C6.71582 13.3526 6.52881 13.5387 6.29965 13.5387C6.19135 13.5387 6.08486 13.4964 6.00525 13.4167Z" fill="#EAB62A"/>
<path opacity="0.1" d="M8.84403 9.60585L8.90147 10.0004L10.7165 8.56782C9.9769 8.67152 9.31253 9.04931 8.84403 9.60585Z" fill="black"/>
<path opacity="0.1" d="M8.62486 9.90097C8.38206 10.2743 8.21909 10.7077 8.16347 11.1799C8.14159 11.3657 8.13741 11.5494 8.14927 11.7296L8.76995 12.1925L9.06201 9.71285L8.62486 9.90097Z" fill="black"/>
<path opacity="0.1" d="M8.68016 11.8754L8.36598 12.6642C8.57859 13.1815 8.93312 13.6307 9.38682 13.9577L10.227 13.8353L8.68016 11.8754Z" fill="black"/>
<path opacity="0.1" d="M9.93945 13.6746L10.2455 14.3858C10.418 14.4392 10.5977 14.4778 10.7835 14.4997C11.2557 14.5553 11.7151 14.4975 12.1346 14.3481L12.4191 13.9666L9.93945 13.6746L9.93945 13.6746Z" fill="black"/>
<path opacity="0.1" d="M12.1022 14.0563L12.4726 14.2038C13.1227 13.8775 13.6446 13.319 13.9173 12.6237L12.1022 14.0563Z" fill="black"/>
<path fill-rule="evenodd" clip-rule="evenodd" d="M10.6678 8.37645C10.668 8.37637 10.6683 8.37628 10.6686 8.3762L11.8043 6.8536C11.9077 6.71498 12.1223 6.74026 12.1907 6.89911L12.9415 8.64398C12.9418 8.64412 12.942 8.64425 12.9422 8.64438L14.822 8.37075C14.9931 8.34582 15.1271 8.51551 15.0631 8.67617L14.3601 10.441C14.3602 10.4412 14.3603 10.4414 14.3603 10.4417L15.883 11.5774C16.0217 11.6808 15.9964 11.8955 15.8375 11.9638L14.0926 12.7146C14.0925 12.7148 14.0924 12.715 14.0923 12.7152L14.3659 14.5951C14.3909 14.7662 14.2212 14.9001 14.0605 14.8361L12.2958 14.1333C12.2955 14.1333 12.2952 14.1334 12.2949 14.1335L11.1592 15.6562C11.0558 15.7948 10.8412 15.7695 10.7728 15.6107L10.022 13.8658C10.0217 13.8657 10.0215 13.8655 10.0212 13.8654L8.14156 14.139C7.97041 14.1639 7.83649 13.9943 7.90049 13.8336L8.60333 12.069C8.60324 12.0687 8.60315 12.0683 8.60306 12.068L7.08046 10.9324C6.94184 10.829 6.96713 10.6143 7.12598 10.546L8.87074 9.79518C8.87092 9.79486 8.8711 9.79455 8.87128 9.79423L8.59767 7.91467C8.57275 7.74353 8.74243 7.6096 8.9031 7.6736L10.6678 8.37645Z" fill="#FFA724"/>
<path d="M11.2044 13.6072C12.5036 13.7602 13.6808 12.8311 13.8338 11.532C13.9868 10.2329 13.0577 9.05567 11.7585 8.90266C10.4594 8.74965 9.28221 9.67876 9.1292 10.9779C8.97619 12.277 9.9053 13.4542 11.2044 13.6072Z" fill="#F7D64C"/>
<path opacity="0.3" d="M12.2059 8.99929C12.1176 9.13244 12.0582 9.28759 12.0383 9.45705C11.9702 10.0347 12.3834 10.5581 12.961 10.6261C13.235 10.6584 13.4968 10.5822 13.7036 10.4317C13.4545 9.7611 12.9078 9.22368 12.2059 8.99929Z" fill="white"/>
</g>
<defs>
<clipPath id="clip0_312_2114">
<rect width="16" height="16" fill="white"/>
</clipPath>
</defs>
</svg>
