<svg width="16" height="16" viewBox="0 0 16 16" fill="none" xmlns="http://www.w3.org/2000/svg">
<path d="M14.105 7.06957L9.53126 3.94124C9.3273 3.81939 9.09668 3.74915 8.85942 3.73662C8.62216 3.7241 8.38543 3.76965 8.16977 3.86935C7.95411 3.96904 7.76603 4.11985 7.62186 4.3087C7.47769 4.49755 7.38179 4.71873 7.34246 4.95304L7.34246 6.60496L3.05617 6.61529C2.67043 6.61643 2.30082 6.77018 2.02806 7.04294C1.7553 7.3157 1.60156 7.68531 1.60041 8.07104C1.60156 8.45678 1.7553 8.82639 2.02806 9.09915C2.30082 9.37191 2.67043 9.52565 3.05617 9.5268L7.34246 9.53713L7.34246 11.1891C7.38178 11.4234 7.47769 11.6445 7.62186 11.8334C7.76603 12.0222 7.95411 12.1731 8.16977 12.2727C8.38543 12.3724 8.62216 12.418 8.85942 12.4055C9.09668 12.3929 9.3273 12.3227 9.53126 12.2009L14.105 9.07252C14.2712 8.96362 14.4078 8.81504 14.5022 8.64021C14.5967 8.46537 14.6462 8.26977 14.6462 8.07104C14.6462 7.87232 14.5967 7.67672 14.5022 7.50188C14.4078 7.32705 14.2712 7.17847 14.105 7.06957Z" fill="#5D5D5D"/>
</svg>
