<svg width="17" height="17" viewBox="0 0 17 17" fill="none" xmlns="http://www.w3.org/2000/svg">
<g clip-path="url(#clip0_358_1340)">
<path d="M6.31237 2.54208L6.86564 3.45219C7.11959 3.86993 7.57306 4.12495 8.06193 4.12495H13.7548C14.0862 4.12495 14.3548 4.39358 14.3548 4.72495V14.0439C14.3548 14.3753 14.0862 14.6439 13.7548 14.6439H1.67383C1.34246 14.6439 1.07383 14.3753 1.07383 14.0439V3.72495V2.85376C1.07383 2.52239 1.34246 2.25376 1.67383 2.25376H5.79968C6.00919 2.25376 6.20354 2.36305 6.31237 2.54208Z" stroke="#4B4949" stroke-width="0.8"/>
<path d="M2.41375 7.85296C2.52233 7.40421 2.92401 7.08814 3.38571 7.08814L15.3266 7.08825C15.974 7.08826 16.4508 7.69415 16.2985 8.32344L14.8575 14.2789C14.7489 14.7277 14.3472 15.0437 13.8855 15.0437L1.94464 15.0436C1.2972 15.0436 0.820434 14.4377 0.972703 13.8084L2.41375 7.85296Z" fill="#4B4949"/>
</g>
<defs>
<clipPath id="clip0_358_1340">
<rect width="16" height="16" fill="white" transform="translate(0.5 0.448975)"/>
</clipPath>
</defs>
</svg>
