<svg width="16" height="16" viewBox="0 0 16 16" fill="none" xmlns="http://www.w3.org/2000/svg">
<path d="M10.3626 7.31203L15.4999 4.39416L10.3626 1.5L5.24951 4.4416L10.3626 7.31203Z" fill="#FFA724"/>
<path fill-rule="evenodd" clip-rule="evenodd" d="M15.4999 4.39416L10.3626 1.5L5.24951 4.4416L10.3626 7.31203L15.4999 4.39416ZM15.3349 4.39444L10.363 1.59349L5.41395 4.44074L10.3624 7.21872L15.3349 4.39444Z" fill="#CA8319"/>
<path d="M5.66155 7.31203L10.7504 4.41788L5.66155 1.5L0.5 4.41788L5.66155 7.31203Z" fill="#FFBB57"/>
<path fill-rule="evenodd" clip-rule="evenodd" d="M10.7504 4.41788L5.66155 1.5L0.5 4.41788L5.66155 7.31203L10.7504 4.41788ZM10.5866 4.41759L5.66127 1.5935L0.665614 4.41759L5.66127 7.21872L10.5866 4.41759Z" fill="#CA8319"/>
<path d="M13.1011 11.5821L8.0122 14.5L2.92334 11.5821V5.77005L8.0122 2.85217L13.1011 5.77005V11.5821Z" fill="#FFBB57"/>
<path fill-rule="evenodd" clip-rule="evenodd" d="M13.0198 11.535V5.81712L8.0122 2.94583L3.00459 5.81712V11.535L8.0122 14.4063L13.0198 11.535ZM8.0122 14.5L13.1011 11.5821V5.77005L8.0122 2.85217L2.92334 5.77005V11.5821L8.0122 14.5Z" fill="#CA8319"/>
<path d="M8.01221 2.85217L13.1011 5.77005V11.5821L8.01221 14.5" fill="#FFA724"/>
<path fill-rule="evenodd" clip-rule="evenodd" d="M8.01221 14.5L13.1011 11.5821V5.77005L8.01221 2.85217V2.94583L13.0198 5.81712V11.535L8.01221 14.4063V14.5Z" fill="#CA8319"/>
<path d="M10.3871 9.99266L15.5002 7.12222L10.3629 4.20435L5.22559 7.12222L10.3871 9.99266Z" fill="#FFBB57"/>
<path fill-rule="evenodd" clip-rule="evenodd" d="M15.5002 7.12222L10.3629 4.20435L5.22559 7.12222L10.3871 9.99266L15.5002 7.12222ZM15.335 7.12181L10.3629 4.29779L5.39142 7.12148L10.387 9.89958L15.335 7.12181Z" fill="#CA8319"/>
<path d="M5.66156 10.0401L10.7746 7.0985L5.66156 4.20435L0.5 7.12222L5.66156 10.0401Z" fill="#FFA724"/>
<path fill-rule="evenodd" clip-rule="evenodd" d="M10.7746 7.0985L5.66156 4.20435L0.5 7.12222L5.66156 10.0401L10.7746 7.0985ZM10.6107 7.09907L5.66153 4.29769L0.665103 7.12222L5.6612 9.94657L10.6107 7.09907Z" fill="#CA8319"/>
<path d="M8.03656 8.68793L13.1012 5.77005L8.03656 2.85217L2.875 5.77005L8.03656 8.68793Z" fill="#BF8122"/>
<path fill-rule="evenodd" clip-rule="evenodd" d="M13.1012 5.77005L8.03656 2.85217L2.875 5.77005L8.03656 8.68793L13.1012 5.77005ZM12.9384 5.77005L8.03617 2.94572L3.0401 5.77005L8.03617 8.59438L12.9384 5.77005Z" fill="#CA8319"/>
<path d="M8.03613 8.68793L13.1008 5.77005L8.03613 2.85217" fill="#9A6618"/>
<path fill-rule="evenodd" clip-rule="evenodd" d="M8.03613 8.68793L13.1008 5.77005L8.03613 2.85217V2.94594L12.938 5.77005L8.03613 8.59416V8.68793Z" fill="#CA8319"/>
<path fill-rule="evenodd" clip-rule="evenodd" d="M7.9502 14.4255L7.99527 8.66528L8.09526 8.66607L8.05019 14.4263L7.9502 14.4255Z" fill="#CA8319"/>
<path d="M8.01821 8.58106L9.06357 7.98307L8.01821 7.4408L6.98145 8.0135L8.01821 8.58106Z" fill="#54370B"/>
</svg>
