<svg width="16" height="16" viewBox="0 0 16 16" fill="none" xmlns="http://www.w3.org/2000/svg">
<g clip-path="url(#clip0_312_2455)">
<path d="M2.37891 3.47095H13.6207V5.68215H2.37891V3.47095Z" fill="#484848"/>
<path d="M2.00427 14.6175H13.9955C14.8199 14.6175 15.4944 13.8864 15.4944 12.9929V9.74365H0.505371V12.9929C0.505371 13.8864 1.17988 14.6175 2.00427 14.6175Z" fill="#6B6B6B"/>
<path d="M13.0586 12.5867H2.94099C2.64121 12.5867 2.37891 12.3024 2.37891 11.9775C2.37891 11.6526 2.64121 11.3683 2.94099 11.3683H13.0586C13.3583 11.3683 13.6207 11.6526 13.6207 11.9775C13.6207 12.3024 13.3583 12.5867 13.0586 12.5867Z" fill="#1B1B1B"/>
<path d="M12.898 3.55202C12.9005 3.5546 12.9019 3.55805 12.9019 3.56164L12.9018 5.49251C12.9018 6.0448 12.4541 6.49251 11.9018 6.49251H4.09766C3.54537 6.49251 3.09766 6.04479 3.09766 5.49251L3.09766 1.8363C3.09767 1.28402 3.54538 0.836304 4.09766 0.836304H9.85936C10.1313 0.836304 10.3914 0.947019 10.58 1.14295L12.898 3.55202V3.55202Z" fill="#FC7B24"/>
<path d="M4.02395 2.87659C4.02395 2.40217 4.40854 2.01758 4.88296 2.01758L9.93364 2.01758C10.2697 2.01758 10.5111 2.34108 10.4153 2.66322V2.66322C10.3055 3.03298 10.6359 3.38354 11.0115 3.29564L11.2124 3.24863C11.6028 3.15727 11.9765 3.45359 11.9765 3.85457L11.9765 5.58783C11.9765 6.06225 11.5919 6.44684 11.1175 6.44684H4.88294C4.40852 6.44684 4.02392 6.06224 4.02393 5.58782L4.02395 2.87659Z" fill="#F2A571"/>
<path d="M12.7323 3.38262C12.7935 3.44615 12.7484 3.55196 12.6603 3.55196H10.3822C10.327 3.55196 10.2822 3.50719 10.2822 3.45196V1.08445C10.2822 0.994432 10.3919 0.950249 10.4543 1.01512L12.7323 3.38262Z" fill="#FC7B24"/>
<path d="M12.7323 3.38262C12.7935 3.44615 12.7484 3.55196 12.6603 3.55196H10.3822C10.327 3.55196 10.2822 3.50719 10.2822 3.45196V1.08445C10.2822 0.994432 10.3919 0.950249 10.4543 1.01512L12.7323 3.38262Z" fill="white" fill-opacity="0.7"/>
<path d="M12.9014 13.9657L12.9014 14.2701C12.9014 14.8224 12.4536 15.2701 11.9014 15.2701H4.09717C3.54488 15.2701 3.09717 14.8223 3.09717 14.2701L3.09717 12.8346C3.09718 12.2823 3.54489 11.8346 4.09717 11.8346H10.2844H11.8975C12.4498 11.8346 12.8975 12.2823 12.8975 12.8346V13.2956L12.9014 13.9657Z" fill="#FC7B24"/>
<path d="M4.02344 12.6902C4.02344 12.2158 4.40803 11.8312 4.88245 11.8312L10.6067 11.8312H11.397C11.7168 11.8312 11.976 12.0904 11.976 12.4102V12.4102L11.976 13.5357C11.976 14.0101 11.5914 14.3947 11.117 14.3947H4.88245C4.40803 14.3947 4.02344 14.0101 4.02344 13.5357V12.6902Z" fill="#F2A571"/>
<path d="M3.09375 11.8312H12.9017V12.7489H3.09375V11.8312Z" fill="#AD561B"/>
<path d="M0.505371 10.1498H15.4944V7.30674C15.4944 6.4132 14.8199 5.68213 13.9955 5.68213H2.00427C1.17988 5.68213 0.505371 6.4132 0.505371 7.30674V10.1498Z" fill="#B8B6B6"/>
<path fill-rule="evenodd" clip-rule="evenodd" d="M15.4944 7.30674C15.4944 6.4132 14.8199 5.68213 13.9955 5.68213H2.00427C1.17988 5.68213 0.505371 6.4132 0.505371 7.30674V10.1498H15.4944V7.30674ZM15.3944 10.0498V7.30674C15.3944 6.4607 14.7572 5.78213 13.9955 5.78213H2.00427C1.24253 5.78213 0.605371 6.4607 0.605371 7.30674V10.0498H15.3944Z" fill="#A0A0A0"/>
<path d="M13.7358 5.70984H2.26481V7.44011C2.26481 7.98391 2.78101 8.42883 3.41191 8.42883H12.5887C13.2196 8.42883 13.7358 7.98391 13.7358 7.44011V5.70984Z" fill="#E4E4E4"/>
<path fill-rule="evenodd" clip-rule="evenodd" d="M2.26481 7.44011C2.26481 7.98391 2.78101 8.42883 3.41191 8.42883H12.5887C13.2196 8.42883 13.7358 7.98391 13.7358 7.44011V5.70984H2.26481V7.44011ZM2.36481 5.80984V7.44011C2.36481 7.91525 2.82178 8.32883 3.41191 8.32883H12.5887C13.1789 8.32883 13.6358 7.91525 13.6358 7.44011V5.80984H2.36481Z" fill="#9D9D9D"/>
<path d="M12.0771 7.41938C12.0771 7.473 12.0877 7.52609 12.1083 7.57562C12.1289 7.62516 12.159 7.67017 12.197 7.70808C12.235 7.74599 12.2801 7.77606 12.3297 7.79658C12.3793 7.8171 12.4325 7.82766 12.4863 7.82766C12.54 7.82766 12.5932 7.8171 12.6428 7.79658C12.6925 7.77606 12.7376 7.74599 12.7756 7.70808C12.8135 7.67017 12.8437 7.62516 12.8642 7.57562C12.8848 7.52609 12.8954 7.473 12.8954 7.41938C12.8954 7.36577 12.8848 7.31268 12.8642 7.26314C12.8437 7.21361 12.8135 7.1686 12.7756 7.13069C12.7376 7.09278 12.6925 7.0627 12.6428 7.04219C12.5932 7.02167 12.54 7.01111 12.4863 7.01111C12.4325 7.01111 12.3793 7.02167 12.3297 7.04219C12.2801 7.0627 12.235 7.09278 12.197 7.13069C12.159 7.1686 12.1289 7.21361 12.1083 7.26314C12.0877 7.31268 12.0771 7.36577 12.0771 7.41938Z" fill="#34D945"/>
<path d="M12.7288 16C14.5354 16 16 14.5354 16 12.7288C16 10.9221 14.5354 9.45752 12.7288 9.45752C10.9221 9.45752 9.45752 10.9221 9.45752 12.7288C9.45752 14.5354 10.9221 16 12.7288 16Z" fill="#554646"/>
<path d="M13.2188 12.2433C12.9992 12.0491 12.7948 11.9582 12.7696 11.6902C12.6105 12.0136 12.651 11.9605 12.3738 12.1962L10.4421 13.8385C10.2069 14.0385 10.1792 14.3803 10.3792 14.6155C10.5791 14.8506 10.921 14.8783 11.1562 14.6784L13.0962 13.0289C13.3734 12.7933 13.2856 12.7811 13.6304 12.6761C13.37 12.6081 13.3378 12.3486 13.2188 12.2433Z" fill="#C43736"/>
<path d="M11.2749 13.7114L10.9893 13.3755L10.8213 13.5183L11.1069 13.8542C11.1498 13.9046 11.2119 13.9097 11.2623 13.8668C11.3127 13.824 11.3177 13.7618 11.2749 13.7114Z" fill="#E0E0E0"/>
<path d="M10.9264 14.1525C10.9768 14.1096 10.9818 14.0475 10.9389 13.9971L10.6533 13.6611L10.4853 13.8039L10.771 14.1399C10.8138 14.1903 10.876 14.1953 10.9264 14.1525Z" fill="#E0E0E0"/>
<path d="M13.3892 13.0139C13.6174 12.8 13.579 12.3845 13.3035 12.0858C13.0279 11.7872 12.6195 11.7185 12.3913 11.9324C12.163 12.1463 12.2014 12.5618 12.477 12.8605C12.7525 13.1592 13.1609 13.2279 13.3892 13.0139Z" fill="#6C6B6B"/>
<path d="M15.2716 11.3381L14.261 12.1404C14.2274 12.1689 14.164 12.1794 14.127 12.153C13.8002 11.9388 13.536 11.6281 13.3701 11.2627C13.3583 11.2148 13.3705 11.1611 13.4041 11.1325L14.4148 10.3302C13.9813 10.1778 13.4572 10.2762 13.0793 10.5975C12.5249 11.0688 12.457 11.9079 12.9283 12.4622C13.3996 13.0165 14.2387 13.0844 14.793 12.6132C15.1709 12.2918 15.3523 11.7904 15.2716 11.3381Z" fill="#AEBDCB"/>
</g>
<defs>
<clipPath id="clip0_312_2455">
<rect width="16" height="16" fill="white"/>
</clipPath>
</defs>
</svg>
