<svg width="16" height="16" viewBox="0 0 16 16" fill="none" xmlns="http://www.w3.org/2000/svg">
<path d="M2.03707 9.07252L6.61083 12.2009C6.81479 12.3227 7.04541 12.3929 7.28267 12.4055C7.51993 12.418 7.75666 12.3724 7.97232 12.2727C8.18798 12.173 8.37606 12.0222 8.52023 11.8334C8.6644 11.6445 8.7603 11.4234 8.79963 11.1891L8.79963 9.53713L13.0859 9.5268C13.4717 9.52566 13.8413 9.37191 14.114 9.09915C14.3868 8.82639 14.5405 8.45678 14.5417 8.07105C14.5405 7.68531 14.3868 7.3157 14.114 7.04294C13.8413 6.77018 13.4717 6.61644 13.0859 6.61529L8.79963 6.60496L8.79963 4.95304C8.7603 4.71873 8.6644 4.49755 8.52023 4.3087C8.37606 4.11985 8.18798 3.96904 7.97232 3.86935C7.75666 3.76965 7.51993 3.7241 7.28267 3.73662C7.04541 3.74915 6.81479 3.81939 6.61083 3.94124L2.03707 7.06957C1.87084 7.17847 1.73434 7.32705 1.63987 7.50188C1.5454 7.67672 1.49593 7.87232 1.49593 8.07104C1.49593 8.26977 1.5454 8.46537 1.63987 8.64021C1.73434 8.81504 1.87084 8.96361 2.03707 9.07252Z" fill="#5D5D5D"/>
</svg>
