<svg width="16" height="16" viewBox="0 0 16 16" fill="none" xmlns="http://www.w3.org/2000/svg">
<path d="M2.37891 3.47095H13.6207V5.68215H2.37891V3.47095Z" fill="#484848"/>
<path d="M2.00427 14.6175H13.9955C14.8199 14.6175 15.4944 13.8864 15.4944 12.9929V9.74365H0.505371V12.9929C0.505371 13.8864 1.17988 14.6175 2.00427 14.6175Z" fill="#6B6B6B"/>
<path d="M13.0586 12.5867H2.94099C2.64121 12.5867 2.37891 12.3024 2.37891 11.9775C2.37891 11.6526 2.64121 11.3683 2.94099 11.3683H13.0586C13.3583 11.3683 13.6207 11.6526 13.6207 11.9775C13.6207 12.3024 13.3583 12.5867 13.0586 12.5867Z" fill="#1B1B1B"/>
<path d="M0.505371 10.1498H15.4944V7.30674C15.4944 6.4132 14.8199 5.68213 13.9955 5.68213H2.00427C1.17988 5.68213 0.505371 6.4132 0.505371 7.30674V10.1498Z" fill="#B8B6B6"/>
<path fill-rule="evenodd" clip-rule="evenodd" d="M15.4944 7.30674C15.4944 6.4132 14.8199 5.68213 13.9955 5.68213H2.00427C1.17988 5.68213 0.505371 6.4132 0.505371 7.30674V10.1498H15.4944V7.30674ZM15.3944 10.0498V7.30674C15.3944 6.4607 14.7572 5.78213 13.9955 5.78213H2.00427C1.24253 5.78213 0.605371 6.4607 0.605371 7.30674V10.0498H15.3944Z" fill="#A0A0A0"/>
<path d="M13.7358 5.70996H2.26481V7.44023C2.26481 7.98403 2.78101 8.42896 3.41191 8.42896H12.5887C13.2196 8.42896 13.7358 7.98403 13.7358 7.44023V5.70996Z" fill="#E4E4E4"/>
<path fill-rule="evenodd" clip-rule="evenodd" d="M2.26481 7.44023C2.26481 7.98403 2.78101 8.42896 3.41191 8.42896H12.5887C13.2196 8.42896 13.7358 7.98403 13.7358 7.44023V5.70996H2.26481V7.44023ZM2.36481 5.80996V7.44023C2.36481 7.91537 2.82178 8.32896 3.41191 8.32896H12.5887C13.1789 8.32896 13.6358 7.91537 13.6358 7.44023V5.80996H2.36481Z" fill="#9D9D9D"/>
<path d="M12.0771 7.41951C12.0771 7.47312 12.0877 7.52621 12.1083 7.57575C12.1289 7.62528 12.159 7.67029 12.197 7.7082C12.235 7.74611 12.2801 7.77619 12.3297 7.7967C12.3793 7.81722 12.4325 7.82778 12.4863 7.82778C12.54 7.82778 12.5932 7.81722 12.6428 7.7967C12.6925 7.77619 12.7376 7.74611 12.7756 7.7082C12.8135 7.67029 12.8437 7.62528 12.8642 7.57575C12.8848 7.52621 12.8954 7.47312 12.8954 7.41951C12.8954 7.36589 12.8848 7.3128 12.8642 7.26327C12.8437 7.21373 12.8135 7.16872 12.7756 7.13081C12.7376 7.0929 12.6925 7.06283 12.6428 7.04231C12.5932 7.02179 12.54 7.01123 12.4863 7.01123C12.4325 7.01123 12.3793 7.02179 12.3297 7.04231C12.2801 7.06283 12.235 7.0929 12.197 7.13081C12.159 7.16872 12.1289 7.21373 12.1083 7.26327C12.0877 7.3128 12.0771 7.36589 12.0771 7.41951Z" fill="#34D945"/>
</svg>
