<svg width="17" height="17" viewBox="0 0 17 17" fill="none" xmlns="http://www.w3.org/2000/svg">
<path d="M2.80884 6.12877H14.1907C14.2576 6.12877 14.3118 6.18297 14.3118 6.24982V9.88254H2.6878V6.24982C2.6878 6.18297 2.74199 6.12877 2.80884 6.12877Z" stroke="#4B4949" stroke-width="0.968365"/>
<path d="M3.95484 3.23852H7.57565C7.6425 3.23852 7.69669 3.29271 7.69669 3.35956V5.75891H3.83379V3.35956C3.83379 3.29271 3.88799 3.23852 3.95484 3.23852Z" stroke="#4B4949" stroke-width="0.968365"/>
<path d="M9.40699 3.23852H13.0278C13.0946 3.23852 13.1488 3.29271 13.1488 3.35956V5.75891H9.28594V3.35956C9.28594 3.29271 9.34013 3.23852 9.40699 3.23852Z" stroke="#4B4949" stroke-width="0.968365"/>
<path d="M2.6878 9.90569H14.3118V13.5384C14.3118 13.6053 14.2576 13.6595 14.1907 13.6595H2.80884C2.74199 13.6595 2.6878 13.6053 2.6878 13.5384V9.90569Z" stroke="#4B4949" stroke-width="0.968365"/>
</svg>
