<svg width="16" height="16" viewBox="0 0 16 16" fill="none" xmlns="http://www.w3.org/2000/svg">
<path d="M1.19922 5.46094L1.19922 10.3081L8.00012 14.9245V10.0773L1.19922 5.46094Z" fill="#B62B24"/>
<path d="M14.8009 5.46094V10.3081L8 14.9245V10.0773L14.8009 5.46094Z" fill="#CD3D3C"/>
<path d="M8.00012 1.07544L1.19922 5.46098L8.00012 10.0773L14.801 5.46098L8.00012 1.07544Z" fill="#E54141"/>
<path d="M6.0166 2.34497V3.21054C6.0166 3.9607 6.90469 4.53777 8.0002 4.53777C9.09571 4.53777 9.9838 3.9607 9.9838 3.21054V2.34497H6.0166Z" fill="#AF3130"/>
<path d="M6.0166 2.34497V3.21054C6.0166 3.9607 6.90469 4.53777 8.0002 4.53777V2.34497H6.0166Z" fill="#AF3130"/>
<path d="M9.9838 2.37379C9.9838 2.71814 9.77481 3.04838 9.40281 3.29187C9.03082 3.53536 8.52628 3.67215 8.0002 3.67215C7.47412 3.67215 6.96958 3.53536 6.59758 3.29187C6.22559 3.04838 6.0166 2.71814 6.0166 2.37379C6.0166 2.02945 6.22559 1.69921 6.59758 1.45572C6.96958 1.21223 7.47412 1.07544 8.0002 1.07544C8.52628 1.07544 9.03082 1.21223 9.40281 1.45572C9.77481 1.69921 9.9838 2.02945 9.9838 2.37379Z" fill="#EC403F"/>
<path d="M9.7002 4.65308V5.51865C9.7002 6.26881 10.5883 6.84588 11.6838 6.84588C12.7793 6.84588 13.6674 6.26881 13.6674 5.51865V4.65308H9.7002Z" fill="#AF3130"/>
<path d="M9.7002 4.65308V5.51865C9.7002 6.26881 10.5883 6.84588 11.6838 6.84588V4.65308H9.7002Z" fill="#AF3130"/>
<path d="M13.6674 4.6819C13.6674 5.02624 13.4584 5.35649 13.0864 5.59997C12.7144 5.84346 12.2099 5.98025 11.6838 5.98025C11.1577 5.98025 10.6532 5.84346 10.2812 5.59997C9.90918 5.35649 9.7002 5.02624 9.7002 4.6819C9.7002 4.33755 9.90918 4.00731 10.2812 3.76382C10.6532 3.52034 11.1577 3.38354 11.6838 3.38354C12.2099 3.38354 12.7144 3.52034 13.0864 3.76382C13.4584 4.00731 13.6674 4.33755 13.6674 4.6819Z" fill="#EC403F"/>
<path d="M2.33252 4.36462V5.23019C2.33252 5.98035 3.2206 6.55743 4.31612 6.55743C5.41163 6.55743 6.29971 5.98035 6.29971 5.23019V4.36462H2.33252Z" fill="#AF3130"/>
<path d="M2.33252 4.36462V5.23019C2.33252 5.98035 3.2206 6.55743 4.31612 6.55743V4.36462H2.33252Z" fill="#AF3130"/>
<path d="M6.29971 4.39345C6.29971 4.73779 6.09073 5.06803 5.71873 5.31152C5.34673 5.55501 4.8422 5.6918 4.31612 5.6918C3.79003 5.6918 3.2855 5.55501 2.9135 5.31152C2.54151 5.06803 2.33252 4.73779 2.33252 4.39345C2.33252 4.0491 2.54151 3.71886 2.9135 3.47537C3.2855 3.23188 3.79003 3.09509 4.31612 3.09509C4.8422 3.09509 5.34673 3.23188 5.71873 3.47537C6.09073 3.71886 6.29971 4.0491 6.29971 4.39345Z" fill="#EC403F"/>
<path d="M6.0166 6.67285V7.53842C6.0166 8.28858 6.90469 8.86566 8.0002 8.86566C9.09571 8.86566 9.9838 8.28858 9.9838 7.53842V6.67285H6.0166Z" fill="#AF3130"/>
<path d="M6.0166 6.67285V7.53842C6.0166 8.28858 6.90469 8.86566 8.0002 8.86566V6.67285H6.0166Z" fill="#AF3130"/>
<path d="M9.9838 6.70167C9.9838 7.04602 9.77481 7.37626 9.40281 7.61975C9.03082 7.86324 8.52628 8.00003 8.0002 8.00003C7.47412 8.00003 6.96958 7.86324 6.59758 7.61975C6.22559 7.37626 6.0166 7.04602 6.0166 6.70167C6.0166 6.35733 6.22559 6.02709 6.59758 5.7836C6.96958 5.54011 7.47412 5.40332 8.0002 5.40332C8.52628 5.40332 9.03082 5.54011 9.40281 5.7836C9.77481 6.02709 9.9838 6.35733 9.9838 6.70167Z" fill="#EC403F"/>
</svg>
