<svg width="16" height="16" viewBox="0 0 16 16" fill="none" xmlns="http://www.w3.org/2000/svg">
<g clip-path="url(#clip0_312_1566)">
<path fill-rule="evenodd" clip-rule="evenodd" d="M2.84085 6.38892C3.37209 6.97692 4.79725 7.69415 6.5391 7.90738C9.09826 8.22185 11.5215 7.63169 13.1633 6.45354L13.1704 4.304C12.1253 4.95015 10.2016 5.38308 8.00002 5.38308C5.80763 5.38308 3.89005 4.95231 2.84391 4.31154C2.84254 5.00364 2.84152 5.69574 2.84085 6.38785V6.38892ZM11.9257 6.26441C11.9936 6.33466 12.0853 6.37363 12.1805 6.37277H12.1815C12.3817 6.37277 12.5452 6.20585 12.5452 5.998C12.5452 5.79123 12.3817 5.62431 12.1815 5.62431C11.9813 5.62431 11.8178 5.79123 11.8178 5.998C11.8189 6.09835 11.8577 6.19416 11.9257 6.26441Z" fill="#DD726D"/>
<path fill-rule="evenodd" clip-rule="evenodd" d="M2.84085 7.57354V9.47C3.37107 10.0591 4.79725 10.7763 6.5391 10.9906C9.09315 11.304 11.5113 10.716 13.1531 9.54323L13.1592 7.60477C11.4102 8.68923 8.94808 9.14477 6.4584 8.83785C4.91746 8.64947 3.60517 8.15904 2.84085 7.57354ZM11.9257 9.34764C11.9936 9.41789 12.0853 9.45686 12.1805 9.456H12.1815C12.3817 9.456 12.5452 9.288 12.5452 9.08123C12.5452 8.87446 12.3817 8.70646 12.1815 8.70646C11.9813 8.70646 11.8178 8.87446 11.8178 9.08123C11.8189 9.18158 11.8577 9.27739 11.9257 9.34764Z" fill="#CD3D3C"/>
<path fill-rule="evenodd" clip-rule="evenodd" d="M2.84289 10.6568L2.84682 12.1874C3.20425 13.2545 5.18501 14.104 8.11342 14.104C9.73268 14.104 11.0015 13.8455 11.9772 13.3372C12.251 13.194 12.4594 13.0734 12.6637 12.9162C12.6842 12.9004 12.7036 12.8856 12.7223 12.8713C12.8277 12.7909 12.9105 12.7277 13.0346 12.6125C13.0765 12.5735 13.1163 12.5352 13.154 12.4983L13.148 10.6934C11.401 11.7714 8.94297 12.2258 6.4584 11.9211C4.91951 11.7316 3.60721 11.2423 2.84289 10.6568ZM12.0426 12.5515C12.0864 12.5701 12.1333 12.5795 12.1805 12.5791L12.1815 12.578C12.3817 12.578 12.5452 12.41 12.5452 12.2032C12.5452 11.9965 12.3817 11.8285 12.1815 11.8285C11.9813 11.8285 11.8178 11.9965 11.8178 12.2032C11.8182 12.253 11.8279 12.3022 11.8463 12.3481C11.8648 12.3939 11.8916 12.4354 11.9253 12.4703C11.959 12.5052 11.9988 12.5328 12.0426 12.5515Z" fill="#C62D25"/>
<path d="M11.683 3.94754C12.1171 3.78815 12.4512 3.60723 12.6596 3.42738C12.8026 3.30462 12.8476 3.22385 12.8476 3.19154C12.8476 3.15923 12.8026 3.07846 12.6596 2.95462C12.4512 2.77585 12.1182 2.59492 11.683 2.43554C10.7308 2.08769 9.41292 1.88415 8.00002 1.88415C6.58712 1.88415 5.26923 2.08877 4.31709 2.43554C3.8829 2.59492 3.54883 2.77585 3.34042 2.95569C3.19739 3.07846 3.15244 3.15815 3.15244 3.19154C3.15244 3.22385 3.19739 3.30462 3.34042 3.42846C3.54883 3.60723 3.88188 3.78815 4.31709 3.94754C5.26923 4.29538 6.58712 4.49892 8.00002 4.49892C9.41292 4.49892 10.7308 4.29431 11.683 3.94754Z" fill="#E54141"/>
<path fill-rule="evenodd" clip-rule="evenodd" d="M12.6596 3.42738C12.4512 3.60723 12.1171 3.78815 11.683 3.94754C10.7308 4.29431 9.41292 4.49892 8.00002 4.49892C6.58712 4.49892 5.26923 4.29538 4.31709 3.94754C3.88188 3.78815 3.54883 3.60723 3.34042 3.42846C3.19739 3.30462 3.15244 3.22385 3.15244 3.19154C3.15244 3.15815 3.19739 3.07846 3.34042 2.95569C3.54883 2.77585 3.8829 2.59492 4.31709 2.43554C5.26923 2.08877 6.58712 1.88415 8.00002 1.88415C9.41292 1.88415 10.7308 2.08769 11.683 2.43554C12.1182 2.59492 12.4512 2.77585 12.6596 2.95462C12.8026 3.07846 12.8476 3.15923 12.8476 3.19154C12.8476 3.22385 12.8026 3.30462 12.6596 3.42738ZM2.84085 7.57354V9.47C3.37107 10.0591 4.79725 10.7763 6.5391 10.9906C9.09315 11.304 11.5113 10.716 13.1531 9.54323L13.1592 7.60477C11.4102 8.68923 8.94808 9.14477 6.4584 8.83785C4.91746 8.64947 3.60517 8.15904 2.84085 7.57354ZM6.5391 7.90738C4.79725 7.69415 3.37209 6.97692 2.84085 6.38892V6.38785C2.84152 5.69574 2.84254 5.00364 2.84391 4.31154C3.89005 4.95231 5.80763 5.38308 8.00002 5.38308C10.2016 5.38308 12.1253 4.95015 13.1704 4.304L13.1633 6.45354C11.5215 7.63169 9.09826 8.22185 6.5391 7.90738ZM2.84289 10.6568L2.84682 12.1874C3.20425 13.2545 5.18501 14.104 8.11342 14.104C9.73268 14.104 11.0015 13.8455 11.9772 13.3372C12.251 13.194 12.4594 13.0734 12.6637 12.9162C12.6842 12.9004 12.7036 12.8856 12.7223 12.8713C12.8277 12.7909 12.9105 12.7277 13.0346 12.6125C13.0765 12.5735 13.1163 12.5352 13.154 12.4983L13.1541 12.525C13.1536 12.6321 13.1536 12.6321 13.1959 12.6624C13.2382 12.6926 13.3229 12.7531 13.4917 12.9813C13.7205 12.9824 13.9387 12.9813 13.9387 12.9813C13.9387 12.9813 13.3135 13.4438 13.1541 13.5666C12.916 13.7497 12.6453 13.9403 12.3327 14.104C11.2559 14.6651 10.1587 15 8.11342 15C4.70632 15 2.45365 13.8638 2.02253 12.3615L2.00721 12.3077V12.2517L2.00108 9.97831C1.99864 7.7419 2.00034 5.50548 2.00619 3.26908C2.0036 3.24332 2.00223 3.21744 2.0021 3.19154C2.00312 1.98108 4.68793 1 8.00002 1C11.3121 1 13.9969 1.98108 13.9969 3.19154C13.9972 3.23883 13.9935 3.28605 13.9857 3.33262C13.9955 3.36646 14.0003 3.40169 14 3.43708L13.9387 12.9813C13.4917 12.5101 13.6907 12.2032 13.6907 12.2032C13.5831 12.0752 13.438 12.2183 13.2174 12.436C13.1969 12.4561 13.1758 12.477 13.154 12.4983L13.148 10.6934C11.401 11.7714 8.94297 12.2258 6.4584 11.9211C4.91951 11.7316 3.60721 11.2423 2.84289 10.6568ZM11.9257 6.26441C11.9936 6.33466 12.0853 6.37363 12.1805 6.37277H12.1815C12.3817 6.37277 12.5452 6.20585 12.5452 5.998C12.5452 5.79123 12.3817 5.62431 12.1815 5.62431C11.9813 5.62431 11.8178 5.79123 11.8178 5.998C11.8189 6.09835 11.8577 6.19416 11.9257 6.26441ZM11.9257 9.34764C11.9936 9.41789 12.0853 9.45686 12.1805 9.456H12.1815C12.3817 9.456 12.5452 9.288 12.5452 9.08123C12.5452 8.87446 12.3817 8.70646 12.1815 8.70646C11.9813 8.70646 11.8178 8.87446 11.8178 9.08123C11.8189 9.18158 11.8577 9.27739 11.9257 9.34764ZM12.0426 12.5515C12.0864 12.5701 12.1333 12.5795 12.1805 12.5791L12.1815 12.578C12.3817 12.578 12.5452 12.41 12.5452 12.2032C12.5452 11.9965 12.3817 11.8285 12.1815 11.8285C11.9813 11.8285 11.8178 11.9965 11.8178 12.2032C11.8182 12.253 11.8279 12.3022 11.8463 12.3481C11.8648 12.3939 11.8916 12.4354 11.9253 12.4703C11.959 12.5052 11.9988 12.5328 12.0426 12.5515Z" fill="#212121"/>
<path d="M13.9387 12.9813C13.4917 12.5101 13.6907 12.2032 13.6907 12.2032C13.5831 12.0752 13.438 12.2183 13.2174 12.436L13.154 12.4983L13.1541 12.525C13.1536 12.6321 13.1536 12.6321 13.1959 12.6624C13.2382 12.6926 13.3229 12.7531 13.4917 12.9813C13.7205 12.9824 13.9387 12.9813 13.9387 12.9813Z" fill="#212121"/>
<path fill-rule="evenodd" clip-rule="evenodd" d="M7.89121 12.2361C7.77544 12.1328 7.78066 11.954 7.90167 11.8777L11.7828 9.43134C11.933 9.33664 12.1403 9.46614 12.1349 9.65132L12.084 11.3972C12.1617 11.3857 12.2392 11.3711 12.3163 11.3534C12.7865 11.2459 13.2336 11.0272 13.6321 10.7099C14.0305 10.3925 14.3726 9.98265 14.6387 9.50374C14.705 9.38442 14.7605 9.29411 14.8078 9.21699C14.8824 9.09559 14.9369 9.00686 14.982 8.88906C15.0705 8.65743 15.2903 8.50144 15.5337 8.56901L16.1096 8.72886C16.345 8.79421 16.5046 9.03975 16.452 9.27668C16.3446 9.7604 16.2141 10.008 15.9137 10.5486C15.5359 11.2286 15.0503 11.8105 14.4845 12.2611C13.9188 12.7117 13.284 13.0222 12.6164 13.1748C12.4221 13.2193 12.2261 13.2501 12.0294 13.2673L11.9669 15.4106C11.9615 15.5958 11.748 15.6773 11.6043 15.5491L7.89121 12.2361Z" fill="#28EA3C"/>
<path fill-rule="evenodd" clip-rule="evenodd" d="M14.6387 9.50374C14.705 9.38443 14.7605 9.29412 14.8078 9.217C14.8824 9.0956 14.9369 9.00686 14.982 8.88906C15.0705 8.65743 15.2903 8.50144 15.5337 8.56901L16.1096 8.72886C16.345 8.79421 16.5046 9.03975 16.452 9.27668C16.3446 9.7604 16.2141 10.008 15.9137 10.5486C15.5359 11.2286 15.0503 11.8105 14.4845 12.2611C13.9188 12.7117 13.284 13.0222 12.6164 13.1748C12.4221 13.2193 12.2261 13.2501 12.0294 13.2673L11.9669 15.4106C11.9615 15.5958 11.748 15.6773 11.6043 15.5491L7.89121 12.2361C7.77544 12.1328 7.78066 11.954 7.90167 11.8777L11.7828 9.43134C11.933 9.33664 12.1403 9.46614 12.1349 9.65132L12.084 11.3972C12.1617 11.3857 12.2392 11.3711 12.3163 11.3534C12.3392 11.3482 12.362 11.3427 12.3848 11.337C12.8299 11.2244 13.253 11.0118 13.6321 10.7099C14.0305 10.3925 14.3726 9.98265 14.6387 9.50374ZM11.7746 11.7518L12.1511 11.6959C12.2361 11.6833 12.3207 11.6674 12.4048 11.6481C12.9176 11.5309 13.4008 11.2934 13.8282 10.9529C14.2556 10.6126 14.6196 10.1753 14.9016 9.66788C14.9648 9.55413 15.0176 9.46813 15.0648 9.39134L15.0699 9.38296C15.141 9.26738 15.2071 9.15978 15.2613 9.01789C15.2864 8.95224 15.328 8.90406 15.37 8.87811C15.4094 8.85381 15.4448 8.85053 15.4777 8.85965L16.0535 9.0195C16.13 9.04073 16.176 9.11867 16.1607 9.18751C16.0628 9.62874 15.9495 9.84683 15.6508 10.3845C15.2889 11.0359 14.8252 11.5904 14.2883 12.018C13.7515 12.4456 13.1529 12.7372 12.528 12.8802C12.346 12.9218 12.1628 12.9505 11.9793 12.9666L11.7385 12.9876L11.6732 15.2252L8.15531 12.0865L11.8324 9.76868L11.7746 11.7518Z" fill="black"/>
<path fill-rule="evenodd" clip-rule="evenodd" d="M16.0858 5.88997C16.2016 5.99326 16.1964 6.1721 16.0754 6.24837L12.1943 8.69476C12.044 8.78946 11.8367 8.65996 11.8421 8.47478L11.8931 6.7289C11.8153 6.74044 11.7378 6.75503 11.6607 6.77266C11.1905 6.88018 10.7435 7.09887 10.345 7.41624C9.94651 7.73361 9.60446 8.14345 9.33837 8.62235C9.27207 8.74168 9.21659 8.83199 9.16921 8.90911C9.09462 9.03051 9.04011 9.11924 8.99508 9.23704C8.90653 9.46867 8.68676 9.62466 8.44331 9.55708L7.86748 9.39724C7.63205 9.33189 7.47247 9.08635 7.52507 8.84942C7.63246 8.3657 7.76298 8.11805 8.06334 7.57747C8.44114 6.89752 8.92679 6.31563 9.49254 5.86502C10.0583 5.41441 10.6931 5.10391 11.3606 4.95126C11.555 4.90682 11.751 4.87602 11.9476 4.85882L12.0102 2.71547C12.0156 2.53029 12.229 2.4488 12.3727 2.57704L16.0858 5.88997Z" fill="#28EA3C"/>
<path fill-rule="evenodd" clip-rule="evenodd" d="M9.33837 8.62235C9.27207 8.74167 9.21659 8.83198 9.16921 8.90909C9.09463 9.03049 9.04011 9.11924 8.99508 9.23704C8.90653 9.46867 8.68676 9.62466 8.44331 9.55708L7.86748 9.39724C7.63205 9.33189 7.47247 9.08635 7.52507 8.84942C7.63246 8.3657 7.76298 8.11805 8.06334 7.57747C8.44114 6.89752 8.92679 6.31563 9.49254 5.86502C10.0583 5.41441 10.6931 5.10391 11.3606 4.95126C11.555 4.90682 11.751 4.87602 11.9476 4.85882L12.0102 2.71547C12.0156 2.53029 12.229 2.4488 12.3727 2.57704L16.0858 5.88997C16.2016 5.99326 16.1964 6.1721 16.0754 6.24837L12.1943 8.69476C12.044 8.78946 11.8367 8.65996 11.8421 8.47478L11.8931 6.7289C11.8153 6.74044 11.7378 6.75503 11.6607 6.77266C11.6379 6.77789 11.615 6.78339 11.5923 6.78914C11.1472 6.90169 10.7241 7.11431 10.345 7.41624C9.94651 7.73361 9.60446 8.14345 9.33837 8.62235ZM12.2025 6.3743L11.826 6.4302C11.741 6.44281 11.6564 6.45874 11.5723 6.47798C11.0595 6.59524 10.5762 6.83273 10.1488 7.17316C9.72147 7.51353 9.35743 7.95075 9.07547 8.45822C9.01226 8.57197 8.95945 8.65797 8.91227 8.73476L8.90712 8.74314C8.83609 8.85872 8.76997 8.96632 8.71573 9.10821C8.69063 9.17386 8.64906 9.22204 8.60701 9.24798C8.56761 9.27229 8.53226 9.27557 8.49938 9.26645L7.92355 9.1066C7.84705 9.08537 7.80103 9.00743 7.81631 8.93858C7.91427 8.49736 8.02751 8.27927 8.32624 7.74161C8.68818 7.09022 9.15183 6.53571 9.68871 6.10809C10.2255 5.68055 10.8241 5.38885 11.4491 5.24594C11.631 5.20434 11.8142 5.17557 11.9978 5.15952L12.2385 5.13847L12.3038 2.90086L15.8217 6.03963L12.1446 8.35742L12.2025 6.3743Z" fill="black"/>
</g>
<defs>
<clipPath id="clip0_312_1566">
<rect width="16" height="16" fill="white"/>
</clipPath>
</defs>
</svg>
