<svg width="16" height="16" viewBox="0 0 16 16" fill="none" xmlns="http://www.w3.org/2000/svg">
<path d="M6.8721 5.72522H2.88775L3.81532 2.45044H6.47153L6.8721 5.72522Z" fill="#5E5E5E"/>
<path d="M9.21221 5.72522H13.1966L12.269 2.45044H9.61278L9.21221 5.72522Z" fill="#5E5E5E"/>
<path d="M6.99858 4.6334H2.82443V13.3661H6.99858V4.6334Z" fill="#CD3D3C"/>
<path d="M13.2598 4.6334H9.08565V8.3139V9.42217V13.3661H13.2598V4.6334Z" fill="#CD3D3C"/>
<path d="M6.99858 6.81657H2.82443V11.1829H6.99858V6.81657Z" fill="#CD3D3C"/>
<path d="M13.2598 6.81657H9.08565L9.08565 8.3139V9.42217L9.08565 11.1829H13.2598V6.81657Z" fill="#CD3D3C"/>
<path d="M7.3464 4.48493H2.47656V5.57654H7.3464V4.48493Z" fill="#5E5E5E"/>
<path d="M13.6077 4.48493H8.73783V5.57654H13.6077V4.48493Z" fill="#5E5E5E"/>
<path d="M7.3464 12.4899H2.47656V13.5815H7.3464V12.4899Z" fill="#5E5E5E"/>
<path d="M13.6077 12.4899H8.73783V13.5815H13.6077V12.4899Z" fill="#5E5E5E"/>
<path d="M8.04213 7.77647H5.95506V9.95964H8.04213V7.77647Z" fill="#5E5E5E"/>
<path fill-rule="evenodd" clip-rule="evenodd" d="M8.04213 10.0919C8.23278 10.0919 8.41277 10.0442 8.5718 9.95964H10.1292V7.77647H8.57188C8.41283 7.69184 8.23281 7.64413 8.04213 7.64413C7.39594 7.64413 6.8721 8.19209 6.8721 8.86803C6.8721 9.54398 7.39594 10.0919 8.04213 10.0919ZM8.57188 7.77647H8.04213V9.95964H8.5718C8.79276 9.84209 8.97326 9.6533 9.08565 9.42217V8.3139C8.97328 8.0828 8.79281 7.89402 8.57188 7.77647Z" fill="#5E5E5E"/>
<path d="M8.04213 7.77647V9.95964H8.5718C8.79276 9.84209 8.97326 9.6533 9.08565 9.42217V8.3139C8.97328 8.0828 8.79281 7.89402 8.57188 7.77647H8.04213Z" fill="#5D5D5D"/>
<path d="M13.2483 13.5242L13.0725 13.0339H10.9632L10.7782 13.5242L10.5006 14.6806L10.8984 14.7269L10.8892 14.9212H9.34421L9.33496 14.7454L9.6125 14.6806L11.7033 9.56463L11.3518 9.49987L11.361 9.3241H12.8782L12.8875 9.49987L12.5359 9.56463L14.4695 14.6806L14.747 14.7454L14.7378 14.9212H13.091L13.0818 14.7269L13.4796 14.6806L13.2483 13.5242ZM12.0641 10.2307L11.2037 12.4141H12.8505L12.0641 10.2307Z" fill="white"/>
<path fill-rule="evenodd" clip-rule="evenodd" d="M13.2481 13.5242L13.0723 13.0338H10.963L10.778 13.5242L10.5004 14.6806L10.8982 14.7268L10.889 14.9211H9.34401L9.33476 14.7453L9.6123 14.6806L11.7031 9.56458L11.3516 9.49982L11.3608 9.32405H12.878L12.8873 9.49982L12.5357 9.56458L14.4693 14.6806L14.7468 14.7453L14.7376 14.9211H13.0908L13.0816 14.7268L13.4794 14.6806L13.2481 13.5242ZM13.1214 14.4202L12.9582 13.6046L12.8612 13.3338H11.1704L11.0653 13.6125L10.8711 14.4217L11.2112 14.4612L11.175 15.2211H9.05939L9.02197 14.5103L9.39322 14.4236L11.2858 9.79275L11.0381 9.74713L11.0762 9.02405H13.1627L13.2007 9.74713L12.9434 9.79454L14.6933 14.4248L15.0596 14.5103L15.0222 15.2211H12.8048L12.7686 14.4612L13.1214 14.4202ZM11.2035 12.414H12.8503L12.0639 10.2307L11.2035 12.414ZM12.0513 11.081L11.6442 12.114H12.4234L12.0513 11.081Z" fill="#212121"/>
</svg>
