<svg width="16" height="16" viewBox="0 0 16 16" fill="none" xmlns="http://www.w3.org/2000/svg">
<g clip-path="url(#clip0_312_2431)">
<path d="M14.1538 16H1.84616C0.826531 16 0 15.1735 0 14.1538V1.84616C0 0.826531 0.826531 0 1.84616 0H14.1538C15.1735 0 16 0.826531 16 1.84616V14.1538C16 15.1735 15.1735 16 14.1538 16Z" fill="#CD3D3C"/>
<path d="M16 8.30769V7.69231H8.61537C8.44544 7.69231 8.30769 7.55453 8.30769 7.38462V0H7.69231V7.38462C7.69231 7.55456 7.55453 7.69231 7.38462 7.69231H2.76922V0.923063C2.76922 0.586406 2.86078 0.27175 3.01822 0H1.84616C0.826531 0 0 0.826531 0 1.84616V14.1538C0 15.1735 0.826531 16 1.84616 16H14.1538C14.8368 16 15.4317 15.6282 15.751 15.0769H8.30769V8.61537C8.30769 8.44544 8.44547 8.30769 8.61537 8.30769H16ZM7.69231 15.0769H4.61538C3.59575 15.0769 2.76922 14.2504 2.76922 13.2308V8.30769H7.38459C7.55453 8.30769 7.69228 8.44547 7.69228 8.61537V15.0769H7.69231Z" fill="#CD3D3C"/>
<path d="M13.846 4.38461H10.1537C9.94123 4.38461 9.76904 4.21242 9.76904 3.99998C9.76904 3.78754 9.94123 3.61536 10.1537 3.61536H13.846C14.0584 3.61536 14.2306 3.78754 14.2306 3.99998C14.2306 4.21242 14.0584 4.38461 13.846 4.38461Z" fill="white"/>
<path d="M5.84598 3.61532H4.38445V2.15379C4.38445 1.94135 4.21226 1.76917 3.99982 1.76917C3.78739 1.76917 3.6152 1.94135 3.6152 2.15379V3.61532H2.15367C1.94123 3.61532 1.76904 3.78751 1.76904 3.99995C1.76904 4.21238 1.94123 4.38457 2.15367 4.38457H3.6152V5.8461C3.6152 6.05854 3.78739 6.23073 3.99982 6.23073C4.21226 6.23073 4.38445 6.05854 4.38445 5.8461V4.38457H5.84598C6.05842 4.38457 6.23061 4.21238 6.23061 3.99995C6.23061 3.78751 6.05839 3.61532 5.84598 3.61532Z" fill="white"/>
<path d="M4.54363 12L5.81016 10.7335C5.96038 10.5832 5.96038 10.3398 5.81016 10.1896C5.65994 10.0393 5.41654 10.0394 5.26629 10.1896L3.99975 11.4561L2.73322 10.1896C2.583 10.0394 2.3396 10.0394 2.18935 10.1896C2.03907 10.3398 2.03913 10.5832 2.18935 10.7335L3.45588 12L2.18935 13.2665C2.03913 13.4167 2.03913 13.6601 2.18935 13.8104C2.26447 13.8855 2.36272 13.9231 2.46129 13.9231C2.55985 13.9231 2.6581 13.8855 2.73322 13.8104L3.99975 12.5439L5.26629 13.8104C5.34141 13.8855 5.43966 13.9231 5.53822 13.9231C5.63679 13.9231 5.73504 13.8855 5.81016 13.8104C5.96038 13.6602 5.96038 13.4168 5.81016 13.2665L4.54363 12Z" fill="white"/>
<path d="M14.1538 16.0001H8.30762V8.61543C8.30762 8.44549 8.4454 8.30774 8.6153 8.30774H15.9999V14.1539C15.9999 15.1735 15.1734 16.0001 14.1538 16.0001Z" fill="#E4EAF8"/>
<path d="M8.30762 15.0769V16H14.1538C14.8367 16 15.4316 15.6282 15.7509 15.0769H8.30762Z" fill="#D5DCED"/>
<path d="M13.846 11.4615H10.1537C9.94123 11.4615 9.76904 11.2893 9.76904 11.0769C9.76904 10.8644 9.94123 10.6923 10.1537 10.6923H13.846C14.0584 10.6923 14.2306 10.8644 14.2306 11.0769C14.2306 11.2893 14.0584 11.4615 13.846 11.4615Z" fill="#7F8499"/>
<path d="M13.846 13.3077H10.1537C9.94123 13.3077 9.76904 13.1355 9.76904 12.9231C9.76904 12.7106 9.94123 12.5385 10.1537 12.5385H13.846C14.0584 12.5385 14.2306 12.7106 14.2306 12.9231C14.2306 13.1355 14.0584 13.3077 13.846 13.3077Z" fill="#7F8499"/>
</g>
<defs>
<clipPath id="clip0_312_2431">
<rect width="16" height="16" fill="white"/>
</clipPath>
</defs>
</svg>
