<svg width="16" height="16" viewBox="0 0 16 16" fill="none" xmlns="http://www.w3.org/2000/svg">
<path d="M13.101 11.5446L8.02558 14.5174L2.9502 11.5446V5.62336L8.02558 2.65063L13.101 5.62336V11.5446Z" fill="#FFBB57"/>
<path fill-rule="evenodd" clip-rule="evenodd" d="M13.0197 11.4981V5.66993L8.02558 2.7448L3.03145 5.66993V11.4981L8.02558 14.4232L13.0197 11.4981ZM8.02558 14.5174L13.101 11.5446V5.62336L8.02558 2.65063L2.9502 5.62336V11.5446L8.02558 14.5174Z" fill="#CA8319"/>
<path d="M8.02539 2.65063L13.1008 5.62336V11.5446L8.02539 14.5174" fill="#FFA724"/>
<path fill-rule="evenodd" clip-rule="evenodd" d="M8.02539 14.5174L13.1008 11.5446V5.62336L8.02539 2.65063V2.7448L13.0195 5.66993V11.4981L8.02539 14.4232V14.5174Z" fill="#CA8319"/>
<path d="M8.04975 8.59621L13.101 5.62348L8.04975 2.65076L2.90186 5.62348L8.04975 8.59621Z" fill="#BF8122"/>
<path fill-rule="evenodd" clip-rule="evenodd" d="M13.101 5.62348L8.04975 2.65076L2.90186 5.62348L8.04975 8.59621L13.101 5.62348ZM12.9408 5.62348L8.04936 2.7448L3.06433 5.62348L8.04936 8.50216L12.9408 5.62348Z" fill="#CA8319"/>
<path d="M8.0498 8.59609L13.101 5.62336L8.0498 2.65063" fill="#9A6618"/>
<path fill-rule="evenodd" clip-rule="evenodd" d="M8.0498 8.59609L13.101 5.62336L8.0498 2.65063V2.74491L12.9408 5.62336L8.0498 8.50181V8.59609Z" fill="#CA8319"/>
<path d="M8.04998 8.59612L9.13757 7.94357L8.04998 7.31519L6.9624 7.94357L8.04998 8.59612Z" fill="#54370B"/>
<path d="M2.96289 5.6075L8.04185 2.64478L10.5984 4.19046L5.58167 7.11583L2.96289 5.6075Z" fill="#FFA724"/>
<path fill-rule="evenodd" clip-rule="evenodd" d="M2.96289 5.6075L5.58167 7.11583L10.5984 4.19046L8.04185 2.64478L2.96289 5.6075ZM3.14236 5.607L5.58139 7.01181L10.4221 4.18906L8.04103 2.74945L3.14236 5.607Z" fill="#BE7C19"/>
<path d="M5.43848 7.08784L10.5174 4.12512L13.074 5.6708L8.05726 8.59618L5.43848 7.08784Z" fill="#FFA724"/>
<path fill-rule="evenodd" clip-rule="evenodd" d="M5.43848 7.08784L8.05726 8.59618L13.074 5.6708L10.5174 4.12512L5.43848 7.08784ZM5.61794 7.08735L8.05698 8.49216L12.8977 5.66941L10.5166 4.2298L5.61794 7.08735Z" fill="#BE7C19"/>
<path d="M2.90186 5.61911L5.50547 4.11658L10.566 7.04581L8.01749 8.60444L2.90186 5.61911Z" fill="#FFA724"/>
<path fill-rule="evenodd" clip-rule="evenodd" d="M2.90186 5.61911L8.01749 8.60444L10.566 7.04581L5.50547 4.11658L2.90186 5.61911ZM3.08116 5.61954L8.0164 8.4996L10.3901 7.04793L5.5054 4.22053L3.08116 5.61954Z" fill="#BE7C19"/>
<path d="M5.39746 4.17355L8.00108 2.67102L13.0617 5.60025L10.5131 7.15888L5.39746 4.17355Z" fill="#FFA724"/>
<path fill-rule="evenodd" clip-rule="evenodd" d="M5.39746 4.17355L10.5131 7.15888L13.0617 5.60025L8.00108 2.67102L5.39746 4.17355ZM5.57677 4.17399L10.512 7.05405L12.8857 5.60238L8.00101 2.77497L5.57677 4.17399Z" fill="#BE7C19"/>
<path fill-rule="evenodd" clip-rule="evenodd" d="M7.96387 14.4527V8.53345H8.06387V14.4527H7.96387Z" fill="#CA8319"/>
</svg>
