<svg width="17" height="16" viewBox="0 0 17 16" fill="none" xmlns="http://www.w3.org/2000/svg">
<g clip-path="url(#clip0_312_1560)">
<path fill-rule="evenodd" clip-rule="evenodd" d="M3.34085 6.38892C3.87209 6.97692 5.29725 7.69415 7.0391 7.90738C9.59826 8.22185 12.0215 7.63169 13.6633 6.45354L13.6704 4.304C12.6253 4.95015 10.7016 5.38308 8.50002 5.38308C6.30763 5.38308 4.39005 4.95231 3.34391 4.31154C3.34254 5.00364 3.34152 5.69574 3.34085 6.38785V6.38892ZM12.4257 6.26441C12.4936 6.33466 12.5853 6.37363 12.6805 6.37277H12.6815C12.8817 6.37277 13.0452 6.20585 13.0452 5.998C13.0452 5.79123 12.8817 5.62431 12.6815 5.62431C12.4813 5.62431 12.3178 5.79123 12.3178 5.998C12.3189 6.09835 12.3577 6.19416 12.4257 6.26441Z" fill="#DD726D"/>
<path fill-rule="evenodd" clip-rule="evenodd" d="M3.34085 7.57354V9.47C3.87107 10.0591 5.29725 10.7763 7.0391 10.9906C9.59315 11.304 12.0113 10.716 13.6531 9.54323L13.6592 7.60477C11.9102 8.68923 9.44808 9.14477 6.9584 8.83785C5.41746 8.64947 4.10517 8.15904 3.34085 7.57354ZM12.4257 9.34764C12.4936 9.41789 12.5853 9.45686 12.6805 9.456H12.6815C12.8817 9.456 13.0452 9.288 13.0452 9.08123C13.0452 8.87446 12.8817 8.70646 12.6815 8.70646C12.4813 8.70646 12.3178 8.87446 12.3178 9.08123C12.3189 9.18158 12.3577 9.27739 12.4257 9.34764Z" fill="#CD3D3C"/>
<path fill-rule="evenodd" clip-rule="evenodd" d="M3.34289 10.6568L3.34682 12.1874C3.70425 13.2545 5.68501 14.104 8.61342 14.104C10.2327 14.104 11.5015 13.8455 12.4772 13.3372C12.751 13.194 12.9594 13.0734 13.1637 12.9162C13.1842 12.9004 13.2036 12.8856 13.2223 12.8713C13.3277 12.7909 13.4105 12.7277 13.5346 12.6125C13.5765 12.5735 13.6163 12.5352 13.654 12.4983L13.648 10.6934C11.901 11.7714 9.44297 12.2258 6.9584 11.9211C5.41951 11.7316 4.10721 11.2423 3.34289 10.6568ZM12.5426 12.5515C12.5864 12.5701 12.6333 12.5795 12.6805 12.5791L12.6815 12.578C12.8817 12.578 13.0452 12.41 13.0452 12.2032C13.0452 11.9965 12.8817 11.8285 12.6815 11.8285C12.4813 11.8285 12.3178 11.9965 12.3178 12.2032C12.3182 12.253 12.3279 12.3022 12.3463 12.3481C12.3648 12.3939 12.3916 12.4354 12.4253 12.4703C12.459 12.5052 12.4988 12.5328 12.5426 12.5515Z" fill="#C62D25"/>
<path d="M12.183 3.94754C12.6171 3.78815 12.9512 3.60723 13.1596 3.42738C13.3026 3.30462 13.3476 3.22385 13.3476 3.19154C13.3476 3.15923 13.3026 3.07846 13.1596 2.95462C12.9512 2.77585 12.6182 2.59492 12.183 2.43554C11.2308 2.08769 9.91292 1.88415 8.50002 1.88415C7.08712 1.88415 5.76923 2.08877 4.81709 2.43554C4.3829 2.59492 4.04883 2.77585 3.84042 2.95569C3.69739 3.07846 3.65244 3.15815 3.65244 3.19154C3.65244 3.22385 3.69739 3.30462 3.84042 3.42846C4.04883 3.60723 4.38188 3.78815 4.81709 3.94754C5.76923 4.29538 7.08712 4.49892 8.50002 4.49892C9.91292 4.49892 11.2308 4.29431 12.183 3.94754Z" fill="#E54141"/>
<path fill-rule="evenodd" clip-rule="evenodd" d="M13.1596 3.42738C12.9512 3.60723 12.6171 3.78815 12.183 3.94754C11.2308 4.29431 9.91292 4.49892 8.50002 4.49892C7.08712 4.49892 5.76923 4.29538 4.81709 3.94754C4.38188 3.78815 4.04883 3.60723 3.84042 3.42846C3.69739 3.30462 3.65244 3.22385 3.65244 3.19154C3.65244 3.15815 3.69739 3.07846 3.84042 2.95569C4.04883 2.77585 4.3829 2.59492 4.81709 2.43554C5.76923 2.08877 7.08712 1.88415 8.50002 1.88415C9.91292 1.88415 11.2308 2.08769 12.183 2.43554C12.6182 2.59492 12.9512 2.77585 13.1596 2.95462C13.3026 3.07846 13.3476 3.15923 13.3476 3.19154C13.3476 3.22385 13.3026 3.30462 13.1596 3.42738ZM3.34085 7.57354V9.47C3.87107 10.0591 5.29725 10.7763 7.0391 10.9906C9.59315 11.304 12.0113 10.716 13.6531 9.54323L13.6592 7.60477C11.9102 8.68923 9.44808 9.14477 6.9584 8.83785C5.41746 8.64947 4.10517 8.15904 3.34085 7.57354ZM7.0391 7.90738C5.29725 7.69415 3.87209 6.97692 3.34085 6.38892V6.38785C3.34152 5.69574 3.34254 5.00364 3.34391 4.31154C4.39005 4.95231 6.30763 5.38308 8.50002 5.38308C10.7016 5.38308 12.6253 4.95015 13.6704 4.304L13.6633 6.45354C12.0215 7.63169 9.59826 8.22185 7.0391 7.90738ZM3.34289 10.6568L3.34682 12.1874C3.70425 13.2545 5.68501 14.104 8.61342 14.104C10.2327 14.104 11.5015 13.8455 12.4772 13.3372C12.751 13.194 12.9594 13.0734 13.1637 12.9162C13.1842 12.9004 13.2036 12.8856 13.2223 12.8713C13.3277 12.7909 13.4105 12.7277 13.5346 12.6125C13.5765 12.5735 13.6163 12.5352 13.654 12.4983L13.6541 12.525C13.6536 12.6321 13.6536 12.6321 13.6959 12.6624C13.7382 12.6926 13.8229 12.7531 13.9917 12.9813C14.2205 12.9824 14.4387 12.9813 14.4387 12.9813C14.4387 12.9813 13.8135 13.4438 13.6541 13.5666C13.416 13.7497 13.1453 13.9403 12.8327 14.104C11.7559 14.6651 10.6587 15 8.61342 15C5.20632 15 2.95365 13.8638 2.52253 12.3615L2.50721 12.3077V12.2517L2.50108 9.97831C2.49864 7.7419 2.50034 5.50548 2.50619 3.26908C2.5036 3.24332 2.50223 3.21744 2.5021 3.19154C2.50312 1.98108 5.18793 1 8.50002 1C11.8121 1 14.4969 1.98108 14.4969 3.19154C14.4972 3.23883 14.4935 3.28605 14.4857 3.33262C14.4955 3.36646 14.5003 3.40169 14.5 3.43708L14.4387 12.9813C13.9917 12.5101 14.1907 12.2032 14.1907 12.2032C14.0831 12.0752 13.938 12.2183 13.7174 12.436C13.6969 12.4561 13.6758 12.477 13.654 12.4983L13.648 10.6934C11.901 11.7714 9.44297 12.2258 6.9584 11.9211C5.41951 11.7316 4.10721 11.2423 3.34289 10.6568ZM12.4257 6.26441C12.4936 6.33466 12.5853 6.37363 12.6805 6.37277H12.6815C12.8817 6.37277 13.0452 6.20585 13.0452 5.998C13.0452 5.79123 12.8817 5.62431 12.6815 5.62431C12.4813 5.62431 12.3178 5.79123 12.3178 5.998C12.3189 6.09835 12.3577 6.19416 12.4257 6.26441ZM12.4257 9.34764C12.4936 9.41789 12.5853 9.45686 12.6805 9.456H12.6815C12.8817 9.456 13.0452 9.288 13.0452 9.08123C13.0452 8.87446 12.8817 8.70646 12.6815 8.70646C12.4813 8.70646 12.3178 8.87446 12.3178 9.08123C12.3189 9.18158 12.3577 9.27739 12.4257 9.34764ZM12.5426 12.5515C12.5864 12.5701 12.6333 12.5795 12.6805 12.5791L12.6815 12.578C12.8817 12.578 13.0452 12.41 13.0452 12.2032C13.0452 11.9965 12.8817 11.8285 12.6815 11.8285C12.4813 11.8285 12.3178 11.9965 12.3178 12.2032C12.3182 12.253 12.3279 12.3022 12.3463 12.3481C12.3648 12.3939 12.3916 12.4354 12.4253 12.4703C12.459 12.5052 12.4988 12.5328 12.5426 12.5515Z" fill="#212121"/>
<path d="M14.4387 12.9813C13.9917 12.5101 14.1907 12.2032 14.1907 12.2032C14.0831 12.0752 13.938 12.2183 13.7174 12.436L13.654 12.4983L13.6541 12.525C13.6536 12.6321 13.6536 12.6321 13.6959 12.6624C13.7382 12.6926 13.8229 12.7531 13.9917 12.9813C14.2205 12.9824 14.4387 12.9813 14.4387 12.9813Z" fill="#212121"/>
<path fill-rule="evenodd" clip-rule="evenodd" d="M7.89121 12.2361C7.77544 12.1328 7.78066 11.954 7.90167 11.8777L11.7828 9.43134C11.933 9.33664 12.1403 9.46614 12.1349 9.65132L12.084 11.3972C12.1617 11.3857 12.2392 11.3711 12.3163 11.3534C12.7865 11.2459 13.2336 11.0272 13.6321 10.7099C14.0305 10.3925 14.3726 9.98265 14.6387 9.50374C14.705 9.38442 14.7605 9.29411 14.8078 9.21699C14.8824 9.09559 14.9369 9.00686 14.982 8.88906C15.0705 8.65743 15.2903 8.50144 15.5337 8.56901L16.1096 8.72886C16.345 8.79421 16.5046 9.03975 16.452 9.27668C16.3446 9.7604 16.2141 10.008 15.9137 10.5486C15.5359 11.2286 15.0503 11.8105 14.4845 12.2611C13.9188 12.7117 13.284 13.0222 12.6164 13.1748C12.4221 13.2193 12.2261 13.2501 12.0294 13.2673L11.9669 15.4106C11.9615 15.5958 11.748 15.6773 11.6043 15.5491L7.89121 12.2361Z" fill="#FF6E1D"/>
<path fill-rule="evenodd" clip-rule="evenodd" d="M14.6387 9.50374C14.705 9.38443 14.7605 9.29412 14.8078 9.217C14.8824 9.0956 14.9369 9.00686 14.982 8.88906C15.0705 8.65743 15.2903 8.50144 15.5337 8.56901L16.1096 8.72886C16.345 8.79421 16.5046 9.03975 16.452 9.27668C16.3446 9.7604 16.2141 10.008 15.9137 10.5486C15.5359 11.2286 15.0503 11.8105 14.4845 12.2611C13.9188 12.7117 13.284 13.0222 12.6164 13.1748C12.4221 13.2193 12.2261 13.2501 12.0294 13.2673L11.9669 15.4106C11.9615 15.5958 11.748 15.6773 11.6043 15.5491L7.89121 12.2361C7.77544 12.1328 7.78066 11.954 7.90167 11.8777L11.7828 9.43134C11.933 9.33664 12.1403 9.46614 12.1349 9.65132L12.084 11.3972C12.1617 11.3857 12.2392 11.3711 12.3163 11.3534C12.3392 11.3482 12.362 11.3427 12.3848 11.337C12.8299 11.2244 13.253 11.0118 13.6321 10.7099C14.0305 10.3925 14.3726 9.98265 14.6387 9.50374ZM11.7746 11.7518L12.1511 11.6959C12.2361 11.6833 12.3207 11.6674 12.4048 11.6481C12.9176 11.5309 13.4008 11.2934 13.8282 10.9529C14.2556 10.6126 14.6196 10.1753 14.9016 9.66788C14.9648 9.55413 15.0176 9.46813 15.0648 9.39134L15.0699 9.38296C15.141 9.26738 15.2071 9.15978 15.2613 9.01789C15.2864 8.95224 15.328 8.90406 15.37 8.87811C15.4094 8.85381 15.4448 8.85053 15.4777 8.85965L16.0535 9.0195C16.13 9.04073 16.176 9.11867 16.1607 9.18751C16.0628 9.62874 15.9495 9.84683 15.6508 10.3845C15.2889 11.0359 14.8252 11.5904 14.2883 12.018C13.7515 12.4456 13.1529 12.7372 12.528 12.8802C12.346 12.9218 12.1628 12.9505 11.9793 12.9666L11.7385 12.9876L11.6732 15.2252L8.15531 12.0865L11.8324 9.76868L11.7746 11.7518Z" fill="black"/>
</g>
<defs>
<clipPath id="clip0_312_1560">
<rect width="16" height="16" fill="white" transform="translate(0.5)"/>
</clipPath>
</defs>
</svg>
