<svg width="16" height="16" viewBox="0 0 16 16" fill="none" xmlns="http://www.w3.org/2000/svg">
<g clip-path="url(#clip0_312_2287)">
<path d="M8.62317 9.02502L8.7652 -0.0769043H3.76552H0.5V16.0265H2.44957L8.62317 9.02502Z" fill="#554646"/>
<path d="M13.4957 -0.0769043H12.2122V0.803032V1.36879V6.1643H8.63037V11.5256L13.4957 16.0265H15.4452V2.02356L13.4957 -0.0769043Z" fill="#554646"/>
<path d="M13.5044 10.4008V16.0265H7.98065L7.33079 9.69763L13.5044 10.4008Z" fill="#F5F9FE"/>
<path d="M7.98047 9.69763V16.0265H2.45672V10.4008L7.98047 9.69763Z" fill="#F5F9FE"/>
<path d="M7.90704 6.22444L7.92929 3.05257L7.91025 -0.0769043H12.2407V6.22444H7.90704Z" fill="#F5F9FE"/>
<path d="M5.06164 -0.0769043V4.82414H7.30364V-0.0769043H7.96973V6.22444H3.72944V-0.0769043H5.06164Z" fill="#F5F9FE"/>
<path d="M13.5044 10.4282H7.98065L7.33079 9.378L7.98065 8.32776H13.5044V10.4282Z" fill="#CD3D3C"/>
<path d="M2.45672 8.32776H7.98047V10.4282H2.45672V8.32776Z" fill="#CD3D3C"/>
<path fill-rule="evenodd" clip-rule="evenodd" d="M2.46469 16.0182V16.0265H15.4531V2.02355L13.5036 -0.0769043H0.507812V16.0265L2.46469 16.0182ZM1.00781 15.5244L2.96469 15.5161V15.5265H14.9531V2.21983L13.2855 0.423096H1.00781V15.5244Z" fill="#554646"/>
<path d="M3.31055 11.8504C3.31055 11.5725 3.53585 11.3472 3.81378 11.3472H12.1531C12.431 11.3472 12.6563 11.5725 12.6563 11.8504V11.8504C12.6563 12.1283 12.431 12.3536 12.1531 12.3536H3.81378C3.53585 12.3536 3.31055 12.1283 3.31055 11.8504V11.8504Z" fill="#A49292"/>
<path d="M3.31055 13.8632C3.31055 13.5853 3.53585 13.36 3.81378 13.36H12.1531C12.431 13.36 12.6563 13.5853 12.6563 13.8632V13.8632C12.6563 14.1411 12.431 14.3664 12.1531 14.3664H3.81378C3.53585 14.3664 3.31055 14.1411 3.31055 13.8632V13.8632Z" fill="#A49292"/>
<path d="M12.386 2.82484L3.75342 11.9167L6.57177 14.5927L15.2043 5.5008L12.386 2.82484Z" fill="#FFC834"/>
<path fill-rule="evenodd" clip-rule="evenodd" d="M12.3896 2.96621L3.89479 11.9131L6.56811 14.4513L15.0629 5.50447L12.3896 2.96621ZM12.386 2.82484L15.2043 5.5008L6.57177 14.5927L3.75342 11.9167L12.386 2.82484Z" fill="#C2A350"/>
<path d="M3.75315 11.9167L3.10071 15.426L6.57149 14.5926L3.75315 11.9167Z" fill="#EEDBA9"/>
<path fill-rule="evenodd" clip-rule="evenodd" d="M3.10071 15.426L6.57149 14.5926L3.75315 11.9167L3.10071 15.426ZM3.81781 12.1159L3.22719 15.2928L6.36912 14.5383L3.81781 12.1159Z" fill="#C6A140"/>
<path d="M3.10089 15.4253L3.31441 14.2768L4.23676 15.1525L3.10089 15.4253Z" fill="#5B4E2C"/>
<path opacity="0.3" d="M6.57166 14.5926L4.23768 15.1516L3.88695 14.8164L13.7953 4.16262L15.2045 5.50062L6.57166 14.5926Z" fill="#8A6607"/>
</g>
<defs>
<clipPath id="clip0_312_2287">
<rect width="16" height="16" fill="white"/>
</clipPath>
</defs>
</svg>
