<svg width="17" height="16" viewBox="0 0 17 16" fill="none" xmlns="http://www.w3.org/2000/svg">
<g clip-path="url(#clip0_312_2170)">
<path d="M6.93738 13.6891H13.7727C14.0026 13.6891 14.189 13.5027 14.189 13.2729V2.72719C14.189 2.49728 14.0026 2.31091 13.7727 2.31091H3.22736C2.99746 2.31091 2.8111 2.49728 2.8111 2.72719V9.56273C2.8111 9.67311 2.85495 9.77899 2.93304 9.85708L6.64303 13.5672C6.72108 13.6453 6.82695 13.6891 6.93738 13.6891Z" fill="#FFD155"/>
<path fill-rule="evenodd" clip-rule="evenodd" d="M13.7727 13.3891H6.93738C6.90653 13.3891 6.87696 13.3769 6.85517 13.3551L3.14517 9.64496C3.12334 9.62312 3.1111 9.59354 3.1111 9.56273V2.72719C3.1111 2.66296 3.16316 2.61091 3.22736 2.61091H13.7727C13.8369 2.61091 13.889 2.66296 13.889 2.72719V13.2729C13.889 13.3371 13.8369 13.3891 13.7727 13.3891ZM13.7727 13.6891H6.93738C6.82695 13.6891 6.72108 13.6453 6.64303 13.5672L2.93304 9.85708C2.85495 9.77899 2.8111 9.67311 2.8111 9.56273V2.72719C2.8111 2.49728 2.99747 2.31091 3.22736 2.31091H13.7727C14.0026 2.31091 14.189 2.49728 14.189 2.72719V13.2729C14.189 13.5027 14.0026 13.6891 13.7727 13.6891Z" fill="#EAB62A"/>
<path d="M11.5661 5.80069H5.43384C5.20396 5.80069 5.01758 5.61432 5.01758 5.38442C5.01758 5.15453 5.20394 4.96814 5.43384 4.96814H11.5661C11.796 4.96814 11.9824 5.15451 11.9824 5.38442C11.9824 5.61432 11.796 5.80069 11.5661 5.80069Z" fill="#FFC72D"/>
<path fill-rule="evenodd" clip-rule="evenodd" d="M5.43384 5.50069H11.5661C11.6303 5.50069 11.6824 5.44863 11.6824 5.38442C11.6824 5.3202 11.6303 5.26814 11.5661 5.26814H5.43384C5.36965 5.26814 5.31758 5.3202 5.31758 5.38442C5.31758 5.44864 5.36965 5.50069 5.43384 5.50069ZM5.43384 5.80069H11.5661C11.796 5.80069 11.9824 5.61432 11.9824 5.38442C11.9824 5.15451 11.796 4.96814 11.5661 4.96814H5.43384C5.20394 4.96814 5.01758 5.15453 5.01758 5.38442C5.01758 5.61432 5.20396 5.80069 5.43384 5.80069Z" fill="#EAB62A"/>
<path d="M11.5661 8.01273H5.43384C5.20396 8.01273 5.01758 7.82636 5.01758 7.59645C5.01758 7.36657 5.20394 7.18018 5.43384 7.18018H11.5661C11.796 7.18018 11.9824 7.36655 11.9824 7.59645C11.9824 7.82636 11.796 8.01273 11.5661 8.01273Z" fill="#FFC72D"/>
<path fill-rule="evenodd" clip-rule="evenodd" d="M5.43384 7.71273H11.5661C11.6303 7.71273 11.6824 7.66066 11.6824 7.59645C11.6824 7.53223 11.6303 7.48018 11.5661 7.48018H5.43384C5.36965 7.48018 5.31758 7.53223 5.31758 7.59645C5.31758 7.66067 5.36965 7.71273 5.43384 7.71273ZM5.43384 8.01273H11.5661C11.796 8.01273 11.9824 7.82636 11.9824 7.59645C11.9824 7.36655 11.796 7.18018 11.5661 7.18018H5.43384C5.20394 7.18018 5.01758 7.36657 5.01758 7.59645C5.01758 7.82636 5.20396 8.01273 5.43384 8.01273Z" fill="#EAB62A"/>
<path d="M6.93783 13.6892C7.167 13.6892 7.354 13.5032 7.354 13.2729V9.56276C7.354 9.33285 7.16764 9.14648 6.93774 9.14648H3.22774C2.85837 9.14648 2.67134 9.59503 2.93342 9.85712L6.64344 13.5673C6.72304 13.6469 6.82954 13.6892 6.93783 13.6892Z" fill="#FFC72D"/>
<path fill-rule="evenodd" clip-rule="evenodd" d="M6.8556 13.3552L6.85557 13.3551L3.14555 9.64499C3.07311 9.57254 3.12472 9.44648 3.22774 9.44648H6.93774C7.00194 9.44648 7.054 9.49853 7.054 9.56276V13.2729C7.054 13.3371 7.00173 13.3892 6.93783 13.3892C6.90738 13.3892 6.87772 13.3773 6.8556 13.3552ZM6.64344 13.5673L2.93342 9.85712C2.67134 9.59503 2.85837 9.14648 3.22774 9.14648H6.93774C7.16764 9.14648 7.354 9.33285 7.354 9.56276V13.2729C7.354 13.5032 7.167 13.6892 6.93783 13.6892C6.82954 13.6892 6.72304 13.6469 6.64344 13.5673Z" fill="#EAB62A"/>
<path d="M15.7799 12.4239L12.8603 14.4208C12.7301 14.4986 12.5829 14.5435 12.4315 14.5515C12.28 14.5595 12.1289 14.5304 11.9913 14.4667C11.8536 14.4031 11.7335 14.3068 11.6415 14.1863C11.5495 14.0657 11.4883 13.9246 11.4632 13.775L11.4632 12.7205L8.85174 12.6969C8.60551 12.6962 8.36957 12.5981 8.19546 12.4239C8.02135 12.2498 7.92321 12.0139 7.92248 11.7677C7.92321 11.5214 8.02135 11.2855 8.19546 11.1114C8.36957 10.9373 8.60551 10.8391 8.85174 10.8384L11.4632 10.8488L11.4632 9.79435C11.4883 9.64478 11.5495 9.5036 11.6415 9.38305C11.7335 9.2625 11.8536 9.16623 11.9913 9.1026C12.1289 9.03896 12.28 9.00988 12.4315 9.01788C12.5829 9.02587 12.7301 9.07071 12.8603 9.14849L15.7799 11.1454C15.886 11.2149 15.9731 11.3098 16.0334 11.4214C16.0938 11.533 16.1253 11.6578 16.1253 11.7847C16.1253 11.9115 16.0938 12.0364 16.0334 12.148C15.9731 12.2596 15.886 12.3544 15.7799 12.4239Z" fill="#28EA3C"/>
<path fill-rule="evenodd" clip-rule="evenodd" d="M15.6105 12.1763L12.6993 14.1675C12.6128 14.2177 12.5156 14.2466 12.4157 14.2519C12.313 14.2573 12.2105 14.2376 12.1171 14.1944C12.0238 14.1513 11.9424 14.086 11.88 14.0042C11.8221 13.9285 11.7822 13.8407 11.7632 13.7475L11.7632 12.4232L8.85445 12.3969L8.85263 12.3969C8.68566 12.3964 8.52566 12.3299 8.4076 12.2118C8.28974 12.094 8.22321 11.9343 8.22248 11.7677C8.22321 11.601 8.28974 11.4414 8.4076 11.3235C8.52544 11.2057 8.68505 11.1392 8.85168 11.1384V11.1384L11.7632 11.15L11.7632 9.82179C11.7822 9.72861 11.8221 9.64084 11.88 9.56509C11.9424 9.48335 12.0238 9.41806 12.1171 9.37491C12.2105 9.33176 12.313 9.31204 12.4157 9.31746C12.5156 9.32274 12.6128 9.35166 12.6993 9.40181L15.6155 11.3964C15.6799 11.4386 15.7329 11.4962 15.7695 11.564C15.8061 11.6318 15.8253 11.7076 15.8253 11.7847C15.8253 11.8617 15.8061 11.9376 15.7695 12.0054C15.7329 12.0732 15.6799 12.1308 15.6155 12.173L15.6105 12.1763ZM12.8603 9.14849C12.7301 9.07071 12.5829 9.02587 12.4315 9.01788C12.28 9.00988 12.1289 9.03896 11.9913 9.1026C11.8536 9.16623 11.7335 9.2625 11.6415 9.38305C11.5495 9.5036 11.4883 9.64478 11.4632 9.79435L11.4632 10.8488L8.85174 10.8384C8.60551 10.8391 8.36957 10.9373 8.19546 11.1114C8.02135 11.2855 7.92321 11.5214 7.92248 11.7677C7.92321 12.0139 8.02135 12.2498 8.19546 12.4239C8.36957 12.5981 8.60551 12.6962 8.85174 12.6969L11.4632 12.7205L11.4632 13.775C11.4883 13.9246 11.5495 14.0657 11.6415 14.1863C11.7335 14.3068 11.8536 14.4031 11.9913 14.4667C12.1289 14.5304 12.28 14.5595 12.4315 14.5515C12.5829 14.5435 12.7301 14.4986 12.8603 14.4208L15.7799 12.4239C15.886 12.3544 15.9731 12.2596 16.0334 12.148C16.0938 12.0364 16.1253 11.9115 16.1253 11.7847C16.1253 11.6578 16.0938 11.533 16.0334 11.4214C15.9731 11.3098 15.886 11.2149 15.7799 11.1454L12.8603 9.14849Z" fill="#1C7E26"/>
</g>
<defs>
<clipPath id="clip0_312_2170">
<rect width="16" height="16" fill="white" transform="translate(0.5)"/>
</clipPath>
</defs>
</svg>
