<svg width="17" height="16" viewBox="0 0 17 16" fill="none" xmlns="http://www.w3.org/2000/svg">
<path d="M6.93738 13.6891H13.7727C14.0026 13.6891 14.189 13.5027 14.189 13.2729V2.72719C14.189 2.49728 14.0026 2.31091 13.7727 2.31091H3.22736C2.99746 2.31091 2.8111 2.49728 2.8111 2.72719V9.56273C2.8111 9.67311 2.85495 9.77899 2.93304 9.85708L6.64303 13.5672C6.72108 13.6453 6.82695 13.6891 6.93738 13.6891Z" fill="#FFD155"/>
<path fill-rule="evenodd" clip-rule="evenodd" d="M13.7727 13.3891H6.93738C6.90653 13.3891 6.87696 13.3769 6.85517 13.3551L3.14517 9.64496C3.12334 9.62312 3.1111 9.59354 3.1111 9.56273V2.72719C3.1111 2.66296 3.16316 2.61091 3.22736 2.61091H13.7727C13.8369 2.61091 13.889 2.66296 13.889 2.72719V13.2729C13.889 13.3371 13.8369 13.3891 13.7727 13.3891ZM13.7727 13.6891H6.93738C6.82695 13.6891 6.72108 13.6453 6.64303 13.5672L2.93304 9.85708C2.85495 9.77899 2.8111 9.67311 2.8111 9.56273V2.72719C2.8111 2.49728 2.99747 2.31091 3.22736 2.31091H13.7727C14.0026 2.31091 14.189 2.49728 14.189 2.72719V13.2729C14.189 13.5027 14.0026 13.6891 13.7727 13.6891Z" fill="#EAB62A"/>
<path d="M11.5661 5.80069H5.43384C5.20396 5.80069 5.01758 5.61432 5.01758 5.38442C5.01758 5.15453 5.20394 4.96814 5.43384 4.96814H11.5661C11.796 4.96814 11.9824 5.15451 11.9824 5.38442C11.9824 5.61432 11.796 5.80069 11.5661 5.80069Z" fill="#FFC72D"/>
<path fill-rule="evenodd" clip-rule="evenodd" d="M5.43384 5.50069H11.5661C11.6303 5.50069 11.6824 5.44863 11.6824 5.38442C11.6824 5.3202 11.6303 5.26814 11.5661 5.26814H5.43384C5.36965 5.26814 5.31758 5.3202 5.31758 5.38442C5.31758 5.44864 5.36965 5.50069 5.43384 5.50069ZM5.43384 5.80069H11.5661C11.796 5.80069 11.9824 5.61432 11.9824 5.38442C11.9824 5.15451 11.796 4.96814 11.5661 4.96814H5.43384C5.20394 4.96814 5.01758 5.15453 5.01758 5.38442C5.01758 5.61432 5.20396 5.80069 5.43384 5.80069Z" fill="#EAB62A"/>
<path d="M11.5661 8.01273H5.43384C5.20396 8.01273 5.01758 7.82636 5.01758 7.59645C5.01758 7.36657 5.20394 7.18018 5.43384 7.18018H11.5661C11.796 7.18018 11.9824 7.36655 11.9824 7.59645C11.9824 7.82636 11.796 8.01273 11.5661 8.01273Z" fill="#FFC72D"/>
<path fill-rule="evenodd" clip-rule="evenodd" d="M5.43384 7.71273H11.5661C11.6303 7.71273 11.6824 7.66066 11.6824 7.59645C11.6824 7.53223 11.6303 7.48018 11.5661 7.48018H5.43384C5.36965 7.48018 5.31758 7.53223 5.31758 7.59645C5.31758 7.66067 5.36965 7.71273 5.43384 7.71273ZM5.43384 8.01273H11.5661C11.796 8.01273 11.9824 7.82636 11.9824 7.59645C11.9824 7.36655 11.796 7.18018 11.5661 7.18018H5.43384C5.20394 7.18018 5.01758 7.36657 5.01758 7.59645C5.01758 7.82636 5.20396 8.01273 5.43384 8.01273Z" fill="#EAB62A"/>
<path d="M6.93783 13.6892C7.167 13.6892 7.354 13.5032 7.354 13.2729V9.56276C7.354 9.33285 7.16764 9.14648 6.93774 9.14648H3.22774C2.85837 9.14648 2.67134 9.59503 2.93342 9.85712L6.64344 13.5673C6.72304 13.6469 6.82954 13.6892 6.93783 13.6892Z" fill="#FFC72D"/>
<path fill-rule="evenodd" clip-rule="evenodd" d="M6.8556 13.3552L6.85557 13.3551L3.14555 9.64499C3.07311 9.57254 3.12472 9.44648 3.22774 9.44648H6.93774C7.00194 9.44648 7.054 9.49853 7.054 9.56276V13.2729C7.054 13.3371 7.00173 13.3892 6.93783 13.3892C6.90738 13.3892 6.87772 13.3773 6.8556 13.3552ZM6.64344 13.5673L2.93342 9.85712C2.67134 9.59503 2.85837 9.14648 3.22774 9.14648H6.93774C7.16764 9.14648 7.354 9.33285 7.354 9.56276V13.2729C7.354 13.5032 7.167 13.6892 6.93783 13.6892C6.82954 13.6892 6.72304 13.6469 6.64344 13.5673Z" fill="#EAB62A"/>
</svg>
