<svg width="16" height="17" viewBox="0 0 16 17" fill="none" xmlns="http://www.w3.org/2000/svg">
<g clip-path="url(#clip0_364_1775)">
<rect x="4.13672" y="2.54053" width="4.69287" height="1.35455" rx="0.677277" fill="#4B4949"/>
<rect x="6.60498" y="7.97961" width="6.29102" height="1.35455" rx="0.677277" fill="#4B4949"/>
<rect x="9.75049" y="13.4188" width="6.24951" height="1.35455" rx="0.677277" fill="#4B4949"/>
<path d="M0.877441 1.94794C0.811035 1.94794 0.751465 1.91864 0.69873 1.86005C0.645996 1.7995 0.619629 1.73798 0.619629 1.67548C0.619629 1.61298 0.63623 1.55048 0.669434 1.48798C0.70459 1.42352 0.758301 1.38446 0.830566 1.37079C0.904785 1.35516 0.980957 1.31219 1.05908 1.24188C1.13916 1.16962 1.21631 1.06512 1.29053 0.928406C1.34912 0.819031 1.43018 0.764343 1.53369 0.764343C1.61768 0.764343 1.69092 0.789734 1.75342 0.840515C1.81787 0.889343 1.8501 0.956726 1.8501 1.04266L1.84717 4.2829H2.1958C2.26416 4.2829 2.3208 4.31512 2.36572 4.37958C2.41064 4.44208 2.43311 4.50262 2.43311 4.56122C2.43311 4.63739 2.40576 4.70282 2.35107 4.75751C2.29639 4.81219 2.23096 4.83954 2.15479 4.83954H0.88916C0.812988 4.83954 0.747559 4.81219 0.692871 4.75751C0.638184 4.70282 0.61084 4.63739 0.61084 4.56122C0.61084 4.50262 0.633301 4.44208 0.678223 4.37958C0.723145 4.31512 0.779785 4.2829 0.848145 4.2829H1.26123V1.82489C1.20654 1.85614 1.1499 1.88446 1.09131 1.90985C1.03271 1.93524 0.961426 1.94794 0.877441 1.94794Z" fill="#4B4949"/>
<path d="M2.54102 10.582C2.46094 10.582 2.3916 10.5537 2.33301 10.4971C2.27637 10.4385 2.24805 10.3691 2.24805 10.2891C2.24805 10.1895 2.27832 10.0869 2.33887 9.98145C2.39941 9.87402 2.47461 9.77051 2.56445 9.6709C2.6543 9.56934 2.74512 9.47656 2.83691 9.39258C2.92871 9.30859 3.00586 9.23926 3.06836 9.18457C3.19141 9.07715 3.32422 8.97754 3.4668 8.88574C3.60938 8.79199 3.74414 8.69434 3.87109 8.59277C4 8.48926 4.10449 8.37207 4.18457 8.24121C4.2666 8.1084 4.30762 7.95117 4.30762 7.76953C4.30762 7.62695 4.27539 7.49902 4.21094 7.38574C4.14648 7.27246 4.05957 7.18262 3.9502 7.11621C3.84082 7.04785 3.71777 7.01367 3.58105 7.01367C3.41113 7.01367 3.26465 7.06738 3.1416 7.1748C3.02051 7.28223 2.94531 7.4043 2.91602 7.54102C2.90234 7.60352 2.86719 7.6582 2.81055 7.70508C2.75586 7.75195 2.69434 7.77539 2.62598 7.77539C2.5459 7.77539 2.47656 7.74707 2.41797 7.69043C2.36133 7.63379 2.33301 7.56641 2.33301 7.48828C2.33301 7.34375 2.36914 7.20801 2.44141 7.08105C2.51367 6.95215 2.60938 6.83887 2.72852 6.74121C2.84961 6.64355 2.98438 6.56738 3.13281 6.5127C3.28125 6.45605 3.43262 6.42773 3.58691 6.42773C3.84082 6.42773 4.06543 6.4873 4.26074 6.60645C4.45801 6.72363 4.6123 6.88281 4.72363 7.08398C4.83691 7.28516 4.89355 7.50977 4.89355 7.75781C4.89355 8.01562 4.84375 8.2373 4.74414 8.42285C4.64453 8.6084 4.51855 8.77051 4.36621 8.90918C4.21387 9.0459 4.05664 9.16992 3.89453 9.28125C3.73242 9.39258 3.58789 9.50293 3.46094 9.6123C3.32031 9.7373 3.19629 9.86523 3.08887 9.99609H4.80273C4.88281 9.99609 4.95117 10.0254 5.00781 10.084C5.06641 10.1406 5.0957 10.209 5.0957 10.2891C5.0957 10.3691 5.06641 10.4385 5.00781 10.4971C4.95117 10.5537 4.88281 10.582 4.80273 10.582H2.54102Z" fill="#4B4949"/>
<path d="M7.60889 13.1603C7.60889 13.0138 7.54736 12.8859 7.42432 12.7765C7.30322 12.6671 7.15967 12.6124 6.99365 12.6124C6.86279 12.6124 6.74268 12.6486 6.6333 12.7208C6.52393 12.7931 6.45361 12.8702 6.42236 12.9523C6.39502 13.0245 6.35693 13.0822 6.30811 13.1251C6.25928 13.1681 6.18994 13.1896 6.1001 13.1896C6.03564 13.1896 5.9751 13.1622 5.91846 13.1075C5.86182 13.0509 5.8335 12.9913 5.8335 12.9288C5.8335 12.9015 5.83545 12.8781 5.83936 12.8585C5.84521 12.837 5.8501 12.8195 5.854 12.8058C5.93408 12.5948 6.07275 12.4132 6.27002 12.2609C6.46924 12.1066 6.71045 12.0294 6.99365 12.0294C7.21045 12.0294 7.40967 12.0792 7.59131 12.1788C7.7749 12.2784 7.92139 12.4152 8.03076 12.589C8.14209 12.7628 8.19775 12.9611 8.19775 13.1837C8.19775 13.3536 8.16162 13.505 8.08936 13.6378C8.01904 13.7706 7.93701 13.8829 7.84326 13.9747C7.97998 14.0685 8.08838 14.1876 8.16846 14.3322C8.24854 14.4767 8.28857 14.6437 8.28857 14.8331C8.28857 15.0812 8.2251 15.3019 8.09814 15.4952C7.97119 15.6866 7.8042 15.837 7.59717 15.9464C7.39014 16.0558 7.16553 16.1105 6.92334 16.1105C6.66162 16.1105 6.42822 16.048 6.22314 15.923C6.01807 15.798 5.85596 15.6534 5.73682 15.4894C5.69971 15.4366 5.68115 15.379 5.68115 15.3165C5.68115 15.2365 5.7124 15.172 5.7749 15.1232C5.83936 15.0743 5.91064 15.0499 5.98877 15.0499C6.08057 15.0499 6.15576 15.089 6.21436 15.1671C6.28271 15.255 6.37842 15.3361 6.50146 15.4103C6.62451 15.4845 6.75928 15.5216 6.90576 15.5216C7.05029 15.5216 7.18213 15.4913 7.30127 15.4308C7.42236 15.3702 7.51904 15.2892 7.59131 15.1876C7.66553 15.0841 7.70264 14.9698 7.70264 14.8448C7.70264 14.6476 7.63623 14.5128 7.50342 14.4406C7.37061 14.3663 7.18213 14.3282 6.93799 14.3263C6.86182 14.3263 6.79541 14.299 6.73877 14.2443C6.68408 14.1896 6.65674 14.1202 6.65674 14.0363C6.65674 13.9288 6.69287 13.8507 6.76514 13.8019C6.8374 13.7511 6.91162 13.7257 6.98779 13.7257C7.16748 13.7257 7.31592 13.6808 7.43311 13.5909C7.55029 13.4991 7.60889 13.3556 7.60889 13.1603Z" fill="#4B4949"/>
</g>
<defs>
<clipPath id="clip0_364_1775">
<rect width="16" height="16" fill="white" transform="translate(0 0.448975)"/>
</clipPath>
</defs>
</svg>
