<svg width="17" height="16" viewBox="0 0 17 16" fill="none" xmlns="http://www.w3.org/2000/svg">
<g clip-path="url(#clip0_312_1813)">
<path d="M2.74095 6.77034H1.78584V4.15538L1.79512 3.72574L1.81057 3.25591C1.6519 3.41458 1.54166 3.51864 1.47984 3.5681L0.960555 3.98538L0.5 3.41046L1.95585 2.25134H2.74095V6.77034Z" fill="#554646"/>
<path d="M7.75874 11.3543H4.59977V10.6897L5.73415 9.54299C6.07004 9.19886 6.2895 8.96085 6.39253 8.82897C6.49556 8.69503 6.56975 8.57139 6.61508 8.45806C6.66041 8.34472 6.68308 8.22726 6.68308 8.10569C6.68308 7.92435 6.6326 7.78938 6.53162 7.70077C6.43271 7.61216 6.2998 7.56786 6.13289 7.56786C5.95773 7.56786 5.78773 7.60804 5.62288 7.6884C5.45803 7.76877 5.28596 7.88314 5.10669 8.0315L4.5874 7.4164C4.80995 7.22682 4.99438 7.09288 5.14069 7.01457C5.28699 6.93627 5.44669 6.87651 5.61979 6.8353C5.79288 6.79202 5.98658 6.77039 6.20089 6.77039C6.4832 6.77039 6.73254 6.8219 6.9489 6.92493C7.16527 7.02797 7.33322 7.17221 7.45273 7.35767C7.57225 7.54313 7.63201 7.75538 7.63201 7.99441C7.63201 8.20254 7.59492 8.3983 7.52073 8.5817C7.44861 8.76303 7.33528 8.94952 7.18073 9.14116C7.02824 9.3328 6.75829 9.60584 6.37089 9.96027L5.78979 10.5074V10.5506H7.75874V11.3543Z" fill="#554646"/>
<path d="M12.1831 12.4299C12.1831 12.7122 12.0976 12.9523 11.9266 13.1501C11.7556 13.3479 11.5155 13.4839 11.2064 13.5581V13.5767C11.5711 13.622 11.8473 13.7333 12.0348 13.9105C12.2223 14.0856 12.3161 14.3226 12.3161 14.6214C12.3161 15.0562 12.1584 15.3952 11.8431 15.6383C11.5279 15.8794 11.0776 16 10.4924 16C10.0019 16 9.56715 15.9186 9.18799 15.7558V14.9429C9.36314 15.0315 9.55581 15.1036 9.766 15.1592C9.97619 15.2149 10.1843 15.2427 10.3904 15.2427C10.7057 15.2427 10.9385 15.1891 11.0889 15.082C11.2394 14.9748 11.3146 14.8027 11.3146 14.5658C11.3146 14.3535 11.228 14.2031 11.0549 14.1145C10.8818 14.0259 10.6057 13.9816 10.2266 13.9816H9.88346V13.249H10.2327C10.583 13.249 10.8386 13.2037 10.9993 13.113C11.1621 13.0203 11.2435 12.8626 11.2435 12.6401C11.2435 12.298 11.0292 12.127 10.6006 12.127C10.4522 12.127 10.3007 12.1517 10.1462 12.2012C9.9937 12.2506 9.8237 12.3361 9.63618 12.4577L9.19417 11.7993C9.6063 11.5026 10.0978 11.3542 10.6686 11.3542C11.1363 11.3542 11.5052 11.449 11.7751 11.6386C12.0471 11.8282 12.1831 12.092 12.1831 12.4299Z" fill="#554646"/>
<path d="M13.3557 9.02303L9.87714 8.38181C9.72996 8.34522 9.59393 8.27327 9.48086 8.1722C9.36779 8.07112 9.28109 7.94399 9.22829 7.80182C9.17549 7.65964 9.15817 7.50673 9.17786 7.35636C9.19754 7.20598 9.25362 7.06268 9.34123 6.93888L10.0845 6.19086L6.42356 2.55348C6.24941 2.37941 6.15121 2.1435 6.15042 1.89727C6.14963 1.65104 6.2463 1.41451 6.41933 1.23932C6.5934 1.06517 6.82931 0.96697 7.07553 0.966177C7.32176 0.965384 7.5583 1.06206 7.73348 1.23509L11.4037 4.86312L12.1469 4.1151C12.2701 4.02669 12.4131 3.96969 12.5633 3.94904C12.7135 3.92839 12.8666 3.94471 13.0091 3.9966C13.1516 4.04848 13.2793 4.13436 13.3811 4.24678C13.4829 4.3592 13.5557 4.49476 13.5932 4.6417L14.2569 8.11606C14.2831 8.24016 14.2781 8.36885 14.2422 8.49052C14.2063 8.61219 14.1407 8.72302 14.0513 8.81301C13.9619 8.90299 13.8515 8.96931 13.7301 9.00598C13.6086 9.04264 13.48 9.0485 13.3557 9.02303Z" fill="#28EA3C"/>
<path fill-rule="evenodd" clip-rule="evenodd" d="M13.4101 8.728L9.94146 8.08861C9.84475 8.06322 9.7554 8.01522 9.68079 7.94853C9.60412 7.87999 9.54532 7.79377 9.50952 7.69737C9.47371 7.60096 9.46197 7.49726 9.47532 7.39529C9.48769 7.30079 9.52125 7.21041 9.57339 7.13087L10.5087 6.18949L6.63564 2.34129C6.63554 2.3412 6.63574 2.34139 6.63564 2.34129C6.51773 2.22328 6.45096 2.06314 6.45042 1.8963C6.44988 1.72963 6.5152 1.5695 6.63214 1.45077C6.75012 1.33306 6.90982 1.26671 7.0765 1.26618C7.24343 1.26564 7.40379 1.33116 7.52258 1.44844L11.4056 5.28684L12.3404 4.34601C12.4196 4.29337 12.5097 4.25922 12.6041 4.24624C12.706 4.23224 12.8098 4.24331 12.9064 4.2785C13.0031 4.31368 13.0897 4.37192 13.1587 4.44815C13.2259 4.52233 13.2744 4.61136 13.3005 4.70791L13.9633 8.1782C13.9793 8.25359 13.9763 8.33175 13.9545 8.40566C13.9327 8.47957 13.8928 8.54689 13.8385 8.60156C13.7842 8.65622 13.7171 8.69651 13.6433 8.71878C13.5696 8.74105 13.4914 8.74462 13.4159 8.72914L13.4101 8.728ZM13.5932 4.6417C13.5557 4.49476 13.4829 4.3592 13.3811 4.24678C13.2793 4.13436 13.1516 4.04848 13.0091 3.9966C12.8666 3.94471 12.7135 3.92839 12.5633 3.94904C12.4131 3.96969 12.2701 4.02669 12.1469 4.1151L11.4037 4.86312L7.73348 1.23509C7.5583 1.06206 7.32176 0.965384 7.07553 0.966177C6.82931 0.96697 6.5934 1.06517 6.41933 1.23932C6.2463 1.41451 6.14963 1.65104 6.15042 1.89727C6.15121 2.1435 6.24941 2.37941 6.42356 2.55348L10.0845 6.19086L9.34123 6.93888C9.25362 7.06268 9.19754 7.20598 9.17786 7.35636C9.15817 7.50673 9.17549 7.65964 9.22829 7.80182C9.28109 7.94399 9.36779 8.07112 9.48086 8.1722C9.59393 8.27327 9.72996 8.34522 9.87714 8.38181L13.3557 9.02303C13.48 9.0485 13.6086 9.04264 13.7301 9.00598C13.8515 8.96931 13.9619 8.90299 14.0513 8.81301C14.1407 8.72302 14.2063 8.61219 14.2422 8.49052C14.2781 8.36885 14.2831 8.24016 14.2569 8.11606L13.5932 4.6417Z" fill="#1C7E26"/>
</g>
<defs>
<clipPath id="clip0_312_1813">
<rect width="16" height="16" fill="white" transform="translate(0.5)"/>
</clipPath>
</defs>
</svg>
