<svg width="16" height="16" viewBox="0 0 16 16" fill="none" xmlns="http://www.w3.org/2000/svg">
<g clip-path="url(#clip0_312_2190)">
<path d="M2 14.4C2 14.1791 2.17909 14 2.4 14H14.6C14.8209 14 15 14.1791 15 14.4V14.6C15 14.8209 14.8209 15 14.6 15H2.4C2.17909 15 2 14.8209 2 14.6V14.4Z" fill="#554646"/>
<path d="M3 12.4C3 12.1791 3.17909 12 3.4 12H14.6C14.8209 12 15 12.1791 15 12.4V12.6C15 12.8209 14.8209 13 14.6 13H3.4C3.17909 13 3 12.8209 3 12.6V12.4Z" fill="#554646"/>
<path d="M5 10.4C5 10.1791 5.17909 10 5.4 10H14.6C14.8209 10 15 10.1791 15 10.4V10.6C15 10.8209 14.8209 11 14.6 11H5.4C5.17909 11 5 10.8209 5 10.6V10.4Z" fill="#554646"/>
<path d="M9 7.4C9 7.17909 9.17909 7 9.4 7H14.6C14.8209 7 15 7.17909 15 7.4V8.6C15 8.82091 14.8209 9 14.6 9H9.4C9.17909 9 9 8.82091 9 8.6V7.4Z" fill="#554646"/>
<path d="M5 5.4C5 5.17909 5.17909 5 5.4 5H14.6C14.8209 5 15 5.17909 15 5.4V5.6C15 5.82091 14.8209 6 14.6 6H5.4C5.17909 6 5 5.82091 5 5.6V5.4Z" fill="#554646"/>
<path d="M2 3.4C2 3.17909 2.17909 3 2.4 3H14.6C14.8209 3 15 3.17909 15 3.4V3.6C15 3.82091 14.8209 4 14.6 4H2.4C2.17909 4 2 3.82091 2 3.6V3.4Z" fill="#554646"/>
<path d="M4 1.4C4 1.17909 4.17909 1 4.4 1H14.6C14.8209 1 15 1.17909 15 1.4V1.6C15 1.82091 14.8209 2 14.6 2H4.4C4.17909 2 4 1.82091 4 1.6V1.4Z" fill="#554646"/>
<path d="M7.96887 8.6964L5.0493 10.6933C4.9191 10.7711 4.77189 10.8159 4.62044 10.8239C4.46899 10.8319 4.31788 10.8028 4.18022 10.7392C4.04256 10.6756 3.9225 10.5793 3.83047 10.4587C3.73844 10.3382 3.67722 10.197 3.65212 10.0474L3.65212 8.99297L1.0407 8.96939C0.794472 8.96865 0.558539 8.87051 0.384429 8.6964C0.210319 8.52229 0.112179 8.28636 0.111446 8.04013C0.112179 7.7939 0.210317 7.55797 0.384428 7.38386C0.558538 7.20975 0.794472 7.11161 1.0407 7.11088L3.65212 7.12128L3.65212 6.06681C3.67722 5.91724 3.73844 5.77606 3.83047 5.65551C3.9225 5.53496 4.04255 5.4387 4.18022 5.37506C4.31788 5.31142 4.46899 5.28234 4.62044 5.29034C4.77189 5.29833 4.9191 5.34317 5.0493 5.42095L7.96887 7.41785C8.07498 7.48737 8.16211 7.58221 8.22241 7.69382C8.28271 7.80542 8.31429 7.93028 8.31429 8.05713C8.31429 8.18398 8.28272 8.30884 8.22241 8.42044C8.16211 8.53205 8.07498 8.62688 7.96887 8.6964Z" fill="#28EA3C"/>
<path fill-rule="evenodd" clip-rule="evenodd" d="M7.7995 8.44878L4.88827 10.44C4.80177 10.4901 4.70456 10.5191 4.60462 10.5243C4.50192 10.5298 4.39945 10.51 4.3061 10.4669C4.21275 10.4237 4.13133 10.3585 4.06893 10.2767C4.0111 10.201 3.97121 10.1132 3.95212 10.02L3.95212 8.69567L1.04341 8.6694L1.04159 8.66939C0.874622 8.66889 0.71463 8.60234 0.596561 8.48427C0.478702 8.36641 0.412179 8.20678 0.411448 8.04013C0.412179 7.87348 0.478702 7.71385 0.59656 7.59599C0.714404 7.47815 0.874014 7.41163 1.04064 7.41088C1.04096 7.41088 1.04033 7.41088 1.04064 7.41088L3.95212 7.42248L3.95212 6.09425C3.97121 6.00108 4.0111 5.91331 4.06893 5.83755C4.13133 5.75581 4.21275 5.69052 4.3061 5.64737C4.39945 5.60422 4.50192 5.5845 4.60463 5.58992C4.70456 5.5952 4.80176 5.62412 4.88827 5.67427L7.80443 7.66884C7.86888 7.71107 7.92185 7.76863 7.95848 7.83643C7.99511 7.90422 8.01429 7.98007 8.01429 8.05713C8.01429 8.13419 7.99511 8.21004 7.95848 8.27783C7.92185 8.34562 7.86891 8.40324 7.80446 8.44547L7.7995 8.44878ZM5.0493 5.42095C4.9191 5.34317 4.77189 5.29833 4.62044 5.29034C4.46899 5.28234 4.31788 5.31142 4.18022 5.37506C4.04255 5.4387 3.9225 5.53496 3.83047 5.65551C3.73844 5.77606 3.67722 5.91724 3.65212 6.06681L3.65212 7.12128L1.0407 7.11088C0.794472 7.11161 0.558538 7.20975 0.384428 7.38386C0.210317 7.55797 0.112179 7.7939 0.111446 8.04013C0.112179 8.28636 0.210319 8.52229 0.384429 8.6964C0.558539 8.87051 0.794472 8.96865 1.0407 8.96939L3.65212 8.99297L3.65212 10.0474C3.67722 10.197 3.73844 10.3382 3.83047 10.4587C3.9225 10.5793 4.04255 10.6756 4.18022 10.7392C4.31788 10.8028 4.46899 10.8319 4.62044 10.8239C4.77189 10.8159 4.9191 10.7711 5.0493 10.6933L7.96887 8.6964C8.07498 8.62688 8.16211 8.53205 8.22241 8.42044C8.28272 8.30884 8.31429 8.18398 8.31429 8.05713C8.31429 7.93028 8.28271 7.80542 8.22241 7.69382C8.16211 7.58221 8.07498 7.48737 7.96887 7.41785L5.0493 5.42095Z" fill="#1C7E26"/>
</g>
<defs>
<clipPath id="clip0_312_2190">
<rect width="16" height="16" fill="white"/>
</clipPath>
</defs>
</svg>
