<svg width="16" height="16" viewBox="0 0 16 16" fill="none" xmlns="http://www.w3.org/2000/svg">
<g clip-path="url(#clip0_312_2224)">
<path d="M2 14.4C2 14.1791 2.17909 14 2.4 14H14.6C14.8209 14 15 14.1791 15 14.4V14.6C15 14.8209 14.8209 15 14.6 15H2.4C2.17909 15 2 14.8209 2 14.6V14.4Z" fill="#554646"/>
<path d="M3 12.4C3 12.1791 3.17909 12 3.4 12H14.6C14.8209 12 15 12.1791 15 12.4V12.6C15 12.8209 14.8209 13 14.6 13H3.4C3.17909 13 3 12.8209 3 12.6V12.4Z" fill="#554646"/>
<path d="M5 10.4C5 10.1791 5.17909 10 5.4 10H14.6C14.8209 10 15 10.1791 15 10.4V10.6C15 10.8209 14.8209 11 14.6 11H5.4C5.17909 11 5 10.8209 5 10.6V10.4Z" fill="#554646"/>
<path d="M9 7.4C9 7.17909 9.17909 7 9.4 7H14.6C14.8209 7 15 7.17909 15 7.4V8.6C15 8.82091 14.8209 9 14.6 9H9.4C9.17909 9 9 8.82091 9 8.6V7.4Z" fill="#554646"/>
<path d="M5 5.4C5 5.17909 5.17909 5 5.4 5H14.6C14.8209 5 15 5.17909 15 5.4V5.6C15 5.82091 14.8209 6 14.6 6H5.4C5.17909 6 5 5.82091 5 5.6V5.4Z" fill="#554646"/>
<path d="M2 3.4C2 3.17909 2.17909 3 2.4 3H14.6C14.8209 3 15 3.17909 15 3.4V3.6C15 3.82091 14.8209 4 14.6 4H2.4C2.17909 4 2 3.82091 2 3.6V3.4Z" fill="#554646"/>
<path d="M4 1.4C4 1.17909 4.17909 1 4.4 1H14.6C14.8209 1 15 1.17909 15 1.4V1.6C15 1.82091 14.8209 2 14.6 2H4.4C4.17909 2 4 1.82091 4 1.6V1.4Z" fill="#554646"/>
<path d="M0.390506 8.6964L3.31008 10.6933C3.44027 10.7711 3.58748 10.8159 3.73893 10.8239C3.89038 10.8319 4.04149 10.8028 4.17916 10.7392C4.31682 10.6756 4.43688 10.5793 4.5289 10.4587C4.62093 10.3382 4.68215 10.197 4.70725 10.0474L4.70725 8.99297L7.31867 8.96939C7.5649 8.96865 7.80084 8.87051 7.97495 8.6964C8.14906 8.52229 8.2472 8.28636 8.24793 8.04013C8.2472 7.7939 8.14906 7.55797 7.97495 7.38386C7.80084 7.20975 7.5649 7.11161 7.31868 7.11088L4.70725 7.12128L4.70725 6.06681C4.68215 5.91724 4.62093 5.77606 4.5289 5.65551C4.43687 5.53496 4.31682 5.4387 4.17916 5.37506C4.04149 5.31142 3.89038 5.28234 3.73893 5.29034C3.58748 5.29833 3.44027 5.34317 3.31008 5.42095L0.390506 7.41785C0.2844 7.48737 0.197265 7.58221 0.136963 7.69382C0.07666 7.80542 0.0450851 7.93028 0.0450852 8.05713C0.0450852 8.18398 0.0766598 8.30884 0.136963 8.42044C0.197266 8.53205 0.284399 8.62688 0.390506 8.6964Z" fill="#28EA3C"/>
<path fill-rule="evenodd" clip-rule="evenodd" d="M0.559871 8.44878L3.4711 10.44C3.55761 10.4901 3.65482 10.5191 3.75475 10.5243C3.85745 10.5298 3.95993 10.51 4.05328 10.4669C4.14663 10.4237 4.22804 10.3585 4.29045 10.2767C4.34828 10.201 4.38817 10.1132 4.40725 10.02L4.40725 8.69567L7.31597 8.6694L7.31778 8.66939C7.48475 8.66889 7.64475 8.60234 7.76281 8.48427C7.88067 8.36641 7.9472 8.20678 7.94793 8.04013C7.9472 7.87348 7.88067 7.71385 7.76282 7.59599C7.64497 7.47815 7.48536 7.41163 7.31873 7.41088C7.31841 7.41088 7.31905 7.41088 7.31873 7.41088L4.40725 7.42248L4.40725 6.09425C4.38817 6.00108 4.34828 5.91331 4.29045 5.83755C4.22804 5.75581 4.14663 5.69052 4.05328 5.64737C3.95993 5.60422 3.85745 5.5845 3.75475 5.58992C3.65482 5.5952 3.55761 5.62412 3.4711 5.67427L0.554949 7.66884C0.490493 7.71107 0.437529 7.76863 0.400898 7.83643C0.364266 7.90422 0.345085 7.98007 0.345085 8.05713C0.345085 8.13419 0.364266 8.21004 0.400897 8.27783C0.43753 8.34562 0.490461 8.40324 0.554917 8.44547L0.559871 8.44878ZM3.31008 5.42095C3.44027 5.34317 3.58748 5.29833 3.73893 5.29034C3.89038 5.28234 4.04149 5.31142 4.17916 5.37506C4.31682 5.4387 4.43688 5.53496 4.5289 5.65551C4.62093 5.77606 4.68215 5.91724 4.70725 6.06681L4.70725 7.12128L7.31868 7.11088C7.5649 7.11161 7.80084 7.20975 7.97495 7.38386C8.14906 7.55797 8.2472 7.7939 8.24793 8.04013C8.2472 8.28636 8.14906 8.52229 7.97495 8.6964C7.80084 8.87051 7.5649 8.96865 7.31867 8.96939L4.70725 8.99297L4.70725 10.0474C4.68215 10.197 4.62093 10.3382 4.5289 10.4587C4.43688 10.5793 4.31682 10.6756 4.17916 10.7392C4.04149 10.8028 3.89038 10.8319 3.73893 10.8239C3.58748 10.8159 3.44027 10.7711 3.31008 10.6933L0.390506 8.6964C0.284399 8.62688 0.197266 8.53205 0.136963 8.42044C0.0766598 8.30884 0.0450852 8.18398 0.0450852 8.05713C0.0450851 7.93028 0.07666 7.80542 0.136963 7.69382C0.197265 7.58221 0.2844 7.48737 0.390506 7.41785L3.31008 5.42095Z" fill="#1C7E26"/>
</g>
<defs>
<clipPath id="clip0_312_2224">
<rect width="16" height="16" fill="white"/>
</clipPath>
</defs>
</svg>
