<svg width="16" height="16" viewBox="0 0 16 16" fill="none" xmlns="http://www.w3.org/2000/svg">
<path d="M12.1265 7.52612C13.4604 7.52612 14.6503 8.05802 15.4248 8.88658Z" fill="#AEBCC3"/>
<path d="M0.5 10.4442C0.679063 10.762 1.03083 10.9771 1.43664 10.9771H14.4267C15.02 10.9771 15.5 10.5194 15.5 9.95465V9.66645H14.8939C14.8252 9.66788 14.7586 9.64206 14.7088 9.59463C14.659 9.54719 14.6299 9.48198 14.628 9.41322V8.22441C13.8867 7.74734 13.0238 7.49355 12.1423 7.49333H12.1688L11.2576 7.48909C10.3697 5.5819 8.65003 4 6.38684 4C4.12683 4 2.2313 5.48548 1.7153 7.48803H1.43664C0.84965 7.48803 0.507417 7.94151 0.507417 8.50095" fill="#CD3D3C"/>
<path d="M0.5 9.93876H0.727802C0.812963 9.94073 0.897677 9.9259 0.977105 9.89512C1.05653 9.86434 1.12912 9.81822 1.19071 9.75937C1.25231 9.70053 1.30171 9.63013 1.33609 9.5522C1.37047 9.47426 1.38915 9.39031 1.39108 9.30515V9.01377C1.39108 8.66412 1.09441 8.38123 0.727802 8.38123H0.506357" fill="#F5BB1D"/>
<path d="M2.07764 10.4442C2.07764 10.8693 2.25491 11.2771 2.57045 11.5777C2.88599 11.8784 3.31395 12.0473 3.7602 12.0473C4.20644 12.0473 4.6344 11.8784 4.94995 11.5777C5.26549 11.2771 5.44276 10.8693 5.44276 10.4442C5.44276 10.019 5.26549 9.61124 4.94995 9.3106C4.6344 9.00996 4.20644 8.84106 3.7602 8.84106C3.31395 8.84106 2.88599 9.00996 2.57045 9.3106C2.25491 9.61124 2.07764 10.019 2.07764 10.4442Z" fill="#455963"/>
<path d="M3.05225 10.4441C3.05225 10.6231 3.12682 10.7948 3.25955 10.9213C3.39228 11.0479 3.57231 11.119 3.76002 11.119C3.94774 11.119 4.12776 11.0479 4.2605 10.9213C4.39323 10.7948 4.4678 10.6231 4.4678 10.4441C4.4678 10.2651 4.39323 10.0934 4.2605 9.96685C4.12776 9.84027 3.94774 9.76917 3.76002 9.76917C3.57231 9.76917 3.39228 9.84027 3.25955 9.96685C3.12682 10.0934 3.05225 10.2651 3.05225 10.4441Z" fill="#AEBCC3"/>
<path d="M10.2236 10.4442C10.2236 10.8693 10.4008 11.2771 10.7161 11.5777C11.0315 11.8784 11.4592 12.0473 11.9051 12.0473C12.3511 12.0473 12.7788 11.8784 13.0941 11.5777C13.4095 11.2771 13.5866 10.8693 13.5866 10.4442C13.5866 10.019 13.4095 9.61124 13.0941 9.3106C12.7788 9.00996 12.3511 8.84106 11.9051 8.84106C11.4592 8.84106 11.0315 9.00996 10.7161 9.3106C10.4008 9.61124 10.2236 10.019 10.2236 10.4442Z" fill="#455963"/>
<path d="M11.1982 10.4441C11.1982 10.6231 11.2728 10.7948 11.4055 10.9213C11.5383 11.0479 11.7183 11.119 11.906 11.119C12.0937 11.119 12.2738 11.0479 12.4065 10.9213C12.5392 10.7948 12.6138 10.6231 12.6138 10.4441C12.6138 10.2651 12.5392 10.0934 12.4065 9.96685C12.2738 9.84027 12.0937 9.76917 11.906 9.76917C11.7183 9.76917 11.5383 9.84027 11.4055 9.96685C11.2728 10.0934 11.1982 10.2651 11.1982 10.4441Z" fill="#AEBCC3"/>
<path d="M15.4258 8.88976V8.88658C15.1877 8.63425 14.9198 8.41188 14.6279 8.22437V9.41318C14.6279 9.55304 14.7477 9.66641 14.8939 9.66641H15.4999V8.96605L15.4258 8.88976Z" fill="#F5BB1D"/>
<path d="M6.14321 4.66016C4.40661 4.76505 2.97622 5.93161 2.55664 7.48809H6.14321V4.66016ZM6.80754 7.48809H10.3941C9.71176 6.05028 8.45514 4.84558 6.80754 4.67287V7.48809Z" fill="#631536"/>
</svg>
