<svg width="16" height="16" viewBox="0 0 16 16" fill="none" xmlns="http://www.w3.org/2000/svg">
<path fill-rule="evenodd" clip-rule="evenodd" d="M2.8 1.8V14.2H13.2V1.8H2.8ZM2.72 1C2.32236 1 2 1.32236 2 1.72V14.28C2 14.6776 2.32236 15 2.72 15H13.28C13.6776 15 14 14.6776 14 14.28V1.72C14 1.32235 13.6776 1 13.28 1H2.72Z" fill="#554646"/>
<path d="M13.4545 1H2.54546C2.24422 1 2 1.29849 2 1.66667V4.33333C2 4.70151 2.24422 5 2.54546 5H3.09092H5.63637H6.72727H9.27273H10.3636H12.9091H13.4545C13.7558 5 14 4.70151 14 4.33333V1.66667C14 1.29849 13.7558 1 13.4545 1Z" fill="#CD3D3C"/>
<path fill-rule="evenodd" clip-rule="evenodd" d="M7.5 15L7.5 5H8.5V15H7.5Z" fill="#554646"/>
<path d="M12 2H13V3H12V2Z" fill="#F5F5F5"/>
</svg>
