<svg width="16" height="16" viewBox="0 0 16 16" fill="none" xmlns="http://www.w3.org/2000/svg">
<g clip-path="url(#clip0_312_2426)">
<path d="M3.78983 0.262713C3.92267 0.0966628 4.12379 0 4.33644 0H11.6636C11.8762 0 12.0773 0.0966628 12.2102 0.262713L15.8466 4.80826C15.9459 4.93238 16 5.0866 16 5.24555V10.7545C16 10.9134 15.9459 11.0676 15.8466 11.1917L12.2102 15.7373C12.0773 15.9033 11.8762 16 11.6636 16H4.33644C4.12379 16 3.92267 15.9033 3.78983 15.7373L0.153392 11.1917C0.0540965 11.0676 0 10.9134 0 10.7545V5.24555C0 5.0866 0.0540965 4.93238 0.153392 4.80826L3.78983 0.262713Z" fill="#CD3D3C"/>
<path fill-rule="evenodd" clip-rule="evenodd" d="M11.6636 0.5H4.33644C4.27568 0.5 4.21822 0.527618 4.18026 0.575061L0.543826 5.12061C0.515456 5.15607 0.5 5.20013 0.5 5.24555V10.7545C0.5 10.7999 0.515456 10.8439 0.543826 10.8794L4.18026 15.4249C4.21822 15.4724 4.27568 15.5 4.33644 15.5H11.6636C11.7243 15.5 11.7818 15.4724 11.8197 15.4249L15.4562 10.8794C15.4845 10.8439 15.5 10.7999 15.5 10.7545V5.24555C15.5 5.20013 15.4845 5.15607 15.4562 5.12061L11.8197 0.575061C11.7818 0.527618 11.7243 0.5 11.6636 0.5ZM4.33644 0C4.12379 0 3.92267 0.0966628 3.78983 0.262713L0.153392 4.80826C0.0540965 4.93238 0 5.0866 0 5.24555V10.7545C0 10.9134 0.0540965 11.0676 0.153392 11.1917L3.78983 15.7373C3.92267 15.9033 4.12379 16 4.33644 16H11.6636C11.8762 16 12.0773 15.9033 12.2102 15.7373L15.8466 11.1917C15.9459 11.0676 16 10.9134 16 10.7545V5.24555C16 5.0866 15.9459 4.93238 15.8466 4.80826L12.2102 0.262713C12.0773 0.0966628 11.8762 0 11.6636 0H4.33644Z" fill="#AE3434"/>
<path d="M4.50905 1.70119C4.64189 1.53514 4.84301 1.43848 5.05566 1.43848H10.9443C11.1569 1.43848 11.358 1.53514 11.4909 1.70119L14.4081 5.34767C14.5074 5.47179 14.5615 5.62601 14.5615 5.78496V10.215C14.5615 10.3739 14.5074 10.5282 14.4081 10.6523L11.4909 14.2987C11.358 14.4648 11.1569 14.5615 10.9443 14.5615H5.05566C4.84301 14.5615 4.64189 14.4648 4.50905 14.2987L1.59187 10.6523C1.49257 10.5282 1.43848 10.3739 1.43848 10.215V5.78496C1.43848 5.62601 1.49257 5.47179 1.59187 5.34767L4.50905 1.70119Z" fill="#F5F5F5"/>
<path d="M5.00335 2.6902C5.13619 2.52415 5.33731 2.42749 5.54995 2.42749H10.4496C10.6623 2.42749 10.8634 2.52415 10.9962 2.6902L13.4189 5.71859C13.5182 5.84271 13.5723 5.99692 13.5723 6.15587V9.84419C13.5723 10.0031 13.5182 10.1574 13.4189 10.2815L10.9962 13.3099C10.8634 13.4759 10.6623 13.5726 10.4496 13.5726H5.54995C5.3373 13.5726 5.13619 13.4759 5.00335 13.3099L2.58064 10.2815C2.48134 10.1574 2.42725 10.0031 2.42725 9.84419V6.15587C2.42725 5.99692 2.48134 5.84271 2.58064 5.71859L5.00335 2.6902Z" fill="#CD3D3C"/>
</g>
<defs>
<clipPath id="clip0_312_2426">
<rect width="16" height="16" fill="white"/>
</clipPath>
</defs>
</svg>
