<svg width="16" height="16" viewBox="0 0 16 16" fill="none" xmlns="http://www.w3.org/2000/svg">
<g clip-path="url(#clip0_312_1135)">
<path d="M15.9199 14.03L8.49221 1.38643C8.27108 1.01002 7.72896 1.01002 7.50783 1.38643L0.0801746 14.03C-0.144638 14.4127 0.130018 14.8958 0.572362 14.8958H15.4276C15.87 14.8958 16.1447 14.4127 15.9199 14.03Z" fill="#554646"/>
<path d="M9.69032 3.42603C7.33017 5.12915 5.79248 7.90128 5.79248 11.0342C5.79248 12.4113 6.09179 13.7178 6.62498 14.8958H15.4276C15.87 14.8958 16.1446 14.4127 15.9198 14.03L9.69032 3.42603Z" fill="#554646"/>
<path d="M7.88113 2.92927L1.68091 13.4835C1.60059 13.6202 1.69919 13.7924 1.85772 13.7924H14.1424C14.3009 13.7924 14.3995 13.6202 14.3192 13.4835L8.11894 2.92927C8.06563 2.83852 7.93444 2.83852 7.88113 2.92927Z" fill="#FFC850"/>
<path d="M5.79248 11.0341C5.79248 11.9942 5.93742 12.9203 6.20548 13.7925H14.1424C14.3009 13.7925 14.3995 13.6202 14.3192 13.4836L8.82464 4.13062C6.96107 5.84462 5.79248 8.30255 5.79248 11.0341Z" fill="#FFC850"/>
<path d="M8.00088 12.4131C8.30555 12.4131 8.55253 12.1661 8.55253 11.8615C8.55253 11.5568 8.30555 11.3098 8.00088 11.3098C7.6962 11.3098 7.44922 11.5568 7.44922 11.8615C7.44922 12.1661 7.6962 12.4131 8.00088 12.4131Z" fill="#554646"/>
<path d="M7.47044 6.66156L7.70688 10.208C7.71719 10.3626 7.83732 10.4825 7.98204 10.4825H8.02004C8.16475 10.4825 8.28488 10.3627 8.29519 10.208L8.53163 6.66156C8.54304 6.49047 8.41657 6.34497 8.25647 6.34497H7.74563C7.5855 6.34497 7.45904 6.4905 7.47044 6.66156Z" fill="#554646"/>
<path d="M14.1424 14.0684H1.85755C1.68571 14.0684 1.52568 13.9757 1.44027 13.8264C1.35486 13.6771 1.35596 13.4922 1.44296 13.3439L7.64333 2.78936C7.71849 2.66167 7.85183 2.58545 8.00027 2.58545C8.14843 2.58545 8.28177 2.66167 8.35693 2.78936L14.557 13.3439C14.644 13.4923 14.6451 13.6772 14.5596 13.8264C14.4742 13.9757 14.3142 14.0684 14.1424 14.0684ZM1.98121 13.5167H14.0187L7.99993 3.27142L1.98121 13.5167Z" fill="#FFC850"/>
</g>
<defs>
<clipPath id="clip0_312_1135">
<rect width="16" height="16" fill="white"/>
</clipPath>
</defs>
</svg>
