<svg width="16" height="16" viewBox="0 0 16 16" fill="none" xmlns="http://www.w3.org/2000/svg">
<path d="M1.97705 2.10018C1.97705 1.68592 2.31287 1.3501 2.72713 1.3501H10.832C11.2463 1.3501 11.5821 1.68592 11.5821 2.10018V11.9141C11.5821 12.3283 11.2463 12.6641 10.832 12.6641H2.72713C2.31287 12.6641 1.97705 12.3283 1.97705 11.9141V2.10018Z" fill="#F5F5F5"/>
<path d="M11.1886 1.24304H2.40315C2.16055 1.24304 1.96387 1.52713 1.96387 1.87756V4.41559V6.95362V9.49165V12.0297C1.96387 12.3801 2.16055 12.6642 2.40315 12.6642H5.33165H8.26015H11.1886C11.4313 12.6642 11.6279 12.3801 11.6279 12.0297V9.49165V6.95362V4.41559V1.87756C11.6279 1.52713 11.4312 1.24304 11.1886 1.24304ZM4.89236 10.7607C4.89236 11.1111 4.60829 11.3952 4.25786 11.3952H3.47691C3.12648 11.3952 2.84241 11.1111 2.84241 10.7607V10.7607C2.84241 10.4102 3.12648 10.1262 3.47691 10.1262H4.25786C4.60828 10.1262 4.89235 10.4102 4.89236 10.7607V10.7607ZM4.89236 8.22263C4.89236 8.57306 4.60829 8.85714 4.25786 8.85714H3.47691C3.12648 8.85714 2.84241 8.57306 2.84241 8.22264V8.22264C2.84241 7.87221 3.12648 7.58814 3.47691 7.58814H4.25786C4.60828 7.58814 4.89235 7.87221 4.89236 8.22263V8.22263ZM4.89236 5.6846C4.89236 6.03502 4.60829 6.31911 4.25786 6.31911H3.47691C3.12648 6.31911 2.84241 6.03503 2.84241 5.6846V5.6846C2.84241 5.33418 3.12648 5.0501 3.47691 5.0501H4.25786C4.60828 5.0501 4.89235 5.33417 4.89236 5.6846V5.6846ZM7.82085 10.7607C7.82085 11.1111 7.53677 11.3952 7.18635 11.3952H6.40541C6.05498 11.3952 5.77091 11.1111 5.77091 10.7607V10.7607C5.77091 10.4102 6.05498 10.1262 6.40541 10.1262H7.18635C7.53677 10.1262 7.82085 10.4102 7.82085 10.7607V10.7607ZM7.82085 8.22264C7.82085 8.57306 7.53677 8.85714 7.18635 8.85714H6.40541C6.05498 8.85714 5.77091 8.57306 5.77091 8.22264V8.22264C5.77091 7.87221 6.05498 7.58814 6.40541 7.58814H7.18635C7.53677 7.58814 7.82085 7.87221 7.82085 8.22264V8.22264ZM7.82085 5.6846C7.82085 6.03503 7.53677 6.31911 7.18635 6.31911H6.40541C6.05498 6.31911 5.77091 6.03503 5.77091 5.6846V5.6846C5.77091 5.33418 6.05498 5.0501 6.40541 5.0501H7.18635C7.53677 5.0501 7.82085 5.33418 7.82085 5.6846V5.6846ZM10.7493 10.7607C10.7493 11.1111 10.4653 11.3952 10.1148 11.3952H9.33389C8.98347 11.3952 8.69939 11.1111 8.69939 10.7607V10.7607C8.69939 10.4102 8.98346 10.1262 9.33389 10.1262H10.1148C10.4653 10.1262 10.7493 10.4102 10.7493 10.7607V10.7607ZM10.7493 8.22263C10.7493 8.57306 10.4653 8.85714 10.1148 8.85714H9.33389C8.98347 8.85714 8.69939 8.57306 8.69939 8.22264V8.22264C8.69939 7.87221 8.98347 7.58814 9.33389 7.58814H10.1148C10.4653 7.58814 10.7493 7.87221 10.7493 8.22263V8.22263ZM10.7493 5.6846C10.7493 6.03502 10.4653 6.31911 10.1148 6.31911H9.33389C8.98347 6.31911 8.69939 6.03503 8.69939 5.6846V5.6846C8.69939 5.33418 8.98347 5.0501 9.33389 5.0501H10.1148C10.4653 5.0501 10.7493 5.33417 10.7493 5.6846V5.6846Z" fill="#554646"/>
<path d="M11.1886 1.24304H2.40315C2.16055 1.24304 1.96387 1.48655 1.96387 1.78691V3.96236C1.96387 4.26272 2.16055 4.50623 2.40315 4.50623H2.84243H4.89238H5.77092H7.82087H8.69942H10.7494H11.1886C11.4313 4.50623 11.6279 4.26272 11.6279 3.96236V1.78691C11.6279 1.48655 11.4313 1.24304 11.1886 1.24304Z" fill="#CD3D3C"/>
<g filter="url(#filter0_f_312_2059)">
<path d="M4.43799 3.23703C4.43799 2.77874 4.8095 2.40723 5.26779 2.40723H11.3893C11.8476 2.40723 12.2191 2.77874 12.2191 3.23703V12.4844C12.2191 12.9427 11.8476 13.3142 11.3893 13.3142H5.26779C4.8095 13.3142 4.43799 12.9427 4.43799 12.4844V3.23703Z" fill="#440D0D" fill-opacity="0.35"/>
</g>
<path d="M4.98096 3.82012C4.98096 3.40332 5.31884 3.06543 5.73564 3.06543H13.8903C14.3071 3.06543 14.645 3.40332 14.645 3.82012V13.6943C14.645 14.1111 14.3071 14.449 13.8903 14.449H5.73565C5.31884 14.449 4.98096 14.1111 4.98096 13.6943V3.82012Z" fill="#F5F5F5"/>
<path d="M14.2057 3.04663H5.42024C5.17763 3.04663 4.98096 3.33072 4.98096 3.68115V6.21918V8.75721V11.2952V13.8333C4.98096 14.1837 5.17763 14.4678 5.42024 14.4678H8.34873H11.2772H14.2057C14.4483 14.4678 14.645 14.1837 14.645 13.8333V11.2952V8.75721V6.21918V3.68115C14.645 3.33072 14.4483 3.04663 14.2057 3.04663ZM7.90944 12.5643C7.90945 12.9147 7.62537 13.1988 7.27494 13.1988H6.494C6.14357 13.1988 5.85949 12.9147 5.85949 12.5643V12.5643C5.85949 12.2138 6.14357 11.9298 6.494 11.9298H7.27494C7.62537 11.9298 7.90944 12.2138 7.90944 12.5643V12.5643ZM7.90944 10.0262C7.90945 10.3767 7.62537 10.6607 7.27494 10.6607H6.494C6.14357 10.6607 5.85949 10.3767 5.85949 10.0262V10.0262C5.85949 9.6758 6.14357 9.39173 6.494 9.39173H7.27494C7.62536 9.39173 7.90944 9.6758 7.90944 10.0262V10.0262ZM7.90944 7.48819C7.90945 7.83862 7.62537 8.1227 7.27494 8.1227H6.494C6.14357 8.1227 5.85949 7.83862 5.85949 7.4882V7.4882C5.85949 7.13777 6.14357 6.85369 6.494 6.85369H7.27494C7.62536 6.85369 7.90944 7.13777 7.90944 7.48819V7.48819ZM10.8379 12.5643C10.8379 12.9147 10.5539 13.1988 10.2034 13.1988H9.42249C9.07207 13.1988 8.78799 12.9147 8.78799 12.5643V12.5643C8.78799 12.2138 9.07207 11.9298 9.42249 11.9298H10.2034C10.5539 11.9298 10.8379 12.2138 10.8379 12.5643V12.5643ZM10.8379 10.0262C10.8379 10.3767 10.5539 10.6607 10.2034 10.6607H9.42249C9.07207 10.6607 8.78799 10.3767 8.78799 10.0262V10.0262C8.78799 9.6758 9.07207 9.39173 9.42249 9.39173H10.2034C10.5539 9.39173 10.8379 9.6758 10.8379 10.0262V10.0262ZM10.8379 7.4882C10.8379 7.83862 10.5539 8.1227 10.2034 8.1227H9.42249C9.07207 8.1227 8.78799 7.83862 8.78799 7.4882V7.4882C8.78799 7.13777 9.07207 6.85369 9.42249 6.85369H10.2034C10.5539 6.85369 10.8379 7.13777 10.8379 7.4882V7.4882ZM13.7664 12.5643C13.7664 12.9147 13.4823 13.1988 13.1319 13.1988H12.351C12.0005 13.1988 11.7165 12.9147 11.7165 12.5643V12.5643C11.7165 12.2138 12.0005 11.9298 12.351 11.9298H13.1319C13.4823 11.9298 13.7664 12.2138 13.7664 12.5643V12.5643ZM13.7664 10.0262C13.7664 10.3767 13.4823 10.6607 13.1319 10.6607H12.351C12.0005 10.6607 11.7165 10.3767 11.7165 10.0262V10.0262C11.7165 9.6758 12.0005 9.39173 12.351 9.39173H13.1319C13.4823 9.39173 13.7664 9.6758 13.7664 10.0262V10.0262ZM13.7664 7.48819C13.7664 7.83862 13.4823 8.1227 13.1319 8.1227H12.351C12.0005 8.1227 11.7165 7.83862 11.7165 7.4882V7.4882C11.7165 7.13777 12.0005 6.85369 12.351 6.85369H13.1319C13.4823 6.85369 13.7664 7.13777 13.7664 7.48819V7.48819Z" fill="#554646"/>
<path d="M14.2057 3.04663H5.42024C5.17764 3.04663 4.98096 3.29014 4.98096 3.5905V5.76595C4.98096 6.06631 5.17764 6.30982 5.42024 6.30982H5.85952H7.90947H8.78801H10.838H11.7165H13.7664H14.2057C14.4483 6.30982 14.645 6.06631 14.645 5.76595V3.5905C14.645 3.29014 14.4483 3.04663 14.2057 3.04663Z" fill="#CD3D3C"/>
<defs>
<filter id="filter0_f_312_2059" x="3.60819" y="1.57742" width="9.44085" height="12.5666" filterUnits="userSpaceOnUse" color-interpolation-filters="sRGB">
<feFlood flood-opacity="0" result="BackgroundImageFix"/>
<feBlend mode="normal" in="SourceGraphic" in2="BackgroundImageFix" result="shape"/>
<feGaussianBlur stdDeviation="0.414901" result="effect1_foregroundBlur_312_2059"/>
</filter>
</defs>
</svg>
