<svg width="16" height="16" viewBox="0 0 16 16" fill="none" xmlns="http://www.w3.org/2000/svg">
<path d="M14.7675 2.03296H1.18799V13.9672H14.7675V2.03296Z" fill="#333333"/>
<path d="M14.7677 2.0332H1.10742V13.9675H14.7677V2.0332Z" fill="#333333"/>
<path d="M14.6773 2.15771V13.8422H1.32282V2.15771H14.6773ZM14.8927 1.90771H1.10742V14.0922H14.8927V1.90771Z" fill="#AEAEAE"/>
<path d="M14.8074 3.96375H1.18799V4.21375H14.8074V3.96375Z" fill="#AEAEAE"/>
<path d="M13.2858 3.47205C13.503 3.47205 13.6791 3.29598 13.6791 3.0788C13.6791 2.86161 13.503 2.68555 13.2858 2.68555C13.0686 2.68555 12.8926 2.86161 12.8926 3.0788C12.8926 3.29598 13.0686 3.47205 13.2858 3.47205Z" fill="#E04F5F"/>
<path d="M12.2858 3.47205C12.503 3.47205 12.6791 3.29598 12.6791 3.0788C12.6791 2.86161 12.503 2.68555 12.2858 2.68555C12.0686 2.68555 11.8926 2.86161 11.8926 3.0788C11.8926 3.29598 12.0686 3.47205 12.2858 3.47205Z" fill="#25B6D2"/>
<path d="M11.2858 3.47205C11.503 3.47205 11.6791 3.29598 11.6791 3.0788C11.6791 2.86161 11.503 2.68555 11.2858 2.68555C11.0686 2.68555 10.8926 2.86161 10.8926 3.0788C10.8926 3.29598 11.0686 3.47205 11.2858 3.47205Z" fill="#32BEA6"/>
</svg>
