<svg width="16" height="16" viewBox="0 0 16 16" fill="none" xmlns="http://www.w3.org/2000/svg">
<path d="M1 14.2C1 14.0895 1.08954 14 1.2 14H14.8C14.9105 14 15 14.0895 15 14.2V14.8C15 14.9105 14.9105 15 14.8 15H1.2C1.08954 15 1 14.9105 1 14.8V14.2Z" fill="#CD3D3C"/>
<path d="M1.26402 7.99958C1.26402 8.55745 1.71628 9.00971 2.27415 9.00971H2.70582C2.84557 9.74636 3.13506 10.4299 3.54181 11.0274L3.23641 11.3328C2.84192 11.7273 2.84192 12.3669 3.23641 12.7614C3.63089 13.1558 4.27047 13.1558 4.66496 12.7614L4.97036 12.456C5.56786 12.8627 6.25141 13.1522 6.98806 13.2919V13.7237C6.98806 14.2815 7.44032 14.7338 7.99819 14.7338C8.55606 14.7338 9.00835 14.2815 9.00835 13.7237V13.292C9.745 13.1522 10.4286 12.8627 11.026 12.456L11.3315 12.7614C11.7259 13.1559 12.3655 13.1559 12.76 12.7614C13.1545 12.3669 13.1545 11.7273 12.76 11.3328L12.4546 11.0274C12.8614 10.4299 13.1509 9.74633 13.2906 9.00971H13.7223C14.2802 9.00971 14.7324 8.55745 14.7324 7.99958C14.7324 7.44171 14.2802 6.98945 13.7223 6.98945H13.2906C13.1509 6.2528 12.8614 5.56925 12.4546 4.97176L12.76 4.66635C13.1545 4.27187 13.1545 3.63228 12.76 3.2378C12.3656 2.84331 11.726 2.84331 11.3315 3.2378L11.0261 3.5432C10.4286 3.13646 9.745 2.84693 9.00835 2.70718V2.27551C9.00835 1.71764 8.55609 1.26538 7.99822 1.26538C7.44035 1.26538 6.98809 1.71764 6.98809 2.27551V2.70718C6.25144 2.84693 5.56789 3.13642 4.9704 3.54317L4.66499 3.23776C4.27051 2.84328 3.63092 2.84328 3.23644 3.23776C2.84196 3.63225 2.84196 4.27183 3.23644 4.66632L3.54185 4.97172C3.1351 5.56922 2.84561 6.25277 2.70586 6.98942H2.27415C1.71628 6.98945 1.26402 7.44171 1.26402 7.99958Z" fill="#554646"/>
<path d="M7.99998 12.1646C10.2964 12.1646 12.1646 10.2964 12.1646 8.00002C12.1646 5.70365 10.2964 3.83543 7.99998 3.83543C5.70362 3.83543 3.8354 5.70365 3.8354 8.00002C3.8354 10.2964 5.70362 12.1646 7.99998 12.1646ZM7.99998 11.6329C5.99676 11.6329 4.36707 10.0032 4.36707 8.00002C4.36707 5.99682 5.99676 4.3671 7.99998 4.3671C10.0032 4.3671 11.6329 5.99679 11.6329 8.00002C11.6329 10.0032 10.0032 11.6329 7.99998 11.6329ZM7.99998 15C8.70356 15 9.27593 14.4277 9.27593 13.7241V13.5082C9.88559 13.3679 10.4613 13.1294 10.9924 12.797L11.1453 12.9498C11.6427 13.4473 12.4522 13.4473 12.9498 12.9499C13.4473 12.4523 13.4473 11.6429 12.9498 11.1453L12.7969 10.9925C13.1294 10.4614 13.3679 9.88563 13.5082 9.276H13.7241C14.4276 9.276 15 8.70362 15 8.00005C15 7.29648 14.4276 6.7241 13.7241 6.7241H13.5082C13.3679 6.11444 13.1294 5.53878 12.797 5.00761L12.9498 4.85477C13.4473 4.35727 13.4473 3.54778 12.9498 3.05025C12.4523 2.55288 11.6429 2.55281 11.1453 3.05025L10.9925 3.20312C10.4613 2.87068 9.88559 2.63216 9.27596 2.49188V2.27595C9.27596 1.57237 8.70359 1 8.00002 1C7.29644 1 6.72407 1.57237 6.72407 2.27595V2.49182C6.11441 2.63209 5.53871 2.87065 5.00757 3.20305L4.85474 3.05018C4.35717 2.55275 3.54768 2.55281 3.05021 3.05018C2.55275 3.54768 2.55275 4.35717 3.05021 4.85471L3.20308 5.00757C2.87071 5.53868 2.63216 6.11437 2.49188 6.72404H2.27595C1.57237 6.72404 1 7.29641 1 7.99998C1 8.70356 1.57237 9.27593 2.27595 9.27593H2.49188C2.63216 9.88559 2.87071 10.4613 3.20308 10.9924L3.05021 11.1453C2.55275 11.6428 2.55275 12.4523 3.05021 12.9498C3.54768 13.4472 4.35717 13.4473 4.85474 12.9498L5.00757 12.7969C5.53868 13.1294 6.11444 13.3679 6.72407 13.5082V13.724C6.72404 14.4277 7.29641 15 7.99998 15ZM7.99998 14.4684C7.58959 14.4684 7.25567 14.1345 7.25567 13.7241V13.2924C7.25567 13.1646 7.16482 13.055 7.03937 13.0312C6.34899 12.9003 5.70381 12.6329 5.12177 12.2367C5.01622 12.1649 4.8745 12.1781 4.78421 12.2684L4.4788 12.5738C4.18858 12.8641 3.71637 12.8641 3.42622 12.5738C3.136 12.2836 3.136 11.8114 3.42622 11.5213L3.73163 11.2159C3.82189 11.1256 3.83524 10.9838 3.76339 10.8783C3.3671 10.2962 3.0998 9.65101 2.9688 8.96066C2.94503 8.83522 2.83533 8.7444 2.70765 8.7444H2.27595C1.86555 8.7444 1.53163 8.41048 1.53163 8.00008C1.53163 7.58969 1.86555 7.25577 2.27595 7.25577H2.70765C2.83536 7.25577 2.94503 7.16492 2.9688 7.03951C3.0998 6.34912 3.3671 5.70391 3.76339 5.12187C3.8352 5.01629 3.82189 4.8746 3.73163 4.7843L3.42622 4.4789C3.136 4.18868 3.136 3.71647 3.42622 3.42632C3.71643 3.13604 4.18868 3.1361 4.4788 3.42632L4.78421 3.73172C4.8745 3.82198 5.01629 3.83537 5.12177 3.76349C5.70384 3.36723 6.34902 3.0999 7.03937 2.96893C7.16485 2.94516 7.25567 2.8355 7.25567 2.70778V2.27595C7.25567 1.86555 7.58959 1.53163 7.99998 1.53163C8.41038 1.53163 8.7443 1.86555 8.7443 2.27595V2.70765C8.7443 2.8354 8.83515 2.94503 8.96059 2.9688C9.65095 3.09977 10.2962 3.36706 10.8782 3.76339C10.9838 3.83524 11.1256 3.82189 11.2158 3.73159L11.5212 3.42619C11.8114 3.136 12.2836 3.13597 12.5737 3.42622C12.864 3.71643 12.864 4.18865 12.5737 4.4788L12.2683 4.78421C12.1781 4.8745 12.1647 5.01625 12.2366 5.12177C12.6329 5.70385 12.9002 6.34902 13.0311 7.03937C13.0549 7.16485 13.1646 7.25567 13.2923 7.25567H13.7241C14.1345 7.25567 14.4684 7.58959 14.4684 7.99998C14.4684 8.41038 14.1345 8.7443 13.7241 8.7443H13.2923C13.1646 8.7443 13.055 8.83515 13.0312 8.96059C12.9002 9.65098 12.6329 10.2962 12.2366 10.8782C12.1648 10.9837 12.1781 11.1255 12.2684 11.2158L12.5738 11.5212C12.864 11.8114 12.864 12.2836 12.5738 12.5737C12.2836 12.864 11.8113 12.864 11.5212 12.5737L11.2159 12.2684C11.1645 12.2169 11.0964 12.1905 11.0278 12.1905C10.9759 12.1905 10.9237 12.2056 10.8783 12.2366C10.2962 12.6329 9.65095 12.9002 8.96063 13.0312C8.83515 13.0549 8.74433 13.1646 8.74433 13.2923V13.724C8.7443 14.1345 8.41038 14.4684 7.99998 14.4684Z" fill="#AAAAAA"/>
<path d="M5.11308 7.99986C5.11308 8.23894 5.30691 8.43277 5.546 8.43277H5.731C5.79089 8.74848 5.91496 9.04142 6.08928 9.29749L5.95839 9.42838C5.78933 9.59745 5.78933 9.87156 5.95839 10.0406C6.12745 10.2097 6.40156 10.2097 6.57063 10.0406L6.70151 9.90973C6.95758 10.0841 7.25053 10.2081 7.56624 10.268V10.453C7.56624 10.6921 7.76007 10.8859 7.99915 10.8859C8.23824 10.8859 8.43208 10.6921 8.43208 10.453V10.268C8.74779 10.2081 9.04074 10.0841 9.29681 9.90975L9.4277 10.0406C9.59676 10.2097 9.87087 10.2097 10.0399 10.0406C10.209 9.87157 10.209 9.59746 10.0399 9.4284L9.90904 9.29751C10.0834 9.04142 10.2074 8.74846 10.2673 8.43277H10.4523C10.6914 8.43277 10.8853 8.23894 10.8853 7.99986C10.8853 7.76077 10.6914 7.56694 10.4523 7.56694H10.2673C10.2074 7.25123 10.0834 6.95829 9.90906 6.70222L10.0399 6.57133C10.209 6.40226 10.209 6.12816 10.0399 5.95909C9.87088 5.79003 9.59677 5.79003 9.42771 5.95909L9.29682 6.08998C9.04074 5.91566 8.74779 5.79158 8.43208 5.73168V5.54668C8.43208 5.30759 8.23826 5.11377 7.99917 5.11377C7.76008 5.11377 7.56626 5.30759 7.56626 5.54668V5.73168C7.25055 5.79158 6.9576 5.91564 6.70153 6.08997L6.57064 5.95908C6.40158 5.79001 6.12747 5.79001 5.9584 5.95908C5.78934 6.12814 5.78934 6.40225 5.9584 6.57131L6.08929 6.7022C5.91497 6.95827 5.7909 7.25122 5.73101 7.56693H5.546C5.30691 7.56694 5.11308 7.76077 5.11308 7.99986Z" fill="#554646"/>
<path d="M8.61039 9.67724C9.5352 9.34064 10.0137 8.31442 9.67713 7.38961C9.34053 6.4648 8.31431 5.98627 7.3895 6.32287C6.4647 6.65947 5.98616 7.68569 6.32276 8.6105C6.65937 9.53531 7.68559 10.0138 8.61039 9.67724ZM8.53246 9.46312C7.72571 9.75676 6.83051 9.33931 6.53688 8.53257C6.24325 7.72583 6.66068 6.83062 7.46743 6.53699C8.27418 6.24335 9.16938 6.66079 9.46301 7.46754C9.75665 8.27429 9.33921 9.16949 8.53246 9.46312ZM9.02601 10.8191C9.30936 10.716 9.45597 10.4016 9.35284 10.1183L9.3212 10.0313C9.54616 9.88546 9.74303 9.70501 9.90822 9.49328L9.99217 9.53243C10.2654 9.65987 10.5914 9.54121 10.7189 9.26794C10.8463 8.99466 10.7277 8.66866 10.4544 8.54121L10.3704 8.50207C10.4265 8.23943 10.4381 7.97261 10.4053 7.70654L10.4922 7.67489C10.7756 7.57176 10.9222 7.25735 10.819 6.97401C10.7159 6.69066 10.4015 6.54405 10.1182 6.64718L10.0312 6.67882C9.88536 6.45385 9.70491 6.25699 9.49318 6.09179L9.53234 6.00784C9.65976 5.73456 9.54111 5.40856 9.26783 5.28111C8.99459 5.15373 8.66858 5.27235 8.54111 5.54562L8.50196 5.62958C8.23933 5.57356 7.97251 5.56189 7.70643 5.59476L7.67478 5.50779C7.57165 5.22445 7.25724 5.07784 6.9739 5.18097C6.69055 5.28409 6.54394 5.5985 6.64707 5.88185L6.67871 5.96879C6.45375 6.11464 6.25687 6.2951 6.09169 6.50682L6.00773 6.46766C5.73443 6.34026 5.40844 6.45895 5.281 6.73217C5.15358 7.00544 5.27224 7.33144 5.54551 7.4589L5.62948 7.49805C5.57348 7.76066 5.56179 8.02748 5.59466 8.29356L5.5077 8.32522C5.22435 8.42834 5.07774 8.74275 5.18087 9.0261C5.284 9.30945 5.59841 9.45606 5.88176 9.35293L5.96872 9.32128C6.11457 9.54624 6.29503 9.74311 6.50674 9.90829L6.46758 9.99226C6.34016 10.2655 6.45881 10.5915 6.73209 10.719C7.00534 10.8464 7.33135 10.7278 7.45881 10.4545L7.49796 10.3705C7.76058 10.4265 8.02741 10.4382 8.29349 10.4053L8.32513 10.4923C8.42825 10.7757 8.74266 10.9223 9.02601 10.8191ZM8.94808 10.605C8.78281 10.6652 8.59938 10.5797 8.53923 10.4144L8.47595 10.2405C8.45722 10.1891 8.40457 10.1582 8.35056 10.1671C8.05333 10.2155 7.75431 10.2024 7.46183 10.1282C7.40879 10.1147 7.35367 10.1408 7.33054 10.1904L7.25231 10.3582C7.17798 10.5176 6.98781 10.5868 6.82841 10.5125C6.66899 10.4381 6.59977 10.248 6.67412 10.0886L6.75235 9.92081C6.77546 9.87122 6.76007 9.81219 6.71566 9.78021C6.47074 9.60388 6.26852 9.38322 6.11457 9.1244C6.08661 9.07737 6.02912 9.05687 5.9777 9.07559L5.80384 9.13887C5.63857 9.19902 5.45514 9.11349 5.39499 8.94821C5.33483 8.78294 5.42036 8.59951 5.58564 8.53936L5.7595 8.47608C5.81093 8.45736 5.84178 8.40469 5.83297 8.3507C5.78453 8.05346 5.7976 7.75444 5.87188 7.46195C5.88533 7.4089 5.8592 7.3538 5.80961 7.33066L5.64185 7.25243C5.48243 7.1781 5.41322 6.98792 5.48756 6.82853C5.56189 6.66909 5.75209 6.59989 5.91146 6.67425L6.07923 6.75247C6.12882 6.77559 6.18788 6.7602 6.21983 6.71579C6.39616 6.47088 6.6168 6.26865 6.87563 6.11472C6.92268 6.08675 6.94318 6.02927 6.92446 5.97784L6.86116 5.80393C6.801 5.63865 6.88653 5.45523 7.05181 5.39507C7.21709 5.33492 7.40051 5.42045 7.46067 5.58572L7.52395 5.75958C7.54267 5.81103 7.59533 5.84186 7.64933 5.83305C7.94655 5.7846 8.24558 5.79767 8.53808 5.87196C8.59114 5.88542 8.64627 5.85927 8.66937 5.80968L8.74759 5.64192C8.82193 5.48252 9.01211 5.41328 9.17149 5.48765C9.33091 5.56198 9.40013 5.75216 9.32578 5.91155L9.24755 6.07931C9.22443 6.1289 9.23984 6.18795 9.28424 6.21991C9.52916 6.39624 9.73137 6.61689 9.88531 6.87571C9.91328 6.92276 9.97075 6.94326 10.0222 6.92454L10.1961 6.86125C10.3613 6.8011 10.5448 6.88663 10.6049 7.05191C10.6651 7.21718 10.5796 7.4006 10.4143 7.46076L10.2404 7.52404C10.189 7.54277 10.1581 7.59542 10.1669 7.64943C10.2154 7.94666 10.2023 8.24567 10.128 8.53816C10.1146 8.5912 10.1407 8.64632 10.1903 8.66945L10.3581 8.74768C10.5175 8.82202 10.5867 9.01219 10.5124 9.17158C10.438 9.33102 10.2478 9.40022 10.0885 9.32587L9.92072 9.24765C9.89248 9.23447 9.86118 9.23381 9.83356 9.24386C9.81268 9.25146 9.79386 9.26521 9.7801 9.28433C9.60376 9.52926 9.3831 9.73148 9.12429 9.88542C9.07724 9.91338 9.05674 9.97086 9.07546 10.0223L9.13874 10.1962C9.19889 10.3615 9.11336 10.5449 8.94808 10.605Z" fill="#CECECE"/>
</svg>
