<svg width="16" height="16" viewBox="0 0 16 16" fill="none" xmlns="http://www.w3.org/2000/svg">
<path d="M6.45849 1H2.54546C2.24422 1 2 1.34824 2 1.77779V4.88889V8V11.1111V14.2222C2 14.6518 2.24422 15 2.54546 15H6.18182H2.82217H6.45853C6.75977 15 7.00399 14.6518 7.00399 14.2222V11.1111V8V4.88889V1.77779C7.00395 1.34824 6.75973 1 6.45849 1ZM5.63635 12.6667C5.63636 13.0962 5.28813 13.4444 4.85858 13.4444H3.86866C3.43911 13.4444 3.09089 13.0962 3.09089 12.6667V12.6667C3.09089 12.2371 3.43911 11.8889 3.86866 11.8889H4.85858C5.28813 11.8889 5.63634 12.2371 5.63635 12.6667V12.6667ZM5.63635 9.55554C5.63636 9.9851 5.28813 10.3333 4.85858 10.3333H3.86866C3.43911 10.3333 3.09089 9.98511 3.09089 9.55556V9.55556C3.09089 9.12601 3.43911 8.77779 3.86866 8.77779H4.85858C5.28813 8.77779 5.63634 9.126 5.63635 9.55554V9.55554ZM5.63635 6.44444C5.63636 6.87399 5.28813 7.22222 4.85858 7.22222H3.86866C3.43911 7.22222 3.09089 6.874 3.09089 6.44445V6.44445C3.09089 6.0149 3.43911 5.66668 3.86866 5.66668H4.85858C5.28813 5.66668 5.63634 6.01489 5.63635 6.44444V6.44444Z" fill="#554646"/>
<path d="M6.77654 1H2.22746C2.10184 1 2 1.29849 2 1.66667V4.33333C2 4.70151 2.10184 5 2.22746 5H2.45491H3.51637H3.97127H5.03273H5.48763H6.54908H6.77654C6.90216 5 7.004 4.70151 7.004 4.33333V1.66667C7.004 1.29849 6.90216 1 6.77654 1Z" fill="#CD3D3C"/>
<path d="M12.7832 9.00293L11.2383 12.5371C11.0446 12.9814 10.8623 13.3005 10.6914 13.4941C10.5228 13.6878 10.3223 13.8325 10.0898 13.9282C9.85742 14.0216 9.57487 14.0684 9.24219 14.0684C8.95736 14.0684 8.69189 14.0342 8.4458 13.9658V13.0566C8.64632 13.1387 8.89583 13.1797 9.19434 13.1797C9.38346 13.1797 9.53613 13.1364 9.65234 13.0498C9.76855 12.9609 9.8654 12.8083 9.94287 12.5918L8.21338 9.00293H9.33447L10.5649 11.7886H10.5991L10.6606 11.6177L11.6929 9.00293H12.7832Z" fill="black"/>
<path d="M12.8345 7H11.6245L10.4624 5.10986L9.30029 7H8.16553L9.82324 4.42285L8.27148 2.00293H9.44043L10.5171 3.80078L11.5732 2.00293H12.7148L11.146 4.48096L12.8345 7Z" fill="black"/>
<path d="M1 15.2C1 15.0895 1.08954 15 1.2 15H7.8C7.91046 15 8 15.0895 8 15.2V15.8C8 15.9105 7.91046 16 7.8 16H1.2C1.08954 16 1 15.9105 1 15.8V15.2Z" fill="#CD3D3C"/>
</svg>
