<svg width="17" height="17" viewBox="0 0 17 17" fill="none" xmlns="http://www.w3.org/2000/svg">
<g clip-path="url(#clip0_358_1344)">
<path fill-rule="evenodd" clip-rule="evenodd" d="M4.89063 0.448975C5.71763 0.448975 6.39062 1.12197 6.39062 1.94897V14.949C6.39062 15.776 5.71763 16.449 4.89063 16.449H-8.10937C-8.93637 16.449 -9.60938 15.776 -9.60938 14.949V1.94897C-9.60938 1.12197 -8.93637 0.448975 -8.10937 0.448975H4.89063ZM1.39063 10.449H5.39063V6.44898H1.39063V10.449ZM5.39063 14.949V11.449H1.39063V15.449H4.89063C5.16563 15.449 5.39063 15.224 5.39063 14.949ZM-3.60937 10.449H0.390626V6.44898H-3.60937V10.449ZM-3.60937 15.449H0.390626V11.449H-3.60937V15.449ZM-8.60938 10.449H-4.60937V6.44898H-8.60938V10.449ZM-4.60937 15.449V11.449H-8.60938V14.949C-8.60938 15.224 -8.38437 15.449 -8.10937 15.449H-4.60937Z" fill="#4B4949"/>
<path d="M12.3772 10.8C12.1866 12.6212 13.0019 12.9611 12.8001 14.3552C12.5982 15.7492 11.7549 15.6605 11.7549 15.6605C11.7549 15.6605 10.9151 15.7658 10.6638 14.3763C10.4125 12.9867 11.2156 12.6308 10.9604 10.814L12.3772 10.8Z" fill="#4B4949"/>
<path opacity="0.1" d="M11.7492 14.3645C11.498 12.9749 12.3012 12.6276 12.046 10.8108L10.9596 10.8216C11.2148 12.6383 10.4116 12.9856 10.6628 14.3752C10.9141 15.7648 11.754 15.6594 11.754 15.6594C11.754 15.6594 12.0231 15.6877 12.2937 15.4609C12.0792 15.2905 11.8586 14.969 11.7492 14.3645Z" fill="#4B4949"/>
<path fill-rule="evenodd" clip-rule="evenodd" d="M14.5064 9.06473C12.983 10.6308 10.4685 10.6556 8.89009 9.12021C7.31169 7.5848 7.2671 5.07058 8.79049 3.50453C10.3139 1.93848 12.8284 1.91364 14.4068 3.44905C15.9852 4.98445 16.0298 7.49868 14.5064 9.06473ZM13.67 8.25122C12.5928 9.35856 10.8148 9.37612 9.69873 8.29045C8.58266 7.20478 8.55113 5.427 9.6283 4.31966C10.7055 3.21233 12.4834 3.19476 13.5995 4.28043C14.7156 5.3661 14.7471 7.14388 13.67 8.25122Z" fill="#4B4949"/>
</g>
<defs>
<clipPath id="clip0_358_1344">
<rect width="16" height="16" fill="white" transform="translate(0.5 0.448975)"/>
</clipPath>
</defs>
</svg>
