<svg width="16" height="16" viewBox="0 0 16 16" fill="none" xmlns="http://www.w3.org/2000/svg">
<path d="M13.7059 5.71636C13.8936 5.90393 13.9992 6.15844 13.9992 6.42385V14C13.9992 14.5523 13.5514 15 12.9992 15H3C2.44772 15 2 14.5523 2 14V2C2 1.44772 2.44772 1 3 1H8.57054C8.83557 1 9.08976 1.10521 9.27727 1.29251L13.7059 5.71636Z" fill="#FFD1B2"/>
<path fill-rule="evenodd" clip-rule="evenodd" d="M3 14H12.9992V6.42385L8.57054 2H3V14ZM13.9992 6.42385C13.9992 6.15844 13.8936 5.90393 13.7059 5.71636L9.27727 1.29251C9.08976 1.10521 8.83557 1 8.57054 1H3C2.44772 1 2 1.44772 2 2V14C2 14.5523 2.44772 15 3 15H12.9992C13.5514 15 13.9992 14.5523 13.9992 14V6.42385Z" fill="#FC7B24"/>
<path d="M10.6875 1.17424C10.6194 1.11291 10.6628 0.999957 10.7544 0.999957H13.899C13.9543 0.999957 13.999 1.04473 13.999 1.09996V3.93398C13.999 4.02059 13.8964 4.06625 13.8321 4.00827L10.6875 1.17424Z" fill="#FC7B24"/>
<path fill-rule="evenodd" clip-rule="evenodd" d="M13.8321 4.00827C13.8964 4.06625 13.999 4.02059 13.999 3.93398V1.09996C13.999 1.04473 13.9543 0.999957 13.899 0.999957H10.7544C10.6628 0.999957 10.6194 1.11291 10.6875 1.17424L13.8321 4.00827Z" fill="#FC7B24"/>
<path d="M4.10303 5.49361C4.10303 5.07935 4.43885 4.74353 4.85311 4.74353H9.26896C9.68322 4.74353 10.019 5.07935 10.019 5.49361V10.9621C10.019 11.3763 9.68322 11.7122 9.26896 11.7122H4.85311C4.43885 11.7122 4.10303 11.3763 4.10303 10.9621V5.49361Z" fill="#F5F5F5"/>
<path d="M9.7765 4.67761H4.36529C4.21587 4.67761 4.09473 4.85259 4.09473 5.06843V6.63167V8.19491V9.75815V11.3214C4.09473 11.5372 4.21587 11.7122 4.36529 11.7122H6.16903H7.97278H9.77652C9.92594 11.7122 10.0471 11.5372 10.0471 11.3214V9.75815V8.19491V6.63167V5.06843C10.0471 4.85259 9.92592 4.67761 9.7765 4.67761ZM5.89846 10.5398C5.89847 10.7556 5.7235 10.9306 5.50766 10.9306H5.02665C4.81081 10.9306 4.63584 10.7556 4.63584 10.5398V10.5398C4.63584 10.3239 4.81081 10.149 5.02665 10.149H5.50766C5.72349 10.149 5.89846 10.3239 5.89846 10.5398V10.5398ZM5.89846 8.97653C5.89847 9.19237 5.7235 9.36734 5.50766 9.36734H5.02665C4.81081 9.36734 4.63584 9.19237 4.63584 8.97653V8.97653C4.63584 8.7607 4.81081 8.58573 5.02665 8.58573H5.50766C5.72349 8.58573 5.89846 8.76069 5.89846 8.97653V8.97653ZM5.89846 7.41329C5.89847 7.62912 5.7235 7.8041 5.50766 7.8041H5.02665C4.81081 7.8041 4.63584 7.62913 4.63584 7.41329V7.41329C4.63584 7.19745 4.81081 7.02248 5.02665 7.02248H5.50766C5.72349 7.02248 5.89846 7.19745 5.89846 7.41329V7.41329ZM7.7022 10.5398C7.7022 10.7556 7.52723 10.9306 7.31139 10.9306H6.83039C6.61456 10.9306 6.43959 10.7556 6.43959 10.5398V10.5398C6.43959 10.3239 6.61456 10.149 6.83039 10.149H7.31139C7.52723 10.149 7.7022 10.3239 7.7022 10.5398V10.5398ZM7.7022 8.97653C7.7022 9.19237 7.52723 9.36734 7.31139 9.36734H6.83039C6.61456 9.36734 6.43959 9.19237 6.43959 8.97653V8.97653C6.43959 8.7607 6.61456 8.58573 6.83039 8.58573H7.31139C7.52723 8.58573 7.7022 8.7607 7.7022 8.97653V8.97653ZM7.7022 7.41329C7.7022 7.62913 7.52723 7.8041 7.31139 7.8041H6.83039C6.61456 7.8041 6.43959 7.62913 6.43959 7.41329V7.41329C6.43959 7.19745 6.61456 7.02248 6.83039 7.02248H7.31139C7.52723 7.02248 7.7022 7.19745 7.7022 7.41329V7.41329ZM9.50594 10.5398C9.50594 10.7556 9.33097 10.9306 9.11513 10.9306H8.63412C8.41829 10.9306 8.24332 10.7556 8.24332 10.5398V10.5398C8.24332 10.3239 8.41829 10.149 8.63412 10.149H9.11513C9.33097 10.149 9.50593 10.3239 9.50594 10.5398V10.5398ZM9.50594 8.97653C9.50594 9.19237 9.33097 9.36734 9.11513 9.36734H8.63412C8.41829 9.36734 8.24332 9.19237 8.24332 8.97653V8.97653C8.24332 8.7607 8.41829 8.58573 8.63412 8.58573H9.11513C9.33097 8.58573 9.50593 8.76069 9.50594 8.97653V8.97653ZM9.50594 7.41329C9.50594 7.62912 9.33097 7.8041 9.11513 7.8041H8.63412C8.41829 7.8041 8.24332 7.62913 8.24332 7.41329V7.41329C8.24332 7.19745 8.41829 7.02248 8.63412 7.02248H9.11513C9.33097 7.02248 9.50593 7.19745 9.50594 7.41329V7.41329Z" fill="#554646"/>
<path d="M9.77652 4.67761H4.36529C4.21587 4.67761 4.09473 4.82759 4.09473 5.0126V6.35251C4.09473 6.53752 4.21587 6.6875 4.36529 6.6875H4.63586H5.89848H6.43959H7.70222H8.24333H9.50595H9.77652C9.92594 6.6875 10.0471 6.53752 10.0471 6.35251V5.0126C10.0471 4.82759 9.92594 4.67761 9.77652 4.67761Z" fill="#CD3D3C"/>
<g filter="url(#filter0_f_312_2932)">
<path d="M5.61865 6.22445C5.61865 5.76617 5.99017 5.39465 6.44845 5.39465H9.58144C10.0397 5.39465 10.4112 5.76617 10.4112 6.22446V11.2828C10.4112 11.741 10.0397 12.1126 9.58144 12.1126H6.44845C5.99017 12.1126 5.61865 11.741 5.61865 11.2828V6.22445Z" fill="#440D0D" fill-opacity="0.35"/>
</g>
<path d="M5.95264 6.55486C5.95264 6.13806 6.29052 5.80017 6.70732 5.80017H11.1503C11.5671 5.80017 11.905 6.13806 11.905 6.55486V12.0569C11.905 12.4737 11.5671 12.8116 11.1503 12.8116H6.70732C6.29052 12.8116 5.95264 12.4737 5.95264 12.0569V6.55486Z" fill="#F5F5F5"/>
<path d="M11.6344 5.78845H6.2232C6.07378 5.78845 5.95264 5.96343 5.95264 6.17927V7.74251V9.30575V10.869V12.4322C5.95264 12.6481 6.07378 12.8231 6.2232 12.8231H8.02694H9.83068H11.6344C11.7838 12.8231 11.905 12.6481 11.905 12.4322V10.869V9.30575V7.74251V6.17927C11.905 5.96343 11.7838 5.78845 11.6344 5.78845ZM7.75637 11.6506C7.75637 11.8665 7.5814 12.0414 7.36556 12.0414H6.88456C6.66872 12.0414 6.49375 11.8665 6.49375 11.6506V11.6506C6.49375 11.4348 6.66872 11.2598 6.88456 11.2598H7.36557C7.5814 11.2598 7.75637 11.4348 7.75637 11.6506V11.6506ZM7.75637 10.0874C7.75637 10.3032 7.5814 10.4782 7.36556 10.4782H6.88456C6.66872 10.4782 6.49375 10.3032 6.49375 10.0874V10.0874C6.49375 9.87154 6.66872 9.69657 6.88456 9.69657H7.36556C7.5814 9.69657 7.75637 9.87154 7.75637 10.0874V10.0874ZM7.75637 8.52413C7.75637 8.73997 7.5814 8.91494 7.36556 8.91494H6.88456C6.66872 8.91494 6.49375 8.73997 6.49375 8.52413V8.52413C6.49375 8.3083 6.66872 8.13333 6.88456 8.13333H7.36556C7.5814 8.13333 7.75637 8.30829 7.75637 8.52413V8.52413ZM9.56011 11.6506C9.56011 11.8665 9.38514 12.0414 9.1693 12.0414H8.6883C8.47246 12.0414 8.29749 11.8665 8.29749 11.6506V11.6506C8.29749 11.4348 8.47246 11.2598 8.6883 11.2598H9.1693C9.38514 11.2598 9.56011 11.4348 9.56011 11.6506V11.6506ZM9.56011 10.0874C9.56011 10.3032 9.38514 10.4782 9.1693 10.4782H8.6883C8.47246 10.4782 8.29749 10.3032 8.29749 10.0874V10.0874C8.29749 9.87154 8.47246 9.69657 8.6883 9.69657H9.1693C9.38514 9.69657 9.56011 9.87154 9.56011 10.0874V10.0874ZM9.56011 8.52413C9.56011 8.73997 9.38514 8.91494 9.1693 8.91494H8.6883C8.47246 8.91494 8.29749 8.73997 8.29749 8.52413V8.52413C8.29749 8.3083 8.47246 8.13333 8.6883 8.13333H9.1693C9.38514 8.13333 9.56011 8.3083 9.56011 8.52413V8.52413ZM11.3638 11.6506C11.3638 11.8665 11.1889 12.0414 10.973 12.0414H10.492C10.2762 12.0414 10.1012 11.8665 10.1012 11.6506V11.6506C10.1012 11.4348 10.2762 11.2598 10.492 11.2598H10.973C11.1889 11.2598 11.3638 11.4348 11.3638 11.6506V11.6506ZM11.3638 10.0874C11.3638 10.3032 11.1889 10.4782 10.973 10.4782H10.492C10.2762 10.4782 10.1012 10.3032 10.1012 10.0874V10.0874C10.1012 9.87154 10.2762 9.69657 10.492 9.69657H10.973C11.1889 9.69657 11.3638 9.87154 11.3638 10.0874V10.0874ZM11.3638 8.52413C11.3638 8.73997 11.1889 8.91494 10.973 8.91494H10.492C10.2762 8.91494 10.1012 8.73997 10.1012 8.52413V8.52413C10.1012 8.3083 10.2762 8.13333 10.492 8.13333H10.973C11.1889 8.13333 11.3638 8.30829 11.3638 8.52413V8.52413Z" fill="#554646"/>
<path d="M11.6344 5.78845H6.2232C6.07378 5.78845 5.95264 5.93843 5.95264 6.12344V7.46336C5.95264 7.64836 6.07378 7.79834 6.2232 7.79834H6.49377H7.75638H8.2975H9.56012H10.1012H11.3639H11.6344C11.7838 7.79834 11.905 7.64836 11.905 7.46336V6.12344C11.905 5.93843 11.7838 5.78845 11.6344 5.78845Z" fill="#CD3D3C"/>
<defs>
<filter id="filter0_f_312_2932" x="4.78885" y="4.56485" width="6.45209" height="8.3775" filterUnits="userSpaceOnUse" color-interpolation-filters="sRGB">
<feFlood flood-opacity="0" result="BackgroundImageFix"/>
<feBlend mode="normal" in="SourceGraphic" in2="BackgroundImageFix" result="shape"/>
<feGaussianBlur stdDeviation="0.414901" result="effect1_foregroundBlur_312_2932"/>
</filter>
</defs>
</svg>
