<svg width="16" height="16" viewBox="0 0 16 16" fill="none" xmlns="http://www.w3.org/2000/svg">
<g clip-path="url(#clip0_312_1934)">
<path d="M11.4545 0H0.545459C0.244218 0 0 0.348237 0 0.777785V3.88889V7V10.1111V13.2222C0 13.6518 0.244218 14 0.545459 14H4.18182H7.81818H11.4545C11.7558 14 12 13.6518 12 13.2222V10.1111V7V3.88889V0.777785C12 0.348237 11.7557 0 11.4545 0ZM3.63635 11.6667C3.63636 12.0962 3.28813 12.4444 2.85858 12.4444H1.86866C1.43911 12.4444 1.09089 12.0962 1.09089 11.6667V11.6667C1.09089 11.2371 1.43911 10.8889 1.86866 10.8889H2.85858C3.28813 10.8889 3.63634 11.2371 3.63635 11.6667V11.6667ZM3.63635 8.55554C3.63636 8.9851 3.28813 9.33332 2.85858 9.33332H1.86866C1.43911 9.33332 1.09089 8.98511 1.09089 8.55556V8.55556C1.09089 8.12601 1.43911 7.77779 1.86866 7.77779H2.85858C3.28813 7.77779 3.63634 8.126 3.63635 8.55554V8.55554ZM3.63635 5.44444C3.63636 5.87399 3.28813 6.22222 2.85858 6.22222H1.86866C1.43911 6.22222 1.09089 5.874 1.09089 5.44445V5.44445C1.09089 5.0149 1.43911 4.66668 1.86866 4.66668H2.85858C3.28813 4.66668 3.63634 5.01489 3.63635 5.44444V5.44444ZM7.2727 11.6667C7.2727 12.0962 6.92448 12.4444 6.49493 12.4444H5.50502C5.07547 12.4444 4.72726 12.0962 4.72726 11.6667V11.6667C4.72726 11.2371 5.07547 10.8889 5.50502 10.8889H6.49493C6.92448 10.8889 7.2727 11.2371 7.2727 11.6667V11.6667ZM7.2727 8.55556C7.2727 8.98511 6.92448 9.33332 6.49493 9.33332H5.50502C5.07547 9.33332 4.72726 8.98511 4.72726 8.55556V8.55556C4.72726 8.12601 5.07547 7.77779 5.50502 7.77779H6.49493C6.92448 7.77779 7.2727 8.12601 7.2727 8.55556V8.55556ZM7.2727 5.44445C7.2727 5.874 6.92448 6.22222 6.49493 6.22222H5.50502C5.07547 6.22222 4.72726 5.874 4.72726 5.44445V5.44445C4.72726 5.0149 5.07547 4.66668 5.50502 4.66668H6.49493C6.92448 4.66668 7.2727 5.0149 7.2727 5.44445V5.44445ZM10.909 11.6667C10.9091 12.0962 10.5608 12.4444 10.1313 12.4444H9.14136C8.71181 12.4444 8.36359 12.0962 8.36359 11.6667V11.6667C8.36359 11.2371 8.71181 10.8889 9.14136 10.8889H10.1313C10.5608 10.8889 10.909 11.2371 10.909 11.6667V11.6667ZM10.909 8.55554C10.9091 8.9851 10.5608 9.33332 10.1313 9.33332H9.14136C8.71181 9.33332 8.36359 8.98511 8.36359 8.55556V8.55556C8.36359 8.12601 8.71181 7.77779 9.14136 7.77779H10.1313C10.5608 7.77779 10.909 8.126 10.909 8.55554V8.55554ZM10.909 5.44444C10.9091 5.87399 10.5608 6.22222 10.1313 6.22222H9.14136C8.71181 6.22222 8.36359 5.874 8.36359 5.44445V5.44445C8.36359 5.0149 8.71181 4.66668 9.14136 4.66668H10.1313C10.5608 4.66668 10.909 5.01489 10.909 5.44444V5.44444Z" fill="#554646"/>
<path d="M11.4545 0H0.545461C0.244219 0 0 0.298488 0 0.666672V3.33333C0 3.70151 0.244219 4 0.545461 4H1.09092H3.63637H4.72727H7.27273H8.36362H10.9091H11.4545C11.7558 4 12 3.70151 12 3.33333V0.666672C12 0.298488 11.7558 0 11.4545 0Z" fill="#CD3D3C"/>
<path d="M11.1999 16C13.8509 16 15.9999 13.851 15.9999 11.2C15.9999 8.54906 13.8509 6.40002 11.1999 6.40002C8.54894 6.40002 6.3999 8.54906 6.3999 11.2C6.3999 13.851 8.54894 16 11.1999 16Z" fill="#554646"/>
<path fill-rule="evenodd" clip-rule="evenodd" d="M12.3528 9.22603L11.7293 9.55785C11.5656 9.64498 11.5578 9.88869 11.7161 9.9715L13.9786 11.1553C14.1057 11.2218 14.2632 11.138 14.2947 10.9871L14.8558 8.30039C14.8951 8.11244 14.7166 7.96785 14.5529 8.05498L13.2961 8.72395C13.0918 8.49552 12.8511 8.30129 12.5808 8.14878C12.0461 7.84704 11.4192 7.72197 10.7785 7.7892C10.1379 7.85642 9.51184 8.11297 8.97871 8.52676C8.5779 8.83785 8.24296 9.22744 7.99602 9.66617C7.86398 9.90077 7.98357 10.1808 8.22195 10.2575L8.2861 10.2781C8.50204 10.3476 8.73635 10.2223 8.86236 10.0138C9.03159 9.7337 9.25257 9.48446 9.51305 9.28229C9.88855 8.99084 10.3295 8.81016 10.7807 8.76281C11.2319 8.71546 11.6735 8.80355 12.0501 9.01607C12.158 9.07694 12.2591 9.14725 12.3528 9.22603ZM8.36836 10.9463C8.2363 10.8913 8.08712 10.9901 8.06938 11.1442L7.75371 13.8871C7.73169 14.0784 7.92125 14.2059 8.07572 14.1037L8.98406 13.5024C8.99262 13.5174 9.00232 13.532 9.01321 13.5462C9.29594 13.9129 9.66308 14.2013 10.0893 14.3882C10.6512 14.6345 11.2905 14.6932 11.9263 14.5568C12.5622 14.4204 13.1661 14.0951 13.6616 13.622C14.0333 13.2672 14.3314 12.8413 14.5367 12.3761C14.6469 12.1263 14.4985 11.8566 14.2517 11.8074L14.1852 11.7941C13.9662 11.7504 13.7495 11.8988 13.646 12.1176C13.503 12.42 13.3037 12.6971 13.0593 12.9305C12.7103 13.2637 12.2849 13.4928 11.8371 13.5888C11.3892 13.6849 10.939 13.6436 10.5432 13.4701C10.2832 13.3561 10.0545 13.1885 9.86849 12.9778C9.85703 12.9648 9.84506 12.9524 9.83264 12.9406L10.7413 12.3391C10.8958 12.2368 10.8823 11.9928 10.7183 11.9245L8.36836 10.9463Z" fill="#28EA3C"/>
</g>
<defs>
<clipPath id="clip0_312_1934">
<rect width="16" height="16" fill="white"/>
</clipPath>
</defs>
</svg>
