<svg width="16" height="16" viewBox="0 0 16 16" fill="none" xmlns="http://www.w3.org/2000/svg">
<g clip-path="url(#clip0_312_1921)">
<path d="M5.45449 1H-5.45454C-5.75578 1 -6 1.34824 -6 1.77779V4.88889V8V11.1111V14.2222C-6 14.6518 -5.75578 15 -5.45454 15H-1.81818H1.81818H5.45454C5.75578 15 6 14.6518 6 14.2222V11.1111V8V4.88889V1.77779C5.99995 1.34824 5.75574 1 5.45449 1ZM-2.36365 12.6667C-2.36364 13.0962 -2.71187 13.4444 -3.14142 13.4444H-4.13134C-4.56089 13.4444 -4.90911 13.0962 -4.90911 12.6667V12.6667C-4.90911 12.2371 -4.56089 11.8889 -4.13134 11.8889H-3.14142C-2.71187 11.8889 -2.36366 12.2371 -2.36365 12.6667V12.6667ZM-2.36365 9.55554C-2.36364 9.9851 -2.71187 10.3333 -3.14142 10.3333H-4.13134C-4.56089 10.3333 -4.90911 9.98511 -4.90911 9.55556V9.55556C-4.90911 9.12601 -4.56089 8.77779 -4.13134 8.77779H-3.14142C-2.71187 8.77779 -2.36366 9.126 -2.36365 9.55554V9.55554ZM-2.36365 6.44444C-2.36364 6.87399 -2.71187 7.22222 -3.14142 7.22222H-4.13134C-4.56089 7.22222 -4.90911 6.874 -4.90911 6.44445V6.44445C-4.90911 6.0149 -4.56089 5.66668 -4.13134 5.66668H-3.14142C-2.71187 5.66668 -2.36366 6.01489 -2.36365 6.44444V6.44444ZM1.2727 12.6667C1.2727 13.0962 0.924479 13.4444 0.49493 13.4444H-0.494976C-0.924526 13.4444 -1.27274 13.0962 -1.27274 12.6667V12.6667C-1.27274 12.2371 -0.924526 11.8889 -0.494976 11.8889H0.494929C0.924479 11.8889 1.2727 12.2371 1.2727 12.6667V12.6667ZM1.2727 9.55556C1.2727 9.98511 0.92448 10.3333 0.49493 10.3333H-0.494976C-0.924525 10.3333 -1.27274 9.98511 -1.27274 9.55556V9.55556C-1.27274 9.12601 -0.924526 8.77779 -0.494976 8.77779H0.494929C0.924479 8.77779 1.2727 9.12601 1.2727 9.55556V9.55556ZM1.2727 6.44445C1.2727 6.874 0.92448 7.22222 0.49493 7.22222H-0.494976C-0.924525 7.22222 -1.27274 6.874 -1.27274 6.44445V6.44445C-1.27274 6.0149 -0.924526 5.66668 -0.494976 5.66668H0.494929C0.924479 5.66668 1.2727 6.0149 1.2727 6.44445V6.44445ZM4.90905 12.6667C4.90905 13.0962 4.56083 13.4444 4.13128 13.4444H3.14136C2.71181 13.4444 2.36359 13.0962 2.36359 12.6667V12.6667C2.36359 12.2371 2.71181 11.8889 3.14136 11.8889H4.13128C4.56082 11.8889 4.90904 12.2371 4.90905 12.6667V12.6667ZM4.90905 9.55554C4.90905 9.9851 4.56083 10.3333 4.13128 10.3333H3.14136C2.71181 10.3333 2.36359 9.98511 2.36359 9.55556V9.55556C2.36359 9.12601 2.71181 8.77779 3.14136 8.77779H4.13128C4.56082 8.77779 4.90904 9.126 4.90905 9.55554V9.55554ZM4.90905 6.44444C4.90905 6.87399 4.56083 7.22222 4.13128 7.22222H3.14136C2.71181 7.22222 2.36359 6.874 2.36359 6.44445V6.44445C2.36359 6.0149 2.71181 5.66668 3.14136 5.66668H4.13128C4.56082 5.66668 4.90904 6.01489 4.90905 6.44444V6.44444Z" fill="#554646"/>
<path d="M5.45454 1H-5.45454C-5.75578 1 -6 1.29849 -6 1.66667V4.33333C-6 4.70151 -5.75578 5 -5.45454 5H-4.90908H-2.36363H-1.27273H1.27273H2.36362H4.90908H5.45454C5.75578 5 6 4.70151 6 4.33333V1.66667C6 1.29849 5.75578 1 5.45454 1Z" fill="#CD3D3C"/>
<path d="M21.4545 1H10.5455C10.2442 1 10 1.34824 10 1.77779V4.88889V8V11.1111V14.2222C10 14.6518 10.2442 15 10.5455 15H14.1818H17.8182H21.4545C21.7558 15 22 14.6518 22 14.2222V11.1111V8V4.88889V1.77779C22 1.34824 21.7557 1 21.4545 1ZM13.6363 12.6667C13.6364 13.0962 13.2881 13.4444 12.8586 13.4444H11.8687C11.4391 13.4444 11.0909 13.0962 11.0909 12.6667V12.6667C11.0909 12.2371 11.4391 11.8889 11.8687 11.8889H12.8586C13.2881 11.8889 13.6363 12.2371 13.6363 12.6667V12.6667ZM13.6363 9.55554C13.6364 9.9851 13.2881 10.3333 12.8586 10.3333H11.8687C11.4391 10.3333 11.0909 9.98511 11.0909 9.55556V9.55556C11.0909 9.12601 11.4391 8.77779 11.8687 8.77779H12.8586C13.2881 8.77779 13.6363 9.126 13.6363 9.55554V9.55554ZM13.6363 6.44444C13.6364 6.87399 13.2881 7.22222 12.8586 7.22222H11.8687C11.4391 7.22222 11.0909 6.874 11.0909 6.44445V6.44445C11.0909 6.0149 11.4391 5.66668 11.8687 5.66668H12.8586C13.2881 5.66668 13.6363 6.01489 13.6363 6.44444V6.44444ZM17.2727 12.6667C17.2727 13.0962 16.9245 13.4444 16.4949 13.4444H15.505C15.0755 13.4444 14.7273 13.0962 14.7273 12.6667V12.6667C14.7273 12.2371 15.0755 11.8889 15.505 11.8889H16.4949C16.9245 11.8889 17.2727 12.2371 17.2727 12.6667V12.6667ZM17.2727 9.55556C17.2727 9.98511 16.9245 10.3333 16.4949 10.3333H15.505C15.0755 10.3333 14.7273 9.98511 14.7273 9.55556V9.55556C14.7273 9.12601 15.0755 8.77779 15.505 8.77779H16.4949C16.9245 8.77779 17.2727 9.12601 17.2727 9.55556V9.55556ZM17.2727 6.44445C17.2727 6.874 16.9245 7.22222 16.4949 7.22222H15.505C15.0755 7.22222 14.7273 6.874 14.7273 6.44445V6.44445C14.7273 6.0149 15.0755 5.66668 15.505 5.66668H16.4949C16.9245 5.66668 17.2727 6.0149 17.2727 6.44445V6.44445ZM20.909 12.6667C20.9091 13.0962 20.5608 13.4444 20.1313 13.4444H19.1414C18.7118 13.4444 18.3636 13.0962 18.3636 12.6667V12.6667C18.3636 12.2371 18.7118 11.8889 19.1414 11.8889H20.1313C20.5608 11.8889 20.909 12.2371 20.909 12.6667V12.6667ZM20.909 9.55554C20.9091 9.9851 20.5608 10.3333 20.1313 10.3333H19.1414C18.7118 10.3333 18.3636 9.98511 18.3636 9.55556V9.55556C18.3636 9.12601 18.7118 8.77779 19.1414 8.77779H20.1313C20.5608 8.77779 20.909 9.126 20.909 9.55554V9.55554ZM20.909 6.44444C20.9091 6.87399 20.5608 7.22222 20.1313 7.22222H19.1414C18.7118 7.22222 18.3636 6.874 18.3636 6.44445V6.44445C18.3636 6.0149 18.7118 5.66668 19.1414 5.66668H20.1313C20.5608 5.66668 20.909 6.01489 20.909 6.44444V6.44444Z" fill="#554646"/>
<path d="M21.4545 1H10.5455C10.2442 1 10 1.29849 10 1.66667V4.33333C10 4.70151 10.2442 5 10.5455 5H11.0909H13.6364H14.7273H17.2727H18.3636H20.9091H21.4545C21.7558 5 22 4.70151 22 4.33333V1.66667C22 1.29849 21.7558 1 21.4545 1Z" fill="#CD3D3C"/>
<path fill-rule="evenodd" clip-rule="evenodd" d="M11.2431 11.6004L13.53 10.0363C13.6131 9.98182 13.6814 9.90753 13.7286 9.82012C13.7758 9.7327 13.8006 9.6349 13.8006 9.53554C13.8006 9.43617 13.7758 9.33837 13.7286 9.25095C13.6814 9.16354 13.6131 9.08925 13.53 9.0348L11.2431 7.47063C11.1412 7.40971 11.0258 7.37459 10.9072 7.36833C10.7886 7.36206 10.6702 7.38484 10.5624 7.43469C10.4546 7.48453 10.3605 7.55994 10.2884 7.65436C10.2163 7.74879 10.1684 7.85938 10.1487 7.97653V8.80249L8.00559 8.80766C8.0035 8.80766 8.00142 8.80768 7.99933 8.8077C7.99779 8.80769 7.99624 8.80768 7.9947 8.80767L5.85155 8.80251L5.85155 7.97655C5.83189 7.85939 5.78394 7.74881 5.71185 7.65438C5.63977 7.55996 5.54573 7.48455 5.4379 7.4347C5.33007 7.38486 5.2117 7.36208 5.09307 7.36834C4.97444 7.37461 4.85914 7.40972 4.75715 7.47065L2.47027 9.03481C2.38716 9.08927 2.31891 9.16355 2.27167 9.25097C2.22444 9.33839 2.19971 9.43619 2.19971 9.53555C2.19971 9.63492 2.22444 9.73272 2.27167 9.82013C2.31891 9.90755 2.38716 9.98184 2.47027 10.0363L4.75715 11.6005C4.85914 11.6614 4.97444 11.6965 5.09307 11.7028C5.2117 11.709 5.33007 11.6862 5.4379 11.6364C5.54573 11.5866 5.63977 11.5111 5.71185 11.4167C5.78394 11.3223 5.83189 11.2117 5.85155 11.0946L5.85155 10.2686L7.9947 10.2634C7.99679 10.2634 7.99888 10.2634 8.00097 10.2634C8.00251 10.2634 8.00405 10.2634 8.00559 10.2634L10.1487 10.2686L10.1487 11.0945C10.1684 11.2117 10.2163 11.3223 10.2884 11.4167C10.3605 11.5111 10.4546 11.5865 10.5624 11.6364C10.6702 11.6862 10.7886 11.709 10.9072 11.7027C11.0258 11.6965 11.1412 11.6614 11.2431 11.6004Z" fill="#28EA3C"/>
<path fill-rule="evenodd" clip-rule="evenodd" d="M13.3656 9.78534C13.4071 9.75817 13.4411 9.72111 13.4647 9.6775C13.4882 9.63389 13.5006 9.5851 13.5006 9.53554C13.5006 9.48597 13.4882 9.43718 13.4647 9.39357C13.4411 9.34996 13.4071 9.3129 13.3656 9.28573L13.3606 9.28246L11.0824 7.72414C11.024 7.69073 10.9586 7.67146 10.8914 7.66791C10.8215 7.66422 10.7518 7.67764 10.6883 7.707L10.5624 7.43469C10.6702 7.38484 10.7886 7.36206 10.9072 7.36833C11.0258 7.37459 11.1412 7.40971 11.2431 7.47063L13.53 9.0348C13.6131 9.08925 13.6814 9.16354 13.7286 9.25095C13.7758 9.33837 13.8006 9.43617 13.8006 9.53554C13.8006 9.6349 13.7758 9.7327 13.7286 9.82012C13.6814 9.90753 13.6131 9.98182 13.53 10.0363L11.2431 11.6004C11.1412 11.6614 11.0258 11.6965 10.9072 11.7027C10.7886 11.709 10.6702 11.6862 10.5624 11.6364C10.4546 11.5865 10.3605 11.5111 10.2884 11.4167C10.2163 11.3223 10.1684 11.2117 10.1487 11.0945L10.1487 10.2686L8.00559 10.2634L8.00097 10.2634L7.9947 10.2634L5.85155 10.2686L5.85155 11.0946C5.83189 11.2117 5.78394 11.3223 5.71185 11.4167C5.63977 11.5111 5.54573 11.5866 5.4379 11.6364C5.33007 11.6862 5.2117 11.709 5.09307 11.7028C4.97444 11.6965 4.85914 11.6614 4.75715 11.6005L2.47027 10.0363C2.38716 9.98184 2.31891 9.90755 2.27167 9.82013C2.22444 9.73272 2.19971 9.63492 2.19971 9.53555C2.19971 9.43619 2.22444 9.33839 2.27167 9.25097C2.31891 9.16355 2.38716 9.08927 2.47027 9.03481L4.75715 7.47065C4.85914 7.40972 4.97444 7.37461 5.09307 7.36834C5.2117 7.36208 5.33007 7.38486 5.4379 7.4347C5.54573 7.48455 5.63977 7.55996 5.71185 7.65438C5.78394 7.74881 5.83189 7.85939 5.85155 7.97655L5.85155 8.80251L7.9947 8.80767L7.99933 8.8077L8.00559 8.80766L10.1487 8.80249V7.97653C10.1684 7.85938 10.2163 7.74879 10.2884 7.65436C10.3605 7.55994 10.4546 7.48453 10.5624 7.43469L10.6883 7.707C10.6247 7.73636 10.5694 7.78078 10.5269 7.83641C10.4888 7.88626 10.4622 7.94377 10.4487 8.00485V9.10177L8.00648 9.10766L8.0028 9.10768L7.99653 9.10776L7.99398 9.10767L5.55155 9.10179L5.55155 8.00487C5.5381 7.94378 5.51146 7.88628 5.4734 7.83642C5.43093 7.7808 5.37554 7.73638 5.31202 7.70702C5.2485 7.67765 5.17877 7.66424 5.10889 7.66793C5.04168 7.67147 4.97627 7.69075 4.91792 7.72415L2.63472 9.2858C2.59325 9.31297 2.55917 9.34997 2.53561 9.39358C2.51205 9.43719 2.49971 9.48598 2.49971 9.53555C2.49971 9.58512 2.51205 9.63391 2.53561 9.67752C2.55917 9.72113 2.59322 9.75819 2.63468 9.78536L2.63967 9.78862L4.91792 11.347C4.97627 11.3804 5.04168 11.3996 5.10889 11.4032C5.17877 11.4069 5.2485 11.3935 5.31202 11.3641C5.37554 11.3347 5.43093 11.2903 5.4734 11.2347C5.51146 11.1848 5.5381 11.1273 5.55155 11.0662L5.55155 9.96932L7.99381 9.96343L7.99751 9.96341L8.00375 9.96333L8.00631 9.96342L10.4487 9.9693L10.4487 11.0662C10.4622 11.1273 10.4888 11.1848 10.5269 11.2347C10.5694 11.2903 10.6247 11.3347 10.6883 11.3641C10.7518 11.3934 10.8215 11.4069 10.8914 11.4032C10.9586 11.3996 11.024 11.3803 11.0824 11.3469L13.3656 9.78534Z" fill="#212121"/>
<path d="M8 12.1605C9.44975 12.1605 10.625 10.9853 10.625 9.53552C10.625 8.08577 9.44975 6.91052 8 6.91052C6.55025 6.91052 5.375 8.08577 5.375 9.53552C5.375 10.9853 6.55025 12.1605 8 12.1605Z" fill="#CD3D3C"/>
<path fill-rule="evenodd" clip-rule="evenodd" d="M8 11.9605C9.33929 11.9605 10.425 10.8748 10.425 9.53552C10.425 8.19623 9.33929 7.11052 8 7.11052C6.66071 7.11052 5.575 8.19623 5.575 9.53552C5.575 10.8748 6.66071 11.9605 8 11.9605ZM10.625 9.53552C10.625 10.9853 9.44975 12.1605 8 12.1605C6.55025 12.1605 5.375 10.9853 5.375 9.53552C5.375 8.08577 6.55025 6.91052 8 6.91052C9.44975 6.91052 10.625 8.08577 10.625 9.53552Z" fill="#212121"/>
<path d="M6.10986 9.14783H9.88986V9.92324H6.10986V9.14783Z" fill="#F5F5F5"/>
</g>
<defs>
<clipPath id="clip0_312_1921">
<rect width="16" height="16" fill="white"/>
</clipPath>
</defs>
</svg>
