<svg width="17" height="17" viewBox="0 0 17 17" fill="none" xmlns="http://www.w3.org/2000/svg">
<g clip-path="url(#clip0_371_1095)">
<path fill-rule="evenodd" clip-rule="evenodd" d="M4.89063 0.658997C5.71763 0.658997 6.39062 1.332 6.39062 2.159V15.159C6.39062 15.986 5.71763 16.659 4.89063 16.659H-8.10937C-8.93637 16.659 -9.60938 15.986 -9.60938 15.159V2.159C-9.60938 1.332 -8.93637 0.658997 -8.10937 0.658997H4.89063ZM1.39063 10.659H5.39063V6.659H1.39063V10.659ZM5.39063 15.159V11.659H1.39063V15.659H4.89063C5.16563 15.659 5.39063 15.434 5.39063 15.159ZM-3.60937 10.659H0.390626V6.659H-3.60937V10.659ZM-3.60937 15.659H0.390626V11.659H-3.60937V15.659ZM-8.60938 10.659H-4.60937V6.659H-8.60938V10.659ZM-4.60937 15.659V11.659H-8.60938V15.159C-8.60938 15.434 -8.38437 15.659 -8.10937 15.659H-4.60937Z" fill="#4B4949"/>
<path d="M9.5 14.1301V12.9744H11.403V6.45226H9.5V5.41785H14.7773V6.45226H12.9307V12.9744H14.7773V14.1301H9.5Z" fill="#4B4949"/>
</g>
<defs>
<clipPath id="clip0_371_1095">
<rect width="16" height="16" fill="white" transform="translate(0.5 0.658997)"/>
</clipPath>
</defs>
</svg>
