<svg width="16" height="16" viewBox="0 0 16 16" fill="none" xmlns="http://www.w3.org/2000/svg">
<path d="M13.9944 3.91435C13.9974 3.9171 13.9992 3.921 13.9992 3.9251V14C13.9992 14.5523 13.5514 15 12.9992 15H3C2.44772 15 2 14.5523 2 14V2C2 1.44772 2.44772 1 3 1H10.409C10.6582 1 10.8984 1.09303 11.0826 1.26087L13.9944 3.91435V3.91435Z" fill="#FC7B24"/>
<path d="M7.98272 9.75208H4.40889C4.15286 9.75208 3.94531 9.95963 3.94531 10.2157C3.94531 10.4717 4.15286 10.6792 4.40889 10.6792H7.98272C8.23875 10.6792 8.4463 10.4717 8.4463 10.2157C8.4463 9.95963 8.23874 9.75208 7.98272 9.75208Z" fill="white"/>
<path d="M7.95147 6.00012H4.37764C4.12161 6.00012 3.91406 6.20767 3.91406 6.4637C3.91406 6.71973 4.12161 6.92728 4.37764 6.92728H7.95147C8.2075 6.92728 8.41505 6.71973 8.41505 6.4637C8.41505 6.20767 8.20749 6.00012 7.95147 6.00012Z" fill="white"/>
<path d="M11.6341 7.88489H4.37764C4.12161 7.88489 3.91406 8.09244 3.91406 8.34846C3.91406 8.60449 4.12161 8.81204 4.37764 8.81204H11.6341C11.8901 8.81204 12.0977 8.60449 12.0977 8.34846C12.0977 8.09244 11.8901 7.88489 11.6341 7.88489Z" fill="white"/>
<path d="M8.41431 6.72012V6.20728C8.41431 6.09287 8.32156 6.00012 8.20715 6.00012C8.09275 6.00012 8 6.09287 8 6.20728V6.72012C8 6.83453 8.09275 6.92728 8.20715 6.92728C8.32156 6.92728 8.41431 6.83453 8.41431 6.72012Z" fill="white"/>
<path d="M8.44668 10.4559V9.97542C8.44668 9.85207 8.34669 9.75208 8.22334 9.75208C8.09999 9.75208 8 9.85207 8 9.97542V10.4559C8 10.5792 8.09999 10.6792 8.22334 10.6792C8.34669 10.6792 8.44668 10.5792 8.44668 10.4559Z" fill="white"/>
<path d="M11.6333 7.88489H8.46358C8.20755 7.88489 8 8.09244 8 8.34846C8 8.60449 8.20755 8.81204 8.46358 8.81204H11.6333C11.8893 8.81204 12.0969 8.60449 12.0969 8.34846C12.0969 8.09244 11.8893 7.88489 11.6333 7.88489Z" fill="white"/>
<path d="M13.8002 3.74038C13.8677 3.8019 13.8242 3.91429 13.7328 3.91429H10.893C10.8377 3.91429 10.793 3.86952 10.793 3.81429V1.22642C10.793 1.13955 10.8961 1.09399 10.9603 1.1525L13.8002 3.74038Z" fill="white" fill-opacity="0.7"/>
</svg>
