<svg width="16" height="16" viewBox="0 0 16 16" fill="none" xmlns="http://www.w3.org/2000/svg">
<path d="M7.99983 16C8.6456 16 9.1691 15.6796 9.1691 15.2845C9.1691 14.8893 8.6456 14.569 7.99983 14.569C7.35406 14.569 6.83057 14.8893 6.83057 15.2845C6.83057 15.6796 7.35406 16 7.99983 16Z" fill="#929292"/>
<path d="M12.3216 4.32161C12.3216 1.93479 10.3866 0 7.99983 0C5.61302 0 3.67822 1.93479 3.67822 4.32161C3.67822 5.30852 4.0097 6.21765 4.56641 6.94518H4.56566C5.29132 7.92065 6.50271 9.58519 6.50271 11.4827H7.9998H9.49701C9.49701 9.58519 10.7084 7.92078 11.4341 6.94518H11.4332C11.9901 6.21765 12.3216 5.30849 12.3216 4.32161Z" fill="#FFDC24"/>
<path d="M6.20525 3.97569C6.78514 3.97569 7.25523 3.5056 7.25523 2.92571C7.25523 2.34582 6.78514 1.87573 6.20525 1.87573C5.62536 1.87573 5.15527 2.34582 5.15527 2.92571C5.15527 3.5056 5.62536 3.97569 6.20525 3.97569Z" fill="white"/>
<path d="M5.69707 5.14488C5.91297 5.14488 6.088 4.96986 6.088 4.75396C6.088 4.53806 5.91297 4.36304 5.69707 4.36304C5.48117 4.36304 5.30615 4.53806 5.30615 4.75396C5.30615 4.96986 5.48117 5.14488 5.69707 5.14488Z" fill="white"/>
<path d="M9.96026 14.9008C9.96026 15.1439 9.76322 15.3407 9.5203 15.3407H6.44093C6.19786 15.3407 6.00098 15.1438 6.00098 14.9008V11.7072C6.00098 11.4641 6.19802 11.2672 6.44093 11.2672H9.52015C9.76322 11.2672 9.9601 11.4641 9.9601 11.7072V14.9008H9.96026V14.9008Z" fill="#696969"/>
<path d="M10.2439 11.9388C10.2439 12.1089 10.1061 12.262 9.93606 12.281L6.02468 12.7161C5.85474 12.7349 5.7168 12.6125 5.7168 12.4425C5.7168 12.2724 5.85461 12.1193 6.02468 12.1002L9.93606 11.6651C10.106 11.6463 10.2439 11.7688 10.2439 11.9388Z" fill="#929292"/>
<path d="M10.2439 13.0521C10.2439 13.222 10.1061 13.3753 9.93606 13.3942L6.02468 13.8293C5.85474 13.8481 5.7168 13.7257 5.7168 13.5556C5.7168 13.3857 5.85461 13.2324 6.02468 13.2135L9.93606 12.7784C10.106 12.7595 10.2439 12.8822 10.2439 13.0521Z" fill="#929292"/>
<path d="M10.2439 14.1652C10.2439 14.3352 10.1061 14.4884 9.93606 14.5074L6.02468 14.9424C5.85474 14.9614 5.7168 14.8388 5.7168 14.6688C5.7168 14.4988 5.85461 14.3456 6.02468 14.3266L9.93606 13.8915C10.106 13.8728 10.2439 13.9953 10.2439 14.1652Z" fill="#929292"/>
</svg>
