<svg width="16" height="16" viewBox="0 0 16 16" fill="none" xmlns="http://www.w3.org/2000/svg">
<g clip-path="url(#clip0_312_1762)">
<path d="M-0.000211299 3.96848e-05L14.156 3.87448e-05L-0.000216575 15.1492L-0.000211299 3.96848e-05Z" fill="#28EA3C"/>
<path d="M13.311 2.66296H2.58887V12.0867H13.311V2.66296Z" fill="#333333"/>
<path d="M13.311 2.66321H2.58887V12.0869H13.311V2.66321Z" fill="#333333"/>
<path d="M13.2418 2.7615V11.988H2.75796V2.7615H13.2418ZM13.4109 2.56409H2.58887V12.1854H13.4109V2.56409Z" fill="#AEAEAE"/>
<path d="M13.3441 4.18762H2.65234V4.38503H13.3441V4.18762Z" fill="#AEAEAE"/>
<path d="M12.1272 3.79927C12.3007 3.79927 12.4413 3.66025 12.4413 3.48875C12.4413 3.31725 12.3007 3.17822 12.1272 3.17822C11.9536 3.17822 11.813 3.31725 11.813 3.48875C11.813 3.66025 11.9536 3.79927 12.1272 3.79927Z" fill="#E04F5F"/>
<path d="M11.3283 3.79927C11.5018 3.79927 11.6425 3.66025 11.6425 3.48875C11.6425 3.31725 11.5018 3.17822 11.3283 3.17822C11.1548 3.17822 11.0142 3.31725 11.0142 3.48875C11.0142 3.66025 11.1548 3.79927 11.3283 3.79927Z" fill="#25B6D2"/>
<path d="M10.5295 3.79927C10.703 3.79927 10.8437 3.66025 10.8437 3.48875C10.8437 3.31725 10.703 3.17822 10.5295 3.17822C10.356 3.17822 10.2153 3.31725 10.2153 3.48875C10.2153 3.66025 10.356 3.79927 10.5295 3.79927Z" fill="#32BEA6"/>
</g>
<defs>
<clipPath id="clip0_312_1762">
<rect width="16" height="16" fill="white"/>
</clipPath>
</defs>
</svg>
