<svg width="16" height="16" viewBox="0 0 16 16" fill="none" xmlns="http://www.w3.org/2000/svg">
<path d="M1.26402 7.99958C1.26402 8.55745 1.71628 9.00971 2.27415 9.00971H2.70582C2.84557 9.74636 3.13506 10.4299 3.54181 11.0274L3.23641 11.3328C2.84192 11.7273 2.84192 12.3669 3.23641 12.7614C3.63089 13.1558 4.27047 13.1558 4.66496 12.7614L4.97036 12.456C5.56786 12.8627 6.25141 13.1522 6.98806 13.2919V13.7237C6.98806 14.2815 7.44032 14.7338 7.99819 14.7338C8.55606 14.7338 9.00835 14.2815 9.00835 13.7237V13.292C9.745 13.1522 10.4286 12.8627 11.026 12.456L11.3315 12.7614C11.7259 13.1559 12.3655 13.1559 12.76 12.7614C13.1545 12.3669 13.1545 11.7273 12.76 11.3328L12.4546 11.0274C12.8614 10.4299 13.1509 9.74633 13.2906 9.00971H13.7223C14.2802 9.00971 14.7324 8.55745 14.7324 7.99958C14.7324 7.44171 14.2802 6.98945 13.7223 6.98945H13.2906C13.1509 6.2528 12.8614 5.56925 12.4546 4.97176L12.76 4.66635C13.1545 4.27187 13.1545 3.63228 12.76 3.2378C12.3656 2.84331 11.726 2.84331 11.3315 3.2378L11.0261 3.5432C10.4286 3.13646 9.745 2.84693 9.00835 2.70718V2.27551C9.00835 1.71764 8.55609 1.26538 7.99822 1.26538C7.44035 1.26538 6.98809 1.71764 6.98809 2.27551V2.70718C6.25144 2.84693 5.56789 3.13642 4.9704 3.54317L4.66499 3.23776C4.27051 2.84328 3.63092 2.84328 3.23644 3.23776C2.84196 3.63225 2.84196 4.27183 3.23644 4.66632L3.54185 4.97172C3.1351 5.56922 2.84561 6.25277 2.70586 6.98942H2.27415C1.71628 6.98945 1.26402 7.44171 1.26402 7.99958Z" fill="#554646"/>
<path d="M7.99998 12.1646C10.2964 12.1646 12.1646 10.2964 12.1646 8.00002C12.1646 5.70365 10.2964 3.83543 7.99998 3.83543C5.70362 3.83543 3.8354 5.70365 3.8354 8.00002C3.8354 10.2964 5.70362 12.1646 7.99998 12.1646ZM7.99998 11.6329C5.99676 11.6329 4.36707 10.0032 4.36707 8.00002C4.36707 5.99682 5.99676 4.3671 7.99998 4.3671C10.0032 4.3671 11.6329 5.99679 11.6329 8.00002C11.6329 10.0032 10.0032 11.6329 7.99998 11.6329ZM7.99998 15C8.70356 15 9.27593 14.4277 9.27593 13.7241V13.5082C9.88559 13.3679 10.4613 13.1294 10.9924 12.797L11.1453 12.9498C11.6427 13.4473 12.4522 13.4473 12.9498 12.9499C13.4473 12.4523 13.4473 11.6429 12.9498 11.1453L12.7969 10.9925C13.1294 10.4614 13.3679 9.88563 13.5082 9.276H13.7241C14.4276 9.276 15 8.70362 15 8.00005C15 7.29648 14.4276 6.7241 13.7241 6.7241H13.5082C13.3679 6.11444 13.1294 5.53878 12.797 5.00761L12.9498 4.85477C13.4473 4.35727 13.4473 3.54778 12.9498 3.05025C12.4523 2.55288 11.6429 2.55281 11.1453 3.05025L10.9925 3.20312C10.4613 2.87068 9.88559 2.63216 9.27596 2.49188V2.27595C9.27596 1.57237 8.70359 1 8.00002 1C7.29644 1 6.72407 1.57237 6.72407 2.27595V2.49182C6.11441 2.63209 5.53871 2.87065 5.00757 3.20305L4.85474 3.05018C4.35717 2.55275 3.54768 2.55281 3.05021 3.05018C2.55275 3.54768 2.55275 4.35717 3.05021 4.85471L3.20308 5.00757C2.87071 5.53868 2.63216 6.11437 2.49188 6.72404H2.27595C1.57237 6.72404 1 7.29641 1 7.99998C1 8.70356 1.57237 9.27593 2.27595 9.27593H2.49188C2.63216 9.88559 2.87071 10.4613 3.20308 10.9924L3.05021 11.1453C2.55275 11.6428 2.55275 12.4523 3.05021 12.9498C3.54768 13.4472 4.35717 13.4473 4.85474 12.9498L5.00757 12.7969C5.53868 13.1294 6.11444 13.3679 6.72407 13.5082V13.724C6.72404 14.4277 7.29641 15 7.99998 15ZM7.99998 14.4684C7.58959 14.4684 7.25567 14.1345 7.25567 13.7241V13.2924C7.25567 13.1646 7.16482 13.055 7.03937 13.0312C6.34899 12.9003 5.70381 12.6329 5.12177 12.2367C5.01622 12.1649 4.8745 12.1781 4.78421 12.2684L4.4788 12.5738C4.18858 12.8641 3.71637 12.8641 3.42622 12.5738C3.136 12.2836 3.136 11.8114 3.42622 11.5213L3.73163 11.2159C3.82189 11.1256 3.83524 10.9838 3.76339 10.8783C3.3671 10.2962 3.0998 9.65101 2.9688 8.96066C2.94503 8.83522 2.83533 8.7444 2.70765 8.7444H2.27595C1.86555 8.7444 1.53163 8.41048 1.53163 8.00008C1.53163 7.58969 1.86555 7.25577 2.27595 7.25577H2.70765C2.83536 7.25577 2.94503 7.16492 2.9688 7.03951C3.0998 6.34912 3.3671 5.70391 3.76339 5.12187C3.8352 5.01629 3.82189 4.8746 3.73163 4.7843L3.42622 4.4789C3.136 4.18868 3.136 3.71647 3.42622 3.42632C3.71643 3.13604 4.18868 3.1361 4.4788 3.42632L4.78421 3.73172C4.8745 3.82198 5.01629 3.83537 5.12177 3.76349C5.70384 3.36723 6.34902 3.0999 7.03937 2.96893C7.16485 2.94516 7.25567 2.8355 7.25567 2.70778V2.27595C7.25567 1.86555 7.58959 1.53163 7.99998 1.53163C8.41038 1.53163 8.7443 1.86555 8.7443 2.27595V2.70765C8.7443 2.8354 8.83515 2.94503 8.96059 2.9688C9.65095 3.09977 10.2962 3.36706 10.8782 3.76339C10.9838 3.83524 11.1256 3.82189 11.2158 3.73159L11.5212 3.42619C11.8114 3.136 12.2836 3.13597 12.5737 3.42622C12.864 3.71643 12.864 4.18865 12.5737 4.4788L12.2683 4.78421C12.1781 4.8745 12.1647 5.01625 12.2366 5.12177C12.6329 5.70385 12.9002 6.34902 13.0311 7.03937C13.0549 7.16485 13.1646 7.25567 13.2923 7.25567H13.7241C14.1345 7.25567 14.4684 7.58959 14.4684 7.99998C14.4684 8.41038 14.1345 8.7443 13.7241 8.7443H13.2923C13.1646 8.7443 13.055 8.83515 13.0312 8.96059C12.9002 9.65098 12.6329 10.2962 12.2366 10.8782C12.1648 10.9837 12.1781 11.1255 12.2684 11.2158L12.5738 11.5212C12.864 11.8114 12.864 12.2836 12.5738 12.5737C12.2836 12.864 11.8113 12.864 11.5212 12.5737L11.2159 12.2684C11.1645 12.2169 11.0964 12.1905 11.0278 12.1905C10.9759 12.1905 10.9237 12.2056 10.8783 12.2366C10.2962 12.6329 9.65095 12.9002 8.96063 13.0312C8.83515 13.0549 8.74433 13.1646 8.74433 13.2923V13.724C8.7443 14.1345 8.41038 14.4684 7.99998 14.4684Z" fill="#AAAAAA"/>
<path d="M8.04273 7.98039C8.04273 8.31839 7.92426 8.5733 7.68732 8.7451C7.45268 8.91503 7.12258 9 6.69701 9H6V7H6.77292C7.03057 7 7.2537 7.03735 7.44233 7.11204C7.63326 7.18674 7.78049 7.29692 7.884 7.44258C7.98982 7.58637 8.04273 7.76564 8.04273 7.98039ZM7.50099 7.9916C7.50099 7.76937 7.44118 7.60691 7.32156 7.5042C7.20194 7.39963 7.02826 7.34734 6.80053 7.34734H6.52103V8.64986H6.74532C7.2491 8.64986 7.50099 8.43044 7.50099 7.9916Z" fill="white"/>
<path d="M8.94068 7C9.26963 7 9.51807 7.03735 9.686 7.11204C9.85393 7.18674 9.93789 7.31839 9.93789 7.507C9.93789 7.62092 9.90453 7.71709 9.83782 7.79552C9.77341 7.87395 9.68025 7.92157 9.55833 7.93838V7.95238C9.64114 7.96545 9.7159 7.9888 9.78262 8.02241C9.84933 8.05602 9.90223 8.10458 9.94134 8.16807C9.98045 8.23156 10 8.31559 10 8.42017C10 8.60131 9.91949 8.74323 9.75846 8.84594C9.59744 8.94865 9.3766 9 9.09595 9H8.17466V7H8.94068ZM8.99934 7.79272C9.15116 7.79272 9.25583 7.77311 9.31334 7.73389C9.37315 7.69468 9.40305 7.63772 9.40305 7.56303C9.40305 7.48646 9.36855 7.43137 9.29954 7.39776C9.23053 7.36415 9.12126 7.34734 8.97174 7.34734H8.69569V7.79272H8.99934ZM8.69569 8.12885V8.64986H9.0373C9.19372 8.64986 9.30299 8.62558 9.3651 8.57703C9.42721 8.52661 9.45826 8.46032 9.45826 8.37815C9.45826 8.30345 9.42606 8.2437 9.36165 8.19888C9.29954 8.15219 9.18567 8.12885 9.02004 8.12885H8.69569Z" fill="white"/>
</svg>
