<svg width="17" height="17" viewBox="0 0 17 17" fill="none" xmlns="http://www.w3.org/2000/svg">
<g clip-path="url(#clip0_359_1424)">
<path d="M5.9209 11.6129H5.96484C6.30859 11.6129 6.61035 11.6734 6.87012 11.7945C7.12988 11.9136 7.34668 12.0757 7.52051 12.2808C7.69629 12.4839 7.82812 12.7125 7.91602 12.9664C8.00586 13.2183 8.05078 13.4761 8.05078 13.7398C8.05078 14.1422 7.95996 14.5005 7.77832 14.815C7.59863 15.1295 7.33203 15.3765 6.97852 15.5562C6.62695 15.7359 6.19336 15.8257 5.67773 15.8257H5.54004L4.87207 15.8199C4.79395 15.8179 4.72559 15.7877 4.66699 15.7291C4.61035 15.6705 4.58203 15.6002 4.58203 15.5181L4.60254 11.9234C4.60254 11.8453 4.63086 11.7779 4.6875 11.7213C4.74414 11.6627 4.81152 11.6324 4.88965 11.6304L5.9209 11.6129ZM7.5293 13.7222C7.5293 13.3589 7.45215 13.066 7.29785 12.8433C7.14355 12.6207 6.92676 12.4586 6.64746 12.357C6.36816 12.2535 6.04004 12.2017 5.66309 12.2017C5.58301 12.2017 5.50293 12.2027 5.42285 12.2047C5.34473 12.2066 5.26562 12.2095 5.18555 12.2134L5.16797 15.2281L5.5459 15.2339C5.93848 15.2339 6.2832 15.1871 6.58008 15.0933C6.87891 14.9976 7.11133 14.8394 7.27734 14.6187C7.44531 14.398 7.5293 14.0992 7.5293 13.7222ZM9.53965 13.6548V13.6168L9.53672 11.9263C9.53672 11.8463 9.56504 11.7779 9.62168 11.7213C9.67832 11.6646 9.7457 11.6353 9.82383 11.6334L10.5943 11.6187C10.6373 11.6168 10.6793 11.6158 10.7203 11.6158C10.7613 11.6158 10.8014 11.6158 10.8404 11.6158C11.0553 11.6158 11.2643 11.6392 11.4674 11.6861C11.6705 11.733 11.8521 11.8052 12.0123 11.9029C12.1744 12.0005 12.3023 12.1275 12.3961 12.2838C12.4918 12.438 12.5396 12.6236 12.5396 12.8404C12.5396 13.1216 12.443 13.3638 12.2496 13.567C12.3863 13.6666 12.4977 13.7984 12.5836 13.9625C12.6695 14.1246 12.7125 14.313 12.7125 14.5279C12.7125 14.8052 12.6529 15.0396 12.5338 15.231C12.4146 15.4205 12.2506 15.565 12.0416 15.6646C11.8326 15.7642 11.5924 15.817 11.3209 15.8228L9.84141 15.8257H9.83555C9.75547 15.8257 9.68613 15.7974 9.62754 15.7408C9.5709 15.6822 9.54258 15.6129 9.54258 15.5328L9.53965 13.6548ZM11.9537 12.858C11.9537 12.6802 11.8932 12.5445 11.7721 12.4507C11.6529 12.355 11.5025 12.2896 11.3209 12.2545C11.1412 12.2193 10.9596 12.2017 10.776 12.2017C10.7486 12.2017 10.7203 12.2027 10.691 12.2047C10.6617 12.2047 10.6334 12.2047 10.6061 12.2047L10.1227 12.2134L10.1256 13.3414L11.2535 13.3238C11.3727 13.3218 11.485 13.3082 11.5904 13.2828C11.6979 13.2554 11.7848 13.2086 11.8512 13.1422C11.9195 13.0738 11.9537 12.9791 11.9537 12.858ZM11.3092 15.2369C11.5709 15.233 11.7721 15.1773 11.9127 15.0699C12.0553 14.9605 12.1266 14.775 12.1266 14.5132C12.1266 14.2808 12.0494 14.1226 11.8951 14.0386C11.7408 13.9527 11.5436 13.9097 11.3033 13.9097H11.2652L10.1256 13.9273L10.1285 15.2339L11.3092 15.2369Z" fill="black"/>
<g clip-path="url(#clip1_359_1424)">
<path d="M10.7659 7.42694L9.35941 6.44213L12.5638 3.16407L6.21472 5.62747L7.62121 6.6123L4.41679 9.89036L10.7659 7.42694Z" fill="#4B4949"/>
</g>
</g>
<defs>
<clipPath id="clip0_359_1424">
<rect width="16" height="16" fill="white" transform="translate(0.5 0.448975)"/>
</clipPath>
<clipPath id="clip1_359_1424">
<rect width="9.64125" height="10.6054" fill="white" transform="translate(7.58301 -0.581482) rotate(35)"/>
</clipPath>
</defs>
</svg>
