<svg width="17" height="17" viewBox="0 0 17 17" fill="none" xmlns="http://www.w3.org/2000/svg">
<g clip-path="url(#clip0_359_1387)">
<path fill-rule="evenodd" clip-rule="evenodd" d="M4.89063 0.448975C5.71763 0.448975 6.39062 1.12197 6.39062 1.94897V14.949C6.39062 15.776 5.71763 16.449 4.89063 16.449H-8.10937C-8.93637 16.449 -9.60938 15.776 -9.60938 14.949V1.94897C-9.60938 1.12197 -8.93637 0.448975 -8.10937 0.448975H4.89063ZM1.39063 10.449H5.39063V6.44898H1.39063V10.449ZM5.39063 14.949V11.449H1.39063V15.449H4.89063C5.16563 15.449 5.39063 15.224 5.39063 14.949ZM-3.60937 10.449H0.390626V6.44898H-3.60937V10.449ZM-3.60937 15.449H0.390626V11.449H-3.60937V15.449ZM-8.60938 10.449H-4.60937V6.44898H-8.60938V10.449ZM-4.60937 15.449V11.449H-8.60938V14.949C-8.60938 15.224 -8.38437 15.449 -8.10937 15.449H-4.60937Z" fill="#4B4949"/>
<g clip-path="url(#clip1_359_1387)">
<path d="M16.0997 7.69887H13.7846L14.7887 1.72784L9.68115 9.199H11.9963L10.9922 15.17L16.0997 7.69887Z" fill="#4B4949"/>
</g>
</g>
<defs>
<clipPath id="clip0_359_1387">
<rect width="16" height="16" fill="white" transform="translate(0.5 0.448975)"/>
</clipPath>
<clipPath id="clip1_359_1387">
<rect width="13" height="14" fill="white" transform="translate(6.39062 1.44897)"/>
</clipPath>
</defs>
</svg>
