<svg width="17" height="17" viewBox="0 0 17 17" fill="none" xmlns="http://www.w3.org/2000/svg">
<g clip-path="url(#clip0_359_1397)">
<path d="M3.13184 11.6129H3.17578C3.51953 11.6129 3.82129 11.6734 4.08105 11.7945C4.34082 11.9136 4.55762 12.0757 4.73145 12.2808C4.90723 12.4839 5.03906 12.7125 5.12695 12.9664C5.2168 13.2183 5.26172 13.4761 5.26172 13.7398C5.26172 14.1422 5.1709 14.5005 4.98926 14.815C4.80957 15.1295 4.54297 15.3765 4.18945 15.5562C3.83789 15.7359 3.4043 15.8257 2.88867 15.8257H2.75098L2.08301 15.8199C2.00488 15.8179 1.93652 15.7877 1.87793 15.7291C1.82129 15.6705 1.79297 15.6002 1.79297 15.5181L1.81348 11.9234C1.81348 11.8453 1.8418 11.7779 1.89844 11.7213C1.95508 11.6627 2.02246 11.6324 2.10059 11.6304L3.13184 11.6129ZM4.74023 13.7222C4.74023 13.3589 4.66309 13.066 4.50879 12.8433C4.35449 12.6207 4.1377 12.4586 3.8584 12.357C3.5791 12.2535 3.25098 12.2017 2.87402 12.2017C2.79395 12.2017 2.71387 12.2027 2.63379 12.2047C2.55566 12.2066 2.47656 12.2095 2.39648 12.2134L2.37891 15.2281L2.75684 15.2339C3.14941 15.2339 3.49414 15.1871 3.79102 15.0933C4.08984 14.9976 4.32227 14.8394 4.48828 14.6187C4.65625 14.398 4.74023 14.0992 4.74023 13.7222ZM8.08652 11.6129H8.13047C8.47422 11.6129 8.77598 11.6734 9.03574 11.7945C9.29551 11.9136 9.5123 12.0757 9.68613 12.2808C9.86191 12.4839 9.99375 12.7125 10.0816 12.9664C10.1715 13.2183 10.2164 13.4761 10.2164 13.7398C10.2164 14.1422 10.1256 14.5005 9.94395 14.815C9.76426 15.1295 9.49766 15.3765 9.14414 15.5562C8.79258 15.7359 8.35898 15.8257 7.84336 15.8257H7.70566L7.0377 15.8199C6.95957 15.8179 6.89121 15.7877 6.83262 15.7291C6.77598 15.6705 6.74766 15.6002 6.74766 15.5181L6.76816 11.9234C6.76816 11.8453 6.79648 11.7779 6.85313 11.7213C6.90977 11.6627 6.97715 11.6324 7.05527 11.6304L8.08652 11.6129ZM9.69492 13.7222C9.69492 13.3589 9.61777 13.066 9.46348 12.8433C9.30918 12.6207 9.09238 12.4586 8.81309 12.357C8.53379 12.2535 8.20566 12.2017 7.82871 12.2017C7.74863 12.2017 7.66855 12.2027 7.58848 12.2047C7.51035 12.2066 7.43125 12.2095 7.35117 12.2134L7.33359 15.2281L7.71152 15.2339C8.1041 15.2339 8.44883 15.1871 8.7457 15.0933C9.04453 14.9976 9.27695 14.8394 9.44297 14.6187C9.61094 14.398 9.69492 14.0992 9.69492 13.7222ZM11.9895 15.8463C11.9094 15.8463 11.84 15.8179 11.7814 15.7613C11.7248 15.7027 11.6965 15.6343 11.6965 15.5562L11.6877 11.8384V11.8355C11.6877 11.7574 11.716 11.691 11.7727 11.6363C11.8313 11.5797 11.9006 11.5513 11.9807 11.5513C12.0607 11.5513 12.1291 11.5797 12.1857 11.6363C12.2443 11.691 12.2736 11.7574 12.2736 11.8355L12.2824 15.2603L14.5002 15.2545H14.5031C14.5832 15.2545 14.6516 15.2838 14.7082 15.3423C14.7668 15.399 14.7961 15.4673 14.7961 15.5474C14.7961 15.6275 14.7668 15.6968 14.7082 15.7554C14.6516 15.8121 14.5832 15.8404 14.5031 15.8404H14.5002L11.9895 15.8463Z" fill="black"/>
<g clip-path="url(#clip1_359_1397)">
<path d="M10.7659 7.42694L9.35941 6.44213L12.5638 3.16407L6.21472 5.62747L7.62121 6.6123L4.41679 9.89036L10.7659 7.42694Z" fill="#4B4949"/>
</g>
</g>
<defs>
<clipPath id="clip0_359_1397">
<rect width="16" height="16" fill="white" transform="translate(0.5 0.448975)"/>
</clipPath>
<clipPath id="clip1_359_1397">
<rect width="9.64125" height="10.6054" fill="white" transform="translate(7.58301 -0.581482) rotate(35)"/>
</clipPath>
</defs>
</svg>
