<svg width="16" height="16" viewBox="0 0 16 16" fill="none" xmlns="http://www.w3.org/2000/svg">
<path d="M1.26402 7.99958C1.26402 8.55745 1.71628 9.00971 2.27415 9.00971H2.70582C2.84557 9.74636 3.13506 10.4299 3.54181 11.0274L3.23641 11.3328C2.84192 11.7273 2.84192 12.3669 3.23641 12.7614C3.63089 13.1558 4.27047 13.1558 4.66496 12.7614L4.97036 12.456C5.56786 12.8627 6.25141 13.1522 6.98806 13.2919V13.7237C6.98806 14.2815 7.44032 14.7338 7.99819 14.7338C8.55606 14.7338 9.00835 14.2815 9.00835 13.7237V13.292C9.745 13.1522 10.4286 12.8627 11.026 12.456L11.3315 12.7614C11.7259 13.1559 12.3655 13.1559 12.76 12.7614C13.1545 12.3669 13.1545 11.7273 12.76 11.3328L12.4546 11.0274C12.8614 10.4299 13.1509 9.74633 13.2906 9.00971H13.7223C14.2802 9.00971 14.7324 8.55745 14.7324 7.99958C14.7324 7.44171 14.2802 6.98945 13.7223 6.98945H13.2906C13.1509 6.2528 12.8614 5.56925 12.4546 4.97176L12.76 4.66635C13.1545 4.27187 13.1545 3.63228 12.76 3.2378C12.3656 2.84331 11.726 2.84331 11.3315 3.2378L11.0261 3.5432C10.4286 3.13646 9.745 2.84693 9.00835 2.70718V2.27551C9.00835 1.71764 8.55609 1.26538 7.99822 1.26538C7.44035 1.26538 6.98809 1.71764 6.98809 2.27551V2.70718C6.25144 2.84693 5.56789 3.13642 4.9704 3.54317L4.66499 3.23776C4.27051 2.84328 3.63092 2.84328 3.23644 3.23776C2.84196 3.63225 2.84196 4.27183 3.23644 4.66632L3.54185 4.97172C3.1351 5.56922 2.84561 6.25277 2.70586 6.98942H2.27415C1.71628 6.98945 1.26402 7.44171 1.26402 7.99958Z" fill="#554646"/>
<path d="M7.99998 12.1646C10.2964 12.1646 12.1646 10.2964 12.1646 8.00002C12.1646 5.70365 10.2964 3.83543 7.99998 3.83543C5.70362 3.83543 3.8354 5.70365 3.8354 8.00002C3.8354 10.2964 5.70362 12.1646 7.99998 12.1646ZM7.99998 11.6329C5.99676 11.6329 4.36707 10.0032 4.36707 8.00002C4.36707 5.99682 5.99676 4.3671 7.99998 4.3671C10.0032 4.3671 11.6329 5.99679 11.6329 8.00002C11.6329 10.0032 10.0032 11.6329 7.99998 11.6329ZM7.99998 15C8.70356 15 9.27593 14.4277 9.27593 13.7241V13.5082C9.88559 13.3679 10.4613 13.1294 10.9924 12.797L11.1453 12.9498C11.6427 13.4473 12.4522 13.4473 12.9498 12.9499C13.4473 12.4523 13.4473 11.6429 12.9498 11.1453L12.7969 10.9925C13.1294 10.4614 13.3679 9.88563 13.5082 9.276H13.7241C14.4276 9.276 15 8.70362 15 8.00005C15 7.29648 14.4276 6.7241 13.7241 6.7241H13.5082C13.3679 6.11444 13.1294 5.53878 12.797 5.00761L12.9498 4.85477C13.4473 4.35727 13.4473 3.54778 12.9498 3.05025C12.4523 2.55288 11.6429 2.55281 11.1453 3.05025L10.9925 3.20312C10.4613 2.87068 9.88559 2.63216 9.27596 2.49188V2.27595C9.27596 1.57237 8.70359 1 8.00002 1C7.29644 1 6.72407 1.57237 6.72407 2.27595V2.49182C6.11441 2.63209 5.53871 2.87065 5.00757 3.20305L4.85474 3.05018C4.35717 2.55275 3.54768 2.55281 3.05021 3.05018C2.55275 3.54768 2.55275 4.35717 3.05021 4.85471L3.20308 5.00757C2.87071 5.53868 2.63216 6.11437 2.49188 6.72404H2.27595C1.57237 6.72404 1 7.29641 1 7.99998C1 8.70356 1.57237 9.27593 2.27595 9.27593H2.49188C2.63216 9.88559 2.87071 10.4613 3.20308 10.9924L3.05021 11.1453C2.55275 11.6428 2.55275 12.4523 3.05021 12.9498C3.54768 13.4472 4.35717 13.4473 4.85474 12.9498L5.00757 12.7969C5.53868 13.1294 6.11444 13.3679 6.72407 13.5082V13.724C6.72404 14.4277 7.29641 15 7.99998 15ZM7.99998 14.4684C7.58959 14.4684 7.25567 14.1345 7.25567 13.7241V13.2924C7.25567 13.1646 7.16482 13.055 7.03937 13.0312C6.34899 12.9003 5.70381 12.6329 5.12177 12.2367C5.01622 12.1649 4.8745 12.1781 4.78421 12.2684L4.4788 12.5738C4.18858 12.8641 3.71637 12.8641 3.42622 12.5738C3.136 12.2836 3.136 11.8114 3.42622 11.5213L3.73163 11.2159C3.82189 11.1256 3.83524 10.9838 3.76339 10.8783C3.3671 10.2962 3.0998 9.65101 2.9688 8.96066C2.94503 8.83522 2.83533 8.7444 2.70765 8.7444H2.27595C1.86555 8.7444 1.53163 8.41048 1.53163 8.00008C1.53163 7.58969 1.86555 7.25577 2.27595 7.25577H2.70765C2.83536 7.25577 2.94503 7.16492 2.9688 7.03951C3.0998 6.34912 3.3671 5.70391 3.76339 5.12187C3.8352 5.01629 3.82189 4.8746 3.73163 4.7843L3.42622 4.4789C3.136 4.18868 3.136 3.71647 3.42622 3.42632C3.71643 3.13604 4.18868 3.1361 4.4788 3.42632L4.78421 3.73172C4.8745 3.82198 5.01629 3.83537 5.12177 3.76349C5.70384 3.36723 6.34902 3.0999 7.03937 2.96893C7.16485 2.94516 7.25567 2.8355 7.25567 2.70778V2.27595C7.25567 1.86555 7.58959 1.53163 7.99998 1.53163C8.41038 1.53163 8.7443 1.86555 8.7443 2.27595V2.70765C8.7443 2.8354 8.83515 2.94503 8.96059 2.9688C9.65095 3.09977 10.2962 3.36706 10.8782 3.76339C10.9838 3.83524 11.1256 3.82189 11.2158 3.73159L11.5212 3.42619C11.8114 3.136 12.2836 3.13597 12.5737 3.42622C12.864 3.71643 12.864 4.18865 12.5737 4.4788L12.2683 4.78421C12.1781 4.8745 12.1647 5.01625 12.2366 5.12177C12.6329 5.70385 12.9002 6.34902 13.0311 7.03937C13.0549 7.16485 13.1646 7.25567 13.2923 7.25567H13.7241C14.1345 7.25567 14.4684 7.58959 14.4684 7.99998C14.4684 8.41038 14.1345 8.7443 13.7241 8.7443H13.2923C13.1646 8.7443 13.055 8.83515 13.0312 8.96059C12.9002 9.65098 12.6329 10.2962 12.2366 10.8782C12.1648 10.9837 12.1781 11.1255 12.2684 11.2158L12.5738 11.5212C12.864 11.8114 12.864 12.2836 12.5738 12.5737C12.2836 12.864 11.8113 12.864 11.5212 12.5737L11.2159 12.2684C11.1645 12.2169 11.0964 12.1905 11.0278 12.1905C10.9759 12.1905 10.9237 12.2056 10.8783 12.2366C10.2962 12.6329 9.65095 12.9002 8.96063 13.0312C8.83515 13.0549 8.74433 13.1646 8.74433 13.2923V13.724C8.7443 14.1345 8.41038 14.4684 7.99998 14.4684Z" fill="#AAAAAA"/>
<path d="M5.11308 7.99986C5.11308 8.23894 5.30691 8.43277 5.546 8.43277H5.731C5.79089 8.74848 5.91496 9.04142 6.08928 9.29749L5.95839 9.42838C5.78933 9.59745 5.78933 9.87156 5.95839 10.0406C6.12745 10.2097 6.40156 10.2097 6.57063 10.0406L6.70151 9.90973C6.95758 10.0841 7.25053 10.2081 7.56624 10.268V10.453C7.56624 10.6921 7.76007 10.8859 7.99915 10.8859C8.23824 10.8859 8.43208 10.6921 8.43208 10.453V10.268C8.74779 10.2081 9.04074 10.0841 9.29681 9.90975L9.4277 10.0406C9.59676 10.2097 9.87087 10.2097 10.0399 10.0406C10.209 9.87157 10.209 9.59746 10.0399 9.4284L9.90904 9.29751C10.0834 9.04142 10.2074 8.74846 10.2673 8.43277H10.4523C10.6914 8.43277 10.8853 8.23894 10.8853 7.99986C10.8853 7.76077 10.6914 7.56694 10.4523 7.56694H10.2673C10.2074 7.25123 10.0834 6.95829 9.90906 6.70222L10.0399 6.57133C10.209 6.40226 10.209 6.12816 10.0399 5.95909C9.87088 5.79003 9.59677 5.79003 9.42771 5.95909L9.29682 6.08998C9.04074 5.91566 8.74779 5.79158 8.43208 5.73168V5.54668C8.43208 5.30759 8.23826 5.11377 7.99917 5.11377C7.76008 5.11377 7.56626 5.30759 7.56626 5.54668V5.73168C7.25055 5.79158 6.9576 5.91564 6.70153 6.08997L6.57064 5.95908C6.40158 5.79001 6.12747 5.79001 5.9584 5.95908C5.78934 6.12814 5.78934 6.40225 5.9584 6.57131L6.08929 6.7022C5.91497 6.95827 5.7909 7.25122 5.73101 7.56693H5.546C5.30691 7.56694 5.11308 7.76077 5.11308 7.99986Z" fill="#554646"/>
<path d="M7.38962 9.67724C8.31443 10.0138 9.34065 9.5353 9.67725 8.6105C10.0139 7.68569 9.53532 6.65947 8.61051 6.32287C7.68571 5.98627 6.65949 6.4648 6.32288 7.38961C5.98628 8.31441 6.46482 9.34063 7.38962 9.67724ZM7.46755 9.46312C6.6608 9.16949 6.24337 8.27428 6.537 7.46754C6.83063 6.6608 7.72583 6.24335 8.53258 6.53699C9.33933 6.83062 9.75677 7.72582 9.46314 8.53257C9.1695 9.33932 8.2743 9.75675 7.46755 9.46312ZM6.974 10.8191C7.25735 10.9223 7.57176 10.7757 7.67489 10.4923L7.70653 10.4054C7.97262 10.4382 8.23942 10.4266 8.50206 10.3705L8.54121 10.4545C8.66863 10.7278 8.99463 10.8464 9.26793 10.719C9.5412 10.5916 9.65985 10.2656 9.53244 9.99229L9.49328 9.90833C9.70501 9.74316 9.88546 9.54626 10.0313 9.32131L10.1183 9.35296C10.4016 9.45609 10.716 9.30948 10.8191 9.02613C10.9223 8.74278 10.7757 8.42837 10.4923 8.32524L10.4054 8.2936C10.4383 8.02751 10.4266 7.76071 10.3706 7.49807L10.4545 7.45893C10.7278 7.33149 10.8464 7.00549 10.719 6.7322C10.5916 6.45898 10.2656 6.3403 9.9923 6.4677L9.90834 6.50686C9.74317 6.29512 9.54627 6.11467 9.32132 5.96882L9.35297 5.88186C9.4561 5.59851 9.30949 5.2841 9.02614 5.18097C8.7428 5.07784 8.42839 5.22445 8.32526 5.5078L8.29362 5.59474C8.02753 5.56186 7.76071 5.57355 7.49809 5.62956L7.45894 5.5456C7.33147 5.27233 7.00546 5.15371 6.73222 5.28109C6.45895 5.40853 6.34029 5.73453 6.46771 6.00782L6.50687 6.09179C6.29516 6.25696 6.1147 6.45384 5.96885 6.67881L5.88189 6.64715C5.59854 6.54402 5.28413 6.69064 5.181 6.97398C5.07787 7.25733 5.22448 7.57174 5.50783 7.67487L5.59479 7.70652C5.56192 7.97261 5.57361 8.23941 5.62961 8.50203L5.54564 8.54119C5.27237 8.66862 5.15372 8.99462 5.28113 9.26791C5.40856 9.54116 5.73456 9.65983 6.00786 9.53242L6.09182 9.49326C6.25698 9.70499 6.45389 9.88544 6.67884 10.0313L6.6472 10.1182C6.54405 10.4016 6.69066 10.716 6.974 10.8191ZM7.05193 10.605C6.88665 10.5449 6.80112 10.3615 6.86128 10.1962L6.92456 10.0223C6.94328 9.97087 6.92276 9.91341 6.87573 9.88545C6.61689 9.7315 6.39625 9.52927 6.21993 9.28438C6.18795 9.23998 6.12892 9.22456 6.07933 9.24769L5.91156 9.32592C5.75214 9.40027 5.56196 9.33106 5.48766 9.17163C5.41333 9.01221 5.48254 8.82204 5.64195 8.74773L5.80971 8.6695C5.8593 8.64637 5.88545 8.59125 5.87198 8.53821C5.79771 8.2457 5.78464 7.94668 5.83307 7.64946C5.84188 7.59545 5.81102 7.5428 5.7596 7.52408L5.58574 7.4608C5.42046 7.40065 5.33493 7.21723 5.39509 7.05195C5.45524 6.88667 5.63867 6.80114 5.80394 6.8613L5.9778 6.92458C6.02924 6.9433 6.08672 6.92278 6.11467 6.87576C6.26863 6.61693 6.47085 6.39626 6.71576 6.21995C6.76016 6.18796 6.77557 6.12894 6.75245 6.07935L6.67422 5.91159C6.59988 5.75217 6.6691 5.562 6.82851 5.48769C6.98794 5.41332 7.17811 5.48257 7.25241 5.64197L7.33064 5.80973C7.35377 5.85932 7.40891 5.88549 7.46193 5.87201C7.75443 5.79774 8.05344 5.78465 8.35066 5.8331C8.40468 5.84192 8.45733 5.81107 8.47605 5.75964L8.53935 5.58572C8.5995 5.42045 8.78293 5.33491 8.9482 5.39507C9.11348 5.45523 9.19901 5.63865 9.13886 5.80393L9.07558 5.97778C9.05685 6.02923 9.07737 6.0867 9.12441 6.11466C9.38323 6.2686 9.60389 6.47082 9.78022 6.71575C9.81221 6.76016 9.87125 6.77556 9.92082 6.75242L10.0886 6.67419C10.248 6.59987 10.4382 6.66908 10.5125 6.82849C10.5868 6.98791 10.5176 7.17808 10.3582 7.25239L10.1904 7.33062C10.1408 7.35375 10.1147 7.40888 10.1281 7.46191C10.2024 7.75442 10.2155 8.05342 10.1671 8.35064C10.1582 8.40466 10.1891 8.45731 10.2405 8.47603L10.4144 8.53932C10.5797 8.59948 10.6652 8.7829 10.6051 8.94818C10.5449 9.11345 10.3615 9.19898 10.1962 9.13883L10.0223 9.07555C9.97089 9.05682 9.91343 9.07734 9.88546 9.12438C9.73152 9.38322 9.52931 9.60386 9.28439 9.78018C9.23999 9.81216 9.22458 9.87118 9.24771 9.92078L9.32593 10.0885C9.40027 10.248 9.33105 10.4381 9.17165 10.5124C9.01222 10.5868 8.82204 10.5176 8.74775 10.3582L8.66953 10.1904C8.65637 10.1622 8.63282 10.1415 8.60519 10.1315C8.58431 10.1239 8.56106 10.1223 8.53823 10.1281C8.24571 10.2024 7.94668 10.2155 7.64948 10.167C7.59546 10.1582 7.54281 10.1891 7.52409 10.2405L7.46081 10.4144C7.40063 10.5797 7.21721 10.6652 7.05193 10.605Z" fill="#CECECE"/>
</svg>
