<svg width="17" height="17" viewBox="0 0 17 17" fill="none" xmlns="http://www.w3.org/2000/svg">
<g clip-path="url(#clip0_364_1848)">
<path d="M13.7993 9.50671L12.11 13.3713C11.8982 13.8572 11.6988 14.206 11.512 14.4178C11.3276 14.6296 11.1083 14.7878 10.8542 14.8925C10.6 14.9947 10.291 15.0457 9.92724 15.0457C9.61578 15.0457 9.3255 15.0084 9.0564 14.9336V13.9394C9.27567 14.0291 9.54851 14.074 9.87492 14.074C10.0817 14.074 10.2487 14.0266 10.3757 13.932C10.5028 13.8348 10.6087 13.6678 10.6934 13.4311L8.80225 9.50671H10.0282L11.3737 12.5528H11.411L11.4783 12.3659L12.6071 9.50671H13.7993Z" fill="#4B4949"/>
<path d="M13.8555 7.31651H12.5324L11.2616 5.24965L9.99086 7.31651H8.75L10.5627 4.49841L8.86586 1.85223H10.1441L11.3214 3.81818L12.4763 1.85223H13.7247L12.0091 4.56194L13.8555 7.31651Z" fill="#4B4949"/>
<path fill-rule="evenodd" clip-rule="evenodd" d="M0.4021 15.813C4.46913 15.813 7.76611 12.516 7.76611 8.44897C7.76611 4.38194 4.46913 1.08496 0.4021 1.08496C-3.66493 1.08496 -6.96191 4.38194 -6.96191 8.44897C-6.96191 12.516 -3.66493 15.813 0.4021 15.813ZM0.4021 11.9365C2.32822 11.9365 3.88965 10.3751 3.88965 8.44897C3.88965 6.52285 2.32822 4.96143 0.4021 4.96143C-1.52402 4.96143 -3.08545 6.52285 -3.08545 8.44897C-3.08545 10.3751 -1.52402 11.9365 0.4021 11.9365Z" fill="#4B4949"/>
<circle cx="0.402267" cy="8.44896" r="2.1718" fill="#4B4949"/>
</g>
<defs>
<clipPath id="clip0_364_1848">
<rect width="16" height="16" fill="white" transform="translate(0.75 0.448975)"/>
</clipPath>
</defs>
</svg>
