<svg width="16" height="16" viewBox="0 0 16 16" fill="none" xmlns="http://www.w3.org/2000/svg">
<path d="M13.9944 3.91435C13.9974 3.9171 13.9992 3.921 13.9992 3.9251V14C13.9992 14.5523 13.5514 15 12.9992 15H3C2.44772 15 2 14.5523 2 14V2C2 1.44772 2.44772 1 3 1H10.409C10.6582 1 10.8984 1.09303 11.0826 1.26087L13.9944 3.91435V3.91435Z" fill="#1D1D1D"/>
<path opacity="0.1" d="M9.6179 8.54167C9.54776 8.01565 9.23534 7.70481 9.05362 7.56614C9.01378 7.53587 8.96595 7.50237 8.90856 7.46891C8.90696 7.46573 8.90378 7.46413 8.90218 7.46413C8.80175 7.40514 8.67423 7.34618 8.5244 7.30792C8.36341 7.26647 8.17692 7.24735 7.96651 7.27442C7.4405 7.34458 7.12966 7.657 6.99098 7.8387C6.95592 7.88333 6.91766 7.93913 6.87782 8.00766C6.75985 8.21649 6.64669 8.5305 6.69928 8.92581C6.7503 9.31313 6.9336 9.58411 7.09938 9.75468C7.15358 9.81206 7.2062 9.85669 7.25081 9.89335C7.25241 9.89335 7.25399 9.89495 7.25559 9.89653C7.25717 9.89814 7.26038 9.89972 7.26196 9.90132C7.44208 10.04 7.82466 10.2616 8.35067 10.193C8.87669 10.1245 9.18753 9.81048 9.3262 9.63032C9.39952 9.5331 9.49995 9.37688 9.5637 9.17126C9.56688 9.16009 9.57007 9.14892 9.57327 9.13618C9.62269 8.96888 9.64817 8.76804 9.6179 8.54167ZM8.50688 8.05233C8.5563 8.07622 8.59614 8.10333 8.62483 8.12565C8.71888 8.19897 8.88145 8.35997 8.91813 8.63413C8.92929 8.72819 8.9245 8.81268 8.90856 8.88759C8.87987 9.03102 8.81292 9.13784 8.76511 9.20001C8.69337 9.29405 8.53237 9.45663 8.25821 9.49331C7.98405 9.52999 7.78637 9.4136 7.69235 9.34188C7.6796 9.33233 7.66526 9.32116 7.65091 9.30681C7.59671 9.2606 7.53296 9.19044 7.48194 9.0964C7.44368 9.02308 7.4118 8.937 7.39905 8.83339C7.36557 8.58155 7.46122 8.39345 7.53296 8.29143C7.53932 8.28346 7.54411 8.27548 7.5505 8.26753C7.62223 8.17348 7.78481 8.01089 8.05739 7.97423C8.08608 7.97104 8.11319 7.96944 8.13868 7.96784C8.29011 7.96305 8.41444 8.0045 8.5053 8.05073C8.5053 8.05073 8.50688 8.05073 8.50688 8.05233Z" fill="#040000"/>
<path d="M9.4597 8.43484C9.39116 7.91998 9.08989 7.61076 8.90817 7.46888C8.90657 7.4657 8.90339 7.4641 8.90179 7.4641C8.9002 7.46091 8.8986 7.46091 8.897 7.45933C8.7886 7.37644 8.60688 7.26326 8.3662 7.20109C8.2052 7.15964 8.0187 7.14054 7.80831 7.16761C7.28229 7.23773 6.97145 7.55017 6.83278 7.73189C6.7993 7.77652 6.75946 7.8323 6.7196 7.90084C6.60165 8.10965 6.48848 8.42367 6.54108 8.81898C6.5921 9.20633 6.7754 9.4773 6.94118 9.64787C7.00016 9.71002 7.05755 9.75785 7.10378 9.79451C7.14362 9.82479 7.19303 9.85828 7.25042 9.89334C7.25202 9.89334 7.2536 9.89494 7.2552 9.89652C7.46243 10.0177 7.78442 10.1388 8.19247 10.0862C8.71849 10.0161 9.02933 9.70363 9.168 9.52352C9.24292 9.42627 9.34175 9.27006 9.4055 9.06445C9.4613 8.88914 9.49157 8.67713 9.4597 8.43484ZM7.53415 9.23504C7.47516 9.19041 7.38909 9.1091 7.32534 8.98955C7.2855 8.91623 7.2536 8.83016 7.24085 8.72656C7.20737 8.47469 7.30301 8.28662 7.37475 8.18459C7.38112 8.17664 7.38749 8.16865 7.39229 8.16068C7.46403 8.06664 7.62661 7.90406 7.90079 7.8674C7.92788 7.86422 7.95499 7.86261 7.98208 7.86101C8.21319 7.85465 8.38218 7.95506 8.46665 8.01883C8.4778 8.0284 8.49056 8.03795 8.50491 8.05072C8.50491 8.05072 8.50651 8.05072 8.50651 8.05232C8.60056 8.13521 8.72808 8.28824 8.75997 8.52734C8.7727 8.62139 8.76634 8.70588 8.752 8.78078C8.72171 8.92424 8.65477 9.03103 8.60854 9.09322C8.53522 9.18725 8.37423 9.34982 8.10005 9.38648C7.91036 9.41201 7.75733 9.36418 7.65054 9.30678C7.6011 9.28285 7.56284 9.25734 7.53415 9.23504Z" fill="#687079"/>
<path d="M9.16821 9.52307C9.02963 9.70368 8.7186 10.017 8.19278 10.0862C7.66695 10.1554 7.28545 9.93325 7.10484 9.79465C7.05731 9.75819 7.00055 9.70963 6.9415 9.64848L6.64941 10.1502C7.07568 10.5281 7.65731 10.726 8.26643 10.6458C9.05772 10.5417 9.6826 9.99618 9.92629 9.28971L9.40641 9.06458C9.34186 9.26987 9.24291 9.42571 9.16821 9.52307Z" fill="#F6F9FD"/>
<path d="M6.54163 8.81925C6.48954 8.42357 6.60247 8.10964 6.72059 7.90152L6.20018 7.67615C6.00938 8.03662 5.92471 8.45773 5.982 8.89291C6.04856 9.39865 6.2954 9.83644 6.64932 10.1502L6.94141 9.64849C6.7761 9.47738 6.59263 9.2067 6.54163 8.81925Z" fill="#F6F9FD"/>
<path d="M8.89639 7.45953C9.07699 7.59813 9.39031 7.90912 9.45951 8.43496C9.49141 8.67731 9.46135 8.88891 9.40617 9.0644L9.92606 9.28953C10.0257 9.00065 10.0617 8.68489 10.0191 8.36131C9.91473 7.56813 9.36686 6.94215 8.65795 6.69971L8.36621 7.2008C8.60713 7.26313 8.78799 7.37635 8.89639 7.45953Z" fill="#F6F9FD"/>
<path d="M6.2002 7.67614L6.72061 7.90151C6.75945 7.83305 6.79889 7.77602 6.83318 7.73131C6.97178 7.55071 7.28279 7.23739 7.80862 7.16819C8.01883 7.14051 8.2059 7.1595 8.36637 7.201L8.65811 6.6999C8.37059 6.60158 8.05664 6.56621 7.73496 6.60856C7.05524 6.69803 6.49822 7.11309 6.2002 7.67614Z" fill="#F6F9FD"/>
<g opacity="0.15">
<path d="M11.5337 8.16238C11.4716 7.68578 11.317 7.23466 11.0747 6.82341C10.8419 6.4265 10.5375 6.0806 10.1709 5.80005C9.94133 5.62474 9.69586 5.47808 9.43604 5.36329C9.27823 5.29476 9.11565 5.23579 8.94828 5.18954C8.48762 5.06363 8.0126 5.03015 7.536 5.0939C7.05779 5.15607 6.6083 5.31068 6.19705 5.55298C5.79855 5.78572 5.45424 6.09015 5.17371 6.45679C5.02705 6.64966 4.89953 6.8521 4.79594 7.06728C4.70029 7.26333 4.62218 7.46898 4.5632 7.68097C4.43728 8.14004 4.40381 8.61507 4.46756 9.09168C4.52972 9.56988 4.68435 10.0194 4.92504 10.4306C5.15935 10.8291 5.46381 11.1734 5.83043 11.454C5.84476 11.4651 5.85912 11.4763 5.87346 11.4843C6.23053 11.7521 6.62742 11.9465 7.05303 12.0645C7.51369 12.1904 7.98871 12.2239 8.46532 12.1601C8.94192 12.098 9.39303 11.9433 9.80428 11.7026C10.2028 11.4683 10.5471 11.1639 10.8276 10.7973C11.0396 10.5199 11.2086 10.2187 11.3329 9.89824C11.3728 9.79144 11.4078 9.68465 11.4381 9.57465C11.564 9.114 11.5975 8.639 11.5337 8.16238ZM11.1432 9.81697C10.7192 10.936 9.70702 11.7935 8.43979 11.9609C7.52961 12.0805 6.65609 11.8238 5.97545 11.309C5.28207 10.7845 4.78951 9.99391 4.66677 9.06619C4.57752 8.38556 4.69865 7.72406 4.9824 7.14861C5.46219 6.17148 6.40424 5.4462 7.56149 5.2932C8.18633 5.21031 8.79364 5.30597 9.33243 5.54187C10.3829 5.99615 11.1735 6.97488 11.3345 8.18791C11.4094 8.75855 11.3361 9.31484 11.1432 9.81697Z" fill="#F6F9FD"/>
</g>
<path d="M8.26647 10.6458C7.65735 10.726 7.07573 10.528 6.64945 10.1501L5.14648 12.7317C6.13276 13.418 7.36803 13.753 8.65319 13.5838C10.5151 13.3387 12.0021 12.0986 12.6495 10.469L9.92635 9.28967C9.68264 9.99614 9.05776 10.5416 8.26647 10.6458Z" fill="#F6F9FD"/>
<path d="M6.64985 10.1501L6.2944 10.7606L6.2689 10.8052L5.9756 11.3089L5.87358 11.4842L5.17382 12.6861L5.14671 12.7323C4.5904 12.3466 4.1154 11.8477 3.75196 11.2642C3.38854 10.6793 3.13987 10.0082 3.04422 9.27971C2.91352 8.29303 3.08088 7.33504 3.4778 6.49658L4.79604 7.06723L4.98255 7.14852L5.51335 7.37807L5.55958 7.39877L6.20036 7.67613C6.00907 8.03639 5.9246 8.45719 5.98198 8.89239C6.04892 9.3993 6.29599 9.83606 6.64985 10.1501Z" fill="#C6D1D5"/>
<path d="M12.6496 10.4689L11.3329 9.89828L11.1432 9.81699L10.6124 9.58744L10.5662 9.56673L9.92543 9.28937C10.0259 9.00086 10.0625 8.68523 10.0195 8.36166C9.91428 7.56785 9.36754 6.94298 8.6582 6.69911L9.01365 6.08861L9.03916 6.04556L9.33246 5.54187L9.43608 5.36331L10.1613 4.11841C10.3781 4.22202 10.5854 4.33997 10.783 4.47388C11.3234 4.83571 11.7904 5.30118 12.1554 5.8463C12.5699 6.46478 12.8536 7.18527 12.9572 7.97431C13.072 8.85103 12.954 9.70222 12.6496 10.4689Z" fill="#C6D1D5"/>
<path d="M10.1612 4.11838L9.43593 5.36329L9.33231 5.54184L9.03901 6.04553L9.0135 6.08858L8.65805 6.69909C8.37114 6.60184 8.05712 6.56678 7.73512 6.60823C7.0545 6.69751 6.49819 7.11352 6.2001 7.6762L5.55932 7.39883L5.51309 7.37813L4.98229 7.14858L4.79578 7.06729L3.47754 6.49665C4.17891 5.01102 5.59756 3.90158 7.34778 3.67047C8.34721 3.53975 9.31637 3.71192 10.1612 4.11838Z" fill="#F6F9FD"/>
<g opacity="0.2">
<path d="M10.7593 8.2644C10.6637 7.52637 10.2843 6.87123 9.69452 6.41855C9.49047 6.26234 9.27051 6.13801 9.03938 6.04554C8.60104 5.86703 8.12123 5.80484 7.63824 5.86861C6.90022 5.96426 6.2451 6.34365 5.7924 6.93342C5.684 7.07367 5.59156 7.22352 5.51346 7.37814C5.2632 7.87227 5.16914 8.42856 5.24248 8.98965C5.33652 9.71174 5.70156 10.3541 6.26902 10.8052C6.28176 10.8148 6.29453 10.8259 6.30728 10.8355C6.89707 11.2882 7.62711 11.4827 8.36354 11.387C9.10157 11.2898 9.7567 10.9104 10.2094 10.3206C10.3831 10.0943 10.5186 9.84723 10.6127 9.58739C10.7673 9.16979 10.8199 8.71867 10.7593 8.2644ZM10.5664 9.5667C10.4724 9.82332 10.3385 10.0672 10.1679 10.2904C9.72479 10.869 9.0808 11.2404 8.35713 11.336C7.63346 11.4317 6.91615 11.2388 6.33754 10.7957C6.32318 10.7845 6.30885 10.7733 6.29449 10.7606C5.73978 10.3191 5.38431 9.68944 5.29187 8.98328C5.21855 8.43174 5.3142 7.88502 5.55967 7.39883C5.63617 7.2474 5.72703 7.10076 5.83225 6.96367C6.27697 6.38504 6.92094 6.01365 7.64463 5.91799C8.11645 5.85584 8.58508 5.9164 9.01387 6.08855C9.2434 6.18101 9.46178 6.30533 9.66422 6.45996C10.2428 6.90308 10.6142 7.54707 10.7099 8.27072C10.7689 8.71549 10.7179 9.15703 10.5664 9.5667Z" fill="#F6F9FD"/>
</g>
<path fill-rule="evenodd" clip-rule="evenodd" d="M8.00001 13.1276C10.4853 13.1276 12.5 11.1129 12.5 8.62757C12.5 6.14228 10.4853 4.12756 8.00001 4.12756C5.51472 4.12756 3.5 6.14228 3.5 8.62757C3.5 11.1129 5.51472 13.1276 8.00001 13.1276ZM8.00001 13.6276C10.7614 13.6276 13 11.389 13 8.62757C13 5.86614 10.7614 3.62756 8.00001 3.62756C5.23858 3.62756 3 5.86614 3 8.62757C3 11.389 5.23858 13.6276 8.00001 13.6276Z" fill="#EAEAEA"/>
<path d="M13.8002 3.74038C13.8677 3.8019 13.8242 3.91429 13.7328 3.91429H10.893C10.8377 3.91429 10.793 3.86952 10.793 3.81429V1.22642C10.793 1.13955 10.8961 1.09399 10.9603 1.1525L13.8002 3.74038Z" fill="white" fill-opacity="0.7"/>
</svg>
