<svg width="16" height="16" viewBox="0 0 16 16" fill="none" xmlns="http://www.w3.org/2000/svg">
<path d="M3.83621 3.43565C3.4784 3.09406 3.47605 2.51757 3.87863 2.23009C4.55359 1.7481 5.32324 1.39497 6.14545 1.1936C7.26786 0.918719 8.44702 0.936764 9.55963 1.24585C10.6722 1.55494 11.6774 2.14371 12.4701 2.95062C13.2628 3.75752 13.8138 4.75292 14.0657 5.83273C14.3175 6.91255 14.2608 8.03711 13.9015 9.08885C13.5423 10.1406 12.8937 11.0809 12.0235 11.8114C11.1533 12.5419 10.0935 13.0358 8.95498 13.2415C8.10601 13.3948 7.23649 13.3837 6.39738 13.2121C5.92661 13.1158 5.69216 12.609 5.86251 12.1597V12.1597C6.02585 11.7289 6.50209 11.5141 6.95675 11.5888C7.50696 11.6792 8.07189 11.6755 8.62481 11.5756C9.45073 11.4264 10.2195 11.0681 10.8507 10.5382C11.482 10.0082 11.9525 9.32615 12.2131 8.56321C12.4737 7.80026 12.5148 6.98448 12.3322 6.20117C12.1495 5.41786 11.7498 4.69579 11.1747 4.11045C10.5997 3.52511 9.87053 3.098 9.06343 2.87378C8.25633 2.64957 7.40095 2.63648 6.58674 2.83588C6.04611 2.96829 5.53681 3.19114 5.08159 3.49208C4.69512 3.74756 4.17131 3.75556 3.83621 3.43565V3.43565Z" fill="#28EA3C"/>
<path d="M2.60076 11.4762C2.43367 11.2825 2.51939 10.9738 2.77211 10.8593L7.98217 8.49757C8.29419 8.35613 8.61338 8.60717 8.5252 8.92465L6.75979 15.2809C6.67161 15.5984 6.2517 15.71 6.04541 15.4707L2.60076 11.4762Z" fill="#28EA3C"/>
</svg>
