<svg width="16" height="16" viewBox="0 0 16 16" fill="none" xmlns="http://www.w3.org/2000/svg">
<path d="M7.06981 2.03707L3.94148 6.61083C3.81963 6.81479 3.7494 7.04541 3.73687 7.28267C3.72434 7.51992 3.7699 7.75666 3.86959 7.97232C3.96928 8.18798 4.1201 8.37606 4.30895 8.52023C4.49779 8.66439 4.71897 8.7603 4.95328 8.79963L6.60521 8.79963L6.61553 13.0859C6.61668 13.4717 6.77042 13.8413 7.04318 14.114C7.31594 14.3868 7.68555 14.5405 8.07129 14.5417C8.45702 14.5405 8.82664 14.3868 9.09939 14.114C9.37215 13.8413 9.5259 13.4717 9.52704 13.0859L9.53737 8.79963L11.1893 8.79963C11.4236 8.7603 11.6448 8.6644 11.8336 8.52023C12.0225 8.37606 12.1733 8.18798 12.273 7.97232C12.3727 7.75666 12.4182 7.51993 12.4057 7.28267C12.3932 7.04541 12.3229 6.81479 12.2011 6.61083L9.07277 2.03707C8.96386 1.87084 8.81529 1.73434 8.64045 1.63987C8.46562 1.5454 8.27001 1.49593 8.07129 1.49593C7.87256 1.49593 7.67696 1.5454 7.50213 1.63987C7.32729 1.73434 7.17872 1.87084 7.06981 2.03707Z" fill="#28EA3C"/>
</svg>
