<svg width="16" height="16" viewBox="0 0 16 16" fill="none" xmlns="http://www.w3.org/2000/svg">
<g clip-path="url(#clip0_312_1696)">
<path d="M6.21545 9.35929H9.40332C9.40332 11.8402 9.40332 13.1833 9.40332 15.6642H6.21545V9.35929Z" fill="#CD3D3C"/>
<path fill-rule="evenodd" clip-rule="evenodd" d="M5.10831 2.11668C5.15579 2.01122 5.56793 1.71061 6.02323 1.4491C8.23285 0.179627 11.133 1.75727 11.133 4.22906C11.133 4.53898 11.256 4.86926 11.4092 4.96326C11.6703 5.12416 11.7372 5.38553 11.5861 5.8504C11.4739 6.19727 11.2409 6.65757 10.8784 7.27417C10.4338 8.02711 10.1447 8.71627 10.2332 8.80542C10.3238 8.89497 10.8805 8.9682 11.4739 8.9682C12.76 8.9682 13.4893 9.3175 13.9338 10.1442C14.305 10.8405 14.9998 14.2506 14.9998 15.3899V16.1495H1.00008L0.999806 13.9541C1.28464 10.2652 2.17582 8.9682 4.42644 8.9682C5.07595 8.9682 5.60893 8.84574 5.60893 8.69604C5.60893 8.54634 5.23563 7.81807 4.78032 7.07726C3.83951 5.54871 3.79204 5.30123 4.35092 4.83757C4.4847 4.72523 4.5667 4.60992 4.59691 4.46926C4.63143 4.30122 4.59475 4.09703 4.48902 3.81894C4.09198 2.77482 4.15671 1.97669 4.62496 2.1562C4.8429 2.23981 5.05868 2.22188 5.10831 2.11668ZM10.0282 5.81412C10.0282 4.86522 9.90085 4.50028 9.49302 4.28233L9.43044 4.24835C9.13914 4.09245 8.99025 4.01274 8.8543 4.02973C8.71189 4.04754 8.58026 4.17188 8.31485 4.42637L8.25874 4.47991C7.85523 4.86454 7.7236 4.88639 7.61355 4.58672C7.49703 4.26885 7.43445 4.26885 7.2122 4.58672C7.02662 4.85052 6.90794 4.86872 6.81731 4.64728C6.7461 4.47344 6.44401 4.39481 6.14839 4.47236C5.1191 4.74114 5.69956 7.79757 6.86479 8.24424C8.55005 8.89132 10.0282 7.75698 10.0282 5.81412ZM8.90743 12.7951L8.69491 11.9096L8.48238 11.0595L8.26986 9.99687L8.83659 9.78434V9.49559H6.78218V9.78434L7.34892 9.99687L7.13639 11.0595L6.92387 11.9096L6.71134 12.7951L6.21545 14.1765L7.13639 14.9912L7.84481 15.5933L8.55322 14.9912L9.40332 14.1765L8.90743 12.7951Z" fill="white"/>
<path fill-rule="evenodd" clip-rule="evenodd" d="M0.999806 13.9541L1.00008 16.1495H14.9998V15.3899C14.9998 14.2506 14.305 10.8405 13.9338 10.1442C13.4893 9.3175 12.76 8.9682 11.4739 8.9682C10.8805 8.9682 10.3238 8.89497 10.2332 8.80542C10.1447 8.71627 10.4338 8.02711 10.8784 7.27417C11.2409 6.65757 11.4739 6.19727 11.5861 5.8504C11.7372 5.38553 11.6703 5.12416 11.4092 4.96326C11.256 4.86926 11.133 4.53898 11.133 4.22906C11.133 1.75727 8.23285 0.179627 6.02323 1.4491C5.56793 1.71061 5.15579 2.01122 5.10831 2.11668C5.05868 2.22188 4.8429 2.23981 4.62496 2.1562C4.15671 1.97669 4.09198 2.77482 4.48902 3.81894C4.59475 4.09703 4.63143 4.30122 4.59691 4.46926C4.5667 4.60992 4.4847 4.72523 4.35092 4.83757C3.79204 5.30123 3.83951 5.54871 4.78032 7.07726C5.23563 7.81807 5.60893 8.54634 5.60893 8.69604C5.60893 8.84574 5.07595 8.9682 4.42644 8.9682C2.17582 8.9682 1.28464 10.2652 0.999806 13.9541ZM5.9236 1.27569C5.69052 1.40956 5.46746 1.55399 5.29496 1.67984C5.20896 1.74258 5.1329 1.80261 5.07361 1.85587C5.04404 1.88244 5.01636 1.90935 4.99298 1.93571C4.97752 1.95313 4.95853 1.97623 4.94224 2.0035C4.93568 2.00512 4.9262 2.00686 4.91337 2.00792C4.86102 2.01222 4.78278 2.00254 4.6966 1.96947C4.61497 1.93818 4.52752 1.92254 4.43952 1.93538C4.34886 1.94861 4.2705 1.99027 4.20872 2.05222C4.09278 2.16849 4.04703 2.34243 4.03317 2.51246C4.00466 2.86197 4.09844 3.3545 4.30208 3.89003C4.40393 4.15792 4.42364 4.31747 4.40118 4.42812C4.38312 4.51119 4.33435 4.59022 4.22273 4.68405C4.07936 4.80303 3.95182 4.92603 3.87317 5.07461C3.78926 5.23311 3.7698 5.40273 3.80681 5.59575C3.84222 5.78042 3.92989 5.98997 4.06041 6.24016C4.19199 6.49239 4.37464 6.79971 4.61 7.1821C4.83538 7.54882 5.03987 7.91149 5.18735 8.19948C5.26124 8.34378 5.31958 8.46691 5.35892 8.56116C5.37165 8.59168 5.38193 8.61806 5.38991 8.64032C5.35054 8.65714 5.29313 8.6757 5.21641 8.69335C5.02047 8.73842 4.74057 8.7682 4.42644 8.7682C3.2568 8.7682 2.39889 9.10926 1.81112 9.96453C1.23909 10.7969 0.943109 12.0905 0.800399 13.9387L0.799805 13.9464L0.800104 16.3495H15.1998V15.3899C15.1998 14.7977 15.022 13.6424 14.802 12.5611C14.6913 12.0172 14.5688 11.4858 14.4501 11.0453C14.3333 10.6119 14.2153 10.2471 14.1103 10.0501C13.8703 9.60371 13.5469 9.27674 13.1057 9.06576C12.6698 8.85727 12.1327 8.7682 11.4739 8.7682C11.1845 8.7682 10.9058 8.75029 10.691 8.72209C10.5832 8.70793 10.4956 8.69171 10.4325 8.67517L10.4302 8.67456C10.4488 8.60099 10.4854 8.49669 10.5402 8.36629C10.6527 8.09899 10.8317 7.74663 11.0506 7.37584C11.4138 6.75804 11.6569 6.28143 11.7763 5.91221C11.8565 5.66547 11.8889 5.44457 11.8478 5.2513C11.8044 5.04663 11.6842 4.89779 11.5141 4.793C11.4953 4.78145 11.446 4.72716 11.4009 4.60691C11.3592 4.49585 11.333 4.35956 11.333 4.22906C11.333 1.58956 8.25426 -0.0633117 5.9236 1.27569ZM9.39876 4.45873L9.39757 4.45809L9.33607 4.42468C9.18702 4.34491 9.08699 4.29166 9.00801 4.25916C8.93093 4.22744 8.89743 4.2259 8.87911 4.22819C8.86005 4.23057 8.82574 4.24108 8.75334 4.29728C8.67957 4.35455 8.58881 4.44077 8.45327 4.57073L8.39682 4.6246C8.29392 4.72268 8.20238 4.80348 8.12075 4.8628C8.04276 4.91947 7.95422 4.97143 7.85878 4.98724C7.74504 5.00608 7.6413 4.97056 7.5627 4.89205C7.49676 4.82618 7.4558 4.73732 7.42581 4.65567C7.42386 4.65034 7.4219 4.64505 7.42001 4.64001C7.40652 4.6583 7.39194 4.67869 7.3761 4.70133C7.32562 4.77309 7.27358 4.83712 7.21994 4.88619C7.16876 4.933 7.09817 4.98305 7.00947 4.99666C6.90699 5.01237 6.81797 4.97438 6.75374 4.91366C6.69693 4.85995 6.65936 4.78935 6.63224 4.72309C6.6306 4.71908 6.60854 4.6831 6.51648 4.65906C6.43116 4.63678 6.31673 4.63497 6.19913 4.66581C6.05086 4.70453 5.92367 4.85155 5.85766 5.15483C5.79309 5.45148 5.8022 5.84393 5.88013 6.25428C5.95774 6.66293 6.10066 7.07364 6.29014 7.40496C6.48236 7.74107 6.70742 7.96973 6.93637 8.0575C7.72072 8.35866 8.43713 8.24074 8.95663 7.84179C9.47889 7.44072 9.82817 6.73517 9.82817 5.81412C9.82817 5.34253 9.79564 5.04313 9.72471 4.84006C9.65917 4.6524 9.56037 4.54509 9.39876 4.45873ZM6.81731 4.64728C6.90794 4.86872 7.02662 4.85052 7.2122 4.58672C7.43445 4.26885 7.49703 4.26885 7.61355 4.58672C7.7236 4.88639 7.85523 4.86454 8.25874 4.47991L8.31485 4.42637C8.58026 4.17188 8.71189 4.04754 8.8543 4.02973C8.99025 4.01274 9.13914 4.09245 9.43044 4.24835L9.49302 4.28233C9.90085 4.50028 10.0282 4.86522 10.0282 5.81412C10.0282 7.75698 8.55005 8.89132 6.86479 8.24424C5.69956 7.79757 5.1191 4.74114 6.14839 4.47236C6.44401 4.39481 6.7461 4.47344 6.81731 4.64728Z" fill="#212121"/>
</g>
<defs>
<clipPath id="clip0_312_1696">
<rect width="16" height="16" fill="white"/>
</clipPath>
</defs>
</svg>
