<svg width="16" height="16" viewBox="0 0 16 16" fill="none" xmlns="http://www.w3.org/2000/svg">
<g clip-path="url(#clip0_312_1698)">
<path d="M13.773 12.7379H15.3978C15.3978 14.0126 15.3978 14.7028 15.3978 15.9775H13.773V12.7379Z" fill="#CD3D3C"/>
<path fill-rule="evenodd" clip-rule="evenodd" d="M13.2087 9.01653C13.2329 8.96234 13.443 8.80788 13.675 8.67351C14.8012 8.02123 16.2793 8.83185 16.2793 10.1019C16.2793 10.2611 16.342 10.4308 16.4201 10.4791C16.5532 10.5618 16.5873 10.6961 16.5103 10.935C16.4531 11.1132 16.3343 11.3497 16.1495 11.6665C15.923 12.0534 15.7756 12.4075 15.8207 12.4533C15.8669 12.4993 16.1506 12.537 16.4531 12.537C17.1086 12.537 17.4803 12.7164 17.7068 13.1412C17.896 13.499 18.2501 15.2511 18.2501 15.8365V16.2268H11.1149L11.1147 15.0988C11.2599 13.2034 11.7141 12.537 12.8612 12.537C13.1922 12.537 13.4639 12.474 13.4639 12.3971C13.4639 12.3202 13.2736 11.946 13.0416 11.5654C12.5621 10.78 12.5379 10.6528 12.8227 10.4146C12.8909 10.3568 12.9327 10.2976 12.9481 10.2253C12.9657 10.139 12.947 10.0341 12.8931 9.89117C12.6907 9.35469 12.7237 8.9446 12.9624 9.03683C13.0735 9.07979 13.1834 9.07058 13.2087 9.01653ZM15.7162 10.9163C15.7162 10.4288 15.6513 10.2413 15.4435 10.1293L15.4116 10.1118C15.2631 10.0317 15.1872 9.99075 15.118 9.99948C15.0454 10.0086 14.9783 10.0725 14.843 10.2033L14.8144 10.2308C14.6088 10.4284 14.5417 10.4396 14.4856 10.2857C14.4262 10.1223 14.3943 10.1223 14.281 10.2857C14.1864 10.4212 14.1259 10.4306 14.0798 10.3168C14.0435 10.2275 13.8895 10.1871 13.7388 10.2269C13.2142 10.365 13.5101 11.9355 14.104 12.165C14.9629 12.4975 15.7162 11.9146 15.7162 10.9163ZM15.145 14.5033L15.0367 14.0483L14.9284 13.6115L14.8201 13.0655L15.1089 12.9563V12.8079H14.0619V12.9563L14.3507 13.0655L14.2424 13.6115L14.1341 14.0483L14.0257 14.5033L13.773 15.2131L14.2424 15.6317L14.6034 15.9411L14.9645 15.6317L15.3978 15.2131L15.145 14.5033Z" fill="white"/>
<path fill-rule="evenodd" clip-rule="evenodd" d="M11.2138 15.0276L11.214 16.1267H18.151V15.7464C18.151 15.176 17.8067 13.4689 17.6228 13.1203C17.4026 12.7064 17.0412 12.5316 16.4039 12.5316C16.1099 12.5316 15.834 12.4949 15.7891 12.4501C15.7453 12.4054 15.8885 12.0604 16.1088 11.6835C16.2884 11.3748 16.4039 11.1444 16.4595 10.9707C16.5344 10.738 16.5012 10.6071 16.3718 10.5266C16.2959 10.4795 16.235 10.3142 16.235 10.159C16.235 8.92159 14.7979 8.13178 13.703 8.76732C13.4774 8.89823 13.2732 9.04872 13.2497 9.10152C13.2251 9.15419 13.1182 9.16317 13.0102 9.12131C12.7781 9.03144 12.7461 9.431 12.9428 9.95372C12.9952 10.0929 13.0134 10.1952 12.9963 10.2793C12.9813 10.3497 12.9407 10.4074 12.8744 10.4637C12.5974 10.6958 12.621 10.8197 13.0871 11.5849C13.3128 11.9558 13.4977 12.3204 13.4977 12.3953C13.4977 12.4703 13.2336 12.5316 12.9118 12.5316C11.7966 12.5316 11.355 13.1809 11.2138 15.0276ZM13.6537 8.6805C13.5382 8.74752 13.4276 8.81982 13.3422 8.88283C13.2995 8.91424 13.2619 8.94429 13.2325 8.97096C13.2178 8.98426 13.2041 8.99773 13.1925 9.01092C13.1849 9.01964 13.1755 9.03121 13.1674 9.04486C13.1641 9.04567 13.1594 9.04654 13.1531 9.04707C13.1271 9.04923 13.0884 9.04438 13.0457 9.02782C13.0052 9.01216 12.9619 9.00433 12.9183 9.01076C12.8733 9.01738 12.8345 9.03824 12.8039 9.06925C12.7465 9.12746 12.7238 9.21454 12.7169 9.29966C12.7028 9.47463 12.7493 9.72121 12.8502 9.9893C12.9006 10.1234 12.9104 10.2033 12.8993 10.2587C12.8903 10.3003 12.8662 10.3398 12.8108 10.3868C12.7398 10.4464 12.6766 10.508 12.6376 10.5823C12.5961 10.6617 12.5864 10.7466 12.6048 10.8432C12.6223 10.9357 12.6657 11.0406 12.7304 11.1658C12.7956 11.2921 12.8861 11.446 13.0027 11.6374C13.1144 11.821 13.2158 12.0025 13.2888 12.1467C13.3254 12.219 13.3544 12.2806 13.3738 12.3278C13.3802 12.3431 13.3852 12.3563 13.3892 12.3674C13.3697 12.3758 13.3412 12.3851 13.3032 12.394C13.2061 12.4165 13.0674 12.4314 12.9118 12.4314C12.3322 12.4314 11.9071 12.6022 11.6159 13.0304C11.3324 13.4471 11.1858 14.0947 11.115 15.0199L11.1147 15.0238L11.1149 16.2268H18.2501V15.7464C18.2501 15.45 18.162 14.8716 18.053 14.3302C17.9982 14.0579 17.9374 13.7919 17.8786 13.5714C17.8208 13.3544 17.7623 13.1718 17.7103 13.0732C17.5913 12.8497 17.4311 12.686 17.2125 12.5804C16.9965 12.476 16.7304 12.4314 16.4039 12.4314C16.2605 12.4314 16.1224 12.4225 16.016 12.4084C15.9626 12.4013 15.9191 12.3931 15.8879 12.3849C15.8875 12.3848 15.8871 12.3847 15.8868 12.3846C15.896 12.3477 15.9141 12.2955 15.9413 12.2302C15.997 12.0964 16.0857 11.92 16.1941 11.7344C16.3741 11.4251 16.4946 11.1865 16.5538 11.0017C16.5935 10.8781 16.6095 10.7675 16.5892 10.6708C16.5677 10.5683 16.5081 10.4938 16.4238 10.4414C16.4145 10.4356 16.3901 10.4084 16.3677 10.3482C16.3471 10.2926 16.3341 10.2244 16.3341 10.159C16.3341 8.83763 14.8085 8.01016 13.6537 8.6805ZM15.8803 12.4208C15.8803 12.421 15.8803 12.4207 15.8803 12.4208ZM15.3756 10.274L15.375 10.2737L15.3446 10.257C15.3445 10.2569 15.3447 10.257 15.3446 10.257C15.2707 10.217 15.2212 10.1904 15.182 10.1741C15.1438 10.1582 15.1272 10.1574 15.1181 10.1586C15.1087 10.1598 15.0917 10.165 15.0558 10.1932C15.0193 10.2219 14.9743 10.265 14.9071 10.3301L14.8792 10.357C14.8282 10.4062 14.7828 10.4466 14.7424 10.4763C14.7037 10.5047 14.6599 10.5307 14.6126 10.5386C14.5562 10.548 14.5048 10.5302 14.4658 10.4909C14.4332 10.458 14.4129 10.4135 14.398 10.3726C14.3971 10.3699 14.3961 10.3673 14.3951 10.3648C14.3885 10.3739 14.3812 10.3841 14.3734 10.3955C14.3484 10.4314 14.3226 10.4634 14.296 10.488C14.2706 10.5114 14.2357 10.5365 14.1917 10.5433C14.1409 10.5512 14.0968 10.5322 14.065 10.5018C14.0369 10.4749 14.0182 10.4395 14.0048 10.4064C14.004 10.4043 13.9931 10.3863 13.9474 10.3743C13.9052 10.3631 13.8485 10.3622 13.7902 10.3777C13.7167 10.3971 13.6537 10.4707 13.621 10.6225C13.589 10.771 13.5935 10.9675 13.6321 11.1729C13.6706 11.3775 13.7414 11.5831 13.8353 11.749C13.9305 11.9172 14.042 12.0317 14.1555 12.0756C14.5441 12.2264 14.8991 12.1674 15.1566 11.9677C15.4153 11.7669 15.5884 11.4137 15.5884 10.9526C15.5884 10.7165 15.5723 10.5666 15.5372 10.4649C15.5047 10.371 15.4557 10.3172 15.3756 10.274ZM14.0965 10.3684C14.1414 10.4793 14.2002 10.4701 14.2922 10.3381C14.4023 10.179 14.4333 10.179 14.491 10.3381C14.5456 10.4881 14.6108 10.4772 14.8107 10.2846L14.8385 10.2578C14.9701 10.1304 15.0353 10.0682 15.1059 10.0592C15.1732 10.0507 15.247 10.0906 15.3912 10.1686L15.4223 10.1857C15.6244 10.2948 15.6875 10.4775 15.6875 10.9526C15.6875 11.9252 14.9551 12.4931 14.12 12.1691C13.5426 11.9455 13.255 10.4154 13.765 10.2808C13.9115 10.242 14.0612 10.2814 14.0965 10.3684Z" fill="#212121"/>
<path d="M0.347713 12.7379H1.97248C1.97248 14.0126 1.97248 14.7028 1.97248 15.9775H0.347713V12.7379Z" fill="#CD3D3C"/>
<path fill-rule="evenodd" clip-rule="evenodd" d="M-0.216562 9.01653C-0.192367 8.96234 0.0176909 8.80788 0.249745 8.67351C1.37592 8.02123 2.85403 8.83185 2.85403 10.1019C2.85403 10.2611 2.91672 10.4308 2.9948 10.4791C3.12788 10.5618 3.16197 10.6961 3.08498 10.935C3.0278 11.1132 2.90902 11.3497 2.72426 11.6665C2.4977 12.0534 2.35033 12.4075 2.39542 12.4533C2.44161 12.4993 2.72536 12.537 3.0278 12.537C3.68327 12.537 4.05499 12.7164 4.28155 13.1412C4.47071 13.499 4.82484 15.2511 4.82484 15.8365V16.2268H-2.31041L-2.31055 15.0988C-2.16538 13.2034 -1.71117 12.537 -0.564093 12.537C-0.233059 12.537 0.038587 12.474 0.038587 12.3971C0.038587 12.3202 -0.151675 11.946 -0.383729 11.5654C-0.863234 10.78 -0.887429 10.6528 -0.602586 10.4146C-0.534399 10.3568 -0.492607 10.2976 -0.47721 10.2253C-0.459614 10.139 -0.47831 10.0341 -0.5322 9.89117C-0.734559 9.35469 -0.701566 8.9446 -0.462913 9.03683C-0.351835 9.07979 -0.241857 9.07058 -0.216562 9.01653ZM2.29094 10.9163C2.29094 10.4288 2.22605 10.2413 2.01819 10.1293L1.9863 10.1118C1.83783 10.0317 1.76194 9.99075 1.69266 9.99948C1.62007 10.0086 1.55299 10.0725 1.41771 10.2033L1.38912 10.2308C1.18346 10.4284 1.11637 10.4396 1.06028 10.2857C1.0009 10.1223 0.969002 10.1223 0.855725 10.2857C0.761144 10.4212 0.700656 10.4306 0.654465 10.3168C0.618172 10.2275 0.464202 10.1871 0.313532 10.2269C-0.211064 10.365 0.0847776 11.9355 0.67866 12.165C1.53759 12.4975 2.29094 11.9146 2.29094 10.9163ZM1.71974 14.5033L1.61142 14.0483L1.5031 13.6115L1.39478 13.0655L1.68363 12.9563V12.8079H0.63656V12.9563L0.925407 13.0655L0.817089 13.6115L0.708772 14.0483L0.600454 14.5033L0.347713 15.2131L0.817089 15.6317L1.17815 15.9411L1.53921 15.6317L1.97248 15.2131L1.71974 14.5033Z" fill="white"/>
<path fill-rule="evenodd" clip-rule="evenodd" d="M-2.21144 15.0276L-2.21131 16.1267H4.72574V15.7464C4.72574 15.176 4.38144 13.4689 4.19754 13.1203C3.97727 12.7064 3.61587 12.5316 2.97861 12.5316C2.68457 12.5316 2.40871 12.4949 2.3638 12.4501C2.31996 12.4054 2.46324 12.0604 2.6835 11.6835C2.86313 11.3748 2.97861 11.1444 3.03421 10.9707C3.10906 10.738 3.07591 10.6071 2.94653 10.5266C2.87062 10.4795 2.80967 10.3142 2.80967 10.159C2.80967 8.92159 1.37262 8.13178 0.277729 8.76732C0.0521204 8.89823 -0.152102 9.04872 -0.175626 9.10152C-0.200218 9.15419 -0.307141 9.16317 -0.415133 9.12131C-0.647157 9.03144 -0.679234 9.431 -0.482495 9.95372C-0.430103 10.0929 -0.411926 10.1952 -0.429033 10.2793C-0.444003 10.3497 -0.484634 10.4074 -0.550926 10.4637C-0.827857 10.6958 -0.804334 10.8197 -0.338149 11.5849C-0.112541 11.9558 0.0724361 12.3204 0.0724361 12.3953C0.0724361 12.4703 -0.191664 12.5316 -0.513503 12.5316C-1.62871 12.5316 -2.07031 13.1809 -2.21144 15.0276ZM0.228359 8.6805C0.112865 8.74752 0.00233593 8.81982 -0.0831401 8.88283C-0.125752 8.91424 -0.163441 8.94429 -0.19282 8.97096C-0.207473 8.98426 -0.221188 8.99773 -0.232774 9.01092C-0.240433 9.01964 -0.249843 9.03121 -0.257918 9.04486C-0.261167 9.04567 -0.265863 9.04654 -0.272221 9.04707C-0.298161 9.04923 -0.336929 9.04438 -0.379634 9.02782C-0.420085 9.01216 -0.463414 9.00433 -0.507022 9.01076C-0.551944 9.01738 -0.590774 9.03824 -0.621384 9.06925C-0.678837 9.12746 -0.701504 9.21454 -0.708375 9.29966C-0.722498 9.47463 -0.676033 9.72121 -0.575126 9.9893C-0.524656 10.1234 -0.514891 10.2033 -0.526019 10.2587C-0.534967 10.3003 -0.559132 10.3398 -0.614445 10.3868C-0.685486 10.4464 -0.748682 10.508 -0.787654 10.5823C-0.829232 10.6617 -0.838874 10.7466 -0.820536 10.8432C-0.80299 10.9357 -0.75955 11.0406 -0.694875 11.1658C-0.629673 11.2921 -0.539169 11.446 -0.422546 11.6374C-0.310866 11.821 -0.20954 12.0025 -0.136463 12.1467C-0.0998467 12.219 -0.0709396 12.2806 -0.0514487 12.3278C-0.0451361 12.3431 -0.0400459 12.3563 -0.0360901 12.3674C-0.0555973 12.3758 -0.0840446 12.3851 -0.12206 12.394C-0.21915 12.4165 -0.357849 12.4314 -0.513503 12.4314C-1.09307 12.4314 -1.51818 12.6022 -1.80942 13.0304C-2.09287 13.4471 -2.23954 14.0947 -2.31025 15.0199L-2.31055 15.0238L-2.3104 16.2268H4.82484V15.7464C4.82484 15.45 4.73671 14.8716 4.62771 14.3302C4.57289 14.0579 4.51215 13.7919 4.45334 13.5714C4.39547 13.3544 4.337 13.1718 4.28499 13.0732C4.16605 12.8497 4.0058 12.686 3.78721 12.5804C3.5712 12.476 3.30507 12.4314 2.97861 12.4314C2.83521 12.4314 2.6971 12.4225 2.59068 12.4084C2.53726 12.4013 2.49385 12.3931 2.4626 12.3849C2.46222 12.3848 2.46184 12.3847 2.46146 12.3846C2.47066 12.3477 2.48877 12.2955 2.51596 12.2302C2.57169 12.0964 2.66038 11.92 2.76884 11.7344C2.94882 11.4251 3.06926 11.1865 3.12846 11.0017C3.16819 10.8781 3.18423 10.7675 3.1639 10.6708C3.14237 10.5683 3.08279 10.4938 2.99852 10.4414C2.9892 10.4356 2.96477 10.4084 2.94243 10.3482C2.92179 10.2926 2.90878 10.2244 2.90878 10.159C2.90878 8.83763 1.38323 8.01016 0.228359 8.6805ZM2.45502 12.4208C2.45501 12.421 2.45502 12.4207 2.45502 12.4208ZM1.95035 10.274L1.94976 10.2737L1.91928 10.257C1.9192 10.2569 1.91937 10.257 1.91928 10.257C1.84543 10.217 1.79586 10.1904 1.75673 10.1741C1.71853 10.1582 1.70193 10.1574 1.69285 10.1586C1.68341 10.1598 1.66641 10.165 1.63053 10.1932C1.59398 10.2219 1.549 10.265 1.48184 10.3301L1.45387 10.357C1.40288 10.4062 1.35752 10.4466 1.31708 10.4763C1.27843 10.5047 1.23456 10.5307 1.18727 10.5386C1.13091 10.548 1.0795 10.5302 1.04056 10.4909C1.00788 10.458 0.987584 10.4135 0.972725 10.3726C0.971757 10.3699 0.970786 10.3673 0.969852 10.3648C0.963166 10.3739 0.955939 10.3841 0.948094 10.3955C0.923079 10.4314 0.897294 10.4634 0.870712 10.488C0.845352 10.5114 0.810373 10.5365 0.766421 10.5433C0.715642 10.5512 0.67153 10.5322 0.639706 10.5018C0.611557 10.4749 0.592938 10.4395 0.579499 10.4064C0.578685 10.4043 0.567759 10.3863 0.522138 10.3743C0.479863 10.3631 0.423161 10.3622 0.36489 10.3777C0.291419 10.3971 0.228396 10.4707 0.195684 10.6225C0.163688 10.771 0.168202 10.9675 0.20682 11.1729C0.245278 11.3775 0.316094 11.5831 0.409984 11.749C0.505233 11.9172 0.616751 12.0317 0.730202 12.0756C1.11886 12.2264 1.47385 12.1674 1.73127 11.9677C1.99005 11.7669 2.16312 11.4137 2.16312 10.9526C2.16312 10.7165 2.147 10.5666 2.11186 10.4649C2.07938 10.371 2.03043 10.3172 1.95035 10.274ZM0.671206 10.3684C0.716114 10.4793 0.774922 10.4701 0.866876 10.3381C0.977007 10.179 1.00801 10.179 1.06575 10.3381C1.12028 10.4881 1.18551 10.4772 1.38545 10.2846L1.41325 10.2578C1.54477 10.1304 1.60999 10.0682 1.68056 10.0592C1.74791 10.0507 1.82167 10.0906 1.96594 10.1686L1.99705 10.1857C2.19914 10.2948 2.26223 10.4775 2.26223 10.9526C2.26223 11.9252 1.5298 12.4931 0.694729 12.1691C0.117344 11.9455 -0.17028 10.4154 0.339744 10.2808C0.486229 10.242 0.635921 10.2814 0.671206 10.3684Z" fill="#212121"/>
<path d="M6.59801 10.8483H9.10276C9.10276 12.8134 9.10276 13.8773 9.10276 15.8424H6.59801V10.8483Z" fill="#CD3D3C"/>
<path fill-rule="evenodd" clip-rule="evenodd" d="M5.72811 5.11135C5.76541 5.02781 6.08924 4.78969 6.44698 4.58255C8.18311 3.57699 10.4618 4.82665 10.4618 6.78458C10.4618 7.03007 10.5584 7.29169 10.6788 7.36614C10.8839 7.49359 10.9365 7.70062 10.8178 8.06885C10.7297 8.34361 10.5465 8.70821 10.2617 9.19663C9.91245 9.79304 9.68527 10.3389 9.75478 10.4095C9.82599 10.4805 10.2634 10.5385 10.7297 10.5385C11.7401 10.5385 12.3132 10.8152 12.6625 11.47C12.9541 12.0216 13.5 14.7227 13.5 15.6252V16.2268H2.50022L2.5 14.4879C2.7238 11.5658 3.42401 10.5385 5.19235 10.5385C5.70268 10.5385 6.12145 10.4415 6.12145 10.3229C6.12145 10.2043 5.82814 9.62746 5.47041 9.04066C4.7312 7.82988 4.6939 7.63385 5.13301 7.26658C5.23813 7.1776 5.30256 7.08626 5.32629 6.97484C5.35342 6.84173 5.3246 6.67999 5.24152 6.45972C4.92956 5.63266 4.98043 5.00046 5.34834 5.14265C5.51957 5.20888 5.68912 5.19467 5.72811 5.11135ZM9.59371 8.04012C9.59371 7.28848 9.49368 6.99941 9.17324 6.82678L9.12407 6.79985C8.89519 6.67636 8.7782 6.61323 8.67139 6.62669C8.55949 6.64079 8.45607 6.73928 8.24753 6.94087L8.20345 6.98328C7.8864 7.28795 7.78298 7.30525 7.69652 7.06788C7.60496 6.81609 7.55579 6.81609 7.38116 7.06788C7.23536 7.27684 7.14211 7.29126 7.0709 7.11585C7.01495 6.97815 6.77759 6.91587 6.54531 6.97729C5.73659 7.1902 6.19266 9.61122 7.1082 9.96503C8.43234 10.4776 9.59371 9.57907 9.59371 8.04012ZM8.71313 13.5698L8.54615 12.8684L8.37917 12.195L8.21218 11.3533L8.65747 11.185V10.9562H7.0433V11.185L7.48859 11.3533L7.3216 12.195L7.15462 12.8684L6.98764 13.5698L6.59801 14.664L7.3216 15.3093L7.87822 15.7863L8.43483 15.3093L9.10276 14.664L8.71313 13.5698Z" fill="white"/>
<path fill-rule="evenodd" clip-rule="evenodd" d="M2.65278 14.3782L2.65299 16.0725H13.3472V15.4862C13.3472 14.6069 12.8165 11.9752 12.5329 11.4378C12.1934 10.7998 11.6362 10.5302 10.6538 10.5302C10.2005 10.5302 9.77527 10.4737 9.70603 10.4045C9.63845 10.3357 9.85933 9.80387 10.1989 9.22277C10.4758 8.7469 10.6538 8.39166 10.7395 8.12395C10.8549 7.76518 10.8038 7.56346 10.6044 7.43929C10.4873 7.36674 10.3934 7.11184 10.3934 6.87265C10.3934 4.965 8.17802 3.74742 6.49012 4.72716C6.14232 4.92898 5.82748 5.16099 5.79122 5.24238C5.75331 5.32357 5.58848 5.33741 5.42199 5.27288C5.0643 5.13434 5.01485 5.75031 5.31815 6.55613C5.39892 6.77075 5.42694 6.92834 5.40056 7.05803C5.37749 7.16659 5.31485 7.25558 5.21265 7.34228C4.78573 7.70012 4.822 7.89112 5.54067 9.07081C5.88847 9.64254 6.17364 10.2046 6.17364 10.3201C6.17364 10.4357 5.7665 10.5302 5.27035 10.5302C3.55112 10.5302 2.87036 11.5312 2.65278 14.3782ZM6.41401 4.59333C6.23596 4.69664 6.06557 4.80811 5.9338 4.90524C5.86811 4.95366 5.81 4.99999 5.76471 5.0411C5.74212 5.0616 5.72098 5.08237 5.70312 5.10271C5.69131 5.11615 5.67681 5.13398 5.66436 5.15503C5.65935 5.15628 5.65211 5.15762 5.64231 5.15844C5.60232 5.16176 5.54255 5.15429 5.47672 5.12877C5.41436 5.10461 5.34756 5.09254 5.28034 5.10245C5.21108 5.11266 5.15122 5.14482 5.10404 5.19263C5.01546 5.28236 4.98052 5.41661 4.96993 5.54783C4.94816 5.81757 5.01979 6.19769 5.17535 6.61099C5.25315 6.81774 5.2682 6.94088 5.25105 7.02628C5.23726 7.09039 5.2 7.15138 5.11473 7.2238C5.00521 7.31563 4.90779 7.41055 4.84771 7.52522C4.78361 7.64755 4.76875 7.77845 4.79702 7.92742C4.82407 8.06995 4.89104 8.23167 4.99074 8.42476C5.09126 8.61942 5.23078 8.8566 5.41057 9.15171C5.58273 9.43474 5.73894 9.71464 5.8516 9.9369C5.90804 10.0483 5.95261 10.1433 5.98265 10.216C5.99239 10.2396 6.00023 10.2599 6.00633 10.2771C5.97626 10.2901 5.9324 10.3044 5.8738 10.3181C5.72412 10.3528 5.5103 10.3758 5.27035 10.3758C4.37687 10.3758 3.72153 10.639 3.27254 11.2991C2.83557 11.9415 2.60947 12.9399 2.50045 14.3663L2.5 14.3722L2.50023 16.2268H13.5V15.4862C13.5 15.0292 13.3641 14.1376 13.1961 13.303C13.1116 12.8833 13.018 12.4732 12.9273 12.1333C12.8381 11.7987 12.7479 11.5172 12.6678 11.3652C12.4844 11.0206 12.2374 10.7683 11.9004 10.6055C11.5674 10.4446 11.1571 10.3758 10.6538 10.3758C10.4328 10.3758 10.2199 10.362 10.0558 10.3402C9.97344 10.3293 9.90652 10.3168 9.85834 10.304C9.85775 10.3039 9.85716 10.3037 9.85658 10.3036C9.87077 10.2468 9.89869 10.1663 9.9406 10.0656C10.0265 9.85934 10.1632 9.58741 10.3305 9.30124C10.6079 8.82444 10.7936 8.4566 10.8848 8.17165C10.9461 7.98123 10.9708 7.81075 10.9395 7.66159C10.9063 7.50363 10.8144 7.38876 10.6845 7.30788C10.6702 7.29897 10.6325 7.25707 10.598 7.16426C10.5662 7.07855 10.5462 6.97336 10.5462 6.87265C10.5462 4.83556 8.19438 3.55993 6.41401 4.59333ZM9.84665 10.3595C9.84664 10.3597 9.84665 10.3593 9.84665 10.3595ZM9.06864 7.0499L9.06774 7.04941L9.02076 7.02363C9.02063 7.02355 9.02089 7.0237 9.02076 7.02363C8.9069 6.96206 8.83048 6.92096 8.77016 6.89588C8.71127 6.8714 8.68568 6.87021 8.67169 6.87198C8.65713 6.87382 8.63092 6.88192 8.57562 6.9253C8.51927 6.9695 8.44993 7.03604 8.34639 7.13634L8.30328 7.17791C8.22467 7.25361 8.15474 7.31597 8.09239 7.36175C8.03282 7.40549 7.96518 7.44559 7.89227 7.45779C7.80539 7.47233 7.72614 7.44492 7.6661 7.38432C7.61573 7.33349 7.58444 7.26491 7.56153 7.20189C7.56004 7.19778 7.55854 7.1937 7.5571 7.18981C7.5468 7.20393 7.53566 7.21966 7.52356 7.23713C7.485 7.29251 7.44525 7.34193 7.40427 7.3798C7.36517 7.41593 7.31125 7.45456 7.24349 7.46506C7.16521 7.47719 7.09721 7.44787 7.04815 7.401C7.00475 7.35955 6.97605 7.30506 6.95533 7.25393C6.95408 7.25083 6.93723 7.22306 6.8669 7.20451C6.80173 7.18732 6.71432 7.18592 6.62449 7.20972C6.51122 7.23961 6.41407 7.35307 6.36364 7.58713C6.31431 7.81608 6.32127 8.11896 6.3808 8.43565C6.44009 8.75103 6.54926 9.06801 6.694 9.32371C6.84084 9.58312 7.01276 9.75959 7.18766 9.82732C7.78681 10.0597 8.33407 9.96874 8.73091 9.66084C9.12986 9.35131 9.39666 8.80679 9.39666 8.09595C9.39666 7.73199 9.37182 7.50092 9.31764 7.3442C9.26757 7.19937 9.1921 7.11655 9.06864 7.0499ZM7.09671 7.19542C7.16594 7.36632 7.2566 7.35227 7.39835 7.14868C7.56813 6.90336 7.61594 6.90336 7.70495 7.14868C7.78901 7.37996 7.88956 7.3631 8.1978 7.06625L8.24066 7.02493C8.4434 6.82852 8.54395 6.73255 8.65274 6.71882C8.75656 6.7057 8.87027 6.76719 9.09269 6.88745L9.14065 6.91377C9.45219 7.08197 9.54944 7.36362 9.54944 8.09595C9.54944 9.59539 8.42033 10.4708 7.13297 9.97145C6.24287 9.62672 5.79946 7.26786 6.58572 7.06042C6.81154 7.00057 7.04231 7.06125 7.09671 7.19542Z" fill="#212121"/>
</g>
<defs>
<clipPath id="clip0_312_1698">
<rect width="16" height="16" fill="white"/>
</clipPath>
</defs>
</svg>
