<svg width="16" height="16" viewBox="0 0 16 16" fill="none" xmlns="http://www.w3.org/2000/svg">
<path d="M11.1582 8.21875V10H10.6602V5.7168H11.835C12.3604 5.7168 12.748 5.81738 12.998 6.01855C13.25 6.21973 13.376 6.52246 13.376 6.92676C13.376 7.49316 13.0889 7.87598 12.5146 8.0752L13.6777 10H13.0889L12.0518 8.21875H11.1582ZM11.1582 7.79102H11.8408C12.1924 7.79102 12.4502 7.72168 12.6143 7.58301C12.7783 7.44238 12.8604 7.23242 12.8604 6.95312C12.8604 6.66992 12.7764 6.46582 12.6084 6.34082C12.4424 6.21582 12.1748 6.15332 11.8057 6.15332H11.1582V7.79102Z" fill="#212121"/>
<path d="M9.55566 10L9.02246 8.6377H7.30566L6.77832 10H6.27441L7.96777 5.69922H8.38672L10.0713 10H9.55566ZM8.86719 8.18945L8.36914 6.8623C8.30469 6.69434 8.23828 6.48828 8.16992 6.24414C8.12695 6.43164 8.06543 6.6377 7.98535 6.8623L7.48145 8.18945H8.86719Z" fill="#212121"/>
<path d="M5.73535 5.7168H6.27148L4.72754 10H4.23535L2.7002 5.7168H3.22754L4.21191 8.48828C4.3252 8.80664 4.41504 9.11621 4.48145 9.41699C4.55176 9.10059 4.64355 8.78516 4.75684 8.4707L5.73535 5.7168Z" fill="#212121"/>
</svg>
