<svg width="16" height="16" viewBox="0 0 16 16" fill="none" xmlns="http://www.w3.org/2000/svg">
<path fill-rule="evenodd" clip-rule="evenodd" d="M15 8C15 11.866 11.866 15 8 15C4.13401 15 1 11.866 1 8C1 4.13401 4.13401 1 8 1C11.866 1 15 4.13401 15 8ZM9.4694 5.61733C9.97571 5.27047 11.6756 5.96419 11.6756 5.96419L11.3327 5.08223L9.77242 4.56565L9.956 3.03848L11.9874 2.46267L12.3004 3.86288L14.2694 4.93362L14.3316 7.40676L13.411 8.24136C13.411 8.24136 13.5582 9.83764 13.1038 10.8558C12.6493 11.874 11.0722 12.5807 11.0722 12.5807L11.2146 11.5294C11.2146 11.5294 11.4592 10.629 10.8704 10.1273C10.5956 9.89306 10.2206 9.81079 9.86057 9.73178C9.4493 9.64153 9.05744 9.55555 8.85627 9.25227C8.47898 8.68347 9.23357 7.60201 9.23357 7.60201C9.23357 7.60201 8.96308 5.96419 9.4694 5.61733ZM5.38991 3.73888C5.38991 3.73888 4.88483 4.90207 4.27892 5.78049C3.84305 6.4124 2.45833 6.42151 1.63973 6.42689C1.45162 6.42813 1.2934 6.42917 1.18346 6.43753L2.37694 3.86288L3.74522 2.4627L5.36962 2.84391L5.38991 3.73888ZM4.97199 10.5718L4.72971 13.2476C4.72971 13.2476 5.43401 13.2964 5.80081 12.8279C6.1676 12.3595 6.21053 11.3564 6.21053 11.3564C6.21053 11.3564 6.75172 10.4734 6.9609 9.88375C7.17007 9.29411 6.60919 8.42613 6.60919 8.42613C6.60919 8.42613 5.73875 7.55229 4.32595 7.7208C2.91315 7.88931 3.02556 9.08176 3.02556 9.08176L4.97199 10.5718Z" fill="#5EA7FF"/>
<path d="M11.6756 5.96419C11.6756 5.96419 9.97571 5.27047 9.4694 5.61733C8.96308 5.96419 9.23357 7.60201 9.23357 7.60201C9.23357 7.60201 8.47898 8.68347 8.85627 9.25227C9.05744 9.55555 9.4493 9.64153 9.86057 9.73178C10.2206 9.81079 10.5956 9.89306 10.8704 10.1273C11.4592 10.629 11.2146 11.5294 11.2146 11.5294L11.0722 12.5807C11.0722 12.5807 12.6493 11.874 13.1038 10.8558C13.5582 9.83764 13.411 8.24136 13.411 8.24136L14.3316 7.40676L14.2694 4.93362L12.3004 3.86288L11.9874 2.46267L9.956 3.03848L9.77242 4.56565L11.3327 5.08223L11.6756 5.96419Z" fill="#E8E8E8"/>
<path d="M4.27892 5.78049C4.88483 4.90207 5.38991 3.73888 5.38991 3.73888L5.36962 2.84391L3.74522 2.4627L2.37694 3.86288L1.18346 6.43753C1.2934 6.42917 1.45162 6.42813 1.63973 6.42689C2.45833 6.42151 3.84305 6.4124 4.27892 5.78049Z" fill="#E8E8E8"/>
<path d="M4.72971 13.2476L4.97199 10.5718L3.02556 9.08176C3.02556 9.08176 2.91315 7.88931 4.32595 7.7208C5.73875 7.55229 6.60919 8.42613 6.60919 8.42613C6.60919 8.42613 7.17007 9.29411 6.9609 9.88375C6.75172 10.4734 6.21053 11.3564 6.21053 11.3564C6.21053 11.3564 6.1676 12.3595 5.80081 12.8279C5.43401 13.2964 4.72971 13.2476 4.72971 13.2476Z" fill="#E8E8E8"/>
</svg>
