<svg width="16" height="16" viewBox="0 0 16 16" fill="none" xmlns="http://www.w3.org/2000/svg">
<path d="M6.24994 3.29735L5.37503 1.875H2.05008L1 3.29735V6.85767H15V3.29735H6.24994Z" fill="#FFA724"/>
<path d="M15 14.125V4.68164H5.53375V6.76911H1V14.125H15Z" fill="#FFA724"/>
<path d="M6.01904 3.41577H7.01773V3.9789H6.01904V3.41577Z" fill="#C47600"/>
<path d="M7.00098 3.97888H7.99966V4.54201H7.00098V3.97888Z" fill="#C47600"/>
<path d="M7.00098 5.1051H7.99966V5.66823H7.00098V5.1051Z" fill="#C47600"/>
<path d="M7.00098 6.23132H7.99966V6.79445H7.00098V6.23132Z" fill="#C47600"/>
<path d="M7.00098 7.35742H7.99966V7.92055H7.00098V7.35742Z" fill="#C47600"/>
<path d="M7.00098 8.48364H7.99966V9.04677H7.00098V8.48364Z" fill="#C47600"/>
<path d="M6.03516 4.54199H7.03384V5.10512H6.03516V4.54199Z" fill="#C47600"/>
<path d="M6.01904 5.66821H7.01773V6.23134H6.01904V5.66821Z" fill="#C47600"/>
<path d="M6.01904 6.79443H7.01773V7.35756H6.01904V6.79443Z" fill="#C47600"/>
<path d="M6.0166 7.92053H7.01529V8.48366H6.0166V7.92053Z" fill="#C47600"/>
<path d="M6.00244 9.04675H7.00113V9.60988H6.00244V9.04675Z" fill="#C47600"/>
<path d="M6.63939 9.82214H7.36252L7.72408 11.8954H6.27783L6.63939 9.82214Z" fill="#C47600"/>
<path d="M6.85005 10.4863H7.15172L7.30255 11.6054H6.69922L6.85005 10.4863Z" fill="#FFA724"/>
</svg>
